<svg width="140" height="104" viewBox="0 0 140 104" fill="none" xmlns="http://www.w3.org/2000/svg">
<path d="M1.76708 98.8564H5.61343V100.57H0V91.4936H5.54863V93.2018H1.76708V95.1338H5.22467V96.8243H1.76708V98.8564Z" fill="#3B3A3A"/>
<path d="M20.616 91.4936C21.1992 91.4783 21.7791 91.5869 22.3172 91.8123C22.8554 92.0377 23.3396 92.3748 23.7378 92.8012C24.5483 93.6855 24.9978 94.8414 24.9978 96.0409C24.9978 97.2403 24.5483 98.3963 23.7378 99.2805C23.3401 99.708 22.8562 100.046 22.318 100.273C21.7798 100.499 21.1997 100.609 20.616 100.594H16.9875V91.4936H20.616ZM20.616 98.8564C20.9733 98.8699 21.3294 98.8069 21.6606 98.6718C21.9917 98.5368 22.2902 98.3326 22.5362 98.073C23.0154 97.4997 23.278 96.7763 23.278 96.0291C23.278 95.2819 23.0154 94.5584 22.5362 93.9852C22.2895 93.7265 21.9909 93.5229 21.6599 93.3879C21.329 93.2529 20.9732 93.1894 20.616 93.2018H18.7782V98.8564H20.616Z" fill="#3B3A3A"/>
<path d="M39.671 100.753C38.762 100.789 37.8727 100.482 37.1794 99.8931C36.8573 99.6073 36.603 99.2534 36.4349 98.8571C36.2668 98.4607 36.1891 98.0319 36.2075 97.6018V91.4936H37.9746V97.4545C37.9636 97.6606 37.9938 97.8668 38.0636 98.061C38.1334 98.2552 38.2413 98.4335 38.381 98.5855C38.5555 98.7364 38.7586 98.8507 38.9782 98.9215C39.1978 98.9924 39.4294 99.0183 39.6592 98.9978C40.1229 99.0339 40.5822 98.8858 40.9374 98.5855C41.077 98.4335 41.1849 98.2552 41.2547 98.061C41.3245 97.8668 41.3548 97.6606 41.3438 97.4545V91.4936H43.1109V97.6018C43.1292 98.0319 43.0515 98.4607 42.8834 98.8571C42.7153 99.2534 42.461 99.6073 42.139 99.8931C41.4506 100.474 40.5715 100.781 39.671 100.753V100.753Z" fill="#3B3A3A"/>
<path d="M59.1737 100.753C58.5453 100.772 57.9197 100.661 57.3366 100.426C56.7536 100.191 56.2258 99.8366 55.7868 99.3865C54.986 98.5752 54.5039 97.5027 54.4286 96.3652C54.3533 95.2277 54.6898 94.101 55.3767 93.1912C56.0635 92.2813 57.0549 91.649 58.1695 91.4098C59.2841 91.1705 60.4476 91.3404 61.4473 91.8882C62.1233 92.2501 62.6875 92.7898 63.0789 93.4491L61.5357 94.3445C61.3132 93.9414 60.98 93.6103 60.5756 93.3902C60.0075 93.0992 59.3637 92.9901 58.7314 93.0775C58.0992 93.165 57.5091 93.4448 57.0414 93.8791C56.5172 94.4715 56.2278 95.2351 56.2278 96.0261C56.2278 96.8171 56.5172 97.5808 57.0414 98.1731C57.5115 98.6035 58.1016 98.8803 58.7331 98.9666C59.3645 99.0529 60.0073 98.9446 60.5756 98.6562C60.9782 98.4411 61.3097 98.1137 61.5298 97.7137L63.0731 98.609C62.6831 99.2669 62.1237 99.808 61.4532 100.176C60.7553 100.56 59.9704 100.759 59.1737 100.753Z" fill="#3B3A3A"/>
<path d="M80.2253 100.57L79.6363 98.933H75.9019L75.36 100.57H73.428L76.6028 91.4936H78.8235L82.0278 100.57H80.2253ZM76.4968 97.2601H79.0532L77.7514 93.5552L76.4968 97.2601Z" fill="#3B3A3A"/>
<path d="M97.0187 98.9978C97.5075 99.0057 97.9902 98.8881 98.4206 98.6562C98.8253 98.4439 99.1576 98.1158 99.3748 97.7137L100.918 98.609C100.59 99.1618 100.141 99.6331 99.6045 99.9873C99.0539 100.358 98.4319 100.608 97.7786 100.724V101.189C98.0192 101.244 98.2409 101.362 98.4206 101.531C98.5093 101.618 98.5787 101.723 98.6243 101.838C98.67 101.954 98.6909 102.078 98.6857 102.202C98.6857 103.109 97.7354 103.502 95.8348 103.38V102.202C96.7654 102.261 97.2367 102.202 97.2367 101.943C97.2367 101.684 96.9598 101.66 96.4179 101.619V100.724C95.2764 100.613 94.2214 100.067 93.4728 99.1981C92.6997 98.2769 92.2918 97.104 92.3265 95.9019C92.3613 94.6999 92.8362 93.5524 93.6613 92.6775C94.1023 92.231 94.6308 91.8802 95.2135 91.6471C95.7963 91.414 96.4208 91.3036 97.0482 91.3228C97.844 91.3209 98.627 91.5238 99.3218 91.9118C99.9949 92.2755 100.557 92.8149 100.948 93.4727L99.4043 94.368C99.1845 93.9629 98.8506 93.6311 98.4442 93.4138C98.0162 93.1811 97.5352 93.0634 97.0482 93.0722C96.6537 93.0553 96.2601 93.1205 95.8921 93.2634C95.524 93.4064 95.1897 93.624 94.91 93.9027C94.3893 94.4968 94.1023 95.2598 94.1023 96.0497C94.1023 96.8396 94.3893 97.6027 94.91 98.1967C95.1893 98.4655 95.5201 98.6751 95.8825 98.8127C96.2449 98.9504 96.6314 99.0134 97.0187 98.9978V98.9978Z" fill="#3B3A3A"/>
<path d="M118.064 100.57L117.475 98.933H113.747L113.199 100.57H111.267L114.448 91.4936H116.663L119.867 100.57H118.064ZM115.449 90.4039C115.196 90.2272 115.019 90.1624 114.913 90.1977C114.807 90.2331 114.76 90.4039 114.76 90.7161H113.411C113.404 90.3715 113.45 90.0278 113.547 89.697C113.611 89.4574 113.74 89.2396 113.918 89.0668C114.068 88.9304 114.254 88.8387 114.454 88.8017C114.667 88.7619 114.887 88.772 115.096 88.8312C115.336 88.9006 115.564 89.0058 115.773 89.1434C116.021 89.3201 116.197 89.3849 116.297 89.3495C116.398 89.3142 116.445 89.1434 116.445 88.8312H117.805C117.821 89.2461 117.749 89.6596 117.593 90.0446C117.485 90.3213 117.274 90.5453 117.004 90.6689C116.768 90.7689 116.508 90.7956 116.256 90.7455C115.967 90.6862 115.693 90.5701 115.449 90.4039ZM114.371 97.2602H116.928L115.614 93.5552L114.371 97.2602Z" fill="#3B3A3A"/>
<path d="M138.192 99.3807C137.415 100.169 136.389 100.664 135.288 100.78C134.188 100.897 133.081 100.627 132.157 100.017C131.233 99.4081 130.549 98.4968 130.223 97.4393C129.896 96.3818 129.947 95.2437 130.366 94.2195C130.786 93.1952 131.548 92.3484 132.522 91.8237C133.497 91.299 134.623 91.1289 135.709 91.3426C136.795 91.5562 137.773 92.1404 138.476 92.9951C139.179 93.8499 139.564 94.9223 139.564 96.0291C139.576 96.6518 139.46 97.2703 139.224 97.8466C138.988 98.4229 138.637 98.945 138.192 99.3807ZM132.755 98.1614C133.171 98.5744 133.702 98.8536 134.278 98.9634C134.854 99.0732 135.45 99.0084 135.989 98.7775C136.528 98.5465 136.986 98.1599 137.304 97.6671C137.622 97.1743 137.785 96.5978 137.773 96.0114C137.787 95.6163 137.719 95.2227 137.574 94.8549C137.429 94.4871 137.21 94.153 136.931 93.8732C136.37 93.333 135.622 93.0312 134.843 93.0312C134.064 93.0312 133.316 93.333 132.755 93.8732C132.482 94.1562 132.269 94.4916 132.13 94.8591C131.99 95.2266 131.926 95.6186 131.942 96.0114C131.922 96.4064 131.984 96.8012 132.124 97.1712C132.264 97.5411 132.479 97.8782 132.755 98.1614Z" fill="#3B3A3A"/>
<path d="M71.6138 29.2099H35.8069V42.999H71.6138V29.2099Z" fill="#BBB8B7"/>
<path d="M42.7044 36.1015H28.9153V71.9084H42.7044V36.1015Z" fill="#00ACB4"/>
<path d="M42.7045 42.999H0V29.2099H28.9153V0.294529H42.7045V42.999Z" fill="#D91F3D"/>
<path d="M140 0.294529H126.211V71.9084H140V0.294529Z" fill="#3B3A3A"/>
<path d="M103.899 72.2029C96.7584 72.2029 89.7786 70.0856 83.8417 66.1188C77.9048 62.1519 73.2776 56.5136 70.5452 49.9169C67.8128 43.3202 67.0978 36.0614 68.4908 29.0584C69.8838 22.0554 73.3221 15.6228 78.371 10.5739C83.4199 5.52501 89.8525 2.08668 96.8555 0.693696C103.859 -0.699287 111.117 0.0156422 117.714 2.74808C124.311 5.48051 129.949 10.1077 133.916 16.0446C137.883 21.9814 140 28.9613 140 36.1015C139.991 45.6733 136.184 54.8504 129.416 61.6187C122.648 68.387 113.47 72.1936 103.899 72.2029V72.2029ZM103.899 13.7891C99.4856 13.7891 95.1718 15.0977 91.5025 17.5494C87.8333 20.0012 84.9735 23.4859 83.2847 27.5629C81.5959 31.64 81.1541 36.1262 82.015 40.4544C82.8759 44.7826 85.001 48.7583 88.1214 51.8787C91.2418 54.9991 95.2175 57.1242 99.5457 57.9851C103.874 58.846 108.36 58.4042 112.437 56.7154C116.514 55.0266 119.999 52.1668 122.451 48.4976C124.902 44.8283 126.211 40.5144 126.211 36.1015C126.203 30.1863 123.85 24.5156 119.667 20.3329C115.485 16.1502 109.814 13.7969 103.899 13.7891V13.7891Z" fill="#3B3A3A"/>
</svg>
