<svg width="717" height="225" viewBox="0 0 717 225" fill="none" xmlns="http://www.w3.org/2000/svg">
<path d="M669.5 66.79H47.5C21.2665 66.79 0 88.0565 0 114.29C0 140.524 21.2665 161.79 47.5 161.79H669.5C695.734 161.79 717 140.524 717 114.29C717 88.0565 695.734 66.79 669.5 66.79Z" fill="#3B3A3A"/>
<path d="M293 214C348.228 214 393 169.228 393 114C393 58.7715 348.228 14 293 14C237.772 14 193 58.7715 193 114C193 169.228 237.772 214 293 214Z" fill="#1EBCC5"/>
<path d="M66.1098 111.41V100.41H60.3398V111.41H49.3398V117.19H60.3398V128.12H66.1098V117.19H76.9998V111.41H66.1098ZM65.3598 127.41H61.0898V117.19H65.3598V127.41ZM76.2898 116.47H66.1098V112.2H76.2898V116.47Z" fill="white"/>
<path d="M113.12 132.52C112.759 132.546 112.399 132.446 112.104 132.236C111.808 132.026 111.595 131.72 111.5 131.37L110.98 128.82C110.455 129.424 109.88 129.983 109.26 130.49C108.662 130.988 108.011 131.421 107.32 131.78C106.61 132.147 105.858 132.425 105.08 132.61C104.236 132.815 103.369 132.916 102.5 132.91C101.129 132.93 99.7726 132.622 98.5445 132.012C97.3163 131.401 96.252 130.506 95.4404 129.4C94.5116 128.13 93.8328 126.694 93.4404 125.17C92.9434 123.291 92.7045 121.353 92.7304 119.41C92.7159 117.563 92.9857 115.725 93.5304 113.96C94.016 112.371 94.7925 110.886 95.8204 109.58C96.7914 108.37 98.0127 107.384 99.4004 106.69C100.861 105.995 102.464 105.652 104.08 105.69C105.376 105.658 106.664 105.9 107.86 106.4C108.895 106.864 109.843 107.504 110.66 108.29V94.3101H117V132.52H113.12ZM104.66 127.87C105.837 127.907 107.002 127.624 108.03 127.05C109.034 126.429 109.921 125.637 110.65 124.71V112.88C110.033 112.07 109.226 111.424 108.3 111C107.433 110.638 106.501 110.454 105.56 110.46C104.678 110.455 103.805 110.639 103 111C102.204 111.366 101.515 111.931 101 112.64C100.411 113.475 99.9863 114.415 99.7504 115.41C99.4368 116.72 99.289 118.064 99.3104 119.41C99.2893 120.727 99.4167 122.042 99.6904 123.33C99.8757 124.262 100.235 125.151 100.75 125.95C101.169 126.589 101.758 127.098 102.45 127.42C103.147 127.724 103.9 127.877 104.66 127.87Z" fill="white"/>
<path d="M134.77 105.73C136.336 105.711 137.891 105.979 139.36 106.52C140.718 107.032 141.952 107.826 142.98 108.85C144.025 109.921 144.83 111.203 145.34 112.61C145.934 114.236 146.222 115.959 146.19 117.69C146.194 118.087 146.174 118.485 146.13 118.88C146.102 119.142 146.024 119.397 145.9 119.63C145.792 119.803 145.631 119.937 145.44 120.01C145.211 120.098 144.966 120.139 144.72 120.13H128.42C128.614 122.843 129.344 124.843 130.61 126.13C131.271 126.77 132.055 127.27 132.914 127.598C133.774 127.927 134.691 128.077 135.61 128.04C136.51 128.057 137.407 127.936 138.27 127.68C138.942 127.469 139.594 127.201 140.22 126.88C140.78 126.59 141.27 126.32 141.69 126.08C142.059 125.856 142.479 125.731 142.91 125.72C143.144 125.712 143.375 125.767 143.58 125.88C143.772 125.987 143.939 126.133 144.07 126.31L145.92 128.63C145.236 129.432 144.437 130.13 143.55 130.7C142.692 131.252 141.773 131.701 140.81 132.04C139.87 132.371 138.898 132.605 137.91 132.74C136.96 132.877 136.001 132.948 135.04 132.95C133.316 132.944 131.608 132.622 130 132C128.451 131.407 127.049 130.486 125.89 129.3C124.675 128.031 123.739 126.522 123.14 124.87C122.437 122.915 122.098 120.847 122.14 118.77C122.126 117.038 122.424 115.317 123.02 113.69C123.569 112.155 124.423 110.746 125.53 109.55C126.649 108.345 128.013 107.394 129.53 106.76C131.187 106.06 132.971 105.709 134.77 105.73ZM134.9 110.28C134.107 110.234 133.312 110.349 132.564 110.619C131.817 110.889 131.132 111.308 130.55 111.85C129.422 113.079 128.72 114.64 128.55 116.3H140.48C140.486 115.511 140.374 114.726 140.15 113.97C139.946 113.271 139.606 112.618 139.15 112.05C138.672 111.49 138.074 111.046 137.4 110.75C136.609 110.419 135.757 110.259 134.9 110.28Z" fill="white"/>
<path d="M436.08 112.35V95.35H438C438.179 95.3427 438.356 95.3879 438.51 95.48C438.653 95.5824 438.75 95.7368 438.78 95.91L439.03 97.1C439.539 96.5202 440.145 96.033 440.82 95.66C441.543 95.2782 442.353 95.0888 443.17 95.11C443.835 95.1008 444.493 95.2512 445.088 95.5488C445.683 95.8463 446.198 96.2822 446.59 96.82C447.046 97.4181 447.385 98.0966 447.59 98.82C447.826 99.7309 447.94 100.669 447.93 101.61C447.939 102.512 447.807 103.409 447.54 104.27C447.308 105.042 446.935 105.764 446.44 106.4C445.965 107.004 445.357 107.491 444.663 107.822C443.97 108.154 443.209 108.321 442.44 108.31C441.807 108.327 441.178 108.215 440.59 107.98C440.088 107.757 439.631 107.445 439.24 107.06V112.31L436.08 112.35ZM442.08 97.54C441.507 97.5211 440.94 97.6595 440.44 97.94C439.95 98.2421 439.519 98.6319 439.17 99.09V104.84C439.471 105.229 439.862 105.538 440.31 105.74C440.732 105.913 441.184 106.002 441.64 106C442.077 106.005 442.51 105.916 442.91 105.74C443.308 105.566 443.653 105.29 443.91 104.94C444.201 104.532 444.409 104.069 444.52 103.58C444.67 102.948 444.74 102.3 444.73 101.65C444.741 101.009 444.681 100.368 444.55 99.74C444.459 99.2874 444.283 98.8564 444.03 98.47C443.825 98.1643 443.542 97.9192 443.21 97.76C442.855 97.6008 442.469 97.5255 442.08 97.54V97.54Z" fill="white"/>
<path d="M450.22 108.16V95.34H452C452.112 95.3153 452.229 95.3168 452.341 95.3446C452.453 95.3723 452.557 95.4255 452.645 95.5C452.733 95.5745 452.803 95.6683 452.849 95.7741C452.895 95.8799 452.915 95.9948 452.91 96.11L453.1 97.66C453.506 96.9354 454.054 96.2996 454.71 95.79C455.308 95.3367 456.039 95.0941 456.79 95.1C457.346 95.0807 457.894 95.2344 458.36 95.54L457.96 97.85C457.951 97.9736 457.893 98.0886 457.8 98.17C457.699 98.2351 457.58 98.2666 457.46 98.26C457.287 98.2512 457.115 98.2209 456.95 98.17C456.667 98.1124 456.378 98.0856 456.09 98.09C455.495 98.0686 454.911 98.2561 454.44 98.62C453.931 99.0353 453.53 99.5669 453.27 100.17V108.17L450.22 108.16Z" fill="white"/>
<path d="M465.9 95.1401C466.792 95.1258 467.677 95.2819 468.51 95.6001C469.262 95.8904 469.944 96.3369 470.51 96.9101C471.076 97.5093 471.509 98.2216 471.78 99.0001C472.38 100.777 472.38 102.703 471.78 104.48C471.505 105.259 471.069 105.971 470.5 106.57C469.94 107.156 469.257 107.61 468.5 107.9C467.666 108.213 466.781 108.369 465.89 108.36C464.999 108.367 464.115 108.211 463.28 107.9C462.524 107.609 461.841 107.155 461.28 106.57C460.705 105.974 460.265 105.261 459.99 104.48C459.38 102.704 459.384 100.774 460 99.0001C460.268 98.2294 460.702 97.5267 461.27 96.9412C461.839 96.3556 462.528 95.9013 463.29 95.6101C464.123 95.2906 465.008 95.1312 465.9 95.1401ZM465.9 105.97C466.353 106.006 466.808 105.926 467.222 105.739C467.637 105.552 467.997 105.263 468.27 104.9C468.776 103.925 469.04 102.843 469.04 101.745C469.04 100.647 468.776 99.5648 468.27 98.5901C468 98.2223 467.641 97.9292 467.226 97.7385C466.812 97.5479 466.355 97.4658 465.9 97.5001C465.441 97.4653 464.98 97.547 464.561 97.7375C464.141 97.928 463.776 98.2212 463.5 98.5901C462.93 99.5412 462.661 100.643 462.73 101.75C462.661 102.851 462.929 103.946 463.5 104.89C463.775 105.261 464.139 105.557 464.559 105.751C464.978 105.945 465.439 106.031 465.9 106V105.97Z" fill="white"/>
<path d="M475.19 108.16V97.6599L474.08 97.4899C473.869 97.456 473.669 97.37 473.5 97.2399C473.425 97.1743 473.366 97.0924 473.328 97.0005C473.29 96.9087 473.273 96.8092 473.28 96.7099V95.4499H475.19V94.9999C475.183 94.2554 475.315 93.5161 475.58 92.8199C475.831 92.1548 476.231 91.5562 476.75 91.0699C477.329 90.5522 478.011 90.1606 478.75 89.9199C479.666 89.6224 480.626 89.4804 481.59 89.4999C481.94 89.4999 482.3 89.4999 482.66 89.4999C482.998 89.5271 483.333 89.5874 483.66 89.6799L483.56 91.2799C483.56 91.3662 483.529 91.4497 483.472 91.5143C483.414 91.5789 483.335 91.6201 483.25 91.6299C483.014 91.6531 482.776 91.6531 482.54 91.6299C481.866 91.6211 481.195 91.695 480.54 91.8499C480.055 91.9591 479.601 92.1742 479.21 92.4799C478.884 92.7426 478.636 93.088 478.49 93.4799C478.333 93.9538 478.258 94.451 478.27 94.9499V95.2599H486.22V107.97H483V97.6499H478.24V108.16H475.19Z" fill="white"/>
<path d="M497.28 97.84C497.214 97.9511 497.126 98.0466 497.02 98.12C496.911 98.1746 496.791 98.2021 496.67 98.2C496.501 98.1978 496.336 98.1531 496.19 98.07L495.59 97.79C495.339 97.6811 495.082 97.5875 494.82 97.51C494.493 97.4253 494.157 97.385 493.82 97.39C493.315 97.3649 492.815 97.4978 492.39 97.77C492.227 97.8815 492.094 98.0307 492.002 98.2048C491.91 98.379 491.861 98.5729 491.86 98.77C491.858 99.0261 491.955 99.2731 492.13 99.46C492.335 99.6647 492.576 99.8307 492.84 99.95C493.162 100.106 493.497 100.236 493.84 100.34L494.99 100.7C495.38 100.84 495.76 100.99 496.14 101.16C496.504 101.325 496.841 101.545 497.14 101.81C497.468 102.088 497.728 102.436 497.902 102.83C498.075 103.223 498.156 103.651 498.14 104.08C498.142 104.667 498.027 105.249 497.8 105.79C497.569 106.308 497.228 106.769 496.8 107.14C496.329 107.534 495.785 107.833 495.2 108.02C494.489 108.248 493.746 108.356 493 108.34C492.567 108.341 492.135 108.3 491.71 108.22C491.298 108.143 490.893 108.033 490.5 107.89C490.126 107.756 489.764 107.588 489.42 107.39C489.11 107.213 488.819 107.005 488.55 106.77L489.26 105.59C489.343 105.459 489.456 105.35 489.59 105.27C489.731 105.185 489.895 105.143 490.06 105.15C490.256 105.152 490.447 105.211 490.61 105.32L491.2 105.67C491.458 105.805 491.725 105.922 492 106.02C492.371 106.139 492.76 106.193 493.15 106.18C493.471 106.188 493.792 106.144 494.1 106.05C494.336 105.975 494.557 105.856 494.75 105.7C494.912 105.57 495.039 105.402 495.12 105.21C495.199 105.027 495.24 104.829 495.24 104.63C495.247 104.495 495.227 104.36 495.181 104.232C495.134 104.105 495.063 103.989 494.97 103.89C494.765 103.682 494.525 103.512 494.26 103.39C493.936 103.239 493.602 103.112 493.26 103.01C492.88 102.9 492.49 102.78 492.09 102.64C491.694 102.507 491.307 102.35 490.93 102.17C490.562 101.999 490.224 101.77 489.93 101.49C489.623 101.212 489.381 100.871 489.22 100.49C489.028 100.031 488.936 99.537 488.95 99.04C488.945 98.5236 489.051 98.0123 489.26 97.54C489.467 97.0612 489.782 96.6368 490.18 96.3C490.622 95.9196 491.135 95.6307 491.69 95.45C492.362 95.2221 493.07 95.1138 493.78 95.13C494.607 95.1176 495.428 95.2636 496.2 95.56C496.868 95.8288 497.479 96.2225 498 96.72L497.28 97.84Z" fill="white"/>
<path d="M508.2 97.84C508.135 97.9511 508.046 98.0466 507.94 98.12C507.832 98.1758 507.712 98.2033 507.59 98.2C507.422 98.1978 507.257 98.1531 507.11 98.07L506.52 97.79C506.269 97.6827 506.012 97.5892 505.75 97.51C505.424 97.4265 505.088 97.3862 504.75 97.39C504.243 97.3635 503.739 97.4964 503.31 97.77C503.149 97.882 503.018 98.0315 502.927 98.2058C502.836 98.38 502.789 98.5736 502.79 98.77C502.789 99.0261 502.885 99.2731 503.06 99.46C503.262 99.6692 503.503 99.8358 503.77 99.95C504.093 100.106 504.427 100.237 504.77 100.34L505.92 100.7C506.31 100.84 506.7 100.99 507.07 101.16C507.434 101.326 507.771 101.545 508.07 101.81C508.397 102.089 508.656 102.438 508.829 102.831C509.002 103.224 509.085 103.651 509.07 104.08C509.078 104.667 508.962 105.25 508.73 105.79C508.504 106.31 508.162 106.772 507.73 107.14C507.256 107.534 506.709 107.833 506.12 108.02C505.413 108.247 504.673 108.355 503.93 108.34C503.494 108.341 503.059 108.301 502.63 108.22C502.219 108.142 501.815 108.032 501.42 107.89C501.049 107.758 500.69 107.59 500.35 107.39C500.041 107.213 499.749 107.005 499.48 106.77L500.19 105.59C500.271 105.46 500.381 105.351 500.51 105.27C500.656 105.186 500.822 105.144 500.99 105.15C501.183 105.153 501.371 105.213 501.53 105.32L502.13 105.67C502.385 105.806 502.649 105.922 502.92 106.02C503.295 106.139 503.687 106.193 504.08 106.18C504.399 106.188 504.716 106.144 505.02 106.05C505.258 105.976 505.478 105.858 505.67 105.7C505.835 105.57 505.966 105.402 506.05 105.21C506.121 105.025 506.159 104.828 506.16 104.63C506.168 104.495 506.148 104.36 506.101 104.232C506.055 104.105 505.983 103.989 505.89 103.89C505.69 103.677 505.448 103.507 505.18 103.39C504.858 103.236 504.524 103.109 504.18 103.01C503.8 102.9 503.41 102.78 503.02 102.64C502.623 102.51 502.236 102.353 501.86 102.17C501.495 101.995 501.157 101.766 500.86 101.49C500.56 101.207 500.318 100.867 500.15 100.49C499.959 100.031 499.867 99.537 499.88 99.04C499.881 98.5241 499.986 98.0138 500.19 97.54C500.401 97.0633 500.715 96.6397 501.11 96.3C501.556 95.9195 502.073 95.6307 502.63 95.45C503.303 95.2221 504.01 95.1138 504.72 95.13C505.544 95.1174 506.362 95.2634 507.13 95.56C507.803 95.8225 508.417 96.2131 508.94 96.71L508.2 97.84Z" fill="white"/>
<path d="M515.27 91.6C515.271 91.8596 515.213 92.116 515.1 92.35C514.999 92.58 514.853 92.7874 514.67 92.96C514.49 93.1402 514.276 93.283 514.04 93.38C513.798 93.4885 513.536 93.5431 513.27 93.54C513.008 93.5429 512.749 93.4883 512.51 93.38C512.278 93.2827 512.067 93.1399 511.89 92.96C511.717 92.7817 511.575 92.5755 511.47 92.35C511.369 92.1131 511.318 91.8577 511.32 91.6C511.318 91.3326 511.369 91.0673 511.47 90.82C511.573 90.59 511.715 90.3801 511.89 90.2C512.067 90.02 512.278 89.8772 512.51 89.78C512.751 89.6775 513.009 89.6232 513.27 89.62C513.535 89.6218 513.797 89.6762 514.04 89.78C514.276 89.877 514.49 90.0198 514.67 90.2C514.855 90.3743 515.002 90.5856 515.1 90.82C515.212 91.0649 515.27 91.3309 515.27 91.6V91.6ZM514.8 95.34V108.16H511.72V95.34H514.8Z" fill="white"/>
<path d="M523.77 95.14C524.658 95.127 525.541 95.2832 526.37 95.6C527.122 95.8917 527.803 96.3381 528.37 96.91C528.937 97.5089 529.37 98.2213 529.64 99C530.24 100.777 530.24 102.703 529.64 104.48C529.369 105.258 528.936 105.97 528.37 106.57C527.809 107.155 527.126 107.609 526.37 107.9C525.54 108.212 524.658 108.368 523.77 108.36C522.876 108.368 521.988 108.212 521.15 107.9C520.394 107.609 519.712 107.155 519.15 106.57C518.575 105.974 518.135 105.261 517.86 104.48C517.247 102.705 517.247 100.775 517.86 99C518.129 98.2294 518.562 97.5267 519.13 96.9411C519.699 96.3556 520.388 95.9013 521.15 95.61C521.986 95.2896 522.875 95.1301 523.77 95.14ZM523.77 105.97C524.222 106.005 524.675 105.925 525.088 105.738C525.5 105.551 525.859 105.263 526.13 104.9C526.636 103.925 526.9 102.843 526.9 101.745C526.9 100.647 526.636 99.5648 526.13 98.59C525.862 98.223 525.504 97.9304 525.091 97.7397C524.679 97.549 524.224 97.4666 523.77 97.5C523.311 97.4634 522.849 97.5442 522.43 97.7349C522.01 97.9256 521.645 98.2198 521.37 98.59C520.792 99.5381 520.519 100.642 520.59 101.75C520.519 102.852 520.791 103.949 521.37 104.89C521.644 105.263 522.008 105.56 522.428 105.754C522.847 105.948 523.309 106.033 523.77 106V105.97Z" fill="white"/>
<path d="M532.5 108.16V95.34H534.39C534.566 95.3269 534.742 95.3757 534.886 95.4779C535.03 95.5801 535.134 95.7294 535.18 95.9L535.39 96.9C535.644 96.6388 535.918 96.3981 536.21 96.18C536.495 95.9621 536.8 95.7713 537.12 95.61C537.815 95.2757 538.579 95.1112 539.35 95.13C539.99 95.1207 540.626 95.2397 541.22 95.48C541.741 95.7045 542.203 96.0468 542.57 96.48C542.943 96.9277 543.225 97.4441 543.4 98C543.597 98.6479 543.692 99.3228 543.68 100V108.16H540.59V100C540.631 99.3486 540.44 98.7037 540.05 98.18C539.845 97.9567 539.591 97.783 539.309 97.6721C539.026 97.5612 538.722 97.5161 538.42 97.54C537.898 97.5355 537.383 97.6591 536.92 97.9C536.427 98.1611 535.978 98.4986 535.59 98.9V108.17L532.5 108.16Z" fill="white"/>
<path d="M556.77 108.16H555.38C555.143 108.172 554.906 108.128 554.69 108.03C554.595 107.972 554.513 107.895 554.449 107.804C554.386 107.712 554.342 107.609 554.32 107.5L554.04 106.59C553.72 106.88 553.4 107.13 553.09 107.36C552.774 107.573 552.439 107.757 552.09 107.91C551.746 108.061 551.387 108.175 551.02 108.25C550.607 108.325 550.189 108.362 549.77 108.36C549.261 108.366 548.755 108.292 548.27 108.14C547.833 108.009 547.43 107.784 547.09 107.48C546.754 107.179 546.491 106.807 546.32 106.39C546.131 105.909 546.039 105.396 546.05 104.88C546.053 104.376 546.184 103.88 546.43 103.44C546.738 102.913 547.175 102.472 547.7 102.16C548.428 101.703 549.225 101.366 550.06 101.16C551.26 100.888 552.489 100.764 553.72 100.79V100.03C553.773 99.3462 553.582 98.6656 553.18 98.11C552.978 97.8971 552.732 97.7312 552.459 97.6241C552.186 97.5169 551.892 97.4712 551.6 97.49C551.177 97.4802 550.755 97.5376 550.35 97.66C550.047 97.7634 549.755 97.8975 549.48 98.06L548.8 98.45C548.589 98.5668 548.351 98.6255 548.11 98.62C547.917 98.6265 547.728 98.5704 547.57 98.46C547.422 98.3544 547.299 98.2179 547.21 98.06L546.65 97.06C548.103 95.7264 550.018 95.0094 551.99 95.06C552.674 95.0467 553.355 95.1726 553.99 95.43C554.555 95.6533 555.066 95.9942 555.49 96.43C555.904 96.884 556.221 97.4184 556.42 98C556.637 98.6443 556.745 99.3202 556.74 100L556.77 108.16ZM550.77 106.24C551.062 106.242 551.354 106.212 551.64 106.15C551.903 106.095 552.158 106.008 552.4 105.89C552.642 105.772 552.874 105.632 553.09 105.47C553.324 105.287 553.545 105.086 553.75 104.87V102.72C552.996 102.71 552.243 102.767 551.5 102.89C550.996 102.975 550.506 103.123 550.04 103.33C549.727 103.46 549.457 103.675 549.26 103.95C549.11 104.175 549.03 104.44 549.03 104.71C549.007 104.929 549.039 105.151 549.123 105.355C549.207 105.559 549.34 105.74 549.51 105.88C549.877 106.138 550.321 106.265 550.77 106.24Z" fill="white"/>
<path d="M563.55 91.6C563.554 91.8588 563.499 92.1153 563.39 92.35C563.302 92.5895 563.17 92.8101 563 93C562.819 93.1802 562.605 93.3229 562.37 93.42C562.124 93.5293 561.858 93.5839 561.59 93.58C561.075 93.57 560.585 93.3623 560.22 93C560.038 92.8225 559.894 92.6111 559.794 92.3777C559.695 92.1443 559.642 91.8936 559.64 91.64C559.641 91.372 559.696 91.107 559.8 90.86C560 90.416 560.356 90.0604 560.8 89.86C561.036 89.7572 561.291 89.7028 561.55 89.7C561.818 89.7005 562.083 89.7549 562.33 89.86C562.565 89.957 562.779 90.0997 562.96 90.28C563.141 90.4575 563.287 90.6679 563.39 90.9C563.487 91.1208 563.542 91.3585 563.55 91.6V91.6ZM563.09 95.34V108.16H560V95.34H563.09Z" fill="white"/>
<path d="M574.19 97.84C574.124 97.951 574.036 98.0466 573.93 98.12C573.822 98.1758 573.701 98.2033 573.58 98.2C573.411 98.1978 573.246 98.1531 573.1 98.07L572.5 97.79C572.249 97.681 571.992 97.5875 571.73 97.51C571.403 97.425 571.067 97.3846 570.73 97.39C570.222 97.3635 569.718 97.4964 569.29 97.77C569.127 97.8815 568.994 98.0307 568.902 98.2048C568.809 98.379 568.761 98.5729 568.76 98.77C568.758 99.0261 568.855 99.2731 569.03 99.46C569.235 99.6647 569.475 99.8307 569.74 99.95C570.063 100.104 570.397 100.235 570.74 100.34L571.89 100.7C572.28 100.84 572.67 100.99 573.04 101.16C573.403 101.326 573.74 101.545 574.04 101.81C574.333 102.076 574.574 102.395 574.75 102.75C574.94 103.167 575.032 103.622 575.02 104.08C575.027 104.667 574.911 105.25 574.68 105.79C574.456 106.312 574.114 106.774 573.68 107.14C573.209 107.534 572.665 107.833 572.08 108.02C571.369 108.248 570.626 108.356 569.88 108.34C569.447 108.341 569.015 108.3 568.59 108.22C568.178 108.142 567.774 108.031 567.38 107.89C567.006 107.756 566.644 107.588 566.3 107.39C565.99 107.213 565.698 107.005 565.43 106.77L566.15 105.59C566.231 105.46 566.34 105.351 566.47 105.27C566.615 105.185 566.782 105.143 566.95 105.15C567.142 105.153 567.33 105.212 567.49 105.32L568.08 105.67C568.338 105.805 568.605 105.922 568.88 106.02C569.251 106.138 569.64 106.192 570.03 106.18C570.368 106.193 570.706 106.149 571.03 106.05C571.267 105.976 571.488 105.858 571.68 105.7C571.842 105.57 571.969 105.402 572.05 105.21C572.129 105.027 572.169 104.829 572.17 104.63C572.177 104.495 572.157 104.359 572.111 104.232C572.064 104.105 571.992 103.989 571.9 103.89C571.697 103.68 571.456 103.51 571.19 103.39C570.867 103.238 570.532 103.111 570.19 103.01C569.81 102.9 569.42 102.78 569.02 102.64C568.624 102.507 568.237 102.35 567.86 102.17C567.493 101.997 567.156 101.767 566.86 101.49C566.557 101.209 566.315 100.869 566.15 100.49C565.958 100.031 565.866 99.537 565.88 99.04C565.875 98.5236 565.981 98.0123 566.19 97.54C566.4 97.0633 566.715 96.6397 567.11 96.3C567.552 95.9196 568.065 95.6307 568.62 95.45C569.296 95.2221 570.006 95.1138 570.72 95.13C571.543 95.1184 572.361 95.2644 573.13 95.56C573.801 95.8247 574.415 96.215 574.94 96.71L574.19 97.84Z" fill="white"/>
<path d="M591.35 108.16C591.175 108.173 591.002 108.123 590.859 108.021C590.717 107.919 590.614 107.77 590.57 107.6L590.32 106.36C590.06 106.65 589.78 106.921 589.48 107.17C589.173 107.418 588.837 107.63 588.48 107.8C588.136 107.975 587.774 108.113 587.4 108.21C586.987 108.304 586.564 108.351 586.14 108.35C585.475 108.356 584.817 108.205 584.22 107.91C583.622 107.614 583.105 107.178 582.71 106.64C582.257 106.04 581.918 105.362 581.71 104.64C581.47 103.726 581.356 102.784 581.37 101.84C581.362 100.942 581.494 100.048 581.76 99.19C582.01 98.3911 582.41 97.6476 582.94 97C583.407 96.4081 584.002 95.9295 584.68 95.6C585.402 95.2495 586.198 95.078 587 95.1C587.631 95.0816 588.258 95.1975 588.84 95.44C589.343 95.6675 589.802 95.9785 590.2 96.36V89.59H593.29V108.16H591.35ZM587.24 105.9C587.813 105.919 588.38 105.781 588.88 105.5C589.366 105.196 589.796 104.81 590.15 104.36V98.61C589.846 98.2253 589.455 97.9171 589.01 97.71C588.588 97.5367 588.136 97.4484 587.68 97.45C587.243 97.4452 586.81 97.5339 586.41 97.71C586.012 97.8837 585.667 98.1597 585.41 98.51C585.117 98.9138 584.91 99.3732 584.8 99.86C584.65 100.492 584.58 101.14 584.59 101.79C584.579 102.428 584.64 103.065 584.77 103.69C584.861 104.146 585.038 104.58 585.29 104.97C585.493 105.278 585.777 105.523 586.11 105.68C586.466 105.837 586.852 105.912 587.24 105.9V105.9Z" fill="white"/>
<path d="M601.88 95.1401C602.64 95.1333 603.395 95.262 604.11 95.5201C604.77 95.7714 605.37 96.1599 605.87 96.6601C606.369 97.1817 606.754 97.8015 607 98.4801C607.284 99.2721 607.423 100.109 607.41 100.95C607.422 101.143 607.422 101.337 607.41 101.53C607.399 101.658 607.358 101.781 607.29 101.89C607.243 101.975 607.169 102.042 607.08 102.08C606.968 102.123 606.849 102.143 606.73 102.14H598.8C598.797 103.202 599.172 104.23 599.86 105.04C600.186 105.35 600.57 105.591 600.991 105.749C601.412 105.907 601.861 105.979 602.31 105.96C602.749 105.966 603.187 105.909 603.61 105.79C603.936 105.685 604.254 105.554 604.56 105.4L605.27 105.01C605.449 104.905 605.652 104.846 605.86 104.84C605.974 104.835 606.088 104.859 606.19 104.91C606.283 104.963 606.365 105.034 606.43 105.12L607.33 106.25C606.995 106.636 606.608 106.972 606.18 107.25C605.758 107.514 605.309 107.732 604.84 107.9C604.382 108.058 603.91 108.172 603.43 108.24C602.969 108.307 602.505 108.341 602.04 108.34C601.19 108.346 600.346 108.197 599.55 107.9C598.796 107.609 598.114 107.158 597.55 106.58C596.958 105.964 596.502 105.232 596.21 104.43C595.869 103.467 595.706 102.451 595.73 101.43C595.724 100.592 595.866 99.7591 596.15 98.9701C596.419 98.2287 596.834 97.5486 597.37 96.9701C597.914 96.3879 598.575 95.9277 599.31 95.6201C600.123 95.2807 600.999 95.1171 601.88 95.1401ZM601.94 97.3501C601.555 97.3269 601.169 97.3823 600.807 97.513C600.444 97.6436 600.111 97.8468 599.83 98.1101C599.271 98.7024 598.92 99.4606 598.83 100.27H604.63C604.633 99.8875 604.58 99.5066 604.47 99.1401C604.368 98.7993 604.198 98.4829 603.97 98.2101C603.738 97.9384 603.447 97.723 603.12 97.5801C602.746 97.4246 602.345 97.3463 601.94 97.3501V97.3501Z" fill="white"/>
<path d="M443.69 123.84C443.625 123.951 443.536 124.047 443.43 124.12C443.322 124.176 443.202 124.203 443.08 124.2C442.912 124.198 442.747 124.153 442.6 124.07L442 123.79C441.752 123.683 441.499 123.589 441.24 123.51C440.914 123.426 440.577 123.386 440.24 123.39C439.732 123.363 439.229 123.496 438.8 123.77C438.638 123.881 438.505 124.031 438.412 124.205C438.32 124.379 438.271 124.573 438.27 124.77C438.268 125.026 438.365 125.273 438.54 125.46C438.747 125.667 438.992 125.833 439.26 125.95C439.583 126.106 439.917 126.237 440.26 126.34L441.41 126.7C441.8 126.84 442.19 126.99 442.56 127.16C442.924 127.326 443.261 127.545 443.56 127.81C443.854 128.076 444.095 128.395 444.27 128.75C444.461 129.167 444.553 129.622 444.54 130.08C444.547 130.667 444.432 131.25 444.2 131.79C443.977 132.312 443.634 132.774 443.2 133.14C442.73 133.536 442.187 133.836 441.6 134.02C440.89 134.248 440.146 134.356 439.4 134.34C438.967 134.341 438.535 134.3 438.11 134.22C437.699 134.142 437.294 134.031 436.9 133.89C436.526 133.756 436.165 133.588 435.82 133.39C435.51 133.213 435.219 133.005 434.95 132.77L435.67 131.59C435.751 131.46 435.86 131.351 435.99 131.27C436.136 131.186 436.302 131.144 436.47 131.15C436.663 131.153 436.85 131.212 437.01 131.32L437.6 131.67C437.858 131.805 438.126 131.922 438.4 132.02C438.772 132.138 439.161 132.192 439.55 132.18C439.872 132.188 440.193 132.144 440.5 132.05C440.737 131.976 440.958 131.858 441.15 131.7C441.312 131.57 441.439 131.402 441.52 131.21C441.599 131.027 441.64 130.829 441.64 130.63C441.648 130.495 441.628 130.359 441.581 130.232C441.535 130.105 441.463 129.989 441.37 129.89C441.167 129.68 440.926 129.51 440.66 129.39C440.338 129.236 440.003 129.109 439.66 129.01C439.28 128.9 438.89 128.78 438.5 128.64C438.101 128.508 437.71 128.351 437.33 128.17C436.964 127.997 436.626 127.767 436.33 127.49C436.027 127.209 435.785 126.869 435.62 126.49C435.428 126.031 435.336 125.537 435.35 125.04C435.346 124.524 435.451 124.012 435.66 123.54C435.871 123.063 436.185 122.64 436.58 122.3C437.022 121.92 437.536 121.631 438.09 121.45C438.766 121.223 439.477 121.115 440.19 121.13C441.014 121.118 441.832 121.264 442.6 121.56C443.271 121.825 443.885 122.215 444.41 122.71L443.69 123.84Z" fill="white"/>
<path d="M457.05 134.16H455.67C455.437 134.16 455.208 134.105 455 134C454.809 133.88 454.672 133.69 454.62 133.47L454.35 132.56C454.02 132.85 453.71 133.1 453.35 133.33C453.037 133.548 452.702 133.732 452.35 133.88C452.01 134.032 451.655 134.146 451.29 134.22C450.878 134.295 450.459 134.332 450.04 134.33C449.532 134.336 449.025 134.262 448.54 134.11C448.102 133.983 447.698 133.757 447.36 133.45C447.025 133.149 446.762 132.776 446.59 132.36C446.401 131.879 446.31 131.366 446.32 130.85C446.321 130.345 446.452 129.849 446.7 129.41C447.005 128.88 447.443 128.439 447.97 128.13C448.699 127.673 449.495 127.336 450.33 127.13C451.531 126.858 452.76 126.734 453.99 126.76V126C454.044 125.316 453.852 124.636 453.45 124.08C453.248 123.867 453.002 123.701 452.729 123.594C452.456 123.487 452.163 123.441 451.87 123.46C451.447 123.45 451.025 123.508 450.62 123.63C450.317 123.731 450.025 123.866 449.75 124.03L449.07 124.42C448.859 124.537 448.621 124.595 448.38 124.59C448.188 124.596 447.998 124.54 447.84 124.43C447.693 124.324 447.57 124.188 447.48 124.03L446.92 123.03C448.371 121.698 450.281 120.981 452.25 121.03C452.935 121.018 453.615 121.144 454.25 121.4C454.814 121.621 455.322 121.962 455.74 122.4C456.158 122.853 456.478 123.388 456.68 123.97C456.894 124.615 456.999 125.291 456.99 125.97L457.05 134.16ZM451.05 132.24C451.346 132.243 451.641 132.212 451.93 132.15C452.193 132.095 452.449 132.008 452.69 131.89C452.931 131.774 453.159 131.634 453.37 131.47C453.608 131.287 453.832 131.086 454.04 130.87V128.72C453.287 128.71 452.534 128.767 451.79 128.89C451.287 128.975 450.796 129.122 450.33 129.33C450.018 129.46 449.747 129.675 449.55 129.95C449.397 130.173 449.316 130.439 449.32 130.71C449.298 130.929 449.33 131.151 449.413 131.355C449.497 131.559 449.63 131.74 449.8 131.88C450.165 132.136 450.605 132.263 451.05 132.24V132.24Z" fill="white"/>
<path d="M462.92 121.34V129.49C462.879 130.141 463.07 130.786 463.46 131.31C463.665 131.533 463.919 131.707 464.201 131.818C464.484 131.929 464.788 131.974 465.09 131.95C465.612 131.955 466.127 131.831 466.59 131.59C467.086 131.333 467.536 130.995 467.92 130.59V121.32H471V134.14H469.12C468.944 134.153 468.768 134.104 468.624 134.002C468.48 133.9 468.376 133.751 468.33 133.58L468.12 132.58C467.858 132.843 467.581 133.09 467.29 133.32C467.01 133.537 466.708 133.724 466.39 133.88C466.068 134.03 465.734 134.151 465.39 134.24C464.997 134.331 464.594 134.375 464.19 134.37C463.556 134.38 462.926 134.261 462.34 134.02C461.818 133.793 461.353 133.451 460.98 133.02C460.607 132.565 460.325 132.042 460.15 131.48C459.953 130.832 459.859 130.157 459.87 129.48V121.33L462.92 121.34ZM469.84 115.89L466.75 119.15C466.627 119.295 466.473 119.411 466.3 119.49C466.119 119.564 465.925 119.598 465.73 119.59H463.88L465.65 116.59C465.756 116.394 465.907 116.226 466.09 116.1C466.317 115.969 466.579 115.91 466.84 115.93L469.84 115.89Z" fill="white"/>
<path d="M483.33 134.16C483.154 134.171 482.979 134.122 482.836 134.02C482.692 133.918 482.587 133.77 482.54 133.6L482.29 132.36C482.032 132.653 481.751 132.924 481.45 133.17C481.161 133.415 480.846 133.626 480.51 133.8C479.788 134.175 478.983 134.364 478.17 134.35C477.501 134.355 476.84 134.204 476.24 133.91C475.647 133.611 475.133 133.176 474.74 132.64C474.282 132.043 473.943 131.364 473.74 130.64C473.499 129.726 473.385 128.784 473.4 127.84C473.394 126.943 473.522 126.049 473.78 125.19C474.014 124.415 474.394 123.692 474.9 123.06C475.375 122.456 475.983 121.969 476.676 121.638C477.37 121.306 478.131 121.139 478.9 121.15C479.53 121.132 480.157 121.248 480.74 121.49C481.241 121.72 481.7 122.031 482.1 122.41V115.64H485.19V134.21L483.33 134.16ZM479.22 131.9C479.789 131.919 480.353 131.781 480.85 131.5C481.339 131.197 481.772 130.811 482.13 130.36V124.61C481.825 124.225 481.435 123.917 480.99 123.71C480.564 123.537 480.109 123.448 479.65 123.45C479.216 123.445 478.786 123.533 478.39 123.71C477.994 123.888 477.65 124.163 477.39 124.51C477.104 124.917 476.9 125.375 476.79 125.86C476.631 126.491 476.557 127.14 476.57 127.79C476.557 128.429 476.621 129.067 476.76 129.69C476.852 130.144 477.025 130.577 477.27 130.97C477.475 131.279 477.763 131.525 478.1 131.68C478.452 131.837 478.835 131.912 479.22 131.9V131.9Z" fill="white"/>
<path d="M493.85 121.14C494.614 121.133 495.372 121.262 496.09 121.52C496.749 121.77 497.345 122.159 497.84 122.66C498.35 123.177 498.742 123.798 498.99 124.48C499.279 125.271 499.418 126.108 499.4 126.95C499.412 127.143 499.412 127.337 499.4 127.53C499.387 127.656 499.349 127.778 499.29 127.89C499.24 127.976 499.163 128.043 499.07 128.08C498.959 128.124 498.84 128.144 498.72 128.14H490.8C490.793 129.203 491.169 130.233 491.86 131.04C492.186 131.35 492.57 131.592 492.991 131.75C493.412 131.908 493.861 131.98 494.31 131.96C494.746 131.967 495.181 131.91 495.6 131.79C495.927 131.686 496.245 131.556 496.55 131.4L497.27 131.01C497.45 130.905 497.653 130.846 497.86 130.84C497.971 130.836 498.081 130.86 498.18 130.91C498.278 130.958 498.36 131.03 498.42 131.12L499.32 132.25C498.99 132.64 498.603 132.977 498.17 133.25C497.752 133.514 497.306 133.732 496.84 133.9C496.382 134.058 495.91 134.172 495.43 134.24C494.967 134.307 494.499 134.341 494.03 134.34C493.184 134.347 492.343 134.197 491.55 133.9C490.795 133.611 490.113 133.161 489.55 132.58C488.956 131.967 488.499 131.234 488.21 130.43C487.861 129.469 487.695 128.452 487.72 127.43C487.713 126.591 487.859 125.757 488.15 124.97C488.419 124.229 488.834 123.549 489.37 122.97C489.91 122.388 490.568 121.928 491.3 121.62C492.108 121.285 492.976 121.122 493.85 121.14V121.14ZM493.92 123.35C493.534 123.327 493.147 123.383 492.783 123.513C492.418 123.644 492.084 123.847 491.8 124.11C491.245 124.705 490.894 125.462 490.8 126.27H496.6C496.604 125.887 496.55 125.507 496.44 125.14C496.335 124.801 496.165 124.485 495.94 124.21C495.706 123.941 495.416 123.726 495.09 123.58C494.72 123.426 494.322 123.348 493.92 123.35V123.35Z" fill="white"/>
<path d="M510 121.34V134.6C510.005 135.131 509.931 135.661 509.78 136.17C509.642 136.648 509.403 137.092 509.08 137.47C508.736 137.857 508.304 138.155 507.82 138.34C507.211 138.572 506.561 138.681 505.91 138.66C505.64 138.676 505.37 138.676 505.1 138.66C504.841 138.62 504.587 138.557 504.34 138.47L504.44 136.81C504.44 136.743 504.459 136.678 504.495 136.622C504.53 136.565 504.58 136.52 504.64 136.49C504.841 136.433 505.051 136.41 505.26 136.42C505.523 136.426 505.785 136.395 506.04 136.33C506.238 136.282 506.419 136.178 506.56 136.03C506.693 135.875 506.785 135.689 506.83 135.49C506.886 135.214 506.913 134.932 506.91 134.65V121.34H510ZM510.46 117.6C510.464 117.859 510.409 118.115 510.3 118.35C510.196 118.579 510.05 118.785 509.87 118.96C509.69 119.14 509.476 119.283 509.24 119.38C508.994 119.488 508.728 119.543 508.46 119.54C508.198 119.543 507.938 119.488 507.7 119.38C507.256 119.18 506.9 118.824 506.7 118.38C506.59 118.145 506.536 117.889 506.54 117.63C506.537 117.362 506.591 117.096 506.7 116.85C506.795 116.616 506.938 116.405 507.12 116.23C507.293 116.05 507.5 115.907 507.73 115.81C507.97 115.708 508.228 115.653 508.49 115.65C508.758 115.652 509.023 115.706 509.27 115.81C509.506 115.907 509.72 116.05 509.9 116.23C510.081 116.408 510.227 116.618 510.33 116.85C510.434 117.086 510.489 117.342 510.49 117.6H510.46Z" fill="white"/>
<path d="M523.52 134.16H522.13C521.893 134.172 521.656 134.128 521.44 134.03C521.345 133.972 521.263 133.895 521.2 133.804C521.136 133.712 521.092 133.609 521.07 133.5L520.79 132.59C520.472 132.866 520.138 133.123 519.79 133.36C519.475 133.576 519.14 133.76 518.79 133.91C518.446 134.061 518.087 134.175 517.72 134.25C517.307 134.325 516.889 134.362 516.47 134.36C515.961 134.366 515.455 134.292 514.97 134.14C514.531 134.013 514.128 133.787 513.79 133.48C513.455 133.179 513.191 132.807 513.02 132.39C512.831 131.909 512.739 131.396 512.75 130.88C512.753 130.376 512.884 129.88 513.13 129.44C513.438 128.913 513.875 128.472 514.4 128.16C515.128 127.703 515.925 127.366 516.76 127.16C517.96 126.888 519.189 126.764 520.42 126.79V126.03C520.473 125.346 520.282 124.666 519.88 124.11C519.678 123.897 519.432 123.731 519.159 123.624C518.886 123.517 518.593 123.471 518.3 123.49C517.877 123.48 517.455 123.538 517.05 123.66C516.746 123.761 516.454 123.896 516.18 124.06L515.5 124.45C515.289 124.567 515.051 124.626 514.81 124.62C514.617 124.627 514.428 124.57 514.27 124.46C514.122 124.354 513.999 124.218 513.91 124.06L513.35 123.06C514.803 121.726 516.718 121.009 518.69 121.06C519.375 121.047 520.055 121.173 520.69 121.43C521.255 121.653 521.766 121.994 522.19 122.43C522.601 122.887 522.917 123.42 523.12 124C523.337 124.644 523.445 125.32 523.44 126L523.52 134.16ZM517.52 132.24C517.812 132.242 518.104 132.212 518.39 132.15C518.653 132.095 518.908 132.008 519.15 131.89C519.391 131.774 519.619 131.634 519.83 131.47C520.068 131.287 520.292 131.086 520.5 130.87V128.72C519.746 128.71 518.993 128.767 518.25 128.89C517.747 128.975 517.256 129.123 516.79 129.33C516.477 129.46 516.207 129.675 516.01 129.95C515.86 130.175 515.78 130.44 515.78 130.71C515.757 130.929 515.789 131.151 515.873 131.355C515.957 131.559 516.09 131.74 516.26 131.88C516.628 132.138 517.071 132.265 517.52 132.24V132.24ZM523 115.89L519.91 119.15C519.783 119.295 519.626 119.411 519.45 119.49C519.27 119.566 519.075 119.6 518.88 119.59H517L518.78 116.59C518.883 116.392 519.034 116.224 519.22 116.1C519.446 115.967 519.708 115.907 519.97 115.93L523 115.89Z" fill="white"/>
<path d="M540.39 124.05C540.316 124.154 540.224 124.246 540.12 124.32C540.009 124.396 539.874 124.431 539.74 124.42C539.576 124.422 539.415 124.373 539.28 124.28C539.13 124.18 538.95 124.08 538.74 123.96C538.505 123.825 538.257 123.714 538 123.63C537.653 123.526 537.292 123.479 536.93 123.49C536.438 123.476 535.948 123.576 535.5 123.78C535.105 123.977 534.762 124.265 534.5 124.62C534.214 125.023 534.01 125.478 533.9 125.96C533.762 126.536 533.695 127.127 533.7 127.72C533.689 128.337 533.763 128.953 533.92 129.55C534.038 130.035 534.252 130.49 534.55 130.89C534.81 131.245 535.153 131.53 535.55 131.72C535.963 131.912 536.415 132.008 536.87 132C537.278 132.013 537.684 131.952 538.07 131.82C538.34 131.713 538.598 131.579 538.84 131.42L539.38 131.02C539.527 130.902 539.711 130.838 539.9 130.84C540.01 130.832 540.12 130.853 540.219 130.903C540.317 130.952 540.401 131.027 540.46 131.12L541.35 132.25C541.027 132.632 540.654 132.968 540.24 133.25C539.848 133.511 539.429 133.729 538.99 133.9C538.56 134.059 538.114 134.173 537.66 134.24C537.21 134.308 536.755 134.341 536.3 134.34C535.532 134.343 534.77 134.193 534.06 133.9C533.363 133.604 532.739 133.16 532.23 132.6C531.686 131.994 531.265 131.287 530.99 130.52C530.408 128.763 530.39 126.868 530.94 125.1C531.19 124.327 531.599 123.616 532.14 123.01C532.691 122.402 533.376 121.929 534.14 121.63C534.985 121.279 535.895 121.109 536.81 121.13C537.673 121.11 538.53 121.266 539.33 121.59C540.055 121.902 540.713 122.35 541.27 122.91L540.39 124.05Z" fill="white"/>
<path d="M553.35 134.16H552C551.763 134.174 551.525 134.13 551.31 134.03C551.118 133.91 550.982 133.72 550.93 133.5L550.66 132.59C550.33 132.88 550.01 133.13 549.66 133.36C549.346 133.578 549.011 133.762 548.66 133.91C548.32 134.062 547.964 134.176 547.6 134.25C547.187 134.325 546.769 134.362 546.35 134.36C545.841 134.366 545.335 134.292 544.85 134.14C544.411 134.013 544.008 133.787 543.67 133.48C543.331 133.182 543.068 132.809 542.9 132.39C542.711 131.909 542.619 131.396 542.63 130.88C542.63 130.375 542.761 129.879 543.01 129.44C543.314 128.91 543.752 128.469 544.28 128.16C545.008 127.702 545.804 127.364 546.64 127.16C547.84 126.888 549.069 126.764 550.3 126.79V126.03C550.353 125.346 550.162 124.666 549.76 124.11C549.558 123.897 549.312 123.731 549.039 123.624C548.766 123.517 548.472 123.471 548.18 123.49C547.757 123.48 547.335 123.538 546.93 123.66C546.626 123.761 546.334 123.896 546.06 124.06L545.38 124.45C545.169 124.567 544.931 124.625 544.69 124.62C544.497 124.627 544.308 124.57 544.15 124.46C544.002 124.354 543.879 124.218 543.79 124.06L543.23 123.06C544.68 121.728 546.591 121.011 548.56 121.06C549.244 121.048 549.925 121.174 550.56 121.43C551.122 121.653 551.63 121.994 552.05 122.43C552.467 122.881 552.784 123.417 552.98 124C553.201 124.643 553.31 125.32 553.3 126L553.35 134.16ZM547.35 132.24C547.645 132.243 547.941 132.212 548.23 132.15C548.49 132.097 548.742 132.009 548.98 131.89C549.225 131.777 549.456 131.636 549.67 131.47C549.908 131.287 550.132 131.086 550.34 130.87V128.72C549.583 128.71 548.827 128.767 548.08 128.89C547.58 128.976 547.093 129.124 546.63 129.33C546.317 129.46 546.047 129.675 545.85 129.95C545.696 130.173 545.616 130.439 545.62 130.71C545.597 130.929 545.629 131.151 545.713 131.355C545.797 131.559 545.93 131.74 546.1 131.88C546.465 132.136 546.905 132.263 547.35 132.24V132.24Z" fill="white"/>
<path d="M556.39 138.35V121.35H558.28C558.459 121.343 558.636 121.388 558.79 121.48C558.932 121.585 559.031 121.738 559.07 121.91L559.32 123.1C559.823 122.518 560.426 122.031 561.1 121.66C561.823 121.278 562.632 121.089 563.45 121.11C564.115 121.101 564.773 121.251 565.368 121.549C565.963 121.846 566.478 122.282 566.87 122.82C567.325 123.418 567.665 124.097 567.87 124.82C568.111 125.73 568.225 126.669 568.21 127.61C568.219 128.512 568.087 129.409 567.82 130.27C567.588 131.042 567.215 131.764 566.72 132.4C566.245 133.004 565.637 133.491 564.943 133.822C564.249 134.154 563.488 134.321 562.72 134.31C562.087 134.327 561.457 134.215 560.87 133.98C560.368 133.757 559.911 133.445 559.52 133.06V138.31L556.39 138.35ZM562.39 123.54C561.817 123.521 561.25 123.659 560.75 123.94C560.259 124.242 559.829 124.632 559.48 125.09V130.84C559.78 131.229 560.172 131.538 560.62 131.74C561.057 131.92 561.527 132.008 562 132C562.437 132.005 562.87 131.916 563.27 131.74C563.668 131.566 564.013 131.29 564.27 130.94C564.561 130.532 564.768 130.069 564.88 129.58C565.029 128.948 565.1 128.3 565.09 127.65C565.101 127.009 565.04 126.368 564.91 125.74C564.819 125.287 564.642 124.856 564.39 124.47C564.185 124.164 563.901 123.919 563.57 123.76C563.2 123.593 562.795 123.518 562.39 123.54V123.54Z" fill="white"/>
<path d="M580.58 134.16H579.19C578.953 134.172 578.716 134.128 578.5 134.03C578.311 133.909 578.178 133.719 578.13 133.5L577.85 132.59C577.53 132.88 577.21 133.13 576.85 133.36C576.534 133.573 576.199 133.757 575.85 133.91C575.509 134.059 575.154 134.173 574.79 134.25C574.377 134.324 573.959 134.361 573.54 134.36C573.031 134.368 572.525 134.294 572.04 134.14C571.599 134.011 571.192 133.786 570.85 133.48C570.514 133.181 570.254 132.808 570.09 132.39C569.893 131.912 569.797 131.397 569.81 130.88C569.813 130.376 569.944 129.88 570.19 129.44C570.5 128.915 570.937 128.475 571.46 128.16C572.188 127.703 572.985 127.366 573.82 127.16C575.024 126.889 576.256 126.764 577.49 126.79V126.03C577.54 125.345 577.345 124.664 576.94 124.11C576.738 123.897 576.492 123.731 576.219 123.624C575.946 123.517 575.652 123.471 575.36 123.49C574.937 123.48 574.515 123.538 574.11 123.66C573.808 123.765 573.516 123.899 573.24 124.06L572.56 124.45C572.349 124.567 572.111 124.625 571.87 124.62C571.68 124.627 571.494 124.57 571.34 124.46C571.189 124.355 571.063 124.218 570.97 124.06L570.41 123.06C571.863 121.726 573.778 121.009 575.75 121.06C576.435 121.045 577.115 121.171 577.75 121.43C578.315 121.653 578.826 121.994 579.25 122.43C579.667 122.882 579.984 123.417 580.18 124C580.397 124.644 580.505 125.32 580.5 126L580.58 134.16ZM574.58 132.24C574.872 132.242 575.164 132.212 575.45 132.15C575.713 132.095 575.968 132.008 576.21 131.89C576.455 131.777 576.686 131.636 576.9 131.47C577.136 131.284 577.359 131.084 577.57 130.87V128.72C576.813 128.71 576.057 128.767 575.31 128.89C574.807 128.976 574.316 129.124 573.85 129.33C573.542 129.468 573.273 129.681 573.07 129.95C572.92 130.175 572.84 130.44 572.84 130.71C572.817 130.929 572.849 131.151 572.933 131.355C573.017 131.559 573.15 131.74 573.32 131.88C573.687 132.138 574.131 132.265 574.58 132.24Z" fill="white"/>
<path d="M592.63 124.05C592.556 124.154 592.464 124.246 592.36 124.32C592.248 124.394 592.114 124.429 591.98 124.42C591.813 124.421 591.649 124.372 591.51 124.28C591.37 124.18 591.19 124.08 590.98 123.96C590.743 123.823 590.491 123.712 590.23 123.63C589.887 123.525 589.529 123.478 589.17 123.49C588.677 123.475 588.188 123.575 587.74 123.78C587.345 123.977 587.002 124.265 586.74 124.62C586.454 125.023 586.25 125.478 586.14 125.96C585.997 126.535 585.93 127.127 585.94 127.72C585.931 128.336 586.002 128.952 586.15 129.55C586.276 130.032 586.49 130.486 586.78 130.89C587.042 131.243 587.385 131.528 587.78 131.72C588.196 131.914 588.651 132.01 589.11 132C589.514 132.014 589.918 131.953 590.3 131.82C590.571 131.716 590.829 131.581 591.07 131.42L591.62 131.02C591.766 130.9 591.951 130.837 592.14 130.84C592.25 130.834 592.359 130.856 592.457 130.906C592.555 130.955 592.639 131.029 592.7 131.12L593.59 132.25C593.261 132.63 592.885 132.966 592.47 133.25C592.082 133.511 591.666 133.729 591.23 133.9C590.799 134.059 590.354 134.173 589.9 134.24C589.446 134.308 588.988 134.341 588.53 134.34C587.765 134.343 587.007 134.193 586.3 133.9C585.603 133.604 584.979 133.16 584.47 132.6C583.922 131.996 583.501 131.289 583.23 130.52C582.908 129.619 582.752 128.667 582.77 127.71C582.763 126.823 582.901 125.942 583.18 125.1C583.431 124.33 583.836 123.619 584.37 123.01C584.911 122.412 585.576 121.941 586.32 121.63C587.169 121.28 588.082 121.11 589 121.13C589.862 121.11 590.72 121.267 591.52 121.59C592.245 121.902 592.903 122.35 593.46 122.91L592.63 124.05Z" fill="white"/>
<path d="M599.29 117.6C599.294 117.859 599.24 118.115 599.13 118.35C599.027 118.579 598.881 118.785 598.7 118.96C598.518 119.143 598.3 119.286 598.06 119.38C597.818 119.489 597.556 119.543 597.29 119.54C597.028 119.543 596.769 119.488 596.53 119.38C596.086 119.18 595.731 118.824 595.53 118.38C595.421 118.145 595.366 117.889 595.37 117.63C595.367 117.362 595.422 117.096 595.53 116.85C595.625 116.616 595.768 116.405 595.95 116.23C596.123 116.05 596.331 115.907 596.56 115.81C596.801 115.708 597.059 115.653 597.32 115.65C597.585 115.652 597.847 115.706 598.09 115.81C598.33 115.904 598.548 116.047 598.73 116.23C598.912 116.408 599.058 116.618 599.16 116.85C599.254 117.089 599.299 117.344 599.29 117.6V117.6ZM598.83 121.34V134.16H595.74V121.34H598.83Z" fill="white"/>
<path d="M606.53 134.36C606.059 134.391 605.588 134.324 605.145 134.162C604.703 134 604.299 133.747 603.96 133.42C603.331 132.7 603.008 131.764 603.06 130.81V123.65H601.76C601.675 123.653 601.591 123.638 601.513 123.606C601.434 123.574 601.364 123.526 601.306 123.464C601.248 123.403 601.204 123.329 601.177 123.249C601.15 123.169 601.141 123.084 601.15 123V121.77L603.21 121.44L603.87 117.94C603.892 117.785 603.975 117.645 604.1 117.55C604.23 117.455 604.388 117.406 604.55 117.41H606.15V121.41H609.53V123.61H606.15V130.56C606.13 130.9 606.237 131.234 606.45 131.5C606.55 131.611 606.674 131.699 606.812 131.756C606.95 131.813 607.1 131.838 607.25 131.83C607.412 131.834 607.573 131.814 607.73 131.77C607.846 131.728 607.96 131.677 608.07 131.62L608.33 131.48C608.394 131.434 608.471 131.41 608.55 131.41C608.632 131.406 608.714 131.43 608.78 131.48C608.852 131.535 608.913 131.603 608.96 131.68L609.89 133.18C609.433 133.561 608.906 133.85 608.34 134.03C607.759 134.24 607.147 134.352 606.53 134.36V134.36Z" fill="white"/>
<path d="M622 134.16H620.61C620.398 134.151 620.19 134.096 620 134C619.812 133.879 619.679 133.689 619.63 133.47L619.35 132.56C619.03 132.85 618.71 133.1 618.4 133.33C618.086 133.545 617.751 133.73 617.4 133.88C617.06 134.031 616.705 134.145 616.34 134.22C615.928 134.295 615.51 134.332 615.09 134.33C614.582 134.336 614.076 134.262 613.59 134.11C613.152 133.983 612.748 133.757 612.41 133.45C612.072 133.152 611.808 132.779 611.64 132.36C611.443 131.882 611.348 131.367 611.36 130.85C611.364 130.346 611.495 129.85 611.74 129.41C612.051 128.885 612.488 128.445 613.01 128.13C613.739 127.673 614.536 127.336 615.37 127.13C616.574 126.859 617.807 126.735 619.04 126.76V126C619.096 125.315 618.9 124.632 618.49 124.08C618.289 123.867 618.043 123.701 617.77 123.594C617.496 123.487 617.203 123.441 616.91 123.46C616.487 123.451 616.066 123.509 615.66 123.63C615.358 123.735 615.067 123.869 614.79 124.03L614.11 124.42C613.903 124.537 613.668 124.596 613.43 124.59C613.238 124.597 613.048 124.54 612.89 124.43C612.742 124.322 612.617 124.186 612.52 124.03L611.96 123.03C613.416 121.699 615.329 120.983 617.3 121.03C617.985 121.018 618.665 121.144 619.3 121.4C619.868 121.629 620.379 121.98 620.797 122.427C621.215 122.875 621.53 123.408 621.72 123.99C621.937 124.634 622.046 125.31 622.04 125.99L622 134.16ZM616 132.24C616.296 132.243 616.591 132.212 616.88 132.15C617.14 132.094 617.392 132.006 617.63 131.89C617.876 131.777 618.107 131.636 618.32 131.47C618.556 131.284 618.78 131.084 618.99 130.87V128.72C618.234 128.711 617.477 128.767 616.73 128.89C616.228 128.976 615.737 129.124 615.27 129.33C614.962 129.468 614.694 129.681 614.49 129.95C614.341 130.175 614.261 130.44 614.26 130.71C614.238 130.93 614.27 131.151 614.354 131.355C614.437 131.559 614.57 131.74 614.74 131.88C615.108 132.138 615.552 132.265 616 132.24Z" fill="white"/>
<path d="M634.1 134.16C633.924 134.171 633.75 134.122 633.606 134.02C633.463 133.918 633.358 133.77 633.31 133.6L633.06 132.36C632.807 132.653 632.529 132.923 632.23 133.17C631.923 133.418 631.587 133.63 631.23 133.8C630.886 133.975 630.524 134.113 630.15 134.21C629.737 134.304 629.314 134.351 628.89 134.35C628.222 134.355 627.561 134.204 626.96 133.91C626.367 133.611 625.853 133.176 625.46 132.64C625.007 132.041 624.668 131.363 624.46 130.64C624.22 129.726 624.106 128.784 624.12 127.84C624.112 126.942 624.244 126.048 624.51 125.19C624.746 124.417 625.122 123.695 625.62 123.06C626.087 122.468 626.682 121.99 627.36 121.66C628.066 121.314 628.844 121.139 629.63 121.15C630.261 121.132 630.888 121.248 631.47 121.49C631.972 121.717 632.432 122.029 632.83 122.41V115.64H636V134.21L634.1 134.16ZM630 131.9C630.573 131.919 631.14 131.781 631.64 131.5C632.126 131.196 632.555 130.81 632.91 130.36V124.61C632.606 124.225 632.215 123.917 631.77 123.71C631.348 123.537 630.896 123.448 630.44 123.45C630.003 123.445 629.57 123.534 629.17 123.71C628.772 123.884 628.427 124.16 628.17 124.51C627.877 124.914 627.67 125.373 627.56 125.86C627.41 126.492 627.34 127.14 627.35 127.79C627.339 128.428 627.4 129.065 627.53 129.69C627.621 130.146 627.798 130.58 628.05 130.97C628.253 131.278 628.537 131.523 628.87 131.68C629.226 131.837 629.612 131.912 630 131.9Z" fill="white"/>
<path d="M644.8 121.14C645.692 121.126 646.577 121.282 647.41 121.6C648.162 121.89 648.844 122.337 649.41 122.91C649.979 123.505 650.415 124.214 650.69 124.99C651.29 126.767 651.29 128.693 650.69 130.47C650.415 131.249 649.979 131.961 649.41 132.56C648.85 133.146 648.167 133.6 647.41 133.89C645.724 134.504 643.876 134.504 642.19 133.89C641.436 133.595 640.754 133.142 640.19 132.56C639.622 131.961 639.186 131.249 638.91 130.47C638.297 128.695 638.297 126.765 638.91 124.99C639.174 124.217 639.606 123.512 640.175 122.926C640.744 122.34 641.436 121.887 642.2 121.6C643.03 121.283 643.912 121.127 644.8 121.14V121.14ZM644.8 131.97C645.253 132.006 645.708 131.926 646.123 131.739C646.537 131.552 646.897 131.263 647.17 130.9C647.676 129.925 647.94 128.843 647.94 127.745C647.94 126.647 647.676 125.565 647.17 124.59C646.9 124.222 646.541 123.929 646.126 123.739C645.712 123.548 645.255 123.466 644.8 123.5C644.341 123.465 643.88 123.547 643.461 123.737C643.041 123.928 642.676 124.221 642.4 124.59C641.825 125.539 641.556 126.643 641.63 127.75C641.556 128.851 641.825 129.948 642.4 130.89C642.675 131.261 643.039 131.557 643.459 131.751C643.878 131.945 644.339 132.031 644.8 132V131.97Z" fill="white"/>
<path d="M661.15 123.84C661.085 123.951 660.996 124.047 660.89 124.12C660.782 124.176 660.662 124.203 660.54 124.2C660.372 124.198 660.207 124.153 660.06 124.07L659.46 123.79C659.212 123.683 658.959 123.589 658.7 123.51C658.374 123.426 658.037 123.386 657.7 123.39C657.192 123.363 656.689 123.496 656.26 123.77C656.098 123.881 655.964 124.031 655.872 124.205C655.78 124.379 655.731 124.573 655.73 124.77C655.728 125.026 655.825 125.273 656 125.46C656.207 125.667 656.451 125.833 656.72 125.95C657.043 126.106 657.377 126.237 657.72 126.34L658.87 126.7C659.26 126.84 659.65 126.99 660.02 127.16C660.384 127.326 660.721 127.545 661.02 127.81C661.314 128.076 661.555 128.395 661.73 128.75C661.921 129.167 662.013 129.622 662 130.08C662.007 130.667 661.892 131.25 661.66 131.79C661.437 132.312 661.094 132.774 660.66 133.14C660.19 133.536 659.647 133.836 659.06 134.02C658.35 134.248 657.606 134.356 656.86 134.34C656.427 134.341 655.995 134.3 655.57 134.22C655.159 134.142 654.754 134.031 654.36 133.89C653.986 133.756 653.625 133.588 653.28 133.39C652.97 133.213 652.679 133.005 652.41 132.77L653.13 131.59C653.211 131.46 653.32 131.351 653.45 131.27C653.596 131.186 653.762 131.144 653.93 131.15C654.123 131.153 654.31 131.212 654.47 131.32L655.06 131.67C655.318 131.805 655.586 131.922 655.86 132.02C656.232 132.138 656.621 132.192 657.01 132.18C657.348 132.193 657.687 132.149 658.01 132.05C658.247 131.976 658.468 131.858 658.66 131.7C658.822 131.57 658.95 131.402 659.03 131.21C659.109 131.027 659.15 130.829 659.15 130.63C659.158 130.495 659.138 130.359 659.091 130.232C659.045 130.105 658.973 129.989 658.88 129.89C658.677 129.68 658.436 129.51 658.17 129.39C657.848 129.236 657.513 129.109 657.17 129.01C656.79 128.9 656.4 128.78 656.01 128.64C655.611 128.508 655.22 128.351 654.84 128.17C654.474 127.997 654.136 127.767 653.84 127.49C653.537 127.209 653.295 126.869 653.13 126.49C652.939 126.031 652.846 125.537 652.86 125.04C652.856 124.524 652.961 124.012 653.17 123.54C653.381 123.063 653.695 122.64 654.09 122.3C654.532 121.92 655.046 121.631 655.6 121.45C656.276 121.223 656.987 121.115 657.7 121.13C658.524 121.118 659.342 121.264 660.11 121.56C660.781 121.825 661.395 122.215 661.92 122.71L661.15 123.84Z" fill="white"/>
<path d="M234.979 109.594C236.258 109.593 237.529 109.804 238.74 110.219C239.968 110.626 241.098 111.28 242.063 112.141C243.077 113.059 243.887 114.18 244.441 115.431C245.072 116.912 245.38 118.51 245.344 120.12C245.352 121.72 245.039 123.306 244.424 124.784C243.831 126.23 242.951 127.542 241.835 128.638C240.674 129.762 239.305 130.65 237.804 131.252C236.14 131.909 234.364 132.236 232.575 132.214C230.772 132.241 228.981 131.926 227.296 131.286C225.808 130.726 224.461 129.848 223.348 128.713C222.235 127.579 221.383 126.214 220.852 124.716C219.663 121.373 219.72 117.714 221.013 114.41C221.774 112.52 222.778 110.737 223.998 109.105L231.9 98.4367C232.32 97.9064 232.865 97.489 233.486 97.2223C234.244 96.8814 235.067 96.7115 235.898 96.7247H242.544L232.137 109.156C231.976 109.333 231.824 109.519 231.673 109.696L231.226 110.244C231.8 110.028 232.393 109.867 232.997 109.763C233.651 109.645 234.314 109.588 234.979 109.594V109.594ZM227.194 120.651C227.182 121.441 227.288 122.228 227.506 122.987C227.698 123.641 228.025 124.248 228.468 124.767C228.918 125.274 229.481 125.667 230.112 125.914C230.859 126.192 231.652 126.327 232.449 126.31C233.172 126.318 233.89 126.178 234.557 125.898C235.224 125.618 235.827 125.204 236.328 124.682C237.345 123.598 237.904 122.163 237.888 120.676C237.904 119.855 237.77 119.037 237.492 118.264C237.252 117.596 236.87 116.989 236.37 116.485C235.876 115.991 235.28 115.611 234.624 115.372C233.895 115.108 233.123 114.976 232.347 114.984C231.638 114.975 230.935 115.113 230.281 115.388C229.661 115.642 229.105 116.031 228.653 116.527C228.18 117.045 227.815 117.653 227.582 118.315C227.312 119.064 227.181 119.855 227.194 120.651V120.651Z" fill="white"/>
<path d="M270.394 99.8114C270.4 100.286 270.317 100.758 270.15 101.203C269.989 101.624 269.728 102 269.391 102.299C268.999 102.641 268.535 102.889 268.033 103.025C267.374 103.206 266.692 103.291 266.009 103.278H257.626L256.639 109.088C257.297 108.97 257.929 108.886 258.537 108.835C259.152 108.776 259.743 108.751 260.325 108.751C261.994 108.719 263.654 109.005 265.216 109.594C266.549 110.103 267.762 110.884 268.775 111.888C269.74 112.86 270.485 114.028 270.959 115.313C271.457 116.662 271.706 118.091 271.693 119.529C271.715 121.295 271.373 123.046 270.69 124.674C270.049 126.19 269.101 127.557 267.906 128.688C266.689 129.832 265.256 130.721 263.69 131.303C261.958 131.935 260.127 132.249 258.284 132.23C257.185 132.236 256.09 132.115 255.02 131.868C254.018 131.637 253.04 131.31 252.102 130.889C251.215 130.499 250.368 130.025 249.572 129.473C248.827 128.968 248.125 128.404 247.472 127.786L249.782 124.699C250.005 124.395 250.294 124.144 250.626 123.965C250.946 123.797 251.302 123.71 251.663 123.712C252.147 123.714 252.62 123.852 253.029 124.109L254.421 124.952C254.983 125.29 255.576 125.572 256.192 125.796C257.004 126.08 257.862 126.211 258.722 126.184C259.592 126.202 260.455 126.032 261.252 125.686C261.916 125.38 262.495 124.917 262.939 124.337C263.398 123.745 263.728 123.064 263.909 122.338C264.109 121.538 264.208 120.716 264.204 119.892C264.252 119.179 264.148 118.464 263.9 117.794C263.651 117.123 263.263 116.514 262.762 116.004C261.619 115.046 260.151 114.566 258.663 114.663C257.08 114.669 255.513 114.973 254.041 115.557L249.411 114.309L252.405 96.7416H270.378L270.394 99.8114Z" fill="white"/>
<path d="M301.29 114.267C301.339 116.957 301.007 119.64 300.304 122.237C299.76 124.259 298.832 126.157 297.571 127.829C296.477 129.249 295.052 130.381 293.422 131.126C291.791 131.858 290.022 132.229 288.235 132.214C286.453 132.232 284.689 131.861 283.065 131.126C281.447 130.379 280.037 129.247 278.958 127.829C277.703 126.156 276.781 124.258 276.242 122.237C275.549 119.639 275.223 116.956 275.272 114.267C275.224 111.576 275.55 108.89 276.242 106.289C276.784 104.27 277.706 102.372 278.958 100.697C280.037 99.2813 281.447 98.1518 283.065 97.4083C284.692 96.687 286.455 96.3218 288.235 96.3373C290.02 96.3243 291.788 96.6894 293.422 97.4083C295.053 98.1492 296.477 99.2786 297.571 100.697C298.829 102.371 299.756 104.269 300.304 106.289C301.006 108.889 301.339 111.575 301.29 114.267V114.267ZM293.582 114.267C293.619 112.269 293.464 110.273 293.118 108.305C292.909 107.031 292.499 105.798 291.904 104.653C291.527 103.897 290.942 103.264 290.217 102.831C289.616 102.514 288.948 102.346 288.269 102.342C287.592 102.344 286.926 102.512 286.329 102.831C285.597 103.255 285.009 103.89 284.642 104.653C284.06 105.801 283.661 107.033 283.462 108.305C283.127 110.274 282.977 112.27 283.015 114.267C282.977 116.267 283.127 118.266 283.462 120.238C283.664 121.509 284.062 122.741 284.642 123.89C285.008 124.656 285.595 125.294 286.329 125.72C286.925 126.042 287.591 126.213 288.269 126.218C288.949 126.211 289.617 126.041 290.217 125.72C290.944 125.286 291.53 124.65 291.904 123.89C292.497 122.744 292.906 121.511 293.118 120.238C293.464 118.267 293.62 116.268 293.582 114.267V114.267Z" fill="white"/>
<path d="M305.421 131.826V107.107H309.056C309.396 107.082 309.734 107.177 310.012 107.376C310.289 107.575 310.488 107.865 310.574 108.195L310.962 110.025C311.385 109.552 311.842 109.109 312.328 108.701C312.794 108.3 313.303 107.952 313.846 107.663C314.395 107.371 314.975 107.142 315.575 106.98C316.241 106.805 316.927 106.72 317.616 106.727C319.006 106.673 320.369 107.122 321.453 107.992C322.496 108.892 323.274 110.058 323.705 111.366C324.066 110.586 324.556 109.873 325.156 109.257C325.712 108.687 326.352 108.203 327.053 107.824C327.748 107.443 328.491 107.159 329.263 106.98C330.032 106.806 330.819 106.718 331.607 106.719C332.85 106.695 334.087 106.906 335.251 107.343C336.273 107.736 337.188 108.363 337.924 109.173C338.674 110.024 339.234 111.025 339.569 112.108C339.968 113.396 340.162 114.74 340.142 116.089V131.818H334.188V116.097C334.282 114.825 333.913 113.561 333.151 112.538C332.764 112.128 332.291 111.808 331.766 111.603C331.241 111.397 330.677 111.31 330.115 111.349C329.538 111.344 328.965 111.45 328.428 111.661C327.895 111.869 327.413 112.19 327.015 112.602C326.618 113.014 326.314 113.507 326.126 114.048C325.888 114.704 325.774 115.399 325.788 116.097V131.826H319.817V116.097C319.926 114.81 319.57 113.526 318.814 112.479C318.434 112.087 317.973 111.783 317.463 111.587C316.953 111.392 316.406 111.311 315.862 111.349C315.02 111.344 314.193 111.566 313.467 111.99C312.676 112.446 311.971 113.037 311.383 113.736V131.826H305.421Z" fill="white"/>
<path d="M353.224 99.905C353.227 100.406 353.117 100.902 352.904 101.356C352.7 101.799 352.414 102.199 352.061 102.536C351.712 102.89 351.3 103.176 350.846 103.38C350.375 103.582 349.867 103.685 349.353 103.683C348.851 103.686 348.354 103.583 347.894 103.38C346.996 103.004 346.279 102.293 345.896 101.398C345.693 100.941 345.589 100.447 345.592 99.9472C345.584 99.201 345.799 98.4695 346.209 97.8461C346.619 97.2226 347.206 96.7356 347.894 96.4472C348.354 96.2442 348.851 96.1407 349.353 96.1436C349.867 96.1417 350.375 96.245 350.846 96.4472C351.302 96.6473 351.714 96.9337 352.061 97.2906C352.418 97.6336 352.704 98.0433 352.904 98.4966C353.106 98.9393 353.215 99.4186 353.224 99.905V99.905ZM352.33 107.107V131.826H346.376V107.107H352.33Z" fill="white"/>
<path d="M365.39 96V131.801H359.444V96H365.39Z" fill="white"/>
</svg>
