<svg width="201" height="88" viewBox="0 0 201 88" fill="none" xmlns="http://www.w3.org/2000/svg">
<path d="M200.006 10.9412H186.188V16.7093H200.006V10.9412Z" fill="#76CCD8"/>
<path d="M189.064 13.8335H183.296V27.6505H189.064V13.8335Z" fill="#1EBCC5"/>
<path d="M189.064 16.7259H172.354V10.9412H183.296V0H189.064" fill="#00ACB4"/>
<path d="M22.1518 37.2366C21.0869 35.9122 19.7221 34.8602 18.1702 34.1676C16.6183 33.475 14.9239 33.1616 13.2269 33.2534C11.4606 33.2391 9.71176 33.6034 8.09811 34.3218C6.48447 35.0403 5.04352 36.0962 3.87231 37.4184C1.29513 40.1917 -0.0931883 43.8643 0.00486171 47.6489C-0.0755625 51.4269 1.32424 55.0865 3.90537 57.8464C5.06987 59.1705 6.50413 60.2301 8.11187 60.9541C9.71962 61.6782 11.4637 62.0499 13.2269 62.0444C14.9184 62.1309 16.6063 61.815 18.152 61.1226C19.6977 60.4301 21.0572 59.381 22.1187 58.0613V61.2842H29.1429V34.0137H22.1518V37.3192V37.2366ZM7.0456 47.6489C7.00952 46.6314 7.17818 45.617 7.54158 44.6659C7.90499 43.7148 8.45573 42.8464 9.16113 42.1122C9.86565 41.4015 10.7093 40.8438 11.6392 40.4741C12.5692 40.1044 13.5654 39.9306 14.5656 39.9636C15.5681 39.9323 16.5664 40.1068 17.4987 40.4763C18.4311 40.8459 19.2779 41.4026 19.9867 42.1122C20.7057 42.8389 21.2687 43.7049 21.641 44.657C22.0133 45.6091 22.1871 46.6272 22.1518 47.6489C22.1871 48.6706 22.0133 49.6888 21.641 50.6409C21.2687 51.593 20.7057 52.4589 19.9867 53.1857C19.2779 53.8952 18.4311 54.452 17.4987 54.8215C16.5664 55.1911 15.5681 55.3656 14.5656 55.3342C13.5654 55.3673 12.5692 55.1935 11.6392 54.8238C10.7093 54.4541 9.86565 53.8964 9.16113 53.1857C8.45573 52.4515 7.90499 51.583 7.54158 50.6319C7.17818 49.6808 7.00952 48.6664 7.0456 47.6489V47.6489ZM41.5056 34.0137H34.4648V61.2842H41.5056V48.2439C41.4087 47.1689 41.5904 46.0871 42.0334 45.1028C42.4763 44.1185 43.1654 43.265 44.0343 42.6246C45.7293 41.5053 47.7737 41.0412 49.7859 41.3189V33.4683C48.0193 33.4467 46.279 33.8975 44.745 34.774C43.208 35.6474 42.0352 37.0431 41.4394 38.7075V34.0137H41.5056Z" fill="white"/>
<path d="M69.1561 34.0137H62.9913V26.4441L55.9506 28.5761V34.0798H51.2402V40.8396H55.9836V52.1775C55.9836 55.9237 56.9753 58.5241 58.9586 59.9785C60.9419 61.4329 64.3521 61.8902 69.1892 61.3503V54.9045C68.0607 54.9702 66.9294 54.9702 65.801 54.9045C65.0497 54.904 64.3211 54.6475 63.7351 54.1773C63.4767 53.8998 63.2799 53.5708 63.1574 53.212C63.0349 52.8531 62.9896 52.4724 63.0244 52.0949V40.7735H69.1892V34.0137H69.1561ZM95.4845 37.1705C94.7274 35.9021 93.6364 34.8661 92.3307 34.1753C91.025 33.4846 89.5547 33.1657 88.0802 33.2534C86.6075 33.1522 85.1338 33.4357 83.8038 34.076C82.4738 34.7164 81.3332 35.6917 80.494 36.906V34.0137H73.4533V61.2842H80.494V45.9631C80.3699 44.297 80.8642 42.6436 81.8823 41.3189C82.344 40.7844 82.9185 40.3589 83.5644 40.0731C84.2103 39.7873 84.9115 39.6483 85.6176 39.6661C86.2472 39.6296 86.8771 39.732 87.4626 39.9663C88.0482 40.2005 88.575 40.5607 89.0057 41.0214C89.8571 42.105 90.2806 43.4638 90.1957 44.8393V61.152H97.2364V45.9631C97.1134 44.3048 97.5883 42.6573 98.5752 41.3189C99.0314 40.7779 99.6049 40.3479 100.252 40.0615C100.899 39.7752 101.603 39.64 102.31 39.6661C102.927 39.6373 103.542 39.7437 104.113 39.9778C104.684 40.2119 105.197 40.5681 105.616 41.0214C106.48 42.099 106.911 43.4607 106.822 44.8393V61.152H113.863V44.4922C114.041 41.4764 113.033 38.5105 111.053 36.2284C110.098 35.2072 108.932 34.405 107.637 33.8772C106.342 33.3494 104.947 33.1084 103.55 33.1708C101.973 33.0754 100.398 33.3853 98.9743 34.0709C97.551 34.7566 96.3268 35.7952 95.4184 37.0878L95.4845 37.1705ZM145.332 50.5413C145.51 49.5873 145.604 48.6194 145.613 47.6489C145.713 43.8528 144.312 40.1703 141.712 37.4019C140.452 36.0419 138.914 34.968 137.204 34.2523C135.493 33.5367 133.649 33.1961 131.796 33.2534C129.878 33.1869 127.967 33.5182 126.183 34.2265C124.4 34.9348 122.782 36.0047 121.433 37.3688C120.093 38.7175 119.04 40.3238 118.339 42.0907C117.637 43.8576 117.301 45.7485 117.35 47.6489C117.291 49.5555 117.623 51.454 118.325 53.2277C119.027 55.0013 120.085 56.6125 121.433 57.9621C122.87 59.3447 124.575 60.4198 126.442 61.1217C128.309 61.8236 130.299 62.1376 132.291 62.0445C134.618 62.1806 136.941 61.7136 139.035 60.6886C141.128 59.6635 142.921 58.1153 144.241 56.1937L138.572 52.8882C137.851 53.8013 136.92 54.5263 135.858 55.0012C134.796 55.476 133.634 55.6867 132.473 55.6152C128.292 55.6152 125.713 53.9625 124.771 50.4917L145.332 50.5413ZM127.151 41.0214C128.51 40.0623 130.151 39.5852 131.812 39.6661C133.348 39.6434 134.85 40.1189 136.093 41.0214C137.413 42.0418 138.299 43.5237 138.572 45.1698H124.672C124.976 43.5662 125.844 42.1242 127.118 41.104L127.151 41.0214Z" fill="white"/>
<path d="M169.875 37.2367C168.831 35.9139 167.484 34.8616 165.948 34.1684C164.412 33.4751 162.732 33.1614 161.05 33.2535C159.273 33.2351 157.513 33.5972 155.888 34.3156C154.263 35.034 152.811 36.092 151.629 37.4185C149.044 40.1883 147.649 43.8618 147.745 47.649C147.658 51.425 149.052 55.085 151.629 57.8465C152.811 59.173 154.263 60.231 155.888 60.9494C157.513 61.6678 159.273 62.0299 161.05 62.0115C162.732 62.1036 164.412 61.7899 165.948 61.0967C167.484 60.4035 168.831 59.3511 169.875 58.0283V61.2512H176.85V23.1387H169.809V37.2697L169.875 37.2367ZM154.769 47.649C154.744 46.6214 154.931 45.5997 155.318 44.6473C155.705 43.6948 156.283 42.832 157.017 42.1123C157.724 41.4011 158.571 40.8433 159.504 40.4737C160.436 40.104 161.435 39.9304 162.438 39.9637C163.436 39.929 164.43 40.1021 165.358 40.4719C166.285 40.8418 167.126 41.4004 167.826 42.1123C168.537 42.8435 169.092 43.711 169.458 44.6626C169.825 45.6141 169.995 46.63 169.958 47.649C169.995 48.6681 169.825 49.684 169.458 50.6355C169.092 51.5871 168.537 52.4546 167.826 53.1858C167.126 53.8977 166.285 54.4563 165.358 54.8261C164.43 55.196 163.436 55.3691 162.438 55.3344C161.435 55.3677 160.436 55.1941 159.504 54.8244C158.571 54.4548 157.724 53.897 157.017 53.1858C156.298 52.4591 155.735 51.5931 155.363 50.641C154.99 49.6889 154.816 48.6707 154.852 47.649H154.769Z" fill="white"/>
<path d="M71.4862 82.5054H75.9321V79.4644H71.4862V77.6794H76.4444V74.6053H68.1807V87.4968H76.4444V84.4061H71.4862V82.5054ZM83.9314 74.6053V87.4968H89.2533C90.0855 87.5195 90.9131 87.3664 91.6821 87.0474C92.451 86.7284 93.144 86.2508 93.7157 85.6457C94.8739 84.3959 95.5173 82.7549 95.5173 81.051C95.5173 79.3471 94.8739 77.7061 93.7157 76.4563C93.1415 75.8545 92.448 75.3791 91.6797 75.0604C90.9113 74.7416 90.0849 74.5866 89.2533 74.6053H83.9314ZM87.2369 84.3069V77.7951H89.2533C89.6595 77.7802 90.0642 77.8522 90.4404 78.006C90.8166 78.1599 91.1556 78.3923 91.4349 78.6876C91.989 79.3505 92.2925 80.187 92.2925 81.051C92.2925 81.915 91.989 82.7515 91.4349 83.4145C91.1542 83.7067 90.8144 83.936 90.4383 84.087C90.0622 84.238 89.6583 84.3074 89.2533 84.2904L87.2369 84.3069ZM102.789 87.4968H106.095V74.6053H102.789V87.4968ZM113.169 74.6053V77.7951H116.359V87.4968H119.664V77.7951H122.854V74.6053H113.169Z" fill="white"/>
<path d="M142.373 80.9851C142.395 80.1132 142.239 79.246 141.915 78.4362C141.591 77.6264 141.106 76.891 140.489 76.2747C139.549 75.3233 138.348 74.6719 137.039 74.403C135.729 74.1341 134.369 74.2597 133.13 74.7639C131.892 75.2681 130.831 76.1284 130.081 77.2357C129.332 78.3431 128.927 79.6479 128.919 80.9851C128.9 81.8738 129.065 82.7569 129.403 83.5789C129.742 84.4009 130.247 85.144 130.886 85.7615C132.168 87.0133 133.888 87.7141 135.679 87.7141C137.471 87.7141 139.191 87.0133 140.472 85.7615C141.103 85.1408 141.598 84.3955 141.925 83.5732C142.252 82.7509 142.405 81.8695 142.373 80.9851V80.9851ZM132.225 80.9851C132.211 80.521 132.292 80.0589 132.462 79.627C132.633 79.1951 132.89 78.8024 133.217 78.4729C133.54 78.1473 133.927 77.8924 134.354 77.7245C134.78 77.5566 135.238 77.4794 135.696 77.4978C136.4 77.4847 137.092 77.6822 137.684 78.065C138.275 78.4478 138.738 78.9984 139.015 79.6463C139.291 80.2943 139.368 81.01 139.235 81.7017C139.102 82.3935 138.765 83.0298 138.268 83.5291C137.772 84.0283 137.137 84.3679 136.446 84.5041C135.755 84.6404 135.039 84.5672 134.389 84.2939C133.74 84.0206 133.187 83.5597 132.802 82.9702C132.416 82.3806 132.215 81.6894 132.225 80.9851ZM160.14 87.4308L157.479 82.6709C158.156 82.313 158.726 81.7828 159.132 81.1338C159.528 80.4936 159.734 79.7544 159.727 79.0018C159.743 78.4055 159.632 77.8126 159.401 77.2626C159.17 76.7125 158.825 76.218 158.388 75.812C157.498 74.9677 156.309 74.5102 155.083 74.5393H149.794V87.4308H153.099V83.332H154.289L156.537 87.4969L160.14 87.4308ZM155 77.5143C155.185 77.5089 155.369 77.5429 155.54 77.6142C155.711 77.6854 155.865 77.7922 155.992 77.9275C156.249 78.2117 156.386 78.5853 156.372 78.9687C156.383 79.3566 156.247 79.7345 155.992 80.0265C155.863 80.1575 155.708 80.2593 155.537 80.3249C155.366 80.3905 155.183 80.4184 155 80.4066H153.083V77.6796L155 77.5143Z" fill="white"/>
<path d="M178.701 87.497L174.436 74.6055H170.238L166.14 87.497H169.693L170.255 85.6459H174.635L175.263 87.497H178.701ZM172.437 78.4233L173.742 82.8031H171.148L172.437 78.4233V78.4233Z" fill="white"/>
</svg>
