<svg viewBox="0 0 210 66" fill="none" xmlns="http://www.w3.org/2000/svg">
<path d="M210 11.4683H195.434V17.5373H210V11.4683Z" fill="#76CCD8"/>
<path d="M198.544 14.5635H192.475V29.1291H198.544V14.5635Z" fill="#1EBCC5"/>
<path d="M198.558 17.5134H180.871V11.4444H192.489V0H198.558" fill="#00ACB4"/>
<path d="M23.409 39.2139C21.1548 36.4395 18.0336 35.0522 14.0454 35.0522C10.2306 35.0522 6.936 36.4394 4.1616 39.3873C1.38719 42.3351 0 45.803 0 50.138C0 54.473 1.38719 57.9412 4.1616 60.889C6.936 63.8368 10.2306 65.224 14.0454 65.224C18.0336 65.224 21.1548 63.8367 23.409 61.0623V64.357H30.8652V35.7459H23.409V39.2139ZM7.45619 50.138C7.45619 47.7104 8.14982 45.8031 9.71042 44.4159C11.271 42.8553 13.005 42.1616 15.4326 42.1616C17.8602 42.1616 19.5942 42.8553 21.1548 44.4159C22.7154 45.9765 23.409 47.8838 23.409 50.138C23.409 52.5656 22.7154 54.4731 21.1548 55.8603C19.5942 57.4209 17.6868 58.1146 15.4326 58.1146C13.1784 58.1146 11.271 57.4209 9.71042 55.8603C8.14982 54.2997 7.45619 52.3922 7.45619 50.138ZM43.6968 35.7459H36.2406V64.357H43.6968V50.6583C43.6968 47.8839 44.5638 45.9764 46.2978 44.7626C48.0318 43.5488 50.1126 43.2022 52.3668 43.3756V35.0522C50.4594 35.0522 48.7255 35.5725 46.9915 36.4395C45.2575 37.3065 44.2171 38.6936 43.5235 40.601V35.7459H43.6968Z" fill="white"/>
<path d="M72.6418 35.7283H66.226V27.752L58.7698 30.006V35.7283H53.7412V42.8377H58.7698V54.8024C58.7698 58.7906 59.8102 61.3915 61.891 62.9521C63.9718 64.5127 67.6132 65.033 72.6418 64.3394V57.5767C71.2546 57.5767 70.0408 57.5767 69.1738 57.5767C68.3068 57.5767 67.4398 57.2299 66.9196 56.8831C66.3994 56.3629 66.226 55.6694 66.226 54.629V42.6643H72.6418V35.7283ZM100.212 39.023C98.4785 36.2486 95.8775 34.8613 92.4095 34.8613C88.7681 34.8613 86.167 36.075 84.433 38.676V35.7283H76.9768V64.3394H84.433V48.2131C84.433 46.1323 84.9533 44.5718 85.8203 43.358C86.8607 42.3176 88.0744 41.624 89.8085 41.624C91.3691 41.624 92.5829 42.1441 93.2765 43.0111C94.1435 43.8781 94.4903 45.2653 94.4903 46.9993V64.166H101.946V48.0397C101.946 45.9589 102.467 44.3982 103.334 43.1844C104.201 42.144 105.588 41.4504 107.322 41.4504C108.882 41.4504 110.096 41.9707 110.79 42.8377C111.657 43.7047 112.004 45.092 112.004 46.826V63.9925H119.46V46.3057C119.46 42.6643 118.419 39.8898 116.512 37.809C114.605 35.7282 112.004 34.688 108.709 34.688C105.068 34.8614 102.12 36.2486 100.212 39.023ZM152.579 53.0684C152.753 52.028 152.926 50.9874 152.926 50.1204C152.926 45.7854 151.539 42.3175 148.765 39.3697C145.99 36.4219 142.522 35.0347 138.361 35.0347C133.852 35.0347 130.384 36.4219 127.436 39.3697C124.662 42.3175 123.275 45.7854 123.275 50.1204C123.275 54.4554 124.662 58.097 127.61 60.8714C130.384 63.8192 134.199 65.2064 139.054 65.2064C144.603 65.2064 148.765 63.1256 151.539 59.1374L145.643 55.6694C144.256 57.5768 142.002 58.4437 139.228 58.4437C134.893 58.4437 132.118 56.7098 131.078 53.0684H152.579ZM133.505 43.0111C134.719 41.9707 136.453 41.4504 138.361 41.4504C140.095 41.4504 141.482 41.9707 142.869 42.8377C144.256 43.7047 145.123 45.2653 145.47 47.1727H130.904C131.251 45.4387 132.118 44.0515 133.505 43.0111Z" fill="white"/>
<path d="M178.27 39.1975C176.016 36.4231 173.068 35.0359 169.08 35.0359C165.265 35.0359 161.97 36.4231 159.196 39.3709C156.422 42.3187 155.034 45.7866 155.034 50.1216C155.034 54.2832 156.422 57.9248 159.196 60.8726C161.97 63.8204 165.265 65.2076 169.08 65.2076C173.068 65.2076 176.189 63.8204 178.27 61.0459V64.3406H185.726V24.2852H178.27V39.1975ZM162.491 50.1216C162.491 47.694 163.184 45.7868 164.745 44.3996C166.305 42.839 168.213 42.1453 170.467 42.1453C172.721 42.1453 174.629 42.839 176.189 44.3996C177.75 45.9602 178.443 47.8674 178.443 50.1216C178.443 52.5492 177.75 54.4567 176.189 55.8439C174.629 57.4045 172.895 58.0982 170.467 58.0982C168.213 58.0982 166.305 57.4045 164.745 55.8439C163.184 54.2833 162.491 52.3758 162.491 50.1216Z" fill="white"/>
</svg>
