<svg viewBox="0 0 301 42" fill="none" xmlns="http://www.w3.org/2000/svg">
<path d="M217.401 22.9902H203.013V29.0139H217.401V22.9902Z" fill="#76CCD8"/>
<path d="M206.014 26.0134H200.013V40.402H206.014V26.0134Z" fill="#1EBCC5"/>
<path d="M206.014 29.014H188.625V22.9904H200.013V11.6023H206.014" fill="#00ACB4"/>
<path d="M244.588 0.805007C246.361 0.747427 248.127 1.05012 249.78 1.69478C251.432 2.33944 252.937 3.31267 254.203 4.55558C255.465 5.77568 256.462 7.24331 257.131 8.86652C257.8 10.4897 258.126 12.2336 258.09 13.9888C258.126 15.7441 257.8 17.4879 257.131 19.1111C256.462 20.7343 255.465 22.202 254.203 23.4221C252.943 24.6812 251.442 25.6726 249.79 26.3366C248.138 27.0007 246.368 27.3237 244.588 27.2863H237.768V40.2655H229.972V0.805007H244.588ZM244.588 20.0579C245.36 20.0809 246.129 19.9387 246.843 19.6408C247.556 19.3429 248.198 18.8961 248.725 18.3304C249.265 17.7654 249.688 17.0987 249.969 16.3691C250.25 15.6394 250.383 14.8613 250.361 14.0797C250.387 13.2909 250.255 12.5049 249.974 11.7674C249.693 11.0299 249.268 10.3556 248.725 9.78364C248.193 9.22548 247.55 8.78529 246.837 8.4916C246.125 8.19791 245.358 8.05728 244.588 8.07884H237.768V20.0579H244.588Z" fill="#00ACB4"/>
<path d="M274.318 41.1294C270.836 41.2551 267.395 40.3454 264.43 38.5154C261.797 36.8278 259.804 34.3071 258.771 31.3552L265.453 27.4682C266.077 29.3462 267.31 30.9617 268.958 32.0574C270.606 33.1531 272.573 33.6661 274.546 33.5146C276.233 33.6458 277.917 33.2228 279.342 32.3099C279.82 31.9757 280.208 31.5296 280.474 31.0105C280.739 30.4914 280.873 29.9151 280.865 29.3322C280.878 28.6722 280.712 28.021 280.384 27.4484C280.055 26.8758 279.577 26.4033 279.001 26.0817C276.893 24.969 274.656 24.1215 272.341 23.5586C270.797 23.1231 269.279 22.5995 267.795 21.9901C266.502 21.4205 265.274 20.7116 264.135 19.8762C262.957 19.0025 262.019 17.8453 261.407 16.512C260.726 15.0228 260.392 13.3985 260.43 11.7613C260.369 10.136 260.682 8.51845 261.344 7.03286C262.006 5.54728 262.999 4.23327 264.249 3.19183C266.805 1.08384 270.028 -0.0443971 273.341 0.00953452C276.345 -0.0971997 279.313 0.694201 281.865 2.28261C284.331 3.88418 286.299 6.14399 287.548 8.80632L281.001 12.6024C280.42 11.076 279.38 9.76713 278.024 8.85546C276.669 7.94379 275.065 7.47402 273.432 7.51067C272.072 7.434 270.727 7.81844 269.613 8.60175C269.167 8.95873 268.81 9.41465 268.57 9.93344C268.331 10.4522 268.215 11.0197 268.233 11.5908C268.251 12.162 268.401 12.7212 268.672 13.2242C268.943 13.7272 269.328 14.1602 269.795 14.489C271.64 15.6232 273.649 16.4666 275.75 16.9894L278.478 17.8759C279.115 18.0805 279.956 18.3987 281.024 18.8306C281.893 19.1617 282.73 19.5726 283.524 20.058C284.223 20.5223 284.891 21.031 285.525 21.581C286.205 22.1411 286.788 22.8092 287.252 23.5586C287.68 24.335 288.016 25.159 288.252 26.0135C288.553 27.0315 288.699 28.0889 288.684 29.1503C288.749 30.8116 288.423 32.4649 287.732 33.977C287.041 35.4892 286.005 36.8179 284.706 37.8562C281.731 40.1248 278.057 41.2826 274.318 41.1294Z" fill="#00ACB4"/>
<path d="M292.23 0.805176H300.05V40.3339H292.276L292.23 0.805176Z" fill="#00ACB4"/>
<path d="M22.4624 15.9209C21.3764 14.5751 19.9849 13.508 18.4035 12.8082C16.8221 12.1084 15.0965 11.7962 13.3701 11.8976C11.5878 11.8993 9.82638 12.2814 8.20354 13.0183C6.5807 13.7553 5.13383 14.8301 3.95963 16.171C1.33024 18.9719 -0.090618 22.6956 0.00448414 26.5362C-0.0868208 30.3829 1.33309 34.1122 3.95963 36.9241C5.14559 38.2654 6.60532 39.3368 8.24043 40.0661C9.87553 40.7954 11.648 41.1657 13.4383 41.152C15.1671 41.2544 16.8951 40.9404 18.4773 40.2364C20.0594 39.5323 21.4495 38.4588 22.5306 37.1059V40.3792H29.5544V12.7159H22.4624V15.9209ZM7.14193 26.5362C7.107 25.5033 7.28017 24.474 7.65115 23.5095C8.02212 22.545 8.58332 21.6649 9.30135 20.9217C10.0062 20.1826 10.8574 19.5988 11.8007 19.2074C12.7439 18.816 13.7585 18.6257 14.7795 18.6486C15.8031 18.6308 16.8195 18.8233 17.7657 19.2143C18.712 19.6053 19.5678 20.1864 20.2803 20.9217C21.0231 21.6522 21.6081 22.5275 21.9991 23.4932C22.3901 24.4589 22.5787 25.4946 22.5534 26.5362C22.5801 27.5779 22.3921 28.614 22.001 29.5799C21.6099 30.5458 21.0242 31.4209 20.2803 32.1506C19.5678 32.8859 18.712 33.467 17.7657 33.858C16.8195 34.249 15.8031 34.4416 14.7795 34.4237C13.7585 34.4467 12.7439 34.2564 11.8007 33.865C10.8574 33.4736 10.0062 32.8897 9.30135 32.1506C8.58117 31.4089 8.01858 30.5291 7.64746 29.5642C7.27635 28.5993 7.10438 27.5693 7.14193 26.5362V26.5362ZM42.1018 12.7159H34.9643V40.3792H42.1018V27.1499C42.0046 26.0584 42.1898 24.9603 42.6396 23.9611C43.0894 22.9619 43.7888 22.0953 44.6703 21.4445C46.3932 20.311 48.4694 19.8424 50.5121 20.1261V12.1476C48.7408 12.1389 46.9991 12.6017 45.4659 13.4887C43.9283 14.3795 42.7595 15.7902 42.17 17.4666V12.7159H42.1018Z" fill="white"/>
<path d="M70.1507 12.716H63.8997V4.96484L56.8305 7.12426V12.716H51.9434V19.5352H56.8305V31.037C56.8305 34.833 57.8306 37.4698 59.8536 38.9473C61.8767 40.4248 65.309 40.8794 70.2189 40.3338V33.901C69.0757 33.9684 67.9296 33.9684 66.7865 33.901C66.022 33.9104 65.2796 33.6441 64.6953 33.1509C64.4334 32.8734 64.2332 32.5436 64.1078 32.1832C63.9825 31.8227 63.9348 31.4399 63.9679 31.0597V19.5807H70.2189V12.7615L70.1507 12.716ZM96.882 15.9211C96.1115 14.6335 95.0026 13.5818 93.6761 12.8805C92.3495 12.1791 90.8561 11.8549 89.3581 11.9432C87.8623 11.8367 86.3646 12.1225 85.0132 12.7723C83.6617 13.4221 82.5033 14.4135 81.6524 15.6483V12.716H74.515V40.3793H81.6524V24.8315C81.5328 23.1577 82.0346 21.4987 83.0617 20.1717C83.5377 19.6426 84.125 19.2256 84.7813 18.9504C85.4376 18.6753 86.1468 18.549 86.8577 18.5805C87.4969 18.5428 88.1364 18.6476 88.73 18.8874C89.3236 19.1273 89.8565 19.496 90.2901 19.9671C91.1601 21.0596 91.5899 22.438 91.4948 23.8313V40.3793H98.6323V24.8315C98.525 23.1627 99.0167 21.5104 100.019 20.1717C100.489 19.6348 101.075 19.2124 101.733 18.9367C102.391 18.6609 103.103 18.5391 103.815 18.5805C104.454 18.5428 105.094 18.6476 105.687 18.8874C106.281 19.1273 106.814 19.496 107.247 19.9671C108.108 21.0647 108.536 22.4393 108.452 23.8313V40.3793H115.589V23.3313C115.737 20.3043 114.72 17.3358 112.748 15.0346C111.777 14.001 110.593 13.1896 109.279 12.656C107.964 12.1225 106.55 11.8793 105.133 11.9432C103.532 11.8419 101.932 12.1547 100.487 12.8514C99.0414 13.5482 97.8 14.6053 96.882 15.9211V15.9211ZM147.435 29.5595C147.632 28.5635 147.739 27.5516 147.753 26.5363C147.845 22.6811 146.406 18.9464 143.753 16.1484C142.476 14.7698 140.919 13.6811 139.186 12.9556C137.452 12.2302 135.584 11.885 133.706 11.9432C131.763 11.8748 129.827 12.209 128.02 12.9249C126.213 13.6408 124.573 14.7228 123.204 16.1029C121.857 17.4783 120.8 19.1109 120.097 20.9034C119.394 22.6959 119.059 24.6116 119.113 26.5363C119.054 28.469 119.391 30.3932 120.103 32.1911C120.814 33.989 121.885 35.6228 123.25 36.9924C124.708 38.3983 126.438 39.4922 128.334 40.2074C130.229 40.9226 132.25 41.244 134.274 41.1522C136.623 41.2866 138.967 40.8109 141.078 39.7713C143.189 38.7317 144.996 37.1636 146.321 35.2194L140.57 31.8326C139.842 32.7618 138.899 33.4999 137.822 33.9831C136.745 34.4662 135.566 34.6799 134.388 34.6057C130.137 34.6057 127.568 32.8782 126.568 29.4004L147.435 29.5595ZM128.955 19.8307C130.324 18.8121 132 18.2909 133.706 18.3532C135.266 18.3269 136.791 18.8141 138.047 19.7398C139.393 20.7696 140.295 22.2734 140.57 23.945H126.477C126.777 22.3185 127.658 20.8563 128.955 19.8307V19.8307Z" fill="white"/>
<path d="M172.326 15.9211C171.262 14.5847 169.894 13.5222 168.336 12.8223C166.778 12.1224 165.075 11.8054 163.37 11.8978C161.569 11.8788 159.784 12.2463 158.138 12.9757C156.491 13.705 155.019 14.7792 153.823 16.1257C151.194 18.9267 149.773 22.6503 149.868 26.4909C149.776 30.3376 151.196 34.0669 153.823 36.8789C155.019 38.2253 156.491 39.2995 158.138 40.0289C159.784 40.7582 161.569 41.1258 163.37 41.1068C165.078 41.2003 166.783 40.8815 168.342 40.1773C169.901 39.473 171.267 38.4041 172.326 37.0607V40.3339H179.577V1.64624H172.326V15.9211ZM157.005 26.4909C156.965 25.4682 157.132 24.448 157.495 23.4911C157.858 22.5343 158.411 21.6604 159.119 20.9219C159.832 20.1866 160.687 19.6055 161.634 19.2145C162.58 18.8235 163.596 18.631 164.62 18.6488C165.641 18.6259 166.656 18.8162 167.599 19.2076C168.542 19.599 169.393 20.1828 170.098 20.9219C170.841 21.6524 171.426 22.5277 171.817 23.4934C172.208 24.4591 172.397 25.4948 172.371 26.5364C172.399 27.5783 172.212 28.6148 171.821 29.5809C171.43 30.547 170.843 31.4219 170.098 32.1509C169.393 32.8899 168.542 33.4738 167.599 33.8652C166.656 34.2566 165.641 34.4469 164.62 34.4239C163.596 34.4418 162.58 34.2492 161.634 33.8582C160.687 33.4672 159.832 32.8861 159.119 32.1509C158.375 31.4211 157.79 30.546 157.398 29.5801C157.007 28.6142 156.819 27.5781 156.846 26.5364L157.005 26.4909Z" fill="white"/>
</svg>
