<?xml version="1.0" encoding="utf-8"?>
<!-- Generator: Adobe Illustrator 25.3.1, SVG Export Plug-In . SVG Version: 6.00 Build 0)  -->
<svg version="1.1" id="Camada_1" xmlns="http://www.w3.org/2000/svg" xmlns:xlink="http://www.w3.org/1999/xlink" x="0px" y="0px"
	 viewBox="0 0 1200 1200" style="enable-background:new 0 0 1200 1200;" xml:space="preserve">
<style type="text/css">
	.st0{fill:#85CCDB;}
	.st1{fill:#2BB7C4;}
	.st2{fill:#009EAD;}
	.st3{fill:#413F3D;}
</style>
<g>
	<rect x="1040.23" y="500.46" class="st0" width="70.61" height="29.49"/>
	<rect x="1025.49" y="515.23" class="st1" width="29.5" height="70.61"/>
	<polyline class="st2" points="1054.99,529.96 969.61,529.96 969.61,500.46 1025.49,500.46 1025.49,444.6 1054.99,444.6 	"/>
	<path class="st3" d="M202.26,628.65c-10.77-13.55-25.91-20.34-45.41-20.34c-18.57,0-34.5,7.1-47.77,21.31
		c-13.28,14.21-19.92,31.62-19.92,52.23s6.64,38.02,19.92,52.23c13.28,14.21,29.2,21.31,47.77,21.31c19.5,0,34.63-6.78,45.41-20.34
		v16.44h35.94V612.21h-35.94V628.65L202.26,628.65z M125.1,681.85c0-11.51,3.62-20.94,10.86-28.27c7.24-7.33,16.44-11,27.58-11
		c11.14,0,20.38,3.67,27.72,11c7.33,7.34,11,16.76,11,28.27c0,11.52-3.67,20.94-11,28.27c-7.34,7.34-16.57,11-27.72,11
		c-11.14,0-20.34-3.66-27.58-11C128.72,702.79,125.1,693.37,125.1,681.85L125.1,681.85z M301.15,612.21h-35.94V751.5h35.94v-66.58
		c0-13.37,4.32-22.93,12.95-28.69c8.64-5.75,18.43-7.98,29.39-6.69v-40.11c-9.47,0-18.06,2.23-25.77,6.69
		c-7.71,4.46-13.23,11.14-16.57,20.06V612.21L301.15,612.21z"/>
	<path class="st3" d="M442.38,612.21H410.9v-39l-35.94,10.86v28.14h-24.23v34.54h24.23v57.94c0,19.13,5.06,32.41,15.18,39.83
		c10.12,7.43,27.53,9.75,52.23,6.96V718.9c-6.87,0.37-12.63,0.42-17.27,0.14c-4.64-0.28-8.17-1.53-10.59-3.76
		c-2.42-2.23-3.62-5.75-3.62-10.59v-57.94h31.48V612.21L442.38,612.21z M576.93,628.37c-8.17-13.37-20.8-20.06-37.88-20.06
		c-17.46,0-30.36,6.22-38.72,18.66v-14.76h-35.94V751.5h35.94v-78.28c0-10.21,2.37-18.01,7.1-23.4c4.74-5.38,11.1-8.08,19.08-8.08
		c7.43,0,13.18,2.32,17.27,6.96c4.08,4.64,6.13,11.14,6.13,19.5v83.29h35.94v-78.28c0-10.21,2.27-18.01,6.82-23.4
		c4.55-5.38,10.91-8.08,19.08-8.08c7.43,0,13.18,2.32,17.27,6.96c4.08,4.64,6.13,11.14,6.13,19.5v83.29h35.94v-85.8
		c0-17.45-4.78-31.38-14.35-41.78c-9.57-10.4-22.33-15.6-38.3-15.6C600.05,608.31,586.21,615,576.93,628.37L576.93,628.37
		L576.93,628.37z M831.53,696.62c0.93-5.2,1.39-10.12,1.39-14.76c0-20.8-6.64-38.26-19.92-52.37
		c-13.28-14.11-30.13-21.17-50.56-21.17c-21.55,0-39.19,7.01-52.93,21.03c-13.75,14.02-20.61,31.53-20.61,52.51
		c0,21.17,6.96,38.72,20.89,52.65c13.93,13.93,32.41,20.89,55.43,20.89c26.74,0,46.98-9.93,60.73-29.81l-28.97-16.71
		c-7.06,9.29-17.46,13.93-31.2,13.93c-21.36,0-34.45-8.73-39.28-26.19H831.53L831.53,696.62z M738.49,648.01
		c6.31-4.92,14.3-7.38,23.96-7.38c8.17,0,15.46,2.32,21.87,6.96c6.41,4.64,10.63,11.7,12.67,21.17h-71.03
		C728,659.85,732.18,652.93,738.49,648.01L738.49,648.01z"/>
	<path class="st3" d="M956.89,628.65c-10.59-13.55-25.63-20.34-45.13-20.34c-18.76,0-34.78,7.1-48.05,21.31
		c-13.28,14.21-19.92,31.62-19.92,52.23s6.64,38.02,19.92,52.23c13.28,14.21,29.29,21.31,48.05,21.31c19.5,0,34.54-6.78,45.13-20.34
		v16.44h35.94v-195h-35.94V628.65L956.89,628.65z M879.73,681.85c0-11.51,3.66-20.94,11-28.27c7.33-7.33,16.57-11,27.72-11
		c11.14,0,20.34,3.67,27.58,11c7.24,7.34,10.86,16.76,10.86,28.27c0,11.52-3.62,20.94-10.86,28.27c-7.24,7.34-16.44,11-27.58,11
		c-11.14,0-20.38-3.66-27.72-11C883.39,702.79,879.73,693.37,879.73,681.85L879.73,681.85z"/>
</g>
</svg>
