<svg viewBox="0 0 301 66" fill="none" xmlns="http://www.w3.org/2000/svg">
<path d="M212.012 11.593H197.354V17.7079H212.012V11.593Z" fill="#76CCD8"/>
<path d="M200.42 14.658H194.305V29.3159H200.42V14.658Z" fill="#1EBCC5"/>
<path d="M200.419 17.7228H182.711V11.5931H194.304V0H200.419" fill="#00ACB4"/>
<path d="M23.4724 39.473C22.3484 38.0751 20.9087 36.9637 19.2718 36.2302C17.6348 35.4966 15.8472 35.1618 14.0558 35.2533C12.1806 35.2398 10.3244 35.6294 8.61288 36.3958C6.90137 37.1621 5.37452 38.2873 4.13572 39.6951C1.39512 42.6171 -0.0883302 46.4985 0.00483704 50.5035C-0.0961589 54.5187 1.38784 58.4122 4.13572 61.3415C5.37514 62.7486 6.90211 63.8732 8.61348 64.6395C10.3248 65.4058 12.1807 65.7958 14.0558 65.7833C15.8472 65.8748 17.6348 65.54 19.2718 64.8064C20.9087 64.0729 22.3484 62.9615 23.4724 61.5636V64.969H30.8754V36.0528H23.4724V39.473V39.473ZM7.40786 50.5035C7.35792 49.4149 7.53188 48.3276 7.91898 47.3089C8.30608 46.2902 8.89809 45.3618 9.65838 44.5811C10.402 43.827 11.2936 43.2352 12.2773 42.8427C13.2609 42.4503 14.3151 42.2658 15.3735 42.3009C16.4384 42.2668 17.4991 42.4515 18.4897 42.8437C19.4804 43.2359 20.3801 43.8272 21.1331 44.5811C21.9001 45.3583 22.4985 46.2854 22.8909 47.3045C23.2832 48.3235 23.461 49.4126 23.4132 50.5035C23.4601 51.5943 23.2819 52.6831 22.8896 53.7021C22.4973 54.721 21.8994 55.6482 21.1331 56.4259C20.378 57.1769 19.478 57.7663 18.4878 58.1583C17.4976 58.5503 16.438 58.7367 15.3735 58.706C14.3154 58.7385 13.262 58.5528 12.2788 58.1605C11.2955 57.7682 10.4036 57.1778 9.65838 56.4259C8.89881 55.6447 8.30728 54.7162 7.92022 53.6976C7.53317 52.679 7.3588 51.592 7.40786 50.5035V50.5035ZM43.9344 36.0528H36.5313V64.9542H43.9344V51.1402C43.8369 50.0046 44.0337 48.8632 44.5057 47.8258C44.9776 46.7885 45.709 45.8902 46.6291 45.2177C48.422 44.0192 50.5938 43.5236 52.7292 43.826V35.5346C50.8604 35.4929 49.0146 35.953 47.3842 36.8671C45.7783 37.7984 44.5596 39.2745 43.9492 41.0276V36.0528H43.9344Z" fill="white"/>
<path d="M73.3095 36.0526H66.7652V27.9685L59.3622 30.219V36.0526H54.3281V43.2187H59.3622V55.2412C59.3622 59.1895 60.4134 61.9484 62.5159 63.5178C64.6183 65.0873 68.231 65.5808 73.3539 64.9984V58.2024C71.8733 58.2024 70.7332 58.2024 69.7708 58.2024C68.9669 58.2036 68.1874 57.9263 67.5647 57.4177C67.2908 57.1238 67.082 56.7753 66.9519 56.3952C66.8218 56.0151 66.7733 55.6118 66.8096 55.2116V43.2187H73.3539V36.0526H73.3095ZM101.219 39.4136C100.418 38.0638 99.2604 36.9612 97.8732 36.2272C96.4861 35.4931 94.9233 35.156 93.3569 35.2531C91.799 35.1458 90.24 35.4457 88.833 36.1232C87.426 36.8008 86.2195 37.8326 85.332 39.1175V36.0526H77.929V64.954H85.332V48.6674C85.2177 46.9223 85.7442 45.1955 86.8126 43.811C87.3104 43.2576 87.924 42.8208 88.6099 42.5316C89.2957 42.2424 90.0369 42.108 90.7806 42.1379C91.4501 42.1052 92.1185 42.2211 92.7379 42.477C93.3574 42.733 93.9125 43.1228 94.3637 43.6185C95.2721 44.7627 95.7256 46.2023 95.637 47.6605V64.954H103.04V48.6674C102.946 46.9246 103.47 45.2046 104.521 43.811C105.01 43.2513 105.62 42.8099 106.305 42.5201C106.99 42.2303 107.731 42.0996 108.474 42.1379C109.143 42.1042 109.812 42.2195 110.432 42.4756C111.051 42.7316 111.606 43.122 112.057 43.6185C112.965 44.7627 113.419 46.2023 113.33 47.6605V64.954H120.733V47.1868C120.899 44.0214 119.839 40.9138 117.772 38.5104C116.758 37.4304 115.523 36.5826 114.15 36.0255C112.778 35.4683 111.301 35.2149 109.821 35.2827C108.149 35.1791 106.478 35.5074 104.969 36.236C103.459 36.9646 102.163 38.069 101.204 39.4432L101.219 39.4136ZM154.062 53.5682C154.245 52.5568 154.34 51.5312 154.343 50.5033C154.452 46.478 152.967 42.5724 150.212 39.6357C148.881 38.1922 147.258 37.0493 145.45 36.2833C143.642 35.5173 141.692 35.1459 139.729 35.1939C137.705 35.1389 135.691 35.5024 133.813 36.2616C131.935 37.0208 130.235 38.1594 128.817 39.6061C127.407 41.0408 126.301 42.7455 125.566 44.6181C124.831 46.4906 124.481 48.4924 124.538 50.5033C124.469 52.5201 124.813 54.5297 125.549 56.4087C126.285 58.2878 127.397 59.9966 128.817 61.4302C130.34 62.8967 132.145 64.0378 134.123 64.7836C136.101 65.5295 138.21 65.8645 140.322 65.7683C142.776 65.9025 145.224 65.4039 147.43 64.3201C149.637 63.2364 151.527 61.604 152.922 59.5794L146.895 56.1148C146.137 57.0984 145.15 57.8822 144.02 58.3982C142.89 58.9142 141.651 59.1469 140.41 59.076C135.988 59.076 133.274 57.2647 132.267 53.6422L154.062 53.5682ZM134.74 43.4852C136.181 42.4395 137.936 41.9172 139.715 42.0046C141.345 41.9961 142.934 42.5155 144.245 43.4852C145.658 44.576 146.6 46.1647 146.881 47.927H132.075C132.391 46.1709 133.339 44.5912 134.74 43.4852V43.4852Z" fill="white"/>
<path d="M180.076 39.473C178.965 38.0712 177.534 36.9563 175.904 36.2221C174.273 35.4878 172.49 35.1556 170.704 35.2532C168.822 35.2382 166.959 35.627 165.24 36.3932C163.521 37.1594 161.986 38.2854 160.739 39.6951C157.991 42.6244 156.507 46.5179 156.608 50.5331C156.507 54.5483 157.991 58.4418 160.739 61.3711C161.987 62.7801 163.521 63.9055 165.24 64.6716C166.959 65.4378 168.822 65.827 170.704 65.8129C172.49 65.9106 174.273 65.5784 175.904 64.8441C177.534 64.1099 178.965 62.995 180.076 61.5932V64.9986H187.479V24.4893H180.076V39.473ZM164.056 50.5035C164.011 49.4116 164.191 48.3221 164.586 47.3032C164.981 46.2842 165.582 45.3575 166.351 44.5811C167.903 43.1183 169.955 42.3036 172.088 42.3036C174.221 42.3036 176.273 43.1183 177.825 44.5811C178.583 45.3638 179.173 46.2926 179.56 47.3108C179.947 48.329 180.122 49.4152 180.076 50.5035C180.122 51.5916 179.946 52.6777 179.559 53.6957C179.172 54.7138 178.582 55.6426 177.825 56.4259C176.273 57.8887 174.221 58.7034 172.088 58.7034C169.955 58.7034 167.903 57.8887 166.351 56.4259C165.582 55.6494 164.981 54.7228 164.586 53.7038C164.191 52.6848 164.011 51.5954 164.056 50.5035Z" fill="white"/>
<path d="M225.471 40.7905C228.052 41.5056 230.362 42.9749 232.104 45.0103C233.821 47.0371 234.732 49.6245 234.665 52.28C234.757 54.1111 234.43 55.9391 233.709 57.6247C232.988 59.3104 231.892 60.8094 230.505 62.0076C227.637 64.3773 224.007 65.6244 220.288 65.5166C217.337 65.5635 214.428 64.8169 211.864 63.3549C209.393 61.9213 207.494 59.6772 206.489 57.0031L213.211 53.0944C214.218 56.2036 216.543 57.7435 220.229 57.7435C221.965 57.8601 223.684 57.333 225.056 56.2628C225.591 55.7464 226.016 55.1276 226.306 54.4434C226.597 53.7591 226.746 53.0234 226.746 52.28C226.746 51.5367 226.597 50.801 226.306 50.1167C226.016 49.4324 225.591 48.8136 225.056 48.2972C223.707 47.2383 222.015 46.7114 220.303 46.8166H218.586L215.536 42.2267L223.472 31.8625H207.689V24.4595H232.992V31.0185L225.471 40.7905Z" fill="#00ACB4"/>
<path d="M251.619 37.5036C255.416 37.4619 259.077 38.9197 261.806 41.5604C263.108 42.8545 264.128 44.4036 264.803 46.1107C265.479 47.8178 265.794 49.6459 265.729 51.4805C265.791 53.3557 265.46 55.2231 264.756 56.9623C264.052 58.7015 262.992 60.2739 261.643 61.5782C258.725 64.1076 254.992 65.5 251.131 65.5C247.269 65.5 243.536 64.1076 240.618 61.5782C239.273 60.2663 238.218 58.6876 237.519 56.9435C236.82 55.1994 236.494 53.3285 236.561 51.4509C236.504 48.5679 237.331 45.7365 238.93 43.3372L251.456 24.415H260.592L251.619 37.5036ZM246.348 56.2628C246.986 56.8602 247.736 57.3259 248.554 57.6333C249.372 57.9407 250.242 58.0838 251.116 58.0544C252.889 58.1135 254.613 57.4696 255.913 56.2628C256.561 55.6551 257.07 54.9143 257.405 54.0914C257.739 53.2684 257.892 52.3828 257.852 51.4953C257.887 50.6171 257.732 49.7417 257.397 48.9291C257.063 48.1164 256.556 47.3857 255.913 46.787C254.583 45.6416 252.886 45.0116 251.131 45.0116C249.375 45.0116 247.678 45.6416 246.348 46.787C245.708 47.3929 245.206 48.1298 244.876 48.9475C244.546 49.7651 244.397 50.6443 244.438 51.5249C244.401 52.4051 244.552 53.2831 244.882 54.1001C245.211 54.9172 245.711 55.6545 246.348 56.2628Z" fill="#00ACB4"/>
<path d="M283.895 65.5168C281.602 65.6101 279.321 65.136 277.255 64.1365C275.189 63.1369 273.401 61.6429 272.051 59.7869C269.198 55.9867 267.767 50.9181 267.757 44.5811C267.747 38.2441 269.178 33.1755 272.051 29.3753C273.461 27.5829 275.26 26.134 277.312 25.1377C279.364 24.1414 281.615 23.6238 283.895 23.6238C286.176 23.6238 288.427 24.1414 290.479 25.1377C292.531 26.134 294.33 27.5829 295.74 29.3753C298.583 33.1854 300.004 38.254 300.004 44.5811C300.004 50.9082 298.583 55.9768 295.74 59.7869C294.392 61.6448 292.604 63.1403 290.538 64.14C288.471 65.1398 286.189 65.6128 283.895 65.5168V65.5168ZM277.795 54.3827C278.407 55.4477 279.299 56.3244 280.375 56.917C281.451 57.5097 282.668 57.7956 283.895 57.7437C285.129 57.79 286.352 57.4987 287.432 56.9012C288.512 56.3037 289.409 55.4226 290.025 54.3531C291.59 51.3437 292.311 47.9671 292.113 44.5811C292.316 41.1758 291.595 37.7789 290.025 34.7499C289.409 33.6803 288.512 32.7993 287.432 32.2018C286.352 31.6043 285.129 31.313 283.895 31.3593C282.665 31.3102 281.446 31.6006 280.37 32.1987C279.294 32.7967 278.403 33.6794 277.795 34.7499C276.239 37.783 275.523 41.1777 275.723 44.5811C275.519 47.9753 276.235 51.3616 277.795 54.3827V54.3827Z" fill="#00ACB4"/>
</svg>
