<svg viewBox="0 0 1920 2394" fill="none" xmlns="http://www.w3.org/2000/svg">
<g clip-path="url(#clip0_1084_141)">
<g filter="url(#filter0_f_1084_141)">
<ellipse cx="-6" cy="644.5" rx="689" ry="709.5" fill="url(#paint0_linear_1084_141)"/>
</g>
<g filter="url(#filter1_f_1084_141)">
<ellipse cx="832.185" cy="-64.9147" rx="689" ry="709.5" transform="rotate(-178.347 832.185 -64.9147)" fill="url(#paint1_linear_1084_141)"/>
</g>
<g filter="url(#filter2_f_1084_141)">
<ellipse cx="1895.84" cy="644.903" rx="689" ry="709.5" transform="rotate(-46.8528 1895.84 644.903)" fill="url(#paint2_linear_1084_141)"/>
</g>
<g filter="url(#filter3_f_1084_141)">
<ellipse cx="788.84" cy="866.488" rx="470.655" ry="500.236" transform="rotate(-46.8528 788.84 866.488)" fill="url(#paint3_linear_1084_141)"/>
</g>
<g filter="url(#filter4_f_1084_141)">
<ellipse cx="272.84" cy="1632.49" rx="470.655" ry="500.236" transform="rotate(-46.8528 272.84 1632.49)" fill="url(#paint4_linear_1084_141)"/>
</g>
<g filter="url(#filter5_f_1084_141)">
<path d="M1221.1 791.742C1164.36 865.643 1122.3 949.673 1097.34 1039.04C1072.38 1128.4 1065 1221.34 1075.62 1312.56C1086.24 1403.78 1114.66 1491.49 1159.24 1570.68C1203.83 1649.88 1263.72 1719 1335.48 1774.1C1407.25 1829.21 1489.49 1869.21 1577.5 1891.84C1665.52 1914.47 1757.59 1919.28 1848.46 1905.99C1939.33 1892.7 2027.22 1861.57 2107.11 1814.39C2187 1767.2 2257.32 1704.87 2314.07 1630.97L1767.58 1211.36L1221.1 791.742Z" fill="url(#paint5_linear_1084_141)"/>
</g>
<g filter="url(#filter6_f_1084_141)">
<path d="M-48.8991 1631.74C-105.643 1705.64 -147.697 1789.67 -172.658 1879.04C-197.62 1968.4 -205.001 2061.34 -194.38 2152.56C-183.758 2243.78 -155.343 2331.49 -110.755 2410.68C-66.1683 2489.88 -6.28247 2559 65.4827 2614.1C137.248 2669.21 219.487 2709.21 307.504 2731.84C395.522 2754.47 487.594 2759.28 578.464 2745.99C669.334 2732.7 757.222 2701.57 837.11 2654.39C916.998 2607.2 987.322 2544.87 1044.07 2470.97L497.584 2051.36L-48.8991 1631.74Z" fill="url(#paint6_linear_1084_141)"/>
</g>
<g filter="url(#filter7_f_1084_141)">
<path d="M1091.24 2862.78C1174.66 2904.28 1265.2 2929.41 1357.69 2936.75C1450.19 2944.09 1542.82 2933.49 1630.3 2905.55C1717.79 2877.61 1798.41 2832.88 1867.56 2773.92C1936.72 2714.96 1993.06 2642.91 2033.36 2561.9C2073.66 2480.89 2097.13 2392.5 2102.44 2301.78C2107.75 2211.05 2094.79 2119.77 2064.29 2033.14C2033.8 1946.51 1986.38 1866.24 1924.73 1796.9C1863.08 1727.56 1788.42 1670.51 1705 1629.01L1398.12 2245.89L1091.24 2862.78Z" fill="url(#paint7_linear_1084_141)"/>
</g>
<g filter="url(#filter8_f_1084_141)">
<path d="M-673.33 1546.86C-605.611 1610.85 -526.315 1661.27 -439.968 1695.22C-353.622 1729.18 -261.917 1746.01 -170.089 1744.77C-78.2605 1743.52 11.8923 1724.21 95.2224 1687.94C178.553 1651.67 253.428 1599.16 315.574 1533.4C377.72 1467.63 425.919 1389.91 457.419 1304.67C488.919 1219.42 503.104 1128.32 499.164 1036.57C495.223 944.816 473.234 854.208 434.452 769.918C395.67 685.629 340.855 609.308 273.136 545.313L-200.097 1046.08L-673.33 1546.86Z" fill="url(#paint8_linear_1084_141)"/>
</g>
<g filter="url(#filter9_f_1084_141)">
<path d="M1720.42 1424.09C1721.14 1330.92 1704.03 1238.52 1670.07 1152.18C1636.1 1065.83 1585.96 987.23 1522.49 920.857C1459.02 854.483 1383.47 801.638 1300.15 765.34C1216.83 729.042 1127.38 710.001 1036.9 709.304C946.426 708.608 856.692 726.269 772.827 761.28C688.962 796.291 612.607 847.967 548.122 913.355C483.637 978.744 432.285 1056.57 396.998 1142.38C361.711 1228.19 343.179 1320.31 342.462 1413.48L1031.44 1418.78L1720.42 1424.09Z" fill="url(#paint9_linear_1084_141)"/>
</g>
<g filter="url(#filter10_f_1084_141)">
<ellipse cx="832.045" cy="1611.28" rx="689" ry="709.5" transform="rotate(-145.394 832.045 1611.28)" fill="url(#paint10_linear_1084_141)"/>
</g>
<g filter="url(#filter11_f_1084_141)">
<path d="M1434.74 1202.49C1423.67 1070.29 1363.65 947.625 1267.88 861.498C1172.1 775.37 1048.41 732.83 924.016 743.236C799.626 753.642 684.723 816.142 604.586 916.986C524.449 1017.83 485.642 1148.76 496.702 1280.97L965.719 1241.73L1434.74 1202.49Z" fill="url(#paint11_linear_1084_141)"/>
</g>
<g filter="url(#filter12_f_1084_141)">
<path d="M543.943 1877.5C543.688 1970.67 561.257 2062.98 595.646 2149.15C630.036 2235.33 680.573 2313.68 744.372 2379.74C808.171 2445.8 883.982 2498.27 967.477 2534.15C1050.97 2570.04 1140.52 2588.63 1231 2588.88C1321.48 2589.13 1411.12 2571.02 1494.81 2535.6C1578.5 2500.17 1654.6 2448.12 1718.76 2382.41C1782.92 2316.7 1833.89 2238.63 1868.75 2152.64C1903.61 2066.66 1921.68 1974.44 1921.94 1881.27L1232.94 1879.38L543.943 1877.5Z" fill="url(#paint12_linear_1084_141)"/>
</g>
<g filter="url(#filter13_f_1084_141)">
<path d="M-39.8536 2220.86C-47.8834 2313.69 -38.0795 2407.14 -11.0014 2495.88C16.0766 2584.63 59.8985 2666.93 117.962 2738.08C176.026 2809.23 247.194 2867.84 327.403 2910.57C407.613 2953.3 495.292 2979.3 585.437 2987.1C675.581 2994.9 766.424 2984.34 852.779 2956.02C939.134 2927.7 1019.31 2882.18 1088.73 2822.05C1158.15 2761.93 1215.45 2688.38 1257.37 2605.6C1299.28 2522.83 1324.99 2432.45 1333.02 2339.62L646.583 2280.24L-39.8536 2220.86Z" fill="url(#paint13_linear_1084_141)"/>
</g>
<path d="M68.2 1160H65.5V1165.5H60V1168.1H65.5V1173.6H68.2V1168.1H73.7V1165.5H68.2V1160Z" fill="#144E52"/>
<path d="M1776.2 318H1773.5V323.5H1768V326.1H1773.5V331.6H1776.2V326.1H1781.7V323.5H1776.2V318Z" fill="#144E52"/>
<path d="M124.5 1160H121.9V1165.5H116.4V1168.1H121.9V1173.6H124.5V1168.1H130V1165.5H124.5V1160Z" fill="#144E52"/>
<path d="M1832.5 318H1829.9V323.5H1824.4V326.1H1829.9V331.6H1832.5V326.1H1838V323.5H1832.5V318Z" fill="#144E52"/>
<path d="M180.9 1160H178.2V1165.5H172.7V1168.1H178.2V1173.6H180.9V1168.1H186.4V1165.5H180.9V1160Z" fill="#144E52"/>
<path d="M1888.9 318H1886.2V323.5H1880.7V326.1H1886.2V331.6H1888.9V326.1H1894.4V323.5H1888.9V318Z" fill="#144E52"/>
<path d="M68.2 1214.6H65.5V1220.1H60V1222.7H65.5V1228.2H68.2V1222.7H73.7V1220.1H68.2V1214.6Z" fill="#144E52"/>
<path d="M1776.2 372.6H1773.5V378.1H1768V380.7H1773.5V386.2H1776.2V380.7H1781.7V378.1H1776.2V372.6Z" fill="#144E52"/>
<path d="M124.5 1214.6H121.9V1220.1H116.4V1222.7H121.9V1228.2H124.5V1222.7H130V1220.1H124.5V1214.6Z" fill="#144E52"/>
<path d="M1832.5 372.6H1829.9V378.1H1824.4V380.7H1829.9V386.2H1832.5V380.7H1838V378.1H1832.5V372.6Z" fill="#144E52"/>
<path d="M180.9 1214.6H178.2V1220.1H172.7V1222.7H178.2V1228.2H180.9V1222.7H186.4V1220.1H180.9V1214.6Z" fill="#144E52"/>
<path d="M1888.9 372.6H1886.2V378.1H1880.7V380.7H1886.2V386.2H1888.9V380.7H1894.4V378.1H1888.9V372.6Z" fill="#144E52"/>
<path d="M68.2 1269.1H65.5V1274.6H60V1277.3H65.5V1282.8H68.2V1277.3H73.7V1274.6H68.2V1269.1Z" fill="#144E52"/>
<path d="M1776.2 427.1H1773.5V432.6H1768V435.3H1773.5V440.8H1776.2V435.3H1781.7V432.6H1776.2V427.1Z" fill="#144E52"/>
<path d="M124.5 1269.1H121.9V1274.6H116.4V1277.3H121.9V1282.8H124.5V1277.3H130V1274.6H124.5V1269.1Z" fill="#144E52"/>
<path d="M1832.5 427.1H1829.9V432.6H1824.4V435.3H1829.9V440.8H1832.5V435.3H1838V432.6H1832.5V427.1Z" fill="#144E52"/>
<path d="M180.9 1269.1H178.2V1274.6H172.7V1277.3H178.2V1282.8H180.9V1277.3H186.4V1274.6H180.9V1269.1Z" fill="#144E52"/>
<path d="M1888.9 427.1H1886.2V432.6H1880.7V435.3H1886.2V440.8H1888.9V435.3H1894.4V432.6H1888.9V427.1Z" fill="#144E52"/>
<path d="M68.2 1323.7H65.5V1329.2H60V1331.8H65.5V1337.3H68.2V1331.8H73.7V1329.2H68.2V1323.7Z" fill="#144E52"/>
<path d="M1776.2 481.7H1773.5V487.2H1768V489.8H1773.5V495.3H1776.2V489.8H1781.7V487.2H1776.2V481.7Z" fill="#144E52"/>
<path d="M124.5 1323.7H121.9V1329.2H116.4V1331.8H121.9V1337.3H124.5V1331.8H130V1329.2H124.5V1323.7Z" fill="#144E52"/>
<path d="M1832.5 481.7H1829.9V487.2H1824.4V489.8H1829.9V495.3H1832.5V489.8H1838V487.2H1832.5V481.7Z" fill="#144E52"/>
<path d="M180.9 1323.7H178.2V1329.2H172.7V1331.8H178.2V1337.3H180.9V1331.8H186.4V1329.2H180.9V1323.7Z" fill="#144E52"/>
<path d="M1888.9 481.7H1886.2V487.2H1880.7V489.8H1886.2V495.3H1888.9V489.8H1894.4V487.2H1888.9V481.7Z" fill="#144E52"/>
<path d="M68.2 1378.3H65.5V1383.8H60V1386.4H65.5V1391.9H68.2V1386.4H73.7V1383.8H68.2V1378.3Z" fill="#144E52"/>
<path d="M1776.2 536.3H1773.5V541.8H1768V544.4H1773.5V549.9H1776.2V544.4H1781.7V541.8H1776.2V536.3Z" fill="#144E52"/>
<path d="M124.5 1378.3H121.9V1383.8H116.4V1386.4H121.9V1391.9H124.5V1386.4H130V1383.8H124.5V1378.3Z" fill="#144E52"/>
<path d="M1832.5 536.3H1829.9V541.8H1824.4V544.4H1829.9V549.9H1832.5V544.4H1838V541.8H1832.5V536.3Z" fill="#144E52"/>
<path d="M180.9 1378.3H178.2V1383.8H172.7V1386.4H178.2V1391.9H180.9V1386.4H186.4V1383.8H180.9V1378.3Z" fill="#144E52"/>
<path d="M1888.9 536.3H1886.2V541.8H1880.7V544.4H1886.2V549.9H1888.9V544.4H1894.4V541.8H1888.9V536.3Z" fill="#144E52"/>
<path d="M68.2 1433.1H65.5V1438.6H60V1441.3H65.5V1446.8H68.2V1441.3H73.7V1438.6H68.2V1433.1Z" fill="#144E52"/>
<path d="M1776.2 591.1H1773.5V596.6H1768V599.3H1773.5V604.8H1776.2V599.3H1781.7V596.6H1776.2V591.1Z" fill="#144E52"/>
<path d="M68.2 1487.7H65.5V1493.2H60V1495.8H65.5V1501.3H68.2V1495.8H73.7V1493.2H68.2V1487.7Z" fill="#144E52"/>
<path d="M1776.2 645.7H1773.5V651.2H1768V653.8H1773.5V659.3H1776.2V653.8H1781.7V651.2H1776.2V645.7Z" fill="#144E52"/>
<path d="M124.5 1433.1H121.9V1438.6H116.4V1441.3H121.9V1446.8H124.5V1441.3H130V1438.6H124.5V1433.1Z" fill="#144E52"/>
<path d="M1832.5 591.1H1829.9V596.6H1824.4V599.3H1829.9V604.8H1832.5V599.3H1838V596.6H1832.5V591.1Z" fill="#144E52"/>
<path d="M124.5 1487.7H121.9V1493.2H116.4V1495.8H121.9V1501.3H124.5V1495.8H130V1493.2H124.5V1487.7Z" fill="#144E52"/>
<path d="M1832.5 645.7H1829.9V651.2H1824.4V653.8H1829.9V659.3H1832.5V653.8H1838V651.2H1832.5V645.7Z" fill="#144E52"/>
<path d="M180.9 1433.1H178.2V1438.6H172.7V1441.3H178.2V1446.8H180.9V1441.3H186.4V1438.6H180.9V1433.1Z" fill="#144E52"/>
<path d="M1888.9 591.1H1886.2V596.6H1880.7V599.3H1886.2V604.8H1888.9V599.3H1894.4V596.6H1888.9V591.1Z" fill="#144E52"/>
<path d="M180.9 1487.7H178.2V1493.2H172.7V1495.8H178.2V1501.3H180.9V1495.8H186.4V1493.2H180.9V1487.7Z" fill="#144E52"/>
<path d="M1888.9 645.7H1886.2V651.2H1880.7V653.8H1886.2V659.3H1888.9V653.8H1894.4V651.2H1888.9V645.7Z" fill="#144E52"/>
<path d="M68.2 1542.3H65.5V1547.8H60V1550.4H65.5V1555.9H68.2V1550.4H73.7V1547.8H68.2V1542.3Z" fill="#144E52"/>
<path d="M1776.2 700.3H1773.5V705.8H1768V708.4H1773.5V713.9H1776.2V708.4H1781.7V705.8H1776.2V700.3Z" fill="#144E52"/>
<path d="M124.5 1542.3H121.9V1547.8H116.4V1550.4H121.9V1555.9H124.5V1550.4H130V1547.8H124.5V1542.3Z" fill="#144E52"/>
<path d="M1832.5 700.3H1829.9V705.8H1824.4V708.4H1829.9V713.9H1832.5V708.4H1838V705.8H1832.5V700.3Z" fill="#144E52"/>
<path d="M180.9 1542.3H178.2V1547.8H172.7V1550.4H178.2V1555.9H180.9V1550.4H186.4V1547.8H180.9V1542.3Z" fill="#144E52"/>
<path d="M1888.9 700.3H1886.2V705.8H1880.7V708.4H1886.2V713.9H1888.9V708.4H1894.4V705.8H1888.9V700.3Z" fill="#144E52"/>
<path d="M68.2 1596.8H65.5V1602.3H60V1605H65.5V1610.5H68.2V1605H73.7V1602.3H68.2V1596.8Z" fill="#144E52"/>
<path d="M1776.2 754.8H1773.5V760.3H1768V763H1773.5V768.5H1776.2V763H1781.7V760.3H1776.2V754.8Z" fill="#144E52"/>
<path d="M124.5 1596.8H121.9V1602.3H116.4V1605H121.9V1610.5H124.5V1605H130V1602.3H124.5V1596.8Z" fill="#144E52"/>
<path d="M1832.5 754.8H1829.9V760.3H1824.4V763H1829.9V768.5H1832.5V763H1838V760.3H1832.5V754.8Z" fill="#144E52"/>
<path d="M180.9 1596.8H178.2V1602.3H172.7V1605H178.2V1610.5H180.9V1605H186.4V1602.3H180.9V1596.8Z" fill="#144E52"/>
<path d="M1888.9 754.8H1886.2V760.3H1880.7V763H1886.2V768.5H1888.9V763H1894.4V760.3H1888.9V754.8Z" fill="#144E52"/>
</g>
<defs>
<filter id="filter0_f_1084_141" x="-945" y="-315" width="1878" height="1919" filterUnits="userSpaceOnUse" color-interpolation-filters="sRGB">
<feFlood flood-opacity="0" result="BackgroundImageFix"/>
<feBlend mode="normal" in="SourceGraphic" in2="BackgroundImageFix" result="shape"/>
<feGaussianBlur stdDeviation="125" result="effect1_foregroundBlur_1084_141"/>
</filter>
<filter id="filter1_f_1084_141" x="-106.838" y="-1024.4" width="1878.05" height="1918.98" filterUnits="userSpaceOnUse" color-interpolation-filters="sRGB">
<feFlood flood-opacity="0" result="BackgroundImageFix"/>
<feBlend mode="normal" in="SourceGraphic" in2="BackgroundImageFix" result="shape"/>
<feGaussianBlur stdDeviation="125" result="effect1_foregroundBlur_1084_141"/>
</filter>
<filter id="filter2_f_1084_141" x="945.849" y="-303.76" width="1899.98" height="1897.33" filterUnits="userSpaceOnUse" color-interpolation-filters="sRGB">
<feFlood flood-opacity="0" result="BackgroundImageFix"/>
<feBlend mode="normal" in="SourceGraphic" in2="BackgroundImageFix" result="shape"/>
<feGaussianBlur stdDeviation="125" result="effect1_foregroundBlur_1084_141"/>
</filter>
<filter id="filter3_f_1084_141" x="52.2095" y="131.774" width="1473.26" height="1469.43" filterUnits="userSpaceOnUse" color-interpolation-filters="sRGB">
<feFlood flood-opacity="0" result="BackgroundImageFix"/>
<feBlend mode="normal" in="SourceGraphic" in2="BackgroundImageFix" result="shape"/>
<feGaussianBlur stdDeviation="125" result="effect1_foregroundBlur_1084_141"/>
</filter>
<filter id="filter4_f_1084_141" x="-463.79" y="897.774" width="1473.26" height="1469.43" filterUnits="userSpaceOnUse" color-interpolation-filters="sRGB">
<feFlood flood-opacity="0" result="BackgroundImageFix"/>
<feBlend mode="normal" in="SourceGraphic" in2="BackgroundImageFix" result="shape"/>
<feGaussianBlur stdDeviation="125" result="effect1_foregroundBlur_1084_141"/>
</filter>
<filter id="filter5_f_1084_141" x="820.91" y="541.742" width="1743.16" height="1621.58" filterUnits="userSpaceOnUse" color-interpolation-filters="sRGB">
<feFlood flood-opacity="0" result="BackgroundImageFix"/>
<feBlend mode="normal" in="SourceGraphic" in2="BackgroundImageFix" result="shape"/>
<feGaussianBlur stdDeviation="125" result="effect1_foregroundBlur_1084_141"/>
</filter>
<filter id="filter6_f_1084_141" x="-449.09" y="1381.74" width="1743.16" height="1621.58" filterUnits="userSpaceOnUse" color-interpolation-filters="sRGB">
<feFlood flood-opacity="0" result="BackgroundImageFix"/>
<feBlend mode="normal" in="SourceGraphic" in2="BackgroundImageFix" result="shape"/>
<feGaussianBlur stdDeviation="125" result="effect1_foregroundBlur_1084_141"/>
</filter>
<filter id="filter7_f_1084_141" x="841.24" y="1379.01" width="1512.36" height="1810" filterUnits="userSpaceOnUse" color-interpolation-filters="sRGB">
<feFlood flood-opacity="0" result="BackgroundImageFix"/>
<feBlend mode="normal" in="SourceGraphic" in2="BackgroundImageFix" result="shape"/>
<feGaussianBlur stdDeviation="125" result="effect1_foregroundBlur_1084_141"/>
</filter>
<filter id="filter8_f_1084_141" x="-923.33" y="295.313" width="1673.14" height="1699.52" filterUnits="userSpaceOnUse" color-interpolation-filters="sRGB">
<feFlood flood-opacity="0" result="BackgroundImageFix"/>
<feBlend mode="normal" in="SourceGraphic" in2="BackgroundImageFix" result="shape"/>
<feGaussianBlur stdDeviation="125" result="effect1_foregroundBlur_1084_141"/>
</filter>
<filter id="filter9_f_1084_141" x="92.4624" y="459.284" width="1877.98" height="1214.8" filterUnits="userSpaceOnUse" color-interpolation-filters="sRGB">
<feFlood flood-opacity="0" result="BackgroundImageFix"/>
<feBlend mode="normal" in="SourceGraphic" in2="BackgroundImageFix" result="shape"/>
<feGaussianBlur stdDeviation="125" result="effect1_foregroundBlur_1084_141"/>
</filter>
<filter id="filter10_f_1084_141" x="-113.688" y="658.249" width="1891.47" height="1906.05" filterUnits="userSpaceOnUse" color-interpolation-filters="sRGB">
<feFlood flood-opacity="0" result="BackgroundImageFix"/>
<feBlend mode="normal" in="SourceGraphic" in2="BackgroundImageFix" result="shape"/>
<feGaussianBlur stdDeviation="125" result="effect1_foregroundBlur_1084_141"/>
</filter>
<filter id="filter11_f_1084_141" x="244.851" y="491.693" width="1439.88" height="1039.27" filterUnits="userSpaceOnUse" color-interpolation-filters="sRGB">
<feFlood flood-opacity="0" result="BackgroundImageFix"/>
<feBlend mode="normal" in="SourceGraphic" in2="BackgroundImageFix" result="shape"/>
<feGaussianBlur stdDeviation="125" result="effect1_foregroundBlur_1084_141"/>
</filter>
<filter id="filter12_f_1084_141" x="293.94" y="1627.5" width="1878" height="1211.39" filterUnits="userSpaceOnUse" color-interpolation-filters="sRGB">
<feFlood flood-opacity="0" result="BackgroundImageFix"/>
<feBlend mode="normal" in="SourceGraphic" in2="BackgroundImageFix" result="shape"/>
<feGaussianBlur stdDeviation="125" result="effect1_foregroundBlur_1084_141"/>
</filter>
<filter id="filter13_f_1084_141" x="-292.572" y="1970.86" width="1875.59" height="1268.73" filterUnits="userSpaceOnUse" color-interpolation-filters="sRGB">
<feFlood flood-opacity="0" result="BackgroundImageFix"/>
<feBlend mode="normal" in="SourceGraphic" in2="BackgroundImageFix" result="shape"/>
<feGaussianBlur stdDeviation="125" result="effect1_foregroundBlur_1084_141"/>
</filter>
<linearGradient id="paint0_linear_1084_141" x1="-6" y1="-65" x2="-6" y2="1354" gradientUnits="userSpaceOnUse">
<stop stop-color="#2BABB3"/>
<stop offset="1" stop-color="white"/>
</linearGradient>
<linearGradient id="paint1_linear_1084_141" x1="832.185" y1="-774.415" x2="832.185" y2="644.585" gradientUnits="userSpaceOnUse">
<stop stop-color="#26999D"/>
<stop offset="1" stop-color="white"/>
</linearGradient>
<linearGradient id="paint2_linear_1084_141" x1="1895.84" y1="-64.5969" x2="1895.84" y2="1354.4" gradientUnits="userSpaceOnUse">
<stop stop-color="#34AD9F"/>
<stop offset="1" stop-color="white"/>
</linearGradient>
<linearGradient id="paint3_linear_1084_141" x1="788.84" y1="366.252" x2="788.84" y2="1366.72" gradientUnits="userSpaceOnUse">
<stop stop-color="#34AD9F"/>
<stop offset="1" stop-color="white"/>
</linearGradient>
<linearGradient id="paint4_linear_1084_141" x1="272.84" y1="1132.25" x2="272.84" y2="2132.72" gradientUnits="userSpaceOnUse">
<stop stop-color="#34AD9F"/>
<stop offset="1" stop-color="white"/>
</linearGradient>
<linearGradient id="paint5_linear_1084_141" x1="1335.48" y1="1774.1" x2="2199.68" y2="648.616" gradientUnits="userSpaceOnUse">
<stop stop-color="#26999D"/>
<stop offset="1" stop-color="white"/>
</linearGradient>
<linearGradient id="paint6_linear_1084_141" x1="65.4826" y1="2614.1" x2="929.685" y2="1488.62" gradientUnits="userSpaceOnUse">
<stop stop-color="#26999D"/>
<stop offset="1" stop-color="white"/>
</linearGradient>
<linearGradient id="paint7_linear_1084_141" x1="2033.36" y1="2561.9" x2="762.878" y2="1929.88" gradientUnits="userSpaceOnUse">
<stop stop-color="#26999D"/>
<stop offset="1" stop-color="white"/>
</linearGradient>
<linearGradient id="paint8_linear_1084_141" x1="315.574" y1="1533.4" x2="-715.767" y2="558.771" gradientUnits="userSpaceOnUse">
<stop stop-color="#26999D"/>
<stop offset="1" stop-color="white"/>
</linearGradient>
<linearGradient id="paint9_linear_1084_141" x1="1036.9" y1="709.304" x2="1025.98" y2="2128.26" gradientUnits="userSpaceOnUse">
<stop stop-color="#26999D"/>
<stop offset="1" stop-color="white"/>
</linearGradient>
<linearGradient id="paint10_linear_1084_141" x1="832.045" y1="901.776" x2="832.045" y2="2320.78" gradientUnits="userSpaceOnUse">
<stop stop-color="#34AD9F"/>
<stop offset="1" stop-color="white"/>
</linearGradient>
<linearGradient id="paint11_linear_1084_141" x1="924.016" y1="743.236" x2="1007.42" y2="1740.22" gradientUnits="userSpaceOnUse">
<stop stop-color="#34AD9F"/>
<stop offset="1" stop-color="white"/>
</linearGradient>
<linearGradient id="paint12_linear_1084_141" x1="1231" y1="2588.88" x2="1234.88" y2="1169.89" gradientUnits="userSpaceOnUse">
<stop stop-color="#26999D"/>
<stop offset="1" stop-color="white"/>
</linearGradient>
<linearGradient id="paint13_linear_1084_141" x1="585.437" y1="2987.1" x2="707.729" y2="1573.38" gradientUnits="userSpaceOnUse">
<stop stop-color="#26999D"/>
<stop offset="1" stop-color="white"/>
</linearGradient>
<clipPath id="clip0_1084_141">
<rect width="1920" height="2394" fill="white"/>
</clipPath>
</defs>
</svg>
