<svg width="1697" height="368" viewBox="0 0 1697 368" fill="none" xmlns="http://www.w3.org/2000/svg">
<path d="M101.161 14H1.05078V114.11H101.161V14Z" fill="#231F20"/>
<path d="M45.5505 81.52C45.3609 81.3597 45.1486 81.2283 44.9205 81.13H44.8305C44.3997 80.9809 43.9465 80.9065 43.4905 80.91C43.0844 80.9137 42.6795 80.9538 42.2805 81.03L41.4605 81.21C41.0005 81.3 40.3505 81.4 39.5605 81.5V90.73C39.5605 91.38 41.6205 91.17 41.6205 91.17V82.85L42.8105 82.63C42.9486 82.5962 43.089 82.5728 43.2305 82.56C43.6699 82.5257 44.1107 82.6049 44.5105 82.79C44.8837 82.9861 45.2217 83.243 45.5105 83.55L45.5505 81.52Z" fill="white"/>
<path d="M62.6505 88.16C62.6505 88.04 62.5805 88.16 62.5205 88.16C62.4605 88.16 62.4505 88.24 62.2205 88.45C61.9905 88.66 62.0205 88.63 61.7105 88.88L61.4605 89.04C60.7517 89.4662 59.9374 89.6845 59.1105 89.67C57.4705 89.67 56.8005 89.02 56.8005 87.74V86.72C57.4255 87.0132 58.1102 87.157 58.8005 87.14C61.8005 87.14 62.8005 85.71 62.8005 84.08C62.8005 82.22 61.4605 80.99 58.8005 80.99C56.1405 80.99 54.7305 82.22 54.7305 84.28V88.11C54.7305 90.11 56.3705 91.39 59.0905 91.39C59.865 91.4053 60.6354 91.273 61.3605 91L61.7705 90.82C62.1122 90.6823 62.417 90.4666 62.6605 90.19L62.6505 88.16ZM56.8105 84.63C56.8105 83.35 57.2305 82.63 58.8105 82.63C60.3905 82.63 60.8105 83.25 60.8105 84.15C60.8105 85.05 60.2405 85.55 58.5905 85.55C58.0007 85.5332 57.4157 85.4391 56.8505 85.27L56.8105 84.63Z" fill="white"/>
<path d="M66.2504 84.0101C66.2504 83.0101 66.8204 82.6101 68.3704 82.6101C68.9831 82.5956 69.5932 82.6939 70.1704 82.9001L70.7504 83.1701L71.3304 83.5501C71.4304 83.6201 71.7204 83.8601 71.8304 83.9501C71.9404 84.0401 71.8304 83.9501 71.8304 83.8501V82.0801C71.8304 81.9401 71.2204 81.5201 70.9804 81.4001L70.8104 81.3301C69.9959 81.0242 69.1301 80.8782 68.2604 80.9001C65.5804 80.9001 64.1504 81.9801 64.1504 84.0701C64.1504 88.2701 70.4404 85.7201 70.4404 88.1701C70.4404 89.1701 69.5004 89.6801 68.2604 89.6801C67.409 89.7165 66.5643 89.5157 65.8204 89.1001C65.7852 89.0694 65.7445 89.0456 65.7004 89.0301C65.4421 88.8777 65.1948 88.7072 64.9604 88.5201C64.7104 88.3301 64.4904 88.1401 64.4904 88.1401C64.4904 88.1401 64.3304 88.0001 64.3304 88.1401V90.1401C64.6629 90.4725 65.0615 90.7314 65.5004 90.9001C66.3806 91.2358 67.3189 91.3922 68.2604 91.3601C71.1404 91.3601 72.5304 90.1701 72.5304 88.2901C72.5304 83.6301 66.2504 86.0701 66.2504 84.0101Z" fill="white"/>
<path d="M33.5801 80.92C32.701 80.8918 31.8267 81.0592 31.0201 81.41C30.6272 81.5694 30.265 81.7961 29.9501 82.08C29.9501 82.08 29.9501 82.0801 29.9501 82.1401V84.0001C29.9501 84.1001 29.9501 84.27 30.0201 84.16L30.2001 83.95C30.4731 83.6831 30.7674 83.439 31.0801 83.22L31.2901 83.1L31.4401 83.0001C32.1141 82.6699 32.8604 82.5151 33.6101 82.55C35.2701 82.55 35.6901 83.22 35.6901 84.08C35.1201 85.37 31.9401 85.02 30.4101 86.38C30.3777 86.4075 30.3476 86.4376 30.3201 86.47V86.47L30.2501 86.56C30.1914 86.6222 30.1379 86.6891 30.0901 86.76V86.76C30.0725 86.7915 30.0524 86.8216 30.0301 86.85C29.7824 87.2775 29.661 87.7664 29.6801 88.26C29.6589 88.7666 29.7801 89.269 30.0301 89.71V89.71C30.0301 89.71 30.0301 89.78 30.0301 89.81C30.0581 89.8399 30.0817 89.8736 30.1001 89.91V89.91C30.104 89.9229 30.1104 89.9348 30.119 89.9451C30.1276 89.9554 30.1382 89.9639 30.1501 89.97V89.97C30.5647 90.4127 31.0746 90.7552 31.6411 90.9718C32.2076 91.1883 32.816 91.2732 33.4201 91.22C34.2396 91.2436 35.0596 91.1934 35.8701 91.0701C36.5289 90.9331 37.1651 90.7042 37.7601 90.39V84.1801C37.7101 82.1201 36.2601 80.92 33.5801 80.92ZM35.7101 85.92V89.55C35.0368 89.7191 34.3443 89.7998 33.6501 89.7901C32.2401 89.7901 31.6501 89.2 31.6501 88.33C31.6501 86.45 34.7801 86.9101 35.6001 86.0701C35.6352 86.0416 35.6656 86.0079 35.6901 85.97V85.97L35.7101 85.92Z" fill="white"/>
<path d="M70.9024 98.0031C70.0233 97.9748 69.1489 98.1422 68.3424 98.4931C67.9494 98.6524 67.5873 98.8791 67.2724 99.1631C67.2724 99.1631 67.2724 99.1631 67.2724 99.2231V101.083C67.2724 101.183 67.2724 101.353 67.3424 101.243L67.5224 101.033C67.7953 100.766 68.0896 100.522 68.4024 100.303L68.6124 100.183L68.7624 100.083C69.4363 99.7529 70.1827 99.5981 70.9324 99.6331C72.5924 99.6331 73.0124 100.303 73.0124 101.163C72.4424 102.453 69.2624 102.103 67.7324 103.463C67.6999 103.49 67.6698 103.521 67.6424 103.553V103.553L67.5724 103.643C67.5137 103.705 67.4601 103.772 67.4124 103.843V103.843C67.3947 103.875 67.3747 103.905 67.3524 103.933C67.1046 104.36 66.9833 104.849 67.0024 105.343C66.9811 105.85 67.1024 106.352 67.3524 106.793V106.793C67.3524 106.793 67.3524 106.863 67.3524 106.893C67.3804 106.923 67.4039 106.957 67.4224 106.993V106.993C67.4263 107.006 67.4327 107.018 67.4413 107.028C67.4499 107.038 67.4605 107.047 67.4724 107.053V107.053C67.887 107.496 68.3969 107.838 68.9634 108.055C69.5299 108.271 70.1382 108.356 70.7424 108.303C71.5619 108.327 72.3819 108.276 73.1924 108.153C73.8511 108.016 74.4874 107.787 75.0824 107.473V101.263C75.0324 99.2031 73.5824 98.0031 70.9024 98.0031ZM73.0324 103.003V106.633C72.359 106.802 71.6666 106.883 70.9724 106.873C69.5624 106.873 68.9724 106.283 68.9724 105.413C68.9724 103.533 72.1024 103.993 72.9224 103.153C72.9574 103.125 72.9878 103.091 73.0124 103.053V103.053L73.0324 103.003Z" fill="white"/>
<path d="M52.7802 89.2301L52.4602 89.4401C52.044 89.6682 51.5747 89.782 51.1002 89.7701C49.6202 89.7701 49.3402 88.9501 49.3302 87.6301V83.0301H52.4602C52.5026 83.0333 52.5452 83.0271 52.5849 83.012C52.6247 82.9969 52.6606 82.9732 52.6902 82.9427C52.7197 82.9122 52.7422 82.8755 52.7561 82.8353C52.7699 82.7951 52.7747 82.7524 52.7702 82.7101V81.3901H49.3002V78.8901C49.3002 78.3901 47.2402 78.5201 47.2402 78.5201V88.1301C47.2402 90.2101 48.4802 91.4201 50.8202 91.4201C51.3907 91.4262 51.9583 91.3383 52.5002 91.1601V91.1601C52.7813 91.0437 53.0467 90.8925 53.2902 90.7101V88.7101C53.2902 88.7101 53.1602 88.8701 53.0802 88.9501L52.7802 89.2301Z" fill="white"/>
<path d="M49.6507 94.32V93.02C49.7107 93.02 51.7307 92.77 51.7307 93.49V107.56C51.0807 107.56 50.0107 107.9 49.5707 107.96C48.9137 108.101 48.2425 108.164 47.5707 108.15C44.8107 108.15 43.2607 106.94 43.2607 104.85V100.85C43.2607 98.85 44.9907 97.6 46.9807 97.6C47.9193 97.5515 48.8466 97.823 49.6107 98.37C49.6107 98.37 49.6107 98.37 49.6107 98.37C49.6107 98.37 49.6107 97.62 49.6107 97.26C49.6107 97.2 49.6107 97.13 49.6107 97.06L49.6507 94.32ZM49.6507 101C49.6507 100 48.4607 99.23 47.2807 99.23C47.0169 99.2059 46.7509 99.2421 46.5031 99.3358C46.2552 99.4295 46.0318 99.5782 45.8498 99.7708C45.6678 99.9634 45.5319 100.195 45.4524 100.448C45.3729 100.7 45.3518 100.968 45.3907 101.23V104.59C45.3907 105.92 45.9207 106.59 47.7707 106.59C48.4158 106.593 49.0551 106.468 49.6507 106.22V101Z" fill="white"/>
<path d="M53.9004 97.7899V107.52C53.9004 108.17 55.9704 108.02 55.9704 108.02V98.4499C55.9704 97.6299 54.4504 97.8199 53.9004 97.7899ZM54.4904 96.0299C55.0004 96.0299 55.9504 96.0899 55.9504 96.0899V94.6299C55.9504 94.3999 55.6004 94.1799 55.3704 94.1399C54.8823 94.0871 54.3912 94.0671 53.9004 94.0799V95.5599C53.9004 95.8199 54.2004 95.9999 54.4904 96.0299V96.0299Z" fill="white"/>
<path d="M31.4807 100.48C31.2907 98.5201 29.5507 97.6301 27.6507 97.6301C26.4545 97.5339 25.2622 97.8594 24.2807 98.5501C23.401 97.8923 22.3173 97.5665 21.2207 97.6301C20.2905 97.6328 19.3639 97.7469 18.4607 97.9701C17.9043 98.1095 17.3342 98.1866 16.7607 98.2001V107.55C16.7607 108.24 18.8407 108.01 18.8407 108.01V99.6301C19.5215 99.4061 20.2341 99.2946 20.9507 99.3001C22.5307 99.3001 23.1007 99.9501 23.1007 101.07V107.6C23.1007 108.27 25.1707 108.06 25.1707 108.06V100.68C25.2207 99.8101 26.3107 99.2401 27.4107 99.2401C28.5107 99.2401 29.4107 99.7901 29.4107 101.1V107.56C29.4107 108.26 31.4807 108.02 31.4807 108.02V100.74C31.4857 100.653 31.4857 100.567 31.4807 100.48V100.48Z" fill="white"/>
<path d="M40.0407 93.8501C40.2107 94.1801 40.2407 94.3001 40.3607 94.5301C40.8307 95.5301 40.4307 95.6001 38.7207 96.3501L36.8407 97.1401C36.8407 97.1401 36.1007 95.9401 36.4007 95.6401C36.8429 95.3662 37.312 95.1384 37.8007 94.9601C38.4424 94.7389 39.0618 94.4577 39.6507 94.1201C39.7707 94.0501 39.8907 93.9801 40.0007 93.9001C40.1107 93.8201 40.0307 93.8401 40.0407 93.8501Z" fill="white"/>
<path d="M41.4202 104.98C41.4202 104.87 41.3602 104.98 41.3002 104.98C41.2082 105.094 41.1043 105.198 40.9902 105.29C40.8202 105.44 40.7902 105.46 40.4702 105.71C40.4702 105.71 40.2402 105.86 40.2302 105.87C39.5183 106.298 38.7004 106.516 37.8702 106.5C36.2202 106.5 35.5502 105.85 35.5502 104.57V103.54C36.1761 103.83 36.8608 103.97 37.5502 103.95C40.5502 103.95 41.5502 102.51 41.5502 100.88C41.5502 99.01 40.2002 97.76 37.5502 97.76C34.9002 97.76 33.4502 99.01 33.4502 101.08V104.93C33.4502 106.99 35.1002 108.24 37.8402 108.24C38.6209 108.25 39.3969 108.118 40.1302 107.85C40.2722 107.799 40.4094 107.735 40.5402 107.66C40.8839 107.521 41.1892 107.302 41.4302 107.02L41.4202 104.98ZM35.5102 101.37C35.5102 100.09 35.9202 99.37 37.5102 99.37C39.1002 99.37 39.5102 100 39.5102 100.91C39.5102 101.82 38.9402 102.31 37.2802 102.31C36.6871 102.294 36.0987 102.2 35.5302 102.03L35.5102 101.37Z" fill="white"/>
<path d="M79.0104 100.81C79.0104 99.8101 79.5804 99.3801 81.1304 99.3801C81.7536 99.3686 82.3736 99.4702 82.9604 99.6801C83.1904 99.7801 83.5404 99.9601 83.5404 99.9601L84.1304 100.34C84.2204 100.41 84.5304 100.65 84.6204 100.74V98.8601C84.6204 98.7201 84.0104 98.2901 83.7604 98.1801L83.6504 98.1001C82.8313 97.7997 81.9626 97.6572 81.0904 97.6801C78.3804 97.6801 76.9404 98.7601 76.9404 100.87C76.9404 105.1 83.2804 102.53 83.2804 105C83.2804 106 82.2804 106.51 81.0904 106.51C80.2279 106.551 79.3715 106.346 78.6204 105.92L78.5004 105.86C78.24 105.706 77.9895 105.536 77.7504 105.35L77.2904 104.97C77.1504 104.82 77.1104 104.82 77.1104 104.97V106.97C77.4501 107.303 77.8553 107.562 78.3004 107.73C79.1887 108.075 80.1381 108.235 81.0904 108.2C83.9904 108.2 85.3904 106.99 85.3904 105.11C85.3404 100.43 79.0104 102.88 79.0104 100.81Z" fill="white"/>
<path d="M64.7502 105.73L64.6102 105.83H64.5302C63.8115 106.235 62.9944 106.432 62.1702 106.4V106.4C60.6302 106.34 59.9502 105.7 59.9502 104.4V101.4C59.9502 99.91 60.7702 99.4 62.3402 99.33C63.0341 99.3201 63.7203 99.4779 64.3402 99.79C64.7924 100.059 65.2005 100.397 65.5502 100.79C65.6902 100.94 65.7302 101.03 65.7202 100.79V98.79C65.4389 98.4925 65.0982 98.2574 64.7202 98.1L64.5802 98.04C63.8028 97.755 62.9777 97.6226 62.1502 97.65C59.5102 97.65 57.9102 98.9 57.9102 100.97V104.81C57.9102 106.9 59.5802 108.13 62.2402 108.13H62.3002C63.0502 108.134 63.795 108.005 64.5002 107.75L64.9002 107.57C64.9002 107.57 65.0402 107.51 65.2002 107.41C65.4332 107.283 65.6375 107.11 65.8002 106.9V105.23C65.8002 105.1 65.8002 104.76 65.8002 104.82C65.5059 105.182 65.1506 105.49 64.7502 105.73Z" fill="white"/>
<path d="M30.65 34.3699C30.6474 31.6195 31.2055 28.8975 32.29 26.3699L11.86 18.4399L1 46.4399V72.8299H36.85L44.33 53.5599C40.3398 52.1772 36.8789 49.5868 34.4276 46.1481C31.9762 42.7094 30.656 38.5929 30.65 34.3699V34.3699Z" fill="white"/>
<path d="M1 72.83H14.28L32.37 26.18L1 14.01V72.83Z" fill="#EC1C24"/>
<path d="M101.101 46.6299L90.1807 18.4399L69.7207 26.3799C70.8133 28.9416 71.3679 31.7005 71.3501 34.4854C71.3324 37.2702 70.7426 40.0218 69.6175 42.5693C68.4923 45.1169 66.8558 47.4061 64.8093 49.295C62.7628 51.1838 60.3501 52.6321 57.7207 53.5499L65.1807 72.8299H101.101V46.6299Z" fill="white"/>
<path d="M101.1 14H101.04L69.6699 26.18L87.7599 72.83H101.1V14Z" fill="#EC1C24"/>
<path fill-rule="evenodd" clip-rule="evenodd" d="M1617.63 172.693H1505.84C1503.71 175.203 1500.24 177 1496.25 177C1492.25 177 1488.79 175.203 1487.11 172.693H1113.17C1111.18 175.203 1107.72 177 1103.72 177C1099.72 177 1096.26 175.203 1094.58 172.693H706.01C703.452 175.203 699.991 177 695.992 177C691.994 177 688.532 175.203 686.852 172.693H381.911C380.231 175.203 376.77 177 372.771 177C368.772 177 365.311 175.203 363.631 172.693H68.7562C67.9421 175.203 63.6143 177 59.6158 177C55.9136 177 52.1556 175.203 50.4754 172.693H4.08463C1.75869 172.693 0 171.111 0 169.292V168.918C0 167.099 1.75869 165.625 4.08463 165.625H50.345C51.972 162.893 55.5109 161 59.6158 161C63.7207 161 67.2596 162.893 68.8866 165.625H363.5C365.127 162.893 368.666 161 372.771 161C376.876 161 380.415 162.893 382.042 165.625H686.721C688.348 162.893 691.887 161 695.992 161C700.439 161 703.636 162.893 705.263 165.625H1094.45C1096.08 162.893 1099.62 161 1103.72 161C1108.4 161 1111.36 162.893 1112.99 165.625H1486.98C1488.6 162.893 1492.14 161 1496.25 161C1501.07 161 1503.89 162.893 1505.52 165.625H1617.63C1619.96 165.625 1622 167.099 1622 168.918V169.292C1622 171.111 1619.96 172.693 1617.63 172.693Z" fill="#3B3A3A"/>
<path d="M1058.14 97.2399H1049.49V105.24H1059.13V107.64H1046.63V85.4399H1058.63V87.8399H1049.49V94.8399H1058.14V97.2399Z" fill="#231F20"/>
<path d="M1066.15 85.74C1068.17 85.4281 1070.21 85.271 1072.25 85.27C1076.37 85.27 1079.3 86.27 1081.25 88.05C1083.2 89.83 1084.39 92.43 1084.39 96.05C1084.47 97.6299 1084.22 99.2089 1083.67 100.692C1083.12 102.175 1082.28 103.532 1081.19 104.68C1079.11 106.76 1075.68 107.89 1071.36 107.89C1069.62 107.896 1067.88 107.806 1066.15 107.62V85.74ZM1069 105.39C1069.96 105.524 1070.93 105.58 1071.9 105.56C1078.04 105.56 1081.37 102.13 1081.37 96.12C1081.37 90.88 1078.43 87.55 1072.37 87.55C1071.24 87.5334 1070.12 87.6306 1069.01 87.84L1069 105.39Z" fill="#231F20"/>
<path d="M1094.27 85.4399V107.66H1091.4V85.4399H1094.27Z" fill="#231F20"/>
<path d="M1106.8 87.8799H1100V85.4399H1116.5V87.8799H1109.7V107.66H1106.8V87.8799Z" fill="#231F20"/>
<path d="M1140.37 96.3201C1140.37 103.97 1135.72 108.03 1130.05 108.03C1124.18 108.03 1120.05 103.48 1120.05 96.7501C1120.05 89.7501 1124.43 85.0801 1130.37 85.0801C1136.31 85.0801 1140.37 89.7201 1140.37 96.3201ZM1123.12 96.6901C1123.12 101.44 1125.69 105.69 1130.21 105.69C1134.73 105.69 1137.34 101.51 1137.34 96.4601C1137.34 92.0401 1135.03 87.4601 1130.25 87.4601C1125.47 87.4601 1123.12 91.8001 1123.12 96.6901Z" fill="#231F20"/>
<path d="M1147.39 85.7399C1149.21 85.4114 1151.05 85.254 1152.9 85.2699C1155.96 85.2699 1157.9 85.8299 1159.33 87.0899C1159.9 87.6289 1160.36 88.2842 1160.66 89.012C1160.96 89.7397 1161.1 90.5232 1161.07 91.3099C1161.09 92.5866 1160.69 93.8353 1159.94 94.8636C1159.18 95.8918 1158.11 96.6425 1156.88 96.9999V97.0999C1158.6 97.6899 1159.62 99.2799 1160.15 101.58C1160.53 103.661 1161.11 105.703 1161.86 107.68H1158.86C1158.2 105.963 1157.7 104.189 1157.37 102.38C1156.72 99.3099 1155.53 98.1599 1152.92 98.0599H1150.22V107.68H1147.35L1147.39 85.7399ZM1150.26 95.8599H1153.19C1156.26 95.8599 1158.19 94.1799 1158.19 91.6399C1158.19 88.7699 1156.11 87.5199 1153.07 87.4799C1152.12 87.4552 1151.17 87.5459 1150.24 87.7499L1150.26 95.8599Z" fill="#231F20"/>
<path d="M1172.18 100.68L1169.87 107.68H1166.87L1174.43 85.46H1177.89L1185.47 107.68H1182.41L1180.03 100.68H1172.18ZM1179.47 98.44L1177.3 92C1176.8 90.55 1176.47 89.23 1176.14 88H1176.07C1175.74 89.32 1175.38 90.67 1174.95 92L1172.78 98.44H1179.47Z" fill="#231F20"/>
<path d="M1265.94 11.6799V6.4399C1266.18 6.4399 1274.29 5.4399 1274.29 8.3099V65.0199C1271.66 65.2499 1267.29 66.4199 1265.58 66.6699C1262.99 67.2139 1260.35 67.4655 1257.71 67.4199C1246.58 67.4199 1240.37 62.5699 1240.37 54.1399V38.2399C1240.37 30.0499 1247.29 25.1199 1255.32 25.1199C1261.32 25.1199 1264.59 27.1199 1265.92 28.2199C1265.92 28.2199 1265.92 28.2699 1265.92 28.2199C1265.92 27.8599 1265.86 25.2199 1265.86 23.7499C1265.86 23.4899 1265.86 23.2199 1265.86 22.9499L1265.94 11.6799ZM1265.94 38.6799C1265.94 34.4699 1261.17 31.5199 1256.4 31.5199C1252.03 31.5199 1248.77 33.9099 1248.77 39.5199V52.9999C1248.77 58.4099 1250.91 60.9999 1258.31 60.9999C1260.92 61.0692 1263.51 60.61 1265.94 59.6499V38.6799Z" fill="#231F20"/>
<path d="M1198.44 36.5601C1197.67 28.6201 1190.66 25.0801 1183.09 25.0801C1174.55 25.0801 1170.55 27.8801 1169.48 28.7701C1166.38 25.9901 1161.66 25.0801 1157.11 25.0801C1153.37 25.0898 1149.64 25.5395 1146 26.4201C1143.76 27.014 1141.46 27.3495 1139.14 27.4201V65.0001C1139.14 67.7701 1147.49 66.8601 1147.49 66.8601V33.0001C1150.23 32.0638 1153.1 31.5874 1156 31.5901C1162.36 31.5901 1164.67 34.2201 1164.67 38.7501V65.0001C1164.67 67.7101 1173.01 66.8701 1173.01 66.8701V37.2901C1173.23 33.8201 1177.6 31.5201 1182.06 31.5201C1186.98 31.5201 1190.17 33.7401 1190.17 39.0701V65.0001C1190.17 67.8301 1198.52 66.8501 1198.52 66.8501V37.5601C1198.52 37.2251 1198.49 36.8907 1198.44 36.5601Z" fill="#231F20"/>
<path d="M1107.13 27.7299C1106.37 27.0635 1105.5 26.5294 1104.56 26.1499L1104.17 25.9899C1102.42 25.4093 1100.59 25.1155 1098.75 25.1199C1097.1 25.1082 1095.44 25.286 1093.83 25.6499C1092.73 25.8499 1092.08 25.9999 1090.52 26.3099C1088.63 26.6899 1086.02 27.0799 1082.79 27.4899V65.0799C1082.79 67.7299 1091.14 66.8899 1091.14 66.8899V33.1099L1096 32.1899C1096.55 32.0751 1097.11 31.9917 1097.67 31.9399C1099.45 31.7845 1101.25 32.0982 1102.87 32.8499C1104.43 33.6636 1105.86 34.6938 1107.13 35.9099V27.7299Z" fill="#231F20"/>
<path d="M1235.58 54.6701C1235.58 54.2001 1235.31 54.5401 1235.08 54.7701C1234.69 55.2037 1234.27 55.6144 1233.83 56.0001C1233.17 56.6153 1232.47 57.1866 1231.74 57.7101C1231.74 57.7101 1230.8 58.3601 1230.74 58.3701L1230.57 58.4801C1227.72 60.1912 1224.44 61.0645 1221.11 61.0001C1214.43 61.0001 1211.73 58.3801 1211.73 53.2101V48.8601C1214.27 50.0238 1217.04 50.5916 1219.83 50.5201C1231.92 50.5201 1236.13 44.7201 1236.13 38.1201C1236.13 30.5701 1230.65 25.5601 1219.92 25.5601C1209.19 25.5601 1203.38 30.5601 1203.38 38.9201V54.4301C1203.38 62.7701 1210.06 67.7801 1221.11 67.7801C1224.25 67.832 1227.37 67.3031 1230.31 66.2201C1230.88 65.9981 1231.43 65.7478 1231.97 65.4701V65.4701C1233.35 64.8931 1234.58 64.007 1235.56 62.8801L1235.58 54.6701ZM1211.73 40.1201C1211.73 34.9401 1213.4 31.9201 1219.73 31.9201C1225.62 31.9201 1227.73 34.4701 1227.73 38.1201C1227.73 41.7701 1225.42 43.7701 1218.73 43.7701C1216.34 43.6853 1213.96 43.3092 1211.66 42.6501L1211.73 40.1201Z" fill="#231F20"/>
<path d="M1061 25.2999C1057.45 25.1838 1053.91 25.8424 1050.64 27.2299C1049.03 27.889 1047.55 28.8267 1046.26 29.9999C1046.2 30.0728 1046.16 30.1537 1046.13 30.2399C1046.12 30.2831 1046.12 30.3268 1046.13 30.3699V36.2699C1046.13 36.8199 1046.13 37.0999 1046.13 37.7699C1046.13 38.1999 1046.13 38.8599 1046.43 38.4499L1047.16 37.5899C1048.24 36.4752 1049.44 35.4703 1050.72 34.5899L1051.54 34.0899C1051.76 33.9799 1052 33.8199 1052.21 33.7199C1054.93 32.3672 1057.96 31.7403 1061 31.8999C1067.76 31.8999 1069.43 34.5999 1069.43 38.0999C1067.15 43.3299 1054.23 41.9299 1048.03 47.4299L1047.66 47.7699C1047.55 47.8799 1047.43 47.9899 1047.33 48.1099C1047.09 48.3644 1046.88 48.6351 1046.68 48.9199V48.9799C1046.59 49.0899 1046.51 49.2199 1046.43 49.3399L1046.36 49.4499L1046.27 49.5999C1045.27 51.34 1044.77 53.3235 1044.83 55.3299C1044.78 57.3896 1045.27 59.426 1046.27 61.2299V61.2299C1046.35 61.3699 1046.43 61.4999 1046.51 61.6199C1046.59 61.7584 1046.68 61.892 1046.77 62.0199C1046.77 62.0199 1046.77 62.0199 1046.77 62.0199L1046.99 62.3199C1049.83 65.9999 1054.99 67.3799 1060.22 67.3799C1063.57 67.481 1066.91 67.2634 1070.22 66.7299C1072.89 66.1682 1075.48 65.2465 1077.9 63.9899V38.4999C1077.74 30.1499 1071.86 25.2999 1061 25.2999ZM1069.67 45.6799V60.3899C1066.94 61.0932 1064.14 61.4295 1061.32 61.3899C1055.6 61.3899 1052.97 58.9199 1052.97 55.3899C1052.97 47.7799 1065.7 49.5999 1069.03 46.2199C1069.17 46.0799 1069.24 45.9799 1069.38 45.8199L1069.53 45.6299L1069.67 45.4099V45.6799Z" fill="#231F20"/>
<path d="M1133.25 59C1132.84 59.29 1132.36 59.59 1131.98 59.82L1131.85 59.89C1130.16 60.8054 1128.26 61.2574 1126.34 61.2C1120.34 61.2 1119.21 57.87 1119.15 52.53V33.85H1131.87C1132.04 33.8581 1132.21 33.8291 1132.37 33.7652C1132.53 33.7012 1132.67 33.6037 1132.79 33.4794C1132.91 33.355 1133 33.2067 1133.05 33.0446C1133.11 32.8824 1133.13 32.7103 1133.11 32.54V27.17H1119.11V17.08C1119.11 14.99 1110.77 15.52 1110.77 15.52V54.52C1110.77 62.95 1115.77 67.88 1125.27 67.88C1127.59 67.919 1129.91 67.5605 1132.11 66.82C1133.28 66.37 1134.38 65.7573 1135.38 65V57.09C1135.38 57.09 1135.38 56.99 1135.3 57.09C1135.04 57.4457 1134.75 57.78 1134.43 58.09C1134.05 58.4166 1133.66 58.7205 1133.25 59V59Z" fill="#231F20"/>
<path fill-rule="evenodd" clip-rule="evenodd" d="M964.43 114.05C975.633 114.046 986.584 110.72 995.897 104.493C1005.21 98.2659 1012.47 89.417 1016.75 79.0652C1021.04 68.7134 1022.16 57.3236 1019.97 46.3359C1017.78 35.3482 1012.38 25.256 1004.46 17.3354C996.537 9.41471 986.443 4.02131 975.454 1.83708C964.466 -0.347155 953.076 0.775871 942.726 5.06416C932.376 9.35245 923.53 16.6134 917.306 25.929C911.082 35.2447 907.76 46.1966 907.76 57.4C907.791 72.4183 913.773 86.812 924.394 97.4296C935.016 108.047 949.412 114.024 964.43 114.05V114.05Z" fill="white"/>
<path d="M964.43 114.8H964.37C949.162 114.758 934.59 108.696 923.839 97.9394C913.089 87.1831 907.034 72.6077 907 57.4V57.4C907.026 42.1795 913.087 27.5904 923.852 16.8307C934.617 6.07098 949.209 0.0185063 964.43 0V0C979.64 0.029089 994.218 6.0855 1004.97 16.8425C1015.72 27.5995 1021.78 42.18 1021.8 57.39V57.39C1021.77 72.5856 1015.73 87.1516 1004.99 97.9078C994.259 108.664 979.706 114.737 964.51 114.8H964.43ZM964.37 113.3H964.51C979.305 113.242 993.476 107.331 1003.93 96.8594C1014.38 86.3874 1020.26 72.205 1020.29 57.41V57.41C1020.26 42.6012 1014.37 28.4057 1003.91 17.9295C993.439 7.45341 979.249 1.54964 964.44 1.51V1.51C949.621 1.52849 935.413 7.42018 924.93 17.8943C914.446 28.3684 908.542 42.5708 908.51 57.39V57.39C908.536 72.2006 914.429 86.3976 924.898 96.874C935.367 107.35 949.559 113.253 964.37 113.29V113.3Z" fill="#231F20"/>
<path fill-rule="evenodd" clip-rule="evenodd" d="M964.22 40.8099C965.722 40.8119 967.19 40.3681 968.44 39.5349C969.69 38.7017 970.664 37.5164 971.24 36.1291C971.816 34.7418 971.967 33.2148 971.674 31.7416C971.382 30.2684 970.659 28.915 969.597 27.8529C968.535 26.7909 967.181 26.0678 965.708 25.7752C964.235 25.4827 962.708 25.6338 961.32 26.2096C959.933 26.7853 958.748 27.7596 957.915 29.0093C957.081 30.259 956.638 31.7279 956.64 33.2299C956.642 35.2394 957.442 37.1659 958.863 38.5868C960.284 40.0078 962.21 40.8072 964.22 40.8099V40.8099Z" fill="#231F20"/>
<path fill-rule="evenodd" clip-rule="evenodd" d="M982.66 10.52V50.74L979.32 52.86C978.83 46.14 975.8 42 965.52 42H962.92C952.49 42 949.58 46.18 949.12 52.9L945.78 50.78V10.54C934.856 14.8349 925.773 22.8085 920.099 33.085C914.425 43.3615 912.516 55.2961 914.702 66.8296C916.887 78.3631 923.03 88.7719 932.071 96.2599C941.111 103.748 952.482 107.846 964.22 107.846C975.959 107.846 987.33 103.748 996.37 96.2599C1005.41 88.7719 1011.55 78.3631 1013.74 66.8296C1015.92 55.2961 1014.02 43.3615 1008.34 33.085C1002.67 22.8085 993.585 14.8349 982.66 10.54V10.52ZM986.66 54.7V71.23C986.595 71.9831 986.363 72.7122 985.981 73.3643C985.598 74.0164 985.076 74.5751 984.45 75L968.75 84.58L964.37 87.26L962.15 86L944 75C943.388 74.5747 942.876 74.0203 942.501 73.3758C942.127 72.7314 941.897 72.0126 941.83 71.27V54.7C941.818 54.5737 941.818 54.4464 941.83 54.32C942.024 54.3588 942.208 54.4371 942.37 54.55L962.27 66.67L964.2 67.85L967.49 65.85L986.08 54.55C986.239 54.4376 986.42 54.3593 986.61 54.32C986.623 54.4464 986.623 54.5737 986.61 54.7H986.66Z" fill="#231F20"/>
<path fill-rule="evenodd" clip-rule="evenodd" d="M697.44 114.22C708.643 114.214 719.593 110.886 728.905 104.658C738.217 98.4297 745.473 89.5801 749.756 79.2282C754.039 68.8762 755.157 57.4867 752.968 46.4997C750.778 35.5126 745.381 25.4214 737.457 17.5017C729.533 9.5821 719.439 4.18969 708.451 2.00627C697.462 -0.177154 686.074 0.946455 675.724 5.23504C665.374 9.52362 656.528 16.7846 650.305 26.1C644.081 35.4154 640.76 46.3669 640.76 57.5699C640.791 72.5899 646.774 86.9852 657.398 97.6031C668.021 108.221 682.42 114.196 697.44 114.22V114.22Z" fill="white"/>
<path d="M697.43 114.8H697.37C682.161 114.763 667.585 108.703 656.834 97.9453C646.082 87.1878 640.029 72.6093 640 57.4V57.4C640.029 42.1786 646.091 27.5895 656.858 16.8301C667.625 6.07065 682.219 0.0184994 697.44 0V0C712.648 0.0396374 727.22 6.10112 737.97 16.8583C748.72 27.6154 754.771 42.1924 754.8 57.4V57.4C754.771 72.5955 748.729 87.1619 737.995 97.9171C727.26 108.672 712.705 114.742 697.51 114.8H697.43ZM697.37 113.29H697.51C712.303 113.232 726.472 107.323 736.924 96.8529C747.375 86.3831 753.258 72.2033 753.29 57.41V57.41C753.264 42.6029 747.374 28.4089 736.909 17.9331C726.445 7.45721 712.257 1.55228 697.45 1.51V1.51C682.627 1.52585 668.416 7.41775 657.93 17.8943C647.444 28.3708 641.539 42.5773 641.51 57.4V57.4C641.539 72.2088 647.433 86.4033 657.901 96.8775C668.37 107.352 682.561 113.253 697.37 113.29V113.29Z" fill="#231F20"/>
<path fill-rule="evenodd" clip-rule="evenodd" d="M712.11 9.22998V39.39L709.41 41.11C709.01 35.68 706.57 32.31 698.27 32.31H696.17C687.76 32.31 685.41 35.68 685.03 41.11L682.34 39.4V9.23998C670.816 12.8025 660.951 20.3802 654.538 30.5969C648.125 40.8135 645.589 52.9914 647.391 64.9187C649.192 76.846 655.212 87.7317 664.356 95.5986C673.5 103.465 685.163 107.792 697.225 107.792C709.288 107.792 720.95 103.465 730.095 95.5986C739.239 87.7317 745.259 76.846 747.06 64.9187C748.862 52.9914 746.325 40.8135 739.912 30.5969C733.499 20.3802 723.635 12.8025 712.11 9.23998V9.22998ZM715.31 42.59V55.93C715.252 56.5278 715.065 57.1057 714.761 57.6238C714.457 58.1418 714.044 58.5875 713.55 58.93L700.87 66.68L697.34 68.84L695.55 67.84L680.89 59C680.398 58.6575 679.986 58.2116 679.684 57.6934C679.381 57.1752 679.196 56.5973 679.14 56V42.59C679.14 42.37 679.14 42.32 679.14 42.29C679.296 42.3153 679.443 42.3769 679.57 42.47L695.64 52.26L697.2 53.26L699.85 51.65L714.85 42.52C714.977 42.4269 715.125 42.3653 715.28 42.34C715.28 42.34 715.31 42.37 715.31 42.59Z" fill="#231F20"/>
<path fill-rule="evenodd" clip-rule="evenodd" d="M697.22 31.3799C698.43 31.3799 699.613 31.021 700.62 30.3485C701.626 29.676 702.411 28.7202 702.874 27.6019C703.337 26.4836 703.458 25.2531 703.222 24.0659C702.986 22.8788 702.403 21.7883 701.547 20.9324C700.691 20.0765 699.601 19.4936 698.414 19.2575C697.226 19.0213 695.996 19.1425 694.878 19.6058C693.759 20.069 692.803 20.8534 692.131 21.8598C691.459 22.8662 691.1 24.0495 691.1 25.2599C691.102 26.8822 691.748 28.4373 692.895 29.5845C694.042 30.7316 695.597 31.3773 697.22 31.3799V31.3799Z" fill="#231F20"/>
<path d="M724.77 74.3499V72.9999C724.83 72.9999 726.99 72.7399 726.99 73.4999V88.4999C726.29 88.5599 725.13 88.8699 724.68 88.9399C723.993 89.0806 723.292 89.1476 722.59 89.1399C719.64 89.1399 717.99 87.8499 717.99 85.6199V81.3899C717.99 79.2199 719.83 77.9099 721.99 77.9099C722.993 77.8562 723.984 78.1454 724.8 78.7299C724.8 78.7299 724.8 78.7299 724.8 78.7299C724.8 78.7299 724.8 77.9299 724.8 77.5499C724.795 77.48 724.795 77.4098 724.8 77.3399L724.77 74.3499ZM724.77 81.4999C724.77 80.3799 723.51 79.5999 722.24 79.5999C721.962 79.5782 721.683 79.6187 721.423 79.7187C721.163 79.8187 720.929 79.9755 720.737 80.1778C720.545 80.38 720.401 80.6226 720.315 80.8877C720.229 81.1527 720.204 81.4337 720.24 81.7099V85.2899C720.24 86.7199 720.81 87.4199 722.77 87.4199C723.454 87.435 724.134 87.3126 724.77 87.0599V81.4999Z" fill="white"/>
<path d="M706.87 81.0001C706.68 78.8901 704.81 78.0001 702.81 78.0001C701.527 77.905 700.251 78.2584 699.2 79.0001C698.263 78.2834 697.098 77.9284 695.92 78.0001C694.91 78.0006 693.903 78.1215 692.92 78.3601C692.328 78.5103 691.721 78.5974 691.11 78.6201V88.6201C691.11 89.3601 693.32 89.1201 693.32 89.1201V80.0001C694.049 79.7556 694.812 79.634 695.58 79.6401C697.26 79.6401 697.87 80.3401 697.87 81.5401V88.5401C697.87 89.2601 700.09 89.0401 700.09 89.0401V81.1401C700.15 80.2201 701.3 79.6101 702.49 79.6101C703.68 79.6101 704.63 80.2001 704.63 81.6101V88.4901C704.63 89.2401 706.85 88.9901 706.85 88.9901V81.2201C706.865 81.1477 706.872 81.0739 706.87 81.0001Z" fill="white"/>
<path d="M682.67 78.6C682.464 78.4282 682.235 78.2867 681.99 78.18H681.88C681.417 78.0324 680.935 77.9549 680.45 77.95C680.013 77.9514 679.577 77.9983 679.15 78.09L678.27 78.27C677.76 78.37 677.07 78.47 676.22 78.58V88.58C676.22 89.28 678.43 89.06 678.43 89.06V80L679.72 79.76C679.865 79.7269 680.012 79.7035 680.16 79.69C680.633 79.6526 681.107 79.7352 681.54 79.93C681.948 80.1531 682.327 80.4251 682.67 80.74V78.6Z" fill="white"/>
<path d="M716.72 85.74C716.72 85.62 716.65 85.74 716.59 85.74C716.53 85.74 716.52 85.82 716.26 86.06C716.088 86.2226 715.904 86.3729 715.71 86.51C715.71 86.51 715.46 86.68 715.45 86.69C714.689 87.1426 713.816 87.3746 712.93 87.36C711.16 87.36 710.44 86.66 710.44 85.29V84.21C711.113 84.5211 711.849 84.6717 712.59 84.65C715.8 84.65 716.9 83.11 716.9 81.36C716.9 79.36 715.46 78.03 712.61 78.03C709.76 78.03 708.23 79.36 708.23 81.57V85.68C708.23 87.9 710 89.23 712.93 89.23C713.759 89.2371 714.582 89.0948 715.36 88.81L715.8 88.62C716.184 88.4722 716.526 88.2358 716.8 87.93L716.72 85.74ZM710.4 81.89C710.4 80.52 710.84 79.72 712.53 79.72C714.22 79.72 714.65 80.39 714.65 81.36C714.65 82.33 714.05 82.86 712.27 82.86C711.637 82.8355 711.009 82.7347 710.4 82.56V81.89Z" fill="white"/>
<path d="M689.59 86.9001L689.25 87.1201C688.8 87.3551 688.298 87.4721 687.79 87.4601C686.19 87.4601 685.9 86.5901 685.89 85.1701V80.1701H689.26C689.305 80.1717 689.351 80.1636 689.393 80.1463C689.435 80.129 689.473 80.1029 689.504 80.0698C689.535 80.0367 689.559 79.9972 689.574 79.9542C689.589 79.9111 689.594 79.8654 689.59 79.8201V78.4601H685.89V75.7801C685.89 75.2201 683.67 75.3701 683.67 75.3701V85.7101C683.67 87.9501 685.01 89.2501 687.52 89.2501C688.123 89.2664 688.725 89.1819 689.3 89.0001V89.0001C689.605 88.8828 689.892 88.7211 690.15 88.5201V86.3801C690.085 86.4793 690.007 86.57 689.92 86.6501C689.814 86.7391 689.704 86.8226 689.59 86.9001V86.9001Z" fill="white"/>
<path d="M1676.03 57.5507L1661.94 43.4366C1661.56 43.0651 1661.12 42.7704 1660.64 42.5693C1660.15 42.3682 1659.64 42.2646 1659.11 42.2646C1658.59 42.2646 1658.07 42.3682 1657.58 42.5693C1657.1 42.7704 1656.66 43.0651 1656.29 43.4366V43.4366C1655.91 43.8073 1655.62 44.2476 1655.42 44.7323C1655.22 45.2171 1655.11 45.7367 1655.11 46.2615C1655.11 46.7863 1655.22 47.306 1655.42 47.7907C1655.62 48.2755 1655.91 48.7158 1656.29 49.0865L1667.54 60.3722C1667.91 60.7428 1668.2 61.1831 1668.4 61.6679C1668.6 62.1526 1668.71 62.6723 1668.71 63.1971C1668.71 63.7219 1668.6 64.2415 1668.4 64.7263C1668.2 65.211 1667.91 65.6513 1667.54 66.022L1656.27 77.3077C1655.9 77.6784 1655.61 78.1187 1655.4 78.6034C1655.2 79.0882 1655.1 79.6078 1655.1 80.1326C1655.1 80.6574 1655.2 81.1771 1655.4 81.6618C1655.61 82.1465 1655.9 82.5869 1656.27 82.9575V82.9575C1656.64 83.329 1657.08 83.6238 1657.57 83.8249C1658.05 84.026 1658.57 84.1295 1659.1 84.1295C1659.62 84.1295 1660.14 84.026 1660.63 83.8249C1661.11 83.6238 1661.55 83.329 1661.92 82.9575L1676.03 68.8504L1678.83 66.05C1679.2 65.6793 1679.5 65.239 1679.7 64.7543C1679.9 64.2695 1680 63.7499 1680 63.2251C1680 62.7003 1679.9 62.1806 1679.7 61.6959C1679.5 61.2111 1679.2 60.7708 1678.83 60.4002L1676.03 57.5507Z" fill="black"/>
<path d="M1692.98 57.5842L1679.58 44.7863C1679.23 44.4491 1678.81 44.1847 1678.36 44.0082C1677.9 43.8317 1677.42 43.7465 1676.93 43.7575C1676.45 43.7686 1675.97 43.8757 1675.52 44.0726C1675.07 44.2696 1674.67 44.5525 1674.34 44.9053V44.9053C1674 45.2571 1673.73 45.6719 1673.56 46.1261C1673.38 46.5802 1673.3 47.0647 1673.31 47.5519C1673.32 48.039 1673.42 48.5192 1673.62 48.9648C1673.82 49.4105 1674.1 49.8129 1674.45 50.1491L1685.17 60.3846C1685.88 61.0666 1686.29 62.0016 1686.32 62.9854C1686.34 63.9693 1685.97 64.922 1685.29 65.6354L1675.05 76.347C1674.37 77.0604 1674 78.0131 1674.03 78.9969C1674.05 79.9808 1674.46 80.9158 1675.17 81.5978C1675.88 82.2756 1676.83 82.6436 1677.82 82.6213C1678.8 82.599 1679.74 82.1882 1680.42 81.4788L1693.22 68.0788L1695.78 65.3973C1696.12 65.045 1696.38 64.6295 1696.56 64.1748C1696.73 63.7201 1696.82 63.235 1696.81 62.7473C1696.8 62.2596 1696.69 61.7788 1696.49 61.3326C1696.3 60.8863 1696.01 60.4833 1695.66 60.1466L1692.98 57.5842Z" fill="#AFAFAF"/>
<path d="M1491.47 46.6024V42.0097H1499.24V29.1558H1503.94V42.0097H1517.83V46.6024H1503.94V72.1982C1503.94 74.7606 1504.66 76.7022 1506.11 78.0231C1507.65 79.379 1509.66 80.0886 1511.71 80.0044C1514.05 79.9202 1516.32 79.2587 1518.34 78.0791L1520.24 82.3147C1517.63 83.7691 1514.7 84.551 1511.71 84.5901C1507.87 84.5901 1504.84 83.5189 1502.61 81.3766C1500.38 79.2343 1499.26 76.2518 1499.26 72.4362V46.6024H1491.47Z" fill="black"/>
<path d="M1575.58 83.6142H1570.94V58.6415C1570.94 49.9602 1567.65 45.6219 1561.06 45.6265C1554.65 45.6265 1551.45 49.9648 1551.45 58.6415V83.6142H1546.74V58.6415C1546.74 49.9602 1543.48 45.6219 1536.97 45.6265C1530.46 45.6312 1527.23 49.9695 1527.28 58.6415V83.6142H1522.64V57.3463C1522.64 52.3802 1523.83 48.4269 1526.21 45.4865C1528.59 42.5461 1532.2 41.0852 1537.05 41.1038C1539.75 41.0159 1542.41 41.7989 1544.63 43.3372C1546.71 44.8382 1548.26 46.9507 1549.08 49.3791C1549.91 46.9584 1551.47 44.8548 1553.55 43.3582C1555.77 41.8095 1558.43 41.019 1561.14 41.1038C1565.93 41.1038 1569.53 42.5741 1571.95 45.5145C1574.37 48.4549 1575.58 52.4082 1575.58 57.3743V83.6142Z" fill="black"/>
<path d="M1584.71 64.6721V67.2975C1584.71 75.7687 1588.96 80.0044 1597.46 80.0044C1600.89 80.0044 1604.4 78.7745 1608 76.3148C1608.24 76.8399 1608.61 77.596 1609.11 78.5902C1609.6 79.5843 1609.93 80.2144 1610.07 80.4734C1606.29 83.173 1601.75 84.6133 1597.1 84.5901C1591.53 84.5901 1587.3 83.1642 1584.41 80.3124C1581.53 77.4606 1580.08 73.4747 1580.08 68.3546V57.342C1580.08 52.6373 1581.48 48.7493 1584.28 45.6782C1587.08 42.6071 1590.86 41.0809 1595.61 41.0995C1600.39 41.0995 1604.18 42.6351 1606.99 45.7062C1609.8 48.7774 1611.2 52.6653 1611.19 57.37V64.6721H1584.71ZM1584.71 60.2404H1606.58V58.6372C1606.58 54.5065 1605.57 51.3164 1603.56 49.0667C1602.55 47.952 1601.3 47.0726 1599.92 46.4907C1598.53 45.9088 1597.03 45.6386 1595.53 45.6992C1594.05 45.6401 1592.57 45.9159 1591.21 46.5062C1589.85 47.0964 1588.63 47.986 1587.66 49.1087C1585.69 51.3864 1584.7 54.5626 1584.71 58.6372V60.2404Z" fill="black"/>
<path d="M1615.02 68.2034V59.1861C1615.02 53.6226 1616.22 49.2119 1618.62 45.9541C1621.01 42.6963 1624.47 41.0627 1628.98 41.0534C1634.07 41.0534 1638.25 43.3007 1641.52 47.7954V25H1646.15V68.2034C1646.15 73.0622 1644.83 77.0084 1642.2 80.0422C1639.57 83.076 1635.71 84.5929 1630.63 84.5929C1625.55 84.5929 1621.68 83.076 1619.02 80.0422C1616.35 77.0084 1615.02 73.0622 1615.02 68.2034ZM1619.66 60.5583V66.8592C1619.66 71.0925 1620.61 74.3457 1622.5 76.6187C1624.4 78.8917 1627.11 80.0305 1630.63 80.0352C1634.27 80.0352 1637 78.8964 1638.81 76.6187C1640.62 74.341 1641.52 71.0879 1641.52 66.8592V52.5981C1640.45 50.4722 1638.82 48.677 1636.8 47.4033C1635 46.2421 1632.9 45.6182 1630.75 45.6041C1626.72 45.6041 1623.86 46.8503 1622.17 49.3426C1620.48 51.835 1619.63 55.5736 1619.64 60.5583H1619.66Z" fill="black"/>
<path d="M1452.5 58.8647V57.6886C1452.5 49.5627 1448.68 45.4857 1441.02 45.4577C1437.45 45.4577 1433.74 46.7506 1429.9 49.3363L1427.87 45.3107C1431.84 42.3803 1436.66 40.8092 1441.6 40.83C1446.78 40.83 1450.67 42.2746 1453.25 45.1637C1455.84 48.0528 1457.13 52.0691 1457.13 57.2125V68.1131C1457.13 73.0839 1455.79 77.0301 1453.1 79.9519C1450.42 82.8737 1446.56 84.3392 1441.53 84.3486C1436.6 84.3486 1432.78 83.1397 1430.07 80.722C1427.36 78.3043 1426.01 75.4619 1426 72.1947V70.9345C1425.96 69.2897 1426.29 67.6563 1426.96 66.154C1427.63 64.6518 1428.63 63.3189 1429.88 62.2532C1432.47 59.9896 1436.06 58.8601 1440.66 58.8647H1452.5ZM1430.63 70.9345V72.1947C1430.64 73.2596 1430.9 74.3071 1431.4 75.2465C1431.9 76.1859 1432.63 76.9888 1433.51 77.5855C1435.44 79.0371 1438.13 79.7605 1441.6 79.7559C1445.03 79.7559 1447.7 78.7267 1449.63 76.6614C1451.55 74.5961 1452.5 71.7187 1452.5 68.0361V63.2894H1440.47C1437.29 63.2894 1434.85 63.9895 1433.17 65.3897C1432.34 66.0557 1431.69 66.9029 1431.25 67.8648C1430.81 68.8268 1430.6 69.8774 1430.63 70.9345V70.9345Z" fill="black"/>
<path d="M1466.33 83.3686H1461.71V57.1006C1461.71 52.1859 1463.07 48.256 1465.8 45.3109C1468.53 42.3658 1472.6 40.8722 1478.02 40.8302C1481.66 40.786 1485.23 41.8374 1488.27 43.8476L1486.48 47.9643C1483.4 46.242 1480.55 45.3785 1477.95 45.3739C1470.2 45.3739 1466.33 49.6865 1466.33 58.3118V83.3686Z" fill="black"/>
<path d="M370.4 114.8C402.101 114.8 427.8 89.1012 427.8 57.4C427.8 25.6989 402.101 0 370.4 0C338.699 0 313 25.6989 313 57.4C313 89.1012 338.699 114.8 370.4 114.8Z" fill="white"/>
<path d="M371 108.93V108.77H371.23C375.376 108.728 379.501 108.17 383.51 107.11C386.522 106.386 389.449 105.343 392.24 104C394.04 103.1 395.84 102.19 397.54 101.14C399.24 100.09 400.76 98.9199 402.33 97.7699C404.522 96.191 406.534 94.3768 408.33 92.3599C410.482 89.9446 412.445 87.367 414.2 84.6499C416.05 81.6832 417.611 78.5454 418.86 75.2799C419.83 72.7193 420.546 70.07 421 67.3699C421.717 63.8428 422.053 60.2488 422 56.6499C421.905 52.1427 421.233 47.6662 420 43.3299C419.137 40.3289 418.016 37.408 416.65 34.5999C414.95 31.2643 412.924 28.1055 410.6 25.1699C410.19 24.6399 409.65 24.1699 409.26 23.6599C407.926 21.9821 406.417 20.4502 404.76 19.0899C403.58 18.0399 402.31 17.0899 401.1 16.0899C399.676 14.9109 398.138 13.8758 396.51 12.9999C395.23 12.2899 393.95 11.5599 392.64 10.9199C391.53 10.3699 390.38 9.9199 389.23 9.4599C388.47 9.1599 387.69 8.9199 386.91 8.6599C385.91 8.3399 384.91 8.0099 383.91 7.7099C383.35 7.5399 382.76 7.4099 382.19 7.2599C381.47 7.0799 380.75 6.8599 380.02 6.7399C379.29 6.6199 378.47 6.5599 377.69 6.4799C377.2 6.4199 376.69 6.3699 376.21 6.2999C376.12 6.2999 376.03 6.2399 375.94 6.2299C375.56 6.2299 375.18 6.1199 374.8 6.0899C374.42 6.0599 374.28 6.0899 374.02 6.0899L372.57 5.9999C372.37 5.9999 372.16 5.9999 371.96 5.9999C371.56 5.9999 371.16 5.9099 370.76 5.8999C370.36 5.8899 370.16 5.9599 369.86 5.9699L365.7 5.9999C365.61 5.99038 365.52 5.99038 365.43 5.9999C364.84 6.1199 364.25 6.2999 363.66 6.3599C362.139 6.43721 360.628 6.66159 359.15 7.0299C357.48 7.5199 355.81 7.9699 354.15 8.4499C353.181 8.66793 352.236 8.98285 351.33 9.3899C350.329 9.94874 349.282 10.4205 348.2 10.7999C347.698 11.0039 347.215 11.255 346.76 11.5499L343.38 13.4899H343.33C342.835 13.6019 342.394 13.8808 342.08 14.2799C341.861 14.4815 341.611 14.6469 341.34 14.7699L340.42 15.3999C340.23 15.5399 340.05 15.6999 339.85 15.8499C339.17 16.3399 338.49 16.8499 337.85 17.3199C337.46 17.6099 337.1 17.9299 336.74 18.2499C336.38 18.5699 335.9 18.9799 335.5 19.3699C335.1 19.7599 334.5 20.3699 334.02 20.8799C333.54 21.3899 333.02 21.7599 332.61 22.2499C331.71 23.2499 330.82 24.3199 329.97 25.3999C328.949 26.6171 328.004 27.8962 327.14 29.2299C325.9 31.2299 324.75 33.3699 323.71 35.5199C322.84 37.3399 322.15 39.2499 321.46 41.1499C321.048 42.313 320.714 43.5023 320.46 44.7099C319.938 46.8241 319.524 48.9636 319.22 51.1199C318.835 54.3351 318.755 57.5796 318.98 60.8099C319.194 64.0853 319.734 67.3312 320.59 70.4999C321.367 73.7074 322.511 76.8146 324 79.7599C325 81.6599 326 83.6299 327.12 85.4299C328.35 87.2566 329.685 89.0096 331.12 90.6799C333.388 93.3985 335.954 95.8539 338.77 97.9999C341.244 99.9787 343.927 101.682 346.77 103.08C348.35 103.83 349.9 104.66 351.53 105.31C353.019 105.879 354.538 106.366 356.08 106.77C358.483 107.54 360.954 108.079 363.46 108.38L371 108.93Z" fill="white"/>
<path d="M371 108.93L363.46 108.35C360.954 108.049 358.483 107.51 356.08 106.74C354.538 106.336 353.019 105.849 351.53 105.28C349.9 104.63 348.35 103.8 346.77 103.05C343.927 101.652 341.244 99.9488 338.77 97.97C335.97 95.831 333.417 93.3859 331.16 90.68C329.725 89.0096 328.39 87.2566 327.16 85.43C325.99 83.63 325.06 81.66 324.04 79.76C322.527 76.8341 321.356 73.7438 320.55 70.55C319.694 67.3813 319.154 64.1353 318.94 60.86C318.715 57.6296 318.795 54.3852 319.18 51.17C319.484 49.0136 319.898 46.8742 320.42 44.76C320.674 43.5524 321.008 42.3631 321.42 41.2C322.11 39.3 322.8 37.39 323.67 35.57C324.67 33.42 325.86 31.32 327.1 29.28C327.964 27.9462 328.909 26.6671 329.93 25.45C330.78 24.37 331.67 23.33 332.57 22.3C333 21.81 333.57 21.39 333.98 20.93C334.39 20.47 334.98 19.93 335.46 19.42C335.94 18.91 336.28 18.66 336.7 18.3C337.12 17.94 337.42 17.66 337.81 17.37C338.48 16.87 339.16 16.37 339.81 15.9C340.01 15.75 340.19 15.59 340.38 15.45L341.3 14.82C341.571 14.697 341.821 14.5316 342.04 14.33C342.354 13.9309 342.795 13.652 343.29 13.54H343.34L346.72 11.6C347.175 11.3051 347.657 11.054 348.16 10.85C349.242 10.4706 350.289 9.99882 351.29 9.43998C352.196 9.03293 353.141 8.71801 354.11 8.49998C355.77 8.01998 357.44 7.56998 359.11 7.07998C360.588 6.71167 362.099 6.48729 363.62 6.40998C364.21 6.34998 364.8 6.16998 365.39 6.04998C365.48 6.04046 365.57 6.04046 365.66 6.04998H369.82C370.12 6.04998 370.42 5.97998 370.72 5.97998C371.02 5.97998 371.52 6.04998 371.92 6.07998C372.12 6.07998 372.33 6.07998 372.53 6.07998L374.02 6.19998C374.28 6.19998 374.55 6.19998 374.8 6.19998C375.05 6.19998 375.56 6.28998 375.94 6.33998C376.03 6.33998 376.12 6.39998 376.21 6.40998C376.7 6.47998 377.21 6.52998 377.69 6.58998C378.47 6.66998 379.25 6.71998 380.02 6.84998C380.79 6.97998 381.47 7.18998 382.19 7.36998C382.76 7.51998 383.35 7.64998 383.91 7.81998C384.91 8.11998 385.91 8.44998 386.91 8.76998C387.69 9.02998 388.47 9.26998 389.23 9.56998C390.38 10.02 391.53 10.48 392.64 11.03C393.95 11.67 395.23 12.4 396.51 13.11C398.127 13.9813 399.654 15.0096 401.07 16.18C402.28 17.18 403.55 18.13 404.73 19.18C406.387 20.5403 407.895 22.0722 409.23 23.75C409.62 24.29 410.16 24.75 410.57 25.26C412.894 28.1956 414.92 31.3544 416.62 34.69C417.991 37.4681 419.122 40.3587 420 43.33C421.233 47.6663 421.905 52.1428 422 56.65C422.053 60.2489 421.717 63.8429 421 67.37C420.535 70.061 419.808 72.7001 418.83 75.25C417.581 78.5155 416.02 81.6532 414.17 84.62C412.414 87.337 410.452 89.9147 408.3 92.33C406.504 94.3469 404.492 96.161 402.3 97.74C400.73 98.89 399.17 100.08 397.51 101.11C395.85 102.14 394.01 103.11 392.21 103.97C389.436 105.32 386.526 106.373 383.53 107.11C379.521 108.17 375.396 108.728 371.25 108.77H371.02L371 108.93ZM380.19 53.6L380.25 53.77C380.418 53.718 380.594 53.6944 380.77 53.7C381 53.7 381.33 53.82 381.42 53.99C382.03 55.09 382.6 56.21 383.18 57.33C383.76 58.45 384.18 59.33 384.73 60.33C384.73 60.43 384.95 60.47 385.07 60.54C385.135 60.3997 385.182 60.2519 385.21 60.1C385.21 60.01 385.12 59.9 385.06 59.8C384.33 58.38 383.55 56.98 382.87 55.54C382.579 54.9331 382.415 54.2727 382.39 53.6C382.39 49.6 382.39 45.69 382.39 41.73C382.39 38.26 382.39 34.8 382.39 31.33C382.39 29.73 382.39 28.13 382.39 26.53C382.39 25.76 382.27 25.68 381.52 25.69L370.52 25.78L360.13 25.85C359.43 25.85 359.25 26.04 359.26 26.71C359.34 33.0833 359.417 39.45 359.49 45.81C359.49 48.18 359.49 50.56 359.56 52.93C359.56 56.87 359.63 60.8 359.68 64.74C359.68 66.23 359.73 67.74 359.77 69.2C359.77 69.53 359.77 69.9 360.23 69.93C361.07 69.93 361.92 69.93 362.76 69.93C363 69.93 363.25 69.93 363.49 69.93C364.67 69.93 365.85 70.02 367.03 70.01C368.21 70 369.39 69.92 370.58 69.89C371.58 69.89 372.49 69.89 373.45 69.89C374.65 69.89 375.85 69.95 377.04 69.96C378.51 69.96 379.97 69.96 381.43 69.96C382.23 69.96 382.49 69.79 382.49 68.96C382.49 67.34 382.49 65.72 382.49 64.1C382.49 63.43 382.55 62.77 382.58 62C382.34 62.0509 382.106 62.1245 381.88 62.22C380.24 63.07 378.61 63.92 376.98 64.79C375.35 65.66 373.51 66.68 371.78 67.64C371.717 67.6898 371.644 67.7248 371.566 67.7424C371.488 67.7599 371.407 67.7595 371.329 67.7412C371.251 67.723 371.178 67.6873 371.116 67.6368C371.054 67.5864 371.004 67.5225 370.97 67.45C370.864 67.2959 370.767 67.1356 370.68 66.97C369.62 64.97 368.57 63.06 367.5 61.12C366.43 59.18 365.1 57.06 364 55C363.213 53.6666 362.457 52.3033 361.73 50.91C361.37 50.24 360.73 49.61 361.38 48.78C361.38 48.78 361.38 48.72 361.32 48.66C361.254 48.6698 361.186 48.6698 361.12 48.66C360.93 48.6 360.65 48.58 360.6 48.45C360.581 48.3538 360.585 48.2542 360.613 48.16C360.641 48.0659 360.691 47.98 360.76 47.91C361.109 47.6056 361.487 47.3375 361.89 47.11C362.33 46.86 362.82 46.71 363.26 46.47C364.57 45.76 365.86 45.02 367.16 44.3C367.43 44.15 367.72 44.06 367.98 43.92C368.7 43.53 369.41 43.12 370.13 42.72C370.85 42.32 371.66 41.88 372.43 41.46C372.74 41.29 373.03 41.09 373.33 40.91C373.63 40.73 373.74 40.64 373.85 40.7C373.942 40.7552 374.021 40.8307 374.08 40.9208C374.139 41.0109 374.177 41.1132 374.19 41.22C374.19 41.38 373.98 41.58 373.82 41.69C373.36 41.98 372.82 42.24 372.4 42.51L372.47 42.67C372.748 42.6998 373.03 42.6677 373.294 42.5761C373.559 42.4845 373.8 42.3356 374 42.14C374.57 41.69 374.64 41.71 375 42.34C375.63 43.52 376.35 44.65 377 45.84C377.52 46.84 378.38 47.76 378.24 49.14C378.58 49.03 378.9 48.95 379.24 48.83C379.58 48.71 379.89 48.64 380.1 48.99C380.61 49.86 381.1 50.73 381.58 51.64C381.92 52.34 381.79 52.64 381.14 53.07L380.19 53.6ZM372.19 78.6C372.322 78.7423 372.446 78.8926 372.56 79.05L374.83 83.05C375.21 83.71 375.5 83.7 375.89 83.05C376.63 81.6833 377.397 80.2966 378.19 78.89C378.27 78.7278 378.34 78.5608 378.4 78.39L378.66 78.59C378.66 78.83 378.72 79.07 378.72 79.31C378.72 80.47 378.72 81.64 378.72 82.81C378.72 83.21 378.79 83.66 379.29 83.74C379.951 83.8525 380.62 83.9127 381.29 83.92C382.46 83.92 383.62 83.85 384.78 83.92C385.565 84.034 386.365 83.9374 387.1 83.64C387.19 83.64 387.35 83.64 387.47 83.64C387.832 83.7532 388.204 83.8336 388.58 83.88C390.04 83.88 391.5 83.94 392.96 83.88C393.855 83.8428 394.744 83.7087 395.61 83.48C397.74 82.88 398.61 80.82 398.67 78.85C398.675 77.558 398.233 76.3041 397.42 75.3C397.126 74.893 396.742 74.5595 396.298 74.3253C395.854 74.0912 395.362 73.9627 394.86 73.95C392.62 73.87 390.38 73.95 388.13 73.95C388.026 73.9353 387.921 73.9447 387.821 73.9775C387.722 74.0104 387.631 74.0657 387.557 74.1393C387.482 74.2128 387.426 74.3026 387.392 74.4016C387.358 74.5006 387.347 74.6061 387.36 74.71C387.36 75.54 387.36 76.36 387.36 77.19C387.36 78.92 387.36 80.65 387.36 82.38C387.36 82.38 387.31 82.38 387.28 82.45V82.3C386.815 82.1942 386.344 82.1173 385.87 82.07C384.87 82.07 383.87 82.07 382.87 82.07C382.23 82.07 382.02 81.88 381.99 81.24C381.98 81.0534 381.98 80.8665 381.99 80.68C381.99 79.92 382.2 79.8 382.99 79.84C384.1 79.84 385.21 79.9 386.31 79.84C386.96 79.84 387.11 79.6 387.07 78.98C387.01 78.11 386.89 77.98 386.19 77.98H383.43C382 78.08 381.9 78 382 76.57C382 75.89 382.18 75.71 382.84 75.7C384.02 75.7 385.2 75.7 386.38 75.7C386.81 75.7 387.03 75.58 387.03 75.14C387.03 74.95 387.03 74.76 387.03 74.57C387.03 74.13 386.82 73.94 386.36 73.94C384.12 73.94 381.88 73.94 379.63 74C379.242 73.986 378.859 74.0905 378.533 74.2995C378.206 74.5085 377.95 74.8122 377.8 75.17C377.38 76.01 376.89 76.81 376.43 77.63C376.23 78 375.98 78.03 375.75 77.63C375.3 76.94 374.89 76.22 374.44 75.53C374.181 75.0939 373.883 74.6822 373.55 74.3C373.263 73.9796 372.884 73.7564 372.465 73.6614C372.045 73.5664 371.607 73.6044 371.21 73.77C370.818 73.9232 370.488 74.201 370.269 74.5606C370.05 74.9201 369.956 75.3415 370 75.76C370 77.12 370 78.47 370 79.82C370 80.82 370.08 81.75 370 82.7C370 83.83 370.28 84.17 371.37 83.98C371.465 83.974 371.557 83.9486 371.641 83.9054C371.725 83.8622 371.8 83.8022 371.86 83.7291C371.92 83.6559 371.964 83.5712 371.99 83.4802C372.016 83.3891 372.023 83.2938 372.01 83.2C372.01 81.92 372.01 80.64 372.01 79.36C372.08 79.17 372.12 79 372.16 78.63L372.19 78.6ZM354.4 79.93L354.26 80.01C354.155 79.9296 354.06 79.8354 353.98 79.73C353.15 78.18 352.3 76.63 351.5 75.06C351.331 74.6796 351.047 74.3615 350.689 74.15C350.33 73.9385 349.915 73.8441 349.5 73.88C349.027 73.8147 348.545 73.8945 348.119 74.1088C347.692 74.323 347.34 74.6617 347.11 75.08C345.83 77.81 344.62 80.56 343.4 83.32C343.18 83.82 343.4 84.13 343.96 84.11C344.3 84.11 344.64 84.03 344.96 83.99C345.78 83.91 346.03 83.71 346.19 82.93C346.215 82.6825 346.331 82.4531 346.516 82.2867C346.701 82.1202 346.941 82.0287 347.19 82.03C348.19 82.03 349.1 82.03 350.05 81.95C351 81.87 351.34 82.07 351.73 82.95C351.808 83.1827 351.916 83.4045 352.05 83.61C352.097 83.6867 352.16 83.7529 352.234 83.8045C352.308 83.8561 352.392 83.892 352.48 83.91C354.05 83.91 355.63 83.91 357.2 83.91C357.72 83.91 357.95 83.56 357.94 83.04C357.94 81.94 357.94 80.85 357.94 79.76C357.94 78.67 357.89 77.76 357.89 76.76C357.89 75.76 358.1 75.65 358.98 75.67C359.281 75.6664 359.582 75.6831 359.88 75.72C360.78 75.83 361.09 76.26 361.12 77.41C361.137 77.585 361.118 77.7616 361.065 77.9293C361.012 78.097 360.927 78.2525 360.813 78.3866C360.699 78.5207 360.56 78.6308 360.403 78.7104C360.247 78.79 360.075 78.8374 359.9 78.85C359.57 78.85 359.23 78.85 358.9 78.85C358.31 78.85 358.2 79.01 358.49 79.53C359.24 80.87 360.02 82.21 360.83 83.53C360.921 83.6418 361.033 83.734 361.16 83.8011C361.287 83.8681 361.427 83.9086 361.57 83.92C362.263 83.9551 362.957 83.9551 363.65 83.92C363.949 83.9099 364.245 83.8595 364.53 83.77C365.04 83.59 365.1 83.37 364.81 82.93C364.25 82.1 363.68 81.28 363.12 80.46C363.047 80.3858 362.992 80.2958 362.96 80.1968C362.928 80.0979 362.92 79.9928 362.935 79.89C362.951 79.7871 362.99 79.6893 363.05 79.6043C363.11 79.5192 363.188 79.4493 363.28 79.4C363.401 79.3106 363.528 79.2304 363.66 79.16C364.022 78.9762 364.338 78.7139 364.585 78.3921C364.833 78.0703 365.005 77.6972 365.089 77.3002C365.174 76.9033 365.168 76.4924 365.073 76.0979C364.978 75.7033 364.796 75.335 364.54 75.02C364.216 74.6769 363.821 74.4094 363.382 74.2365C362.943 74.0637 362.471 73.9897 362 74.02C359.67 73.96 357.34 74.02 355 74.02C354.47 74.02 354.32 74.29 354.33 74.76C354.33 75.76 354.33 76.69 354.39 77.65C354.41 78.47 354.4 79.2 354.4 79.93ZM367.53 70.93V71C365.35 71 363.16 71 360.98 71C360.05 71 359.9 71.16 359.98 72.09C359.98 72.71 360.45 72.96 361.33 72.92L364.81 72.81C365.38 72.81 365.59 73 365.6 73.58C365.6 75.18 365.6 76.78 365.6 78.38C365.6 79.98 365.65 81.66 365.69 83.29C365.69 83.94 365.9 84.07 366.55 83.98C366.813 83.9651 367.077 83.9651 367.34 83.98C367.86 83.98 368.34 84.06 368.91 83.98C369.59 83.98 369.79 83.7 369.79 82.98V81.11C369.79 79.74 369.79 78.37 369.79 77C369.79 75.63 369.79 74.44 369.85 73.17C369.85 72.83 370.03 72.68 370.4 72.69C371.5 72.69 372.61 72.76 373.72 72.78C373.945 72.7765 374.169 72.753 374.39 72.71C375.08 72.59 375.24 72.32 375.18 71.48C375.18 70.84 374.69 70.88 374.24 70.88L367.53 70.93ZM395.21 88.17C395.49 88.54 395.72 88.89 396 89.17C396.15 89.2827 396.32 89.3674 396.5 89.42C396.53 89.2513 396.53 89.0786 396.5 88.91C396.19 88.09 395.87 87.27 395.5 86.46C395.4 86.23 395.15 86.07 394.96 85.88C394.78 86.08 394.52 86.24 394.42 86.47C394.06 87.27 393.75 88.1 393.42 88.93C393.387 89.1085 393.387 89.2915 393.42 89.47C393.58 89.34 393.82 89.25 393.89 89.08C394.12 88.57 394.28 88.02 394.49 87.5C394.592 87.2806 394.705 87.0669 394.83 86.86C395.43 87.37 395.47 87.69 395.21 88.17ZM378.27 53.44H377.98C377.33 53.55 377.24 53.44 377.33 52.83C377.33 52.48 377.21 52.39 376.92 52.39C376.63 52.39 376.4 52.19 376.52 51.88C376.64 51.57 376.81 51.09 376.39 50.73C376.33 50.73 376.39 50.45 376.45 50.31C376.474 50.1777 376.507 50.0474 376.55 49.92L376.36 49.79C376.17 50 375.82 50.22 375.83 50.42C375.817 51.0478 375.936 51.6714 376.18 52.25C376.617 52.9889 377.123 53.6852 377.69 54.33C377.797 54.4886 377.951 54.6101 378.13 54.6782C378.309 54.7462 378.505 54.7573 378.69 54.71C378.523 54.5229 378.382 54.3144 378.27 54.09C378.238 53.8745 378.238 53.6555 378.27 53.44ZM377.33 86C376.908 85.8446 376.442 85.8626 376.034 86.05C375.625 86.2374 375.307 86.579 375.15 87C375.079 87.4371 375.079 87.8828 375.15 88.32C375.15 89.08 375.98 89.03 376.3 89.49C376.37 89.59 376.72 89.49 376.95 89.49V89.31C376.523 89.2478 376.136 89.0224 375.871 88.6812C375.606 88.34 375.484 87.9094 375.53 87.48C375.57 86.3 376.57 86.35 377.33 86ZM386.01 86.1C386.29 86.31 386.68 86.47 386.83 86.76C386.98 87.05 386.77 87.52 386.34 87.76C386.277 87.8193 386.23 87.8932 386.202 87.9751C386.174 88.057 386.166 88.1445 386.18 88.23C386.299 88.5645 386.464 88.8809 386.67 89.17C386.73 89.26 386.92 89.27 387.05 89.31C387.05 89.18 387.16 89.01 387.11 88.92C386.981 88.7215 386.919 88.4863 386.936 88.2499C386.952 88.0135 387.045 87.7889 387.2 87.61C387.371 87.407 387.46 87.1466 387.447 86.8812C387.434 86.6158 387.32 86.3653 387.13 86.18C386.72 85.73 386.32 86 386 86.14L386.01 86.1ZM344.15 87.77C343.76 87.59 343.81 87.15 343.92 86.77C344.03 86.39 343.92 86.2 343.63 86.18C343.52 86.18 343.28 86.49 343.27 86.66C343.27 87.45 343.27 88.24 343.33 89.03C343.33 89.2 343.54 89.36 343.66 89.53C343.751 89.3599 343.828 89.1826 343.89 89C344 88.6 344.05 88.24 344.15 87.77ZM352.61 86.14C352.02 85.79 351.67 85.95 351.61 86.6C351.61 87.46 351.61 88.32 351.61 89.19C351.61 89.3 351.61 89.46 351.61 89.51C351.751 89.5963 351.902 89.6635 352.06 89.71C352.06 89.56 352.24 89.4 352.22 89.27C352.055 88.751 352.005 88.2026 352.072 87.6622C352.139 87.1219 352.323 86.6026 352.61 86.14V86.14ZM368.77 86.14L368.95 86.05C368.742 85.9651 368.523 85.9112 368.3 85.89C368.16 85.89 367.92 86.1 367.93 86.21C367.93 87.03 368.05 87.84 368.14 88.66C368.185 88.897 368.245 89.1308 368.32 89.36H368.56L368.77 86.14ZM361.14 86C360.732 87.0925 360.765 88.3007 361.23 89.37C361.541 88.2633 361.509 87.0885 361.14 86V86ZM385.21 89.25L385.42 89.18C385.42 89.05 385.42 88.93 385.42 88.81C385.42 88.04 385.42 87.27 385.42 86.5C385.385 86.3003 385.318 86.1077 385.22 85.93C385.09 86.1 384.87 86.28 384.86 86.46C384.86 87.21 384.86 87.97 384.86 88.72C384.94 88.9273 385.059 89.1174 385.21 89.28V89.25ZM353.53 86.35C354.53 87.24 354.4 88.21 353.73 89.25C353.926 89.1946 354.109 89.0996 354.267 88.9709C354.425 88.8422 354.554 88.6824 354.648 88.5015C354.742 88.3207 354.797 88.1225 354.812 87.9193C354.826 87.716 354.798 87.5121 354.73 87.32C354.57 86.61 354.13 86.23 353.53 86.38V86.35ZM378 89C378.238 88.8859 378.444 88.7148 378.6 88.5018C378.756 88.2888 378.856 88.0406 378.893 87.7792C378.93 87.5179 378.901 87.2515 378.81 87.0039C378.719 86.7563 378.568 86.5351 378.37 86.36C378.27 86.26 378.08 86.26 377.93 86.22C377.93 86.36 377.93 86.55 377.93 86.65C378.124 86.8947 378.252 87.1846 378.303 87.4925C378.353 87.8004 378.325 88.1161 378.22 88.41C378.17 88.63 378.07 88.82 378 89ZM369.3 44.49L369.17 44.26L367.06 45.4L367.15 45.57C367.89 45.27 368.8 45.31 369.28 44.51L369.3 44.49ZM364.13 47L362.38 47.87C362.552 47.9369 362.735 47.9672 362.919 47.959C363.103 47.9508 363.283 47.9042 363.448 47.8223C363.612 47.7404 363.758 47.6249 363.876 47.4833C363.993 47.3417 364.08 47.1771 364.13 47V47ZM369.93 43.83L370 44C371 43.82 371.59 43.5 371.69 42.86L369.93 43.83ZM366.58 45.71C366.05 45.94 365.49 45.91 365.27 46.5C365.94 46.68 366.29 46.47 366.58 45.75V45.71ZM384.58 61.07L384.49 60.86L383.58 61.22L383.66 61.42L384.58 61.07ZM344.21 89.56C344.7 89.91 344.82 89.9 345.1 89.44L344.21 89.56Z" fill="black"/>
<path d="M380.19 53.6L381.03 53.07C381.68 52.63 381.81 52.34 381.47 51.64C381 50.73 380.5 49.86 380 49C379.79 48.65 379.47 48.72 379.14 48.84C378.81 48.96 378.52 49.04 378.14 49.15C378.28 47.77 377.42 46.87 376.9 45.85C376.3 44.66 375.58 43.53 374.9 42.35C374.55 41.72 374.48 41.7 373.9 42.15C373.699 42.3406 373.459 42.4851 373.197 42.5731C372.934 42.6612 372.655 42.6909 372.38 42.66L372.31 42.5C372.78 42.23 373.31 41.97 373.73 41.68C373.89 41.57 374.1 41.37 374.1 41.21C374.087 41.1032 374.049 41.0009 373.99 40.9108C373.931 40.8207 373.853 40.7452 373.76 40.69C373.65 40.63 373.41 40.81 373.24 40.9C373.07 40.99 372.65 41.28 372.34 41.45C371.57 41.87 370.8 42.28 370.04 42.71C369.28 43.14 368.61 43.52 367.89 43.91C367.63 44.05 367.34 44.14 367.07 44.29C365.77 45.01 364.48 45.75 363.17 46.46C362.73 46.7 362.24 46.85 361.8 47.1C361.397 47.3275 361.019 47.5956 360.67 47.9C360.601 47.97 360.551 48.0559 360.523 48.15C360.495 48.2442 360.491 48.3437 360.51 48.44C360.51 48.57 360.84 48.59 361.03 48.65C361.096 48.6598 361.164 48.6598 361.23 48.65C361.23 48.71 361.3 48.76 361.29 48.77C360.65 49.6 361.29 50.23 361.64 50.9C362.433 52.3 363.22 53.6666 364 55C365.14 57 366.31 59 367.44 61.09C368.57 63.18 369.52 65 370.58 67C370.667 67.1656 370.764 67.3259 370.87 67.48C370.904 67.5525 370.954 67.6164 371.016 67.6668C371.078 67.7172 371.151 67.753 371.229 67.7712C371.307 67.7895 371.388 67.7899 371.466 67.7724C371.544 67.7548 371.618 67.7198 371.68 67.67C373.407 66.71 375.14 65.76 376.88 64.82C378.51 63.95 380.14 63.1 381.78 62.25C382.006 62.1545 382.24 62.0808 382.48 62.03C382.48 62.8 382.39 63.46 382.39 64.13C382.39 65.75 382.39 67.37 382.39 68.99C382.39 69.81 382.13 69.99 381.33 69.99C379.87 69.99 378.41 69.99 376.94 69.99C375.75 69.99 374.55 69.93 373.35 69.92C372.35 69.92 371.44 69.92 370.48 69.92C369.29 69.92 368.11 70.04 366.93 70.04C365.75 70.04 364.57 69.99 363.39 69.96C363.15 69.96 362.9 69.96 362.66 69.96C361.82 69.96 360.97 69.96 360.13 69.96C359.7 69.96 359.67 69.56 359.67 69.23C359.67 67.75 359.59 66.23 359.58 64.77C359.58 60.83 359.5 56.9 359.46 52.96C359.46 50.59 359.46 48.21 359.39 45.84C359.31 39.4733 359.233 33.1066 359.16 26.74C359.16 26.07 359.33 25.88 360.03 25.88L370.42 25.81L381.42 25.72C382.17 25.72 382.27 25.79 382.29 26.56C382.29 28.16 382.29 29.76 382.29 31.36C382.29 34.83 382.29 38.29 382.29 41.76C382.29 45.76 382.29 49.67 382.29 53.63C382.315 54.3027 382.479 54.963 382.77 55.57C383.45 57.01 384.23 58.41 384.96 59.83C385.02 59.93 385.11 60.04 385.11 60.13C385.082 60.2819 385.035 60.4296 384.97 60.57C384.85 60.5 384.68 60.46 384.63 60.36C384.1 59.36 383.63 58.36 383.08 57.36C382.53 56.36 382 55.09 381.42 54C381.33 53.83 381 53.76 380.77 53.71C380.594 53.7043 380.418 53.728 380.25 53.78L380.19 53.6ZM377.19 33.51V33.42C377.54 33.42 377.9 33.42 378.26 33.42C378.93 33.42 379.01 33.25 378.91 32.57C378.62 30.64 376.62 29.06 374.91 28.63C374.383 28.5585 373.864 28.438 373.36 28.27C372.859 28.0614 372.302 28.0297 371.78 28.18C371.574 28.205 371.366 28.205 371.16 28.18C370.642 28.1252 370.121 28.1052 369.6 28.12C368.613 28.1485 367.632 28.2962 366.68 28.56C365.605 28.8799 364.633 29.4765 363.86 30.29C363.221 30.9493 362.814 31.7988 362.7 32.71C362.64 33.39 362.78 33.55 363.47 33.55H368.16L377.19 33.51ZM372.71 36.65C372.682 36.9459 372.716 37.2445 372.812 37.5259C372.908 37.8073 373.063 38.0649 373.267 38.2817C373.47 38.4984 373.718 38.6693 373.992 38.7828C374.267 38.8963 374.563 38.9499 374.86 38.94C375.442 38.9102 375.994 38.6694 376.412 38.2627C376.829 37.8561 377.085 37.3112 377.13 36.73C377.166 36.0844 376.947 35.4505 376.521 34.9644C376.095 34.4783 375.495 34.1787 374.85 34.13C374.541 34.1457 374.239 34.2246 373.962 34.3619C373.684 34.4992 373.438 34.6919 373.239 34.9282C373.039 35.1644 372.89 35.4391 372.801 35.7353C372.712 36.0314 372.684 36.3428 372.72 36.65H372.71ZM366.86 39.05C367.409 39.0386 367.933 38.8215 368.33 38.4419C368.726 38.0623 368.965 37.5477 369 37C369.066 36.3834 368.896 35.7648 368.526 35.2679C368.155 34.771 367.61 34.4324 367 34.32C366.692 34.2995 366.384 34.3448 366.095 34.453C365.806 34.5612 365.543 34.7298 365.325 34.9474C365.106 35.1651 364.937 35.4268 364.827 35.7153C364.718 36.0037 364.671 36.3121 364.69 36.62C364.619 36.9318 364.624 37.256 364.705 37.5655C364.785 37.875 364.938 38.1608 365.152 38.3988C365.365 38.6368 365.633 38.8201 365.932 38.9334C366.231 39.0467 366.553 39.0867 366.87 39.05H366.86Z" fill="white"/>
<path d="M372.16 78.6299C372.16 78.9699 372.08 79.1699 372.08 79.3599C372.08 80.6399 372.08 81.9199 372.08 83.1999C372.093 83.2937 372.086 83.3891 372.06 83.4801C372.034 83.5711 371.99 83.6558 371.929 83.729C371.869 83.8021 371.795 83.8621 371.711 83.9053C371.627 83.9485 371.534 83.9739 371.44 83.9799C370.35 84.1699 370.02 83.8299 370.07 82.6999C370.07 81.6999 370.07 80.7899 370.07 79.8199C370.07 78.4699 370.07 77.1199 370.07 75.7599C370.034 75.3542 370.128 74.9477 370.338 74.5989C370.549 74.2502 370.864 73.9774 371.24 73.8199C371.637 73.6543 372.075 73.6163 372.495 73.7113C372.914 73.8063 373.293 74.0295 373.58 74.3499C373.913 74.7321 374.211 75.1438 374.47 75.5799C374.92 76.2699 375.33 76.9899 375.78 77.6799C376.01 78.0399 376.26 78.0099 376.46 77.6799C376.92 76.8599 377.41 76.0599 377.83 75.2199C377.968 74.8624 378.211 74.5548 378.527 74.3372C378.843 74.1197 379.217 74.0021 379.6 73.9999C381.85 73.9999 384.09 73.9999 386.33 73.9399C386.79 73.9399 387 74.1299 387 74.5699C387 74.7599 387 74.9499 387 75.1399C387 75.5799 386.78 75.7099 386.35 75.6999C385.17 75.6999 383.99 75.6999 382.81 75.6999C382.15 75.6999 382 75.8899 381.97 76.5699C381.9 77.9799 381.97 78.0799 383.43 78.0599H386.19C386.89 78.0599 387.01 78.1799 387.07 79.0599C387.07 79.6799 386.96 79.8999 386.31 79.9199C385.21 79.9199 384.1 79.9199 382.99 79.9199C382.22 79.9199 381.99 79.9999 381.99 80.7599C381.98 80.9464 381.98 81.1334 381.99 81.3199C381.99 81.9599 382.23 82.1499 382.87 82.1499C383.87 82.1499 384.87 82.1499 385.87 82.1499C386.344 82.1973 386.815 82.2741 387.28 82.3799V82.5299C387.28 82.5299 387.36 82.4799 387.36 82.4599C387.36 80.7299 387.36 78.9999 387.36 77.2699C387.36 76.4399 387.36 75.6199 387.36 74.7899C387.347 74.686 387.357 74.5805 387.392 74.4815C387.426 74.3825 387.482 74.2927 387.557 74.2192C387.631 74.1456 387.722 74.0903 387.821 74.0574C387.921 74.0246 388.026 74.0152 388.13 74.0299C390.38 74.0299 392.62 73.9499 394.86 74.0299C395.362 74.0426 395.854 74.1711 396.298 74.4052C396.742 74.6394 397.126 74.9729 397.42 75.3799C398.233 76.384 398.675 77.6379 398.67 78.9299C398.67 80.9299 397.74 82.9299 395.61 83.5599C394.744 83.7886 393.855 83.9228 392.96 83.9599C391.5 84.0199 390.04 83.9599 388.58 83.9599C388.204 83.9135 387.832 83.8331 387.47 83.7199C387.35 83.7199 387.19 83.6499 387.1 83.7199C386.365 84.0173 385.564 84.1139 384.78 83.9999C383.62 83.9999 382.46 84.0599 381.29 83.9999C380.62 83.9926 379.951 83.9324 379.29 83.8199C378.79 83.7399 378.73 83.2899 378.72 82.8899C378.72 81.7199 378.72 80.5499 378.72 79.3899C378.72 79.1499 378.72 78.9099 378.66 78.6699L378.4 78.4699C378.34 78.6407 378.27 78.8077 378.19 78.9699C377.397 80.3232 376.62 81.6899 375.86 83.0699C375.47 83.7599 375.18 83.7699 374.8 83.0699L372.53 79.0699C372.416 78.9159 372.292 78.7689 372.16 78.6299V78.6299ZM391 78.9999C391 79.5199 391 79.9999 391.07 80.5799C391.18 82.1899 391.19 82.1899 392.81 82.0899C393.332 82.1033 393.84 81.9209 394.234 81.5785C394.628 81.2361 394.88 80.7586 394.94 80.2399C395.067 79.3678 395.033 78.4797 394.84 77.6199C394.65 76.8399 394.35 75.9199 393.35 75.7399C392.864 75.6954 392.376 75.6954 391.89 75.7399C391.17 75.7399 391.05 75.8599 391.02 76.5899C390.99 77.3199 391 78.1599 391 78.9999Z" fill="white"/>
<path d="M354.4 79.9299C354.4 79.1999 354.4 78.4699 354.4 77.7399C354.4 76.7399 354.4 75.8099 354.34 74.8499C354.34 74.3799 354.48 74.1099 355.01 74.1099C357.35 74.1099 359.68 74.0099 362.01 74.1099C362.481 74.0797 362.952 74.1536 363.391 74.3264C363.83 74.4993 364.226 74.7668 364.55 75.1099C364.806 75.4249 364.988 75.7932 365.083 76.1878C365.178 76.5823 365.183 76.9932 365.099 77.3901C365.015 77.7871 364.842 78.1602 364.595 78.482C364.348 78.8038 364.032 79.0661 363.67 79.2499C363.537 79.3203 363.41 79.4005 363.29 79.4899C363.198 79.5392 363.119 79.6091 363.059 79.6942C363 79.7792 362.96 79.877 362.945 79.9799C362.929 80.0827 362.938 80.1878 362.97 80.2867C363.002 80.3857 363.057 80.4758 363.13 80.5499C363.69 81.3699 364.26 82.1899 364.82 83.0199C365.11 83.4599 365.05 83.6799 364.54 83.8599C364.255 83.9494 363.959 83.9999 363.66 84.0099C362.967 84.045 362.273 84.045 361.58 84.0099C361.436 83.9985 361.297 83.958 361.17 83.891C361.043 83.8239 360.93 83.7317 360.84 83.6199C360.03 82.3099 359.25 80.9699 358.5 79.6199C358.21 79.0999 358.32 78.9499 358.91 78.9399C359.25 78.9399 359.59 78.9399 359.91 78.9399C360.085 78.9273 360.256 78.8799 360.413 78.8003C360.57 78.7207 360.709 78.6107 360.823 78.4765C360.936 78.3424 361.022 78.1869 361.075 78.0192C361.128 77.8515 361.146 77.6749 361.13 77.4999C361.13 76.3499 360.79 75.9199 359.89 75.8099C359.591 75.773 359.291 75.7563 358.99 75.7599C358.11 75.7599 357.89 75.9499 357.9 76.8499C357.91 77.7499 357.9 78.8499 357.95 79.8499C358 80.8499 357.95 82.0299 357.95 83.1299C357.95 83.6499 357.73 83.9899 357.21 83.9999C355.64 83.9999 354.06 83.9999 352.49 83.9999C352.401 83.9819 352.318 83.946 352.244 83.8944C352.17 83.8428 352.107 83.7766 352.06 83.6999C351.925 83.4944 351.818 83.2726 351.74 83.0399C351.35 82.1199 351.05 81.9499 350.06 82.0399C349.07 82.1299 348.15 82.0399 347.2 82.1199C346.951 82.1186 346.711 82.2102 346.526 82.3766C346.341 82.543 346.225 82.7724 346.2 83.0199C346.04 83.7999 345.79 84.0199 344.97 84.0799C344.64 84.0799 344.3 84.1799 343.97 84.1999C343.42 84.1999 343.19 83.9099 343.41 83.4099C344.63 80.6499 345.84 77.8999 347.12 75.1699C347.35 74.7516 347.702 74.4129 348.128 74.1987C348.555 73.9844 349.037 73.9047 349.51 73.9699C349.925 73.934 350.34 74.0284 350.699 74.2399C351.057 74.4514 351.341 74.7695 351.51 75.1499C352.31 76.7199 353.16 78.2699 353.99 79.8199C354.07 79.9253 354.164 80.0195 354.27 80.0999L354.4 79.9299ZM348.85 77.2199C348.7 77.2899 348.63 77.2999 348.61 77.3399C348.24 78.1099 347.85 78.8799 347.52 79.6599C347.4 79.9699 347.6 80.1699 347.93 80.1699C348.509 80.2 349.09 80.2 349.67 80.1699C349.8 80.1699 350.02 79.8699 349.99 79.7899C349.64 78.9099 349.24 78.0699 348.85 77.2199V77.2199Z" fill="white"/>
<path d="M367.53 70.8899H374.2C374.65 70.8899 375.09 70.8899 375.14 71.4899C375.2 72.3299 375.04 72.5999 374.35 72.7199C374.129 72.763 373.905 72.7864 373.68 72.7899C372.57 72.7899 371.46 72.7899 370.36 72.6999C369.99 72.6999 369.82 72.8399 369.81 73.1799C369.81 74.4499 369.76 75.7299 369.75 77.0099C369.74 78.2899 369.75 79.7499 369.75 81.1199V82.9899C369.75 83.6799 369.55 83.9299 368.87 83.9899C368.35 83.9899 367.87 83.9899 367.3 83.9899C367.037 83.975 366.773 83.975 366.51 83.9899C365.86 84.0799 365.67 83.9899 365.65 83.2999C365.65 81.6699 365.58 80.0299 365.56 78.3899C365.54 76.7499 365.56 75.1899 365.56 73.5899C365.56 73.0099 365.34 72.7999 364.77 72.8199L361.29 72.9299C360.41 72.9299 359.98 72.7199 359.94 72.0999C359.87 71.1699 360.02 71.0099 360.94 71.0099C363.12 71.0099 365.31 71.0099 367.49 71.0099L367.53 70.8899Z" fill="white"/>
<path d="M395.21 88.1699C395.47 87.6899 395.43 87.3699 394.91 86.8799C394.785 87.0869 394.672 87.3005 394.57 87.5199C394.36 88.0399 394.2 88.5899 393.97 89.0999C393.9 89.2699 393.66 89.3599 393.5 89.4899C393.467 89.3114 393.467 89.1284 393.5 88.9499C393.81 88.1199 394.12 87.2899 394.5 86.4899C394.6 86.2599 394.86 86.0999 395.04 85.8999C395.23 86.0899 395.48 86.2499 395.58 86.4799C395.93 87.2899 396.25 88.1099 396.58 88.9299C396.61 89.0986 396.61 89.2712 396.58 89.4399C396.4 89.3874 396.231 89.3027 396.08 89.1899C395.72 88.8899 395.49 88.5399 395.21 88.1699Z" fill="white"/>
<path d="M378.27 53.4401C378.236 53.6621 378.236 53.888 378.27 54.1101C378.382 54.3345 378.523 54.543 378.69 54.7301C378.505 54.7774 378.309 54.7662 378.13 54.6982C377.951 54.6302 377.797 54.5086 377.69 54.3501C377.123 53.7053 376.618 53.009 376.18 52.2701C375.936 51.6915 375.817 51.0679 375.83 50.4401C375.83 50.2401 376.17 50.0201 376.36 49.8101L376.55 49.9401C376.507 50.0675 376.474 50.1978 376.45 50.3301C376.45 50.4701 376.33 50.7001 376.39 50.7501C376.81 51.1101 376.69 51.4801 376.52 51.9001C376.35 52.3201 376.58 52.4001 376.92 52.4101C377.26 52.4201 377.37 52.5001 377.33 52.8501C377.24 53.5001 377.33 53.5701 377.98 53.4601L378.27 53.4401Z" fill="white"/>
<path d="M377.33 85.9999C376.57 86.3099 375.57 86.2599 375.53 87.4699C375.503 87.6895 375.519 87.9124 375.578 88.1257C375.637 88.339 375.737 88.5385 375.874 88.7125C376.011 88.8865 376.181 89.0316 376.374 89.1393C376.568 89.247 376.78 89.3152 377 89.3399V89.5199C376.77 89.5199 376.42 89.5999 376.35 89.5199C376.03 89.0599 375.19 89.1099 375.2 88.3499C375.13 87.9128 375.13 87.4671 375.2 87.0299C375.352 86.6152 375.659 86.2759 376.057 86.0836C376.454 85.8914 376.911 85.8614 377.33 85.9999V85.9999Z" fill="white"/>
<path d="M386 86.14C386.31 86.01 386.71 85.73 387.12 86.2C387.31 86.3852 387.424 86.6358 387.437 86.9012C387.45 87.1666 387.361 87.427 387.19 87.63C387.035 87.8089 386.942 88.0335 386.926 88.2699C386.909 88.5063 386.971 88.7415 387.1 88.94C387.1 89.03 387.1 89.2 387.04 89.33C386.91 89.33 386.72 89.33 386.66 89.19C386.454 88.9009 386.289 88.5845 386.17 88.25C386.156 88.1645 386.164 88.077 386.192 87.9951C386.219 87.9132 386.267 87.8393 386.33 87.78C386.76 87.56 387.03 87.23 386.82 86.78C386.61 86.33 386.29 86.35 386 86.14Z" fill="white"/>
<path d="M344.15 87.7701C344.05 88.2401 343.99 88.6001 343.89 88.9501C343.828 89.1327 343.751 89.31 343.66 89.4801C343.54 89.3101 343.35 89.1501 343.33 88.9801C343.33 88.1901 343.25 87.4001 343.27 86.6101C343.27 86.4401 343.52 86.1201 343.63 86.1301C343.96 86.1301 344 86.4101 343.92 86.7201C343.84 87.0301 343.76 87.5901 344.15 87.7701Z" fill="white"/>
<path d="M352.61 86.1399C352.346 86.613 352.187 87.1375 352.144 87.6776C352.101 88.2177 352.175 88.7608 352.36 89.2699C352.36 89.3999 352.25 89.5599 352.2 89.7099C352.042 89.6634 351.891 89.5962 351.75 89.5099C351.69 89.4599 351.75 89.2999 351.75 89.1899C351.75 88.3199 351.75 87.4599 351.75 86.5999C351.67 85.9999 352 85.7899 352.61 86.1399Z" fill="white"/>
<path d="M368.77 86.1799L368.56 89.3899H368.32C368.244 89.1608 368.184 88.9269 368.14 88.6899C368.05 87.8699 367.97 87.0599 367.93 86.2399C367.93 86.1299 368.16 85.9299 368.3 85.9199C368.523 85.9411 368.742 85.995 368.95 86.0799L368.77 86.1799Z" fill="white"/>
<path d="M361.14 86C361.509 87.0886 361.54 88.2633 361.23 89.37C360.764 88.3008 360.732 87.0926 361.14 86V86Z" fill="white"/>
<path d="M385.21 89.28C385.104 89.1173 385.026 88.9382 384.98 88.75C384.98 88 384.92 87.24 384.98 86.49C384.98 86.31 385.21 86.13 385.34 85.96C385.437 86.1377 385.505 86.3303 385.54 86.53C385.54 87.3 385.54 88.07 385.54 88.84C385.54 88.96 385.54 89.08 385.54 89.21L385.21 89.28Z" fill="white"/>
<path d="M353.53 86.3799C354.13 86.2299 354.53 86.6099 354.76 87.3799C354.828 87.572 354.856 87.776 354.842 87.9792C354.828 88.1824 354.772 88.3806 354.678 88.5615C354.585 88.7424 354.455 88.9021 354.297 89.0308C354.139 89.1596 353.956 89.2545 353.76 89.3099C354.4 88.2399 354.52 87.2699 353.53 86.3799Z" fill="white"/>
<path d="M378 89C378.09 88.8 378.19 88.61 378.26 88.41C378.365 88.1213 378.397 87.8108 378.351 87.5069C378.306 87.203 378.185 86.9152 378 86.67C377.93 86.57 378 86.38 378 86.24C378.15 86.24 378.34 86.24 378.44 86.38C378.631 86.5604 378.774 86.785 378.857 87.0339C378.941 87.2828 378.962 87.5484 378.918 87.8073C378.875 88.0662 378.768 88.3104 378.608 88.5184C378.448 88.7264 378.239 88.8918 378 89Z" fill="white"/>
<path d="M369.28 44.51C368.8 45.31 367.89 45.27 367.15 45.57L367.06 45.4L369.15 44.28L369.28 44.51Z" fill="white"/>
<path d="M364.13 47C364.08 47.1771 363.993 47.3417 363.876 47.4833C363.758 47.6249 363.612 47.7404 363.447 47.8223C363.283 47.9043 363.103 47.9508 362.919 47.959C362.735 47.9672 362.551 47.9369 362.38 47.87L364.13 47Z" fill="white"/>
<path d="M369.93 43.8701L371.72 42.8701C371.62 43.5101 371.08 43.8701 370.03 44.0101L369.93 43.8701Z" fill="white"/>
<path d="M366.58 45.75C366.29 46.47 365.94 46.68 365.27 46.54C365.49 46 366.05 46 366.58 45.75Z" fill="white"/>
<path d="M384.61 61.1099L383.69 61.4599L383.61 61.2599L384.52 60.8999L384.61 61.1099Z" fill="white"/>
<path d="M344.21 89.5599L345.1 89.4399C344.82 89.8999 344.7 89.9099 344.21 89.5599Z" fill="white"/>
<path d="M377.2 33.5101H368.2H363.51C362.82 33.5101 362.68 33.3501 362.74 32.6701C362.854 31.7589 363.261 30.9094 363.9 30.2501C364.672 29.4366 365.645 28.84 366.72 28.5201C367.672 28.2563 368.653 28.1086 369.64 28.0801C370.161 28.0653 370.682 28.0853 371.2 28.1401C371.406 28.1651 371.614 28.1651 371.82 28.1401C372.342 27.9898 372.899 28.0215 373.4 28.2301C373.904 28.398 374.423 28.5186 374.95 28.5901C376.66 29.0201 378.66 30.5901 378.95 32.5301C379.05 33.2101 378.95 33.3401 378.3 33.3801C377.94 33.3801 377.58 33.3801 377.23 33.3801L377.2 33.5101Z" fill="black"/>
<path d="M372.72 36.6499C372.684 36.3419 372.712 36.0297 372.802 35.7329C372.892 35.4361 373.042 35.1609 373.242 34.9246C373.443 34.6882 373.69 34.4956 373.969 34.3589C374.247 34.2222 374.551 34.1443 374.86 34.1299C375.505 34.1786 376.105 34.4782 376.531 34.9643C376.958 35.4504 377.176 36.0843 377.14 36.7299C377.095 37.3111 376.84 37.856 376.422 38.2627C376.004 38.6693 375.453 38.9101 374.87 38.9399C374.573 38.9498 374.277 38.8962 374.003 38.7827C373.728 38.6692 373.48 38.4983 373.277 38.2816C373.073 38.0648 372.919 37.8072 372.823 37.5258C372.727 37.2444 372.692 36.9458 372.72 36.6499V36.6499Z" fill="black"/>
<path d="M366.87 39.05C366.55 39.0921 366.225 39.0561 365.922 38.9451C365.619 38.8341 365.347 38.6514 365.13 38.4127C364.913 38.174 364.757 37.8862 364.675 37.574C364.593 37.2619 364.588 36.9345 364.66 36.62C364.64 36.3094 364.688 35.9982 364.799 35.7076C364.91 35.4169 365.083 35.1536 365.305 34.9354C365.526 34.7172 365.793 34.5494 366.085 34.4432C366.378 34.337 366.69 34.295 367 34.32C367.61 34.4324 368.155 34.771 368.525 35.2679C368.896 35.7648 369.066 36.3835 369 37C368.965 37.546 368.727 38.0592 368.333 38.4386C367.939 38.818 367.417 39.0361 366.87 39.05V39.05Z" fill="black"/>
<path d="M391 79C391 78.21 391 77.41 391 76.62C391 75.83 391.15 75.7899 391.87 75.7699C392.355 75.7254 392.844 75.7254 393.33 75.7699C394.33 75.9499 394.63 76.87 394.82 77.65C395.013 78.5098 395.047 79.3979 394.92 80.2699C394.832 80.7757 394.562 81.2315 394.16 81.5506C393.757 81.8696 393.252 82.0296 392.74 82C391.12 82.1 391.11 82.0999 391 80.4899C391 79.9599 391 79.43 390.93 78.91L391 79Z" fill="black"/>
<path d="M348.85 77.22C349.24 78.07 349.64 78.91 349.99 79.76C349.99 79.84 349.8 80.13 349.67 80.14C349.091 80.17 348.51 80.17 347.93 80.14C347.6 80.14 347.4 79.94 347.52 79.63C347.85 78.85 348.24 78.08 348.61 77.31C348.63 77.3 348.7 77.29 348.85 77.22Z" fill="black"/>
<path d="M669.384 78.0034C668.396 77.9717 667.414 78.1598 666.508 78.5539C666.067 78.7329 665.66 78.9876 665.306 79.3066C665.306 79.3066 665.306 79.3066 665.306 79.374V81.4636C665.306 81.5759 665.306 81.7669 665.385 81.6433L665.587 81.4074C665.893 81.1076 666.224 80.8333 666.575 80.5873L666.811 80.4525L666.98 80.3402C667.737 79.9692 668.576 79.7953 669.418 79.8346C671.283 79.8346 671.754 80.5873 671.754 81.5535C671.114 83.0027 667.542 82.6095 665.823 84.1374C665.786 84.1682 665.752 84.202 665.722 84.2385V84.2385L665.643 84.3396C665.577 84.4094 665.517 84.4846 665.463 84.5643V84.5643C665.443 84.5997 665.421 84.6335 665.396 84.6654C665.118 85.1455 664.981 85.6948 665.003 86.2494C664.979 86.8185 665.115 87.3829 665.396 87.8784V87.8784C665.396 87.8784 665.396 87.957 665.396 87.9907C665.427 88.0242 665.454 88.0621 665.475 88.1031V88.1031C665.479 88.1175 665.486 88.1309 665.496 88.1425C665.505 88.1541 665.517 88.1636 665.531 88.1705V88.1705C665.996 88.6677 666.569 89.0526 667.206 89.2958C667.842 89.5391 668.526 89.6345 669.204 89.5748C670.125 89.6012 671.046 89.5448 671.957 89.4063C672.697 89.2524 673.412 88.9952 674.08 88.6423V81.6658C674.024 79.3516 672.395 78.0034 669.384 78.0034ZM671.777 83.6206V87.6986C671.021 87.8885 670.243 87.9792 669.463 87.9683C667.879 87.9683 667.216 87.3054 667.216 86.328C667.216 84.216 670.732 84.7328 671.653 83.7891C671.693 83.7572 671.727 83.7193 671.754 83.6768V83.6768L671.777 83.6206Z" fill="white"/>
<path d="M8.1 245H5.5V250.5H0V253.2H5.5V258.7H8.1V253.2H13.6V250.5H8.1V245Z" fill="#144E52"/>
<path d="M64.5008 245H61.8008V250.5H56.3008V253.2H61.8008V258.7H64.5008V253.2H70.0008V250.5H64.5008V245Z" fill="#144E52"/>
<path d="M8.1 299.6H5.5V305.1H0V307.7H5.5V313.2H8.1V307.7H13.6V305.1H8.1V299.6Z" fill="#144E52"/>
<path d="M64.5008 299.6H61.8008V305.1H56.3008V307.7H61.8008V313.2H64.5008V307.7H70.0008V305.1H64.5008V299.6Z" fill="#144E52"/>
<path d="M120.8 245H118.2V250.5H112.7V253.2H118.2V258.7H120.8V253.2H126.3V250.5H120.8V245Z" fill="#144E52"/>
<path d="M120.8 299.6H118.2V305.1H112.7V307.7H118.2V313.2H120.8V307.7H126.3V305.1H120.8V299.6Z" fill="#144E52"/>
<path d="M177.2 245H174.5V250.5H169V253.2H174.5V258.7H177.2V253.2H182.7V250.5H177.2V245Z" fill="#144E52"/>
<path d="M177.2 299.6H174.5V305.1H169V307.7H174.5V313.2H177.2V307.7H182.7V305.1H177.2V299.6Z" fill="#144E52"/>
<path d="M233.5 245H230.9V250.5H225.4V253.2H230.9V258.7H233.5V253.2H239V250.5H233.5V245Z" fill="#144E52"/>
<path d="M233.5 299.6H230.9V305.1H225.4V307.7H230.9V313.2H233.5V307.7H239V305.1H233.5V299.6Z" fill="#144E52"/>
<path d="M8.1 354.2H5.5V359.7H0V362.3H5.5V367.8H8.1V362.3H13.6V359.7H8.1V354.2Z" fill="#144E52"/>
<path d="M64.5008 354.2H61.8008V359.7H56.3008V362.3H61.8008V367.8H64.5008V362.3H70.0008V359.7H64.5008V354.2Z" fill="#144E52"/>
<path d="M120.8 354.2H118.2V359.7H112.7V362.3H118.2V367.8H120.8V362.3H126.3V359.7H120.8V354.2Z" fill="#144E52"/>
<path d="M177.2 354.2H174.5V359.7H169V362.3H174.5V367.8H177.2V362.3H182.7V359.7H177.2V354.2Z" fill="#144E52"/>
<path d="M233.5 354.2H230.9V359.7H225.4V362.3H230.9V367.8H233.5V362.3H239V359.7H233.5V354.2Z" fill="#144E52"/>
<path d="M289.9 245H287.2V250.5H281.7V253.2H287.2V258.7H289.9V253.2H295.4V250.5H289.9V245Z" fill="#144E52"/>
<path d="M289.9 299.6H287.2V305.1H281.7V307.7H287.2V313.2H289.9V307.7H295.4V305.1H289.9V299.6Z" fill="#144E52"/>
<path d="M346.201 245H343.601V250.5H338.101V253.2H343.601V258.7H346.201V253.2H351.701V250.5H346.201V245Z" fill="#144E52"/>
<path d="M346.201 299.6H343.601V305.1H338.101V307.7H343.601V313.2H346.201V307.7H351.701V305.1H346.201V299.6Z" fill="#144E52"/>
<path d="M402.6 245H399.9V250.5H394.4V253.2H399.9V258.7H402.6V253.2H408.1V250.5H402.6V245Z" fill="#144E52"/>
<path d="M402.6 299.6H399.9V305.1H394.4V307.7H399.9V313.2H402.6V307.7H408.1V305.1H402.6V299.6Z" fill="#144E52"/>
<path d="M458.901 250.5V245H456.301V250.5H450.801V253.2H456.301V258.7H458.901V253.2H464.401V250.5H458.901Z" fill="#144E52"/>
<path d="M458.901 299.6H456.301V305.1H450.801V307.7H456.301V313.2H458.901V307.7H464.401V305.1H458.901V299.6Z" fill="#144E52"/>
<path d="M289.9 354.2H287.2V359.7H281.7V362.3H287.2V367.8H289.9V362.3H295.4V359.7H289.9V354.2Z" fill="#144E52"/>
<path d="M346.201 354.2H343.601V359.7H338.101V362.3H343.601V367.8H346.201V362.3H351.701V359.7H346.201V354.2Z" fill="#144E52"/>
<path d="M402.6 354.2H399.9V359.7H394.4V362.3H399.9V367.8H402.6V362.3H408.1V359.7H402.6V354.2Z" fill="#144E52"/>
<path d="M458.901 354.2H456.301V359.7H450.801V362.3H456.301V367.8H458.901V362.3H464.401V359.7H458.901V354.2Z" fill="#144E52"/>
<path d="M458.901 245H456.301V250.5H450.801V253.2H456.301V258.7H458.901V253.2H464.401V250.5H458.901V245Z" fill="#144E52"/>
<path d="M515.301 245H512.601V250.5H507.101V253.2H512.601V258.7H515.301V253.2H520.801V250.5H515.301V245Z" fill="#144E52"/>
<path d="M458.901 299.6H456.301V305.1H450.801V307.7H456.301V313.2H458.901V307.7H464.401V305.1H458.901V299.6Z" fill="#144E52"/>
<path d="M515.301 299.6H512.601V305.1H507.101V307.7H512.601V313.2H515.301V307.7H520.801V305.1H515.301V299.6Z" fill="#144E52"/>
<path d="M571.6 245H569V250.5H563.5V253.2H569V258.7H571.6V253.2H577.1V250.5H571.6V245Z" fill="#144E52"/>
<path d="M571.6 299.6H569V305.1H563.5V307.7H569V313.2H571.6V307.7H577.1V305.1H571.6V299.6Z" fill="#144E52"/>
<path d="M628.001 245H625.301V250.5H619.801V253.2H625.301V258.7H628.001V253.2H633.501V250.5H628.001V245Z" fill="#144E52"/>
<path d="M628.001 299.6H625.301V305.1H619.801V307.7H625.301V313.2H628.001V307.7H633.501V305.1H628.001V299.6Z" fill="#144E52"/>
<path d="M684.3 245H681.7V250.5H676.2V253.2H681.7V258.7H684.3V253.2H689.8V250.5H684.3V245Z" fill="#144E52"/>
<path d="M684.3 299.6H681.7V305.1H676.2V307.7H681.7V313.2H684.3V307.7H689.8V305.1H684.3V299.6Z" fill="#144E52"/>
<path d="M458.901 354.2H456.301V359.7H450.801V362.3H456.301V367.8H458.901V362.3H464.401V359.7H458.901V354.2Z" fill="#144E52"/>
<path d="M515.301 354.2H512.601V359.7H507.101V362.3H512.601V367.8H515.301V362.3H520.801V359.7H515.301V354.2Z" fill="#144E52"/>
<path d="M571.6 354.2H569V359.7H563.5V362.3H569V367.8H571.6V362.3H577.1V359.7H571.6V354.2Z" fill="#144E52"/>
<path d="M628.001 354.2H625.301V359.7H619.801V362.3H625.301V367.8H628.001V362.3H633.501V359.7H628.001V354.2Z" fill="#144E52"/>
<path d="M684.3 354.2H681.7V359.7H676.2V362.3H681.7V367.8H684.3V362.3H689.8V359.7H684.3V354.2Z" fill="#144E52"/>
<path d="M740.7 245H738V250.5H732.5V253.2H738V258.7H740.7V253.2H746.2V250.5H740.7V245Z" fill="#144E52"/>
<path d="M740.7 299.6H738V305.1H732.5V307.7H738V313.2H740.7V307.7H746.2V305.1H740.7V299.6Z" fill="#144E52"/>
<path d="M797 245H794.4V250.5H788.9V253.2H794.4V258.7H797V253.2H802.5V250.5H797V245Z" fill="#144E52"/>
<path d="M797 299.6H794.4V305.1H788.9V307.7H794.4V313.2H797V307.7H802.5V305.1H797V299.6Z" fill="#144E52"/>
<path d="M853.4 245H850.7V250.5H845.2V253.2H850.7V258.7H853.4V253.2H858.9V250.5H853.4V245Z" fill="#144E52"/>
<path d="M853.4 299.6H850.7V305.1H845.2V307.7H850.7V313.2H853.4V307.7H858.9V305.1H853.4V299.6Z" fill="#144E52"/>
<path d="M909.701 250.5V245H907.101V250.5H901.601V253.2H907.101V258.7H909.701V253.2H915.201V250.5H909.701Z" fill="#144E52"/>
<path d="M909.701 299.6H907.101V305.1H901.601V307.7H907.101V313.2H909.701V307.7H915.201V305.1H909.701V299.6Z" fill="#144E52"/>
<path d="M740.7 354.2H738V359.7H732.5V362.3H738V367.8H740.7V362.3H746.2V359.7H740.7V354.2Z" fill="#144E52"/>
<path d="M797 354.2H794.4V359.7H788.9V362.3H794.4V367.8H797V362.3H802.5V359.7H797V354.2Z" fill="#144E52"/>
<path d="M853.4 354.2H850.7V359.7H845.2V362.3H850.7V367.8H853.4V362.3H858.9V359.7H853.4V354.2Z" fill="#144E52"/>
<path d="M909.701 354.2H907.101V359.7H901.601V362.3H907.101V367.8H909.701V362.3H915.201V359.7H909.701V354.2Z" fill="#144E52"/>
<path d="M909.701 245H907.101V250.5H901.601V253.2H907.101V258.7H909.701V253.2H915.201V250.5H909.701V245Z" fill="#144E52"/>
<path d="M966.1 245H963.4V250.5H957.9V253.2H963.4V258.7H966.1V253.2H971.6V250.5H966.1V245Z" fill="#144E52"/>
<path d="M909.701 299.6H907.101V305.1H901.601V307.7H907.101V313.2H909.701V307.7H915.201V305.1H909.701V299.6Z" fill="#144E52"/>
<path d="M966.1 299.6H963.4V305.1H957.9V307.7H963.4V313.2H966.1V307.7H971.6V305.1H966.1V299.6Z" fill="#144E52"/>
<path d="M1022.4 245H1019.8V250.5H1014.3V253.2H1019.8V258.7H1022.4V253.2H1027.9V250.5H1022.4V245Z" fill="#144E52"/>
<path d="M1022.4 299.6H1019.8V305.1H1014.3V307.7H1019.8V313.2H1022.4V307.7H1027.9V305.1H1022.4V299.6Z" fill="#144E52"/>
<path d="M1078.8 245H1076.1V250.5H1070.6V253.2H1076.1V258.7H1078.8V253.2H1084.3V250.5H1078.8V245Z" fill="#144E52"/>
<path d="M1078.8 299.6H1076.1V305.1H1070.6V307.7H1076.1V313.2H1078.8V307.7H1084.3V305.1H1078.8V299.6Z" fill="#144E52"/>
<path d="M1135.1 245H1132.5V250.5H1127V253.2H1132.5V258.7H1135.1V253.2H1140.6V250.5H1135.1V245Z" fill="#144E52"/>
<path d="M1135.1 299.6H1132.5V305.1H1127V307.7H1132.5V313.2H1135.1V307.7H1140.6V305.1H1135.1V299.6Z" fill="#144E52"/>
<path d="M909.701 354.2H907.101V359.7H901.601V362.3H907.101V367.8H909.701V362.3H915.201V359.7H909.701V354.2Z" fill="#144E52"/>
<path d="M966.1 354.2H963.4V359.7H957.9V362.3H963.4V367.8H966.1V362.3H971.6V359.7H966.1V354.2Z" fill="#144E52"/>
<path d="M1022.4 354.2H1019.8V359.7H1014.3V362.3H1019.8V367.8H1022.4V362.3H1027.9V359.7H1022.4V354.2Z" fill="#144E52"/>
<path d="M1078.8 354.2H1076.1V359.7H1070.6V362.3H1076.1V367.8H1078.8V362.3H1084.3V359.7H1078.8V354.2Z" fill="#144E52"/>
<path d="M1135.1 354.2H1132.5V359.7H1127V362.3H1132.5V367.8H1135.1V362.3H1140.6V359.7H1135.1V354.2Z" fill="#144E52"/>
<path d="M1191.5 245H1188.8V250.5H1183.3V253.2H1188.8V258.7H1191.5V253.2H1197V250.5H1191.5V245Z" fill="#144E52"/>
<path d="M1191.5 299.6H1188.8V305.1H1183.3V307.7H1188.8V313.2H1191.5V307.7H1197V305.1H1191.5V299.6Z" fill="#144E52"/>
<path d="M1247.8 245H1245.2V250.5H1239.7V253.2H1245.2V258.7H1247.8V253.2H1253.3V250.5H1247.8V245Z" fill="#144E52"/>
<path d="M1247.8 299.6H1245.2V305.1H1239.7V307.7H1245.2V313.2H1247.8V307.7H1253.3V305.1H1247.8V299.6Z" fill="#144E52"/>
<path d="M1304.2 245H1301.5V250.5H1296V253.2H1301.5V258.7H1304.2V253.2H1309.7V250.5H1304.2V245Z" fill="#144E52"/>
<path d="M1304.2 299.6H1301.5V305.1H1296V307.7H1301.5V313.2H1304.2V307.7H1309.7V305.1H1304.2V299.6Z" fill="#144E52"/>
<path d="M1360.5 250.5V245H1357.9V250.5H1352.4V253.2H1357.9V258.7H1360.5V253.2H1366V250.5H1360.5Z" fill="#144E52"/>
<path d="M1360.5 299.6H1357.9V305.1H1352.4V307.7H1357.9V313.2H1360.5V307.7H1366V305.1H1360.5V299.6Z" fill="#144E52"/>
<path d="M1191.5 354.2H1188.8V359.7H1183.3V362.3H1188.8V367.8H1191.5V362.3H1197V359.7H1191.5V354.2Z" fill="#144E52"/>
<path d="M1247.8 354.2H1245.2V359.7H1239.7V362.3H1245.2V367.8H1247.8V362.3H1253.3V359.7H1247.8V354.2Z" fill="#144E52"/>
<path d="M1304.2 354.2H1301.5V359.7H1296V362.3H1301.5V367.8H1304.2V362.3H1309.7V359.7H1304.2V354.2Z" fill="#144E52"/>
<path d="M1360.5 354.2H1357.9V359.7H1352.4V362.3H1357.9V367.8H1360.5V362.3H1366V359.7H1360.5V354.2Z" fill="#144E52"/>
<path d="M1360.5 245H1357.9V250.5H1352.4V253.2H1357.9V258.7H1360.5V253.2H1366V250.5H1360.5V245Z" fill="#144E52"/>
<path d="M1416.9 245H1414.2V250.5H1408.7V253.2H1414.2V258.7H1416.9V253.2H1422.4V250.5H1416.9V245Z" fill="#144E52"/>
<path d="M1360.5 299.6H1357.9V305.1H1352.4V307.7H1357.9V313.2H1360.5V307.7H1366V305.1H1360.5V299.6Z" fill="#144E52"/>
<path d="M1416.9 299.6H1414.2V305.1H1408.7V307.7H1414.2V313.2H1416.9V307.7H1422.4V305.1H1416.9V299.6Z" fill="#144E52"/>
<path d="M1473.2 245H1470.6V250.5H1465.1V253.2H1470.6V258.7H1473.2V253.2H1478.7V250.5H1473.2V245Z" fill="#144E52"/>
<path d="M1473.2 299.6H1470.6V305.1H1465.1V307.7H1470.6V313.2H1473.2V307.7H1478.7V305.1H1473.2V299.6Z" fill="#144E52"/>
<path d="M1529.6 245H1526.9V250.5H1521.4V253.2H1526.9V258.7H1529.6V253.2H1535.1V250.5H1529.6V245Z" fill="#144E52"/>
<path d="M1529.6 299.6H1526.9V305.1H1521.4V307.7H1526.9V313.2H1529.6V307.7H1535.1V305.1H1529.6V299.6Z" fill="#144E52"/>
<path d="M1585.9 245H1583.3V250.5H1577.8V253.2H1583.3V258.7H1585.9V253.2H1591.4V250.5H1585.9V245Z" fill="#144E52"/>
<path d="M1585.9 299.6H1583.3V305.1H1577.8V307.7H1583.3V313.2H1585.9V307.7H1591.4V305.1H1585.9V299.6Z" fill="#144E52"/>
<path d="M1360.5 354.2H1357.9V359.7H1352.4V362.3H1357.9V367.8H1360.5V362.3H1366V359.7H1360.5V354.2Z" fill="#144E52"/>
<path d="M1416.9 354.2H1414.2V359.7H1408.7V362.3H1414.2V367.8H1416.9V362.3H1422.4V359.7H1416.9V354.2Z" fill="#144E52"/>
<path d="M1473.2 354.2H1470.6V359.7H1465.1V362.3H1470.6V367.8H1473.2V362.3H1478.7V359.7H1473.2V354.2Z" fill="#144E52"/>
<path d="M1529.6 354.2H1526.9V359.7H1521.4V362.3H1526.9V367.8H1529.6V362.3H1535.1V359.7H1529.6V354.2Z" fill="#144E52"/>
<path d="M1585.9 354.2H1583.3V359.7H1577.8V362.3H1583.3V367.8H1585.9V362.3H1591.4V359.7H1585.9V354.2Z" fill="#144E52"/>
<path d="M1642.3 245H1639.6V250.5H1634.1V253.2H1639.6V258.7H1642.3V253.2H1647.8V250.5H1642.3V245Z" fill="#144E52"/>
<path d="M1642.3 299.6H1639.6V305.1H1634.1V307.7H1639.6V313.2H1642.3V307.7H1647.8V305.1H1642.3V299.6Z" fill="#144E52"/>
<path d="M1642.3 354.2H1639.6V359.7H1634.1V362.3H1639.6V367.8H1642.3V362.3H1647.8V359.7H1642.3V354.2Z" fill="#144E52"/>
</svg>
