<svg width="1713" height="348" viewBox="0 0 1713 348" fill="none" xmlns="http://www.w3.org/2000/svg">
<path d="M1712.21 16.4126H1691.46V25.0865H1712.21V16.4126Z" fill="#76CCD8"/>
<path d="M1695.79 20.7495H1687.12V41.499H1695.79V20.7495Z" fill="#1EBCC5"/>
<path d="M1695.79 25.0704H1670.71V16.4126H1687.12V0H1695.79" fill="#00ACB4"/>
<path d="M1445.24 54.0746C1443.64 52.1009 1441.6 50.5319 1439.28 49.4954C1436.97 48.4588 1434.44 47.9839 1431.9 48.1093C1429.25 48.086 1426.62 48.6324 1424.2 49.7116C1421.78 50.7908 1419.62 52.3777 1417.86 54.3648C1413.97 58.5127 1411.86 64.0268 1412.01 69.7134C1411.87 75.3994 1413.97 80.9121 1417.86 85.062C1419.62 87.0491 1421.78 88.6359 1424.2 89.7152C1426.62 90.7944 1429.25 91.3408 1431.9 91.3175C1434.44 91.4502 1436.97 90.9769 1439.29 89.9368C1441.61 88.8967 1443.65 87.3197 1445.24 85.336V90.1728H1455.8V49.254H1445.24V54.0907V54.0746ZM1422.57 69.7134C1422.51 68.183 1422.77 66.6577 1423.33 65.2303C1423.88 63.8028 1424.72 62.5032 1425.79 61.4103C1426.84 60.3476 1428.1 59.5128 1429.49 58.958C1430.87 58.4032 1432.36 58.1403 1433.85 58.1858C1435.36 58.1376 1436.86 58.3988 1438.27 58.9534C1439.67 59.5079 1440.94 60.3441 1442.01 61.4103C1443.08 62.5032 1443.92 63.8028 1444.48 65.2303C1445.03 66.6577 1445.29 68.183 1445.24 69.7134C1445.29 71.2437 1445.03 72.769 1444.48 74.1965C1443.92 75.6239 1443.08 76.9236 1442.01 78.0164C1440.94 79.0826 1439.67 79.9188 1438.27 80.4734C1436.86 81.028 1435.36 81.2892 1433.85 81.2409C1432.36 81.2864 1430.87 81.0236 1429.49 80.4688C1428.1 79.914 1426.84 79.0791 1425.79 78.0164C1424.72 76.9236 1423.88 75.6239 1423.33 74.1965C1422.77 72.769 1422.51 71.2437 1422.57 69.7134V69.7134ZM1474.29 49.254H1463.73V90.1728H1474.29V70.6162C1474.29 66.6824 1475.56 63.8717 1478.09 62.1842C1480.63 60.4891 1483.71 59.7889 1486.73 60.2173V48.3673C1484.08 48.3285 1481.46 49.0081 1479.16 50.3342C1476.9 51.6612 1475.18 53.7465 1474.32 56.2189V49.254H1474.29Z" fill="#231F20"/>
<path d="M1515.79 49.254H1506.55V37.791L1495.99 41.0155V49.2863H1488.86V59.4273H1495.99V76.4203C1495.99 82.0524 1497.47 85.954 1500.44 88.1252C1503.4 90.2963 1508.52 90.9788 1515.79 90.1727V80.6121C1514.1 80.7066 1512.41 80.7066 1510.72 80.6121C1509.59 80.61 1508.49 80.2172 1507.61 79.4997C1507.23 79.0838 1506.94 78.5922 1506.75 78.0563C1506.57 77.5205 1506.5 76.9522 1506.55 76.3881V59.395H1515.79V49.254ZM1555.32 53.994C1554.18 52.0903 1552.55 50.5348 1550.59 49.4971C1548.63 48.4595 1546.42 47.9794 1544.21 48.1094C1539.08 48.1094 1535.29 49.9366 1532.83 53.591V49.254H1522.25V90.1727H1532.81V67.166C1532.64 64.6964 1533.39 62.2501 1534.91 60.2979C1535.61 59.5123 1536.47 58.892 1537.44 58.4821C1538.41 58.0721 1539.45 57.8828 1540.5 57.9279C1541.45 57.8757 1542.39 58.032 1543.27 58.3859C1544.15 58.7398 1544.94 59.2824 1545.58 59.9755C1546.89 61.5852 1547.55 63.6266 1547.44 65.6989V90.1727H1558V67.166C1557.82 64.7118 1558.53 62.2769 1559.99 60.2979C1560.69 59.5028 1561.55 58.8761 1562.53 58.4654C1563.5 58.0548 1564.55 57.871 1565.61 57.9279C1566.55 57.8757 1567.49 58.032 1568.37 58.3859C1569.25 58.7398 1570.04 59.2824 1570.68 59.9755C1571.96 61.5981 1572.6 63.6359 1572.47 65.6989V90.1727H1583.03V64.9573C1583.26 60.4783 1581.76 56.0833 1578.83 52.6881C1577.39 51.1527 1575.64 49.948 1573.69 49.1573C1571.74 48.3667 1569.64 48.0092 1567.54 48.1094C1565.17 47.9658 1562.81 48.4313 1560.67 49.4615C1558.53 50.4917 1556.7 52.0522 1555.34 53.994H1555.32ZM1630.14 74.0503C1630.4 72.6183 1630.53 71.1677 1630.55 69.7134C1630.7 64.0102 1628.6 58.4764 1624.69 54.3165C1622.8 52.2839 1620.49 50.6788 1617.93 49.6084C1615.37 48.538 1612.61 48.0269 1609.83 48.1094C1606.95 48.006 1604.08 48.5015 1601.41 49.5644C1598.73 50.6274 1596.31 52.2346 1594.29 54.2842C1592.29 56.3137 1590.72 58.727 1589.68 61.3787C1588.64 64.0304 1588.14 66.8656 1588.22 69.7134C1588.14 72.5734 1588.64 75.4206 1589.7 78.0797C1590.75 80.7388 1592.34 83.1534 1594.37 85.1748C1596.52 87.2512 1599.08 88.8667 1601.88 89.9228C1604.68 90.9789 1607.66 91.4534 1610.65 91.3174C1618.52 91.3174 1624.45 88.3993 1628.5 82.5629L1619.99 77.6456C1618.9 79.0223 1617.5 80.1148 1615.91 80.8283C1614.31 81.5419 1612.56 81.8551 1610.81 81.7407C1604.54 81.7407 1600.69 79.1772 1599.28 74.0503H1630.14ZM1602.74 59.7659C1604.76 58.2581 1607.24 57.4899 1609.76 57.5893C1612.08 57.5613 1614.34 58.2793 1616.21 59.6369C1618.21 61.1581 1619.56 63.3825 1619.99 65.8601H1599.03C1599.51 63.4598 1600.81 61.3037 1602.72 59.7659H1602.74Z" fill="#231F20"/>
<path d="M1666.97 54.0746C1665.39 52.0942 1663.37 50.5192 1661.07 49.4814C1658.76 48.4436 1656.24 47.9731 1653.71 48.1093C1651.05 48.0807 1648.41 48.6244 1645.97 49.7035C1643.54 50.7827 1641.36 52.3723 1639.59 54.3648C1635.7 58.5127 1633.6 64.0267 1633.74 69.7133C1633.6 75.3994 1635.7 80.9121 1639.59 85.0619C1641.36 87.0544 1643.54 88.644 1645.97 89.7232C1648.41 90.8023 1651.05 91.346 1653.71 91.3174C1656.24 91.4544 1658.76 90.9826 1661.07 89.9417C1663.38 88.9009 1665.4 87.3213 1666.97 85.336V90.1727H1677.53V32.8735H1666.97V54.0746ZM1644.3 69.7133C1644.24 68.183 1644.5 66.6577 1645.06 65.2302C1645.61 63.8028 1646.45 62.5031 1647.52 61.4103C1648.59 60.3441 1649.86 59.5079 1651.27 58.9533C1652.67 58.3987 1654.17 58.1375 1655.68 58.1858C1657.17 58.1403 1658.66 58.4032 1660.05 58.958C1661.43 59.5128 1662.69 60.3476 1663.74 61.4103C1664.81 62.5031 1665.65 63.8028 1666.21 65.2302C1666.76 66.6577 1667.02 68.183 1666.97 69.7133C1667.02 71.2437 1666.76 72.769 1666.21 74.1964C1665.65 75.6239 1664.81 76.9236 1663.74 78.0164C1662.69 79.0791 1661.43 79.9139 1660.05 80.4687C1658.66 81.0235 1657.17 81.2864 1655.68 81.2409C1654.17 81.2892 1652.67 81.0279 1651.27 80.4734C1649.86 79.9188 1648.59 79.0826 1647.52 78.0164C1646.45 76.9236 1645.61 75.6239 1645.06 74.1964C1644.5 72.769 1644.24 71.2437 1644.3 69.7133V69.7133Z" fill="#231F20"/>
<path d="M114.161 17H14.0508V117.11H114.161V17Z" fill="#231F20"/>
<path d="M58.5505 84.5203C58.3609 84.3599 58.1486 84.2285 57.9205 84.1303H57.8305C57.3997 83.9811 56.9465 83.9067 56.4905 83.9103C56.0844 83.9139 55.6795 83.9541 55.2805 84.0303L54.4605 84.2103C54.0005 84.3003 53.3505 84.4003 52.5605 84.5003V93.7303C52.5605 94.3803 54.6205 94.1703 54.6205 94.1703V85.8503L55.8105 85.6303C55.9486 85.5964 56.089 85.573 56.2305 85.5603C56.6699 85.5259 57.1107 85.6051 57.5105 85.7903C57.8837 85.9864 58.2217 86.2432 58.5105 86.5503L58.5505 84.5203Z" fill="white"/>
<path d="M75.6505 91.1602C75.6505 91.0402 75.5805 91.1602 75.5205 91.1602C75.4605 91.1602 75.4505 91.2402 75.2205 91.4502C74.9905 91.6602 75.0205 91.6302 74.7105 91.8802L74.4605 92.0402C73.7517 92.4664 72.9374 92.6847 72.1105 92.6702C70.4705 92.6702 69.8005 92.0202 69.8005 90.7402V89.7202C70.4255 90.0135 71.1102 90.1573 71.8005 90.1402C74.8005 90.1402 75.8005 88.7102 75.8005 87.0802C75.8005 85.2202 74.4605 83.9902 71.8005 83.9902C69.1405 83.9902 67.7305 85.2202 67.7305 87.2802V91.1102C67.7305 93.1102 69.3705 94.3902 72.0905 94.3902C72.865 94.4056 73.6354 94.2732 74.3605 94.0002L74.7705 93.8202C75.1122 93.6826 75.417 93.4668 75.6605 93.1902L75.6505 91.1602ZM69.8105 87.6302C69.8105 86.3502 70.2305 85.6302 71.8105 85.6302C73.3905 85.6302 73.8105 86.2502 73.8105 87.1502C73.8105 88.0502 73.2405 88.5502 71.5905 88.5502C71.0007 88.5335 70.4157 88.4393 69.8505 88.2702L69.8105 87.6302Z" fill="white"/>
<path d="M79.2504 87.0101C79.2504 86.0101 79.8204 85.6101 81.3704 85.6101C81.9831 85.5956 82.5932 85.6939 83.1704 85.9001L83.7504 86.1701L84.3304 86.5501C84.4304 86.6201 84.7204 86.8601 84.8304 86.9501C84.9404 87.0401 84.8304 86.9501 84.8304 86.8501V85.0801C84.8304 84.9401 84.2204 84.5201 83.9804 84.4001L83.8104 84.3301C82.9959 84.0242 82.1301 83.8782 81.2604 83.9001C78.5804 83.9001 77.1504 84.9801 77.1504 87.0701C77.1504 91.2701 83.4404 88.7201 83.4404 91.1701C83.4404 92.1701 82.5004 92.6801 81.2604 92.6801C80.409 92.7165 79.5643 92.5157 78.8204 92.1001C78.7852 92.0694 78.7445 92.0456 78.7004 92.0301C78.4421 91.8777 78.1948 91.7072 77.9604 91.5201C77.7104 91.3301 77.4904 91.1401 77.4904 91.1401C77.4904 91.1401 77.3304 91.0001 77.3304 91.1401V93.1401C77.6629 93.4725 78.0615 93.7314 78.5004 93.9001C79.3806 94.2358 80.3189 94.3922 81.2604 94.3601C84.1404 94.3601 85.5304 93.1701 85.5304 91.2901C85.5304 86.6301 79.2504 89.0701 79.2504 87.0101Z" fill="white"/>
<path d="M46.5801 83.92C45.701 83.8918 44.8267 84.0592 44.0201 84.41C43.6272 84.5694 43.265 84.7961 42.9501 85.08C42.9501 85.08 42.9501 85.0801 42.9501 85.1401V87.0001C42.9501 87.1001 42.9501 87.27 43.0201 87.16L43.2001 86.95C43.4731 86.6831 43.7674 86.439 44.0801 86.22L44.2901 86.1L44.4401 86.0001C45.1141 85.6699 45.8604 85.5151 46.6101 85.55C48.2701 85.55 48.6901 86.22 48.6901 87.08C48.1201 88.37 44.9401 88.02 43.4101 89.38C43.3777 89.4075 43.3476 89.4376 43.3201 89.47V89.47L43.2501 89.56C43.1914 89.6222 43.1379 89.6891 43.0901 89.76V89.76C43.0725 89.7915 43.0524 89.8216 43.0301 89.85C42.7824 90.2775 42.661 90.7664 42.6801 91.26C42.6589 91.7666 42.7801 92.269 43.0301 92.71V92.71C43.0301 92.71 43.0301 92.78 43.0301 92.81C43.0581 92.8399 43.0817 92.8736 43.1001 92.91V92.91C43.104 92.9229 43.1104 92.9348 43.119 92.9451C43.1276 92.9554 43.1382 92.9639 43.1501 92.97V92.97C43.5647 93.4127 44.0746 93.7552 44.6411 93.9718C45.2076 94.1883 45.816 94.2732 46.4201 94.22C47.2396 94.2436 48.0596 94.1934 48.8701 94.0701C49.5289 93.9331 50.1651 93.7042 50.7601 93.39V87.1801C50.7101 85.1201 49.2601 83.92 46.5801 83.92ZM48.7101 88.92V92.55C48.0368 92.7191 47.3443 92.7998 46.6501 92.7901C45.2401 92.7901 44.6501 92.2 44.6501 91.33C44.6501 89.45 47.7801 89.9101 48.6001 89.0701C48.6352 89.0416 48.6656 89.0079 48.6901 88.97V88.97L48.7101 88.92Z" fill="white"/>
<path d="M83.9024 101.003C83.0233 100.975 82.1489 101.142 81.3424 101.493C80.9494 101.652 80.5873 101.879 80.2724 102.163C80.2724 102.163 80.2724 102.163 80.2724 102.223V104.083C80.2724 104.183 80.2724 104.353 80.3424 104.243L80.5224 104.033C80.7953 103.766 81.0896 103.522 81.4024 103.303L81.6124 103.183L81.7624 103.083C82.4363 102.753 83.1827 102.598 83.9324 102.633C85.5924 102.633 86.0124 103.303 86.0124 104.163C85.4424 105.453 82.2624 105.103 80.7324 106.463C80.6999 106.49 80.6698 106.521 80.6424 106.553V106.553L80.5724 106.643C80.5137 106.705 80.4601 106.772 80.4124 106.843V106.843C80.3947 106.875 80.3747 106.905 80.3524 106.933C80.1046 107.36 79.9833 107.849 80.0024 108.343C79.9811 108.85 80.1024 109.352 80.3524 109.793V109.793C80.3524 109.793 80.3524 109.863 80.3524 109.893C80.3804 109.923 80.4039 109.957 80.4224 109.993V109.993C80.4263 110.006 80.4327 110.018 80.4413 110.028C80.4499 110.038 80.4605 110.047 80.4724 110.053V110.053C80.887 110.496 81.3969 110.838 81.9634 111.055C82.5299 111.271 83.1382 111.356 83.7424 111.303C84.5619 111.327 85.3819 111.276 86.1924 111.153C86.8511 111.016 87.4874 110.787 88.0824 110.473V104.263C88.0324 102.203 86.5824 101.003 83.9024 101.003ZM86.0324 106.003V109.633C85.359 109.802 84.6666 109.883 83.9724 109.873C82.5624 109.873 81.9724 109.283 81.9724 108.413C81.9724 106.533 85.1024 106.993 85.9224 106.153C85.9574 106.125 85.9878 106.091 86.0124 106.053V106.053L86.0324 106.003Z" fill="white"/>
<path d="M65.7802 92.2301L65.4602 92.4401C65.044 92.6682 64.5747 92.782 64.1002 92.7701C62.6202 92.7701 62.3402 91.9501 62.3302 90.6301V86.0301H65.4602C65.5026 86.0333 65.5452 86.0271 65.5849 86.012C65.6247 85.9969 65.6606 85.9732 65.6902 85.9427C65.7197 85.9122 65.7422 85.8755 65.7561 85.8353C65.7699 85.7951 65.7747 85.7524 65.7702 85.7101V84.3901H62.3002V81.8901C62.3002 81.3901 60.2402 81.5201 60.2402 81.5201V91.1301C60.2402 93.2101 61.4802 94.4201 63.8202 94.4201C64.3907 94.4262 64.9583 94.3383 65.5002 94.1601V94.1601C65.7813 94.0437 66.0467 93.8925 66.2902 93.7101V91.7101C66.2902 91.7101 66.1602 91.8701 66.0802 91.9501L65.7802 92.2301Z" fill="white"/>
<path d="M62.6507 97.32V96.02C62.7107 96.02 64.7307 95.77 64.7307 96.49V110.56C64.0807 110.56 63.0107 110.9 62.5707 110.96C61.9137 111.101 61.2425 111.164 60.5707 111.15C57.8107 111.15 56.2607 109.94 56.2607 107.85V103.85C56.2607 101.85 57.9907 100.6 59.9807 100.6C60.9193 100.551 61.8466 100.823 62.6107 101.37C62.6107 101.37 62.6107 101.37 62.6107 101.37C62.6107 101.37 62.6107 100.62 62.6107 100.26C62.6107 100.2 62.6107 100.13 62.6107 100.06L62.6507 97.32ZM62.6507 104C62.6507 103 61.4607 102.23 60.2807 102.23C60.0169 102.206 59.7509 102.242 59.5031 102.336C59.2552 102.429 59.0318 102.578 58.8498 102.771C58.6678 102.963 58.5319 103.195 58.4524 103.448C58.3729 103.7 58.3518 103.968 58.3907 104.23V107.59C58.3907 108.92 58.9207 109.59 60.7707 109.59C61.4158 109.593 62.0551 109.468 62.6507 109.22V104Z" fill="white"/>
<path d="M66.9004 100.79V110.52C66.9004 111.17 68.9704 111.02 68.9704 111.02V101.45C68.9704 100.63 67.4504 100.82 66.9004 100.79ZM67.4904 99.0299C68.0004 99.0299 68.9504 99.0899 68.9504 99.0899V97.6299C68.9504 97.3999 68.6004 97.1799 68.3704 97.1399C67.8823 97.0871 67.3912 97.0671 66.9004 97.0799V98.5599C66.9004 98.8199 67.2004 98.9999 67.4904 99.0299V99.0299Z" fill="white"/>
<path d="M44.4807 103.48C44.2907 101.52 42.5507 100.63 40.6507 100.63C39.4545 100.534 38.2622 100.859 37.2807 101.55C36.401 100.892 35.3173 100.566 34.2207 100.63C33.2905 100.633 32.3639 100.747 31.4607 100.97C30.9043 101.109 30.3342 101.186 29.7607 101.2V110.55C29.7607 111.24 31.8407 111.01 31.8407 111.01V102.63C32.5215 102.406 33.2341 102.294 33.9507 102.3C35.5307 102.3 36.1007 102.95 36.1007 104.07V110.6C36.1007 111.27 38.1707 111.06 38.1707 111.06V103.68C38.2207 102.81 39.3107 102.24 40.4107 102.24C41.5107 102.24 42.4107 102.79 42.4107 104.1V110.56C42.4107 111.26 44.4807 111.02 44.4807 111.02V103.74C44.4857 103.653 44.4857 103.566 44.4807 103.48V103.48Z" fill="white"/>
<path d="M53.0407 96.8501C53.2107 97.1801 53.2407 97.3001 53.3607 97.5301C53.8307 98.5301 53.4307 98.6001 51.7207 99.3501L49.8407 100.14C49.8407 100.14 49.1007 98.9401 49.4007 98.6401C49.8429 98.3662 50.312 98.1384 50.8007 97.9601C51.4424 97.7389 52.0618 97.4577 52.6507 97.1201C52.7707 97.0501 52.8907 96.9801 53.0007 96.9001C53.1107 96.8201 53.0307 96.8401 53.0407 96.8501Z" fill="white"/>
<path d="M54.4202 107.98C54.4202 107.87 54.3602 107.98 54.3002 107.98C54.2082 108.094 54.1043 108.198 53.9902 108.29C53.8202 108.44 53.7902 108.46 53.4702 108.71C53.4702 108.71 53.2402 108.86 53.2302 108.87C52.5183 109.297 51.7004 109.516 50.8702 109.5C49.2202 109.5 48.5502 108.85 48.5502 107.57V106.54C49.1761 106.83 49.8608 106.97 50.5502 106.95C53.5502 106.95 54.5502 105.51 54.5502 103.88C54.5502 102.01 53.2002 100.76 50.5502 100.76C47.9002 100.76 46.4502 102.01 46.4502 104.08V107.93C46.4502 109.99 48.1002 111.24 50.8402 111.24C51.6209 111.25 52.3969 111.118 53.1302 110.85C53.2722 110.799 53.4094 110.735 53.5402 110.66C53.8839 110.521 54.1892 110.301 54.4302 110.02L54.4202 107.98ZM48.5102 104.37C48.5102 103.09 48.9202 102.37 50.5102 102.37C52.1002 102.37 52.5102 103 52.5102 103.91C52.5102 104.82 51.9402 105.31 50.2802 105.31C49.6871 105.294 49.0987 105.199 48.5302 105.03L48.5102 104.37Z" fill="white"/>
<path d="M92.0104 103.81C92.0104 102.81 92.5804 102.38 94.1304 102.38C94.7536 102.369 95.3736 102.47 95.9604 102.68C96.1904 102.78 96.5404 102.96 96.5404 102.96L97.1304 103.34C97.2204 103.41 97.5304 103.65 97.6204 103.74V101.86C97.6204 101.72 97.0104 101.29 96.7604 101.18L96.6504 101.1C95.8313 100.8 94.9626 100.657 94.0904 100.68C91.3804 100.68 89.9404 101.76 89.9404 103.87C89.9404 108.1 96.2804 105.53 96.2804 108C96.2804 109 95.2804 109.51 94.0904 109.51C93.2279 109.551 92.3715 109.346 91.6204 108.92L91.5004 108.86C91.24 108.706 90.9895 108.536 90.7504 108.35L90.2904 107.97C90.1504 107.82 90.1104 107.82 90.1104 107.97V109.97C90.4501 110.303 90.8553 110.562 91.3004 110.73C92.1887 111.075 93.1381 111.235 94.0904 111.2C96.9904 111.2 98.3904 109.99 98.3904 108.11C98.3404 103.43 92.0104 105.88 92.0104 103.81Z" fill="white"/>
<path d="M77.7502 108.73L77.6102 108.83H77.5302C76.8115 109.235 75.9944 109.432 75.1702 109.4V109.4C73.6302 109.34 72.9502 108.7 72.9502 107.4V104.4C72.9502 102.91 73.7702 102.4 75.3402 102.33C76.0341 102.32 76.7203 102.478 77.3402 102.79C77.7924 103.059 78.2005 103.397 78.5502 103.79C78.6902 103.94 78.7302 104.03 78.7202 103.79V101.79C78.4389 101.492 78.0982 101.257 77.7202 101.1L77.5802 101.04C76.8028 100.755 75.9777 100.623 75.1502 100.65C72.5102 100.65 70.9102 101.9 70.9102 103.97V107.81C70.9102 109.9 72.5802 111.13 75.2402 111.13H75.3002C76.0502 111.134 76.795 111.005 77.5002 110.75L77.9002 110.57C77.9002 110.57 78.0402 110.51 78.2002 110.41C78.4332 110.283 78.6375 110.11 78.8002 109.9V108.23C78.8002 108.1 78.8002 107.76 78.8002 107.82C78.5059 108.182 78.1506 108.49 77.7502 108.73Z" fill="white"/>
<path d="M43.65 37.3699C43.6474 34.6195 44.2055 31.8975 45.29 29.3699L24.86 21.4399L14 49.4399V75.8299H49.85L57.33 56.5599C53.3398 55.1772 49.8789 52.5868 47.4276 49.1481C44.9762 45.7094 43.656 41.5929 43.65 37.3699V37.3699Z" fill="white"/>
<path d="M14 75.8298H27.28L45.37 29.1798L14 17.0098V75.8298Z" fill="#EC1C24"/>
<path d="M114.101 49.6299L103.181 21.4399L82.7207 29.3799C83.8133 31.9416 84.3679 34.7005 84.3501 37.4854C84.3324 40.2702 83.7426 43.0218 82.6175 45.5693C81.4923 48.1169 79.8558 50.4061 77.8093 52.295C75.7628 54.1838 73.3501 55.6321 70.7207 56.5499L78.1807 75.8299H114.101V49.6299Z" fill="white"/>
<path d="M114.1 17H114.04L82.6699 29.18L100.76 75.83H114.1V17Z" fill="#EC1C24"/>
<path d="M1071.14 100.24H1062.49V108.24H1072.13V110.64H1059.63V88.4399H1071.63V90.8399H1062.49V97.8399H1071.14V100.24Z" fill="#231F20"/>
<path d="M1079.15 88.74C1081.17 88.4281 1083.21 88.271 1085.25 88.27C1089.37 88.27 1092.3 89.27 1094.25 91.05C1096.2 92.83 1097.39 95.43 1097.39 99.05C1097.47 100.63 1097.22 102.209 1096.67 103.692C1096.12 105.175 1095.28 106.532 1094.19 107.68C1092.11 109.76 1088.68 110.89 1084.36 110.89C1082.62 110.896 1080.88 110.806 1079.15 110.62V88.74ZM1082 108.39C1082.96 108.524 1083.93 108.58 1084.9 108.56C1091.04 108.56 1094.37 105.13 1094.37 99.12C1094.37 93.88 1091.43 90.55 1085.37 90.55C1084.24 90.5334 1083.12 90.6306 1082.01 90.84L1082 108.39Z" fill="#231F20"/>
<path d="M1107.27 88.4399V110.66H1104.4V88.4399H1107.27Z" fill="#231F20"/>
<path d="M1119.8 90.8799H1113V88.4399H1129.5V90.8799H1122.7V110.66H1119.8V90.8799Z" fill="#231F20"/>
<path d="M1153.37 99.3201C1153.37 106.97 1148.72 111.03 1143.05 111.03C1137.18 111.03 1133.05 106.48 1133.05 99.7501C1133.05 92.7501 1137.43 88.0801 1143.37 88.0801C1149.31 88.0801 1153.37 92.7201 1153.37 99.3201ZM1136.12 99.6901C1136.12 104.44 1138.69 108.69 1143.21 108.69C1147.73 108.69 1150.34 104.51 1150.34 99.4601C1150.34 95.0401 1148.03 90.4601 1143.25 90.4601C1138.47 90.4601 1136.12 94.8001 1136.12 99.6901Z" fill="#231F20"/>
<path d="M1160.39 88.7399C1162.21 88.4114 1164.05 88.254 1165.9 88.2699C1168.96 88.2699 1170.9 88.8299 1172.33 90.0899C1172.9 90.6289 1173.36 91.2842 1173.66 92.012C1173.96 92.7397 1174.1 93.5232 1174.07 94.3099C1174.09 95.5866 1173.69 96.8353 1172.94 97.8636C1172.18 98.8918 1171.11 99.6425 1169.88 99.9999V100.1C1171.6 100.69 1172.62 102.28 1173.15 104.58C1173.53 106.661 1174.11 108.703 1174.86 110.68H1171.86C1171.2 108.963 1170.7 107.189 1170.37 105.38C1169.72 102.31 1168.53 101.16 1165.92 101.06H1163.22V110.68H1160.35L1160.39 88.7399ZM1163.26 98.8599H1166.19C1169.26 98.8599 1171.19 97.1799 1171.19 94.6399C1171.19 91.7699 1169.11 90.5199 1166.07 90.4799C1165.12 90.4552 1164.17 90.5459 1163.24 90.7499L1163.26 98.8599Z" fill="#231F20"/>
<path d="M1185.18 103.68L1182.87 110.68H1179.87L1187.43 88.46H1190.89L1198.47 110.68H1195.41L1193.03 103.68H1185.18ZM1192.47 101.44L1190.3 95C1189.8 93.55 1189.47 92.23 1189.14 91H1189.07C1188.74 92.32 1188.38 93.67 1187.95 95L1185.78 101.44H1192.47Z" fill="#231F20"/>
<path d="M1278.94 14.6799V9.4399C1279.18 9.4399 1287.29 8.4399 1287.29 11.3099V68.0199C1284.66 68.2499 1280.29 69.4199 1278.58 69.6699C1275.99 70.2139 1273.35 70.4655 1270.71 70.4199C1259.58 70.4199 1253.37 65.5699 1253.37 57.1399V41.2399C1253.37 33.0499 1260.29 28.1199 1268.32 28.1199C1274.32 28.1199 1277.59 30.1199 1278.92 31.2199C1278.92 31.2199 1278.92 31.2699 1278.92 31.2199C1278.92 30.8599 1278.86 28.2199 1278.86 26.7499C1278.86 26.4899 1278.86 26.2199 1278.86 25.9499L1278.94 14.6799ZM1278.94 41.6799C1278.94 37.4699 1274.17 34.5199 1269.4 34.5199C1265.03 34.5199 1261.77 36.9099 1261.77 42.5199V55.9999C1261.77 61.4099 1263.91 63.9999 1271.31 63.9999C1273.92 64.0692 1276.51 63.61 1278.94 62.6499V41.6799Z" fill="#231F20"/>
<path d="M1211.44 39.5601C1210.67 31.6201 1203.66 28.0801 1196.09 28.0801C1187.55 28.0801 1183.55 30.8801 1182.48 31.7701C1179.38 28.9901 1174.66 28.0801 1170.11 28.0801C1166.37 28.0898 1162.64 28.5395 1159 29.4201C1156.76 30.014 1154.46 30.3495 1152.14 30.4201V68.0001C1152.14 70.7701 1160.49 69.8601 1160.49 69.8601V36.0001C1163.23 35.0638 1166.1 34.5874 1169 34.5901C1175.36 34.5901 1177.67 37.2201 1177.67 41.7501V68.0001C1177.67 70.7101 1186.01 69.8701 1186.01 69.8701V40.2901C1186.23 36.8201 1190.6 34.5201 1195.06 34.5201C1199.98 34.5201 1203.17 36.7401 1203.17 42.0701V68.0001C1203.17 70.8301 1211.52 69.8501 1211.52 69.8501V40.5601C1211.52 40.2251 1211.49 39.8907 1211.44 39.5601Z" fill="#231F20"/>
<path d="M1120.13 30.7299C1119.37 30.0635 1118.5 29.5294 1117.56 29.1499L1117.17 28.9899C1115.42 28.4093 1113.59 28.1155 1111.75 28.1199C1110.1 28.1082 1108.44 28.286 1106.83 28.6499C1105.73 28.8499 1105.08 28.9999 1103.52 29.3099C1101.63 29.6899 1099.02 30.0799 1095.79 30.4899V68.0799C1095.79 70.7299 1104.14 69.8899 1104.14 69.8899V36.1099L1109 35.1899C1109.55 35.0751 1110.11 34.9917 1110.67 34.9399C1112.45 34.7845 1114.25 35.0982 1115.87 35.8499C1117.43 36.6636 1118.86 37.6938 1120.13 38.9099V30.7299Z" fill="#231F20"/>
<path d="M1248.58 57.6701C1248.58 57.2001 1248.31 57.5401 1248.08 57.7701C1247.69 58.2037 1247.27 58.6144 1246.83 59.0001C1246.17 59.6153 1245.47 60.1866 1244.74 60.7101C1244.74 60.7101 1243.8 61.3601 1243.74 61.3701L1243.57 61.4801C1240.72 63.1912 1237.44 64.0645 1234.11 64.0001C1227.43 64.0001 1224.73 61.3801 1224.73 56.2101V51.8601C1227.27 53.0238 1230.04 53.5916 1232.83 53.5201C1244.92 53.5201 1249.13 47.7201 1249.13 41.1201C1249.13 33.5701 1243.65 28.5601 1232.92 28.5601C1222.19 28.5601 1216.38 33.5601 1216.38 41.9201V57.4301C1216.38 65.7701 1223.06 70.7801 1234.11 70.7801C1237.25 70.832 1240.37 70.3031 1243.31 69.2201C1243.88 68.9981 1244.43 68.7478 1244.97 68.4701V68.4701C1246.35 67.8931 1247.58 67.007 1248.56 65.8801L1248.58 57.6701ZM1224.73 43.1201C1224.73 37.9401 1226.4 34.9201 1232.73 34.9201C1238.62 34.9201 1240.73 37.4701 1240.73 41.1201C1240.73 44.7701 1238.42 46.7701 1231.73 46.7701C1229.34 46.6853 1226.96 46.3092 1224.66 45.6501L1224.73 43.1201Z" fill="#231F20"/>
<path d="M1074 28.2999C1070.45 28.1838 1066.91 28.8424 1063.64 30.2299C1062.03 30.889 1060.55 31.8267 1059.26 32.9999C1059.2 33.0728 1059.16 33.1537 1059.13 33.2399C1059.12 33.2831 1059.12 33.3268 1059.13 33.3699V39.2699C1059.13 39.8199 1059.13 40.0999 1059.13 40.7699C1059.13 41.1999 1059.13 41.8599 1059.43 41.4499L1060.16 40.5899C1061.24 39.4752 1062.44 38.4703 1063.72 37.5899L1064.54 37.0899C1064.76 36.9799 1065 36.8199 1065.21 36.7199C1067.93 35.3672 1070.96 34.7403 1074 34.8999C1080.76 34.8999 1082.43 37.5999 1082.43 41.0999C1080.15 46.3299 1067.23 44.9299 1061.03 50.4299L1060.66 50.7699C1060.55 50.8799 1060.43 50.9899 1060.33 51.1099C1060.09 51.3644 1059.88 51.6351 1059.68 51.9199V51.9799C1059.59 52.0899 1059.51 52.2199 1059.43 52.3399L1059.36 52.4499L1059.27 52.5999C1058.27 54.34 1057.77 56.3235 1057.83 58.3299C1057.78 60.3896 1058.27 62.426 1059.27 64.2299V64.2299C1059.35 64.3699 1059.43 64.4999 1059.51 64.6199C1059.59 64.7584 1059.68 64.892 1059.77 65.0199C1059.77 65.0199 1059.77 65.0199 1059.77 65.0199L1059.99 65.3199C1062.83 68.9999 1067.99 70.3799 1073.22 70.3799C1076.57 70.481 1079.91 70.2634 1083.22 69.7299C1085.89 69.1682 1088.48 68.2465 1090.9 66.9899V41.4999C1090.74 33.1499 1084.86 28.2999 1074 28.2999ZM1082.67 48.6799V63.3899C1079.94 64.0932 1077.14 64.4295 1074.32 64.3899C1068.6 64.3899 1065.97 61.9199 1065.97 58.3899C1065.97 50.7799 1078.7 52.5999 1082.03 49.2199C1082.17 49.0799 1082.24 48.9799 1082.38 48.8199L1082.53 48.6299L1082.67 48.4099V48.6799Z" fill="#231F20"/>
<path d="M1146.25 62C1145.84 62.29 1145.36 62.59 1144.98 62.82L1144.85 62.89C1143.16 63.8054 1141.26 64.2574 1139.34 64.2C1133.34 64.2 1132.21 60.87 1132.15 55.53V36.85H1144.87C1145.04 36.8581 1145.21 36.8291 1145.37 36.7652C1145.53 36.7012 1145.67 36.6037 1145.79 36.4794C1145.91 36.355 1146 36.2067 1146.05 36.0446C1146.11 35.8824 1146.13 35.7103 1146.11 35.54V30.17H1132.11V20.08C1132.11 17.99 1123.77 18.52 1123.77 18.52V57.52C1123.77 65.95 1128.77 70.88 1138.27 70.88C1140.59 70.919 1142.91 70.5605 1145.11 69.82C1146.28 69.37 1147.38 68.7573 1148.38 68V60.09C1148.38 60.09 1148.38 59.99 1148.3 60.09C1148.04 60.4457 1147.75 60.78 1147.43 61.09C1147.05 61.4166 1146.66 61.7205 1146.25 62V62Z" fill="#231F20"/>
<path fill-rule="evenodd" clip-rule="evenodd" d="M977.43 117.05C988.633 117.046 999.584 113.72 1008.9 107.493C1018.21 101.266 1025.47 92.417 1029.75 82.0652C1034.04 71.7134 1035.16 60.3236 1032.97 49.3359C1030.78 38.3482 1025.38 28.256 1017.46 20.3354C1009.54 12.4147 999.443 7.02131 988.454 4.83708C977.466 2.65284 966.076 3.77587 955.726 8.06416C945.376 12.3525 936.53 19.6134 930.306 28.929C924.082 38.2447 920.76 49.1966 920.76 60.4C920.791 75.4183 926.773 89.812 937.394 100.43C948.016 111.047 962.412 117.024 977.43 117.05V117.05Z" fill="white"/>
<path d="M977.43 117.8H977.37C962.162 117.758 947.59 111.696 936.839 100.939C926.089 90.1831 920.034 75.6077 920 60.4V60.4C920.026 45.1795 926.087 30.5904 936.852 19.8307C947.617 9.07098 962.209 3.01851 977.43 3V3C992.64 3.02909 1007.22 9.0855 1017.97 19.8425C1028.72 30.5995 1034.78 45.18 1034.8 60.39V60.39C1034.77 75.5856 1028.73 90.1516 1017.99 100.908C1007.26 111.664 992.706 117.737 977.51 117.8H977.43ZM977.37 116.3H977.51C992.305 116.242 1006.48 110.331 1016.93 99.8594C1027.38 89.3874 1033.26 75.205 1033.29 60.41V60.41C1033.26 45.6012 1027.37 31.4057 1016.91 20.9295C1006.44 10.4534 992.249 4.54964 977.44 4.51V4.51C962.621 4.52849 948.413 10.4202 937.93 20.8943C927.446 31.3684 921.542 45.5708 921.51 60.39V60.39C921.536 75.2006 927.429 89.3976 937.898 99.874C948.367 110.35 962.559 116.253 977.37 116.29V116.3Z" fill="#231F20"/>
<path fill-rule="evenodd" clip-rule="evenodd" d="M977.22 43.8099C978.722 43.8119 980.19 43.3681 981.44 42.5349C982.69 41.7017 983.664 40.5164 984.24 39.1291C984.816 37.7418 984.967 36.2148 984.674 34.7416C984.382 33.2684 983.659 31.915 982.597 30.8529C981.535 29.7909 980.181 29.0678 978.708 28.7752C977.235 28.4827 975.708 28.6338 974.32 29.2096C972.933 29.7853 971.748 30.7596 970.915 32.0093C970.081 33.259 969.638 34.7279 969.64 36.2299C969.642 38.2394 970.442 40.1659 971.863 41.5868C973.284 43.0078 975.21 43.8072 977.22 43.8099V43.8099Z" fill="#231F20"/>
<path fill-rule="evenodd" clip-rule="evenodd" d="M995.66 13.52V53.74L992.32 55.86C991.83 49.14 988.8 45 978.52 45H975.92C965.49 45 962.58 49.18 962.12 55.9L958.78 53.78V13.54C947.856 17.8349 938.773 25.8085 933.099 36.085C927.425 46.3615 925.516 58.2961 927.702 69.8296C929.887 81.3631 936.03 91.7719 945.071 99.2599C954.111 106.748 965.482 110.846 977.22 110.846C988.959 110.846 1000.33 106.748 1009.37 99.2599C1018.41 91.7719 1024.55 81.3631 1026.74 69.8296C1028.92 58.2961 1027.02 46.3615 1021.34 36.085C1015.67 25.8085 1006.59 17.8349 995.66 13.54V13.52ZM999.66 57.7V74.23C999.595 74.9831 999.363 75.7122 998.981 76.3643C998.598 77.0164 998.076 77.5751 997.45 78L981.75 87.58L977.37 90.26L975.15 89L957 78C956.388 77.5747 955.876 77.0203 955.501 76.3758C955.127 75.7314 954.897 75.0126 954.83 74.27V57.7C954.818 57.5737 954.818 57.4464 954.83 57.32C955.024 57.3588 955.208 57.4371 955.37 57.55L975.27 69.67L977.2 70.85L980.49 68.85L999.08 57.55C999.239 57.4376 999.42 57.3593 999.61 57.32C999.623 57.4464 999.623 57.5737 999.61 57.7H999.66Z" fill="#231F20"/>
<path fill-rule="evenodd" clip-rule="evenodd" d="M710.44 117.22C721.643 117.214 732.593 113.886 741.905 107.658C751.217 101.43 758.473 92.5801 762.756 82.2282C767.039 71.8762 768.157 60.4867 765.968 49.4997C763.778 38.5126 758.381 28.4214 750.457 20.5017C742.533 12.5821 732.439 7.18969 721.451 5.00627C710.462 2.82285 699.074 3.94646 688.724 8.23504C678.374 12.5236 669.528 19.7846 663.305 29.1C657.081 38.4154 653.76 49.3669 653.76 60.5699C653.791 75.5899 659.774 89.9852 670.398 100.603C681.021 111.221 695.42 117.196 710.44 117.22V117.22Z" fill="white"/>
<path d="M710.43 117.8H710.37C695.161 117.763 680.585 111.703 669.834 100.945C659.082 90.1878 653.029 75.6093 653 60.4V60.4C653.029 45.1786 659.091 30.5895 669.858 19.8301C680.625 9.07065 695.219 3.0185 710.44 3V3C725.648 3.03964 740.22 9.10112 750.97 19.8583C761.72 30.6154 767.771 45.1924 767.8 60.4V60.4C767.771 75.5955 761.729 90.1619 750.995 100.917C740.26 111.672 725.705 117.742 710.51 117.8H710.43ZM710.37 116.29H710.51C725.303 116.232 739.472 110.323 749.924 99.8529C760.375 89.3831 766.258 75.2033 766.29 60.41V60.41C766.264 45.6029 760.374 31.4089 749.909 20.9331C739.445 10.4572 725.257 4.55228 710.45 4.51V4.51C695.627 4.52585 681.416 10.4177 670.93 20.8943C660.444 31.3708 654.539 45.5773 654.51 60.4V60.4C654.539 75.2088 660.433 89.4033 670.901 99.8775C681.37 110.352 695.561 116.253 710.37 116.29V116.29Z" fill="#231F20"/>
<path fill-rule="evenodd" clip-rule="evenodd" d="M725.11 12.23V42.39L722.41 44.11C722.01 38.68 719.57 35.31 711.27 35.31H709.17C700.76 35.31 698.41 38.68 698.03 44.11L695.34 42.4V12.24C683.816 15.8025 673.951 23.3802 667.538 33.5969C661.125 43.8135 658.589 55.9914 660.391 67.9187C662.192 79.846 668.212 90.7317 677.356 98.5986C686.5 106.465 698.163 110.792 710.225 110.792C722.288 110.792 733.95 106.465 743.095 98.5986C752.239 90.7317 758.259 79.846 760.06 67.9187C761.862 55.9914 759.325 43.8135 752.912 33.5969C746.499 23.3802 736.635 15.8025 725.11 12.24V12.23ZM728.31 45.59V58.93C728.252 59.5278 728.065 60.1057 727.761 60.6238C727.457 61.1418 727.044 61.5875 726.55 61.93L713.87 69.68L710.34 71.84L708.55 70.84L693.89 62C693.398 61.6575 692.986 61.2116 692.684 60.6934C692.381 60.1752 692.196 59.5973 692.14 59V45.59C692.14 45.37 692.14 45.32 692.14 45.29C692.296 45.3153 692.443 45.3769 692.57 45.47L708.64 55.26L710.2 56.26L712.85 54.65L727.85 45.52C727.977 45.4269 728.125 45.3653 728.28 45.34C728.28 45.34 728.31 45.37 728.31 45.59Z" fill="#231F20"/>
<path fill-rule="evenodd" clip-rule="evenodd" d="M710.22 34.3799C711.43 34.3799 712.613 34.021 713.62 33.3485C714.626 32.676 715.411 31.7202 715.874 30.6019C716.337 29.4836 716.458 28.2531 716.222 27.0659C715.986 25.8788 715.403 24.7883 714.547 23.9324C713.691 23.0765 712.601 22.4936 711.414 22.2575C710.226 22.0213 708.996 22.1425 707.878 22.6058C706.759 23.069 705.803 23.8534 705.131 24.8598C704.459 25.8662 704.1 27.0495 704.1 28.2599C704.102 29.8822 704.748 31.4373 705.895 32.5845C707.042 33.7316 708.597 34.3773 710.22 34.3799V34.3799Z" fill="#231F20"/>
<path d="M737.77 77.3499V75.9999C737.83 75.9999 739.99 75.7399 739.99 76.4999V91.4999C739.29 91.5599 738.13 91.8699 737.68 91.9399C736.993 92.0806 736.292 92.1476 735.59 92.1399C732.64 92.1399 730.99 90.8499 730.99 88.6199V84.3899C730.99 82.2199 732.83 80.9099 734.99 80.9099C735.993 80.8562 736.984 81.1454 737.8 81.7299C737.8 81.7299 737.8 81.7299 737.8 81.7299C737.8 81.7299 737.8 80.9299 737.8 80.5499C737.795 80.48 737.795 80.4098 737.8 80.3399L737.77 77.3499ZM737.77 84.4999C737.77 83.3799 736.51 82.5999 735.24 82.5999C734.962 82.5782 734.683 82.6187 734.423 82.7187C734.163 82.8187 733.929 82.9755 733.737 83.1778C733.545 83.38 733.401 83.6226 733.315 83.8877C733.229 84.1527 733.204 84.4337 733.24 84.7099V88.2899C733.24 89.7199 733.81 90.4199 735.77 90.4199C736.454 90.435 737.134 90.3126 737.77 90.0599V84.4999Z" fill="white"/>
<path d="M719.87 84.0001C719.68 81.8901 717.81 81.0001 715.81 81.0001C714.527 80.905 713.251 81.2584 712.2 82.0001C711.263 81.2834 710.098 80.9284 708.92 81.0001C707.91 81.0006 706.903 81.1215 705.92 81.3601C705.328 81.5103 704.721 81.5974 704.11 81.6201V91.6201C704.11 92.3601 706.32 92.1201 706.32 92.1201V83.0001C707.049 82.7556 707.812 82.634 708.58 82.6401C710.26 82.6401 710.87 83.3401 710.87 84.5401V91.5401C710.87 92.2601 713.09 92.0401 713.09 92.0401V84.1401C713.15 83.2201 714.3 82.6101 715.49 82.6101C716.68 82.6101 717.63 83.2001 717.63 84.6101V91.4901C717.63 92.2401 719.85 91.9901 719.85 91.9901V84.2201C719.865 84.1477 719.872 84.0739 719.87 84.0001Z" fill="white"/>
<path d="M695.67 81.6C695.464 81.4282 695.235 81.2867 694.99 81.18H694.88C694.417 81.0324 693.935 80.9549 693.45 80.95C693.013 80.9514 692.577 80.9983 692.15 81.09L691.27 81.27C690.76 81.37 690.07 81.47 689.22 81.58V91.58C689.22 92.28 691.43 92.06 691.43 92.06V83L692.72 82.76C692.865 82.7269 693.012 82.7035 693.16 82.69C693.633 82.6526 694.107 82.7352 694.54 82.93C694.948 83.1531 695.327 83.4251 695.67 83.74V81.6Z" fill="white"/>
<path d="M729.72 88.74C729.72 88.62 729.65 88.74 729.59 88.74C729.53 88.74 729.52 88.82 729.26 89.06C729.088 89.2226 728.904 89.3729 728.71 89.51C728.71 89.51 728.46 89.68 728.45 89.69C727.689 90.1426 726.816 90.3746 725.93 90.36C724.16 90.36 723.44 89.66 723.44 88.29V87.21C724.113 87.5211 724.849 87.6717 725.59 87.65C728.8 87.65 729.9 86.11 729.9 84.36C729.9 82.36 728.46 81.03 725.61 81.03C722.76 81.03 721.23 82.36 721.23 84.57V88.68C721.23 90.9 723 92.23 725.93 92.23C726.759 92.2371 727.582 92.0948 728.36 91.81L728.8 91.62C729.184 91.4722 729.526 91.2358 729.8 90.93L729.72 88.74ZM723.4 84.89C723.4 83.52 723.84 82.72 725.53 82.72C727.22 82.72 727.65 83.39 727.65 84.36C727.65 85.33 727.05 85.86 725.27 85.86C724.637 85.8355 724.009 85.7347 723.4 85.56V84.89Z" fill="white"/>
<path d="M702.59 89.9001L702.25 90.1201C701.8 90.3551 701.298 90.4721 700.79 90.4601C699.19 90.4601 698.9 89.5901 698.89 88.1701V83.1701H702.26C702.305 83.1717 702.351 83.1636 702.393 83.1463C702.435 83.129 702.473 83.1029 702.504 83.0698C702.535 83.0367 702.559 82.9972 702.574 82.9542C702.589 82.9111 702.594 82.8654 702.59 82.8201V81.4601H698.89V78.7801C698.89 78.2201 696.67 78.3701 696.67 78.3701V88.7101C696.67 90.9501 698.01 92.2501 700.52 92.2501C701.123 92.2664 701.725 92.1819 702.3 92.0001V92.0001C702.605 91.8828 702.892 91.7211 703.15 91.5201V89.3801C703.085 89.4793 703.007 89.57 702.92 89.6501C702.814 89.7391 702.704 89.8226 702.59 89.9001V89.9001Z" fill="white"/>
<path d="M383.4 117.8C415.101 117.8 440.8 92.1012 440.8 60.4C440.8 28.6989 415.101 3 383.4 3C351.699 3 326 28.6989 326 60.4C326 92.1012 351.699 117.8 383.4 117.8Z" fill="white"/>
<path d="M384 111.93V111.77H384.23C388.376 111.728 392.501 111.17 396.51 110.11C399.522 109.386 402.449 108.343 405.24 107C407.04 106.1 408.84 105.19 410.54 104.14C412.24 103.09 413.76 101.92 415.33 100.77C417.522 99.191 419.534 97.3768 421.33 95.3599C423.482 92.9446 425.445 90.367 427.2 87.6499C429.05 84.6832 430.611 81.5454 431.86 78.2799C432.83 75.7193 433.546 73.07 434 70.3699C434.717 66.8428 435.053 63.2488 435 59.6499C434.905 55.1427 434.233 50.6662 433 46.3299C432.137 43.3289 431.016 40.408 429.65 37.5999C427.95 34.2643 425.924 31.1055 423.6 28.1699C423.19 27.6399 422.65 27.1699 422.26 26.6599C420.926 24.9821 419.417 23.4502 417.76 22.0899C416.58 21.0399 415.31 20.0899 414.1 19.0899C412.676 17.9109 411.138 16.8758 409.51 15.9999C408.23 15.2899 406.95 14.5599 405.64 13.9199C404.53 13.3699 403.38 12.9199 402.23 12.4599C401.47 12.1599 400.69 11.9199 399.91 11.6599C398.91 11.3399 397.91 11.0099 396.91 10.7099C396.35 10.5399 395.76 10.4099 395.19 10.2599C394.47 10.0799 393.75 9.8599 393.02 9.7399C392.29 9.6199 391.47 9.5599 390.69 9.4799C390.2 9.4199 389.69 9.3699 389.21 9.2999C389.12 9.2999 389.03 9.2399 388.94 9.2299C388.56 9.2299 388.18 9.1199 387.8 9.0899C387.42 9.0599 387.28 9.0899 387.02 9.0899L385.57 8.9999C385.37 8.9999 385.16 8.9999 384.96 8.9999C384.56 8.9999 384.16 8.9099 383.76 8.8999C383.36 8.8899 383.16 8.9599 382.86 8.9699L378.7 8.9999C378.61 8.99038 378.52 8.99038 378.43 8.9999C377.84 9.1199 377.25 9.2999 376.66 9.3599C375.139 9.43721 373.628 9.66159 372.15 10.0299C370.48 10.5199 368.81 10.9699 367.15 11.4499C366.181 11.6679 365.236 11.9829 364.33 12.3899C363.329 12.9487 362.282 13.4205 361.2 13.7999C360.698 14.0039 360.215 14.255 359.76 14.5499L356.38 16.4899H356.33C355.835 16.6019 355.394 16.8808 355.08 17.2799C354.861 17.4815 354.611 17.6469 354.34 17.7699L353.42 18.3999C353.23 18.5399 353.05 18.6999 352.85 18.8499C352.17 19.3399 351.49 19.8499 350.85 20.3199C350.46 20.6099 350.1 20.9299 349.74 21.2499C349.38 21.5699 348.9 21.9799 348.5 22.3699C348.1 22.7599 347.5 23.3699 347.02 23.8799C346.54 24.3899 346.02 24.7599 345.61 25.2499C344.71 26.2499 343.82 27.3199 342.97 28.3999C341.949 29.6171 341.004 30.8962 340.14 32.2299C338.9 34.2299 337.75 36.3699 336.71 38.5199C335.84 40.3399 335.15 42.2499 334.46 44.1499C334.048 45.313 333.714 46.5023 333.46 47.7099C332.938 49.8241 332.524 51.9636 332.22 54.1199C331.835 57.3351 331.755 60.5796 331.98 63.8099C332.194 67.0853 332.734 70.3312 333.59 73.4999C334.367 76.7074 335.511 79.8146 337 82.7599C338 84.6599 339 86.6299 340.12 88.4299C341.35 90.2566 342.685 92.0096 344.12 93.6799C346.388 96.3985 348.954 98.8539 351.77 101C354.244 102.979 356.927 104.682 359.77 106.08C361.35 106.83 362.9 107.66 364.53 108.31C366.019 108.879 367.538 109.366 369.08 109.77C371.483 110.54 373.954 111.079 376.46 111.38L384 111.93Z" fill="white"/>
<path d="M384 111.93L376.46 111.35C373.954 111.049 371.483 110.51 369.08 109.74C367.538 109.336 366.019 108.849 364.53 108.28C362.9 107.63 361.35 106.8 359.77 106.05C356.927 104.652 354.244 102.949 351.77 100.97C348.97 98.831 346.417 96.3859 344.16 93.68C342.725 92.0096 341.39 90.2566 340.16 88.43C338.99 86.63 338.06 84.66 337.04 82.76C335.527 79.8341 334.356 76.7438 333.55 73.55C332.694 70.3813 332.154 67.1353 331.94 63.86C331.715 60.6296 331.795 57.3852 332.18 54.17C332.484 52.0136 332.898 49.8742 333.42 47.76C333.674 46.5524 334.008 45.3631 334.42 44.2C335.11 42.3 335.8 40.39 336.67 38.57C337.67 36.42 338.86 34.32 340.1 32.28C340.964 30.9462 341.909 29.6671 342.93 28.45C343.78 27.37 344.67 26.33 345.57 25.3C346 24.81 346.57 24.39 346.98 23.93C347.39 23.47 347.98 22.93 348.46 22.42C348.94 21.91 349.28 21.66 349.7 21.3C350.12 20.94 350.42 20.66 350.81 20.37C351.48 19.87 352.16 19.37 352.81 18.9C353.01 18.75 353.19 18.59 353.38 18.45L354.3 17.82C354.571 17.697 354.821 17.5316 355.04 17.33C355.354 16.9309 355.795 16.652 356.29 16.54H356.34L359.72 14.6C360.175 14.3051 360.657 14.054 361.16 13.85C362.242 13.4706 363.289 12.9988 364.29 12.44C365.196 12.0329 366.141 11.718 367.11 11.5C368.77 11.02 370.44 10.57 372.11 10.08C373.588 9.71167 375.099 9.48729 376.62 9.40998C377.21 9.34998 377.8 9.16998 378.39 9.04998C378.48 9.04046 378.57 9.04046 378.66 9.04998H382.82C383.12 9.04998 383.42 8.97998 383.72 8.97998C384.02 8.97998 384.52 9.04998 384.92 9.07998C385.12 9.07998 385.33 9.07998 385.53 9.07998L387.02 9.19998C387.28 9.19998 387.55 9.19998 387.8 9.19998C388.05 9.19998 388.56 9.28998 388.94 9.33998C389.03 9.33998 389.12 9.39998 389.21 9.40998C389.7 9.47998 390.21 9.52998 390.69 9.58998C391.47 9.66998 392.25 9.71998 393.02 9.84998C393.79 9.97998 394.47 10.19 395.19 10.37C395.76 10.52 396.35 10.65 396.91 10.82C397.91 11.12 398.91 11.45 399.91 11.77C400.69 12.03 401.47 12.27 402.23 12.57C403.38 13.02 404.53 13.48 405.64 14.03C406.95 14.67 408.23 15.4 409.51 16.11C411.127 16.9813 412.654 18.0096 414.07 19.18C415.28 20.18 416.55 21.13 417.73 22.18C419.387 23.5403 420.895 25.0722 422.23 26.75C422.62 27.29 423.16 27.75 423.57 28.26C425.894 31.1956 427.92 34.3544 429.62 37.69C430.991 40.4681 432.122 43.3587 433 46.33C434.233 50.6663 434.905 55.1428 435 59.65C435.053 63.2489 434.717 66.8429 434 70.37C433.535 73.061 432.808 75.7001 431.83 78.25C430.581 81.5155 429.02 84.6532 427.17 87.62C425.414 90.337 423.452 92.9147 421.3 95.33C419.504 97.3469 417.492 99.161 415.3 100.74C413.73 101.89 412.17 103.08 410.51 104.11C408.85 105.14 407.01 106.11 405.21 106.97C402.436 108.32 399.526 109.373 396.53 110.11C392.521 111.17 388.396 111.728 384.25 111.77H384.02L384 111.93ZM393.19 56.6L393.25 56.77C393.418 56.718 393.594 56.6944 393.77 56.7C394 56.7 394.33 56.82 394.42 56.99C395.03 58.09 395.6 59.21 396.18 60.33C396.76 61.45 397.18 62.33 397.73 63.33C397.73 63.43 397.95 63.47 398.07 63.54C398.135 63.3997 398.182 63.2519 398.21 63.1C398.21 63.01 398.12 62.9 398.06 62.8C397.33 61.38 396.55 59.98 395.87 58.54C395.579 57.9331 395.415 57.2727 395.39 56.6C395.39 52.6 395.39 48.69 395.39 44.73C395.39 41.26 395.39 37.8 395.39 34.33C395.39 32.73 395.39 31.13 395.39 29.53C395.39 28.76 395.27 28.68 394.52 28.69L383.52 28.78L373.13 28.85C372.43 28.85 372.25 29.04 372.26 29.71C372.34 36.0833 372.417 42.45 372.49 48.81C372.49 51.18 372.49 53.56 372.56 55.93C372.56 59.87 372.63 63.8 372.68 67.74C372.68 69.23 372.73 70.74 372.77 72.2C372.77 72.53 372.77 72.9 373.23 72.93C374.07 72.93 374.92 72.93 375.76 72.93C376 72.93 376.25 72.93 376.49 72.93C377.67 72.93 378.85 73.02 380.03 73.01C381.21 73 382.39 72.92 383.58 72.89C384.58 72.89 385.49 72.89 386.45 72.89C387.65 72.89 388.85 72.95 390.04 72.96C391.51 72.96 392.97 72.96 394.43 72.96C395.23 72.96 395.49 72.79 395.49 71.96C395.49 70.34 395.49 68.72 395.49 67.1C395.49 66.43 395.55 65.77 395.58 65C395.34 65.0509 395.106 65.1245 394.88 65.22C393.24 66.07 391.61 66.92 389.98 67.79C388.35 68.66 386.51 69.68 384.78 70.64C384.717 70.6898 384.644 70.7248 384.566 70.7424C384.488 70.7599 384.407 70.7595 384.329 70.7412C384.251 70.723 384.178 70.6873 384.116 70.6368C384.054 70.5864 384.004 70.5225 383.97 70.45C383.864 70.2959 383.767 70.1356 383.68 69.97C382.62 67.97 381.57 66.06 380.5 64.12C379.43 62.18 378.1 60.06 377 58C376.213 56.6666 375.457 55.3033 374.73 53.91C374.37 53.24 373.73 52.61 374.38 51.78C374.38 51.78 374.38 51.72 374.32 51.66C374.254 51.6698 374.186 51.6698 374.12 51.66C373.93 51.6 373.65 51.58 373.6 51.45C373.581 51.3538 373.585 51.2542 373.613 51.16C373.641 51.0659 373.691 50.98 373.76 50.91C374.109 50.6056 374.487 50.3375 374.89 50.11C375.33 49.86 375.82 49.71 376.26 49.47C377.57 48.76 378.86 48.02 380.16 47.3C380.43 47.15 380.72 47.06 380.98 46.92C381.7 46.53 382.41 46.12 383.13 45.72C383.85 45.32 384.66 44.88 385.43 44.46C385.74 44.29 386.03 44.09 386.33 43.91C386.63 43.73 386.74 43.64 386.85 43.7C386.942 43.7552 387.021 43.8307 387.08 43.9208C387.139 44.0109 387.177 44.1132 387.19 44.22C387.19 44.38 386.98 44.58 386.82 44.69C386.36 44.98 385.82 45.24 385.4 45.51L385.47 45.67C385.748 45.6998 386.03 45.6677 386.294 45.5761C386.559 45.4845 386.8 45.3356 387 45.14C387.57 44.69 387.64 44.71 388 45.34C388.63 46.52 389.35 47.65 390 48.84C390.52 49.84 391.38 50.76 391.24 52.14C391.58 52.03 391.9 51.95 392.24 51.83C392.58 51.71 392.89 51.64 393.1 51.99C393.61 52.86 394.1 53.73 394.58 54.64C394.92 55.34 394.79 55.64 394.14 56.07L393.19 56.6ZM385.19 81.6C385.322 81.7423 385.446 81.8926 385.56 82.05L387.83 86.05C388.21 86.71 388.5 86.7 388.89 86.05C389.63 84.6833 390.397 83.2966 391.19 81.89C391.27 81.7278 391.34 81.5608 391.4 81.39L391.66 81.59C391.66 81.83 391.72 82.07 391.72 82.31C391.72 83.47 391.72 84.64 391.72 85.81C391.72 86.21 391.79 86.66 392.29 86.74C392.951 86.8525 393.62 86.9127 394.29 86.92C395.46 86.92 396.62 86.85 397.78 86.92C398.565 87.034 399.365 86.9374 400.1 86.64C400.19 86.64 400.35 86.64 400.47 86.64C400.832 86.7532 401.204 86.8336 401.58 86.88C403.04 86.88 404.5 86.94 405.96 86.88C406.855 86.8428 407.744 86.7087 408.61 86.48C410.74 85.88 411.61 83.82 411.67 81.85C411.675 80.558 411.233 79.3041 410.42 78.3C410.126 77.893 409.742 77.5595 409.298 77.3253C408.854 77.0912 408.362 76.9627 407.86 76.95C405.62 76.87 403.38 76.95 401.13 76.95C401.026 76.9353 400.921 76.9447 400.821 76.9775C400.722 77.0104 400.631 77.0657 400.557 77.1393C400.482 77.2128 400.426 77.3026 400.392 77.4016C400.358 77.5006 400.347 77.6061 400.36 77.71C400.36 78.54 400.36 79.36 400.36 80.19C400.36 81.92 400.36 83.65 400.36 85.38C400.36 85.38 400.31 85.38 400.28 85.45V85.3C399.815 85.1942 399.344 85.1173 398.87 85.07C397.87 85.07 396.87 85.07 395.87 85.07C395.23 85.07 395.02 84.88 394.99 84.24C394.98 84.0534 394.98 83.8665 394.99 83.68C394.99 82.92 395.2 82.8 395.99 82.84C397.1 82.84 398.21 82.9 399.31 82.84C399.96 82.84 400.11 82.6 400.07 81.98C400.01 81.11 399.89 80.98 399.19 80.98H396.43C395 81.08 394.9 81 395 79.57C395 78.89 395.18 78.71 395.84 78.7C397.02 78.7 398.2 78.7 399.38 78.7C399.81 78.7 400.03 78.58 400.03 78.14C400.03 77.95 400.03 77.76 400.03 77.57C400.03 77.13 399.82 76.94 399.36 76.94C397.12 76.94 394.88 76.94 392.63 77C392.242 76.986 391.859 77.0905 391.533 77.2995C391.206 77.5085 390.95 77.8122 390.8 78.17C390.38 79.01 389.89 79.81 389.43 80.63C389.23 81 388.98 81.03 388.75 80.63C388.3 79.94 387.89 79.22 387.44 78.53C387.181 78.0939 386.883 77.6822 386.55 77.3C386.263 76.9796 385.884 76.7564 385.465 76.6614C385.045 76.5664 384.607 76.6044 384.21 76.77C383.818 76.9232 383.488 77.201 383.269 77.5606C383.05 77.9201 382.956 78.3415 383 78.76C383 80.12 383 81.47 383 82.82C383 83.82 383.08 84.75 383 85.7C383 86.83 383.28 87.17 384.37 86.98C384.465 86.974 384.557 86.9486 384.641 86.9054C384.725 86.8622 384.8 86.8022 384.86 86.7291C384.92 86.6559 384.964 86.5712 384.99 86.4802C385.016 86.3891 385.023 86.2938 385.01 86.2C385.01 84.92 385.01 83.64 385.01 82.36C385.08 82.17 385.12 82 385.16 81.63L385.19 81.6ZM367.4 82.93L367.26 83.01C367.155 82.9296 367.06 82.8354 366.98 82.73C366.15 81.18 365.3 79.63 364.5 78.06C364.331 77.6796 364.047 77.3615 363.689 77.15C363.33 76.9385 362.915 76.8441 362.5 76.88C362.027 76.8147 361.545 76.8945 361.119 77.1088C360.692 77.323 360.34 77.6617 360.11 78.08C358.83 80.81 357.62 83.56 356.4 86.32C356.18 86.82 356.4 87.13 356.96 87.11C357.3 87.11 357.64 87.03 357.96 86.99C358.78 86.91 359.03 86.71 359.19 85.93C359.215 85.6825 359.331 85.4531 359.516 85.2867C359.701 85.1202 359.941 85.0287 360.19 85.03C361.19 85.03 362.1 85.03 363.05 84.95C364 84.87 364.34 85.07 364.73 85.95C364.808 86.1827 364.916 86.4045 365.05 86.61C365.097 86.6867 365.16 86.7529 365.234 86.8045C365.308 86.8561 365.392 86.892 365.48 86.91C367.05 86.91 368.63 86.91 370.2 86.91C370.72 86.91 370.95 86.56 370.94 86.04C370.94 84.94 370.94 83.85 370.94 82.76C370.94 81.67 370.89 80.76 370.89 79.76C370.89 78.76 371.1 78.65 371.98 78.67C372.281 78.6664 372.582 78.6831 372.88 78.72C373.78 78.83 374.09 79.26 374.12 80.41C374.137 80.585 374.118 80.7616 374.065 80.9293C374.012 81.097 373.927 81.2525 373.813 81.3866C373.699 81.5207 373.56 81.6308 373.403 81.7104C373.247 81.79 373.075 81.8374 372.9 81.85C372.57 81.85 372.23 81.85 371.9 81.85C371.31 81.85 371.2 82.01 371.49 82.53C372.24 83.87 373.02 85.21 373.83 86.53C373.921 86.6418 374.033 86.734 374.16 86.8011C374.287 86.8681 374.427 86.9086 374.57 86.92C375.263 86.9551 375.957 86.9551 376.65 86.92C376.949 86.9099 377.245 86.8595 377.53 86.77C378.04 86.59 378.1 86.37 377.81 85.93C377.25 85.1 376.68 84.28 376.12 83.46C376.047 83.3858 375.992 83.2958 375.96 83.1968C375.928 83.0979 375.92 82.9928 375.935 82.89C375.951 82.7871 375.99 82.6893 376.05 82.6043C376.11 82.5192 376.188 82.4493 376.28 82.4C376.401 82.3106 376.528 82.2304 376.66 82.16C377.022 81.9762 377.338 81.7139 377.585 81.3921C377.833 81.0703 378.005 80.6972 378.089 80.3002C378.174 79.9033 378.168 79.4924 378.073 79.0979C377.978 78.7033 377.796 78.335 377.54 78.02C377.216 77.6769 376.821 77.4094 376.382 77.2365C375.943 77.0637 375.471 76.9897 375 77.02C372.67 76.96 370.34 77.02 368 77.02C367.47 77.02 367.32 77.29 367.33 77.76C367.33 78.76 367.33 79.69 367.39 80.65C367.41 81.47 367.4 82.2 367.4 82.93ZM380.53 73.93V74C378.35 74 376.16 74 373.98 74C373.05 74 372.9 74.16 372.98 75.09C372.98 75.71 373.45 75.96 374.33 75.92L377.81 75.81C378.38 75.81 378.59 76 378.6 76.58C378.6 78.18 378.6 79.78 378.6 81.38C378.6 82.98 378.65 84.66 378.69 86.29C378.69 86.94 378.9 87.07 379.55 86.98C379.813 86.9651 380.077 86.9651 380.34 86.98C380.86 86.98 381.34 87.06 381.91 86.98C382.59 86.98 382.79 86.7 382.79 85.98V84.11C382.79 82.74 382.79 81.37 382.79 80C382.79 78.63 382.79 77.44 382.85 76.17C382.85 75.83 383.03 75.68 383.4 75.69C384.5 75.69 385.61 75.76 386.72 75.78C386.945 75.7765 387.169 75.753 387.39 75.71C388.08 75.59 388.24 75.32 388.18 74.48C388.18 73.84 387.69 73.88 387.24 73.88L380.53 73.93ZM408.21 91.17C408.49 91.54 408.72 91.89 409 92.17C409.15 92.2827 409.32 92.3674 409.5 92.42C409.53 92.2513 409.53 92.0786 409.5 91.91C409.19 91.09 408.87 90.27 408.5 89.46C408.4 89.23 408.15 89.07 407.96 88.88C407.78 89.08 407.52 89.24 407.42 89.47C407.06 90.27 406.75 91.1 406.42 91.93C406.387 92.1085 406.387 92.2915 406.42 92.47C406.58 92.34 406.82 92.25 406.89 92.08C407.12 91.57 407.28 91.02 407.49 90.5C407.592 90.2806 407.705 90.0669 407.83 89.86C408.43 90.37 408.47 90.69 408.21 91.17ZM391.27 56.44H390.98C390.33 56.55 390.24 56.44 390.33 55.83C390.33 55.48 390.21 55.39 389.92 55.39C389.63 55.39 389.4 55.19 389.52 54.88C389.64 54.57 389.81 54.09 389.39 53.73C389.33 53.73 389.39 53.45 389.45 53.31C389.474 53.1777 389.507 53.0474 389.55 52.92L389.36 52.79C389.17 53 388.82 53.22 388.83 53.42C388.817 54.0478 388.936 54.6714 389.18 55.25C389.617 55.9889 390.123 56.6852 390.69 57.33C390.797 57.4886 390.951 57.6101 391.13 57.6782C391.309 57.7462 391.505 57.7573 391.69 57.71C391.523 57.5229 391.382 57.3144 391.27 57.09C391.238 56.8745 391.238 56.6555 391.27 56.44ZM390.33 89C389.908 88.8446 389.442 88.8626 389.034 89.05C388.625 89.2374 388.307 89.579 388.15 90C388.079 90.4371 388.079 90.8828 388.15 91.32C388.15 92.08 388.98 92.03 389.3 92.49C389.37 92.59 389.72 92.49 389.95 92.49V92.31C389.523 92.2478 389.136 92.0224 388.871 91.6812C388.606 91.34 388.484 90.9094 388.53 90.48C388.57 89.3 389.57 89.35 390.33 89ZM399.01 89.1C399.29 89.31 399.68 89.47 399.83 89.76C399.98 90.05 399.77 90.52 399.34 90.76C399.277 90.8193 399.23 90.8932 399.202 90.9751C399.174 91.057 399.166 91.1445 399.18 91.23C399.299 91.5645 399.464 91.8809 399.67 92.17C399.73 92.26 399.92 92.27 400.05 92.31C400.05 92.18 400.16 92.01 400.11 91.92C399.981 91.7215 399.919 91.4863 399.936 91.2499C399.952 91.0135 400.045 90.7889 400.2 90.61C400.371 90.407 400.46 90.1466 400.447 89.8812C400.434 89.6158 400.32 89.3653 400.13 89.18C399.72 88.73 399.32 89 399 89.14L399.01 89.1ZM357.15 90.77C356.76 90.59 356.81 90.15 356.92 89.77C357.03 89.39 356.92 89.2 356.63 89.18C356.52 89.18 356.28 89.49 356.27 89.66C356.27 90.45 356.27 91.24 356.33 92.03C356.33 92.2 356.54 92.36 356.66 92.53C356.751 92.3599 356.828 92.1826 356.89 92C357 91.6 357.05 91.24 357.15 90.77ZM365.61 89.14C365.02 88.79 364.67 88.95 364.61 89.6C364.61 90.46 364.61 91.32 364.61 92.19C364.61 92.3 364.61 92.46 364.61 92.51C364.751 92.5963 364.902 92.6635 365.06 92.71C365.06 92.56 365.24 92.4 365.22 92.27C365.055 91.751 365.005 91.2026 365.072 90.6622C365.139 90.1219 365.323 89.6026 365.61 89.14V89.14ZM381.77 89.14L381.95 89.05C381.742 88.9651 381.523 88.9112 381.3 88.89C381.16 88.89 380.92 89.1 380.93 89.21C380.93 90.03 381.05 90.84 381.14 91.66C381.185 91.897 381.245 92.1308 381.32 92.36H381.56L381.77 89.14ZM374.14 89C373.732 90.0925 373.765 91.3007 374.23 92.37C374.541 91.2633 374.509 90.0885 374.14 89V89ZM398.21 92.25L398.42 92.18C398.42 92.05 398.42 91.93 398.42 91.81C398.42 91.04 398.42 90.27 398.42 89.5C398.385 89.3003 398.318 89.1077 398.22 88.93C398.09 89.1 397.87 89.28 397.86 89.46C397.86 90.21 397.86 90.97 397.86 91.72C397.94 91.9273 398.059 92.1174 398.21 92.28V92.25ZM366.53 89.35C367.53 90.24 367.4 91.21 366.73 92.25C366.926 92.1946 367.109 92.0996 367.267 91.9709C367.425 91.8422 367.554 91.6824 367.648 91.5015C367.742 91.3207 367.797 91.1225 367.812 90.9193C367.826 90.716 367.798 90.5121 367.73 90.32C367.57 89.61 367.13 89.23 366.53 89.38V89.35ZM391 92C391.238 91.8859 391.444 91.7148 391.6 91.5018C391.756 91.2888 391.856 91.0406 391.893 90.7792C391.93 90.5179 391.901 90.2515 391.81 90.0039C391.719 89.7563 391.568 89.5351 391.37 89.36C391.27 89.26 391.08 89.26 390.93 89.22C390.93 89.36 390.93 89.55 390.93 89.65C391.124 89.8947 391.252 90.1846 391.303 90.4925C391.353 90.8004 391.325 91.1161 391.22 91.41C391.17 91.63 391.07 91.82 391 92ZM382.3 47.49L382.17 47.26L380.06 48.4L380.15 48.57C380.89 48.27 381.8 48.31 382.28 47.51L382.3 47.49ZM377.13 50L375.38 50.87C375.552 50.9369 375.735 50.9672 375.919 50.959C376.103 50.9508 376.283 50.9042 376.448 50.8223C376.612 50.7404 376.758 50.6249 376.876 50.4833C376.993 50.3417 377.08 50.1771 377.13 50V50ZM382.93 46.83L383 47C384 46.82 384.59 46.5 384.69 45.86L382.93 46.83ZM379.58 48.71C379.05 48.94 378.49 48.91 378.27 49.5C378.94 49.68 379.29 49.47 379.58 48.75V48.71ZM397.58 64.07L397.49 63.86L396.58 64.22L396.66 64.42L397.58 64.07ZM357.21 92.56C357.7 92.91 357.82 92.9 358.1 92.44L357.21 92.56Z" fill="black"/>
<path d="M393.19 56.6L394.03 56.07C394.68 55.63 394.81 55.34 394.47 54.64C394 53.73 393.5 52.86 393 52C392.79 51.65 392.47 51.72 392.14 51.84C391.81 51.96 391.52 52.04 391.14 52.15C391.28 50.77 390.42 49.87 389.9 48.85C389.3 47.66 388.58 46.53 387.9 45.35C387.55 44.72 387.48 44.7 386.9 45.15C386.699 45.3406 386.459 45.4851 386.197 45.5731C385.934 45.6612 385.655 45.6909 385.38 45.66L385.31 45.5C385.78 45.23 386.31 44.97 386.73 44.68C386.89 44.57 387.1 44.37 387.1 44.21C387.087 44.1032 387.049 44.0009 386.99 43.9108C386.931 43.8207 386.853 43.7452 386.76 43.69C386.65 43.63 386.41 43.81 386.24 43.9C386.07 43.99 385.65 44.28 385.34 44.45C384.57 44.87 383.8 45.28 383.04 45.71C382.28 46.14 381.61 46.52 380.89 46.91C380.63 47.05 380.34 47.14 380.07 47.29C378.77 48.01 377.48 48.75 376.17 49.46C375.73 49.7 375.24 49.85 374.8 50.1C374.397 50.3275 374.019 50.5956 373.67 50.9C373.601 50.97 373.551 51.0559 373.523 51.15C373.495 51.2442 373.491 51.3437 373.51 51.44C373.51 51.57 373.84 51.59 374.03 51.65C374.096 51.6598 374.164 51.6598 374.23 51.65C374.23 51.71 374.3 51.76 374.29 51.77C373.65 52.6 374.29 53.23 374.64 53.9C375.433 55.3 376.22 56.6666 377 58C378.14 60 379.31 62 380.44 64.09C381.57 66.18 382.52 68 383.58 70C383.667 70.1656 383.764 70.3259 383.87 70.48C383.904 70.5525 383.954 70.6164 384.016 70.6668C384.078 70.7172 384.151 70.753 384.229 70.7712C384.307 70.7895 384.388 70.7899 384.466 70.7724C384.544 70.7548 384.618 70.7198 384.68 70.67C386.407 69.71 388.14 68.76 389.88 67.82C391.51 66.95 393.14 66.1 394.78 65.25C395.006 65.1545 395.24 65.0808 395.48 65.03C395.48 65.8 395.39 66.46 395.39 67.13C395.39 68.75 395.39 70.37 395.39 71.99C395.39 72.81 395.13 72.99 394.33 72.99C392.87 72.99 391.41 72.99 389.94 72.99C388.75 72.99 387.55 72.93 386.35 72.92C385.35 72.92 384.44 72.92 383.48 72.92C382.29 72.92 381.11 73.04 379.93 73.04C378.75 73.04 377.57 72.99 376.39 72.96C376.15 72.96 375.9 72.96 375.66 72.96C374.82 72.96 373.97 72.96 373.13 72.96C372.7 72.96 372.67 72.56 372.67 72.23C372.67 70.75 372.59 69.23 372.58 67.77C372.58 63.83 372.5 59.9 372.46 55.96C372.46 53.59 372.46 51.21 372.39 48.84C372.31 42.4733 372.233 36.1066 372.16 29.74C372.16 29.07 372.33 28.88 373.03 28.88L383.42 28.81L394.42 28.72C395.17 28.72 395.27 28.79 395.29 29.56C395.29 31.16 395.29 32.76 395.29 34.36C395.29 37.83 395.29 41.29 395.29 44.76C395.29 48.76 395.29 52.67 395.29 56.63C395.315 57.3027 395.479 57.963 395.77 58.57C396.45 60.01 397.23 61.41 397.96 62.83C398.02 62.93 398.11 63.04 398.11 63.13C398.082 63.2819 398.035 63.4296 397.97 63.57C397.85 63.5 397.68 63.46 397.63 63.36C397.1 62.36 396.63 61.36 396.08 60.36C395.53 59.36 395 58.09 394.42 57C394.33 56.83 394 56.76 393.77 56.71C393.594 56.7043 393.418 56.728 393.25 56.78L393.19 56.6ZM390.19 36.51V36.42C390.54 36.42 390.9 36.42 391.26 36.42C391.93 36.42 392.01 36.25 391.91 35.57C391.62 33.64 389.62 32.06 387.91 31.63C387.383 31.5585 386.864 31.438 386.36 31.27C385.859 31.0614 385.302 31.0297 384.78 31.18C384.574 31.205 384.366 31.205 384.16 31.18C383.642 31.1252 383.121 31.1052 382.6 31.12C381.613 31.1485 380.632 31.2962 379.68 31.56C378.605 31.8799 377.633 32.4765 376.86 33.29C376.221 33.9493 375.814 34.7988 375.7 35.71C375.64 36.39 375.78 36.55 376.47 36.55H381.16L390.19 36.51ZM385.71 39.65C385.682 39.9459 385.716 40.2445 385.812 40.5259C385.908 40.8073 386.063 41.0649 386.267 41.2817C386.47 41.4984 386.718 41.6693 386.992 41.7828C387.267 41.8963 387.563 41.9499 387.86 41.94C388.442 41.9102 388.994 41.6694 389.412 41.2627C389.829 40.8561 390.085 40.3112 390.13 39.73C390.166 39.0844 389.947 38.4505 389.521 37.9644C389.095 37.4783 388.495 37.1787 387.85 37.13C387.541 37.1457 387.239 37.2246 386.962 37.3619C386.684 37.4992 386.438 37.6919 386.239 37.9282C386.039 38.1644 385.89 38.4391 385.801 38.7353C385.712 39.0314 385.684 39.3428 385.72 39.65H385.71ZM379.86 42.05C380.409 42.0386 380.933 41.8215 381.33 41.4419C381.726 41.0623 381.965 40.5477 382 40C382.066 39.3834 381.896 38.7648 381.526 38.2679C381.155 37.771 380.61 37.4324 380 37.32C379.692 37.2995 379.384 37.3448 379.095 37.453C378.806 37.5612 378.543 37.7298 378.325 37.9474C378.106 38.1651 377.937 38.4268 377.827 38.7153C377.718 39.0037 377.671 39.3121 377.69 39.62C377.619 39.9318 377.624 40.256 377.705 40.5655C377.785 40.875 377.938 41.1608 378.152 41.3988C378.365 41.6368 378.633 41.8201 378.932 41.9334C379.231 42.0467 379.553 42.0867 379.87 42.05H379.86Z" fill="white"/>
<path d="M385.16 81.6299C385.16 81.9699 385.08 82.1699 385.08 82.3599C385.08 83.6399 385.08 84.9199 385.08 86.1999C385.093 86.2937 385.086 86.3891 385.06 86.4801C385.034 86.5711 384.99 86.6558 384.929 86.729C384.869 86.8021 384.795 86.8621 384.711 86.9053C384.627 86.9485 384.534 86.9739 384.44 86.9799C383.35 87.1699 383.02 86.8299 383.07 85.6999C383.07 84.6999 383.07 83.7899 383.07 82.8199C383.07 81.4699 383.07 80.1199 383.07 78.7599C383.034 78.3542 383.128 77.9477 383.338 77.5989C383.549 77.2502 383.864 76.9774 384.24 76.8199C384.637 76.6543 385.075 76.6163 385.495 76.7113C385.914 76.8063 386.293 77.0295 386.58 77.3499C386.913 77.7321 387.211 78.1438 387.47 78.5799C387.92 79.2699 388.33 79.9899 388.78 80.6799C389.01 81.0399 389.26 81.0099 389.46 80.6799C389.92 79.8599 390.41 79.0599 390.83 78.2199C390.968 77.8624 391.211 77.5548 391.527 77.3372C391.843 77.1197 392.217 77.0021 392.6 76.9999C394.85 76.9999 397.09 76.9999 399.33 76.9399C399.79 76.9399 400 77.1299 400 77.5699C400 77.7599 400 77.9499 400 78.1399C400 78.5799 399.78 78.7099 399.35 78.6999C398.17 78.6999 396.99 78.6999 395.81 78.6999C395.15 78.6999 395 78.8899 394.97 79.5699C394.9 80.9799 394.97 81.0799 396.43 81.0599H399.19C399.89 81.0599 400.01 81.1799 400.07 82.0599C400.07 82.6799 399.96 82.8999 399.31 82.9199C398.21 82.9199 397.1 82.9199 395.99 82.9199C395.22 82.9199 394.99 82.9999 394.99 83.7599C394.98 83.9464 394.98 84.1334 394.99 84.3199C394.99 84.9599 395.23 85.1499 395.87 85.1499C396.87 85.1499 397.87 85.1499 398.87 85.1499C399.344 85.1973 399.815 85.2741 400.28 85.3799V85.5299C400.28 85.5299 400.36 85.4799 400.36 85.4599C400.36 83.7299 400.36 81.9999 400.36 80.2699C400.36 79.4399 400.36 78.6199 400.36 77.7899C400.347 77.686 400.357 77.5805 400.392 77.4815C400.426 77.3825 400.482 77.2927 400.557 77.2192C400.631 77.1456 400.722 77.0903 400.821 77.0574C400.921 77.0246 401.026 77.0152 401.13 77.0299C403.38 77.0299 405.62 76.9499 407.86 77.0299C408.362 77.0426 408.854 77.1711 409.298 77.4052C409.742 77.6394 410.126 77.9729 410.42 78.3799C411.233 79.384 411.675 80.6379 411.67 81.9299C411.67 83.9299 410.74 85.9299 408.61 86.5599C407.744 86.7886 406.855 86.9228 405.96 86.9599C404.5 87.0199 403.04 86.9599 401.58 86.9599C401.204 86.9135 400.832 86.8331 400.47 86.7199C400.35 86.7199 400.19 86.6499 400.1 86.7199C399.365 87.0173 398.564 87.1139 397.78 86.9999C396.62 86.9999 395.46 87.0599 394.29 86.9999C393.62 86.9926 392.951 86.9324 392.29 86.8199C391.79 86.7399 391.73 86.2899 391.72 85.8899C391.72 84.7199 391.72 83.5499 391.72 82.3899C391.72 82.1499 391.72 81.9099 391.66 81.6699L391.4 81.4699C391.34 81.6407 391.27 81.8077 391.19 81.9699C390.397 83.3232 389.62 84.6899 388.86 86.0699C388.47 86.7599 388.18 86.7699 387.8 86.0699L385.53 82.0699C385.416 81.9159 385.292 81.7689 385.16 81.6299V81.6299ZM404 81.9999C404 82.5199 404 82.9999 404.07 83.5799C404.18 85.1899 404.19 85.1899 405.81 85.0899C406.332 85.1033 406.84 84.9209 407.234 84.5785C407.628 84.2361 407.88 83.7586 407.94 83.2399C408.067 82.3678 408.033 81.4797 407.84 80.6199C407.65 79.8399 407.35 78.9199 406.35 78.7399C405.864 78.6954 405.376 78.6954 404.89 78.7399C404.17 78.7399 404.05 78.8599 404.02 79.5899C403.99 80.3199 404 81.1599 404 81.9999Z" fill="white"/>
<path d="M367.4 82.9299C367.4 82.1999 367.4 81.4699 367.4 80.7399C367.4 79.7399 367.4 78.8099 367.34 77.8499C367.34 77.3799 367.48 77.1099 368.01 77.1099C370.35 77.1099 372.68 77.0099 375.01 77.1099C375.481 77.0797 375.952 77.1536 376.391 77.3264C376.83 77.4993 377.226 77.7668 377.55 78.1099C377.806 78.4249 377.988 78.7932 378.083 79.1878C378.178 79.5823 378.183 79.9932 378.099 80.3901C378.015 80.7871 377.842 81.1602 377.595 81.482C377.348 81.8038 377.032 82.0661 376.67 82.2499C376.537 82.3203 376.41 82.4005 376.29 82.4899C376.198 82.5392 376.119 82.6091 376.059 82.6942C376 82.7792 375.96 82.877 375.945 82.9799C375.929 83.0827 375.938 83.1878 375.97 83.2867C376.002 83.3857 376.057 83.4758 376.13 83.5499C376.69 84.3699 377.26 85.1899 377.82 86.0199C378.11 86.4599 378.05 86.6799 377.54 86.8599C377.255 86.9494 376.959 86.9999 376.66 87.0099C375.967 87.045 375.273 87.045 374.58 87.0099C374.436 86.9985 374.297 86.958 374.17 86.891C374.043 86.8239 373.93 86.7317 373.84 86.6199C373.03 85.3099 372.25 83.9699 371.5 82.6199C371.21 82.0999 371.32 81.9499 371.91 81.9399C372.25 81.9399 372.59 81.9399 372.91 81.9399C373.085 81.9273 373.256 81.8799 373.413 81.8003C373.57 81.7207 373.709 81.6107 373.823 81.4765C373.936 81.3424 374.022 81.1869 374.075 81.0192C374.128 80.8515 374.146 80.6749 374.13 80.4999C374.13 79.3499 373.79 78.9199 372.89 78.8099C372.591 78.773 372.291 78.7563 371.99 78.7599C371.11 78.7599 370.89 78.9499 370.9 79.8499C370.91 80.7499 370.9 81.8499 370.95 82.8499C371 83.8499 370.95 85.0299 370.95 86.1299C370.95 86.6499 370.73 86.9899 370.21 86.9999C368.64 86.9999 367.06 86.9999 365.49 86.9999C365.401 86.9819 365.318 86.946 365.244 86.8944C365.17 86.8428 365.107 86.7766 365.06 86.6999C364.925 86.4944 364.818 86.2726 364.74 86.0399C364.35 85.1199 364.05 84.9499 363.06 85.0399C362.07 85.1299 361.15 85.0399 360.2 85.1199C359.951 85.1186 359.711 85.2102 359.526 85.3766C359.341 85.543 359.225 85.7724 359.2 86.0199C359.04 86.7999 358.79 87.0199 357.97 87.0799C357.64 87.0799 357.3 87.1799 356.97 87.1999C356.42 87.1999 356.19 86.9099 356.41 86.4099C357.63 83.6499 358.84 80.8999 360.12 78.1699C360.35 77.7516 360.702 77.4129 361.128 77.1987C361.555 76.9844 362.037 76.9047 362.51 76.9699C362.925 76.934 363.34 77.0284 363.699 77.2399C364.057 77.4514 364.341 77.7695 364.51 78.1499C365.31 79.7199 366.16 81.2699 366.99 82.8199C367.07 82.9253 367.164 83.0195 367.27 83.0999L367.4 82.9299ZM361.85 80.2199C361.7 80.2899 361.63 80.2999 361.61 80.3399C361.24 81.1099 360.85 81.8799 360.52 82.6599C360.4 82.9699 360.6 83.1699 360.93 83.1699C361.509 83.2 362.09 83.2 362.67 83.1699C362.8 83.1699 363.02 82.8699 362.99 82.7899C362.64 81.9099 362.24 81.0699 361.85 80.2199V80.2199Z" fill="white"/>
<path d="M380.53 73.8899H387.2C387.65 73.8899 388.09 73.8899 388.14 74.4899C388.2 75.3299 388.04 75.5999 387.35 75.7199C387.129 75.763 386.905 75.7864 386.68 75.7899C385.57 75.7899 384.46 75.7899 383.36 75.6999C382.99 75.6999 382.82 75.8399 382.81 76.1799C382.81 77.4499 382.76 78.7299 382.75 80.0099C382.74 81.2899 382.75 82.7499 382.75 84.1199V85.9899C382.75 86.6799 382.55 86.9299 381.87 86.9899C381.35 86.9899 380.87 86.9899 380.3 86.9899C380.037 86.975 379.773 86.975 379.51 86.9899C378.86 87.0799 378.67 86.9899 378.65 86.2999C378.65 84.6699 378.58 83.0299 378.56 81.3899C378.54 79.7499 378.56 78.1899 378.56 76.5899C378.56 76.0099 378.34 75.7999 377.77 75.8199L374.29 75.9299C373.41 75.9299 372.98 75.7199 372.94 75.0999C372.87 74.1699 373.02 74.0099 373.94 74.0099C376.12 74.0099 378.31 74.0099 380.49 74.0099L380.53 73.8899Z" fill="white"/>
<path d="M408.21 91.1699C408.47 90.6899 408.43 90.3699 407.91 89.8799C407.785 90.0869 407.672 90.3005 407.57 90.5199C407.36 91.0399 407.2 91.5899 406.97 92.0999C406.9 92.2699 406.66 92.3599 406.5 92.4899C406.467 92.3114 406.467 92.1284 406.5 91.9499C406.81 91.1199 407.12 90.2899 407.5 89.4899C407.6 89.2599 407.86 89.0999 408.04 88.8999C408.23 89.0899 408.48 89.2499 408.58 89.4799C408.93 90.2899 409.25 91.1099 409.58 91.9299C409.61 92.0986 409.61 92.2712 409.58 92.4399C409.4 92.3874 409.231 92.3027 409.08 92.1899C408.72 91.8899 408.49 91.5399 408.21 91.1699Z" fill="white"/>
<path d="M391.27 56.4401C391.236 56.6621 391.236 56.888 391.27 57.1101C391.382 57.3345 391.523 57.543 391.69 57.7301C391.505 57.7774 391.309 57.7662 391.13 57.6982C390.951 57.6302 390.797 57.5086 390.69 57.3501C390.123 56.7053 389.618 56.009 389.18 55.2701C388.936 54.6915 388.817 54.0679 388.83 53.4401C388.83 53.2401 389.17 53.0201 389.36 52.8101L389.55 52.9401C389.507 53.0675 389.474 53.1978 389.45 53.3301C389.45 53.4701 389.33 53.7001 389.39 53.7501C389.81 54.1101 389.69 54.4801 389.52 54.9001C389.35 55.3201 389.58 55.4001 389.92 55.4101C390.26 55.4201 390.37 55.5001 390.33 55.8501C390.24 56.5001 390.33 56.5701 390.98 56.4601L391.27 56.4401Z" fill="white"/>
<path d="M390.33 88.9999C389.57 89.3099 388.57 89.2599 388.53 90.4699C388.503 90.6895 388.519 90.9124 388.578 91.1257C388.637 91.339 388.737 91.5385 388.874 91.7125C389.011 91.8865 389.181 92.0316 389.374 92.1393C389.568 92.247 389.78 92.3152 390 92.3399V92.5199C389.77 92.5199 389.42 92.5999 389.35 92.5199C389.03 92.0599 388.19 92.1099 388.2 91.3499C388.13 90.9128 388.13 90.4671 388.2 90.0299C388.352 89.6152 388.659 89.2759 389.057 89.0836C389.454 88.8914 389.911 88.8614 390.33 88.9999V88.9999Z" fill="white"/>
<path d="M399 89.14C399.31 89.01 399.71 88.73 400.12 89.2C400.31 89.3852 400.424 89.6358 400.437 89.9012C400.45 90.1666 400.361 90.427 400.19 90.63C400.035 90.8089 399.942 91.0335 399.926 91.2699C399.909 91.5063 399.971 91.7415 400.1 91.94C400.1 92.03 400.1 92.2 400.04 92.33C399.91 92.33 399.72 92.33 399.66 92.19C399.454 91.9009 399.289 91.5845 399.17 91.25C399.156 91.1645 399.164 91.077 399.192 90.9951C399.219 90.9132 399.267 90.8393 399.33 90.78C399.76 90.56 400.03 90.23 399.82 89.78C399.61 89.33 399.29 89.35 399 89.14Z" fill="white"/>
<path d="M357.15 90.7701C357.05 91.2401 356.99 91.6001 356.89 91.9501C356.828 92.1327 356.751 92.31 356.66 92.4801C356.54 92.3101 356.35 92.1501 356.33 91.9801C356.33 91.1901 356.25 90.4001 356.27 89.6101C356.27 89.4401 356.52 89.1201 356.63 89.1301C356.96 89.1301 357 89.4101 356.92 89.7201C356.84 90.0301 356.76 90.5901 357.15 90.7701Z" fill="white"/>
<path d="M365.61 89.1399C365.346 89.613 365.187 90.1375 365.144 90.6776C365.101 91.2177 365.175 91.7608 365.36 92.2699C365.36 92.3999 365.25 92.5599 365.2 92.7099C365.042 92.6634 364.891 92.5962 364.75 92.5099C364.69 92.4599 364.75 92.2999 364.75 92.1899C364.75 91.3199 364.75 90.4599 364.75 89.5999C364.67 88.9999 365 88.7899 365.61 89.1399Z" fill="white"/>
<path d="M381.77 89.1799L381.56 92.3899H381.32C381.244 92.1608 381.184 91.9269 381.14 91.6899C381.05 90.8699 380.97 90.0599 380.93 89.2399C380.93 89.1299 381.16 88.9299 381.3 88.9199C381.523 88.9411 381.742 88.995 381.95 89.0799L381.77 89.1799Z" fill="white"/>
<path d="M374.14 89C374.509 90.0886 374.54 91.2633 374.23 92.37C373.764 91.3008 373.732 90.0926 374.14 89V89Z" fill="white"/>
<path d="M398.21 92.28C398.104 92.1173 398.026 91.9382 397.98 91.75C397.98 91 397.92 90.24 397.98 89.49C397.98 89.31 398.21 89.13 398.34 88.96C398.437 89.1377 398.505 89.3303 398.54 89.53C398.54 90.3 398.54 91.07 398.54 91.84C398.54 91.96 398.54 92.08 398.54 92.21L398.21 92.28Z" fill="white"/>
<path d="M366.53 89.3799C367.13 89.2299 367.53 89.6099 367.76 90.3799C367.828 90.572 367.856 90.776 367.842 90.9792C367.828 91.1824 367.772 91.3806 367.678 91.5615C367.585 91.7424 367.455 91.9021 367.297 92.0308C367.139 92.1596 366.956 92.2545 366.76 92.3099C367.4 91.2399 367.52 90.2699 366.53 89.3799Z" fill="white"/>
<path d="M391 92C391.09 91.8 391.19 91.61 391.26 91.41C391.365 91.1213 391.397 90.8108 391.351 90.5069C391.306 90.203 391.185 89.9152 391 89.67C390.93 89.57 391 89.38 391 89.24C391.15 89.24 391.34 89.24 391.44 89.38C391.631 89.5604 391.774 89.785 391.857 90.0339C391.941 90.2828 391.962 90.5484 391.918 90.8073C391.875 91.0662 391.768 91.3104 391.608 91.5184C391.448 91.7264 391.239 91.8918 391 92Z" fill="white"/>
<path d="M382.28 47.51C381.8 48.31 380.89 48.27 380.15 48.57L380.06 48.4L382.15 47.28L382.28 47.51Z" fill="white"/>
<path d="M377.13 50C377.08 50.1771 376.993 50.3417 376.876 50.4833C376.758 50.6249 376.612 50.7404 376.447 50.8223C376.283 50.9043 376.103 50.9508 375.919 50.959C375.735 50.9672 375.551 50.9369 375.38 50.87L377.13 50Z" fill="white"/>
<path d="M382.93 46.8701L384.72 45.8701C384.62 46.5101 384.08 46.8701 383.03 47.0101L382.93 46.8701Z" fill="white"/>
<path d="M379.58 48.75C379.29 49.47 378.94 49.68 378.27 49.54C378.49 49 379.05 49 379.58 48.75Z" fill="white"/>
<path d="M397.61 64.1099L396.69 64.4599L396.61 64.2599L397.52 63.8999L397.61 64.1099Z" fill="white"/>
<path d="M357.21 92.5599L358.1 92.4399C357.82 92.8999 357.7 92.9099 357.21 92.5599Z" fill="white"/>
<path d="M390.2 36.5101H381.2H376.51C375.82 36.5101 375.68 36.3501 375.74 35.6701C375.854 34.7589 376.261 33.9094 376.9 33.2501C377.672 32.4366 378.645 31.84 379.72 31.5201C380.672 31.2563 381.653 31.1086 382.64 31.0801C383.161 31.0653 383.682 31.0853 384.2 31.1401C384.406 31.1651 384.614 31.1651 384.82 31.1401C385.342 30.9898 385.899 31.0215 386.4 31.2301C386.904 31.398 387.423 31.5186 387.95 31.5901C389.66 32.0201 391.66 33.5901 391.95 35.5301C392.05 36.2101 391.95 36.3401 391.3 36.3801C390.94 36.3801 390.58 36.3801 390.23 36.3801L390.2 36.5101Z" fill="black"/>
<path d="M385.72 39.6499C385.684 39.3419 385.712 39.0297 385.802 38.7329C385.892 38.4361 386.042 38.1609 386.242 37.9246C386.443 37.6882 386.69 37.4956 386.969 37.3589C387.247 37.2222 387.551 37.1443 387.86 37.1299C388.505 37.1786 389.105 37.4782 389.531 37.9643C389.958 38.4504 390.176 39.0843 390.14 39.7299C390.095 40.3111 389.84 40.856 389.422 41.2627C389.004 41.6693 388.453 41.9101 387.87 41.9399C387.573 41.9498 387.277 41.8962 387.003 41.7827C386.728 41.6692 386.48 41.4983 386.277 41.2816C386.073 41.0648 385.919 40.8072 385.823 40.5258C385.727 40.2444 385.692 39.9458 385.72 39.6499V39.6499Z" fill="black"/>
<path d="M379.87 42.05C379.55 42.0921 379.225 42.0561 378.922 41.9451C378.619 41.8341 378.347 41.6514 378.13 41.4127C377.913 41.174 377.757 40.8862 377.675 40.574C377.593 40.2619 377.588 39.9345 377.66 39.62C377.64 39.3094 377.688 38.9982 377.799 38.7076C377.91 38.4169 378.083 38.1536 378.305 37.9354C378.526 37.7172 378.793 37.5494 379.085 37.4432C379.378 37.337 379.69 37.295 380 37.32C380.61 37.4324 381.155 37.771 381.525 38.2679C381.896 38.7648 382.066 39.3835 382 40C381.965 40.546 381.727 41.0592 381.333 41.4386C380.939 41.818 380.417 42.0361 379.87 42.05V42.05Z" fill="black"/>
<path d="M404 82C404 81.21 404 80.41 404 79.62C404 78.83 404.15 78.7899 404.87 78.7699C405.355 78.7254 405.844 78.7254 406.33 78.7699C407.33 78.9499 407.63 79.87 407.82 80.65C408.013 81.5098 408.047 82.3979 407.92 83.2699C407.832 83.7757 407.562 84.2315 407.16 84.5506C406.757 84.8696 406.252 85.0296 405.74 85C404.12 85.1 404.11 85.0999 404 83.4899C404 82.9599 404 82.43 403.93 81.91L404 82Z" fill="black"/>
<path d="M361.85 80.22C362.24 81.07 362.64 81.91 362.99 82.76C362.99 82.84 362.8 83.13 362.67 83.14C362.091 83.17 361.51 83.17 360.93 83.14C360.6 83.14 360.4 82.94 360.52 82.63C360.85 81.85 361.24 81.08 361.61 80.31C361.63 80.3 361.7 80.29 361.85 80.22Z" fill="black"/>
<path d="M682.384 81.0034C681.396 80.9717 680.414 81.1598 679.508 81.5539C679.067 81.7329 678.66 81.9876 678.306 82.3066C678.306 82.3066 678.306 82.3066 678.306 82.374V84.4636C678.306 84.5759 678.306 84.7669 678.385 84.6433L678.587 84.4074C678.893 84.1076 679.224 83.8333 679.575 83.5873L679.811 83.4525L679.98 83.3402C680.737 82.9692 681.576 82.7953 682.418 82.8346C684.283 82.8346 684.754 83.5873 684.754 84.5535C684.114 86.0027 680.542 85.6095 678.823 87.1374C678.786 87.1682 678.752 87.202 678.722 87.2385V87.2385L678.643 87.3396C678.577 87.4094 678.517 87.4846 678.463 87.5643V87.5643C678.443 87.5997 678.421 87.6335 678.396 87.6654C678.118 88.1455 677.981 88.6948 678.003 89.2494C677.979 89.8185 678.115 90.3829 678.396 90.8784V90.8784C678.396 90.8784 678.396 90.957 678.396 90.9907C678.427 91.0242 678.454 91.0621 678.475 91.1031V91.1031C678.479 91.1175 678.486 91.1309 678.496 91.1425C678.505 91.1541 678.517 91.1636 678.531 91.1705V91.1705C678.996 91.6677 679.569 92.0526 680.206 92.2958C680.842 92.5391 681.526 92.6345 682.204 92.5748C683.125 92.6012 684.046 92.5448 684.957 92.4063C685.697 92.2524 686.412 91.9952 687.08 91.6423V84.6658C687.024 82.3516 685.395 81.0034 682.384 81.0034ZM684.777 86.6206V90.6986C684.021 90.8885 683.243 90.9792 682.463 90.9683C680.879 90.9683 680.216 90.3054 680.216 89.328C680.216 87.216 683.732 87.7328 684.653 86.7891C684.693 86.7572 684.727 86.7193 684.754 86.6768V86.6768L684.777 86.6206Z" fill="white"/>
<path d="M8.1 225H5.5V230.5H0V233.2H5.5V238.7H8.1V233.2H13.6V230.5H8.1V225Z" fill="#144E52"/>
<path d="M64.5008 225H61.8008V230.5H56.3008V233.2H61.8008V238.7H64.5008V233.2H70.0008V230.5H64.5008V225Z" fill="#144E52"/>
<path d="M8.1 279.6H5.5V285.1H0V287.7H5.5V293.2H8.1V287.7H13.6V285.1H8.1V279.6Z" fill="#144E52"/>
<path d="M64.5008 279.6H61.8008V285.1H56.3008V287.7H61.8008V293.2H64.5008V287.7H70.0008V285.1H64.5008V279.6Z" fill="#144E52"/>
<path d="M120.8 225H118.2V230.5H112.7V233.2H118.2V238.7H120.8V233.2H126.3V230.5H120.8V225Z" fill="#144E52"/>
<path d="M120.8 279.6H118.2V285.1H112.7V287.7H118.2V293.2H120.8V287.7H126.3V285.1H120.8V279.6Z" fill="#144E52"/>
<path d="M177.2 225H174.5V230.5H169V233.2H174.5V238.7H177.2V233.2H182.7V230.5H177.2V225Z" fill="#144E52"/>
<path d="M177.2 279.6H174.5V285.1H169V287.7H174.5V293.2H177.2V287.7H182.7V285.1H177.2V279.6Z" fill="#144E52"/>
<path d="M233.5 225H230.9V230.5H225.4V233.2H230.9V238.7H233.5V233.2H239V230.5H233.5V225Z" fill="#144E52"/>
<path d="M233.5 279.6H230.9V285.1H225.4V287.7H230.9V293.2H233.5V287.7H239V285.1H233.5V279.6Z" fill="#144E52"/>
<path d="M8.1 334.2H5.5V339.7H0V342.3H5.5V347.8H8.1V342.3H13.6V339.7H8.1V334.2Z" fill="#144E52"/>
<path d="M64.5008 334.2H61.8008V339.7H56.3008V342.3H61.8008V347.8H64.5008V342.3H70.0008V339.7H64.5008V334.2Z" fill="#144E52"/>
<path d="M120.8 334.2H118.2V339.7H112.7V342.3H118.2V347.8H120.8V342.3H126.3V339.7H120.8V334.2Z" fill="#144E52"/>
<path d="M177.2 334.2H174.5V339.7H169V342.3H174.5V347.8H177.2V342.3H182.7V339.7H177.2V334.2Z" fill="#144E52"/>
<path d="M233.5 334.2H230.9V339.7H225.4V342.3H230.9V347.8H233.5V342.3H239V339.7H233.5V334.2Z" fill="#144E52"/>
<path d="M289.9 225H287.2V230.5H281.7V233.2H287.2V238.7H289.9V233.2H295.4V230.5H289.9V225Z" fill="#144E52"/>
<path d="M289.9 279.6H287.2V285.1H281.7V287.7H287.2V293.2H289.9V287.7H295.4V285.1H289.9V279.6Z" fill="#144E52"/>
<path d="M346.201 225H343.601V230.5H338.101V233.2H343.601V238.7H346.201V233.2H351.701V230.5H346.201V225Z" fill="#144E52"/>
<path d="M346.201 279.6H343.601V285.1H338.101V287.7H343.601V293.2H346.201V287.7H351.701V285.1H346.201V279.6Z" fill="#144E52"/>
<path d="M402.6 225H399.9V230.5H394.4V233.2H399.9V238.7H402.6V233.2H408.1V230.5H402.6V225Z" fill="#144E52"/>
<path d="M402.6 279.6H399.9V285.1H394.4V287.7H399.9V293.2H402.6V287.7H408.1V285.1H402.6V279.6Z" fill="#144E52"/>
<path d="M458.901 230.5V225H456.301V230.5H450.801V233.2H456.301V238.7H458.901V233.2H464.401V230.5H458.901Z" fill="#144E52"/>
<path d="M458.901 279.6H456.301V285.1H450.801V287.7H456.301V293.2H458.901V287.7H464.401V285.1H458.901V279.6Z" fill="#144E52"/>
<path d="M289.9 334.2H287.2V339.7H281.7V342.3H287.2V347.8H289.9V342.3H295.4V339.7H289.9V334.2Z" fill="#144E52"/>
<path d="M346.201 334.2H343.601V339.7H338.101V342.3H343.601V347.8H346.201V342.3H351.701V339.7H346.201V334.2Z" fill="#144E52"/>
<path d="M402.6 334.2H399.9V339.7H394.4V342.3H399.9V347.8H402.6V342.3H408.1V339.7H402.6V334.2Z" fill="#144E52"/>
<path d="M458.901 334.2H456.301V339.7H450.801V342.3H456.301V347.8H458.901V342.3H464.401V339.7H458.901V334.2Z" fill="#144E52"/>
<path d="M458.901 225H456.301V230.5H450.801V233.2H456.301V238.7H458.901V233.2H464.401V230.5H458.901V225Z" fill="#144E52"/>
<path d="M515.301 225H512.601V230.5H507.101V233.2H512.601V238.7H515.301V233.2H520.801V230.5H515.301V225Z" fill="#144E52"/>
<path d="M458.901 279.6H456.301V285.1H450.801V287.7H456.301V293.2H458.901V287.7H464.401V285.1H458.901V279.6Z" fill="#144E52"/>
<path d="M515.301 279.6H512.601V285.1H507.101V287.7H512.601V293.2H515.301V287.7H520.801V285.1H515.301V279.6Z" fill="#144E52"/>
<path d="M571.6 225H569V230.5H563.5V233.2H569V238.7H571.6V233.2H577.1V230.5H571.6V225Z" fill="#144E52"/>
<path d="M571.6 279.6H569V285.1H563.5V287.7H569V293.2H571.6V287.7H577.1V285.1H571.6V279.6Z" fill="#144E52"/>
<path d="M628.001 225H625.301V230.5H619.801V233.2H625.301V238.7H628.001V233.2H633.501V230.5H628.001V225Z" fill="#144E52"/>
<path d="M628.001 279.6H625.301V285.1H619.801V287.7H625.301V293.2H628.001V287.7H633.501V285.1H628.001V279.6Z" fill="#144E52"/>
<path d="M684.3 225H681.7V230.5H676.2V233.2H681.7V238.7H684.3V233.2H689.8V230.5H684.3V225Z" fill="#144E52"/>
<path d="M684.3 279.6H681.7V285.1H676.2V287.7H681.7V293.2H684.3V287.7H689.8V285.1H684.3V279.6Z" fill="#144E52"/>
<path d="M458.901 334.2H456.301V339.7H450.801V342.3H456.301V347.8H458.901V342.3H464.401V339.7H458.901V334.2Z" fill="#144E52"/>
<path d="M515.301 334.2H512.601V339.7H507.101V342.3H512.601V347.8H515.301V342.3H520.801V339.7H515.301V334.2Z" fill="#144E52"/>
<path d="M571.6 334.2H569V339.7H563.5V342.3H569V347.8H571.6V342.3H577.1V339.7H571.6V334.2Z" fill="#144E52"/>
<path d="M628.001 334.2H625.301V339.7H619.801V342.3H625.301V347.8H628.001V342.3H633.501V339.7H628.001V334.2Z" fill="#144E52"/>
<path d="M684.3 334.2H681.7V339.7H676.2V342.3H681.7V347.8H684.3V342.3H689.8V339.7H684.3V334.2Z" fill="#144E52"/>
<path d="M740.7 225H738V230.5H732.5V233.2H738V238.7H740.7V233.2H746.2V230.5H740.7V225Z" fill="#144E52"/>
<path d="M740.7 279.6H738V285.1H732.5V287.7H738V293.2H740.7V287.7H746.2V285.1H740.7V279.6Z" fill="#144E52"/>
<path d="M797 225H794.4V230.5H788.9V233.2H794.4V238.7H797V233.2H802.5V230.5H797V225Z" fill="#144E52"/>
<path d="M797 279.6H794.4V285.1H788.9V287.7H794.4V293.2H797V287.7H802.5V285.1H797V279.6Z" fill="#144E52"/>
<path d="M853.4 225H850.7V230.5H845.2V233.2H850.7V238.7H853.4V233.2H858.9V230.5H853.4V225Z" fill="#144E52"/>
<path d="M853.4 279.6H850.7V285.1H845.2V287.7H850.7V293.2H853.4V287.7H858.9V285.1H853.4V279.6Z" fill="#144E52"/>
<path d="M909.701 230.5V225H907.101V230.5H901.601V233.2H907.101V238.7H909.701V233.2H915.201V230.5H909.701Z" fill="#144E52"/>
<path d="M909.701 279.6H907.101V285.1H901.601V287.7H907.101V293.2H909.701V287.7H915.201V285.1H909.701V279.6Z" fill="#144E52"/>
<path d="M740.7 334.2H738V339.7H732.5V342.3H738V347.8H740.7V342.3H746.2V339.7H740.7V334.2Z" fill="#144E52"/>
<path d="M797 334.2H794.4V339.7H788.9V342.3H794.4V347.8H797V342.3H802.5V339.7H797V334.2Z" fill="#144E52"/>
<path d="M853.4 334.2H850.7V339.7H845.2V342.3H850.7V347.8H853.4V342.3H858.9V339.7H853.4V334.2Z" fill="#144E52"/>
<path d="M909.701 334.2H907.101V339.7H901.601V342.3H907.101V347.8H909.701V342.3H915.201V339.7H909.701V334.2Z" fill="#144E52"/>
<path d="M909.701 225H907.101V230.5H901.601V233.2H907.101V238.7H909.701V233.2H915.201V230.5H909.701V225Z" fill="#144E52"/>
<path d="M966.1 225H963.4V230.5H957.9V233.2H963.4V238.7H966.1V233.2H971.6V230.5H966.1V225Z" fill="#144E52"/>
<path d="M909.701 279.6H907.101V285.1H901.601V287.7H907.101V293.2H909.701V287.7H915.201V285.1H909.701V279.6Z" fill="#144E52"/>
<path d="M966.1 279.6H963.4V285.1H957.9V287.7H963.4V293.2H966.1V287.7H971.6V285.1H966.1V279.6Z" fill="#144E52"/>
<path d="M1022.4 225H1019.8V230.5H1014.3V233.2H1019.8V238.7H1022.4V233.2H1027.9V230.5H1022.4V225Z" fill="#144E52"/>
<path d="M1022.4 279.6H1019.8V285.1H1014.3V287.7H1019.8V293.2H1022.4V287.7H1027.9V285.1H1022.4V279.6Z" fill="#144E52"/>
<path d="M1078.8 225H1076.1V230.5H1070.6V233.2H1076.1V238.7H1078.8V233.2H1084.3V230.5H1078.8V225Z" fill="#144E52"/>
<path d="M1078.8 279.6H1076.1V285.1H1070.6V287.7H1076.1V293.2H1078.8V287.7H1084.3V285.1H1078.8V279.6Z" fill="#144E52"/>
<path d="M1135.1 225H1132.5V230.5H1127V233.2H1132.5V238.7H1135.1V233.2H1140.6V230.5H1135.1V225Z" fill="#144E52"/>
<path d="M1135.1 279.6H1132.5V285.1H1127V287.7H1132.5V293.2H1135.1V287.7H1140.6V285.1H1135.1V279.6Z" fill="#144E52"/>
<path d="M909.701 334.2H907.101V339.7H901.601V342.3H907.101V347.8H909.701V342.3H915.201V339.7H909.701V334.2Z" fill="#144E52"/>
<path d="M966.1 334.2H963.4V339.7H957.9V342.3H963.4V347.8H966.1V342.3H971.6V339.7H966.1V334.2Z" fill="#144E52"/>
<path d="M1022.4 334.2H1019.8V339.7H1014.3V342.3H1019.8V347.8H1022.4V342.3H1027.9V339.7H1022.4V334.2Z" fill="#144E52"/>
<path d="M1078.8 334.2H1076.1V339.7H1070.6V342.3H1076.1V347.8H1078.8V342.3H1084.3V339.7H1078.8V334.2Z" fill="#144E52"/>
<path d="M1135.1 334.2H1132.5V339.7H1127V342.3H1132.5V347.8H1135.1V342.3H1140.6V339.7H1135.1V334.2Z" fill="#144E52"/>
<path d="M1191.5 225H1188.8V230.5H1183.3V233.2H1188.8V238.7H1191.5V233.2H1197V230.5H1191.5V225Z" fill="#144E52"/>
<path d="M1191.5 279.6H1188.8V285.1H1183.3V287.7H1188.8V293.2H1191.5V287.7H1197V285.1H1191.5V279.6Z" fill="#144E52"/>
<path d="M1247.8 225H1245.2V230.5H1239.7V233.2H1245.2V238.7H1247.8V233.2H1253.3V230.5H1247.8V225Z" fill="#144E52"/>
<path d="M1247.8 279.6H1245.2V285.1H1239.7V287.7H1245.2V293.2H1247.8V287.7H1253.3V285.1H1247.8V279.6Z" fill="#144E52"/>
<path d="M1304.2 225H1301.5V230.5H1296V233.2H1301.5V238.7H1304.2V233.2H1309.7V230.5H1304.2V225Z" fill="#144E52"/>
<path d="M1304.2 279.6H1301.5V285.1H1296V287.7H1301.5V293.2H1304.2V287.7H1309.7V285.1H1304.2V279.6Z" fill="#144E52"/>
<path d="M1360.5 230.5V225H1357.9V230.5H1352.4V233.2H1357.9V238.7H1360.5V233.2H1366V230.5H1360.5Z" fill="#144E52"/>
<path d="M1360.5 279.6H1357.9V285.1H1352.4V287.7H1357.9V293.2H1360.5V287.7H1366V285.1H1360.5V279.6Z" fill="#144E52"/>
<path d="M1191.5 334.2H1188.8V339.7H1183.3V342.3H1188.8V347.8H1191.5V342.3H1197V339.7H1191.5V334.2Z" fill="#144E52"/>
<path d="M1247.8 334.2H1245.2V339.7H1239.7V342.3H1245.2V347.8H1247.8V342.3H1253.3V339.7H1247.8V334.2Z" fill="#144E52"/>
<path d="M1304.2 334.2H1301.5V339.7H1296V342.3H1301.5V347.8H1304.2V342.3H1309.7V339.7H1304.2V334.2Z" fill="#144E52"/>
<path d="M1360.5 334.2H1357.9V339.7H1352.4V342.3H1357.9V347.8H1360.5V342.3H1366V339.7H1360.5V334.2Z" fill="#144E52"/>
<path d="M1360.5 225H1357.9V230.5H1352.4V233.2H1357.9V238.7H1360.5V233.2H1366V230.5H1360.5V225Z" fill="#144E52"/>
<path d="M1416.9 225H1414.2V230.5H1408.7V233.2H1414.2V238.7H1416.9V233.2H1422.4V230.5H1416.9V225Z" fill="#144E52"/>
<path d="M1360.5 279.6H1357.9V285.1H1352.4V287.7H1357.9V293.2H1360.5V287.7H1366V285.1H1360.5V279.6Z" fill="#144E52"/>
<path d="M1416.9 279.6H1414.2V285.1H1408.7V287.7H1414.2V293.2H1416.9V287.7H1422.4V285.1H1416.9V279.6Z" fill="#144E52"/>
<path d="M1473.2 225H1470.6V230.5H1465.1V233.2H1470.6V238.7H1473.2V233.2H1478.7V230.5H1473.2V225Z" fill="#144E52"/>
<path d="M1473.2 279.6H1470.6V285.1H1465.1V287.7H1470.6V293.2H1473.2V287.7H1478.7V285.1H1473.2V279.6Z" fill="#144E52"/>
<path d="M1529.6 225H1526.9V230.5H1521.4V233.2H1526.9V238.7H1529.6V233.2H1535.1V230.5H1529.6V225Z" fill="#144E52"/>
<path d="M1529.6 279.6H1526.9V285.1H1521.4V287.7H1526.9V293.2H1529.6V287.7H1535.1V285.1H1529.6V279.6Z" fill="#144E52"/>
<path d="M1585.9 225H1583.3V230.5H1577.8V233.2H1583.3V238.7H1585.9V233.2H1591.4V230.5H1585.9V225Z" fill="#144E52"/>
<path d="M1585.9 279.6H1583.3V285.1H1577.8V287.7H1583.3V293.2H1585.9V287.7H1591.4V285.1H1585.9V279.6Z" fill="#144E52"/>
<path d="M1360.5 334.2H1357.9V339.7H1352.4V342.3H1357.9V347.8H1360.5V342.3H1366V339.7H1360.5V334.2Z" fill="#144E52"/>
<path d="M1416.9 334.2H1414.2V339.7H1408.7V342.3H1414.2V347.8H1416.9V342.3H1422.4V339.7H1416.9V334.2Z" fill="#144E52"/>
<path d="M1473.2 334.2H1470.6V339.7H1465.1V342.3H1470.6V347.8H1473.2V342.3H1478.7V339.7H1473.2V334.2Z" fill="#144E52"/>
<path d="M1529.6 334.2H1526.9V339.7H1521.4V342.3H1526.9V347.8H1529.6V342.3H1535.1V339.7H1529.6V334.2Z" fill="#144E52"/>
<path d="M1585.9 334.2H1583.3V339.7H1577.8V342.3H1583.3V347.8H1585.9V342.3H1591.4V339.7H1585.9V334.2Z" fill="#144E52"/>
<path d="M1642.3 225H1639.6V230.5H1634.1V233.2H1639.6V238.7H1642.3V233.2H1647.8V230.5H1642.3V225Z" fill="#144E52"/>
<path d="M1699.2 225H1696.5V230.5H1691V233.2H1696.5V238.7H1699.2V233.2H1704.7V230.5H1699.2V225Z" fill="#144E52"/>
<path d="M1642.3 279.6H1639.6V285.1H1634.1V287.7H1639.6V293.2H1642.3V287.7H1647.8V285.1H1642.3V279.6Z" fill="#144E52"/>
<path d="M1699.2 279.6H1696.5V285.1H1691V287.7H1696.5V293.2H1699.2V287.7H1704.7V285.1H1699.2V279.6Z" fill="#144E52"/>
<path d="M1642.3 334.2H1639.6V339.7H1634.1V342.3H1639.6V347.8H1642.3V342.3H1647.8V339.7H1642.3V334.2Z" fill="#144E52"/>
<path d="M1699.2 334.2H1696.5V339.7H1691V342.3H1696.5V347.8H1699.2V342.3H1704.7V339.7H1699.2V334.2Z" fill="#144E52"/>
<rect x="5" y="170" width="1693" height="8" rx="4" fill="#1A1A1A"/>
<circle cx="66" cy="174" r="10" fill="#1A1A1A"/>
<circle cx="384" cy="174" r="10" fill="#1A1A1A"/>
<circle cx="710" cy="174" r="10" fill="#1A1A1A"/>
<circle cx="1160" cy="174" r="10" fill="#1A1A1A"/>
<circle cx="1562" cy="174" r="10" fill="#1A1A1A"/>
</svg>
