<svg width="709" height="250" viewBox="0 0 709 250" fill="none" xmlns="http://www.w3.org/2000/svg">
<path d="M151.14 97.2399H142.49V105.24H152.13V107.64H139.63V85.4399H151.63V87.8399H142.49V94.8399H151.14V97.2399Z" fill="#231F20"/>
<path d="M159.15 85.74C161.169 85.4281 163.208 85.271 165.25 85.27C169.37 85.27 172.3 86.27 174.25 88.05C176.2 89.83 177.39 92.43 177.39 96.05C177.466 97.6299 177.222 99.2089 176.672 100.692C176.122 102.175 175.278 103.532 174.19 104.68C172.11 106.76 168.68 107.89 164.36 107.89C162.62 107.896 160.881 107.806 159.15 107.62V85.74ZM162 105.39C162.961 105.524 163.931 105.58 164.9 105.56C171.04 105.56 174.37 102.13 174.37 96.12C174.37 90.88 171.43 87.55 165.37 87.55C164.243 87.5334 163.118 87.6306 162.01 87.84L162 105.39Z" fill="#231F20"/>
<path d="M187.27 85.4399V107.66H184.4V85.4399H187.27Z" fill="#231F20"/>
<path d="M199.8 87.8799H193V85.4399H209.5V87.8799H202.7V107.66H199.8V87.8799Z" fill="#231F20"/>
<path d="M233.37 96.3201C233.37 103.97 228.72 108.03 223.05 108.03C217.18 108.03 213.05 103.48 213.05 96.7501C213.05 89.7501 217.43 85.0801 223.37 85.0801C229.31 85.0801 233.37 89.7201 233.37 96.3201ZM216.12 96.6901C216.12 101.44 218.69 105.69 223.21 105.69C227.73 105.69 230.34 101.51 230.34 96.4601C230.34 92.0401 228.03 87.4601 223.25 87.4601C218.47 87.4601 216.12 91.8001 216.12 96.6901Z" fill="#231F20"/>
<path d="M240.39 85.7399C242.208 85.4114 244.052 85.254 245.9 85.2699C248.96 85.2699 250.9 85.8299 252.33 87.0899C252.903 87.6289 253.355 88.2842 253.655 89.012C253.955 89.7397 254.097 90.5232 254.07 91.3099C254.092 92.5866 253.694 93.8353 252.937 94.8636C252.18 95.8918 251.105 96.6425 249.88 96.9999V97.0999C251.6 97.6899 252.62 99.2799 253.15 101.58C253.534 103.661 254.106 105.703 254.86 107.68H251.86C251.199 105.963 250.7 104.189 250.37 102.38C249.72 99.3099 248.53 98.1599 245.92 98.0599H243.22V107.68H240.35L240.39 85.7399ZM243.26 95.8599H246.19C249.26 95.8599 251.19 94.1799 251.19 91.6399C251.19 88.7699 249.11 87.5199 246.07 87.4799C245.119 87.4552 244.169 87.5459 243.24 87.7499L243.26 95.8599Z" fill="#231F20"/>
<path d="M265.18 100.68L262.87 107.68H259.87L267.43 85.46H270.89L278.47 107.68H275.41L273.03 100.68H265.18ZM272.47 98.44L270.3 92C269.8 90.55 269.47 89.23 269.14 88H269.07C268.74 89.32 268.38 90.67 267.95 92L265.78 98.44H272.47Z" fill="#231F20"/>
<path d="M358.94 11.6799V6.4399C359.18 6.4399 367.29 5.4399 367.29 8.3099V65.0199C364.66 65.2499 360.29 66.4199 358.58 66.6699C355.993 67.2139 353.353 67.4655 350.71 67.4199C339.58 67.4199 333.37 62.5699 333.37 54.1399V38.2399C333.37 30.0499 340.29 25.1199 348.32 25.1199C354.32 25.1199 357.59 27.1199 358.92 28.2199C358.92 28.2199 358.92 28.2699 358.92 28.2199C358.92 27.8599 358.86 25.2199 358.86 23.7499C358.86 23.4899 358.86 23.2199 358.86 22.9499L358.94 11.6799ZM358.94 38.6799C358.94 34.4699 354.17 31.5199 349.4 31.5199C345.03 31.5199 341.77 33.9099 341.77 39.5199V52.9999C341.77 58.4099 343.91 60.9999 351.31 60.9999C353.918 61.0692 356.514 60.61 358.94 59.6499V38.6799Z" fill="#231F20"/>
<path d="M291.44 36.5601C290.67 28.6201 283.66 25.0801 276.09 25.0801C267.55 25.0801 263.55 27.8801 262.48 28.7701C259.38 25.9901 254.66 25.0801 250.11 25.0801C246.367 25.0898 242.638 25.5395 239 26.4201C236.759 27.014 234.457 27.3495 232.14 27.4201V65.0001C232.14 67.7701 240.49 66.8601 240.49 66.8601V33.0001C243.229 32.0638 246.105 31.5874 249 31.5901C255.36 31.5901 257.67 34.2201 257.67 38.7501V65.0001C257.67 67.7101 266.01 66.8701 266.01 66.8701V37.2901C266.23 33.8201 270.6 31.5201 275.06 31.5201C279.98 31.5201 283.17 33.7401 283.17 39.0701V65.0001C283.17 67.8301 291.52 66.8501 291.52 66.8501V37.5601C291.52 37.2251 291.494 36.8907 291.44 36.5601Z" fill="#231F20"/>
<path d="M200.13 27.7299C199.368 27.0635 198.499 26.5294 197.56 26.1499L197.17 25.9899C195.422 25.4093 193.592 25.1155 191.75 25.1199C190.095 25.1082 188.444 25.286 186.83 25.6499C185.73 25.8499 185.08 25.9999 183.52 26.3099C181.63 26.6899 179.02 27.0799 175.79 27.4899V65.0799C175.79 67.7299 184.14 66.8899 184.14 66.8899V33.1099L189 32.1899C189.552 32.0751 190.109 31.9917 190.67 31.9399C192.453 31.7845 194.246 32.0982 195.87 32.8499C197.427 33.6636 198.862 34.6938 200.13 35.9099V27.7299Z" fill="#231F20"/>
<path d="M328.58 54.6701C328.58 54.2001 328.31 54.5401 328.08 54.7701C327.687 55.2037 327.27 55.6144 326.83 56.0001C326.171 56.6153 325.473 57.1866 324.74 57.7101C324.74 57.7101 323.8 58.3601 323.74 58.3701L323.57 58.4801C320.716 60.1912 317.437 61.0645 314.11 61.0001C307.43 61.0001 304.73 58.3801 304.73 53.2101V48.8601C307.268 50.0238 310.039 50.5916 312.83 50.5201C324.92 50.5201 329.13 44.7201 329.13 38.1201C329.13 30.5701 323.65 25.5601 312.92 25.5601C302.19 25.5601 296.38 30.5601 296.38 38.9201V54.4301C296.38 62.7701 303.06 67.7801 314.11 67.7801C317.247 67.832 320.366 67.3031 323.31 66.2201C323.875 65.9981 324.429 65.7478 324.97 65.4701C326.349 64.8931 327.577 64.007 328.56 62.8801L328.58 54.6701ZM304.73 40.1201C304.73 34.9401 306.4 31.9201 312.73 31.9201C318.62 31.9201 320.73 34.4701 320.73 38.1201C320.73 41.7701 318.42 43.7701 311.73 43.7701C309.336 43.6853 306.962 43.3092 304.66 42.6501L304.73 40.1201Z" fill="#231F20"/>
<path d="M154 25.2999C150.447 25.1838 146.912 25.8424 143.64 27.2299C142.029 27.889 140.546 28.8267 139.26 29.9999C139.205 30.0728 139.161 30.1537 139.13 30.2399C139.124 30.2831 139.124 30.3268 139.13 30.3699V36.2699C139.13 36.8199 139.13 37.0999 139.13 37.7699C139.13 38.1999 139.13 38.8599 139.43 38.4499L140.16 37.5899C141.245 36.4752 142.437 35.4703 143.72 34.5899L144.54 34.0899C144.76 33.9799 145 33.8199 145.21 33.7199C147.935 32.3672 150.962 31.7403 154 31.8999C160.76 31.8999 162.43 34.5999 162.43 38.0999C160.15 43.3299 147.23 41.9299 141.03 47.4299L140.66 47.7699C140.55 47.8799 140.43 47.9899 140.33 48.1099C140.095 48.3644 139.877 48.6351 139.68 48.9199V48.9799C139.59 49.0899 139.51 49.2199 139.43 49.3399L139.36 49.4499L139.27 49.5999C138.269 51.34 137.771 53.3235 137.83 55.3299C137.777 57.3896 138.274 59.426 139.27 61.2299C139.35 61.3699 139.43 61.4999 139.51 61.6199C139.588 61.7584 139.675 61.892 139.77 62.0199L139.99 62.3199C142.83 65.9999 147.99 67.3799 153.22 67.3799C156.566 67.481 159.915 67.2634 163.22 66.7299C165.892 66.1682 168.476 65.2465 170.9 63.9899V38.4999C170.74 30.1499 164.86 25.2999 154 25.2999ZM162.67 45.6799V60.3899C159.943 61.0932 157.135 61.4295 154.32 61.3899C148.6 61.3899 145.97 58.9199 145.97 55.3899C145.97 47.7799 158.7 49.5999 162.03 46.2199C162.17 46.0799 162.24 45.9799 162.38 45.8199L162.53 45.6299L162.67 45.4099V45.6799Z" fill="#231F20"/>
<path d="M226.25 59C225.84 59.29 225.36 59.59 224.98 59.82L224.85 59.89C223.161 60.8054 221.26 61.2574 219.34 61.2C213.34 61.2 212.21 57.87 212.15 52.53V33.85H224.87C225.041 33.8581 225.211 33.8291 225.37 33.7652C225.529 33.7012 225.672 33.6037 225.79 33.4794C225.908 33.355 225.997 33.2067 226.052 33.0446C226.107 32.8824 226.127 32.7103 226.11 32.54V27.17H212.11V17.08C212.11 14.99 203.77 15.52 203.77 15.52V54.52C203.77 62.95 208.77 67.88 218.27 67.88C220.593 67.919 222.907 67.5605 225.11 66.82C226.28 66.37 227.38 65.7573 228.38 65V57.09C228.38 57.09 228.38 56.99 228.3 57.09C228.036 57.4457 227.745 57.78 227.43 58.09C227.055 58.4166 226.661 58.7205 226.25 59Z" fill="#231F20"/>
<path fill-rule="evenodd" clip-rule="evenodd" d="M57.4298 114.05C68.6332 114.046 79.584 110.72 88.8974 104.493C98.2108 98.2659 105.469 89.417 109.753 79.0652C114.038 68.7134 115.157 57.3236 112.969 46.3359C110.781 35.3482 105.384 25.256 97.4603 17.3354C89.5368 9.41471 79.4428 4.02131 68.4543 1.83708C57.4658 -0.347155 46.0764 0.775871 35.7261 5.06416C25.3759 9.35245 16.5295 16.6134 10.3056 25.929C4.08173 35.2447 0.759766 46.1966 0.759766 57.4C0.791488 72.4183 6.77288 86.812 17.3943 97.4296C28.0157 108.047 42.4115 114.024 57.4298 114.05Z" fill="white"/>
<path d="M57.43 114.8H57.37C42.1623 114.758 27.59 108.696 16.8394 97.9394C6.08869 87.1831 0.0343061 72.6077 0 57.4H0C0.0264592 42.1795 6.08655 27.5904 16.8519 16.8307C27.6172 6.07098 42.2095 0.0185063 57.43 0V0C72.64 0.029089 87.2184 6.0855 97.9716 16.8425C108.725 27.5995 114.776 42.18 114.8 57.39C114.768 72.5856 108.726 87.1516 97.9925 97.9078C87.2588 108.664 72.7055 114.737 57.51 114.8H57.43ZM57.37 113.3H57.51C72.3049 113.242 86.4757 107.331 96.9271 96.8594C107.378 86.3874 113.261 72.205 113.29 57.41C113.264 42.6012 107.373 28.4057 96.9058 17.9295C86.439 7.45341 72.2488 1.54964 57.44 1.51C42.6208 1.52849 28.4131 7.42018 17.9296 17.8943C7.44614 28.3684 1.54174 42.5708 1.51 57.39C1.5364 72.2006 7.42884 86.3976 17.8978 96.874C28.3667 107.35 42.5595 113.253 57.37 113.29V113.3Z" fill="#231F20"/>
<path fill-rule="evenodd" clip-rule="evenodd" d="M57.2197 40.8099C58.7217 40.8119 60.1905 40.3681 61.4402 39.5349C62.6899 38.7017 63.6643 37.5164 64.24 36.1291C64.8157 34.7418 64.9668 33.2148 64.6743 31.7416C64.3818 30.2684 63.6587 28.915 62.5966 27.8529C61.5345 26.7909 60.1812 26.0678 58.7079 25.7752C57.2347 25.4827 55.7078 25.6338 54.3205 26.2096C52.9332 26.7853 51.7479 27.7596 50.9146 29.0093C50.0814 30.259 49.6377 31.7279 49.6397 33.2299C49.6423 35.2394 50.4418 37.1659 51.8627 38.5868C53.2837 40.0078 55.2101 40.8072 57.2197 40.8099Z" fill="#231F20"/>
<path fill-rule="evenodd" clip-rule="evenodd" d="M75.6604 10.52V50.74L72.3204 52.86C71.8304 46.14 68.8004 42 58.5204 42H55.9204C45.4904 42 42.5804 46.18 42.1204 52.9L38.7804 50.78V10.54C27.8556 14.8349 18.7725 22.8085 13.0987 33.085C7.42484 43.3615 5.51606 55.2961 7.70173 66.8296C9.8874 78.3631 16.0304 88.7719 25.0707 96.2599C34.1111 103.748 45.4816 107.846 57.2204 107.846C68.9592 107.846 80.3297 103.748 89.3701 96.2599C98.4104 88.7719 104.553 78.3631 106.739 66.8296C108.925 55.2961 107.016 43.3615 101.342 33.085C95.6683 22.8085 86.5853 14.8349 75.6604 10.54V10.52ZM79.6604 54.7V71.23C79.5951 71.9831 79.3628 72.7122 78.9806 73.3643C78.5983 74.0164 78.0756 74.5751 77.4504 75L61.7504 84.58L57.3704 87.26L55.1504 86L37.0004 75C36.388 74.5747 35.8764 74.0203 35.5015 73.3758C35.1265 72.7314 34.8975 72.0126 34.8304 71.27V54.7C34.8178 54.5737 34.8178 54.4464 34.8304 54.32C35.0243 54.3588 35.2081 54.4371 35.3704 54.55L55.2704 66.67L57.2004 67.85L60.4904 65.85L79.0804 54.55C79.2393 54.4376 79.4198 54.3593 79.6104 54.32C79.623 54.4464 79.623 54.5737 79.6104 54.7H79.6604Z" fill="#231F20"/>
<path d="M682.029 61.5507L667.935 47.4366C667.565 47.0651 667.124 46.7704 666.64 46.5693C666.155 46.3682 665.635 46.2646 665.11 46.2646C664.586 46.2646 664.066 46.3682 663.581 46.5693C663.097 46.7704 662.656 47.0651 662.286 47.4366C661.914 47.8073 661.619 48.2476 661.418 48.7323C661.217 49.2171 661.114 49.7367 661.114 50.2615C661.114 50.7863 661.217 51.306 661.418 51.7907C661.619 52.2755 661.914 52.7158 662.286 53.0865L673.536 64.3722C673.908 64.7428 674.202 65.1831 674.404 65.6679C674.605 66.1526 674.708 66.6723 674.708 67.1971C674.708 67.7219 674.605 68.2415 674.404 68.7263C674.202 69.211 673.908 69.6513 673.536 70.022L662.272 81.3077C661.9 81.6784 661.605 82.1187 661.404 82.6034C661.203 83.0882 661.1 83.6078 661.1 84.1326C661.1 84.6574 661.203 85.1771 661.404 85.6618C661.605 86.1465 661.9 86.5869 662.272 86.9575C662.642 87.329 663.083 87.6238 663.567 87.8249C664.052 88.026 664.572 88.1295 665.096 88.1295C665.621 88.1295 666.141 88.026 666.626 87.8249C667.11 87.6238 667.551 87.329 667.921 86.9575L682.029 72.8504L684.829 70.05C685.2 69.6793 685.495 69.239 685.696 68.7543C685.897 68.2695 686.001 67.7499 686.001 67.2251C686.001 66.7003 685.897 66.1806 685.696 65.6959C685.495 65.2111 685.2 64.7708 684.829 64.4002L682.029 61.5507Z" fill="black"/>
<path d="M698.979 61.5842L685.579 48.7863C685.227 48.4491 684.812 48.1847 684.358 48.0082C683.904 47.8317 683.42 47.7465 682.933 47.7575C682.445 47.7686 681.965 47.8757 681.52 48.0726C681.074 48.2696 680.671 48.5525 680.335 48.9053C679.998 49.2571 679.734 49.6719 679.557 50.1261C679.381 50.5802 679.296 51.0647 679.307 51.5519C679.318 52.039 679.425 52.5192 679.622 52.9648C679.819 53.4105 680.102 53.8129 680.454 54.1491L691.173 64.3846C691.882 65.0666 692.293 66.0016 692.316 66.9854C692.338 67.9693 691.97 68.922 691.292 69.6354L681.049 80.347C680.372 81.0604 680.004 82.0131 680.026 82.9969C680.048 83.9808 680.459 84.9158 681.168 85.5978C681.882 86.2756 682.835 86.6436 683.818 86.6213C684.802 86.599 685.737 86.1882 686.419 85.4788L699.217 72.0788L701.78 69.3973C702.117 69.045 702.381 68.6295 702.558 68.1748C702.735 67.7201 702.82 67.235 702.809 66.7473C702.798 66.2596 702.691 65.7788 702.494 65.3326C702.297 64.8863 702.014 64.4833 701.661 64.1466L698.979 61.5842Z" fill="#AFAFAF"/>
<path d="M497.472 50.6024V46.0097H505.236V33.1558H509.941V46.0097H523.831V50.6024H509.941V76.1982C509.941 78.7606 510.664 80.7022 512.111 82.0231C513.654 83.379 515.659 84.0886 517.712 84.0044C520.047 83.9202 522.325 83.2587 524.342 82.0791L526.239 86.3147C523.629 87.7691 520.699 88.551 517.712 88.5901C513.868 88.5901 510.837 87.5189 508.61 85.3766C506.384 83.2343 505.257 80.2518 505.257 76.4362V50.6024H497.472Z" fill="black"/>
<path d="M581.578 87.6142H576.943V62.6415C576.943 53.9602 573.65 49.6219 567.064 49.6265C560.652 49.6265 557.445 53.9648 557.445 62.6415V87.6142H552.74V62.6415C552.74 53.9602 549.485 49.6219 542.974 49.6265C536.463 49.6312 533.233 53.9695 533.284 62.6415V87.6142H528.636V61.3463C528.636 56.3802 529.826 52.4269 532.206 49.4865C534.587 46.5461 538.202 45.0852 543.051 45.1038C545.752 45.0159 548.411 45.7989 550.633 47.3372C552.709 48.8382 554.263 50.9507 555.079 53.3791C555.909 50.9584 557.47 48.8548 559.545 47.3582C561.769 45.8095 564.433 45.019 567.142 45.1038C571.93 45.1038 575.533 46.5741 577.951 49.5145C580.369 52.4549 581.578 56.4082 581.578 61.3743V87.6142Z" fill="black"/>
<path d="M590.709 68.6721V71.2975C590.709 79.7687 594.961 84.0044 603.465 84.0044C606.891 84.0044 610.403 82.7745 614.001 80.3148C614.239 80.8399 614.61 81.596 615.107 82.5902C615.604 83.5843 615.934 84.2144 616.074 84.4734C612.288 87.173 607.75 88.6133 603.101 88.59C597.532 88.59 593.304 87.1642 590.415 84.3124C587.526 81.4606 586.081 77.4747 586.081 72.3546V61.342C586.081 56.6373 587.481 52.7493 590.282 49.6782C593.082 46.6071 596.858 45.0809 601.609 45.0995C606.389 45.0995 610.183 46.6351 612.993 49.7062C615.803 52.7774 617.203 56.6653 617.194 61.37V68.6721H590.709ZM590.709 64.2404H612.58V62.6372C612.58 58.5065 611.572 55.3164 609.556 53.0667C608.547 51.952 607.305 51.0726 605.918 50.4907C604.532 49.9088 603.035 49.6386 601.532 49.6992C600.049 49.6401 598.571 49.9159 597.209 50.5062C595.846 51.0964 594.635 51.986 593.663 53.1087C591.689 55.3864 590.704 58.5626 590.709 62.6372V64.2404Z" fill="black"/>
<path d="M621.024 72.2034V63.1861C621.024 57.6226 622.222 53.2119 624.616 49.9541C627.01 46.6963 630.466 45.0627 634.985 45.0534C640.067 45.0534 644.247 47.3007 647.523 51.7954V29H652.151V72.2034C652.151 77.0622 650.835 81.0084 648.202 84.0422C645.57 87.076 641.713 88.5929 636.63 88.5929C631.547 88.5929 627.675 87.076 625.015 84.0422C622.355 81.0084 621.024 77.0622 621.024 72.2034ZM625.659 64.5583V70.8592C625.659 75.0925 626.607 78.3457 628.502 80.6187C630.396 82.8917 633.106 84.0305 636.63 84.0352C640.27 84.0352 642.996 82.8964 644.807 80.6187C646.618 78.341 647.523 75.0879 647.523 70.8592V56.5981C646.448 54.4722 644.818 52.677 642.805 51.4033C640.997 50.2421 638.897 49.6182 636.749 49.6041C632.716 49.6041 629.855 50.8503 628.165 53.3426C626.476 55.835 625.633 59.5736 625.638 64.5583H625.659Z" fill="black"/>
<path d="M458.503 62.8647V61.6886C458.503 53.5627 454.675 49.4857 447.021 49.4577C443.45 49.4577 439.745 50.7506 435.903 53.3363L433.866 49.3107C437.844 46.3803 442.661 44.8092 447.602 44.83C452.783 44.83 456.666 46.2746 459.252 49.1637C461.838 52.0528 463.13 56.0691 463.13 61.2125V72.1131C463.13 77.0839 461.788 81.0301 459.105 83.9519C456.421 86.8737 452.563 88.3392 447.532 88.3486C442.599 88.3486 438.778 87.1397 436.071 84.722C433.364 82.3043 432.008 79.4619 432.004 76.1947V74.9345C431.961 73.2897 432.287 71.6563 432.958 70.154C433.63 68.6518 434.629 67.3189 435.882 66.2532C438.473 63.9896 442.064 62.8601 446.657 62.8647H458.503ZM436.631 74.9345V76.1947C436.636 77.2596 436.901 78.3071 437.402 79.2465C437.904 80.1859 438.627 80.9888 439.509 81.5855C441.436 83.0371 444.134 83.7605 447.602 83.7559C451.033 83.7559 453.7 82.7267 455.625 80.6614C457.551 78.5961 458.503 75.7187 458.503 72.0361V67.2894H446.475C443.287 67.2894 440.851 67.9895 439.166 69.3897C438.344 70.0557 437.688 70.9029 437.248 71.8648C436.808 72.8268 436.597 73.8774 436.631 74.9345Z" fill="black"/>
<path d="M472.326 87.3686H467.712V61.1006C467.712 56.1859 469.075 52.256 471.801 49.3109C474.526 46.3658 478.601 44.8722 484.024 44.8302C487.664 44.786 491.233 45.8374 494.267 47.8476L492.482 51.9643C489.396 50.242 486.554 49.3785 483.954 49.3739C476.202 49.3739 472.326 53.6865 472.326 62.3118V87.3686Z" fill="black"/>
<path d="M16.1 181H13.5V186.5H8V189.1H13.5V194.6H16.1V189.1H21.6V186.5H16.1V181Z" fill="#144E52"/>
<path d="M72.5008 181H69.8008V186.5H64.3008V189.1H69.8008V194.6H72.5008V189.1H78.0008V186.5H72.5008V181Z" fill="#144E52"/>
<path d="M128.8 181H126.2V186.5H120.7V189.1H126.2V194.6H128.8V189.1H134.3V186.5H128.8V181Z" fill="#144E52"/>
<path d="M185.2 181H182.5V186.5H177V189.1H182.5V194.6H185.2V189.1H190.7V186.5H185.2V181Z" fill="#144E52"/>
<path d="M241.5 181H238.9V186.5H233.4V189.1H238.9V194.6H241.5V189.1H247V186.5H241.5V181Z" fill="#144E52"/>
<path d="M16.1 235.6H13.5V241.1H8V243.7H13.5V249.2H16.1V243.7H21.6V241.1H16.1V235.6Z" fill="#144E52"/>
<path d="M72.5008 235.6H69.8008V241.1H64.3008V243.7H69.8008V249.2H72.5008V243.7H78.0008V241.1H72.5008V235.6Z" fill="#144E52"/>
<path d="M128.8 235.6H126.2V241.1H120.7V243.7H126.2V249.2H128.8V243.7H134.3V241.1H128.8V235.6Z" fill="#144E52"/>
<path d="M185.2 235.6H182.5V241.1H177V243.7H182.5V249.2H185.2V243.7H190.7V241.1H185.2V235.6Z" fill="#144E52"/>
<path d="M241.5 235.6H238.9V241.1H233.4V243.7H238.9V249.2H241.5V243.7H247V241.1H241.5V235.6Z" fill="#144E52"/>
<path d="M297.9 181H295.2V186.5H289.7V189.1H295.2V194.6H297.9V189.1H303.4V186.5H297.9V181Z" fill="#144E52"/>
<path d="M354.201 181H351.601V186.5H346.101V189.1H351.601V194.6H354.201V189.1H359.701V186.5H354.201V181Z" fill="#144E52"/>
<path d="M410.6 181H407.9V186.5H402.4V189.1H407.9V194.6H410.6V189.1H416.1V186.5H410.6V181Z" fill="#144E52"/>
<path d="M466.901 181H464.301V186.5H458.801V189.1H464.301V194.6H466.901V189.1H472.401V186.5H466.901V181Z" fill="#144E52"/>
<path d="M297.9 235.6H295.2V241.1H289.7V243.7H295.2V249.2H297.9V243.7H303.4V241.1H297.9V235.6Z" fill="#144E52"/>
<path d="M354.201 235.6H351.601V241.1H346.101V243.7H351.601V249.2H354.201V243.7H359.701V241.1H354.201V235.6Z" fill="#144E52"/>
<path d="M410.6 235.6H407.9V241.1H402.4V243.7H407.9V249.2H410.6V243.7H416.1V241.1H410.6V235.6Z" fill="#144E52"/>
<path d="M466.901 235.6H464.301V241.1H458.801V243.7H464.301V249.2H466.901V243.7H472.401V241.1H466.901V235.6Z" fill="#144E52"/>
<path d="M466.901 181H464.301V186.5H458.801V189.1H464.301V194.6H466.901V189.1H472.401V186.5H466.901V181Z" fill="#144E52"/>
<path d="M523.301 181H520.601V186.5H515.101V189.1H520.601V194.6H523.301V189.1H528.801V186.5H523.301V181Z" fill="#144E52"/>
<path d="M579.6 181H577V186.5H571.5V189.1H577V194.6H579.6V189.1H585.1V186.5H579.6V181Z" fill="#144E52"/>
<path d="M636.001 181H633.301V186.5H627.801V189.1H633.301V194.6H636.001V189.1H641.501V186.5H636.001V181Z" fill="#144E52"/>
<path d="M692.3 181H689.7V186.5H684.2V189.1H689.7V194.6H692.3V189.1H697.8V186.5H692.3V181Z" fill="#144E52"/>
<path d="M466.901 235.6H464.301V241.1H458.801V243.7H464.301V249.2H466.901V243.7H472.401V241.1H466.901V235.6Z" fill="#144E52"/>
<path d="M523.301 235.6H520.601V241.1H515.101V243.7H520.601V249.2H523.301V243.7H528.801V241.1H523.301V235.6Z" fill="#144E52"/>
<path d="M579.6 235.6H577V241.1H571.5V243.7H577V249.2H579.6V243.7H585.1V241.1H579.6V235.6Z" fill="#144E52"/>
<path d="M636.001 235.6H633.301V241.1H627.801V243.7H633.301V249.2H636.001V243.7H641.501V241.1H636.001V235.6Z" fill="#144E52"/>
<path d="M692.3 235.6H689.7V241.1H684.2V243.7H689.7V249.2H692.3V243.7H697.8V241.1H692.3V235.6Z" fill="#144E52"/>
<rect y="157" width="709" height="6" rx="3" fill="#1A1A1A"/>
<circle cx="199" cy="160" r="8" fill="#1A1A1A"/>
<circle cx="565" cy="160" r="8" fill="#1A1A1A"/>
</svg>
