<svg width="1710" height="345" viewBox="0 0 1710 345" fill="none" xmlns="http://www.w3.org/2000/svg">
<path d="M114.161 14H14.0508V114.11H114.161V14Z" fill="#231F20"/>
<path d="M58.5505 81.5203C58.3609 81.3599 58.1486 81.2285 57.9205 81.1303H57.8305C57.3997 80.9811 56.9465 80.9067 56.4905 80.9103C56.0844 80.9139 55.6795 80.9541 55.2805 81.0303L54.4605 81.2103C54.0005 81.3003 53.3505 81.4003 52.5605 81.5003V90.7303C52.5605 91.3803 54.6205 91.1703 54.6205 91.1703V82.8503L55.8105 82.6303C55.9486 82.5964 56.089 82.573 56.2305 82.5603C56.6699 82.5259 57.1107 82.6051 57.5105 82.7903C57.8837 82.9864 58.2217 83.2432 58.5105 83.5503L58.5505 81.5203Z" fill="white"/>
<path d="M75.6505 88.1602C75.6505 88.0402 75.5805 88.1602 75.5205 88.1602C75.4605 88.1602 75.4505 88.2402 75.2205 88.4502C74.9905 88.6602 75.0205 88.6302 74.7105 88.8802L74.4605 89.0402C73.7517 89.4664 72.9374 89.6847 72.1105 89.6702C70.4705 89.6702 69.8005 89.0202 69.8005 87.7402V86.7202C70.4255 87.0135 71.1102 87.1573 71.8005 87.1402C74.8005 87.1402 75.8005 85.7102 75.8005 84.0802C75.8005 82.2202 74.4605 80.9902 71.8005 80.9902C69.1405 80.9902 67.7305 82.2202 67.7305 84.2802V88.1102C67.7305 90.1102 69.3705 91.3902 72.0905 91.3902C72.865 91.4056 73.6354 91.2732 74.3605 91.0002L74.7705 90.8202C75.1122 90.6826 75.417 90.4668 75.6605 90.1902L75.6505 88.1602ZM69.8105 84.6302C69.8105 83.3502 70.2305 82.6302 71.8105 82.6302C73.3905 82.6302 73.8105 83.2502 73.8105 84.1502C73.8105 85.0502 73.2405 85.5502 71.5905 85.5502C71.0007 85.5335 70.4157 85.4393 69.8505 85.2702L69.8105 84.6302Z" fill="white"/>
<path d="M79.2504 84.0101C79.2504 83.0101 79.8204 82.6101 81.3704 82.6101C81.9831 82.5956 82.5932 82.6939 83.1704 82.9001L83.7504 83.1701L84.3304 83.5501C84.4304 83.6201 84.7204 83.8601 84.8304 83.9501C84.9404 84.0401 84.8304 83.9501 84.8304 83.8501V82.0801C84.8304 81.9401 84.2204 81.5201 83.9804 81.4001L83.8104 81.3301C82.9959 81.0242 82.1301 80.8782 81.2604 80.9001C78.5804 80.9001 77.1504 81.9801 77.1504 84.0701C77.1504 88.2701 83.4404 85.7201 83.4404 88.1701C83.4404 89.1701 82.5004 89.6801 81.2604 89.6801C80.409 89.7165 79.5643 89.5157 78.8204 89.1001C78.7852 89.0694 78.7445 89.0456 78.7004 89.0301C78.4421 88.8777 78.1948 88.7072 77.9604 88.5201C77.7104 88.3301 77.4904 88.1401 77.4904 88.1401C77.4904 88.1401 77.3304 88.0001 77.3304 88.1401V90.1401C77.6629 90.4725 78.0615 90.7314 78.5004 90.9001C79.3806 91.2358 80.3189 91.3922 81.2604 91.3601C84.1404 91.3601 85.5304 90.1701 85.5304 88.2901C85.5304 83.6301 79.2504 86.0701 79.2504 84.0101Z" fill="white"/>
<path d="M46.5801 80.92C45.701 80.8918 44.8267 81.0592 44.0201 81.41C43.6272 81.5694 43.265 81.7961 42.9501 82.08C42.9501 82.08 42.9501 82.0801 42.9501 82.1401V84.0001C42.9501 84.1001 42.9501 84.27 43.0201 84.16L43.2001 83.95C43.4731 83.6831 43.7674 83.439 44.0801 83.22L44.2901 83.1L44.4401 83.0001C45.1141 82.6699 45.8604 82.5151 46.6101 82.55C48.2701 82.55 48.6901 83.22 48.6901 84.08C48.1201 85.37 44.9401 85.02 43.4101 86.38C43.3777 86.4075 43.3476 86.4376 43.3201 86.47V86.47L43.2501 86.56C43.1914 86.6222 43.1379 86.6891 43.0901 86.76V86.76C43.0725 86.7915 43.0524 86.8216 43.0301 86.85C42.7824 87.2775 42.661 87.7664 42.6801 88.26C42.6589 88.7666 42.7801 89.269 43.0301 89.71V89.71C43.0301 89.71 43.0301 89.78 43.0301 89.81C43.0581 89.8399 43.0817 89.8736 43.1001 89.91V89.91C43.104 89.9229 43.1104 89.9348 43.119 89.9451C43.1276 89.9554 43.1382 89.9639 43.1501 89.97V89.97C43.5647 90.4127 44.0746 90.7552 44.6411 90.9718C45.2076 91.1883 45.816 91.2732 46.4201 91.22C47.2396 91.2436 48.0596 91.1934 48.8701 91.0701C49.5289 90.9331 50.1651 90.7042 50.7601 90.39V84.1801C50.7101 82.1201 49.2601 80.92 46.5801 80.92ZM48.7101 85.92V89.55C48.0368 89.7191 47.3443 89.7998 46.6501 89.7901C45.2401 89.7901 44.6501 89.2 44.6501 88.33C44.6501 86.45 47.7801 86.9101 48.6001 86.0701C48.6352 86.0416 48.6656 86.0079 48.6901 85.97V85.97L48.7101 85.92Z" fill="white"/>
<path d="M83.9024 98.0031C83.0233 97.9748 82.1489 98.1422 81.3424 98.4931C80.9494 98.6524 80.5873 98.8791 80.2724 99.1631C80.2724 99.1631 80.2724 99.1631 80.2724 99.2231V101.083C80.2724 101.183 80.2724 101.353 80.3424 101.243L80.5224 101.033C80.7953 100.766 81.0896 100.522 81.4024 100.303L81.6124 100.183L81.7624 100.083C82.4363 99.7529 83.1827 99.5981 83.9324 99.6331C85.5924 99.6331 86.0124 100.303 86.0124 101.163C85.4424 102.453 82.2624 102.103 80.7324 103.463C80.6999 103.49 80.6698 103.521 80.6424 103.553V103.553L80.5724 103.643C80.5137 103.705 80.4601 103.772 80.4124 103.843V103.843C80.3947 103.875 80.3747 103.905 80.3524 103.933C80.1046 104.36 79.9833 104.849 80.0024 105.343C79.9811 105.85 80.1024 106.352 80.3524 106.793V106.793C80.3524 106.793 80.3524 106.863 80.3524 106.893C80.3804 106.923 80.4039 106.957 80.4224 106.993V106.993C80.4263 107.006 80.4327 107.018 80.4413 107.028C80.4499 107.038 80.4605 107.047 80.4724 107.053V107.053C80.887 107.496 81.3969 107.838 81.9634 108.055C82.5299 108.271 83.1382 108.356 83.7424 108.303C84.5619 108.327 85.3819 108.276 86.1924 108.153C86.8511 108.016 87.4874 107.787 88.0824 107.473V101.263C88.0324 99.2031 86.5824 98.0031 83.9024 98.0031ZM86.0324 103.003V106.633C85.359 106.802 84.6666 106.883 83.9724 106.873C82.5624 106.873 81.9724 106.283 81.9724 105.413C81.9724 103.533 85.1024 103.993 85.9224 103.153C85.9574 103.125 85.9878 103.091 86.0124 103.053V103.053L86.0324 103.003Z" fill="white"/>
<path d="M65.7802 89.2301L65.4602 89.4401C65.044 89.6682 64.5747 89.782 64.1002 89.7701C62.6202 89.7701 62.3402 88.9501 62.3302 87.6301V83.0301H65.4602C65.5026 83.0333 65.5452 83.0271 65.5849 83.012C65.6247 82.9969 65.6606 82.9732 65.6902 82.9427C65.7197 82.9122 65.7422 82.8755 65.7561 82.8353C65.7699 82.7951 65.7747 82.7524 65.7702 82.7101V81.3901H62.3002V78.8901C62.3002 78.3901 60.2402 78.5201 60.2402 78.5201V88.1301C60.2402 90.2101 61.4802 91.4201 63.8202 91.4201C64.3907 91.4262 64.9583 91.3383 65.5002 91.1601V91.1601C65.7813 91.0437 66.0467 90.8925 66.2902 90.7101V88.7101C66.2902 88.7101 66.1602 88.8701 66.0802 88.9501L65.7802 89.2301Z" fill="white"/>
<path d="M62.6507 94.32V93.02C62.7107 93.02 64.7307 92.77 64.7307 93.49V107.56C64.0807 107.56 63.0107 107.9 62.5707 107.96C61.9137 108.101 61.2425 108.164 60.5707 108.15C57.8107 108.15 56.2607 106.94 56.2607 104.85V100.85C56.2607 98.85 57.9907 97.6 59.9807 97.6C60.9193 97.5515 61.8466 97.823 62.6107 98.37C62.6107 98.37 62.6107 98.37 62.6107 98.37C62.6107 98.37 62.6107 97.62 62.6107 97.26C62.6107 97.2 62.6107 97.13 62.6107 97.06L62.6507 94.32ZM62.6507 101C62.6507 100 61.4607 99.23 60.2807 99.23C60.0169 99.2059 59.7509 99.2421 59.5031 99.3358C59.2552 99.4295 59.0318 99.5782 58.8498 99.7708C58.6678 99.9634 58.5319 100.195 58.4524 100.448C58.3729 100.7 58.3518 100.968 58.3907 101.23V104.59C58.3907 105.92 58.9207 106.59 60.7707 106.59C61.4158 106.593 62.0551 106.468 62.6507 106.22V101Z" fill="white"/>
<path d="M66.9004 97.7899V107.52C66.9004 108.17 68.9704 108.02 68.9704 108.02V98.4499C68.9704 97.6299 67.4504 97.8199 66.9004 97.7899ZM67.4904 96.0299C68.0004 96.0299 68.9504 96.0899 68.9504 96.0899V94.6299C68.9504 94.3999 68.6004 94.1799 68.3704 94.1399C67.8823 94.0871 67.3912 94.0671 66.9004 94.0799V95.5599C66.9004 95.8199 67.2004 95.9999 67.4904 96.0299V96.0299Z" fill="white"/>
<path d="M44.4807 100.48C44.2907 98.5198 42.5507 97.6298 40.6507 97.6298C39.4545 97.5336 38.2622 97.8591 37.2807 98.5498C36.401 97.8921 35.3173 97.5663 34.2207 97.6298C33.2905 97.6325 32.3639 97.7467 31.4607 97.9698C30.9043 98.1092 30.3342 98.1864 29.7607 98.1998V107.55C29.7607 108.24 31.8407 108.01 31.8407 108.01V99.6298C32.5215 99.4058 33.2341 99.2944 33.9507 99.2998C35.5307 99.2998 36.1007 99.9498 36.1007 101.07V107.6C36.1007 108.27 38.1707 108.06 38.1707 108.06V100.68C38.2207 99.8098 39.3107 99.2398 40.4107 99.2398C41.5107 99.2398 42.4107 99.7898 42.4107 101.1V107.56C42.4107 108.26 44.4807 108.02 44.4807 108.02V100.74C44.4857 100.653 44.4857 100.566 44.4807 100.48V100.48Z" fill="white"/>
<path d="M53.0407 93.8501C53.2107 94.1801 53.2407 94.3001 53.3607 94.5301C53.8307 95.5301 53.4307 95.6001 51.7207 96.3501L49.8407 97.1401C49.8407 97.1401 49.1007 95.9401 49.4007 95.6401C49.8429 95.3662 50.312 95.1384 50.8007 94.9601C51.4424 94.7389 52.0618 94.4577 52.6507 94.1201C52.7707 94.0501 52.8907 93.9801 53.0007 93.9001C53.1107 93.8201 53.0307 93.8401 53.0407 93.8501Z" fill="white"/>
<path d="M54.4202 104.98C54.4202 104.87 54.3602 104.98 54.3002 104.98C54.2082 105.094 54.1043 105.198 53.9902 105.29C53.8202 105.44 53.7902 105.46 53.4702 105.71C53.4702 105.71 53.2402 105.86 53.2302 105.87C52.5183 106.297 51.7004 106.516 50.8702 106.5C49.2202 106.5 48.5502 105.85 48.5502 104.57V103.54C49.1761 103.83 49.8608 103.97 50.5502 103.95C53.5502 103.95 54.5502 102.51 54.5502 100.88C54.5502 99.0098 53.2002 97.7598 50.5502 97.7598C47.9002 97.7598 46.4502 99.0098 46.4502 101.08V104.93C46.4502 106.99 48.1002 108.24 50.8402 108.24C51.6209 108.25 52.3969 108.118 53.1302 107.85C53.2722 107.799 53.4094 107.735 53.5402 107.66C53.8839 107.521 54.1892 107.301 54.4302 107.02L54.4202 104.98ZM48.5102 101.37C48.5102 100.09 48.9202 99.3698 50.5102 99.3698C52.1002 99.3698 52.5102 99.9998 52.5102 100.91C52.5102 101.82 51.9402 102.31 50.2802 102.31C49.6871 102.294 49.0987 102.199 48.5302 102.03L48.5102 101.37Z" fill="white"/>
<path d="M92.0104 100.81C92.0104 99.8101 92.5804 99.3801 94.1304 99.3801C94.7536 99.3686 95.3736 99.4702 95.9604 99.6801C96.1904 99.7801 96.5404 99.9601 96.5404 99.9601L97.1304 100.34C97.2204 100.41 97.5304 100.65 97.6204 100.74V98.8601C97.6204 98.7201 97.0104 98.2901 96.7604 98.1801L96.6504 98.1001C95.8313 97.7997 94.9626 97.6572 94.0904 97.6801C91.3804 97.6801 89.9404 98.7601 89.9404 100.87C89.9404 105.1 96.2804 102.53 96.2804 105C96.2804 106 95.2804 106.51 94.0904 106.51C93.2279 106.551 92.3715 106.346 91.6204 105.92L91.5004 105.86C91.24 105.706 90.9895 105.536 90.7504 105.35L90.2904 104.97C90.1504 104.82 90.1104 104.82 90.1104 104.97V106.97C90.4501 107.303 90.8553 107.562 91.3004 107.73C92.1887 108.075 93.1381 108.235 94.0904 108.2C96.9904 108.2 98.3904 106.99 98.3904 105.11C98.3404 100.43 92.0104 102.88 92.0104 100.81Z" fill="white"/>
<path d="M77.7502 105.73L77.6102 105.83H77.5302C76.8115 106.235 75.9944 106.432 75.1702 106.4V106.4C73.6302 106.34 72.9502 105.7 72.9502 104.4V101.4C72.9502 99.91 73.7702 99.4 75.3402 99.33C76.0341 99.3201 76.7203 99.4779 77.3402 99.79C77.7924 100.059 78.2005 100.397 78.5502 100.79C78.6902 100.94 78.7302 101.03 78.7202 100.79V98.79C78.4389 98.4925 78.0982 98.2574 77.7202 98.1L77.5802 98.04C76.8028 97.755 75.9777 97.6226 75.1502 97.65C72.5102 97.65 70.9102 98.9 70.9102 100.97V104.81C70.9102 106.9 72.5802 108.13 75.2402 108.13H75.3002C76.0502 108.134 76.795 108.005 77.5002 107.75L77.9002 107.57C77.9002 107.57 78.0402 107.51 78.2002 107.41C78.4332 107.283 78.6375 107.11 78.8002 106.9V105.23C78.8002 105.1 78.8002 104.76 78.8002 104.82C78.5059 105.182 78.1506 105.49 77.7502 105.73Z" fill="white"/>
<path d="M43.65 34.3699C43.6474 31.6195 44.2055 28.8975 45.29 26.3699L24.86 18.4399L14 46.4399V72.8299H49.85L57.33 53.5599C53.3398 52.1772 49.8789 49.5868 47.4276 46.1481C44.9762 42.7094 43.656 38.5929 43.65 34.3699V34.3699Z" fill="white"/>
<path d="M14 72.8298H27.28L45.37 26.1798L14 14.0098V72.8298Z" fill="#EC1C24"/>
<path d="M114.101 46.6299L103.181 18.4399L82.7207 26.3799C83.8133 28.9416 84.3679 31.7005 84.3501 34.4854C84.3324 37.2702 83.7426 40.0218 82.6175 42.5693C81.4923 45.1169 79.8558 47.4061 77.8093 49.295C75.7628 51.1838 73.3501 52.6321 70.7207 53.5499L78.1807 72.8299H114.101V46.6299Z" fill="white"/>
<path d="M114.1 14H114.04L82.6699 26.18L100.76 72.83H114.1V14Z" fill="#EC1C24"/>
<path d="M1071.14 97.2399H1062.49V105.24H1072.13V107.64H1059.63V85.4399H1071.63V87.8399H1062.49V94.8399H1071.14V97.2399Z" fill="#231F20"/>
<path d="M1079.15 85.74C1081.17 85.4281 1083.21 85.271 1085.25 85.27C1089.37 85.27 1092.3 86.27 1094.25 88.05C1096.2 89.83 1097.39 92.43 1097.39 96.05C1097.47 97.6299 1097.22 99.2089 1096.67 100.692C1096.12 102.175 1095.28 103.532 1094.19 104.68C1092.11 106.76 1088.68 107.89 1084.36 107.89C1082.62 107.896 1080.88 107.806 1079.15 107.62V85.74ZM1082 105.39C1082.96 105.524 1083.93 105.58 1084.9 105.56C1091.04 105.56 1094.37 102.13 1094.37 96.12C1094.37 90.88 1091.43 87.55 1085.37 87.55C1084.24 87.5334 1083.12 87.6306 1082.01 87.84L1082 105.39Z" fill="#231F20"/>
<path d="M1107.27 85.4399V107.66H1104.4V85.4399H1107.27Z" fill="#231F20"/>
<path d="M1119.8 87.8799H1113V85.4399H1129.5V87.8799H1122.7V107.66H1119.8V87.8799Z" fill="#231F20"/>
<path d="M1153.37 96.3201C1153.37 103.97 1148.72 108.03 1143.05 108.03C1137.18 108.03 1133.05 103.48 1133.05 96.7501C1133.05 89.7501 1137.43 85.0801 1143.37 85.0801C1149.31 85.0801 1153.37 89.7201 1153.37 96.3201ZM1136.12 96.6901C1136.12 101.44 1138.69 105.69 1143.21 105.69C1147.73 105.69 1150.34 101.51 1150.34 96.4601C1150.34 92.0401 1148.03 87.4601 1143.25 87.4601C1138.47 87.4601 1136.12 91.8001 1136.12 96.6901Z" fill="#231F20"/>
<path d="M1160.39 85.7399C1162.21 85.4114 1164.05 85.254 1165.9 85.2699C1168.96 85.2699 1170.9 85.8299 1172.33 87.0899C1172.9 87.6289 1173.36 88.2842 1173.66 89.012C1173.96 89.7397 1174.1 90.5232 1174.07 91.3099C1174.09 92.5866 1173.69 93.8353 1172.94 94.8636C1172.18 95.8918 1171.11 96.6425 1169.88 96.9999V97.0999C1171.6 97.6899 1172.62 99.2799 1173.15 101.58C1173.53 103.661 1174.11 105.703 1174.86 107.68H1171.86C1171.2 105.963 1170.7 104.189 1170.37 102.38C1169.72 99.3099 1168.53 98.1599 1165.92 98.0599H1163.22V107.68H1160.35L1160.39 85.7399ZM1163.26 95.8599H1166.19C1169.26 95.8599 1171.19 94.1799 1171.19 91.6399C1171.19 88.7699 1169.11 87.5199 1166.07 87.4799C1165.12 87.4552 1164.17 87.5459 1163.24 87.7499L1163.26 95.8599Z" fill="#231F20"/>
<path d="M1185.18 100.68L1182.87 107.68H1179.87L1187.43 85.46H1190.89L1198.47 107.68H1195.41L1193.03 100.68H1185.18ZM1192.47 98.44L1190.3 92C1189.8 90.55 1189.47 89.23 1189.14 88H1189.07C1188.74 89.32 1188.38 90.67 1187.95 92L1185.78 98.44H1192.47Z" fill="#231F20"/>
<path d="M1278.94 11.6799V6.4399C1279.18 6.4399 1287.29 5.4399 1287.29 8.3099V65.0199C1284.66 65.2499 1280.29 66.4199 1278.58 66.6699C1275.99 67.2139 1273.35 67.4655 1270.71 67.4199C1259.58 67.4199 1253.37 62.5699 1253.37 54.1399V38.2399C1253.37 30.0499 1260.29 25.1199 1268.32 25.1199C1274.32 25.1199 1277.59 27.1199 1278.92 28.2199C1278.92 28.2199 1278.92 28.2699 1278.92 28.2199C1278.92 27.8599 1278.86 25.2199 1278.86 23.7499C1278.86 23.4899 1278.86 23.2199 1278.86 22.9499L1278.94 11.6799ZM1278.94 38.6799C1278.94 34.4699 1274.17 31.5199 1269.4 31.5199C1265.03 31.5199 1261.77 33.9099 1261.77 39.5199V52.9999C1261.77 58.4099 1263.91 60.9999 1271.31 60.9999C1273.92 61.0692 1276.51 60.61 1278.94 59.6499V38.6799Z" fill="#231F20"/>
<path d="M1211.44 36.5601C1210.67 28.6201 1203.66 25.0801 1196.09 25.0801C1187.55 25.0801 1183.55 27.8801 1182.48 28.7701C1179.38 25.9901 1174.66 25.0801 1170.11 25.0801C1166.37 25.0898 1162.64 25.5395 1159 26.4201C1156.76 27.014 1154.46 27.3495 1152.14 27.4201V65.0001C1152.14 67.7701 1160.49 66.8601 1160.49 66.8601V33.0001C1163.23 32.0638 1166.1 31.5874 1169 31.5901C1175.36 31.5901 1177.67 34.2201 1177.67 38.7501V65.0001C1177.67 67.7101 1186.01 66.8701 1186.01 66.8701V37.2901C1186.23 33.8201 1190.6 31.5201 1195.06 31.5201C1199.98 31.5201 1203.17 33.7401 1203.17 39.0701V65.0001C1203.17 67.8301 1211.52 66.8501 1211.52 66.8501V37.5601C1211.52 37.2251 1211.49 36.8907 1211.44 36.5601Z" fill="#231F20"/>
<path d="M1120.13 27.7299C1119.37 27.0635 1118.5 26.5294 1117.56 26.1499L1117.17 25.9899C1115.42 25.4093 1113.59 25.1155 1111.75 25.1199C1110.1 25.1082 1108.44 25.286 1106.83 25.6499C1105.73 25.8499 1105.08 25.9999 1103.52 26.3099C1101.63 26.6899 1099.02 27.0799 1095.79 27.4899V65.0799C1095.79 67.7299 1104.14 66.8899 1104.14 66.8899V33.1099L1109 32.1899C1109.55 32.0751 1110.11 31.9917 1110.67 31.9399C1112.45 31.7845 1114.25 32.0982 1115.87 32.8499C1117.43 33.6636 1118.86 34.6938 1120.13 35.9099V27.7299Z" fill="#231F20"/>
<path d="M1248.58 54.6701C1248.58 54.2001 1248.31 54.5401 1248.08 54.7701C1247.69 55.2037 1247.27 55.6144 1246.83 56.0001C1246.17 56.6153 1245.47 57.1866 1244.74 57.7101C1244.74 57.7101 1243.8 58.3601 1243.74 58.3701L1243.57 58.4801C1240.72 60.1912 1237.44 61.0645 1234.11 61.0001C1227.43 61.0001 1224.73 58.3801 1224.73 53.2101V48.8601C1227.27 50.0238 1230.04 50.5916 1232.83 50.5201C1244.92 50.5201 1249.13 44.7201 1249.13 38.1201C1249.13 30.5701 1243.65 25.5601 1232.92 25.5601C1222.19 25.5601 1216.38 30.5601 1216.38 38.9201V54.4301C1216.38 62.7701 1223.06 67.7801 1234.11 67.7801C1237.25 67.832 1240.37 67.3031 1243.31 66.2201C1243.88 65.9981 1244.43 65.7478 1244.97 65.4701V65.4701C1246.35 64.8931 1247.58 64.007 1248.56 62.8801L1248.58 54.6701ZM1224.73 40.1201C1224.73 34.9401 1226.4 31.9201 1232.73 31.9201C1238.62 31.9201 1240.73 34.4701 1240.73 38.1201C1240.73 41.7701 1238.42 43.7701 1231.73 43.7701C1229.34 43.6853 1226.96 43.3092 1224.66 42.6501L1224.73 40.1201Z" fill="#231F20"/>
<path d="M1074 25.2999C1070.45 25.1838 1066.91 25.8424 1063.64 27.2299C1062.03 27.889 1060.55 28.8267 1059.26 29.9999C1059.2 30.0728 1059.16 30.1537 1059.13 30.2399C1059.12 30.2831 1059.12 30.3268 1059.13 30.3699V36.2699C1059.13 36.8199 1059.13 37.0999 1059.13 37.7699C1059.13 38.1999 1059.13 38.8599 1059.43 38.4499L1060.16 37.5899C1061.24 36.4752 1062.44 35.4703 1063.72 34.5899L1064.54 34.0899C1064.76 33.9799 1065 33.8199 1065.21 33.7199C1067.93 32.3672 1070.96 31.7403 1074 31.8999C1080.76 31.8999 1082.43 34.5999 1082.43 38.0999C1080.15 43.3299 1067.23 41.9299 1061.03 47.4299L1060.66 47.7699C1060.55 47.8799 1060.43 47.9899 1060.33 48.1099C1060.09 48.3644 1059.88 48.6351 1059.68 48.9199V48.9799C1059.59 49.0899 1059.51 49.2199 1059.43 49.3399L1059.36 49.4499L1059.27 49.5999C1058.27 51.34 1057.77 53.3235 1057.83 55.3299C1057.78 57.3896 1058.27 59.426 1059.27 61.2299V61.2299C1059.35 61.3699 1059.43 61.4999 1059.51 61.6199C1059.59 61.7584 1059.68 61.892 1059.77 62.0199C1059.77 62.0199 1059.77 62.0199 1059.77 62.0199L1059.99 62.3199C1062.83 65.9999 1067.99 67.3799 1073.22 67.3799C1076.57 67.481 1079.91 67.2634 1083.22 66.7299C1085.89 66.1682 1088.48 65.2465 1090.9 63.9899V38.4999C1090.74 30.1499 1084.86 25.2999 1074 25.2999ZM1082.67 45.6799V60.3899C1079.94 61.0932 1077.14 61.4295 1074.32 61.3899C1068.6 61.3899 1065.97 58.9199 1065.97 55.3899C1065.97 47.7799 1078.7 49.5999 1082.03 46.2199C1082.17 46.0799 1082.24 45.9799 1082.38 45.8199L1082.53 45.6299L1082.67 45.4099V45.6799Z" fill="#231F20"/>
<path d="M1146.25 59C1145.84 59.29 1145.36 59.59 1144.98 59.82L1144.85 59.89C1143.16 60.8054 1141.26 61.2574 1139.34 61.2C1133.34 61.2 1132.21 57.87 1132.15 52.53V33.85H1144.87C1145.04 33.8581 1145.21 33.8291 1145.37 33.7652C1145.53 33.7012 1145.67 33.6037 1145.79 33.4794C1145.91 33.355 1146 33.2067 1146.05 33.0446C1146.11 32.8824 1146.13 32.7103 1146.11 32.54V27.17H1132.11V17.08C1132.11 14.99 1123.77 15.52 1123.77 15.52V54.52C1123.77 62.95 1128.77 67.88 1138.27 67.88C1140.59 67.919 1142.91 67.5605 1145.11 66.82C1146.28 66.37 1147.38 65.7573 1148.38 65V57.09C1148.38 57.09 1148.38 56.99 1148.3 57.09C1148.04 57.4457 1147.75 57.78 1147.43 58.09C1147.05 58.4166 1146.66 58.7205 1146.25 59V59Z" fill="#231F20"/>
<path fill-rule="evenodd" clip-rule="evenodd" d="M977.43 114.05C988.633 114.046 999.584 110.72 1008.9 104.493C1018.21 98.2659 1025.47 89.417 1029.75 79.0652C1034.04 68.7134 1035.16 57.3236 1032.97 46.3359C1030.78 35.3482 1025.38 25.256 1017.46 17.3354C1009.54 9.41471 999.443 4.02131 988.454 1.83708C977.466 -0.347155 966.076 0.775871 955.726 5.06416C945.376 9.35245 936.53 16.6134 930.306 25.929C924.082 35.2447 920.76 46.1966 920.76 57.4C920.791 72.4183 926.773 86.812 937.394 97.4296C948.016 108.047 962.412 114.024 977.43 114.05V114.05Z" fill="white"/>
<path d="M977.43 114.8H977.37C962.162 114.758 947.59 108.696 936.839 97.9394C926.089 87.1831 920.034 72.6077 920 57.4V57.4C920.026 42.1795 926.087 27.5904 936.852 16.8307C947.617 6.07098 962.209 0.0185063 977.43 0V0C992.64 0.029089 1007.22 6.0855 1017.97 16.8425C1028.72 27.5995 1034.78 42.18 1034.8 57.39V57.39C1034.77 72.5856 1028.73 87.1516 1017.99 97.9078C1007.26 108.664 992.706 114.737 977.51 114.8H977.43ZM977.37 113.3H977.51C992.305 113.242 1006.48 107.331 1016.93 96.8594C1027.38 86.3874 1033.26 72.205 1033.29 57.41V57.41C1033.26 42.6012 1027.37 28.4057 1016.91 17.9295C1006.44 7.45341 992.249 1.54964 977.44 1.51V1.51C962.621 1.52849 948.413 7.42018 937.93 17.8943C927.446 28.3684 921.542 42.5708 921.51 57.39V57.39C921.536 72.2006 927.429 86.3976 937.898 96.874C948.367 107.35 962.559 113.253 977.37 113.29V113.3Z" fill="#231F20"/>
<path fill-rule="evenodd" clip-rule="evenodd" d="M977.22 40.8099C978.722 40.8119 980.19 40.3681 981.44 39.5349C982.69 38.7017 983.664 37.5164 984.24 36.1291C984.816 34.7418 984.967 33.2148 984.674 31.7416C984.382 30.2684 983.659 28.915 982.597 27.8529C981.535 26.7909 980.181 26.0678 978.708 25.7752C977.235 25.4827 975.708 25.6338 974.32 26.2096C972.933 26.7853 971.748 27.7596 970.915 29.0093C970.081 30.259 969.638 31.7279 969.64 33.2299C969.642 35.2394 970.442 37.1659 971.863 38.5868C973.284 40.0078 975.21 40.8072 977.22 40.8099V40.8099Z" fill="#231F20"/>
<path fill-rule="evenodd" clip-rule="evenodd" d="M995.66 10.52V50.74L992.32 52.86C991.83 46.14 988.8 42 978.52 42H975.92C965.49 42 962.58 46.18 962.12 52.9L958.78 50.78V10.54C947.856 14.8349 938.773 22.8085 933.099 33.085C927.425 43.3615 925.516 55.2961 927.702 66.8296C929.887 78.3631 936.03 88.7719 945.071 96.2599C954.111 103.748 965.482 107.846 977.22 107.846C988.959 107.846 1000.33 103.748 1009.37 96.2599C1018.41 88.7719 1024.55 78.3631 1026.74 66.8296C1028.92 55.2961 1027.02 43.3615 1021.34 33.085C1015.67 22.8085 1006.59 14.8349 995.66 10.54V10.52ZM999.66 54.7V71.23C999.595 71.9831 999.363 72.7122 998.981 73.3643C998.598 74.0164 998.076 74.5751 997.45 75L981.75 84.58L977.37 87.26L975.15 86L957 75C956.388 74.5747 955.876 74.0203 955.501 73.3758C955.127 72.7314 954.897 72.0126 954.83 71.27V54.7C954.818 54.5737 954.818 54.4464 954.83 54.32C955.024 54.3588 955.208 54.4371 955.37 54.55L975.27 66.67L977.2 67.85L980.49 65.85L999.08 54.55C999.239 54.4376 999.42 54.3593 999.61 54.32C999.623 54.4464 999.623 54.5737 999.61 54.7H999.66Z" fill="#231F20"/>
<path fill-rule="evenodd" clip-rule="evenodd" d="M710.44 114.22C721.643 114.214 732.593 110.886 741.905 104.658C751.217 98.4297 758.473 89.5801 762.756 79.2282C767.039 68.8762 768.157 57.4867 765.968 46.4997C763.778 35.5126 758.381 25.4214 750.457 17.5017C742.533 9.5821 732.439 4.18969 721.451 2.00627C710.462 -0.177154 699.074 0.946455 688.724 5.23504C678.374 9.52362 669.528 16.7846 663.305 26.1C657.081 35.4154 653.76 46.3669 653.76 57.5699C653.791 72.5899 659.774 86.9852 670.398 97.6031C681.021 108.221 695.42 114.196 710.44 114.22V114.22Z" fill="white"/>
<path d="M710.43 114.8H710.37C695.161 114.763 680.585 108.703 669.834 97.9453C659.082 87.1878 653.029 72.6093 653 57.4V57.4C653.029 42.1786 659.091 27.5895 669.858 16.8301C680.625 6.07065 695.219 0.0184994 710.44 0V0C725.648 0.0396374 740.22 6.10112 750.97 16.8583C761.72 27.6154 767.771 42.1924 767.8 57.4V57.4C767.771 72.5955 761.729 87.1619 750.995 97.9171C740.26 108.672 725.705 114.742 710.51 114.8H710.43ZM710.37 113.29H710.51C725.303 113.232 739.472 107.323 749.924 96.8529C760.375 86.3831 766.258 72.2033 766.29 57.41V57.41C766.264 42.6029 760.374 28.4089 749.909 17.9331C739.445 7.45721 725.257 1.55228 710.45 1.51V1.51C695.627 1.52585 681.416 7.41775 670.93 17.8943C660.444 28.3708 654.539 42.5773 654.51 57.4V57.4C654.539 72.2088 660.433 86.4033 670.901 96.8775C681.37 107.352 695.561 113.253 710.37 113.29V113.29Z" fill="#231F20"/>
<path fill-rule="evenodd" clip-rule="evenodd" d="M725.11 9.22998V39.39L722.41 41.11C722.01 35.68 719.57 32.31 711.27 32.31H709.17C700.76 32.31 698.41 35.68 698.03 41.11L695.34 39.4V9.23998C683.816 12.8025 673.951 20.3802 667.538 30.5969C661.125 40.8135 658.589 52.9914 660.391 64.9187C662.192 76.846 668.212 87.7317 677.356 95.5986C686.5 103.465 698.163 107.792 710.225 107.792C722.288 107.792 733.95 103.465 743.095 95.5986C752.239 87.7317 758.259 76.846 760.06 64.9187C761.862 52.9914 759.325 40.8135 752.912 30.5969C746.499 20.3802 736.635 12.8025 725.11 9.23998V9.22998ZM728.31 42.59V55.93C728.252 56.5278 728.065 57.1057 727.761 57.6238C727.457 58.1418 727.044 58.5875 726.55 58.93L713.87 66.68L710.34 68.84L708.55 67.84L693.89 59C693.398 58.6575 692.986 58.2116 692.684 57.6934C692.381 57.1752 692.196 56.5973 692.14 56V42.59C692.14 42.37 692.14 42.32 692.14 42.29C692.296 42.3153 692.443 42.3769 692.57 42.47L708.64 52.26L710.2 53.26L712.85 51.65L727.85 42.52C727.977 42.4269 728.125 42.3653 728.28 42.34C728.28 42.34 728.31 42.37 728.31 42.59Z" fill="#231F20"/>
<path fill-rule="evenodd" clip-rule="evenodd" d="M710.22 31.3799C711.43 31.3799 712.613 31.021 713.62 30.3485C714.626 29.676 715.411 28.7202 715.874 27.6019C716.337 26.4836 716.458 25.2531 716.222 24.0659C715.986 22.8788 715.403 21.7883 714.547 20.9324C713.691 20.0765 712.601 19.4936 711.414 19.2575C710.226 19.0213 708.996 19.1425 707.878 19.6058C706.759 20.069 705.803 20.8534 705.131 21.8598C704.459 22.8662 704.1 24.0495 704.1 25.2599C704.102 26.8822 704.748 28.4373 705.895 29.5845C707.042 30.7316 708.597 31.3773 710.22 31.3799V31.3799Z" fill="#231F20"/>
<path d="M737.77 74.3499V72.9999C737.83 72.9999 739.99 72.7399 739.99 73.4999V88.4999C739.29 88.5599 738.13 88.8699 737.68 88.9399C736.993 89.0806 736.292 89.1476 735.59 89.1399C732.64 89.1399 730.99 87.8499 730.99 85.6199V81.3899C730.99 79.2199 732.83 77.9099 734.99 77.9099C735.993 77.8562 736.984 78.1454 737.8 78.7299C737.8 78.7299 737.8 78.7299 737.8 78.7299C737.8 78.7299 737.8 77.9299 737.8 77.5499C737.795 77.48 737.795 77.4098 737.8 77.3399L737.77 74.3499ZM737.77 81.4999C737.77 80.3799 736.51 79.5999 735.24 79.5999C734.962 79.5782 734.683 79.6187 734.423 79.7187C734.163 79.8187 733.929 79.9755 733.737 80.1778C733.545 80.38 733.401 80.6226 733.315 80.8877C733.229 81.1527 733.204 81.4337 733.24 81.7099V85.2899C733.24 86.7199 733.81 87.4199 735.77 87.4199C736.454 87.435 737.134 87.3126 737.77 87.0599V81.4999Z" fill="white"/>
<path d="M719.87 81.0001C719.68 78.8901 717.81 78.0001 715.81 78.0001C714.527 77.905 713.251 78.2584 712.2 79.0001C711.263 78.2834 710.098 77.9284 708.92 78.0001C707.91 78.0006 706.903 78.1215 705.92 78.3601C705.328 78.5103 704.721 78.5974 704.11 78.6201V88.6201C704.11 89.3601 706.32 89.1201 706.32 89.1201V80.0001C707.049 79.7556 707.812 79.634 708.58 79.6401C710.26 79.6401 710.87 80.3401 710.87 81.5401V88.5401C710.87 89.2601 713.09 89.0401 713.09 89.0401V81.1401C713.15 80.2201 714.3 79.6101 715.49 79.6101C716.68 79.6101 717.63 80.2001 717.63 81.6101V88.4901C717.63 89.2401 719.85 88.9901 719.85 88.9901V81.2201C719.865 81.1477 719.872 81.0739 719.87 81.0001Z" fill="white"/>
<path d="M695.67 78.6C695.464 78.4282 695.235 78.2867 694.99 78.18H694.88C694.417 78.0324 693.935 77.9549 693.45 77.95C693.013 77.9514 692.577 77.9983 692.15 78.09L691.27 78.27C690.76 78.37 690.07 78.47 689.22 78.58V88.58C689.22 89.28 691.43 89.06 691.43 89.06V80L692.72 79.76C692.865 79.7269 693.012 79.7035 693.16 79.69C693.633 79.6526 694.107 79.7352 694.54 79.93C694.948 80.1531 695.327 80.4251 695.67 80.74V78.6Z" fill="white"/>
<path d="M729.72 85.74C729.72 85.62 729.65 85.74 729.59 85.74C729.53 85.74 729.52 85.82 729.26 86.06C729.088 86.2226 728.904 86.3729 728.71 86.51C728.71 86.51 728.46 86.68 728.45 86.69C727.689 87.1426 726.816 87.3746 725.93 87.36C724.16 87.36 723.44 86.66 723.44 85.29V84.21C724.113 84.5211 724.849 84.6717 725.59 84.65C728.8 84.65 729.9 83.11 729.9 81.36C729.9 79.36 728.46 78.03 725.61 78.03C722.76 78.03 721.23 79.36 721.23 81.57V85.68C721.23 87.9 723 89.23 725.93 89.23C726.759 89.2371 727.582 89.0948 728.36 88.81L728.8 88.62C729.184 88.4722 729.526 88.2358 729.8 87.93L729.72 85.74ZM723.4 81.89C723.4 80.52 723.84 79.72 725.53 79.72C727.22 79.72 727.65 80.39 727.65 81.36C727.65 82.33 727.05 82.86 725.27 82.86C724.637 82.8355 724.009 82.7347 723.4 82.56V81.89Z" fill="white"/>
<path d="M702.59 86.9001L702.25 87.1201C701.8 87.3551 701.298 87.4721 700.79 87.4601C699.19 87.4601 698.9 86.5901 698.89 85.1701V80.1701H702.26C702.305 80.1717 702.351 80.1636 702.393 80.1463C702.435 80.129 702.473 80.1029 702.504 80.0698C702.535 80.0367 702.559 79.9972 702.574 79.9542C702.589 79.9111 702.594 79.8654 702.59 79.8201V78.4601H698.89V75.7801C698.89 75.2201 696.67 75.3701 696.67 75.3701V85.7101C696.67 87.9501 698.01 89.2501 700.52 89.2501C701.123 89.2664 701.725 89.1819 702.3 89.0001V89.0001C702.605 88.8828 702.892 88.7211 703.15 88.5201V86.3801C703.085 86.4793 703.007 86.57 702.92 86.6501C702.814 86.7391 702.704 86.8226 702.59 86.9001V86.9001Z" fill="white"/>
<path d="M1689.03 57.5507L1674.94 43.4366C1674.56 43.0651 1674.12 42.7704 1673.64 42.5693C1673.15 42.3682 1672.64 42.2646 1672.11 42.2646C1671.59 42.2646 1671.07 42.3682 1670.58 42.5693C1670.1 42.7704 1669.66 43.0651 1669.29 43.4366V43.4366C1668.91 43.8073 1668.62 44.2476 1668.42 44.7323C1668.22 45.2171 1668.11 45.7367 1668.11 46.2615C1668.11 46.7863 1668.22 47.306 1668.42 47.7907C1668.62 48.2755 1668.91 48.7158 1669.29 49.0865L1680.54 60.3722C1680.91 60.7428 1681.2 61.1831 1681.4 61.6679C1681.6 62.1526 1681.71 62.6723 1681.71 63.1971C1681.71 63.7219 1681.6 64.2415 1681.4 64.7263C1681.2 65.211 1680.91 65.6513 1680.54 66.022L1669.27 77.3077C1668.9 77.6784 1668.61 78.1187 1668.4 78.6034C1668.2 79.0882 1668.1 79.6078 1668.1 80.1326C1668.1 80.6574 1668.2 81.1771 1668.4 81.6618C1668.61 82.1465 1668.9 82.5869 1669.27 82.9575V82.9575C1669.64 83.329 1670.08 83.6238 1670.57 83.8249C1671.05 84.026 1671.57 84.1295 1672.1 84.1295C1672.62 84.1295 1673.14 84.026 1673.63 83.8249C1674.11 83.6238 1674.55 83.329 1674.92 82.9575L1689.03 68.8504L1691.83 66.05C1692.2 65.6793 1692.5 65.239 1692.7 64.7543C1692.9 64.2695 1693 63.7499 1693 63.2251C1693 62.7003 1692.9 62.1806 1692.7 61.6959C1692.5 61.2111 1692.2 60.7708 1691.83 60.4002L1689.03 57.5507Z" fill="black"/>
<path d="M1705.98 57.5842L1692.58 44.7863C1692.23 44.4491 1691.81 44.1847 1691.36 44.0082C1690.9 43.8317 1690.42 43.7465 1689.93 43.7575C1689.45 43.7686 1688.97 43.8757 1688.52 44.0726C1688.07 44.2696 1687.67 44.5525 1687.34 44.9053V44.9053C1687 45.2571 1686.73 45.6719 1686.56 46.1261C1686.38 46.5802 1686.3 47.0647 1686.31 47.5519C1686.32 48.039 1686.42 48.5192 1686.62 48.9648C1686.82 49.4105 1687.1 49.8129 1687.45 50.1491L1698.17 60.3846C1698.88 61.0666 1699.29 62.0016 1699.32 62.9854C1699.34 63.9693 1698.97 64.922 1698.29 65.6354L1688.05 76.347C1687.37 77.0604 1687 78.0131 1687.03 78.9969C1687.05 79.9808 1687.46 80.9158 1688.17 81.5978C1688.88 82.2756 1689.83 82.6436 1690.82 82.6213C1691.8 82.599 1692.74 82.1882 1693.42 81.4788L1706.22 68.0788L1708.78 65.3973C1709.12 65.045 1709.38 64.6295 1709.56 64.1748C1709.73 63.7201 1709.82 63.235 1709.81 62.7473C1709.8 62.2596 1709.69 61.7788 1709.49 61.3326C1709.3 60.8863 1709.01 60.4833 1708.66 60.1466L1705.98 57.5842Z" fill="#AFAFAF"/>
<path d="M1504.47 46.6024V42.0097H1512.24V29.1558H1516.94V42.0097H1530.83V46.6024H1516.94V72.1982C1516.94 74.7606 1517.66 76.7022 1519.11 78.0231C1520.65 79.379 1522.66 80.0886 1524.71 80.0044C1527.05 79.9202 1529.32 79.2587 1531.34 78.0791L1533.24 82.3147C1530.63 83.7691 1527.7 84.551 1524.71 84.5901C1520.87 84.5901 1517.84 83.5189 1515.61 81.3766C1513.38 79.2343 1512.26 76.2518 1512.26 72.4362V46.6024H1504.47Z" fill="black"/>
<path d="M1588.58 83.6142H1583.94V58.6415C1583.94 49.9602 1580.65 45.6219 1574.06 45.6265C1567.65 45.6265 1564.45 49.9648 1564.45 58.6415V83.6142H1559.74V58.6415C1559.74 49.9602 1556.48 45.6219 1549.97 45.6265C1543.46 45.6312 1540.23 49.9695 1540.28 58.6415V83.6142H1535.64V57.3463C1535.64 52.3802 1536.83 48.4269 1539.21 45.4865C1541.59 42.5461 1545.2 41.0852 1550.05 41.1038C1552.75 41.0159 1555.41 41.7989 1557.63 43.3372C1559.71 44.8382 1561.26 46.9507 1562.08 49.3791C1562.91 46.9584 1564.47 44.8548 1566.55 43.3582C1568.77 41.8095 1571.43 41.019 1574.14 41.1038C1578.93 41.1038 1582.53 42.5741 1584.95 45.5145C1587.37 48.4549 1588.58 52.4082 1588.58 57.3743V83.6142Z" fill="black"/>
<path d="M1597.71 64.6721V67.2975C1597.71 75.7687 1601.96 80.0044 1610.46 80.0044C1613.89 80.0044 1617.4 78.7745 1621 76.3148C1621.24 76.8399 1621.61 77.596 1622.11 78.5902C1622.6 79.5843 1622.93 80.2144 1623.07 80.4734C1619.29 83.173 1614.75 84.6133 1610.1 84.5901C1604.53 84.5901 1600.3 83.1642 1597.41 80.3124C1594.53 77.4606 1593.08 73.4747 1593.08 68.3546V57.342C1593.08 52.6373 1594.48 48.7493 1597.28 45.6782C1600.08 42.6071 1603.86 41.0809 1608.61 41.0995C1613.39 41.0995 1617.18 42.6351 1619.99 45.7062C1622.8 48.7774 1624.2 52.6653 1624.19 57.37V64.6721H1597.71ZM1597.71 60.2404H1619.58V58.6372C1619.58 54.5065 1618.57 51.3164 1616.56 49.0667C1615.55 47.952 1614.3 47.0726 1612.92 46.4907C1611.53 45.9088 1610.03 45.6386 1608.53 45.6992C1607.05 45.6401 1605.57 45.9159 1604.21 46.5062C1602.85 47.0964 1601.63 47.986 1600.66 49.1087C1598.69 51.3864 1597.7 54.5626 1597.71 58.6372V60.2404Z" fill="black"/>
<path d="M1628.02 68.2034V59.1861C1628.02 53.6226 1629.22 49.2119 1631.62 45.9541C1634.01 42.6963 1637.47 41.0627 1641.98 41.0534C1647.07 41.0534 1651.25 43.3007 1654.52 47.7954V25H1659.15V68.2034C1659.15 73.0622 1657.83 77.0084 1655.2 80.0422C1652.57 83.076 1648.71 84.5929 1643.63 84.5929C1638.55 84.5929 1634.68 83.076 1632.02 80.0422C1629.35 77.0084 1628.02 73.0622 1628.02 68.2034ZM1632.66 60.5583V66.8592C1632.66 71.0925 1633.61 74.3457 1635.5 76.6187C1637.4 78.8917 1640.11 80.0305 1643.63 80.0352C1647.27 80.0352 1650 78.8964 1651.81 76.6187C1653.62 74.341 1654.52 71.0879 1654.52 66.8592V52.5981C1653.45 50.4722 1651.82 48.677 1649.8 47.4033C1648 46.2421 1645.9 45.6182 1643.75 45.6041C1639.72 45.6041 1636.86 46.8503 1635.17 49.3426C1633.48 51.835 1632.63 55.5736 1632.64 60.5583H1632.66Z" fill="black"/>
<path d="M1465.5 58.8647V57.6886C1465.5 49.5627 1461.68 45.4857 1454.02 45.4577C1450.45 45.4577 1446.74 46.7506 1442.9 49.3363L1440.87 45.3107C1444.84 42.3803 1449.66 40.8092 1454.6 40.83C1459.78 40.83 1463.67 42.2746 1466.25 45.1637C1468.84 48.0528 1470.13 52.0691 1470.13 57.2125V68.1131C1470.13 73.0839 1468.79 77.0301 1466.1 79.9519C1463.42 82.8737 1459.56 84.3392 1454.53 84.3486C1449.6 84.3486 1445.78 83.1397 1443.07 80.722C1440.36 78.3043 1439.01 75.4619 1439 72.1947V70.9345C1438.96 69.2897 1439.29 67.6563 1439.96 66.154C1440.63 64.6518 1441.63 63.3189 1442.88 62.2532C1445.47 59.9896 1449.06 58.8601 1453.66 58.8647H1465.5ZM1443.63 70.9345V72.1947C1443.64 73.2596 1443.9 74.3071 1444.4 75.2465C1444.9 76.1859 1445.63 76.9888 1446.51 77.5855C1448.44 79.0371 1451.13 79.7605 1454.6 79.7559C1458.03 79.7559 1460.7 78.7267 1462.63 76.6614C1464.55 74.5961 1465.5 71.7187 1465.5 68.0361V63.2894H1453.47C1450.29 63.2894 1447.85 63.9895 1446.17 65.3897C1445.34 66.0557 1444.69 66.9029 1444.25 67.8648C1443.81 68.8268 1443.6 69.8774 1443.63 70.9345V70.9345Z" fill="black"/>
<path d="M1479.33 83.3686H1474.71V57.1006C1474.71 52.1859 1476.07 48.256 1478.8 45.3109C1481.53 42.3658 1485.6 40.8722 1491.02 40.8302C1494.66 40.786 1498.23 41.8374 1501.27 43.8476L1499.48 47.9643C1496.4 46.242 1493.55 45.3785 1490.95 45.3739C1483.2 45.3739 1479.33 49.6865 1479.33 58.3118V83.3686Z" fill="black"/>
<path d="M383.4 114.8C415.101 114.8 440.8 89.1012 440.8 57.4C440.8 25.6989 415.101 0 383.4 0C351.699 0 326 25.6989 326 57.4C326 89.1012 351.699 114.8 383.4 114.8Z" fill="white"/>
<path d="M384 108.93V108.77H384.23C388.376 108.728 392.501 108.17 396.51 107.11C399.522 106.386 402.449 105.343 405.24 104C407.04 103.1 408.84 102.19 410.54 101.14C412.24 100.09 413.76 98.9199 415.33 97.7699C417.522 96.191 419.534 94.3768 421.33 92.3599C423.482 89.9446 425.445 87.367 427.2 84.6499C429.05 81.6832 430.611 78.5454 431.86 75.2799C432.83 72.7193 433.546 70.07 434 67.3699C434.717 63.8428 435.053 60.2488 435 56.6499C434.905 52.1427 434.233 47.6662 433 43.3299C432.137 40.3289 431.016 37.408 429.65 34.5999C427.95 31.2643 425.924 28.1055 423.6 25.1699C423.19 24.6399 422.65 24.1699 422.26 23.6599C420.926 21.9821 419.417 20.4502 417.76 19.0899C416.58 18.0399 415.31 17.0899 414.1 16.0899C412.676 14.9109 411.138 13.8758 409.51 12.9999C408.23 12.2899 406.95 11.5599 405.64 10.9199C404.53 10.3699 403.38 9.9199 402.23 9.4599C401.47 9.1599 400.69 8.9199 399.91 8.6599C398.91 8.3399 397.91 8.0099 396.91 7.7099C396.35 7.5399 395.76 7.4099 395.19 7.2599C394.47 7.0799 393.75 6.8599 393.02 6.7399C392.29 6.6199 391.47 6.5599 390.69 6.4799C390.2 6.4199 389.69 6.3699 389.21 6.2999C389.12 6.2999 389.03 6.2399 388.94 6.2299C388.56 6.2299 388.18 6.1199 387.8 6.0899C387.42 6.0599 387.28 6.0899 387.02 6.0899L385.57 5.9999C385.37 5.9999 385.16 5.9999 384.96 5.9999C384.56 5.9999 384.16 5.9099 383.76 5.8999C383.36 5.8899 383.16 5.9599 382.86 5.9699L378.7 5.9999C378.61 5.99038 378.52 5.99038 378.43 5.9999C377.84 6.1199 377.25 6.2999 376.66 6.3599C375.139 6.43721 373.628 6.66159 372.15 7.0299C370.48 7.5199 368.81 7.9699 367.15 8.4499C366.181 8.66793 365.236 8.98285 364.33 9.3899C363.329 9.94874 362.282 10.4205 361.2 10.7999C360.698 11.0039 360.215 11.255 359.76 11.5499L356.38 13.4899H356.33C355.835 13.6019 355.394 13.8808 355.08 14.2799C354.861 14.4815 354.611 14.6469 354.34 14.7699L353.42 15.3999C353.23 15.5399 353.05 15.6999 352.85 15.8499C352.17 16.3399 351.49 16.8499 350.85 17.3199C350.46 17.6099 350.1 17.9299 349.74 18.2499C349.38 18.5699 348.9 18.9799 348.5 19.3699C348.1 19.7599 347.5 20.3699 347.02 20.8799C346.54 21.3899 346.02 21.7599 345.61 22.2499C344.71 23.2499 343.82 24.3199 342.97 25.3999C341.949 26.6171 341.004 27.8962 340.14 29.2299C338.9 31.2299 337.75 33.3699 336.71 35.5199C335.84 37.3399 335.15 39.2499 334.46 41.1499C334.048 42.313 333.714 43.5023 333.46 44.7099C332.938 46.8241 332.524 48.9636 332.22 51.1199C331.835 54.3351 331.755 57.5796 331.98 60.8099C332.194 64.0853 332.734 67.3312 333.59 70.4999C334.367 73.7074 335.511 76.8146 337 79.7599C338 81.6599 339 83.6299 340.12 85.4299C341.35 87.2566 342.685 89.0096 344.12 90.6799C346.388 93.3985 348.954 95.8539 351.77 97.9999C354.244 99.9787 356.927 101.682 359.77 103.08C361.35 103.83 362.9 104.66 364.53 105.31C366.019 105.879 367.538 106.366 369.08 106.77C371.483 107.54 373.954 108.079 376.46 108.38L384 108.93Z" fill="white"/>
<path d="M384 108.93L376.46 108.35C373.954 108.049 371.483 107.51 369.08 106.74C367.538 106.336 366.019 105.849 364.53 105.28C362.9 104.63 361.35 103.8 359.77 103.05C356.927 101.652 354.244 99.9488 351.77 97.97C348.97 95.831 346.417 93.3859 344.16 90.68C342.725 89.0096 341.39 87.2566 340.16 85.43C338.99 83.63 338.06 81.66 337.04 79.76C335.527 76.8341 334.356 73.7438 333.55 70.55C332.694 67.3813 332.154 64.1353 331.94 60.86C331.715 57.6296 331.795 54.3852 332.18 51.17C332.484 49.0136 332.898 46.8742 333.42 44.76C333.674 43.5524 334.008 42.3631 334.42 41.2C335.11 39.3 335.8 37.39 336.67 35.57C337.67 33.42 338.86 31.32 340.1 29.28C340.964 27.9462 341.909 26.6671 342.93 25.45C343.78 24.37 344.67 23.33 345.57 22.3C346 21.81 346.57 21.39 346.98 20.93C347.39 20.47 347.98 19.93 348.46 19.42C348.94 18.91 349.28 18.66 349.7 18.3C350.12 17.94 350.42 17.66 350.81 17.37C351.48 16.87 352.16 16.37 352.81 15.9C353.01 15.75 353.19 15.59 353.38 15.45L354.3 14.82C354.571 14.697 354.821 14.5316 355.04 14.33C355.354 13.9309 355.795 13.652 356.29 13.54H356.34L359.72 11.6C360.175 11.3051 360.657 11.054 361.16 10.85C362.242 10.4706 363.289 9.99882 364.29 9.43998C365.196 9.03293 366.141 8.71801 367.11 8.49998C368.77 8.01998 370.44 7.56998 372.11 7.07998C373.588 6.71167 375.099 6.48729 376.62 6.40998C377.21 6.34998 377.8 6.16998 378.39 6.04998C378.48 6.04046 378.57 6.04046 378.66 6.04998H382.82C383.12 6.04998 383.42 5.97998 383.72 5.97998C384.02 5.97998 384.52 6.04998 384.92 6.07998C385.12 6.07998 385.33 6.07998 385.53 6.07998L387.02 6.19998C387.28 6.19998 387.55 6.19998 387.8 6.19998C388.05 6.19998 388.56 6.28998 388.94 6.33998C389.03 6.33998 389.12 6.39998 389.21 6.40998C389.7 6.47998 390.21 6.52998 390.69 6.58998C391.47 6.66998 392.25 6.71998 393.02 6.84998C393.79 6.97998 394.47 7.18998 395.19 7.36998C395.76 7.51998 396.35 7.64998 396.91 7.81998C397.91 8.11998 398.91 8.44998 399.91 8.76998C400.69 9.02998 401.47 9.26998 402.23 9.56998C403.38 10.02 404.53 10.48 405.64 11.03C406.95 11.67 408.23 12.4 409.51 13.11C411.127 13.9813 412.654 15.0096 414.07 16.18C415.28 17.18 416.55 18.13 417.73 19.18C419.387 20.5403 420.895 22.0722 422.23 23.75C422.62 24.29 423.16 24.75 423.57 25.26C425.894 28.1956 427.92 31.3544 429.62 34.69C430.991 37.4681 432.122 40.3587 433 43.33C434.233 47.6663 434.905 52.1428 435 56.65C435.053 60.2489 434.717 63.8429 434 67.37C433.535 70.061 432.808 72.7001 431.83 75.25C430.581 78.5155 429.02 81.6532 427.17 84.62C425.414 87.337 423.452 89.9147 421.3 92.33C419.504 94.3469 417.492 96.161 415.3 97.74C413.73 98.89 412.17 100.08 410.51 101.11C408.85 102.14 407.01 103.11 405.21 103.97C402.436 105.32 399.526 106.373 396.53 107.11C392.521 108.17 388.396 108.728 384.25 108.77H384.02L384 108.93ZM393.19 53.6L393.25 53.77C393.418 53.718 393.594 53.6944 393.77 53.7C394 53.7 394.33 53.82 394.42 53.99C395.03 55.09 395.6 56.21 396.18 57.33C396.76 58.45 397.18 59.33 397.73 60.33C397.73 60.43 397.95 60.47 398.07 60.54C398.135 60.3997 398.182 60.2519 398.21 60.1C398.21 60.01 398.12 59.9 398.06 59.8C397.33 58.38 396.55 56.98 395.87 55.54C395.579 54.9331 395.415 54.2727 395.39 53.6C395.39 49.6 395.39 45.69 395.39 41.73C395.39 38.26 395.39 34.8 395.39 31.33C395.39 29.73 395.39 28.13 395.39 26.53C395.39 25.76 395.27 25.68 394.52 25.69L383.52 25.78L373.13 25.85C372.43 25.85 372.25 26.04 372.26 26.71C372.34 33.0833 372.417 39.45 372.49 45.81C372.49 48.18 372.49 50.56 372.56 52.93C372.56 56.87 372.63 60.8 372.68 64.74C372.68 66.23 372.73 67.74 372.77 69.2C372.77 69.53 372.77 69.9 373.23 69.93C374.07 69.93 374.92 69.93 375.76 69.93C376 69.93 376.25 69.93 376.49 69.93C377.67 69.93 378.85 70.02 380.03 70.01C381.21 70 382.39 69.92 383.58 69.89C384.58 69.89 385.49 69.89 386.45 69.89C387.65 69.89 388.85 69.95 390.04 69.96C391.51 69.96 392.97 69.96 394.43 69.96C395.23 69.96 395.49 69.79 395.49 68.96C395.49 67.34 395.49 65.72 395.49 64.1C395.49 63.43 395.55 62.77 395.58 62C395.34 62.0509 395.106 62.1245 394.88 62.22C393.24 63.07 391.61 63.92 389.98 64.79C388.35 65.66 386.51 66.68 384.78 67.64C384.717 67.6898 384.644 67.7248 384.566 67.7424C384.488 67.7599 384.407 67.7595 384.329 67.7412C384.251 67.723 384.178 67.6873 384.116 67.6368C384.054 67.5864 384.004 67.5225 383.97 67.45C383.864 67.2959 383.767 67.1356 383.68 66.97C382.62 64.97 381.57 63.06 380.5 61.12C379.43 59.18 378.1 57.06 377 55C376.213 53.6666 375.457 52.3033 374.73 50.91C374.37 50.24 373.73 49.61 374.38 48.78C374.38 48.78 374.38 48.72 374.32 48.66C374.254 48.6698 374.186 48.6698 374.12 48.66C373.93 48.6 373.65 48.58 373.6 48.45C373.581 48.3538 373.585 48.2542 373.613 48.16C373.641 48.0659 373.691 47.98 373.76 47.91C374.109 47.6056 374.487 47.3375 374.89 47.11C375.33 46.86 375.82 46.71 376.26 46.47C377.57 45.76 378.86 45.02 380.16 44.3C380.43 44.15 380.72 44.06 380.98 43.92C381.7 43.53 382.41 43.12 383.13 42.72C383.85 42.32 384.66 41.88 385.43 41.46C385.74 41.29 386.03 41.09 386.33 40.91C386.63 40.73 386.74 40.64 386.85 40.7C386.942 40.7552 387.021 40.8307 387.08 40.9208C387.139 41.0109 387.177 41.1132 387.19 41.22C387.19 41.38 386.98 41.58 386.82 41.69C386.36 41.98 385.82 42.24 385.4 42.51L385.47 42.67C385.748 42.6998 386.03 42.6677 386.294 42.5761C386.559 42.4845 386.8 42.3356 387 42.14C387.57 41.69 387.64 41.71 388 42.34C388.63 43.52 389.35 44.65 390 45.84C390.52 46.84 391.38 47.76 391.24 49.14C391.58 49.03 391.9 48.95 392.24 48.83C392.58 48.71 392.89 48.64 393.1 48.99C393.61 49.86 394.1 50.73 394.58 51.64C394.92 52.34 394.79 52.64 394.14 53.07L393.19 53.6ZM385.19 78.6C385.322 78.7423 385.446 78.8926 385.56 79.05L387.83 83.05C388.21 83.71 388.5 83.7 388.89 83.05C389.63 81.6833 390.397 80.2966 391.19 78.89C391.27 78.7278 391.34 78.5608 391.4 78.39L391.66 78.59C391.66 78.83 391.72 79.07 391.72 79.31C391.72 80.47 391.72 81.64 391.72 82.81C391.72 83.21 391.79 83.66 392.29 83.74C392.951 83.8525 393.62 83.9127 394.29 83.92C395.46 83.92 396.62 83.85 397.78 83.92C398.565 84.034 399.365 83.9374 400.1 83.64C400.19 83.64 400.35 83.64 400.47 83.64C400.832 83.7532 401.204 83.8336 401.58 83.88C403.04 83.88 404.5 83.94 405.96 83.88C406.855 83.8428 407.744 83.7087 408.61 83.48C410.74 82.88 411.61 80.82 411.67 78.85C411.675 77.558 411.233 76.3041 410.42 75.3C410.126 74.893 409.742 74.5595 409.298 74.3253C408.854 74.0912 408.362 73.9627 407.86 73.95C405.62 73.87 403.38 73.95 401.13 73.95C401.026 73.9353 400.921 73.9447 400.821 73.9775C400.722 74.0104 400.631 74.0657 400.557 74.1393C400.482 74.2128 400.426 74.3026 400.392 74.4016C400.358 74.5006 400.347 74.6061 400.36 74.71C400.36 75.54 400.36 76.36 400.36 77.19C400.36 78.92 400.36 80.65 400.36 82.38C400.36 82.38 400.31 82.38 400.28 82.45V82.3C399.815 82.1942 399.344 82.1173 398.87 82.07C397.87 82.07 396.87 82.07 395.87 82.07C395.23 82.07 395.02 81.88 394.99 81.24C394.98 81.0534 394.98 80.8665 394.99 80.68C394.99 79.92 395.2 79.8 395.99 79.84C397.1 79.84 398.21 79.9 399.31 79.84C399.96 79.84 400.11 79.6 400.07 78.98C400.01 78.11 399.89 77.98 399.19 77.98H396.43C395 78.08 394.9 78 395 76.57C395 75.89 395.18 75.71 395.84 75.7C397.02 75.7 398.2 75.7 399.38 75.7C399.81 75.7 400.03 75.58 400.03 75.14C400.03 74.95 400.03 74.76 400.03 74.57C400.03 74.13 399.82 73.94 399.36 73.94C397.12 73.94 394.88 73.94 392.63 74C392.242 73.986 391.859 74.0905 391.533 74.2995C391.206 74.5085 390.95 74.8122 390.8 75.17C390.38 76.01 389.89 76.81 389.43 77.63C389.23 78 388.98 78.03 388.75 77.63C388.3 76.94 387.89 76.22 387.44 75.53C387.181 75.0939 386.883 74.6822 386.55 74.3C386.263 73.9796 385.884 73.7564 385.465 73.6614C385.045 73.5664 384.607 73.6044 384.21 73.77C383.818 73.9232 383.488 74.201 383.269 74.5606C383.05 74.9201 382.956 75.3415 383 75.76C383 77.12 383 78.47 383 79.82C383 80.82 383.08 81.75 383 82.7C383 83.83 383.28 84.17 384.37 83.98C384.465 83.974 384.557 83.9486 384.641 83.9054C384.725 83.8622 384.8 83.8022 384.86 83.7291C384.92 83.6559 384.964 83.5712 384.99 83.4802C385.016 83.3891 385.023 83.2938 385.01 83.2C385.01 81.92 385.01 80.64 385.01 79.36C385.08 79.17 385.12 79 385.16 78.63L385.19 78.6ZM367.4 79.93L367.26 80.01C367.155 79.9296 367.06 79.8354 366.98 79.73C366.15 78.18 365.3 76.63 364.5 75.06C364.331 74.6796 364.047 74.3615 363.689 74.15C363.33 73.9385 362.915 73.8441 362.5 73.88C362.027 73.8147 361.545 73.8945 361.119 74.1088C360.692 74.323 360.34 74.6617 360.11 75.08C358.83 77.81 357.62 80.56 356.4 83.32C356.18 83.82 356.4 84.13 356.96 84.11C357.3 84.11 357.64 84.03 357.96 83.99C358.78 83.91 359.03 83.71 359.19 82.93C359.215 82.6825 359.331 82.4531 359.516 82.2867C359.701 82.1202 359.941 82.0287 360.19 82.03C361.19 82.03 362.1 82.03 363.05 81.95C364 81.87 364.34 82.07 364.73 82.95C364.808 83.1827 364.916 83.4045 365.05 83.61C365.097 83.6867 365.16 83.7529 365.234 83.8045C365.308 83.8561 365.392 83.892 365.48 83.91C367.05 83.91 368.63 83.91 370.2 83.91C370.72 83.91 370.95 83.56 370.94 83.04C370.94 81.94 370.94 80.85 370.94 79.76C370.94 78.67 370.89 77.76 370.89 76.76C370.89 75.76 371.1 75.65 371.98 75.67C372.281 75.6664 372.582 75.6831 372.88 75.72C373.78 75.83 374.09 76.26 374.12 77.41C374.137 77.585 374.118 77.7616 374.065 77.9293C374.012 78.097 373.927 78.2525 373.813 78.3866C373.699 78.5207 373.56 78.6308 373.403 78.7104C373.247 78.79 373.075 78.8374 372.9 78.85C372.57 78.85 372.23 78.85 371.9 78.85C371.31 78.85 371.2 79.01 371.49 79.53C372.24 80.87 373.02 82.21 373.83 83.53C373.921 83.6418 374.033 83.734 374.16 83.8011C374.287 83.8681 374.427 83.9086 374.57 83.92C375.263 83.9551 375.957 83.9551 376.65 83.92C376.949 83.9099 377.245 83.8595 377.53 83.77C378.04 83.59 378.1 83.37 377.81 82.93C377.25 82.1 376.68 81.28 376.12 80.46C376.047 80.3858 375.992 80.2958 375.96 80.1968C375.928 80.0979 375.92 79.9928 375.935 79.89C375.951 79.7871 375.99 79.6893 376.05 79.6043C376.11 79.5192 376.188 79.4493 376.28 79.4C376.401 79.3106 376.528 79.2304 376.66 79.16C377.022 78.9762 377.338 78.7139 377.585 78.3921C377.833 78.0703 378.005 77.6972 378.089 77.3002C378.174 76.9033 378.168 76.4924 378.073 76.0979C377.978 75.7033 377.796 75.335 377.54 75.02C377.216 74.6769 376.821 74.4094 376.382 74.2365C375.943 74.0637 375.471 73.9897 375 74.02C372.67 73.96 370.34 74.02 368 74.02C367.47 74.02 367.32 74.29 367.33 74.76C367.33 75.76 367.33 76.69 367.39 77.65C367.41 78.47 367.4 79.2 367.4 79.93ZM380.53 70.93V71C378.35 71 376.16 71 373.98 71C373.05 71 372.9 71.16 372.98 72.09C372.98 72.71 373.45 72.96 374.33 72.92L377.81 72.81C378.38 72.81 378.59 73 378.6 73.58C378.6 75.18 378.6 76.78 378.6 78.38C378.6 79.98 378.65 81.66 378.69 83.29C378.69 83.94 378.9 84.07 379.55 83.98C379.813 83.9651 380.077 83.9651 380.34 83.98C380.86 83.98 381.34 84.06 381.91 83.98C382.59 83.98 382.79 83.7 382.79 82.98V81.11C382.79 79.74 382.79 78.37 382.79 77C382.79 75.63 382.79 74.44 382.85 73.17C382.85 72.83 383.03 72.68 383.4 72.69C384.5 72.69 385.61 72.76 386.72 72.78C386.945 72.7765 387.169 72.753 387.39 72.71C388.08 72.59 388.24 72.32 388.18 71.48C388.18 70.84 387.69 70.88 387.24 70.88L380.53 70.93ZM408.21 88.17C408.49 88.54 408.72 88.89 409 89.17C409.15 89.2827 409.32 89.3674 409.5 89.42C409.53 89.2513 409.53 89.0786 409.5 88.91C409.19 88.09 408.87 87.27 408.5 86.46C408.4 86.23 408.15 86.07 407.96 85.88C407.78 86.08 407.52 86.24 407.42 86.47C407.06 87.27 406.75 88.1 406.42 88.93C406.387 89.1085 406.387 89.2915 406.42 89.47C406.58 89.34 406.82 89.25 406.89 89.08C407.12 88.57 407.28 88.02 407.49 87.5C407.592 87.2806 407.705 87.0669 407.83 86.86C408.43 87.37 408.47 87.69 408.21 88.17ZM391.27 53.44H390.98C390.33 53.55 390.24 53.44 390.33 52.83C390.33 52.48 390.21 52.39 389.92 52.39C389.63 52.39 389.4 52.19 389.52 51.88C389.64 51.57 389.81 51.09 389.39 50.73C389.33 50.73 389.39 50.45 389.45 50.31C389.474 50.1777 389.507 50.0474 389.55 49.92L389.36 49.79C389.17 50 388.82 50.22 388.83 50.42C388.817 51.0478 388.936 51.6714 389.18 52.25C389.617 52.9889 390.123 53.6852 390.69 54.33C390.797 54.4886 390.951 54.6101 391.13 54.6782C391.309 54.7462 391.505 54.7573 391.69 54.71C391.523 54.5229 391.382 54.3144 391.27 54.09C391.238 53.8745 391.238 53.6555 391.27 53.44ZM390.33 86C389.908 85.8446 389.442 85.8626 389.034 86.05C388.625 86.2374 388.307 86.579 388.15 87C388.079 87.4371 388.079 87.8828 388.15 88.32C388.15 89.08 388.98 89.03 389.3 89.49C389.37 89.59 389.72 89.49 389.95 89.49V89.31C389.523 89.2478 389.136 89.0224 388.871 88.6812C388.606 88.34 388.484 87.9094 388.53 87.48C388.57 86.3 389.57 86.35 390.33 86ZM399.01 86.1C399.29 86.31 399.68 86.47 399.83 86.76C399.98 87.05 399.77 87.52 399.34 87.76C399.277 87.8193 399.23 87.8932 399.202 87.9751C399.174 88.057 399.166 88.1445 399.18 88.23C399.299 88.5645 399.464 88.8809 399.67 89.17C399.73 89.26 399.92 89.27 400.05 89.31C400.05 89.18 400.16 89.01 400.11 88.92C399.981 88.7215 399.919 88.4863 399.936 88.2499C399.952 88.0135 400.045 87.7889 400.2 87.61C400.371 87.407 400.46 87.1466 400.447 86.8812C400.434 86.6158 400.32 86.3653 400.13 86.18C399.72 85.73 399.32 86 399 86.14L399.01 86.1ZM357.15 87.77C356.76 87.59 356.81 87.15 356.92 86.77C357.03 86.39 356.92 86.2 356.63 86.18C356.52 86.18 356.28 86.49 356.27 86.66C356.27 87.45 356.27 88.24 356.33 89.03C356.33 89.2 356.54 89.36 356.66 89.53C356.751 89.3599 356.828 89.1826 356.89 89C357 88.6 357.05 88.24 357.15 87.77ZM365.61 86.14C365.02 85.79 364.67 85.95 364.61 86.6C364.61 87.46 364.61 88.32 364.61 89.19C364.61 89.3 364.61 89.46 364.61 89.51C364.751 89.5963 364.902 89.6635 365.06 89.71C365.06 89.56 365.24 89.4 365.22 89.27C365.055 88.751 365.005 88.2026 365.072 87.6622C365.139 87.1219 365.323 86.6026 365.61 86.14V86.14ZM381.77 86.14L381.95 86.05C381.742 85.9651 381.523 85.9112 381.3 85.89C381.16 85.89 380.92 86.1 380.93 86.21C380.93 87.03 381.05 87.84 381.14 88.66C381.185 88.897 381.245 89.1308 381.32 89.36H381.56L381.77 86.14ZM374.14 86C373.732 87.0925 373.765 88.3007 374.23 89.37C374.541 88.2633 374.509 87.0885 374.14 86V86ZM398.21 89.25L398.42 89.18C398.42 89.05 398.42 88.93 398.42 88.81C398.42 88.04 398.42 87.27 398.42 86.5C398.385 86.3003 398.318 86.1077 398.22 85.93C398.09 86.1 397.87 86.28 397.86 86.46C397.86 87.21 397.86 87.97 397.86 88.72C397.94 88.9273 398.059 89.1174 398.21 89.28V89.25ZM366.53 86.35C367.53 87.24 367.4 88.21 366.73 89.25C366.926 89.1946 367.109 89.0996 367.267 88.9709C367.425 88.8422 367.554 88.6824 367.648 88.5015C367.742 88.3207 367.797 88.1225 367.812 87.9193C367.826 87.716 367.798 87.5121 367.73 87.32C367.57 86.61 367.13 86.23 366.53 86.38V86.35ZM391 89C391.238 88.8859 391.444 88.7148 391.6 88.5018C391.756 88.2888 391.856 88.0406 391.893 87.7792C391.93 87.5179 391.901 87.2515 391.81 87.0039C391.719 86.7563 391.568 86.5351 391.37 86.36C391.27 86.26 391.08 86.26 390.93 86.22C390.93 86.36 390.93 86.55 390.93 86.65C391.124 86.8947 391.252 87.1846 391.303 87.4925C391.353 87.8004 391.325 88.1161 391.22 88.41C391.17 88.63 391.07 88.82 391 89ZM382.3 44.49L382.17 44.26L380.06 45.4L380.15 45.57C380.89 45.27 381.8 45.31 382.28 44.51L382.3 44.49ZM377.13 47L375.38 47.87C375.552 47.9369 375.735 47.9672 375.919 47.959C376.103 47.9508 376.283 47.9042 376.448 47.8223C376.612 47.7404 376.758 47.6249 376.876 47.4833C376.993 47.3417 377.08 47.1771 377.13 47V47ZM382.93 43.83L383 44C384 43.82 384.59 43.5 384.69 42.86L382.93 43.83ZM379.58 45.71C379.05 45.94 378.49 45.91 378.27 46.5C378.94 46.68 379.29 46.47 379.58 45.75V45.71ZM397.58 61.07L397.49 60.86L396.58 61.22L396.66 61.42L397.58 61.07ZM357.21 89.56C357.7 89.91 357.82 89.9 358.1 89.44L357.21 89.56Z" fill="black"/>
<path d="M393.19 53.6L394.03 53.07C394.68 52.63 394.81 52.34 394.47 51.64C394 50.73 393.5 49.86 393 49C392.79 48.65 392.47 48.72 392.14 48.84C391.81 48.96 391.52 49.04 391.14 49.15C391.28 47.77 390.42 46.87 389.9 45.85C389.3 44.66 388.58 43.53 387.9 42.35C387.55 41.72 387.48 41.7 386.9 42.15C386.699 42.3406 386.459 42.4851 386.197 42.5731C385.934 42.6612 385.655 42.6909 385.38 42.66L385.31 42.5C385.78 42.23 386.31 41.97 386.73 41.68C386.89 41.57 387.1 41.37 387.1 41.21C387.087 41.1032 387.049 41.0009 386.99 40.9108C386.931 40.8207 386.853 40.7452 386.76 40.69C386.65 40.63 386.41 40.81 386.24 40.9C386.07 40.99 385.65 41.28 385.34 41.45C384.57 41.87 383.8 42.28 383.04 42.71C382.28 43.14 381.61 43.52 380.89 43.91C380.63 44.05 380.34 44.14 380.07 44.29C378.77 45.01 377.48 45.75 376.17 46.46C375.73 46.7 375.24 46.85 374.8 47.1C374.397 47.3275 374.019 47.5956 373.67 47.9C373.601 47.97 373.551 48.0559 373.523 48.15C373.495 48.2442 373.491 48.3437 373.51 48.44C373.51 48.57 373.84 48.59 374.03 48.65C374.096 48.6598 374.164 48.6598 374.23 48.65C374.23 48.71 374.3 48.76 374.29 48.77C373.65 49.6 374.29 50.23 374.64 50.9C375.433 52.3 376.22 53.6666 377 55C378.14 57 379.31 59 380.44 61.09C381.57 63.18 382.52 65 383.58 67C383.667 67.1656 383.764 67.3259 383.87 67.48C383.904 67.5525 383.954 67.6164 384.016 67.6668C384.078 67.7172 384.151 67.753 384.229 67.7712C384.307 67.7895 384.388 67.7899 384.466 67.7724C384.544 67.7548 384.618 67.7198 384.68 67.67C386.407 66.71 388.14 65.76 389.88 64.82C391.51 63.95 393.14 63.1 394.78 62.25C395.006 62.1545 395.24 62.0808 395.48 62.03C395.48 62.8 395.39 63.46 395.39 64.13C395.39 65.75 395.39 67.37 395.39 68.99C395.39 69.81 395.13 69.99 394.33 69.99C392.87 69.99 391.41 69.99 389.94 69.99C388.75 69.99 387.55 69.93 386.35 69.92C385.35 69.92 384.44 69.92 383.48 69.92C382.29 69.92 381.11 70.04 379.93 70.04C378.75 70.04 377.57 69.99 376.39 69.96C376.15 69.96 375.9 69.96 375.66 69.96C374.82 69.96 373.97 69.96 373.13 69.96C372.7 69.96 372.67 69.56 372.67 69.23C372.67 67.75 372.59 66.23 372.58 64.77C372.58 60.83 372.5 56.9 372.46 52.96C372.46 50.59 372.46 48.21 372.39 45.84C372.31 39.4733 372.233 33.1066 372.16 26.74C372.16 26.07 372.33 25.88 373.03 25.88L383.42 25.81L394.42 25.72C395.17 25.72 395.27 25.79 395.29 26.56C395.29 28.16 395.29 29.76 395.29 31.36C395.29 34.83 395.29 38.29 395.29 41.76C395.29 45.76 395.29 49.67 395.29 53.63C395.315 54.3027 395.479 54.963 395.77 55.57C396.45 57.01 397.23 58.41 397.96 59.83C398.02 59.93 398.11 60.04 398.11 60.13C398.082 60.2819 398.035 60.4296 397.97 60.57C397.85 60.5 397.68 60.46 397.63 60.36C397.1 59.36 396.63 58.36 396.08 57.36C395.53 56.36 395 55.09 394.42 54C394.33 53.83 394 53.76 393.77 53.71C393.594 53.7043 393.418 53.728 393.25 53.78L393.19 53.6ZM390.19 33.51V33.42C390.54 33.42 390.9 33.42 391.26 33.42C391.93 33.42 392.01 33.25 391.91 32.57C391.62 30.64 389.62 29.06 387.91 28.63C387.383 28.5585 386.864 28.438 386.36 28.27C385.859 28.0614 385.302 28.0297 384.78 28.18C384.574 28.205 384.366 28.205 384.16 28.18C383.642 28.1252 383.121 28.1052 382.6 28.12C381.613 28.1485 380.632 28.2962 379.68 28.56C378.605 28.8799 377.633 29.4765 376.86 30.29C376.221 30.9493 375.814 31.7988 375.7 32.71C375.64 33.39 375.78 33.55 376.47 33.55H381.16L390.19 33.51ZM385.71 36.65C385.682 36.9459 385.716 37.2445 385.812 37.5259C385.908 37.8073 386.063 38.0649 386.267 38.2817C386.47 38.4984 386.718 38.6693 386.992 38.7828C387.267 38.8963 387.563 38.9499 387.86 38.94C388.442 38.9102 388.994 38.6694 389.412 38.2627C389.829 37.8561 390.085 37.3112 390.13 36.73C390.166 36.0844 389.947 35.4505 389.521 34.9644C389.095 34.4783 388.495 34.1787 387.85 34.13C387.541 34.1457 387.239 34.2246 386.962 34.3619C386.684 34.4992 386.438 34.6919 386.239 34.9282C386.039 35.1644 385.89 35.4391 385.801 35.7353C385.712 36.0314 385.684 36.3428 385.72 36.65H385.71ZM379.86 39.05C380.409 39.0386 380.933 38.8215 381.33 38.4419C381.726 38.0623 381.965 37.5477 382 37C382.066 36.3834 381.896 35.7648 381.526 35.2679C381.155 34.771 380.61 34.4324 380 34.32C379.692 34.2995 379.384 34.3448 379.095 34.453C378.806 34.5612 378.543 34.7298 378.325 34.9474C378.106 35.1651 377.937 35.4268 377.827 35.7153C377.718 36.0037 377.671 36.3121 377.69 36.62C377.619 36.9318 377.624 37.256 377.705 37.5655C377.785 37.875 377.938 38.1608 378.152 38.3988C378.365 38.6368 378.633 38.8201 378.932 38.9334C379.231 39.0467 379.553 39.0867 379.87 39.05H379.86Z" fill="white"/>
<path d="M385.16 78.6299C385.16 78.9699 385.08 79.1699 385.08 79.3599C385.08 80.6399 385.08 81.9199 385.08 83.1999C385.093 83.2937 385.086 83.3891 385.06 83.4801C385.034 83.5711 384.99 83.6558 384.929 83.729C384.869 83.8021 384.795 83.8621 384.711 83.9053C384.627 83.9485 384.534 83.9739 384.44 83.9799C383.35 84.1699 383.02 83.8299 383.07 82.6999C383.07 81.6999 383.07 80.7899 383.07 79.8199C383.07 78.4699 383.07 77.1199 383.07 75.7599C383.034 75.3542 383.128 74.9477 383.338 74.5989C383.549 74.2502 383.864 73.9774 384.24 73.8199C384.637 73.6543 385.075 73.6163 385.495 73.7113C385.914 73.8063 386.293 74.0295 386.58 74.3499C386.913 74.7321 387.211 75.1438 387.47 75.5799C387.92 76.2699 388.33 76.9899 388.78 77.6799C389.01 78.0399 389.26 78.0099 389.46 77.6799C389.92 76.8599 390.41 76.0599 390.83 75.2199C390.968 74.8624 391.211 74.5548 391.527 74.3372C391.843 74.1197 392.217 74.0021 392.6 73.9999C394.85 73.9999 397.09 73.9999 399.33 73.9399C399.79 73.9399 400 74.1299 400 74.5699C400 74.7599 400 74.9499 400 75.1399C400 75.5799 399.78 75.7099 399.35 75.6999C398.17 75.6999 396.99 75.6999 395.81 75.6999C395.15 75.6999 395 75.8899 394.97 76.5699C394.9 77.9799 394.97 78.0799 396.43 78.0599H399.19C399.89 78.0599 400.01 78.1799 400.07 79.0599C400.07 79.6799 399.96 79.8999 399.31 79.9199C398.21 79.9199 397.1 79.9199 395.99 79.9199C395.22 79.9199 394.99 79.9999 394.99 80.7599C394.98 80.9464 394.98 81.1334 394.99 81.3199C394.99 81.9599 395.23 82.1499 395.87 82.1499C396.87 82.1499 397.87 82.1499 398.87 82.1499C399.344 82.1973 399.815 82.2741 400.28 82.3799V82.5299C400.28 82.5299 400.36 82.4799 400.36 82.4599C400.36 80.7299 400.36 78.9999 400.36 77.2699C400.36 76.4399 400.36 75.6199 400.36 74.7899C400.347 74.686 400.357 74.5805 400.392 74.4815C400.426 74.3825 400.482 74.2927 400.557 74.2192C400.631 74.1456 400.722 74.0903 400.821 74.0574C400.921 74.0246 401.026 74.0152 401.13 74.0299C403.38 74.0299 405.62 73.9499 407.86 74.0299C408.362 74.0426 408.854 74.1711 409.298 74.4052C409.742 74.6394 410.126 74.9729 410.42 75.3799C411.233 76.384 411.675 77.6379 411.67 78.9299C411.67 80.9299 410.74 82.9299 408.61 83.5599C407.744 83.7886 406.855 83.9228 405.96 83.9599C404.5 84.0199 403.04 83.9599 401.58 83.9599C401.204 83.9135 400.832 83.8331 400.47 83.7199C400.35 83.7199 400.19 83.6499 400.1 83.7199C399.365 84.0173 398.564 84.1139 397.78 83.9999C396.62 83.9999 395.46 84.0599 394.29 83.9999C393.62 83.9926 392.951 83.9324 392.29 83.8199C391.79 83.7399 391.73 83.2899 391.72 82.8899C391.72 81.7199 391.72 80.5499 391.72 79.3899C391.72 79.1499 391.72 78.9099 391.66 78.6699L391.4 78.4699C391.34 78.6407 391.27 78.8077 391.19 78.9699C390.397 80.3232 389.62 81.6899 388.86 83.0699C388.47 83.7599 388.18 83.7699 387.8 83.0699L385.53 79.0699C385.416 78.9159 385.292 78.7689 385.16 78.6299V78.6299ZM404 78.9999C404 79.5199 404 79.9999 404.07 80.5799C404.18 82.1899 404.19 82.1899 405.81 82.0899C406.332 82.1033 406.84 81.9209 407.234 81.5785C407.628 81.2361 407.88 80.7586 407.94 80.2399C408.067 79.3678 408.033 78.4797 407.84 77.6199C407.65 76.8399 407.35 75.9199 406.35 75.7399C405.864 75.6954 405.376 75.6954 404.89 75.7399C404.17 75.7399 404.05 75.8599 404.02 76.5899C403.99 77.3199 404 78.1599 404 78.9999Z" fill="white"/>
<path d="M367.4 79.9299C367.4 79.1999 367.4 78.4699 367.4 77.7399C367.4 76.7399 367.4 75.8099 367.34 74.8499C367.34 74.3799 367.48 74.1099 368.01 74.1099C370.35 74.1099 372.68 74.0099 375.01 74.1099C375.481 74.0797 375.952 74.1536 376.391 74.3264C376.83 74.4993 377.226 74.7668 377.55 75.1099C377.806 75.4249 377.988 75.7932 378.083 76.1878C378.178 76.5823 378.183 76.9932 378.099 77.3901C378.015 77.7871 377.842 78.1602 377.595 78.482C377.348 78.8038 377.032 79.0661 376.67 79.2499C376.537 79.3203 376.41 79.4005 376.29 79.4899C376.198 79.5392 376.119 79.6091 376.059 79.6942C376 79.7792 375.96 79.877 375.945 79.9799C375.929 80.0827 375.938 80.1878 375.97 80.2867C376.002 80.3857 376.057 80.4758 376.13 80.5499C376.69 81.3699 377.26 82.1899 377.82 83.0199C378.11 83.4599 378.05 83.6799 377.54 83.8599C377.255 83.9494 376.959 83.9999 376.66 84.0099C375.967 84.045 375.273 84.045 374.58 84.0099C374.436 83.9985 374.297 83.958 374.17 83.891C374.043 83.8239 373.93 83.7317 373.84 83.6199C373.03 82.3099 372.25 80.9699 371.5 79.6199C371.21 79.0999 371.32 78.9499 371.91 78.9399C372.25 78.9399 372.59 78.9399 372.91 78.9399C373.085 78.9273 373.256 78.8799 373.413 78.8003C373.57 78.7207 373.709 78.6107 373.823 78.4765C373.936 78.3424 374.022 78.1869 374.075 78.0192C374.128 77.8515 374.146 77.6749 374.13 77.4999C374.13 76.3499 373.79 75.9199 372.89 75.8099C372.591 75.773 372.291 75.7563 371.99 75.7599C371.11 75.7599 370.89 75.9499 370.9 76.8499C370.91 77.7499 370.9 78.8499 370.95 79.8499C371 80.8499 370.95 82.0299 370.95 83.1299C370.95 83.6499 370.73 83.9899 370.21 83.9999C368.64 83.9999 367.06 83.9999 365.49 83.9999C365.401 83.9819 365.318 83.946 365.244 83.8944C365.17 83.8428 365.107 83.7766 365.06 83.6999C364.925 83.4944 364.818 83.2726 364.74 83.0399C364.35 82.1199 364.05 81.9499 363.06 82.0399C362.07 82.1299 361.15 82.0399 360.2 82.1199C359.951 82.1186 359.711 82.2102 359.526 82.3766C359.341 82.543 359.225 82.7724 359.2 83.0199C359.04 83.7999 358.79 84.0199 357.97 84.0799C357.64 84.0799 357.3 84.1799 356.97 84.1999C356.42 84.1999 356.19 83.9099 356.41 83.4099C357.63 80.6499 358.84 77.8999 360.12 75.1699C360.35 74.7516 360.702 74.4129 361.128 74.1987C361.555 73.9844 362.037 73.9047 362.51 73.9699C362.925 73.934 363.34 74.0284 363.699 74.2399C364.057 74.4514 364.341 74.7695 364.51 75.1499C365.31 76.7199 366.16 78.2699 366.99 79.8199C367.07 79.9253 367.164 80.0195 367.27 80.0999L367.4 79.9299ZM361.85 77.2199C361.7 77.2899 361.63 77.2999 361.61 77.3399C361.24 78.1099 360.85 78.8799 360.52 79.6599C360.4 79.9699 360.6 80.1699 360.93 80.1699C361.509 80.2 362.09 80.2 362.67 80.1699C362.8 80.1699 363.02 79.8699 362.99 79.7899C362.64 78.9099 362.24 78.0699 361.85 77.2199V77.2199Z" fill="white"/>
<path d="M380.53 70.8899H387.2C387.65 70.8899 388.09 70.8899 388.14 71.4899C388.2 72.3299 388.04 72.5999 387.35 72.7199C387.129 72.763 386.905 72.7864 386.68 72.7899C385.57 72.7899 384.46 72.7899 383.36 72.6999C382.99 72.6999 382.82 72.8399 382.81 73.1799C382.81 74.4499 382.76 75.7299 382.75 77.0099C382.74 78.2899 382.75 79.7499 382.75 81.1199V82.9899C382.75 83.6799 382.55 83.9299 381.87 83.9899C381.35 83.9899 380.87 83.9899 380.3 83.9899C380.037 83.975 379.773 83.975 379.51 83.9899C378.86 84.0799 378.67 83.9899 378.65 83.2999C378.65 81.6699 378.58 80.0299 378.56 78.3899C378.54 76.7499 378.56 75.1899 378.56 73.5899C378.56 73.0099 378.34 72.7999 377.77 72.8199L374.29 72.9299C373.41 72.9299 372.98 72.7199 372.94 72.0999C372.87 71.1699 373.02 71.0099 373.94 71.0099C376.12 71.0099 378.31 71.0099 380.49 71.0099L380.53 70.8899Z" fill="white"/>
<path d="M408.21 88.1699C408.47 87.6899 408.43 87.3699 407.91 86.8799C407.785 87.0869 407.672 87.3005 407.57 87.5199C407.36 88.0399 407.2 88.5899 406.97 89.0999C406.9 89.2699 406.66 89.3599 406.5 89.4899C406.467 89.3114 406.467 89.1284 406.5 88.9499C406.81 88.1199 407.12 87.2899 407.5 86.4899C407.6 86.2599 407.86 86.0999 408.04 85.8999C408.23 86.0899 408.48 86.2499 408.58 86.4799C408.93 87.2899 409.25 88.1099 409.58 88.9299C409.61 89.0986 409.61 89.2712 409.58 89.4399C409.4 89.3874 409.231 89.3027 409.08 89.1899C408.72 88.8899 408.49 88.5399 408.21 88.1699Z" fill="white"/>
<path d="M391.27 53.4401C391.236 53.6621 391.236 53.888 391.27 54.1101C391.382 54.3345 391.523 54.543 391.69 54.7301C391.505 54.7774 391.309 54.7662 391.13 54.6982C390.951 54.6302 390.797 54.5086 390.69 54.3501C390.123 53.7053 389.618 53.009 389.18 52.2701C388.936 51.6915 388.817 51.0679 388.83 50.4401C388.83 50.2401 389.17 50.0201 389.36 49.8101L389.55 49.9401C389.507 50.0675 389.474 50.1978 389.45 50.3301C389.45 50.4701 389.33 50.7001 389.39 50.7501C389.81 51.1101 389.69 51.4801 389.52 51.9001C389.35 52.3201 389.58 52.4001 389.92 52.4101C390.26 52.4201 390.37 52.5001 390.33 52.8501C390.24 53.5001 390.33 53.5701 390.98 53.4601L391.27 53.4401Z" fill="white"/>
<path d="M390.33 85.9999C389.57 86.3099 388.57 86.2599 388.53 87.4699C388.503 87.6895 388.519 87.9124 388.578 88.1257C388.637 88.339 388.737 88.5385 388.874 88.7125C389.011 88.8865 389.181 89.0316 389.374 89.1393C389.568 89.247 389.78 89.3152 390 89.3399V89.5199C389.77 89.5199 389.42 89.5999 389.35 89.5199C389.03 89.0599 388.19 89.1099 388.2 88.3499C388.13 87.9128 388.13 87.4671 388.2 87.0299C388.352 86.6152 388.659 86.2759 389.057 86.0836C389.454 85.8914 389.911 85.8614 390.33 85.9999V85.9999Z" fill="white"/>
<path d="M399 86.14C399.31 86.01 399.71 85.73 400.12 86.2C400.31 86.3852 400.424 86.6358 400.437 86.9012C400.45 87.1666 400.361 87.427 400.19 87.63C400.035 87.8089 399.942 88.0335 399.926 88.2699C399.909 88.5063 399.971 88.7415 400.1 88.94C400.1 89.03 400.1 89.2 400.04 89.33C399.91 89.33 399.72 89.33 399.66 89.19C399.454 88.9009 399.289 88.5845 399.17 88.25C399.156 88.1645 399.164 88.077 399.192 87.9951C399.219 87.9132 399.267 87.8393 399.33 87.78C399.76 87.56 400.03 87.23 399.82 86.78C399.61 86.33 399.29 86.35 399 86.14Z" fill="white"/>
<path d="M357.15 87.7701C357.05 88.2401 356.99 88.6001 356.89 88.9501C356.828 89.1327 356.751 89.31 356.66 89.4801C356.54 89.3101 356.35 89.1501 356.33 88.9801C356.33 88.1901 356.25 87.4001 356.27 86.6101C356.27 86.4401 356.52 86.1201 356.63 86.1301C356.96 86.1301 357 86.4101 356.92 86.7201C356.84 87.0301 356.76 87.5901 357.15 87.7701Z" fill="white"/>
<path d="M365.61 86.1399C365.346 86.613 365.187 87.1375 365.144 87.6776C365.101 88.2177 365.175 88.7608 365.36 89.2699C365.36 89.3999 365.25 89.5599 365.2 89.7099C365.042 89.6634 364.891 89.5962 364.75 89.5099C364.69 89.4599 364.75 89.2999 364.75 89.1899C364.75 88.3199 364.75 87.4599 364.75 86.5999C364.67 85.9999 365 85.7899 365.61 86.1399Z" fill="white"/>
<path d="M381.77 86.1799L381.56 89.3899H381.32C381.244 89.1608 381.184 88.9269 381.14 88.6899C381.05 87.8699 380.97 87.0599 380.93 86.2399C380.93 86.1299 381.16 85.9299 381.3 85.9199C381.523 85.9411 381.742 85.995 381.95 86.0799L381.77 86.1799Z" fill="white"/>
<path d="M374.14 86C374.509 87.0886 374.54 88.2633 374.23 89.37C373.764 88.3008 373.732 87.0926 374.14 86V86Z" fill="white"/>
<path d="M398.21 89.28C398.104 89.1173 398.026 88.9382 397.98 88.75C397.98 88 397.92 87.24 397.98 86.49C397.98 86.31 398.21 86.13 398.34 85.96C398.437 86.1377 398.505 86.3303 398.54 86.53C398.54 87.3 398.54 88.07 398.54 88.84C398.54 88.96 398.54 89.08 398.54 89.21L398.21 89.28Z" fill="white"/>
<path d="M366.53 86.3799C367.13 86.2299 367.53 86.6099 367.76 87.3799C367.828 87.572 367.856 87.776 367.842 87.9792C367.828 88.1824 367.772 88.3806 367.678 88.5615C367.585 88.7424 367.455 88.9021 367.297 89.0308C367.139 89.1596 366.956 89.2545 366.76 89.3099C367.4 88.2399 367.52 87.2699 366.53 86.3799Z" fill="white"/>
<path d="M391 89C391.09 88.8 391.19 88.61 391.26 88.41C391.365 88.1213 391.397 87.8108 391.351 87.5069C391.306 87.203 391.185 86.9152 391 86.67C390.93 86.57 391 86.38 391 86.24C391.15 86.24 391.34 86.24 391.44 86.38C391.631 86.5604 391.774 86.785 391.857 87.0339C391.941 87.2828 391.962 87.5484 391.918 87.8073C391.875 88.0662 391.768 88.3104 391.608 88.5184C391.448 88.7264 391.239 88.8918 391 89Z" fill="white"/>
<path d="M382.28 44.51C381.8 45.31 380.89 45.27 380.15 45.57L380.06 45.4L382.15 44.28L382.28 44.51Z" fill="white"/>
<path d="M377.13 47C377.08 47.1771 376.993 47.3417 376.876 47.4833C376.758 47.6249 376.612 47.7404 376.447 47.8223C376.283 47.9043 376.103 47.9508 375.919 47.959C375.735 47.9672 375.551 47.9369 375.38 47.87L377.13 47Z" fill="white"/>
<path d="M382.93 43.8701L384.72 42.8701C384.62 43.5101 384.08 43.8701 383.03 44.0101L382.93 43.8701Z" fill="white"/>
<path d="M379.58 45.75C379.29 46.47 378.94 46.68 378.27 46.54C378.49 46 379.05 46 379.58 45.75Z" fill="white"/>
<path d="M397.61 61.1099L396.69 61.4599L396.61 61.2599L397.52 60.8999L397.61 61.1099Z" fill="white"/>
<path d="M357.21 89.5599L358.1 89.4399C357.82 89.8999 357.7 89.9099 357.21 89.5599Z" fill="white"/>
<path d="M390.2 33.5101H381.2H376.51C375.82 33.5101 375.68 33.3501 375.74 32.6701C375.854 31.7589 376.261 30.9094 376.9 30.2501C377.672 29.4366 378.645 28.84 379.72 28.5201C380.672 28.2563 381.653 28.1086 382.64 28.0801C383.161 28.0653 383.682 28.0853 384.2 28.1401C384.406 28.1651 384.614 28.1651 384.82 28.1401C385.342 27.9898 385.899 28.0215 386.4 28.2301C386.904 28.398 387.423 28.5186 387.95 28.5901C389.66 29.0201 391.66 30.5901 391.95 32.5301C392.05 33.2101 391.95 33.3401 391.3 33.3801C390.94 33.3801 390.58 33.3801 390.23 33.3801L390.2 33.5101Z" fill="black"/>
<path d="M385.72 36.6499C385.684 36.3419 385.712 36.0297 385.802 35.7329C385.892 35.4361 386.042 35.1609 386.242 34.9246C386.443 34.6882 386.69 34.4956 386.969 34.3589C387.247 34.2222 387.551 34.1443 387.86 34.1299C388.505 34.1786 389.105 34.4782 389.531 34.9643C389.958 35.4504 390.176 36.0843 390.14 36.7299C390.095 37.3111 389.84 37.856 389.422 38.2627C389.004 38.6693 388.453 38.9101 387.87 38.9399C387.573 38.9498 387.277 38.8962 387.003 38.7827C386.728 38.6692 386.48 38.4983 386.277 38.2816C386.073 38.0648 385.919 37.8072 385.823 37.5258C385.727 37.2444 385.692 36.9458 385.72 36.6499V36.6499Z" fill="black"/>
<path d="M379.87 39.05C379.55 39.0921 379.225 39.0561 378.922 38.9451C378.619 38.8341 378.347 38.6514 378.13 38.4127C377.913 38.174 377.757 37.8862 377.675 37.574C377.593 37.2619 377.588 36.9345 377.66 36.62C377.64 36.3094 377.688 35.9982 377.799 35.7076C377.91 35.4169 378.083 35.1536 378.305 34.9354C378.526 34.7172 378.793 34.5494 379.085 34.4432C379.378 34.337 379.69 34.295 380 34.32C380.61 34.4324 381.155 34.771 381.525 35.2679C381.896 35.7648 382.066 36.3835 382 37C381.965 37.546 381.727 38.0592 381.333 38.4386C380.939 38.818 380.417 39.0361 379.87 39.05V39.05Z" fill="black"/>
<path d="M404 79C404 78.21 404 77.41 404 76.62C404 75.83 404.15 75.7899 404.87 75.7699C405.355 75.7254 405.844 75.7254 406.33 75.7699C407.33 75.9499 407.63 76.87 407.82 77.65C408.013 78.5098 408.047 79.3979 407.92 80.2699C407.832 80.7757 407.562 81.2315 407.16 81.5506C406.757 81.8696 406.252 82.0296 405.74 82C404.12 82.1 404.11 82.0999 404 80.4899C404 79.9599 404 79.43 403.93 78.91L404 79Z" fill="black"/>
<path d="M361.85 77.22C362.24 78.07 362.64 78.91 362.99 79.76C362.99 79.84 362.8 80.13 362.67 80.14C362.091 80.17 361.51 80.17 360.93 80.14C360.6 80.14 360.4 79.94 360.52 79.63C360.85 78.85 361.24 78.08 361.61 77.31C361.63 77.3 361.7 77.29 361.85 77.22Z" fill="black"/>
<path d="M682.384 78.0034C681.396 77.9717 680.414 78.1598 679.508 78.5539C679.067 78.7329 678.66 78.9876 678.306 79.3066C678.306 79.3066 678.306 79.3066 678.306 79.374V81.4636C678.306 81.5759 678.306 81.7669 678.385 81.6433L678.587 81.4074C678.893 81.1076 679.224 80.8333 679.575 80.5873L679.811 80.4525L679.98 80.3402C680.737 79.9692 681.576 79.7953 682.418 79.8346C684.283 79.8346 684.754 80.5873 684.754 81.5535C684.114 83.0027 680.542 82.6095 678.823 84.1374C678.786 84.1682 678.752 84.202 678.722 84.2385V84.2385L678.643 84.3396C678.577 84.4094 678.517 84.4846 678.463 84.5643V84.5643C678.443 84.5997 678.421 84.6335 678.396 84.6654C678.118 85.1455 677.981 85.6948 678.003 86.2494C677.979 86.8185 678.115 87.3829 678.396 87.8784V87.8784C678.396 87.8784 678.396 87.957 678.396 87.9907C678.427 88.0242 678.454 88.0621 678.475 88.1031V88.1031C678.479 88.1175 678.486 88.1309 678.496 88.1425C678.505 88.1541 678.517 88.1636 678.531 88.1705V88.1705C678.996 88.6677 679.569 89.0526 680.206 89.2958C680.842 89.5391 681.526 89.6345 682.204 89.5748C683.125 89.6012 684.046 89.5448 684.957 89.4063C685.697 89.2524 686.412 88.9952 687.08 88.6423V81.6658C687.024 79.3516 685.395 78.0034 682.384 78.0034ZM684.777 83.6206V87.6986C684.021 87.8885 683.243 87.9792 682.463 87.9683C680.879 87.9683 680.216 87.3054 680.216 86.328C680.216 84.216 683.732 84.7328 684.653 83.7891C684.693 83.7572 684.727 83.7193 684.754 83.6768V83.6768L684.777 83.6206Z" fill="white"/>
<path d="M8.1 222H5.5V227.5H0V230.2H5.5V235.7H8.1V230.2H13.6V227.5H8.1V222Z" fill="#144E52"/>
<path d="M64.5008 222H61.8008V227.5H56.3008V230.2H61.8008V235.7H64.5008V230.2H70.0008V227.5H64.5008V222Z" fill="#144E52"/>
<path d="M8.1 276.6H5.5V282.1H0V284.7H5.5V290.2H8.1V284.7H13.6V282.1H8.1V276.6Z" fill="#144E52"/>
<path d="M64.5008 276.6H61.8008V282.1H56.3008V284.7H61.8008V290.2H64.5008V284.7H70.0008V282.1H64.5008V276.6Z" fill="#144E52"/>
<path d="M120.8 222H118.2V227.5H112.7V230.2H118.2V235.7H120.8V230.2H126.3V227.5H120.8V222Z" fill="#144E52"/>
<path d="M120.8 276.6H118.2V282.1H112.7V284.7H118.2V290.2H120.8V284.7H126.3V282.1H120.8V276.6Z" fill="#144E52"/>
<path d="M177.2 222H174.5V227.5H169V230.2H174.5V235.7H177.2V230.2H182.7V227.5H177.2V222Z" fill="#144E52"/>
<path d="M177.2 276.6H174.5V282.1H169V284.7H174.5V290.2H177.2V284.7H182.7V282.1H177.2V276.6Z" fill="#144E52"/>
<path d="M233.5 222H230.9V227.5H225.4V230.2H230.9V235.7H233.5V230.2H239V227.5H233.5V222Z" fill="#144E52"/>
<path d="M233.5 276.6H230.9V282.1H225.4V284.7H230.9V290.2H233.5V284.7H239V282.1H233.5V276.6Z" fill="#144E52"/>
<path d="M8.1 331.2H5.5V336.7H0V339.3H5.5V344.8H8.1V339.3H13.6V336.7H8.1V331.2Z" fill="#144E52"/>
<path d="M64.5008 331.2H61.8008V336.7H56.3008V339.3H61.8008V344.8H64.5008V339.3H70.0008V336.7H64.5008V331.2Z" fill="#144E52"/>
<path d="M120.8 331.2H118.2V336.7H112.7V339.3H118.2V344.8H120.8V339.3H126.3V336.7H120.8V331.2Z" fill="#144E52"/>
<path d="M177.2 331.2H174.5V336.7H169V339.3H174.5V344.8H177.2V339.3H182.7V336.7H177.2V331.2Z" fill="#144E52"/>
<path d="M233.5 331.2H230.9V336.7H225.4V339.3H230.9V344.8H233.5V339.3H239V336.7H233.5V331.2Z" fill="#144E52"/>
<path d="M289.9 222H287.2V227.5H281.7V230.2H287.2V235.7H289.9V230.2H295.4V227.5H289.9V222Z" fill="#144E52"/>
<path d="M289.9 276.6H287.2V282.1H281.7V284.7H287.2V290.2H289.9V284.7H295.4V282.1H289.9V276.6Z" fill="#144E52"/>
<path d="M346.201 222H343.601V227.5H338.101V230.2H343.601V235.7H346.201V230.2H351.701V227.5H346.201V222Z" fill="#144E52"/>
<path d="M346.201 276.6H343.601V282.1H338.101V284.7H343.601V290.2H346.201V284.7H351.701V282.1H346.201V276.6Z" fill="#144E52"/>
<path d="M402.6 222H399.9V227.5H394.4V230.2H399.9V235.7H402.6V230.2H408.1V227.5H402.6V222Z" fill="#144E52"/>
<path d="M402.6 276.6H399.9V282.1H394.4V284.7H399.9V290.2H402.6V284.7H408.1V282.1H402.6V276.6Z" fill="#144E52"/>
<path d="M458.901 227.5V222H456.301V227.5H450.801V230.2H456.301V235.7H458.901V230.2H464.401V227.5H458.901Z" fill="#144E52"/>
<path d="M458.901 276.6H456.301V282.1H450.801V284.7H456.301V290.2H458.901V284.7H464.401V282.1H458.901V276.6Z" fill="#144E52"/>
<path d="M289.9 331.2H287.2V336.7H281.7V339.3H287.2V344.8H289.9V339.3H295.4V336.7H289.9V331.2Z" fill="#144E52"/>
<path d="M346.201 331.2H343.601V336.7H338.101V339.3H343.601V344.8H346.201V339.3H351.701V336.7H346.201V331.2Z" fill="#144E52"/>
<path d="M402.6 331.2H399.9V336.7H394.4V339.3H399.9V344.8H402.6V339.3H408.1V336.7H402.6V331.2Z" fill="#144E52"/>
<path d="M458.901 331.2H456.301V336.7H450.801V339.3H456.301V344.8H458.901V339.3H464.401V336.7H458.901V331.2Z" fill="#144E52"/>
<path d="M458.901 222H456.301V227.5H450.801V230.2H456.301V235.7H458.901V230.2H464.401V227.5H458.901V222Z" fill="#144E52"/>
<path d="M515.301 222H512.601V227.5H507.101V230.2H512.601V235.7H515.301V230.2H520.801V227.5H515.301V222Z" fill="#144E52"/>
<path d="M458.901 276.6H456.301V282.1H450.801V284.7H456.301V290.2H458.901V284.7H464.401V282.1H458.901V276.6Z" fill="#144E52"/>
<path d="M515.301 276.6H512.601V282.1H507.101V284.7H512.601V290.2H515.301V284.7H520.801V282.1H515.301V276.6Z" fill="#144E52"/>
<path d="M571.6 222H569V227.5H563.5V230.2H569V235.7H571.6V230.2H577.1V227.5H571.6V222Z" fill="#144E52"/>
<path d="M571.6 276.6H569V282.1H563.5V284.7H569V290.2H571.6V284.7H577.1V282.1H571.6V276.6Z" fill="#144E52"/>
<path d="M628.001 222H625.301V227.5H619.801V230.2H625.301V235.7H628.001V230.2H633.501V227.5H628.001V222Z" fill="#144E52"/>
<path d="M628.001 276.6H625.301V282.1H619.801V284.7H625.301V290.2H628.001V284.7H633.501V282.1H628.001V276.6Z" fill="#144E52"/>
<path d="M684.3 222H681.7V227.5H676.2V230.2H681.7V235.7H684.3V230.2H689.8V227.5H684.3V222Z" fill="#144E52"/>
<path d="M684.3 276.6H681.7V282.1H676.2V284.7H681.7V290.2H684.3V284.7H689.8V282.1H684.3V276.6Z" fill="#144E52"/>
<path d="M458.901 331.2H456.301V336.7H450.801V339.3H456.301V344.8H458.901V339.3H464.401V336.7H458.901V331.2Z" fill="#144E52"/>
<path d="M515.301 331.2H512.601V336.7H507.101V339.3H512.601V344.8H515.301V339.3H520.801V336.7H515.301V331.2Z" fill="#144E52"/>
<path d="M571.6 331.2H569V336.7H563.5V339.3H569V344.8H571.6V339.3H577.1V336.7H571.6V331.2Z" fill="#144E52"/>
<path d="M628.001 331.2H625.301V336.7H619.801V339.3H625.301V344.8H628.001V339.3H633.501V336.7H628.001V331.2Z" fill="#144E52"/>
<path d="M684.3 331.2H681.7V336.7H676.2V339.3H681.7V344.8H684.3V339.3H689.8V336.7H684.3V331.2Z" fill="#144E52"/>
<path d="M740.7 222H738V227.5H732.5V230.2H738V235.7H740.7V230.2H746.2V227.5H740.7V222Z" fill="#144E52"/>
<path d="M740.7 276.6H738V282.1H732.5V284.7H738V290.2H740.7V284.7H746.2V282.1H740.7V276.6Z" fill="#144E52"/>
<path d="M797 222H794.4V227.5H788.9V230.2H794.4V235.7H797V230.2H802.5V227.5H797V222Z" fill="#144E52"/>
<path d="M797 276.6H794.4V282.1H788.9V284.7H794.4V290.2H797V284.7H802.5V282.1H797V276.6Z" fill="#144E52"/>
<path d="M853.4 222H850.7V227.5H845.2V230.2H850.7V235.7H853.4V230.2H858.9V227.5H853.4V222Z" fill="#144E52"/>
<path d="M853.4 276.6H850.7V282.1H845.2V284.7H850.7V290.2H853.4V284.7H858.9V282.1H853.4V276.6Z" fill="#144E52"/>
<path d="M909.701 227.5V222H907.101V227.5H901.601V230.2H907.101V235.7H909.701V230.2H915.201V227.5H909.701Z" fill="#144E52"/>
<path d="M909.701 276.6H907.101V282.1H901.601V284.7H907.101V290.2H909.701V284.7H915.201V282.1H909.701V276.6Z" fill="#144E52"/>
<path d="M740.7 331.2H738V336.7H732.5V339.3H738V344.8H740.7V339.3H746.2V336.7H740.7V331.2Z" fill="#144E52"/>
<path d="M797 331.2H794.4V336.7H788.9V339.3H794.4V344.8H797V339.3H802.5V336.7H797V331.2Z" fill="#144E52"/>
<path d="M853.4 331.2H850.7V336.7H845.2V339.3H850.7V344.8H853.4V339.3H858.9V336.7H853.4V331.2Z" fill="#144E52"/>
<path d="M909.701 331.2H907.101V336.7H901.601V339.3H907.101V344.8H909.701V339.3H915.201V336.7H909.701V331.2Z" fill="#144E52"/>
<path d="M909.701 222H907.101V227.5H901.601V230.2H907.101V235.7H909.701V230.2H915.201V227.5H909.701V222Z" fill="#144E52"/>
<path d="M966.1 222H963.4V227.5H957.9V230.2H963.4V235.7H966.1V230.2H971.6V227.5H966.1V222Z" fill="#144E52"/>
<path d="M909.701 276.6H907.101V282.1H901.601V284.7H907.101V290.2H909.701V284.7H915.201V282.1H909.701V276.6Z" fill="#144E52"/>
<path d="M966.1 276.6H963.4V282.1H957.9V284.7H963.4V290.2H966.1V284.7H971.6V282.1H966.1V276.6Z" fill="#144E52"/>
<path d="M1022.4 222H1019.8V227.5H1014.3V230.2H1019.8V235.7H1022.4V230.2H1027.9V227.5H1022.4V222Z" fill="#144E52"/>
<path d="M1022.4 276.6H1019.8V282.1H1014.3V284.7H1019.8V290.2H1022.4V284.7H1027.9V282.1H1022.4V276.6Z" fill="#144E52"/>
<path d="M1078.8 222H1076.1V227.5H1070.6V230.2H1076.1V235.7H1078.8V230.2H1084.3V227.5H1078.8V222Z" fill="#144E52"/>
<path d="M1078.8 276.6H1076.1V282.1H1070.6V284.7H1076.1V290.2H1078.8V284.7H1084.3V282.1H1078.8V276.6Z" fill="#144E52"/>
<path d="M1135.1 222H1132.5V227.5H1127V230.2H1132.5V235.7H1135.1V230.2H1140.6V227.5H1135.1V222Z" fill="#144E52"/>
<path d="M1135.1 276.6H1132.5V282.1H1127V284.7H1132.5V290.2H1135.1V284.7H1140.6V282.1H1135.1V276.6Z" fill="#144E52"/>
<path d="M909.701 331.2H907.101V336.7H901.601V339.3H907.101V344.8H909.701V339.3H915.201V336.7H909.701V331.2Z" fill="#144E52"/>
<path d="M966.1 331.2H963.4V336.7H957.9V339.3H963.4V344.8H966.1V339.3H971.6V336.7H966.1V331.2Z" fill="#144E52"/>
<path d="M1022.4 331.2H1019.8V336.7H1014.3V339.3H1019.8V344.8H1022.4V339.3H1027.9V336.7H1022.4V331.2Z" fill="#144E52"/>
<path d="M1078.8 331.2H1076.1V336.7H1070.6V339.3H1076.1V344.8H1078.8V339.3H1084.3V336.7H1078.8V331.2Z" fill="#144E52"/>
<path d="M1135.1 331.2H1132.5V336.7H1127V339.3H1132.5V344.8H1135.1V339.3H1140.6V336.7H1135.1V331.2Z" fill="#144E52"/>
<path d="M1191.5 222H1188.8V227.5H1183.3V230.2H1188.8V235.7H1191.5V230.2H1197V227.5H1191.5V222Z" fill="#144E52"/>
<path d="M1191.5 276.6H1188.8V282.1H1183.3V284.7H1188.8V290.2H1191.5V284.7H1197V282.1H1191.5V276.6Z" fill="#144E52"/>
<path d="M1247.8 222H1245.2V227.5H1239.7V230.2H1245.2V235.7H1247.8V230.2H1253.3V227.5H1247.8V222Z" fill="#144E52"/>
<path d="M1247.8 276.6H1245.2V282.1H1239.7V284.7H1245.2V290.2H1247.8V284.7H1253.3V282.1H1247.8V276.6Z" fill="#144E52"/>
<path d="M1304.2 222H1301.5V227.5H1296V230.2H1301.5V235.7H1304.2V230.2H1309.7V227.5H1304.2V222Z" fill="#144E52"/>
<path d="M1304.2 276.6H1301.5V282.1H1296V284.7H1301.5V290.2H1304.2V284.7H1309.7V282.1H1304.2V276.6Z" fill="#144E52"/>
<path d="M1360.5 227.5V222H1357.9V227.5H1352.4V230.2H1357.9V235.7H1360.5V230.2H1366V227.5H1360.5Z" fill="#144E52"/>
<path d="M1360.5 276.6H1357.9V282.1H1352.4V284.7H1357.9V290.2H1360.5V284.7H1366V282.1H1360.5V276.6Z" fill="#144E52"/>
<path d="M1191.5 331.2H1188.8V336.7H1183.3V339.3H1188.8V344.8H1191.5V339.3H1197V336.7H1191.5V331.2Z" fill="#144E52"/>
<path d="M1247.8 331.2H1245.2V336.7H1239.7V339.3H1245.2V344.8H1247.8V339.3H1253.3V336.7H1247.8V331.2Z" fill="#144E52"/>
<path d="M1304.2 331.2H1301.5V336.7H1296V339.3H1301.5V344.8H1304.2V339.3H1309.7V336.7H1304.2V331.2Z" fill="#144E52"/>
<path d="M1360.5 331.2H1357.9V336.7H1352.4V339.3H1357.9V344.8H1360.5V339.3H1366V336.7H1360.5V331.2Z" fill="#144E52"/>
<path d="M1360.5 222H1357.9V227.5H1352.4V230.2H1357.9V235.7H1360.5V230.2H1366V227.5H1360.5V222Z" fill="#144E52"/>
<path d="M1416.9 222H1414.2V227.5H1408.7V230.2H1414.2V235.7H1416.9V230.2H1422.4V227.5H1416.9V222Z" fill="#144E52"/>
<path d="M1360.5 276.6H1357.9V282.1H1352.4V284.7H1357.9V290.2H1360.5V284.7H1366V282.1H1360.5V276.6Z" fill="#144E52"/>
<path d="M1416.9 276.6H1414.2V282.1H1408.7V284.7H1414.2V290.2H1416.9V284.7H1422.4V282.1H1416.9V276.6Z" fill="#144E52"/>
<path d="M1473.2 222H1470.6V227.5H1465.1V230.2H1470.6V235.7H1473.2V230.2H1478.7V227.5H1473.2V222Z" fill="#144E52"/>
<path d="M1473.2 276.6H1470.6V282.1H1465.1V284.7H1470.6V290.2H1473.2V284.7H1478.7V282.1H1473.2V276.6Z" fill="#144E52"/>
<path d="M1529.6 222H1526.9V227.5H1521.4V230.2H1526.9V235.7H1529.6V230.2H1535.1V227.5H1529.6V222Z" fill="#144E52"/>
<path d="M1529.6 276.6H1526.9V282.1H1521.4V284.7H1526.9V290.2H1529.6V284.7H1535.1V282.1H1529.6V276.6Z" fill="#144E52"/>
<path d="M1585.9 222H1583.3V227.5H1577.8V230.2H1583.3V235.7H1585.9V230.2H1591.4V227.5H1585.9V222Z" fill="#144E52"/>
<path d="M1585.9 276.6H1583.3V282.1H1577.8V284.7H1583.3V290.2H1585.9V284.7H1591.4V282.1H1585.9V276.6Z" fill="#144E52"/>
<path d="M1360.5 331.2H1357.9V336.7H1352.4V339.3H1357.9V344.8H1360.5V339.3H1366V336.7H1360.5V331.2Z" fill="#144E52"/>
<path d="M1416.9 331.2H1414.2V336.7H1408.7V339.3H1414.2V344.8H1416.9V339.3H1422.4V336.7H1416.9V331.2Z" fill="#144E52"/>
<path d="M1473.2 331.2H1470.6V336.7H1465.1V339.3H1470.6V344.8H1473.2V339.3H1478.7V336.7H1473.2V331.2Z" fill="#144E52"/>
<path d="M1529.6 331.2H1526.9V336.7H1521.4V339.3H1526.9V344.8H1529.6V339.3H1535.1V336.7H1529.6V331.2Z" fill="#144E52"/>
<path d="M1585.9 331.2H1583.3V336.7H1577.8V339.3H1583.3V344.8H1585.9V339.3H1591.4V336.7H1585.9V331.2Z" fill="#144E52"/>
<path d="M1642.3 222H1639.6V227.5H1634.1V230.2H1639.6V235.7H1642.3V230.2H1647.8V227.5H1642.3V222Z" fill="#144E52"/>
<path d="M1699.2 222H1696.5V227.5H1691V230.2H1696.5V235.7H1699.2V230.2H1704.7V227.5H1699.2V222Z" fill="#144E52"/>
<path d="M1642.3 276.6H1639.6V282.1H1634.1V284.7H1639.6V290.2H1642.3V284.7H1647.8V282.1H1642.3V276.6Z" fill="#144E52"/>
<path d="M1699.2 276.6H1696.5V282.1H1691V284.7H1696.5V290.2H1699.2V284.7H1704.7V282.1H1699.2V276.6Z" fill="#144E52"/>
<path d="M1642.3 331.2H1639.6V336.7H1634.1V339.3H1639.6V344.8H1642.3V339.3H1647.8V336.7H1642.3V331.2Z" fill="#144E52"/>
<path d="M1699.2 331.2H1696.5V336.7H1691V339.3H1696.5V344.8H1699.2V339.3H1704.7V336.7H1699.2V331.2Z" fill="#144E52"/>
<rect x="5" y="167" width="1693" height="8" rx="4" fill="#1A1A1A"/>
<circle cx="66" cy="171" r="10" fill="#1A1A1A"/>
<circle cx="384" cy="171" r="10" fill="#1A1A1A"/>
<circle cx="710" cy="171" r="10" fill="#1A1A1A"/>
<circle cx="1160" cy="171" r="10" fill="#1A1A1A"/>
<circle cx="1562" cy="171" r="10" fill="#1A1A1A"/>
</svg>
