<svg width="742" height="270" viewBox="0 0 742 270" fill="none" xmlns="http://www.w3.org/2000/svg">
<path d="M741.207 16.4126H720.457V25.0865H741.207V16.4126Z" fill="#76CCD8"/>
<path d="M724.794 20.7495H716.12V41.499H724.794V20.7495Z" fill="#1EBCC5"/>
<path d="M724.795 25.0704H699.708V16.4126H716.121V0H724.795" fill="#00ACB4"/>
<path d="M474.235 54.0746C472.639 52.1009 470.6 50.5319 468.283 49.4954C465.966 48.4588 463.437 47.9839 460.902 48.1093C458.25 48.086 455.624 48.6324 453.201 49.7116C450.778 50.7908 448.616 52.3777 446.859 54.3648C442.967 58.5127 440.864 64.0268 441.007 69.7134C440.868 75.3994 442.97 80.9121 446.859 85.062C448.616 87.0491 450.778 88.6359 453.201 89.7152C455.624 90.7944 458.25 91.3408 460.902 91.3175C463.44 91.4502 465.972 90.9769 468.291 89.9368C470.609 88.8967 472.647 87.3197 474.235 85.336V90.1728H484.795V49.254H474.235V54.0907V54.0746ZM451.567 69.7134C451.513 68.183 451.771 66.6577 452.325 65.2303C452.88 63.8028 453.719 62.5032 454.791 61.4103C455.841 60.3476 457.099 59.5128 458.486 58.958C459.873 58.4032 461.36 58.1403 462.853 58.1858C464.361 58.1376 465.862 58.3988 467.266 58.9534C468.669 59.5079 469.943 60.3441 471.011 61.4103C472.083 62.5032 472.922 63.8028 473.477 65.2303C474.031 66.6577 474.289 68.183 474.235 69.7134C474.289 71.2437 474.031 72.769 473.477 74.1965C472.922 75.6239 472.083 76.9236 471.011 78.0164C469.943 79.0826 468.669 79.9188 467.266 80.4734C465.862 81.028 464.361 81.2892 462.853 81.2409C461.36 81.2864 459.873 81.0236 458.486 80.4688C457.099 79.914 455.841 79.0791 454.791 78.0164C453.719 76.9236 452.88 75.6239 452.325 74.1965C451.771 72.769 451.513 71.2437 451.567 69.7134V69.7134ZM503.288 49.254H492.728V90.1728H503.288V70.6162C503.288 66.6824 504.556 63.8717 507.093 62.1842C509.634 60.4891 512.71 59.7889 515.734 60.2173V48.3673C513.077 48.3285 510.459 49.0081 508.157 50.3342C505.899 51.6612 504.185 53.7465 503.32 56.2189V49.254H503.288Z" fill="#231F20"/>
<path d="M544.787 49.254H535.549V37.791L524.988 41.0155V49.2863H517.862V59.4273H524.988V76.4203C524.988 82.0524 526.472 85.954 529.438 88.1252C532.405 90.2963 537.521 90.9788 544.787 90.1727V80.6121C543.101 80.7066 541.41 80.7066 539.724 80.6121C538.59 80.61 537.491 80.2172 536.613 79.4997C536.228 79.0838 535.935 78.5922 535.752 78.0563C535.569 77.5205 535.499 76.9522 535.549 76.3881V59.395H544.787V49.254ZM584.319 53.994C583.183 52.0903 581.547 50.5348 579.588 49.4971C577.63 48.4595 575.424 47.9794 573.211 48.1094C568.084 48.1094 564.29 49.9366 561.828 53.591V49.254H551.252V90.1727H561.812V67.166C561.639 64.6964 562.386 62.2501 563.908 60.2979C564.606 59.5123 565.47 58.892 566.438 58.4821C567.406 58.0721 568.453 57.8828 569.502 57.9279C570.447 57.8757 571.392 58.032 572.27 58.3859C573.148 58.7398 573.937 59.2824 574.581 59.9755C575.891 61.5852 576.553 63.6266 576.435 65.6989V90.1727H586.995V67.166C586.824 64.7118 587.533 62.2769 588.995 60.2979C589.688 59.5028 590.554 58.8761 591.526 58.4654C592.498 58.0548 593.551 57.871 594.605 57.9279C595.55 57.8757 596.495 58.032 597.373 58.3859C598.25 58.7398 599.039 59.2824 599.684 59.9755C600.964 61.5981 601.601 63.6359 601.473 65.6989V90.1727H612.033V64.9573C612.263 60.4783 610.756 56.0833 607.826 52.6881C606.389 51.1527 604.635 49.948 602.686 49.1573C600.738 48.3667 598.64 48.0092 596.54 48.1094C594.172 47.9658 591.807 48.4313 589.671 49.4615C587.534 50.4917 585.697 52.0522 584.335 53.994H584.319ZM659.143 74.0503C659.397 72.6183 659.532 71.1677 659.546 69.7134C659.702 64.0102 657.598 58.4764 653.694 54.3165C651.8 52.2839 649.495 50.6788 646.931 49.6084C644.368 48.538 641.606 48.0269 638.829 48.1094C635.952 48.006 633.085 48.5015 630.409 49.5644C627.734 50.6274 625.309 52.2346 623.287 54.2842C621.287 56.3137 619.719 58.727 618.678 61.3787C617.636 64.0304 617.142 66.8656 617.225 69.7134C617.139 72.5734 617.64 75.4206 618.696 78.0797C619.753 80.7388 621.343 83.1534 623.368 85.1748C625.522 87.2512 628.077 88.8667 630.877 89.9228C633.677 90.9789 636.662 91.4534 639.651 91.3174C647.519 91.3174 653.452 88.3993 657.499 82.5629L648.986 77.6456C647.905 79.0223 646.505 80.1148 644.906 80.8283C643.308 81.5419 641.559 81.8551 639.812 81.7407C633.535 81.7407 629.693 79.1772 628.285 74.0503H659.143ZM631.735 59.7659C633.761 58.2581 636.241 57.4899 638.765 57.5893C641.078 57.5613 643.34 58.2793 645.213 59.6369C647.214 61.1581 648.563 63.3825 648.986 65.8601H628.027C628.508 63.4598 629.814 61.3037 631.719 59.7659H631.735Z" fill="#231F20"/>
<path d="M695.967 54.0746C694.395 52.0942 692.371 50.5192 690.065 49.4814C687.76 48.4436 685.239 47.9731 682.714 48.1093C680.049 48.0807 677.41 48.6244 674.973 49.7035C672.537 50.7827 670.36 52.3723 668.591 54.3648C664.698 58.5127 662.596 64.0267 662.738 69.7133C662.599 75.3994 664.701 80.9121 668.591 85.0619C670.36 87.0544 672.537 88.644 674.973 89.7232C677.41 90.8023 680.049 91.346 682.714 91.3174C685.241 91.4544 687.763 90.9826 690.069 89.9417C692.376 88.9009 694.398 87.3213 695.967 85.336V90.1727H706.527V32.8735H695.967V54.0746ZM673.298 69.7133C673.245 68.183 673.503 66.6577 674.057 65.2302C674.611 63.8028 675.45 62.5031 676.523 61.4103C677.59 60.3441 678.865 59.5079 680.268 58.9533C681.671 58.3987 683.173 58.1375 684.681 58.1858C686.174 58.1403 687.661 58.4032 689.048 58.958C690.435 59.5128 691.692 60.3476 692.742 61.4103C693.815 62.5031 694.654 63.8028 695.208 65.2302C695.763 66.6577 696.021 68.183 695.967 69.7133C696.021 71.2437 695.763 72.769 695.208 74.1964C694.654 75.6239 693.815 76.9236 692.742 78.0164C691.692 79.0791 690.435 79.9139 689.048 80.4687C687.661 81.0235 686.174 81.2864 684.681 81.2409C683.173 81.2892 681.671 81.0279 680.268 80.4734C678.865 79.9188 677.59 79.0826 676.523 78.0164C675.45 76.9236 674.611 75.6239 674.057 74.1964C673.503 72.769 673.245 71.2437 673.298 69.7133V69.7133Z" fill="#231F20"/>
<path d="M151.14 117.24H142.49V125.24H152.13V127.64H139.63V105.44H151.63V107.84H142.49V114.84H151.14V117.24Z" fill="#231F20"/>
<path d="M159.15 105.74C161.169 105.428 163.208 105.271 165.25 105.27C169.37 105.27 172.3 106.27 174.25 108.05C176.2 109.83 177.39 112.43 177.39 116.05C177.466 117.63 177.222 119.209 176.672 120.692C176.122 122.175 175.278 123.532 174.19 124.68C172.11 126.76 168.68 127.89 164.36 127.89C162.62 127.896 160.881 127.806 159.15 127.62V105.74ZM162 125.39C162.961 125.524 163.931 125.58 164.9 125.56C171.04 125.56 174.37 122.13 174.37 116.12C174.37 110.88 171.43 107.55 165.37 107.55C164.243 107.533 163.118 107.631 162.01 107.84L162 125.39Z" fill="#231F20"/>
<path d="M187.27 105.44V127.66H184.4V105.44H187.27Z" fill="#231F20"/>
<path d="M199.8 107.88H193V105.44H209.5V107.88H202.7V127.66H199.8V107.88Z" fill="#231F20"/>
<path d="M233.37 116.32C233.37 123.97 228.72 128.03 223.05 128.03C217.18 128.03 213.05 123.48 213.05 116.75C213.05 109.75 217.43 105.08 223.37 105.08C229.31 105.08 233.37 109.72 233.37 116.32ZM216.12 116.69C216.12 121.44 218.69 125.69 223.21 125.69C227.73 125.69 230.34 121.51 230.34 116.46C230.34 112.04 228.03 107.46 223.25 107.46C218.47 107.46 216.12 111.8 216.12 116.69Z" fill="#231F20"/>
<path d="M240.39 105.74C242.208 105.411 244.052 105.254 245.9 105.27C248.96 105.27 250.9 105.83 252.33 107.09C252.903 107.629 253.355 108.284 253.655 109.012C253.955 109.74 254.097 110.523 254.07 111.31C254.092 112.587 253.694 113.835 252.937 114.864C252.18 115.892 251.105 116.642 249.88 117V117.1C251.6 117.69 252.62 119.28 253.15 121.58C253.534 123.661 254.106 125.703 254.86 127.68H251.86C251.199 125.963 250.7 124.189 250.37 122.38C249.72 119.31 248.53 118.16 245.92 118.06H243.22V127.68H240.35L240.39 105.74ZM243.26 115.86H246.19C249.26 115.86 251.19 114.18 251.19 111.64C251.19 108.77 249.11 107.52 246.07 107.48C245.119 107.455 244.169 107.546 243.24 107.75L243.26 115.86Z" fill="#231F20"/>
<path d="M265.18 120.68L262.87 127.68H259.87L267.43 105.46H270.89L278.47 127.68H275.41L273.03 120.68H265.18ZM272.47 118.44L270.3 112C269.8 110.55 269.47 109.23 269.14 108H269.07C268.74 109.32 268.38 110.67 267.95 112L265.78 118.44H272.47Z" fill="#231F20"/>
<path d="M358.94 31.6799V26.4399C359.18 26.4399 367.29 25.4399 367.29 28.3099V85.0199C364.66 85.2499 360.29 86.4199 358.58 86.6699C355.993 87.2139 353.353 87.4655 350.71 87.4199C339.58 87.4199 333.37 82.5699 333.37 74.1399V58.2399C333.37 50.0499 340.29 45.1199 348.32 45.1199C354.32 45.1199 357.59 47.1199 358.92 48.2199C358.92 48.2199 358.92 48.2699 358.92 48.2199C358.92 47.8599 358.86 45.2199 358.86 43.7499C358.86 43.4899 358.86 43.2199 358.86 42.9499L358.94 31.6799ZM358.94 58.6799C358.94 54.4699 354.17 51.5199 349.4 51.5199C345.03 51.5199 341.77 53.9099 341.77 59.5199V72.9999C341.77 78.4099 343.91 80.9999 351.31 80.9999C353.918 81.0692 356.514 80.61 358.94 79.6499V58.6799Z" fill="#231F20"/>
<path d="M291.44 56.5601C290.67 48.6201 283.66 45.0801 276.09 45.0801C267.55 45.0801 263.55 47.8801 262.48 48.7701C259.38 45.9901 254.66 45.0801 250.11 45.0801C246.367 45.0898 242.638 45.5395 239 46.4201C236.759 47.014 234.457 47.3495 232.14 47.4201V85.0001C232.14 87.7701 240.49 86.8601 240.49 86.8601V53.0001C243.229 52.0638 246.105 51.5874 249 51.5901C255.36 51.5901 257.67 54.2201 257.67 58.7501V85.0001C257.67 87.7101 266.01 86.8701 266.01 86.8701V57.2901C266.23 53.8201 270.6 51.5201 275.06 51.5201C279.98 51.5201 283.17 53.7401 283.17 59.0701V85.0001C283.17 87.8301 291.52 86.8501 291.52 86.8501V57.5601C291.52 57.2251 291.494 56.8907 291.44 56.5601Z" fill="#231F20"/>
<path d="M200.13 47.7299C199.368 47.0635 198.499 46.5294 197.56 46.1499L197.17 45.9899C195.422 45.4093 193.592 45.1155 191.75 45.1199C190.095 45.1082 188.444 45.286 186.83 45.6499C185.73 45.8499 185.08 45.9999 183.52 46.3099C181.63 46.6899 179.02 47.0799 175.79 47.4899V85.0799C175.79 87.7299 184.14 86.8899 184.14 86.8899V53.1099L189 52.1899C189.552 52.0751 190.109 51.9917 190.67 51.9399C192.453 51.7845 194.246 52.0982 195.87 52.8499C197.427 53.6636 198.862 54.6938 200.13 55.9099V47.7299Z" fill="#231F20"/>
<path d="M328.58 74.6701C328.58 74.2001 328.31 74.5401 328.08 74.7701C327.687 75.2037 327.27 75.6144 326.83 76.0001C326.171 76.6153 325.473 77.1866 324.74 77.7101C324.74 77.7101 323.8 78.3601 323.74 78.3701L323.57 78.4801C320.716 80.1912 317.437 81.0645 314.11 81.0001C307.43 81.0001 304.73 78.3801 304.73 73.2101V68.8601C307.268 70.0238 310.039 70.5916 312.83 70.5201C324.92 70.5201 329.13 64.7201 329.13 58.1201C329.13 50.5701 323.65 45.5601 312.92 45.5601C302.19 45.5601 296.38 50.5601 296.38 58.9201V74.4301C296.38 82.7701 303.06 87.7801 314.11 87.7801C317.247 87.832 320.366 87.3031 323.31 86.2201C323.875 85.9981 324.429 85.7478 324.97 85.4701C326.349 84.8931 327.577 84.007 328.56 82.8801L328.58 74.6701ZM304.73 60.1201C304.73 54.9401 306.4 51.9201 312.73 51.9201C318.62 51.9201 320.73 54.4701 320.73 58.1201C320.73 61.7701 318.42 63.7701 311.73 63.7701C309.336 63.6853 306.962 63.3092 304.66 62.6501L304.73 60.1201Z" fill="#231F20"/>
<path d="M154 45.2999C150.447 45.1838 146.912 45.8424 143.64 47.2299C142.029 47.889 140.546 48.8267 139.26 49.9999C139.205 50.0728 139.161 50.1537 139.13 50.2399C139.124 50.2831 139.124 50.3268 139.13 50.3699V56.2699C139.13 56.8199 139.13 57.0999 139.13 57.7699C139.13 58.1999 139.13 58.8599 139.43 58.4499L140.16 57.5899C141.245 56.4752 142.437 55.4703 143.72 54.5899L144.54 54.0899C144.76 53.9799 145 53.8199 145.21 53.7199C147.935 52.3672 150.962 51.7403 154 51.8999C160.76 51.8999 162.43 54.5999 162.43 58.0999C160.15 63.3299 147.23 61.9299 141.03 67.4299L140.66 67.7699C140.55 67.8799 140.43 67.9899 140.33 68.1099C140.095 68.3644 139.877 68.6351 139.68 68.9199V68.9799C139.59 69.0899 139.51 69.2199 139.43 69.3399L139.36 69.4499L139.27 69.5999C138.269 71.34 137.771 73.3235 137.83 75.3299C137.777 77.3896 138.274 79.426 139.27 81.2299C139.35 81.3699 139.43 81.4999 139.51 81.6199C139.588 81.7584 139.675 81.892 139.77 82.0199L139.99 82.3199C142.83 85.9999 147.99 87.3799 153.22 87.3799C156.566 87.481 159.915 87.2634 163.22 86.7299C165.892 86.1682 168.476 85.2465 170.9 83.9899V58.4999C170.74 50.1499 164.86 45.2999 154 45.2999ZM162.67 65.6799V80.3899C159.943 81.0932 157.135 81.4295 154.32 81.3899C148.6 81.3899 145.97 78.9199 145.97 75.3899C145.97 67.7799 158.7 69.5999 162.03 66.2199C162.17 66.0799 162.24 65.9799 162.38 65.8199L162.53 65.6299L162.67 65.4099V65.6799Z" fill="#231F20"/>
<path d="M226.25 79C225.84 79.29 225.36 79.59 224.98 79.82L224.85 79.89C223.161 80.8054 221.26 81.2574 219.34 81.2C213.34 81.2 212.21 77.87 212.15 72.53V53.85H224.87C225.041 53.8581 225.211 53.8291 225.37 53.7652C225.529 53.7012 225.672 53.6037 225.79 53.4794C225.908 53.355 225.997 53.2067 226.052 53.0446C226.107 52.8824 226.127 52.7103 226.11 52.54V47.17H212.11V37.08C212.11 34.99 203.77 35.52 203.77 35.52V74.52C203.77 82.95 208.77 87.88 218.27 87.88C220.593 87.919 222.907 87.5605 225.11 86.82C226.28 86.37 227.38 85.7573 228.38 85V77.09C228.38 77.09 228.38 76.99 228.3 77.09C228.036 77.4457 227.745 77.78 227.43 78.09C227.055 78.4166 226.661 78.7205 226.25 79Z" fill="#231F20"/>
<path fill-rule="evenodd" clip-rule="evenodd" d="M57.4298 134.05C68.6332 134.046 79.584 130.72 88.8974 124.493C98.2108 118.266 105.469 109.417 109.753 99.0652C114.038 88.7134 115.157 77.3236 112.969 66.3359C110.781 55.3482 105.384 45.256 97.4603 37.3354C89.5368 29.4147 79.4428 24.0213 68.4543 21.8371C57.4658 19.6528 46.0764 20.7759 35.7261 25.0642C25.3759 29.3525 16.5295 36.6134 10.3056 45.929C4.08173 55.2447 0.759766 66.1966 0.759766 77.4C0.791488 92.4183 6.77288 106.812 17.3943 117.43C28.0157 128.047 42.4115 134.024 57.4298 134.05Z" fill="white"/>
<path d="M57.43 134.8H57.37C42.1623 134.758 27.59 128.696 16.8394 117.939C6.08869 107.183 0.0343061 92.6077 0 77.4H0C0.0264592 62.1795 6.08655 47.5904 16.8519 36.8307C27.6172 26.071 42.2095 20.0185 57.43 20V20C72.64 20.0291 87.2184 26.0855 97.9716 36.8425C108.725 47.5995 114.776 62.18 114.8 77.39C114.768 92.5856 108.726 107.152 97.9925 117.908C87.2588 128.664 72.7055 134.737 57.51 134.8H57.43ZM57.37 133.3H57.51C72.3049 133.242 86.4757 127.331 96.9271 116.859C107.378 106.387 113.261 92.205 113.29 77.41C113.264 62.6012 107.373 48.4057 96.9058 37.9295C86.439 27.4534 72.2488 21.5496 57.44 21.51C42.6208 21.5285 28.4131 27.4202 17.9296 37.8943C7.44614 48.3684 1.54174 62.5708 1.51 77.39C1.5364 92.2006 7.42884 106.398 17.8978 116.874C28.3667 127.35 42.5595 133.253 57.37 133.29V133.3Z" fill="#231F20"/>
<path fill-rule="evenodd" clip-rule="evenodd" d="M57.2197 60.8099C58.7217 60.8119 60.1905 60.3681 61.4402 59.5349C62.6899 58.7017 63.6643 57.5164 64.24 56.1291C64.8157 54.7418 64.9668 53.2148 64.6743 51.7416C64.3818 50.2684 63.6587 48.915 62.5966 47.8529C61.5345 46.7909 60.1812 46.0678 58.7079 45.7752C57.2347 45.4827 55.7078 45.6338 54.3205 46.2096C52.9332 46.7853 51.7479 47.7596 50.9146 49.0093C50.0814 50.259 49.6377 51.7279 49.6397 53.2299C49.6423 55.2394 50.4418 57.1659 51.8627 58.5868C53.2837 60.0078 55.2101 60.8072 57.2197 60.8099Z" fill="#231F20"/>
<path fill-rule="evenodd" clip-rule="evenodd" d="M75.6604 30.52V70.74L72.3204 72.86C71.8304 66.14 68.8004 62 58.5204 62H55.9204C45.4904 62 42.5804 66.18 42.1204 72.9L38.7804 70.78V30.54C27.8556 34.8349 18.7725 42.8085 13.0987 53.085C7.42484 63.3615 5.51606 75.2961 7.70173 86.8296C9.8874 98.3631 16.0304 108.772 25.0707 116.26C34.1111 123.748 45.4816 127.846 57.2204 127.846C68.9592 127.846 80.3297 123.748 89.3701 116.26C98.4104 108.772 104.553 98.3631 106.739 86.8296C108.925 75.2961 107.016 63.3615 101.342 53.085C95.6683 42.8085 86.5853 34.8349 75.6604 30.54V30.52ZM79.6604 74.7V91.23C79.5951 91.9831 79.3628 92.7122 78.9806 93.3643C78.5983 94.0164 78.0756 94.5751 77.4504 95L61.7504 104.58L57.3704 107.26L55.1504 106L37.0004 95C36.388 94.5747 35.8764 94.0203 35.5015 93.3758C35.1265 92.7314 34.8975 92.0126 34.8304 91.27V74.7C34.8178 74.5737 34.8178 74.4464 34.8304 74.32C35.0243 74.3588 35.2081 74.4371 35.3704 74.55L55.2704 86.67L57.2004 87.85L60.4904 85.85L79.0804 74.55C79.2393 74.4376 79.4198 74.3593 79.6104 74.32C79.623 74.4464 79.623 74.5737 79.6104 74.7H79.6604Z" fill="#231F20"/>
<path d="M16.1 201H13.5V206.5H8V209.1H13.5V214.6H16.1V209.1H21.6V206.5H16.1V201Z" fill="#144E52"/>
<path d="M72.5008 201H69.8008V206.5H64.3008V209.1H69.8008V214.6H72.5008V209.1H78.0008V206.5H72.5008V201Z" fill="#144E52"/>
<path d="M128.8 201H126.2V206.5H120.7V209.1H126.2V214.6H128.8V209.1H134.3V206.5H128.8V201Z" fill="#144E52"/>
<path d="M185.2 201H182.5V206.5H177V209.1H182.5V214.6H185.2V209.1H190.7V206.5H185.2V201Z" fill="#144E52"/>
<path d="M241.5 201H238.9V206.5H233.4V209.1H238.9V214.6H241.5V209.1H247V206.5H241.5V201Z" fill="#144E52"/>
<path d="M16.1 255.6H13.5V261.1H8V263.7H13.5V269.2H16.1V263.7H21.6V261.1H16.1V255.6Z" fill="#144E52"/>
<path d="M72.5008 255.6H69.8008V261.1H64.3008V263.7H69.8008V269.2H72.5008V263.7H78.0008V261.1H72.5008V255.6Z" fill="#144E52"/>
<path d="M128.8 255.6H126.2V261.1H120.7V263.7H126.2V269.2H128.8V263.7H134.3V261.1H128.8V255.6Z" fill="#144E52"/>
<path d="M185.2 255.6H182.5V261.1H177V263.7H182.5V269.2H185.2V263.7H190.7V261.1H185.2V255.6Z" fill="#144E52"/>
<path d="M241.5 255.6H238.9V261.1H233.4V263.7H238.9V269.2H241.5V263.7H247V261.1H241.5V255.6Z" fill="#144E52"/>
<path d="M297.9 201H295.2V206.5H289.7V209.1H295.2V214.6H297.9V209.1H303.4V206.5H297.9V201Z" fill="#144E52"/>
<path d="M354.201 201H351.601V206.5H346.101V209.1H351.601V214.6H354.201V209.1H359.701V206.5H354.201V201Z" fill="#144E52"/>
<path d="M410.6 201H407.9V206.5H402.4V209.1H407.9V214.6H410.6V209.1H416.1V206.5H410.6V201Z" fill="#144E52"/>
<path d="M466.901 201H464.301V206.5H458.801V209.1H464.301V214.6H466.901V209.1H472.401V206.5H466.901V201Z" fill="#144E52"/>
<path d="M297.9 255.6H295.2V261.1H289.7V263.7H295.2V269.2H297.9V263.7H303.4V261.1H297.9V255.6Z" fill="#144E52"/>
<path d="M354.201 255.6H351.601V261.1H346.101V263.7H351.601V269.2H354.201V263.7H359.701V261.1H354.201V255.6Z" fill="#144E52"/>
<path d="M410.6 255.6H407.9V261.1H402.4V263.7H407.9V269.2H410.6V263.7H416.1V261.1H410.6V255.6Z" fill="#144E52"/>
<path d="M466.901 255.6H464.301V261.1H458.801V263.7H464.301V269.2H466.901V263.7H472.401V261.1H466.901V255.6Z" fill="#144E52"/>
<path d="M466.901 201H464.301V206.5H458.801V209.1H464.301V214.6H466.901V209.1H472.401V206.5H466.901V201Z" fill="#144E52"/>
<path d="M523.301 201H520.601V206.5H515.101V209.1H520.601V214.6H523.301V209.1H528.801V206.5H523.301V201Z" fill="#144E52"/>
<path d="M579.6 201H577V206.5H571.5V209.1H577V214.6H579.6V209.1H585.1V206.5H579.6V201Z" fill="#144E52"/>
<path d="M636.001 201H633.301V206.5H627.801V209.1H633.301V214.6H636.001V209.1H641.501V206.5H636.001V201Z" fill="#144E52"/>
<path d="M692.3 201H689.7V206.5H684.2V209.1H689.7V214.6H692.3V209.1H697.8V206.5H692.3V201Z" fill="#144E52"/>
<path d="M466.901 255.6H464.301V261.1H458.801V263.7H464.301V269.2H466.901V263.7H472.401V261.1H466.901V255.6Z" fill="#144E52"/>
<path d="M523.301 255.6H520.601V261.1H515.101V263.7H520.601V269.2H523.301V263.7H528.801V261.1H523.301V255.6Z" fill="#144E52"/>
<path d="M579.6 255.6H577V261.1H571.5V263.7H577V269.2H579.6V263.7H585.1V261.1H579.6V255.6Z" fill="#144E52"/>
<path d="M636.001 255.6H633.301V261.1H627.801V263.7H633.301V269.2H636.001V263.7H641.501V261.1H636.001V255.6Z" fill="#144E52"/>
<path d="M692.3 255.6H689.7V261.1H684.2V263.7H689.7V269.2H692.3V263.7H697.8V261.1H692.3V255.6Z" fill="#144E52"/>
<rect y="177" width="709" height="6" rx="3" fill="#1A1A1A"/>
<circle cx="199" cy="180" r="8" fill="#1A1A1A"/>
<circle cx="565" cy="180" r="8" fill="#1A1A1A"/>
</svg>
