<svg viewBox="0 0 721 241" fill="none" xmlns="http://www.w3.org/2000/svg">
<path d="M100.161 7H0.0507812V107.11H100.161V7Z" fill="#231F20"/>
<path d="M44.5505 74.5203C44.3609 74.3599 44.1486 74.2285 43.9205 74.1303H43.8305C43.3997 73.9811 42.9465 73.9067 42.4905 73.9103C42.0844 73.9139 41.6795 73.9541 41.2805 74.0303L40.4605 74.2103C40.0005 74.3003 39.3505 74.4003 38.5605 74.5003V83.7303C38.5605 84.3803 40.6205 84.1703 40.6205 84.1703V75.8503L41.8105 75.6303C41.9486 75.5964 42.089 75.573 42.2305 75.5603C42.6699 75.5259 43.1107 75.6051 43.5105 75.7903C43.8837 75.9864 44.2217 76.2432 44.5105 76.5503L44.5505 74.5203Z" fill="white"/>
<path d="M61.6505 81.1602C61.6505 81.0402 61.5805 81.1602 61.5205 81.1602C61.4605 81.1602 61.4505 81.2402 61.2205 81.4502C60.9905 81.6602 61.0205 81.6302 60.7105 81.8802L60.4605 82.0402C59.7517 82.4664 58.9374 82.6847 58.1105 82.6702C56.4705 82.6702 55.8005 82.0202 55.8005 80.7402V79.7202C56.4255 80.0135 57.1102 80.1573 57.8005 80.1402C60.8005 80.1402 61.8005 78.7102 61.8005 77.0802C61.8005 75.2202 60.4605 73.9902 57.8005 73.9902C55.1405 73.9902 53.7305 75.2202 53.7305 77.2802V81.1102C53.7305 83.1102 55.3705 84.3902 58.0905 84.3902C58.865 84.4056 59.6354 84.2732 60.3605 84.0002L60.7705 83.8202C61.1122 83.6826 61.417 83.4668 61.6605 83.1902L61.6505 81.1602ZM55.8105 77.6302C55.8105 76.3502 56.2305 75.6302 57.8105 75.6302C59.3905 75.6302 59.8105 76.2502 59.8105 77.1502C59.8105 78.0502 59.2405 78.5502 57.5905 78.5502C57.0007 78.5335 56.4157 78.4393 55.8505 78.2702L55.8105 77.6302Z" fill="white"/>
<path d="M65.2504 77.0101C65.2504 76.0101 65.8204 75.6101 67.3704 75.6101C67.9831 75.5956 68.5932 75.6939 69.1704 75.9001L69.7504 76.1701L70.3304 76.5501C70.4304 76.6201 70.7204 76.8601 70.8304 76.9501C70.9404 77.0401 70.8304 76.9501 70.8304 76.8501V75.0801C70.8304 74.9401 70.2204 74.5201 69.9804 74.4001L69.8104 74.3301C68.9959 74.0242 68.1301 73.8782 67.2604 73.9001C64.5804 73.9001 63.1504 74.9801 63.1504 77.0701C63.1504 81.2701 69.4404 78.7201 69.4404 81.1701C69.4404 82.1701 68.5004 82.6801 67.2604 82.6801C66.409 82.7165 65.5643 82.5157 64.8204 82.1001C64.7852 82.0694 64.7445 82.0456 64.7004 82.0301C64.4421 81.8777 64.1948 81.7072 63.9604 81.5201C63.7104 81.3301 63.4904 81.1401 63.4904 81.1401C63.4904 81.1401 63.3304 81.0001 63.3304 81.1401V83.1401C63.6629 83.4725 64.0615 83.7314 64.5004 83.9001C65.3806 84.2358 66.3189 84.3922 67.2604 84.3601C70.1404 84.3601 71.5304 83.1701 71.5304 81.2901C71.5304 76.6301 65.2504 79.0701 65.2504 77.0101Z" fill="white"/>
<path d="M32.5801 73.92C31.701 73.8918 30.8267 74.0592 30.0201 74.41C29.6272 74.5694 29.265 74.7961 28.9501 75.08C28.9501 75.08 28.9501 75.0801 28.9501 75.1401V77.0001C28.9501 77.1001 28.9501 77.27 29.0201 77.16L29.2001 76.95C29.4731 76.6831 29.7674 76.439 30.0801 76.22L30.2901 76.1L30.4401 76.0001C31.1141 75.6699 31.8604 75.5151 32.6101 75.55C34.2701 75.55 34.6901 76.22 34.6901 77.08C34.1201 78.37 30.9401 78.02 29.4101 79.38C29.3777 79.4075 29.3476 79.4376 29.3201 79.47V79.47L29.2501 79.56C29.1914 79.6222 29.1379 79.6891 29.0901 79.76V79.76C29.0725 79.7915 29.0524 79.8216 29.0301 79.85C28.7824 80.2775 28.661 80.7664 28.6801 81.26C28.6589 81.7666 28.7801 82.269 29.0301 82.71V82.71C29.0301 82.71 29.0301 82.78 29.0301 82.81C29.0581 82.8399 29.0817 82.8736 29.1001 82.91V82.91C29.104 82.9229 29.1104 82.9348 29.119 82.9451C29.1276 82.9554 29.1382 82.9639 29.1501 82.97V82.97C29.5647 83.4127 30.0746 83.7552 30.6411 83.9718C31.2076 84.1883 31.816 84.2732 32.4201 84.22C33.2396 84.2436 34.0596 84.1934 34.8701 84.0701C35.5289 83.9331 36.1651 83.7042 36.7601 83.39V77.1801C36.7101 75.1201 35.2601 73.92 32.5801 73.92ZM34.7101 78.92V82.55C34.0368 82.7191 33.3443 82.7998 32.6501 82.7901C31.2401 82.7901 30.6501 82.2 30.6501 81.33C30.6501 79.45 33.7801 79.9101 34.6001 79.0701C34.6352 79.0416 34.6656 79.0079 34.6901 78.97V78.97L34.7101 78.92Z" fill="white"/>
<path d="M69.9024 91.0031C69.0233 90.9748 68.1489 91.1422 67.3424 91.4931C66.9494 91.6524 66.5873 91.8791 66.2724 92.1631C66.2724 92.1631 66.2724 92.1631 66.2724 92.2231V94.0831C66.2724 94.1831 66.2724 94.3531 66.3424 94.2431L66.5224 94.0331C66.7953 93.7661 67.0896 93.522 67.4024 93.3031L67.6124 93.1831L67.7624 93.0831C68.4363 92.7529 69.1827 92.5981 69.9324 92.6331C71.5924 92.6331 72.0124 93.3031 72.0124 94.1631C71.4424 95.4531 68.2624 95.1031 66.7324 96.4631C66.6999 96.4905 66.6698 96.5206 66.6424 96.5531V96.5531L66.5724 96.6431C66.5137 96.7052 66.4601 96.7721 66.4124 96.8431V96.8431C66.3947 96.8746 66.3747 96.9046 66.3524 96.9331C66.1046 97.3605 65.9833 97.8494 66.0024 98.3431C65.9811 98.8496 66.1024 99.352 66.3524 99.7931V99.7931C66.3524 99.7931 66.3524 99.8631 66.3524 99.8931C66.3804 99.9229 66.4039 99.9566 66.4224 99.9931V99.9931C66.4263 100.006 66.4327 100.018 66.4413 100.028C66.4499 100.038 66.4605 100.047 66.4724 100.053V100.053C66.887 100.496 67.3969 100.838 67.9634 101.055C68.5299 101.271 69.1382 101.356 69.7424 101.303C70.5619 101.327 71.3819 101.276 72.1924 101.153C72.8511 101.016 73.4874 100.787 74.0824 100.473V94.2631C74.0324 92.2031 72.5824 91.0031 69.9024 91.0031ZM72.0324 96.0031V99.6331C71.359 99.8021 70.6666 99.8828 69.9724 99.8731C68.5624 99.8731 67.9724 99.2831 67.9724 98.4131C67.9724 96.5331 71.1024 96.9931 71.9224 96.1531C71.9574 96.1247 71.9878 96.0909 72.0124 96.0531V96.0531L72.0324 96.0031Z" fill="white"/>
<path d="M51.7802 82.2301L51.4602 82.4401C51.044 82.6682 50.5747 82.782 50.1002 82.7701C48.6202 82.7701 48.3402 81.9501 48.3302 80.6301V76.0301H51.4602C51.5026 76.0333 51.5452 76.0271 51.5849 76.012C51.6247 75.9969 51.6606 75.9732 51.6902 75.9427C51.7197 75.9122 51.7422 75.8755 51.7561 75.8353C51.7699 75.7951 51.7747 75.7524 51.7702 75.7101V74.3901H48.3002V71.8901C48.3002 71.3901 46.2402 71.5201 46.2402 71.5201V81.1301C46.2402 83.2101 47.4802 84.4201 49.8202 84.4201C50.3907 84.4262 50.9583 84.3383 51.5002 84.1601V84.1601C51.7813 84.0437 52.0467 83.8925 52.2902 83.7101V81.7101C52.2902 81.7101 52.1602 81.8701 52.0802 81.9501L51.7802 82.2301Z" fill="white"/>
<path d="M48.6507 87.32V86.02C48.7107 86.02 50.7307 85.77 50.7307 86.49V100.56C50.0807 100.56 49.0107 100.9 48.5707 100.96C47.9137 101.101 47.2425 101.164 46.5707 101.15C43.8107 101.15 42.2607 99.94 42.2607 97.85V93.85C42.2607 91.85 43.9907 90.6 45.9807 90.6C46.9193 90.5515 47.8466 90.823 48.6107 91.37C48.6107 91.37 48.6107 91.37 48.6107 91.37C48.6107 91.37 48.6107 90.62 48.6107 90.26C48.6107 90.2 48.6107 90.13 48.6107 90.06L48.6507 87.32ZM48.6507 94C48.6507 93 47.4607 92.23 46.2807 92.23C46.0169 92.2059 45.7509 92.2421 45.5031 92.3358C45.2552 92.4295 45.0318 92.5782 44.8498 92.7708C44.6678 92.9634 44.5319 93.1948 44.4524 93.4476C44.3729 93.7004 44.3518 93.9679 44.3907 94.23V97.59C44.3907 98.92 44.9207 99.59 46.7707 99.59C47.4158 99.5935 48.0551 99.4677 48.6507 99.22V94Z" fill="white"/>
<path d="M52.9004 90.7899V100.52C52.9004 101.17 54.9704 101.02 54.9704 101.02V91.4499C54.9704 90.6299 53.4504 90.8199 52.9004 90.7899ZM53.4904 89.0299C54.0004 89.0299 54.9504 89.0899 54.9504 89.0899V87.6299C54.9504 87.3999 54.6004 87.1799 54.3704 87.1399C53.8823 87.0871 53.3912 87.0671 52.9004 87.0799V88.5599C52.9004 88.8199 53.2004 88.9999 53.4904 89.0299V89.0299Z" fill="white"/>
<path d="M30.4807 93.4798C30.2907 91.5198 28.5507 90.6298 26.6507 90.6298C25.4545 90.5336 24.2622 90.8591 23.2807 91.5498C22.401 90.8921 21.3173 90.5663 20.2207 90.6298C19.2905 90.6325 18.3639 90.7467 17.4607 90.9698C16.9043 91.1092 16.3342 91.1864 15.7607 91.1998V100.55C15.7607 101.24 17.8407 101.01 17.8407 101.01V92.6298C18.5215 92.4058 19.2341 92.2944 19.9507 92.2998C21.5307 92.2998 22.1007 92.9498 22.1007 94.0698V100.6C22.1007 101.27 24.1707 101.06 24.1707 101.06V93.6798C24.2207 92.8098 25.3107 92.2398 26.4107 92.2398C27.5107 92.2398 28.4107 92.7898 28.4107 94.0998V100.56C28.4107 101.26 30.4807 101.02 30.4807 101.02V93.7398C30.4857 93.6532 30.4857 93.5664 30.4807 93.4798V93.4798Z" fill="white"/>
<path d="M39.0407 86.8501C39.2107 87.1801 39.2407 87.3001 39.3607 87.5301C39.8307 88.5301 39.4307 88.6001 37.7207 89.3501L35.8407 90.1401C35.8407 90.1401 35.1007 88.9401 35.4007 88.6401C35.8429 88.3662 36.312 88.1384 36.8007 87.9601C37.4424 87.7389 38.0618 87.4577 38.6507 87.1201C38.7707 87.0501 38.8907 86.9801 39.0007 86.9001C39.1107 86.8201 39.0307 86.8401 39.0407 86.8501Z" fill="white"/>
<path d="M40.4202 97.9798C40.4202 97.8698 40.3602 97.9798 40.3002 97.9798C40.2082 98.0939 40.1043 98.1978 39.9902 98.2898C39.8202 98.4398 39.7902 98.4598 39.4702 98.7098C39.4702 98.7098 39.2402 98.8598 39.2302 98.8698C38.5183 99.2973 37.7004 99.5156 36.8702 99.4998C35.2202 99.4998 34.5502 98.8498 34.5502 97.5698V96.5398C35.1761 96.8296 35.8608 96.9699 36.5502 96.9498C39.5502 96.9498 40.5502 95.5098 40.5502 93.8798C40.5502 92.0098 39.2002 90.7598 36.5502 90.7598C33.9002 90.7598 32.4502 92.0098 32.4502 94.0798V97.9298C32.4502 99.9898 34.1002 101.24 36.8402 101.24C37.6209 101.25 38.3969 101.118 39.1302 100.85C39.2722 100.799 39.4094 100.735 39.5402 100.66C39.8839 100.521 40.1892 100.301 40.4302 100.02L40.4202 97.9798ZM34.5102 94.3698C34.5102 93.0898 34.9202 92.3698 36.5102 92.3698C38.1002 92.3698 38.5102 92.9998 38.5102 93.9098C38.5102 94.8198 37.9402 95.3098 36.2802 95.3098C35.6871 95.2936 35.0987 95.1995 34.5302 95.0298L34.5102 94.3698Z" fill="white"/>
<path d="M78.0104 93.8101C78.0104 92.8101 78.5804 92.3801 80.1304 92.3801C80.7536 92.3686 81.3736 92.4702 81.9604 92.6801C82.1904 92.7801 82.5404 92.9601 82.5404 92.9601L83.1304 93.3401C83.2204 93.4101 83.5304 93.6501 83.6204 93.7401V91.8601C83.6204 91.7201 83.0104 91.2901 82.7604 91.1801L82.6504 91.1001C81.8313 90.7997 80.9626 90.6572 80.0904 90.6801C77.3804 90.6801 75.9404 91.7601 75.9404 93.8701C75.9404 98.1001 82.2804 95.5301 82.2804 98.0001C82.2804 99.0001 81.2804 99.5101 80.0904 99.5101C79.2279 99.5507 78.3715 99.3462 77.6204 98.9201L77.5004 98.8601C77.24 98.706 76.9895 98.5356 76.7504 98.3501L76.2904 97.9701C76.1504 97.8201 76.1104 97.8201 76.1104 97.9701V99.9701C76.4501 100.303 76.8553 100.562 77.3004 100.73C78.1887 101.075 79.1381 101.235 80.0904 101.2C82.9904 101.2 84.3904 99.9901 84.3904 98.1101C84.3404 93.4301 78.0104 95.8801 78.0104 93.8101Z" fill="white"/>
<path d="M63.7502 98.73L63.6102 98.83H63.5302C62.8115 99.2351 61.9944 99.4324 61.1702 99.4V99.4C59.6302 99.34 58.9502 98.7 58.9502 97.4V94.4C58.9502 92.91 59.7702 92.4 61.3402 92.33C62.0341 92.3201 62.7203 92.4779 63.3402 92.79C63.7924 93.0593 64.2005 93.3966 64.5502 93.79C64.6902 93.94 64.7302 94.03 64.7202 93.79V91.79C64.4389 91.4925 64.0982 91.2574 63.7202 91.1L63.5802 91.04C62.8028 90.755 61.9777 90.6226 61.1502 90.65C58.5102 90.65 56.9102 91.9 56.9102 93.97V97.81C56.9102 99.9 58.5802 101.13 61.2402 101.13H61.3002C62.0502 101.134 62.795 101.005 63.5002 100.75L63.9002 100.57C63.9002 100.57 64.0402 100.51 64.2002 100.41C64.4332 100.283 64.6375 100.11 64.8002 99.9V98.23C64.8002 98.1 64.8002 97.76 64.8002 97.82C64.5059 98.1823 64.1506 98.4903 63.7502 98.73Z" fill="white"/>
<path d="M29.65 27.3699C29.6474 24.6195 30.2055 21.8975 31.29 19.3699L10.86 11.4399L0 39.4399V65.8299H35.85L43.33 46.5599C39.3398 45.1772 35.8789 42.5868 33.4276 39.1481C30.9762 35.7094 29.656 31.5929 29.65 27.3699V27.3699Z" fill="white"/>
<path d="M0 65.8298H13.28L31.37 19.1798L0 7.00977V65.8298Z" fill="#EC1C24"/>
<path d="M100.101 39.6299L89.1807 11.4399L68.7207 19.3799C69.8133 21.9416 70.3679 24.7005 70.3501 27.4854C70.3324 30.2702 69.7426 33.0218 68.6175 35.5693C67.4923 38.1169 65.8558 40.4061 63.8093 42.295C61.7628 44.1838 59.3501 45.6321 56.7207 46.5499L64.1807 65.8299H100.101V39.6299Z" fill="white"/>
<path d="M100.1 7H100.04L68.6699 19.18L86.7599 65.83H100.1V7Z" fill="#EC1C24"/>
<path fill-rule="evenodd" clip-rule="evenodd" d="M663.44 114.22C674.643 114.214 685.593 110.886 694.905 104.658C704.217 98.4297 711.473 89.5801 715.756 79.2282C720.039 68.8762 721.157 57.4867 718.968 46.4997C716.778 35.5126 711.381 25.4214 703.457 17.5017C695.533 9.5821 685.439 4.18969 674.451 2.00627C663.462 -0.177154 652.074 0.946455 641.724 5.23504C631.374 9.52362 622.528 16.7846 616.305 26.1C610.081 35.4154 606.76 46.3669 606.76 57.5699C606.791 72.5899 612.774 86.9852 623.398 97.6031C634.021 108.221 648.42 114.196 663.44 114.22V114.22Z" fill="white"/>
<path d="M663.43 114.8H663.37C648.161 114.763 633.585 108.703 622.834 97.9453C612.082 87.1878 606.029 72.6093 606 57.4V57.4C606.029 42.1786 612.091 27.5895 622.858 16.8301C633.625 6.07065 648.219 0.0184994 663.44 0V0C678.648 0.0396374 693.22 6.10112 703.97 16.8583C714.72 27.6154 720.771 42.1924 720.8 57.4V57.4C720.771 72.5955 714.729 87.1619 703.995 97.9171C693.26 108.672 678.705 114.742 663.51 114.8H663.43ZM663.37 113.29H663.51C678.303 113.232 692.472 107.323 702.924 96.8529C713.375 86.3831 719.258 72.2033 719.29 57.41V57.41C719.264 42.6029 713.374 28.4089 702.909 17.9331C692.445 7.45721 678.257 1.55228 663.45 1.51V1.51C648.627 1.52585 634.416 7.41775 623.93 17.8943C613.444 28.3708 607.539 42.5773 607.51 57.4V57.4C607.539 72.2088 613.433 86.4033 623.901 96.8775C634.37 107.352 648.561 113.253 663.37 113.29V113.29Z" fill="#231F20"/>
<path fill-rule="evenodd" clip-rule="evenodd" d="M678.11 9.22998V39.39L675.41 41.11C675.01 35.68 672.57 32.31 664.27 32.31H662.17C653.76 32.31 651.41 35.68 651.03 41.11L648.34 39.4V9.23998C636.816 12.8025 626.951 20.3802 620.538 30.5969C614.125 40.8135 611.589 52.9914 613.391 64.9187C615.192 76.846 621.212 87.7317 630.356 95.5986C639.5 103.465 651.163 107.792 663.225 107.792C675.288 107.792 686.95 103.465 696.095 95.5986C705.239 87.7317 711.259 76.846 713.06 64.9187C714.862 52.9914 712.325 40.8135 705.912 30.5969C699.499 20.3802 689.635 12.8025 678.11 9.23998V9.22998ZM681.31 42.59V55.93C681.252 56.5278 681.065 57.1057 680.761 57.6238C680.457 58.1418 680.044 58.5875 679.55 58.93L666.87 66.68L663.34 68.84L661.55 67.84L646.89 59C646.398 58.6575 645.986 58.2116 645.684 57.6934C645.381 57.1752 645.196 56.5973 645.14 56V42.59C645.14 42.37 645.14 42.32 645.14 42.29C645.296 42.3153 645.443 42.3769 645.57 42.47L661.64 52.26L663.2 53.26L665.85 51.65L680.85 42.52C680.977 42.4269 681.125 42.3653 681.28 42.34C681.28 42.34 681.31 42.37 681.31 42.59Z" fill="#231F20"/>
<path fill-rule="evenodd" clip-rule="evenodd" d="M663.22 31.3799C664.43 31.3799 665.613 31.021 666.62 30.3485C667.626 29.676 668.411 28.7202 668.874 27.6019C669.337 26.4836 669.458 25.2531 669.222 24.0659C668.986 22.8788 668.403 21.7883 667.547 20.9324C666.691 20.0765 665.601 19.4936 664.414 19.2575C663.226 19.0213 661.996 19.1425 660.878 19.6058C659.759 20.069 658.803 20.8534 658.131 21.8598C657.459 22.8662 657.1 24.0495 657.1 25.2599C657.102 26.8822 657.748 28.4373 658.895 29.5845C660.042 30.7316 661.597 31.3773 663.22 31.3799V31.3799Z" fill="#231F20"/>
<path d="M690.77 74.3499V72.9999C690.83 72.9999 692.99 72.7399 692.99 73.4999V88.4999C692.29 88.5599 691.13 88.8699 690.68 88.9399C689.993 89.0806 689.292 89.1476 688.59 89.1399C685.64 89.1399 683.99 87.8499 683.99 85.6199V81.3899C683.99 79.2199 685.83 77.9099 687.99 77.9099C688.993 77.8562 689.984 78.1454 690.8 78.7299C690.8 78.7299 690.8 78.7299 690.8 78.7299C690.8 78.7299 690.8 77.9299 690.8 77.5499C690.795 77.48 690.795 77.4098 690.8 77.3399L690.77 74.3499ZM690.77 81.4999C690.77 80.3799 689.51 79.5999 688.24 79.5999C687.962 79.5782 687.683 79.6187 687.423 79.7187C687.163 79.8187 686.929 79.9755 686.737 80.1778C686.545 80.38 686.401 80.6226 686.315 80.8877C686.229 81.1527 686.204 81.4337 686.24 81.7099V85.2899C686.24 86.7199 686.81 87.4199 688.77 87.4199C689.454 87.435 690.134 87.3126 690.77 87.0599V81.4999Z" fill="white"/>
<path d="M672.87 81.0001C672.68 78.8901 670.81 78.0001 668.81 78.0001C667.527 77.905 666.251 78.2584 665.2 79.0001C664.263 78.2834 663.098 77.9284 661.92 78.0001C660.91 78.0006 659.903 78.1215 658.92 78.3601C658.328 78.5103 657.721 78.5974 657.11 78.6201V88.6201C657.11 89.3601 659.32 89.1201 659.32 89.1201V80.0001C660.049 79.7556 660.812 79.634 661.58 79.6401C663.26 79.6401 663.87 80.3401 663.87 81.5401V88.5401C663.87 89.2601 666.09 89.0401 666.09 89.0401V81.1401C666.15 80.2201 667.3 79.6101 668.49 79.6101C669.68 79.6101 670.63 80.2001 670.63 81.6101V88.4901C670.63 89.2401 672.85 88.9901 672.85 88.9901V81.2201C672.865 81.1477 672.872 81.0739 672.87 81.0001Z" fill="white"/>
<path d="M648.67 78.6C648.464 78.4282 648.235 78.2867 647.99 78.18H647.88C647.417 78.0324 646.935 77.9549 646.45 77.95C646.013 77.9514 645.577 77.9983 645.15 78.09L644.27 78.27C643.76 78.37 643.07 78.47 642.22 78.58V88.58C642.22 89.28 644.43 89.06 644.43 89.06V80L645.72 79.76C645.865 79.7269 646.012 79.7035 646.16 79.69C646.633 79.6526 647.107 79.7352 647.54 79.93C647.948 80.1531 648.327 80.4251 648.67 80.74V78.6Z" fill="white"/>
<path d="M682.72 85.74C682.72 85.62 682.65 85.74 682.59 85.74C682.53 85.74 682.52 85.82 682.26 86.06C682.088 86.2226 681.904 86.3729 681.71 86.51C681.71 86.51 681.46 86.68 681.45 86.69C680.689 87.1426 679.816 87.3746 678.93 87.36C677.16 87.36 676.44 86.66 676.44 85.29V84.21C677.113 84.5211 677.849 84.6717 678.59 84.65C681.8 84.65 682.9 83.11 682.9 81.36C682.9 79.36 681.46 78.03 678.61 78.03C675.76 78.03 674.23 79.36 674.23 81.57V85.68C674.23 87.9 676 89.23 678.93 89.23C679.759 89.2371 680.582 89.0948 681.36 88.81L681.8 88.62C682.184 88.4722 682.526 88.2358 682.8 87.93L682.72 85.74ZM676.4 81.89C676.4 80.52 676.84 79.72 678.53 79.72C680.22 79.72 680.65 80.39 680.65 81.36C680.65 82.33 680.05 82.86 678.27 82.86C677.637 82.8355 677.009 82.7347 676.4 82.56V81.89Z" fill="white"/>
<path d="M655.59 86.9001L655.25 87.1201C654.8 87.3551 654.298 87.4721 653.79 87.4601C652.19 87.4601 651.9 86.5901 651.89 85.1701V80.1701H655.26C655.305 80.1717 655.351 80.1636 655.393 80.1463C655.435 80.129 655.473 80.1029 655.504 80.0698C655.535 80.0367 655.559 79.9972 655.574 79.9542C655.589 79.9111 655.594 79.8654 655.59 79.8201V78.4601H651.89V75.7801C651.89 75.2201 649.67 75.3701 649.67 75.3701V85.7101C649.67 87.9501 651.01 89.2501 653.52 89.2501C654.123 89.2664 654.725 89.1819 655.3 89.0001V89.0001C655.605 88.8828 655.892 88.7211 656.15 88.5201V86.3801C656.085 86.4793 656.007 86.57 655.92 86.6501C655.814 86.7391 655.704 86.8226 655.59 86.9001V86.9001Z" fill="white"/>
<path d="M349.4 114.8C381.101 114.8 406.8 89.1012 406.8 57.4C406.8 25.6989 381.101 0 349.4 0C317.699 0 292 25.6989 292 57.4C292 89.1012 317.699 114.8 349.4 114.8Z" fill="white"/>
<path d="M350 108.93V108.77H350.23C354.376 108.728 358.501 108.17 362.51 107.11C365.522 106.386 368.449 105.343 371.24 104C373.04 103.1 374.84 102.19 376.54 101.14C378.24 100.09 379.76 98.9199 381.33 97.7699C383.522 96.191 385.534 94.3768 387.33 92.3599C389.482 89.9446 391.445 87.367 393.2 84.6499C395.05 81.6832 396.611 78.5454 397.86 75.2799C398.83 72.7193 399.546 70.07 400 67.3699C400.717 63.8428 401.053 60.2488 401 56.6499C400.905 52.1427 400.233 47.6662 399 43.3299C398.137 40.3289 397.016 37.408 395.65 34.5999C393.95 31.2643 391.924 28.1055 389.6 25.1699C389.19 24.6399 388.65 24.1699 388.26 23.6599C386.926 21.9821 385.417 20.4502 383.76 19.0899C382.58 18.0399 381.31 17.0899 380.1 16.0899C378.676 14.9109 377.138 13.8758 375.51 12.9999C374.23 12.2899 372.95 11.5599 371.64 10.9199C370.53 10.3699 369.38 9.9199 368.23 9.4599C367.47 9.1599 366.69 8.9199 365.91 8.6599C364.91 8.3399 363.91 8.0099 362.91 7.7099C362.35 7.5399 361.76 7.4099 361.19 7.2599C360.47 7.0799 359.75 6.8599 359.02 6.7399C358.29 6.6199 357.47 6.5599 356.69 6.4799C356.2 6.4199 355.69 6.3699 355.21 6.2999C355.12 6.2999 355.03 6.2399 354.94 6.2299C354.56 6.2299 354.18 6.1199 353.8 6.0899C353.42 6.0599 353.28 6.0899 353.02 6.0899L351.57 5.9999C351.37 5.9999 351.16 5.9999 350.96 5.9999C350.56 5.9999 350.16 5.9099 349.76 5.8999C349.36 5.8899 349.16 5.9599 348.86 5.9699L344.7 5.9999C344.61 5.99038 344.52 5.99038 344.43 5.9999C343.84 6.1199 343.25 6.2999 342.66 6.3599C341.139 6.43721 339.628 6.66159 338.15 7.0299C336.48 7.5199 334.81 7.9699 333.15 8.4499C332.181 8.66793 331.236 8.98285 330.33 9.3899C329.329 9.94874 328.282 10.4205 327.2 10.7999C326.698 11.0039 326.215 11.255 325.76 11.5499L322.38 13.4899H322.33C321.835 13.6019 321.394 13.8808 321.08 14.2799C320.861 14.4815 320.611 14.6469 320.34 14.7699L319.42 15.3999C319.23 15.5399 319.05 15.6999 318.85 15.8499C318.17 16.3399 317.49 16.8499 316.85 17.3199C316.46 17.6099 316.1 17.9299 315.74 18.2499C315.38 18.5699 314.9 18.9799 314.5 19.3699C314.1 19.7599 313.5 20.3699 313.02 20.8799C312.54 21.3899 312.02 21.7599 311.61 22.2499C310.71 23.2499 309.82 24.3199 308.97 25.3999C307.949 26.6171 307.004 27.8962 306.14 29.2299C304.9 31.2299 303.75 33.3699 302.71 35.5199C301.84 37.3399 301.15 39.2499 300.46 41.1499C300.048 42.313 299.714 43.5023 299.46 44.7099C298.938 46.8241 298.524 48.9636 298.22 51.1199C297.835 54.3351 297.755 57.5796 297.98 60.8099C298.194 64.0853 298.734 67.3312 299.59 70.4999C300.367 73.7074 301.511 76.8146 303 79.7599C304 81.6599 305 83.6299 306.12 85.4299C307.35 87.2566 308.685 89.0096 310.12 90.6799C312.388 93.3985 314.954 95.8539 317.77 97.9999C320.244 99.9787 322.927 101.682 325.77 103.08C327.35 103.83 328.9 104.66 330.53 105.31C332.019 105.879 333.538 106.366 335.08 106.77C337.483 107.54 339.954 108.079 342.46 108.38L350 108.93Z" fill="white"/>
<path d="M350 108.93L342.46 108.35C339.954 108.049 337.483 107.51 335.08 106.74C333.538 106.336 332.019 105.849 330.53 105.28C328.9 104.63 327.35 103.8 325.77 103.05C322.927 101.652 320.244 99.9488 317.77 97.97C314.97 95.831 312.417 93.3859 310.16 90.68C308.725 89.0096 307.39 87.2566 306.16 85.43C304.99 83.63 304.06 81.66 303.04 79.76C301.527 76.8341 300.356 73.7438 299.55 70.55C298.694 67.3813 298.154 64.1353 297.94 60.86C297.715 57.6296 297.795 54.3852 298.18 51.17C298.484 49.0136 298.898 46.8742 299.42 44.76C299.674 43.5524 300.008 42.3631 300.42 41.2C301.11 39.3 301.8 37.39 302.67 35.57C303.67 33.42 304.86 31.32 306.1 29.28C306.964 27.9462 307.909 26.6671 308.93 25.45C309.78 24.37 310.67 23.33 311.57 22.3C312 21.81 312.57 21.39 312.98 20.93C313.39 20.47 313.98 19.93 314.46 19.42C314.94 18.91 315.28 18.66 315.7 18.3C316.12 17.94 316.42 17.66 316.81 17.37C317.48 16.87 318.16 16.37 318.81 15.9C319.01 15.75 319.19 15.59 319.38 15.45L320.3 14.82C320.571 14.697 320.821 14.5316 321.04 14.33C321.354 13.9309 321.795 13.652 322.29 13.54H322.34L325.72 11.6C326.175 11.3051 326.657 11.054 327.16 10.85C328.242 10.4706 329.289 9.99882 330.29 9.43998C331.196 9.03293 332.141 8.71801 333.11 8.49998C334.77 8.01998 336.44 7.56998 338.11 7.07998C339.588 6.71167 341.099 6.48729 342.62 6.40998C343.21 6.34998 343.8 6.16998 344.39 6.04998C344.48 6.04046 344.57 6.04046 344.66 6.04998H348.82C349.12 6.04998 349.42 5.97998 349.72 5.97998C350.02 5.97998 350.52 6.04998 350.92 6.07998C351.12 6.07998 351.33 6.07998 351.53 6.07998L353.02 6.19998C353.28 6.19998 353.55 6.19998 353.8 6.19998C354.05 6.19998 354.56 6.28998 354.94 6.33998C355.03 6.33998 355.12 6.39998 355.21 6.40998C355.7 6.47998 356.21 6.52998 356.69 6.58998C357.47 6.66998 358.25 6.71998 359.02 6.84998C359.79 6.97998 360.47 7.18998 361.19 7.36998C361.76 7.51998 362.35 7.64998 362.91 7.81998C363.91 8.11998 364.91 8.44998 365.91 8.76998C366.69 9.02998 367.47 9.26998 368.23 9.56998C369.38 10.02 370.53 10.48 371.64 11.03C372.95 11.67 374.23 12.4 375.51 13.11C377.127 13.9813 378.654 15.0096 380.07 16.18C381.28 17.18 382.55 18.13 383.73 19.18C385.387 20.5403 386.895 22.0722 388.23 23.75C388.62 24.29 389.16 24.75 389.57 25.26C391.894 28.1956 393.92 31.3544 395.62 34.69C396.991 37.4681 398.122 40.3587 399 43.33C400.233 47.6663 400.905 52.1428 401 56.65C401.053 60.2489 400.717 63.8429 400 67.37C399.535 70.061 398.808 72.7001 397.83 75.25C396.581 78.5155 395.02 81.6532 393.17 84.62C391.414 87.337 389.452 89.9147 387.3 92.33C385.504 94.3469 383.492 96.161 381.3 97.74C379.73 98.89 378.17 100.08 376.51 101.11C374.85 102.14 373.01 103.11 371.21 103.97C368.436 105.32 365.526 106.373 362.53 107.11C358.521 108.17 354.396 108.728 350.25 108.77H350.02L350 108.93ZM359.19 53.6L359.25 53.77C359.418 53.718 359.594 53.6944 359.77 53.7C360 53.7 360.33 53.82 360.42 53.99C361.03 55.09 361.6 56.21 362.18 57.33C362.76 58.45 363.18 59.33 363.73 60.33C363.73 60.43 363.95 60.47 364.07 60.54C364.135 60.3997 364.182 60.2519 364.21 60.1C364.21 60.01 364.12 59.9 364.06 59.8C363.33 58.38 362.55 56.98 361.87 55.54C361.579 54.9331 361.415 54.2727 361.39 53.6C361.39 49.6 361.39 45.69 361.39 41.73C361.39 38.26 361.39 34.8 361.39 31.33C361.39 29.73 361.39 28.13 361.39 26.53C361.39 25.76 361.27 25.68 360.52 25.69L349.52 25.78L339.13 25.85C338.43 25.85 338.25 26.04 338.26 26.71C338.34 33.0833 338.417 39.45 338.49 45.81C338.49 48.18 338.49 50.56 338.56 52.93C338.56 56.87 338.63 60.8 338.68 64.74C338.68 66.23 338.73 67.74 338.77 69.2C338.77 69.53 338.77 69.9 339.23 69.93C340.07 69.93 340.92 69.93 341.76 69.93C342 69.93 342.25 69.93 342.49 69.93C343.67 69.93 344.85 70.02 346.03 70.01C347.21 70 348.39 69.92 349.58 69.89C350.58 69.89 351.49 69.89 352.45 69.89C353.65 69.89 354.85 69.95 356.04 69.96C357.51 69.96 358.97 69.96 360.43 69.96C361.23 69.96 361.49 69.79 361.49 68.96C361.49 67.34 361.49 65.72 361.49 64.1C361.49 63.43 361.55 62.77 361.58 62C361.34 62.0509 361.106 62.1245 360.88 62.22C359.24 63.07 357.61 63.92 355.98 64.79C354.35 65.66 352.51 66.68 350.78 67.64C350.717 67.6898 350.644 67.7248 350.566 67.7424C350.488 67.7599 350.407 67.7595 350.329 67.7412C350.251 67.723 350.178 67.6873 350.116 67.6368C350.054 67.5864 350.004 67.5225 349.97 67.45C349.864 67.2959 349.767 67.1356 349.68 66.97C348.62 64.97 347.57 63.06 346.5 61.12C345.43 59.18 344.1 57.06 343 55C342.213 53.6666 341.457 52.3033 340.73 50.91C340.37 50.24 339.73 49.61 340.38 48.78C340.38 48.78 340.38 48.72 340.32 48.66C340.254 48.6698 340.186 48.6698 340.12 48.66C339.93 48.6 339.65 48.58 339.6 48.45C339.581 48.3538 339.585 48.2542 339.613 48.16C339.641 48.0659 339.691 47.98 339.76 47.91C340.109 47.6056 340.487 47.3375 340.89 47.11C341.33 46.86 341.82 46.71 342.26 46.47C343.57 45.76 344.86 45.02 346.16 44.3C346.43 44.15 346.72 44.06 346.98 43.92C347.7 43.53 348.41 43.12 349.13 42.72C349.85 42.32 350.66 41.88 351.43 41.46C351.74 41.29 352.03 41.09 352.33 40.91C352.63 40.73 352.74 40.64 352.85 40.7C352.942 40.7552 353.021 40.8307 353.08 40.9208C353.139 41.0109 353.177 41.1132 353.19 41.22C353.19 41.38 352.98 41.58 352.82 41.69C352.36 41.98 351.82 42.24 351.4 42.51L351.47 42.67C351.748 42.6998 352.03 42.6677 352.294 42.5761C352.559 42.4845 352.8 42.3356 353 42.14C353.57 41.69 353.64 41.71 354 42.34C354.63 43.52 355.35 44.65 356 45.84C356.52 46.84 357.38 47.76 357.24 49.14C357.58 49.03 357.9 48.95 358.24 48.83C358.58 48.71 358.89 48.64 359.1 48.99C359.61 49.86 360.1 50.73 360.58 51.64C360.92 52.34 360.79 52.64 360.14 53.07L359.19 53.6ZM351.19 78.6C351.322 78.7423 351.446 78.8926 351.56 79.05L353.83 83.05C354.21 83.71 354.5 83.7 354.89 83.05C355.63 81.6833 356.397 80.2966 357.19 78.89C357.27 78.7278 357.34 78.5608 357.4 78.39L357.66 78.59C357.66 78.83 357.72 79.07 357.72 79.31C357.72 80.47 357.72 81.64 357.72 82.81C357.72 83.21 357.79 83.66 358.29 83.74C358.951 83.8525 359.62 83.9127 360.29 83.92C361.46 83.92 362.62 83.85 363.78 83.92C364.565 84.034 365.365 83.9374 366.1 83.64C366.19 83.64 366.35 83.64 366.47 83.64C366.832 83.7532 367.204 83.8336 367.58 83.88C369.04 83.88 370.5 83.94 371.96 83.88C372.855 83.8428 373.744 83.7087 374.61 83.48C376.74 82.88 377.61 80.82 377.67 78.85C377.675 77.558 377.233 76.3041 376.42 75.3C376.126 74.893 375.742 74.5595 375.298 74.3253C374.854 74.0912 374.362 73.9627 373.86 73.95C371.62 73.87 369.38 73.95 367.13 73.95C367.026 73.9353 366.921 73.9447 366.821 73.9775C366.722 74.0104 366.631 74.0657 366.557 74.1393C366.482 74.2128 366.426 74.3026 366.392 74.4016C366.358 74.5006 366.347 74.6061 366.36 74.71C366.36 75.54 366.36 76.36 366.36 77.19C366.36 78.92 366.36 80.65 366.36 82.38C366.36 82.38 366.31 82.38 366.28 82.45V82.3C365.815 82.1942 365.344 82.1173 364.87 82.07C363.87 82.07 362.87 82.07 361.87 82.07C361.23 82.07 361.02 81.88 360.99 81.24C360.98 81.0534 360.98 80.8665 360.99 80.68C360.99 79.92 361.2 79.8 361.99 79.84C363.1 79.84 364.21 79.9 365.31 79.84C365.96 79.84 366.11 79.6 366.07 78.98C366.01 78.11 365.89 77.98 365.19 77.98H362.43C361 78.08 360.9 78 361 76.57C361 75.89 361.18 75.71 361.84 75.7C363.02 75.7 364.2 75.7 365.38 75.7C365.81 75.7 366.03 75.58 366.03 75.14C366.03 74.95 366.03 74.76 366.03 74.57C366.03 74.13 365.82 73.94 365.36 73.94C363.12 73.94 360.88 73.94 358.63 74C358.242 73.986 357.859 74.0905 357.533 74.2995C357.206 74.5085 356.95 74.8122 356.8 75.17C356.38 76.01 355.89 76.81 355.43 77.63C355.23 78 354.98 78.03 354.75 77.63C354.3 76.94 353.89 76.22 353.44 75.53C353.181 75.0939 352.883 74.6822 352.55 74.3C352.263 73.9796 351.884 73.7564 351.465 73.6614C351.045 73.5664 350.607 73.6044 350.21 73.77C349.818 73.9232 349.488 74.201 349.269 74.5606C349.05 74.9201 348.956 75.3415 349 75.76C349 77.12 349 78.47 349 79.82C349 80.82 349.08 81.75 349 82.7C349 83.83 349.28 84.17 350.37 83.98C350.465 83.974 350.557 83.9486 350.641 83.9054C350.725 83.8622 350.8 83.8022 350.86 83.7291C350.92 83.6559 350.964 83.5712 350.99 83.4802C351.016 83.3891 351.023 83.2938 351.01 83.2C351.01 81.92 351.01 80.64 351.01 79.36C351.08 79.17 351.12 79 351.16 78.63L351.19 78.6ZM333.4 79.93L333.26 80.01C333.155 79.9296 333.06 79.8354 332.98 79.73C332.15 78.18 331.3 76.63 330.5 75.06C330.331 74.6796 330.047 74.3615 329.689 74.15C329.33 73.9385 328.915 73.8441 328.5 73.88C328.027 73.8147 327.545 73.8945 327.119 74.1088C326.692 74.323 326.34 74.6617 326.11 75.08C324.83 77.81 323.62 80.56 322.4 83.32C322.18 83.82 322.4 84.13 322.96 84.11C323.3 84.11 323.64 84.03 323.96 83.99C324.78 83.91 325.03 83.71 325.19 82.93C325.215 82.6825 325.331 82.4531 325.516 82.2867C325.701 82.1202 325.941 82.0287 326.19 82.03C327.19 82.03 328.1 82.03 329.05 81.95C330 81.87 330.34 82.07 330.73 82.95C330.808 83.1827 330.916 83.4045 331.05 83.61C331.097 83.6867 331.16 83.7529 331.234 83.8045C331.308 83.8561 331.392 83.892 331.48 83.91C333.05 83.91 334.63 83.91 336.2 83.91C336.72 83.91 336.95 83.56 336.94 83.04C336.94 81.94 336.94 80.85 336.94 79.76C336.94 78.67 336.89 77.76 336.89 76.76C336.89 75.76 337.1 75.65 337.98 75.67C338.281 75.6664 338.582 75.6831 338.88 75.72C339.78 75.83 340.09 76.26 340.12 77.41C340.137 77.585 340.118 77.7616 340.065 77.9293C340.012 78.097 339.927 78.2525 339.813 78.3866C339.699 78.5207 339.56 78.6308 339.403 78.7104C339.247 78.79 339.075 78.8374 338.9 78.85C338.57 78.85 338.23 78.85 337.9 78.85C337.31 78.85 337.2 79.01 337.49 79.53C338.24 80.87 339.02 82.21 339.83 83.53C339.921 83.6418 340.033 83.734 340.16 83.8011C340.287 83.8681 340.427 83.9086 340.57 83.92C341.263 83.9551 341.957 83.9551 342.65 83.92C342.949 83.9099 343.245 83.8595 343.53 83.77C344.04 83.59 344.1 83.37 343.81 82.93C343.25 82.1 342.68 81.28 342.12 80.46C342.047 80.3858 341.992 80.2958 341.96 80.1968C341.928 80.0979 341.92 79.9928 341.935 79.89C341.951 79.7871 341.99 79.6893 342.05 79.6043C342.11 79.5192 342.188 79.4493 342.28 79.4C342.401 79.3106 342.528 79.2304 342.66 79.16C343.022 78.9762 343.338 78.7139 343.585 78.3921C343.833 78.0703 344.005 77.6972 344.089 77.3002C344.174 76.9033 344.168 76.4924 344.073 76.0979C343.978 75.7033 343.796 75.335 343.54 75.02C343.216 74.6769 342.821 74.4094 342.382 74.2365C341.943 74.0637 341.471 73.9897 341 74.02C338.67 73.96 336.34 74.02 334 74.02C333.47 74.02 333.32 74.29 333.33 74.76C333.33 75.76 333.33 76.69 333.39 77.65C333.41 78.47 333.4 79.2 333.4 79.93ZM346.53 70.93V71C344.35 71 342.16 71 339.98 71C339.05 71 338.9 71.16 338.98 72.09C338.98 72.71 339.45 72.96 340.33 72.92L343.81 72.81C344.38 72.81 344.59 73 344.6 73.58C344.6 75.18 344.6 76.78 344.6 78.38C344.6 79.98 344.65 81.66 344.69 83.29C344.69 83.94 344.9 84.07 345.55 83.98C345.813 83.9651 346.077 83.9651 346.34 83.98C346.86 83.98 347.34 84.06 347.91 83.98C348.59 83.98 348.79 83.7 348.79 82.98V81.11C348.79 79.74 348.79 78.37 348.79 77C348.79 75.63 348.79 74.44 348.85 73.17C348.85 72.83 349.03 72.68 349.4 72.69C350.5 72.69 351.61 72.76 352.72 72.78C352.945 72.7765 353.169 72.753 353.39 72.71C354.08 72.59 354.24 72.32 354.18 71.48C354.18 70.84 353.69 70.88 353.24 70.88L346.53 70.93ZM374.21 88.17C374.49 88.54 374.72 88.89 375 89.17C375.15 89.2827 375.32 89.3674 375.5 89.42C375.53 89.2513 375.53 89.0786 375.5 88.91C375.19 88.09 374.87 87.27 374.5 86.46C374.4 86.23 374.15 86.07 373.96 85.88C373.78 86.08 373.52 86.24 373.42 86.47C373.06 87.27 372.75 88.1 372.42 88.93C372.387 89.1085 372.387 89.2915 372.42 89.47C372.58 89.34 372.82 89.25 372.89 89.08C373.12 88.57 373.28 88.02 373.49 87.5C373.592 87.2806 373.705 87.0669 373.83 86.86C374.43 87.37 374.47 87.69 374.21 88.17ZM357.27 53.44H356.98C356.33 53.55 356.24 53.44 356.33 52.83C356.33 52.48 356.21 52.39 355.92 52.39C355.63 52.39 355.4 52.19 355.52 51.88C355.64 51.57 355.81 51.09 355.39 50.73C355.33 50.73 355.39 50.45 355.45 50.31C355.474 50.1777 355.507 50.0474 355.55 49.92L355.36 49.79C355.17 50 354.82 50.22 354.83 50.42C354.817 51.0478 354.936 51.6714 355.18 52.25C355.617 52.9889 356.123 53.6852 356.69 54.33C356.797 54.4886 356.951 54.6101 357.13 54.6782C357.309 54.7462 357.505 54.7573 357.69 54.71C357.523 54.5229 357.382 54.3144 357.27 54.09C357.238 53.8745 357.238 53.6555 357.27 53.44ZM356.33 86C355.908 85.8446 355.442 85.8626 355.034 86.05C354.625 86.2374 354.307 86.579 354.15 87C354.079 87.4371 354.079 87.8828 354.15 88.32C354.15 89.08 354.98 89.03 355.3 89.49C355.37 89.59 355.72 89.49 355.95 89.49V89.31C355.523 89.2478 355.136 89.0224 354.871 88.6812C354.606 88.34 354.484 87.9094 354.53 87.48C354.57 86.3 355.57 86.35 356.33 86ZM365.01 86.1C365.29 86.31 365.68 86.47 365.83 86.76C365.98 87.05 365.77 87.52 365.34 87.76C365.277 87.8193 365.23 87.8932 365.202 87.9751C365.174 88.057 365.166 88.1445 365.18 88.23C365.299 88.5645 365.464 88.8809 365.67 89.17C365.73 89.26 365.92 89.27 366.05 89.31C366.05 89.18 366.16 89.01 366.11 88.92C365.981 88.7215 365.919 88.4863 365.936 88.2499C365.952 88.0135 366.045 87.7889 366.2 87.61C366.371 87.407 366.46 87.1466 366.447 86.8812C366.434 86.6158 366.32 86.3653 366.13 86.18C365.72 85.73 365.32 86 365 86.14L365.01 86.1ZM323.15 87.77C322.76 87.59 322.81 87.15 322.92 86.77C323.03 86.39 322.92 86.2 322.63 86.18C322.52 86.18 322.28 86.49 322.27 86.66C322.27 87.45 322.27 88.24 322.33 89.03C322.33 89.2 322.54 89.36 322.66 89.53C322.751 89.3599 322.828 89.1826 322.89 89C323 88.6 323.05 88.24 323.15 87.77ZM331.61 86.14C331.02 85.79 330.67 85.95 330.61 86.6C330.61 87.46 330.61 88.32 330.61 89.19C330.61 89.3 330.61 89.46 330.61 89.51C330.751 89.5963 330.902 89.6635 331.06 89.71C331.06 89.56 331.24 89.4 331.22 89.27C331.055 88.751 331.005 88.2026 331.072 87.6622C331.139 87.1219 331.323 86.6026 331.61 86.14V86.14ZM347.77 86.14L347.95 86.05C347.742 85.9651 347.523 85.9112 347.3 85.89C347.16 85.89 346.92 86.1 346.93 86.21C346.93 87.03 347.05 87.84 347.14 88.66C347.185 88.897 347.245 89.1308 347.32 89.36H347.56L347.77 86.14ZM340.14 86C339.732 87.0925 339.765 88.3007 340.23 89.37C340.541 88.2633 340.509 87.0885 340.14 86V86ZM364.21 89.25L364.42 89.18C364.42 89.05 364.42 88.93 364.42 88.81C364.42 88.04 364.42 87.27 364.42 86.5C364.385 86.3003 364.318 86.1077 364.22 85.93C364.09 86.1 363.87 86.28 363.86 86.46C363.86 87.21 363.86 87.97 363.86 88.72C363.94 88.9273 364.059 89.1174 364.21 89.28V89.25ZM332.53 86.35C333.53 87.24 333.4 88.21 332.73 89.25C332.926 89.1946 333.109 89.0996 333.267 88.9709C333.425 88.8422 333.554 88.6824 333.648 88.5015C333.742 88.3207 333.797 88.1225 333.812 87.9193C333.826 87.716 333.798 87.5121 333.73 87.32C333.57 86.61 333.13 86.23 332.53 86.38V86.35ZM357 89C357.238 88.8859 357.444 88.7148 357.6 88.5018C357.756 88.2888 357.856 88.0406 357.893 87.7792C357.93 87.5179 357.901 87.2515 357.81 87.0039C357.719 86.7563 357.568 86.5351 357.37 86.36C357.27 86.26 357.08 86.26 356.93 86.22C356.93 86.36 356.93 86.55 356.93 86.65C357.124 86.8947 357.252 87.1846 357.303 87.4925C357.353 87.8004 357.325 88.1161 357.22 88.41C357.17 88.63 357.07 88.82 357 89ZM348.3 44.49L348.17 44.26L346.06 45.4L346.15 45.57C346.89 45.27 347.8 45.31 348.28 44.51L348.3 44.49ZM343.13 47L341.38 47.87C341.552 47.9369 341.735 47.9672 341.919 47.959C342.103 47.9508 342.283 47.9042 342.448 47.8223C342.612 47.7404 342.758 47.6249 342.876 47.4833C342.993 47.3417 343.08 47.1771 343.13 47V47ZM348.93 43.83L349 44C350 43.82 350.59 43.5 350.69 42.86L348.93 43.83ZM345.58 45.71C345.05 45.94 344.49 45.91 344.27 46.5C344.94 46.68 345.29 46.47 345.58 45.75V45.71ZM363.58 61.07L363.49 60.86L362.58 61.22L362.66 61.42L363.58 61.07ZM323.21 89.56C323.7 89.91 323.82 89.9 324.1 89.44L323.21 89.56Z" fill="black"/>
<path d="M359.19 53.6L360.03 53.07C360.68 52.63 360.81 52.34 360.47 51.64C360 50.73 359.5 49.86 359 49C358.79 48.65 358.47 48.72 358.14 48.84C357.81 48.96 357.52 49.04 357.14 49.15C357.28 47.77 356.42 46.87 355.9 45.85C355.3 44.66 354.58 43.53 353.9 42.35C353.55 41.72 353.48 41.7 352.9 42.15C352.699 42.3406 352.459 42.4851 352.197 42.5731C351.934 42.6612 351.655 42.6909 351.38 42.66L351.31 42.5C351.78 42.23 352.31 41.97 352.73 41.68C352.89 41.57 353.1 41.37 353.1 41.21C353.087 41.1032 353.049 41.0009 352.99 40.9108C352.931 40.8207 352.853 40.7452 352.76 40.69C352.65 40.63 352.41 40.81 352.24 40.9C352.07 40.99 351.65 41.28 351.34 41.45C350.57 41.87 349.8 42.28 349.04 42.71C348.28 43.14 347.61 43.52 346.89 43.91C346.63 44.05 346.34 44.14 346.07 44.29C344.77 45.01 343.48 45.75 342.17 46.46C341.73 46.7 341.24 46.85 340.8 47.1C340.397 47.3275 340.019 47.5956 339.67 47.9C339.601 47.97 339.551 48.0559 339.523 48.15C339.495 48.2442 339.491 48.3437 339.51 48.44C339.51 48.57 339.84 48.59 340.03 48.65C340.096 48.6598 340.164 48.6598 340.23 48.65C340.23 48.71 340.3 48.76 340.29 48.77C339.65 49.6 340.29 50.23 340.64 50.9C341.433 52.3 342.22 53.6666 343 55C344.14 57 345.31 59 346.44 61.09C347.57 63.18 348.52 65 349.58 67C349.667 67.1656 349.764 67.3259 349.87 67.48C349.904 67.5525 349.954 67.6164 350.016 67.6668C350.078 67.7172 350.151 67.753 350.229 67.7712C350.307 67.7895 350.388 67.7899 350.466 67.7724C350.544 67.7548 350.618 67.7198 350.68 67.67C352.407 66.71 354.14 65.76 355.88 64.82C357.51 63.95 359.14 63.1 360.78 62.25C361.006 62.1545 361.24 62.0808 361.48 62.03C361.48 62.8 361.39 63.46 361.39 64.13C361.39 65.75 361.39 67.37 361.39 68.99C361.39 69.81 361.13 69.99 360.33 69.99C358.87 69.99 357.41 69.99 355.94 69.99C354.75 69.99 353.55 69.93 352.35 69.92C351.35 69.92 350.44 69.92 349.48 69.92C348.29 69.92 347.11 70.04 345.93 70.04C344.75 70.04 343.57 69.99 342.39 69.96C342.15 69.96 341.9 69.96 341.66 69.96C340.82 69.96 339.97 69.96 339.13 69.96C338.7 69.96 338.67 69.56 338.67 69.23C338.67 67.75 338.59 66.23 338.58 64.77C338.58 60.83 338.5 56.9 338.46 52.96C338.46 50.59 338.46 48.21 338.39 45.84C338.31 39.4733 338.233 33.1066 338.16 26.74C338.16 26.07 338.33 25.88 339.03 25.88L349.42 25.81L360.42 25.72C361.17 25.72 361.27 25.79 361.29 26.56C361.29 28.16 361.29 29.76 361.29 31.36C361.29 34.83 361.29 38.29 361.29 41.76C361.29 45.76 361.29 49.67 361.29 53.63C361.315 54.3027 361.479 54.963 361.77 55.57C362.45 57.01 363.23 58.41 363.96 59.83C364.02 59.93 364.11 60.04 364.11 60.13C364.082 60.2819 364.035 60.4296 363.97 60.57C363.85 60.5 363.68 60.46 363.63 60.36C363.1 59.36 362.63 58.36 362.08 57.36C361.53 56.36 361 55.09 360.42 54C360.33 53.83 360 53.76 359.77 53.71C359.594 53.7043 359.418 53.728 359.25 53.78L359.19 53.6ZM356.19 33.51V33.42C356.54 33.42 356.9 33.42 357.26 33.42C357.93 33.42 358.01 33.25 357.91 32.57C357.62 30.64 355.62 29.06 353.91 28.63C353.383 28.5585 352.864 28.438 352.36 28.27C351.859 28.0614 351.302 28.0297 350.78 28.18C350.574 28.205 350.366 28.205 350.16 28.18C349.642 28.1252 349.121 28.1052 348.6 28.12C347.613 28.1485 346.632 28.2962 345.68 28.56C344.605 28.8799 343.633 29.4765 342.86 30.29C342.221 30.9493 341.814 31.7988 341.7 32.71C341.64 33.39 341.78 33.55 342.47 33.55H347.16L356.19 33.51ZM351.71 36.65C351.682 36.9459 351.716 37.2445 351.812 37.5259C351.908 37.8073 352.063 38.0649 352.267 38.2817C352.47 38.4984 352.718 38.6693 352.992 38.7828C353.267 38.8963 353.563 38.9499 353.86 38.94C354.442 38.9102 354.994 38.6694 355.412 38.2627C355.829 37.8561 356.085 37.3112 356.13 36.73C356.166 36.0844 355.947 35.4505 355.521 34.9644C355.095 34.4783 354.495 34.1787 353.85 34.13C353.541 34.1457 353.239 34.2246 352.962 34.3619C352.684 34.4992 352.438 34.6919 352.239 34.9282C352.039 35.1644 351.89 35.4391 351.801 35.7353C351.712 36.0314 351.684 36.3428 351.72 36.65H351.71ZM345.86 39.05C346.409 39.0386 346.933 38.8215 347.33 38.4419C347.726 38.0623 347.965 37.5477 348 37C348.066 36.3834 347.896 35.7648 347.526 35.2679C347.155 34.771 346.61 34.4324 346 34.32C345.692 34.2995 345.384 34.3448 345.095 34.453C344.806 34.5612 344.543 34.7298 344.325 34.9474C344.106 35.1651 343.937 35.4268 343.827 35.7153C343.718 36.0037 343.671 36.3121 343.69 36.62C343.619 36.9318 343.624 37.256 343.705 37.5655C343.785 37.875 343.938 38.1608 344.152 38.3988C344.365 38.6368 344.633 38.8201 344.932 38.9334C345.231 39.0467 345.553 39.0867 345.87 39.05H345.86Z" fill="white"/>
<path d="M351.16 78.6299C351.16 78.9699 351.08 79.1699 351.08 79.3599C351.08 80.6399 351.08 81.9199 351.08 83.1999C351.093 83.2937 351.086 83.3891 351.06 83.4801C351.034 83.5711 350.99 83.6558 350.929 83.729C350.869 83.8021 350.795 83.8621 350.711 83.9053C350.627 83.9485 350.534 83.9739 350.44 83.9799C349.35 84.1699 349.02 83.8299 349.07 82.6999C349.07 81.6999 349.07 80.7899 349.07 79.8199C349.07 78.4699 349.07 77.1199 349.07 75.7599C349.034 75.3542 349.128 74.9477 349.338 74.5989C349.549 74.2502 349.864 73.9774 350.24 73.8199C350.637 73.6543 351.075 73.6163 351.495 73.7113C351.914 73.8063 352.293 74.0295 352.58 74.3499C352.913 74.7321 353.211 75.1438 353.47 75.5799C353.92 76.2699 354.33 76.9899 354.78 77.6799C355.01 78.0399 355.26 78.0099 355.46 77.6799C355.92 76.8599 356.41 76.0599 356.83 75.2199C356.968 74.8624 357.211 74.5548 357.527 74.3372C357.843 74.1197 358.217 74.0021 358.6 73.9999C360.85 73.9999 363.09 73.9999 365.33 73.9399C365.79 73.9399 366 74.1299 366 74.5699C366 74.7599 366 74.9499 366 75.1399C366 75.5799 365.78 75.7099 365.35 75.6999C364.17 75.6999 362.99 75.6999 361.81 75.6999C361.15 75.6999 361 75.8899 360.97 76.5699C360.9 77.9799 360.97 78.0799 362.43 78.0599H365.19C365.89 78.0599 366.01 78.1799 366.07 79.0599C366.07 79.6799 365.96 79.8999 365.31 79.9199C364.21 79.9199 363.1 79.9199 361.99 79.9199C361.22 79.9199 360.99 79.9999 360.99 80.7599C360.98 80.9464 360.98 81.1334 360.99 81.3199C360.99 81.9599 361.23 82.1499 361.87 82.1499C362.87 82.1499 363.87 82.1499 364.87 82.1499C365.344 82.1973 365.815 82.2741 366.28 82.3799V82.5299C366.28 82.5299 366.36 82.4799 366.36 82.4599C366.36 80.7299 366.36 78.9999 366.36 77.2699C366.36 76.4399 366.36 75.6199 366.36 74.7899C366.347 74.686 366.357 74.5805 366.392 74.4815C366.426 74.3825 366.482 74.2927 366.557 74.2192C366.631 74.1456 366.722 74.0903 366.821 74.0574C366.921 74.0246 367.026 74.0152 367.13 74.0299C369.38 74.0299 371.62 73.9499 373.86 74.0299C374.362 74.0426 374.854 74.1711 375.298 74.4052C375.742 74.6394 376.126 74.9729 376.42 75.3799C377.233 76.384 377.675 77.6379 377.67 78.9299C377.67 80.9299 376.74 82.9299 374.61 83.5599C373.744 83.7886 372.855 83.9228 371.96 83.9599C370.5 84.0199 369.04 83.9599 367.58 83.9599C367.204 83.9135 366.832 83.8331 366.47 83.7199C366.35 83.7199 366.19 83.6499 366.1 83.7199C365.365 84.0173 364.564 84.1139 363.78 83.9999C362.62 83.9999 361.46 84.0599 360.29 83.9999C359.62 83.9926 358.951 83.9324 358.29 83.8199C357.79 83.7399 357.73 83.2899 357.72 82.8899C357.72 81.7199 357.72 80.5499 357.72 79.3899C357.72 79.1499 357.72 78.9099 357.66 78.6699L357.4 78.4699C357.34 78.6407 357.27 78.8077 357.19 78.9699C356.397 80.3232 355.62 81.6899 354.86 83.0699C354.47 83.7599 354.18 83.7699 353.8 83.0699L351.53 79.0699C351.416 78.9159 351.292 78.7689 351.16 78.6299V78.6299ZM370 78.9999C370 79.5199 370 79.9999 370.07 80.5799C370.18 82.1899 370.19 82.1899 371.81 82.0899C372.332 82.1033 372.84 81.9209 373.234 81.5785C373.628 81.2361 373.88 80.7586 373.94 80.2399C374.067 79.3678 374.033 78.4797 373.84 77.6199C373.65 76.8399 373.35 75.9199 372.35 75.7399C371.864 75.6954 371.376 75.6954 370.89 75.7399C370.17 75.7399 370.05 75.8599 370.02 76.5899C369.99 77.3199 370 78.1599 370 78.9999Z" fill="white"/>
<path d="M333.4 79.9299C333.4 79.1999 333.4 78.4699 333.4 77.7399C333.4 76.7399 333.4 75.8099 333.34 74.8499C333.34 74.3799 333.48 74.1099 334.01 74.1099C336.35 74.1099 338.68 74.0099 341.01 74.1099C341.481 74.0797 341.952 74.1536 342.391 74.3264C342.83 74.4993 343.226 74.7668 343.55 75.1099C343.806 75.4249 343.988 75.7932 344.083 76.1878C344.178 76.5823 344.183 76.9932 344.099 77.3901C344.015 77.7871 343.842 78.1602 343.595 78.482C343.348 78.8038 343.032 79.0661 342.67 79.2499C342.537 79.3203 342.41 79.4005 342.29 79.4899C342.198 79.5392 342.119 79.6091 342.059 79.6942C342 79.7792 341.96 79.877 341.945 79.9799C341.929 80.0827 341.938 80.1878 341.97 80.2867C342.002 80.3857 342.057 80.4758 342.13 80.5499C342.69 81.3699 343.26 82.1899 343.82 83.0199C344.11 83.4599 344.05 83.6799 343.54 83.8599C343.255 83.9494 342.959 83.9999 342.66 84.0099C341.967 84.045 341.273 84.045 340.58 84.0099C340.436 83.9985 340.297 83.958 340.17 83.891C340.043 83.8239 339.93 83.7317 339.84 83.6199C339.03 82.3099 338.25 80.9699 337.5 79.6199C337.21 79.0999 337.32 78.9499 337.91 78.9399C338.25 78.9399 338.59 78.9399 338.91 78.9399C339.085 78.9273 339.256 78.8799 339.413 78.8003C339.57 78.7207 339.709 78.6107 339.823 78.4765C339.936 78.3424 340.022 78.1869 340.075 78.0192C340.128 77.8515 340.146 77.6749 340.13 77.4999C340.13 76.3499 339.79 75.9199 338.89 75.8099C338.591 75.773 338.291 75.7563 337.99 75.7599C337.11 75.7599 336.89 75.9499 336.9 76.8499C336.91 77.7499 336.9 78.8499 336.95 79.8499C337 80.8499 336.95 82.0299 336.95 83.1299C336.95 83.6499 336.73 83.9899 336.21 83.9999C334.64 83.9999 333.06 83.9999 331.49 83.9999C331.401 83.9819 331.318 83.946 331.244 83.8944C331.17 83.8428 331.107 83.7766 331.06 83.6999C330.925 83.4944 330.818 83.2726 330.74 83.0399C330.35 82.1199 330.05 81.9499 329.06 82.0399C328.07 82.1299 327.15 82.0399 326.2 82.1199C325.951 82.1186 325.711 82.2102 325.526 82.3766C325.341 82.543 325.225 82.7724 325.2 83.0199C325.04 83.7999 324.79 84.0199 323.97 84.0799C323.64 84.0799 323.3 84.1799 322.97 84.1999C322.42 84.1999 322.19 83.9099 322.41 83.4099C323.63 80.6499 324.84 77.8999 326.12 75.1699C326.35 74.7516 326.702 74.4129 327.128 74.1987C327.555 73.9844 328.037 73.9047 328.51 73.9699C328.925 73.934 329.34 74.0284 329.699 74.2399C330.057 74.4514 330.341 74.7695 330.51 75.1499C331.31 76.7199 332.16 78.2699 332.99 79.8199C333.07 79.9253 333.164 80.0195 333.27 80.0999L333.4 79.9299ZM327.85 77.2199C327.7 77.2899 327.63 77.2999 327.61 77.3399C327.24 78.1099 326.85 78.8799 326.52 79.6599C326.4 79.9699 326.6 80.1699 326.93 80.1699C327.509 80.2 328.09 80.2 328.67 80.1699C328.8 80.1699 329.02 79.8699 328.99 79.7899C328.64 78.9099 328.24 78.0699 327.85 77.2199V77.2199Z" fill="white"/>
<path d="M346.53 70.8899H353.2C353.65 70.8899 354.09 70.8899 354.14 71.4899C354.2 72.3299 354.04 72.5999 353.35 72.7199C353.129 72.763 352.905 72.7864 352.68 72.7899C351.57 72.7899 350.46 72.7899 349.36 72.6999C348.99 72.6999 348.82 72.8399 348.81 73.1799C348.81 74.4499 348.76 75.7299 348.75 77.0099C348.74 78.2899 348.75 79.7499 348.75 81.1199V82.9899C348.75 83.6799 348.55 83.9299 347.87 83.9899C347.35 83.9899 346.87 83.9899 346.3 83.9899C346.037 83.975 345.773 83.975 345.51 83.9899C344.86 84.0799 344.67 83.9899 344.65 83.2999C344.65 81.6699 344.58 80.0299 344.56 78.3899C344.54 76.7499 344.56 75.1899 344.56 73.5899C344.56 73.0099 344.34 72.7999 343.77 72.8199L340.29 72.9299C339.41 72.9299 338.98 72.7199 338.94 72.0999C338.87 71.1699 339.02 71.0099 339.94 71.0099C342.12 71.0099 344.31 71.0099 346.49 71.0099L346.53 70.8899Z" fill="white"/>
<path d="M374.21 88.1699C374.47 87.6899 374.43 87.3699 373.91 86.8799C373.785 87.0869 373.672 87.3005 373.57 87.5199C373.36 88.0399 373.2 88.5899 372.97 89.0999C372.9 89.2699 372.66 89.3599 372.5 89.4899C372.467 89.3114 372.467 89.1284 372.5 88.9499C372.81 88.1199 373.12 87.2899 373.5 86.4899C373.6 86.2599 373.86 86.0999 374.04 85.8999C374.23 86.0899 374.48 86.2499 374.58 86.4799C374.93 87.2899 375.25 88.1099 375.58 88.9299C375.61 89.0986 375.61 89.2712 375.58 89.4399C375.4 89.3874 375.231 89.3027 375.08 89.1899C374.72 88.8899 374.49 88.5399 374.21 88.1699Z" fill="white"/>
<path d="M357.27 53.4401C357.236 53.6621 357.236 53.888 357.27 54.1101C357.382 54.3345 357.523 54.543 357.69 54.7301C357.505 54.7774 357.309 54.7662 357.13 54.6982C356.951 54.6302 356.797 54.5086 356.69 54.3501C356.123 53.7053 355.618 53.009 355.18 52.2701C354.936 51.6915 354.817 51.0679 354.83 50.4401C354.83 50.2401 355.17 50.0201 355.36 49.8101L355.55 49.9401C355.507 50.0675 355.474 50.1978 355.45 50.3301C355.45 50.4701 355.33 50.7001 355.39 50.7501C355.81 51.1101 355.69 51.4801 355.52 51.9001C355.35 52.3201 355.58 52.4001 355.92 52.4101C356.26 52.4201 356.37 52.5001 356.33 52.8501C356.24 53.5001 356.33 53.5701 356.98 53.4601L357.27 53.4401Z" fill="white"/>
<path d="M356.33 85.9999C355.57 86.3099 354.57 86.2599 354.53 87.4699C354.503 87.6895 354.519 87.9124 354.578 88.1257C354.637 88.339 354.737 88.5385 354.874 88.7125C355.011 88.8865 355.181 89.0316 355.374 89.1393C355.568 89.247 355.78 89.3152 356 89.3399V89.5199C355.77 89.5199 355.42 89.5999 355.35 89.5199C355.03 89.0599 354.19 89.1099 354.2 88.3499C354.13 87.9128 354.13 87.4671 354.2 87.0299C354.352 86.6152 354.659 86.2759 355.057 86.0836C355.454 85.8914 355.911 85.8614 356.33 85.9999V85.9999Z" fill="white"/>
<path d="M365 86.14C365.31 86.01 365.71 85.73 366.12 86.2C366.31 86.3852 366.424 86.6358 366.437 86.9012C366.45 87.1666 366.361 87.427 366.19 87.63C366.035 87.8089 365.942 88.0335 365.926 88.2699C365.909 88.5063 365.971 88.7415 366.1 88.94C366.1 89.03 366.1 89.2 366.04 89.33C365.91 89.33 365.72 89.33 365.66 89.19C365.454 88.9009 365.289 88.5845 365.17 88.25C365.156 88.1645 365.164 88.077 365.192 87.9951C365.219 87.9132 365.267 87.8393 365.33 87.78C365.76 87.56 366.03 87.23 365.82 86.78C365.61 86.33 365.29 86.35 365 86.14Z" fill="white"/>
<path d="M323.15 87.7701C323.05 88.2401 322.99 88.6001 322.89 88.9501C322.828 89.1327 322.751 89.31 322.66 89.4801C322.54 89.3101 322.35 89.1501 322.33 88.9801C322.33 88.1901 322.25 87.4001 322.27 86.6101C322.27 86.4401 322.52 86.1201 322.63 86.1301C322.96 86.1301 323 86.4101 322.92 86.7201C322.84 87.0301 322.76 87.5901 323.15 87.7701Z" fill="white"/>
<path d="M331.61 86.1399C331.346 86.613 331.187 87.1375 331.144 87.6776C331.101 88.2177 331.175 88.7608 331.36 89.2699C331.36 89.3999 331.25 89.5599 331.2 89.7099C331.042 89.6634 330.891 89.5962 330.75 89.5099C330.69 89.4599 330.75 89.2999 330.75 89.1899C330.75 88.3199 330.75 87.4599 330.75 86.5999C330.67 85.9999 331 85.7899 331.61 86.1399Z" fill="white"/>
<path d="M347.77 86.1799L347.56 89.3899H347.32C347.244 89.1608 347.184 88.9269 347.14 88.6899C347.05 87.8699 346.97 87.0599 346.93 86.2399C346.93 86.1299 347.16 85.9299 347.3 85.9199C347.523 85.9411 347.742 85.995 347.95 86.0799L347.77 86.1799Z" fill="white"/>
<path d="M340.14 86C340.509 87.0886 340.54 88.2633 340.23 89.37C339.764 88.3008 339.732 87.0926 340.14 86V86Z" fill="white"/>
<path d="M364.21 89.28C364.104 89.1173 364.026 88.9382 363.98 88.75C363.98 88 363.92 87.24 363.98 86.49C363.98 86.31 364.21 86.13 364.34 85.96C364.437 86.1377 364.505 86.3303 364.54 86.53C364.54 87.3 364.54 88.07 364.54 88.84C364.54 88.96 364.54 89.08 364.54 89.21L364.21 89.28Z" fill="white"/>
<path d="M332.53 86.3799C333.13 86.2299 333.53 86.6099 333.76 87.3799C333.828 87.572 333.856 87.776 333.842 87.9792C333.828 88.1824 333.772 88.3806 333.678 88.5615C333.585 88.7424 333.455 88.9021 333.297 89.0308C333.139 89.1596 332.956 89.2545 332.76 89.3099C333.4 88.2399 333.52 87.2699 332.53 86.3799Z" fill="white"/>
<path d="M357 89C357.09 88.8 357.19 88.61 357.26 88.41C357.365 88.1213 357.397 87.8108 357.351 87.5069C357.306 87.203 357.185 86.9152 357 86.67C356.93 86.57 357 86.38 357 86.24C357.15 86.24 357.34 86.24 357.44 86.38C357.631 86.5604 357.774 86.785 357.857 87.0339C357.941 87.2828 357.962 87.5484 357.918 87.8073C357.875 88.0662 357.768 88.3104 357.608 88.5184C357.448 88.7264 357.239 88.8918 357 89Z" fill="white"/>
<path d="M348.28 44.51C347.8 45.31 346.89 45.27 346.15 45.57L346.06 45.4L348.15 44.28L348.28 44.51Z" fill="white"/>
<path d="M343.13 47C343.08 47.1771 342.993 47.3417 342.876 47.4833C342.758 47.6249 342.612 47.7404 342.447 47.8223C342.283 47.9043 342.103 47.9508 341.919 47.959C341.735 47.9672 341.551 47.9369 341.38 47.87L343.13 47Z" fill="white"/>
<path d="M348.93 43.8701L350.72 42.8701C350.62 43.5101 350.08 43.8701 349.03 44.0101L348.93 43.8701Z" fill="white"/>
<path d="M345.58 45.75C345.29 46.47 344.94 46.68 344.27 46.54C344.49 46 345.05 46 345.58 45.75Z" fill="white"/>
<path d="M363.61 61.1099L362.69 61.4599L362.61 61.2599L363.52 60.8999L363.61 61.1099Z" fill="white"/>
<path d="M323.21 89.5599L324.1 89.4399C323.82 89.8999 323.7 89.9099 323.21 89.5599Z" fill="white"/>
<path d="M356.2 33.5101H347.2H342.51C341.82 33.5101 341.68 33.3501 341.74 32.6701C341.854 31.7589 342.261 30.9094 342.9 30.2501C343.672 29.4366 344.645 28.84 345.72 28.5201C346.672 28.2563 347.653 28.1086 348.64 28.0801C349.161 28.0653 349.682 28.0853 350.2 28.1401C350.406 28.1651 350.614 28.1651 350.82 28.1401C351.342 27.9898 351.899 28.0215 352.4 28.2301C352.904 28.398 353.423 28.5186 353.95 28.5901C355.66 29.0201 357.66 30.5901 357.95 32.5301C358.05 33.2101 357.95 33.3401 357.3 33.3801C356.94 33.3801 356.58 33.3801 356.23 33.3801L356.2 33.5101Z" fill="black"/>
<path d="M351.72 36.6499C351.684 36.3419 351.712 36.0297 351.802 35.7329C351.892 35.4361 352.042 35.1609 352.242 34.9246C352.443 34.6882 352.69 34.4956 352.969 34.3589C353.247 34.2222 353.551 34.1443 353.86 34.1299C354.505 34.1786 355.105 34.4782 355.531 34.9643C355.958 35.4504 356.176 36.0843 356.14 36.7299C356.095 37.3111 355.84 37.856 355.422 38.2627C355.004 38.6693 354.453 38.9101 353.87 38.9399C353.573 38.9498 353.277 38.8962 353.003 38.7827C352.728 38.6692 352.48 38.4983 352.277 38.2816C352.073 38.0648 351.919 37.8072 351.823 37.5258C351.727 37.2444 351.692 36.9458 351.72 36.6499V36.6499Z" fill="black"/>
<path d="M345.87 39.05C345.55 39.0921 345.225 39.0561 344.922 38.9451C344.619 38.8341 344.347 38.6514 344.13 38.4127C343.913 38.174 343.757 37.8862 343.675 37.574C343.593 37.2619 343.588 36.9345 343.66 36.62C343.64 36.3094 343.688 35.9982 343.799 35.7076C343.91 35.4169 344.083 35.1536 344.305 34.9354C344.526 34.7172 344.793 34.5494 345.085 34.4432C345.378 34.337 345.69 34.295 346 34.32C346.61 34.4324 347.155 34.771 347.525 35.2679C347.896 35.7648 348.066 36.3835 348 37C347.965 37.546 347.727 38.0592 347.333 38.4386C346.939 38.818 346.417 39.0361 345.87 39.05V39.05Z" fill="black"/>
<path d="M370 79C370 78.21 370 77.41 370 76.62C370 75.83 370.15 75.7899 370.87 75.7699C371.355 75.7254 371.844 75.7254 372.33 75.7699C373.33 75.9499 373.63 76.87 373.82 77.65C374.013 78.5098 374.047 79.3979 373.92 80.2699C373.832 80.7757 373.562 81.2315 373.16 81.5506C372.757 81.8696 372.252 82.0296 371.74 82C370.12 82.1 370.11 82.0999 370 80.4899C370 79.9599 370 79.43 369.93 78.91L370 79Z" fill="black"/>
<path d="M327.85 77.22C328.24 78.07 328.64 78.91 328.99 79.76C328.99 79.84 328.8 80.13 328.67 80.14C328.091 80.17 327.51 80.17 326.93 80.14C326.6 80.14 326.4 79.94 326.52 79.63C326.85 78.85 327.24 78.08 327.61 77.31C327.63 77.3 327.7 77.29 327.85 77.22Z" fill="black"/>
<path d="M635.384 78.0034C634.396 77.9717 633.414 78.1598 632.508 78.5539C632.067 78.7329 631.66 78.9876 631.306 79.3066C631.306 79.3066 631.306 79.3066 631.306 79.374V81.4636C631.306 81.5759 631.306 81.7669 631.385 81.6433L631.587 81.4074C631.893 81.1076 632.224 80.8333 632.575 80.5873L632.811 80.4525L632.98 80.3402C633.737 79.9692 634.576 79.7953 635.418 79.8346C637.283 79.8346 637.754 80.5873 637.754 81.5535C637.114 83.0027 633.542 82.6095 631.823 84.1374C631.786 84.1682 631.752 84.202 631.722 84.2385V84.2385L631.643 84.3396C631.577 84.4094 631.517 84.4846 631.463 84.5643V84.5643C631.443 84.5997 631.421 84.6335 631.396 84.6654C631.118 85.1455 630.981 85.6948 631.003 86.2494C630.979 86.8185 631.115 87.3829 631.396 87.8784V87.8784C631.396 87.8784 631.396 87.957 631.396 87.9907C631.427 88.0242 631.454 88.0621 631.475 88.1031V88.1031C631.479 88.1175 631.486 88.1309 631.496 88.1425C631.505 88.1541 631.517 88.1636 631.531 88.1705V88.1705C631.996 88.6677 632.569 89.0526 633.206 89.2958C633.842 89.5391 634.526 89.6345 635.204 89.5748C636.125 89.6012 637.046 89.5448 637.957 89.4063C638.697 89.2524 639.412 88.9952 640.08 88.6423V81.6658C640.024 79.3516 638.395 78.0034 635.384 78.0034ZM637.777 83.6206V87.6986C637.021 87.8885 636.243 87.9792 635.463 87.9683C633.879 87.9683 633.216 87.3054 633.216 86.328C633.216 84.216 636.732 84.7328 637.653 83.7891C637.693 83.7572 637.727 83.7193 637.754 83.6768V83.6768L637.777 83.6206Z" fill="white"/>
<path d="M10.1 172H7.5V177.5H2V180.1H7.5V185.6H10.1V180.1H15.6V177.5H10.1V172Z" fill="#144E52"/>
<path d="M66.5008 172H63.8008V177.5H58.3008V180.1H63.8008V185.6H66.5008V180.1H72.0008V177.5H66.5008V172Z" fill="#144E52"/>
<path d="M122.8 172H120.2V177.5H114.7V180.1H120.2V185.6H122.8V180.1H128.3V177.5H122.8V172Z" fill="#144E52"/>
<path d="M179.2 172H176.5V177.5H171V180.1H176.5V185.6H179.2V180.1H184.7V177.5H179.2V172Z" fill="#144E52"/>
<path d="M235.5 172H232.9V177.5H227.4V180.1H232.9V185.6H235.5V180.1H241V177.5H235.5V172Z" fill="#144E52"/>
<path d="M10.1 226.6H7.5V232.1H2V234.7H7.5V240.2H10.1V234.7H15.6V232.1H10.1V226.6Z" fill="#144E52"/>
<path d="M66.5008 226.6H63.8008V232.1H58.3008V234.7H63.8008V240.2H66.5008V234.7H72.0008V232.1H66.5008V226.6Z" fill="#144E52"/>
<path d="M122.8 226.6H120.2V232.1H114.7V234.7H120.2V240.2H122.8V234.7H128.3V232.1H122.8V226.6Z" fill="#144E52"/>
<path d="M179.2 226.6H176.5V232.1H171V234.7H176.5V240.2H179.2V234.7H184.7V232.1H179.2V226.6Z" fill="#144E52"/>
<path d="M235.5 226.6H232.9V232.1H227.4V234.7H232.9V240.2H235.5V234.7H241V232.1H235.5V226.6Z" fill="#144E52"/>
<path d="M291.9 172H289.2V177.5H283.7V180.1H289.2V185.6H291.9V180.1H297.4V177.5H291.9V172Z" fill="#144E52"/>
<path d="M348.201 172H345.601V177.5H340.101V180.1H345.601V185.6H348.201V180.1H353.701V177.5H348.201V172Z" fill="#144E52"/>
<path d="M404.6 172H401.9V177.5H396.4V180.1H401.9V185.6H404.6V180.1H410.1V177.5H404.6V172Z" fill="#144E52"/>
<path d="M460.901 172H458.301V177.5H452.801V180.1H458.301V185.6H460.901V180.1H466.401V177.5H460.901V172Z" fill="#144E52"/>
<path d="M291.9 226.6H289.2V232.1H283.7V234.7H289.2V240.2H291.9V234.7H297.4V232.1H291.9V226.6Z" fill="#144E52"/>
<path d="M348.201 226.6H345.601V232.1H340.101V234.7H345.601V240.2H348.201V234.7H353.701V232.1H348.201V226.6Z" fill="#144E52"/>
<path d="M404.6 226.6H401.9V232.1H396.4V234.7H401.9V240.2H404.6V234.7H410.1V232.1H404.6V226.6Z" fill="#144E52"/>
<path d="M460.901 226.6H458.301V232.1H452.801V234.7H458.301V240.2H460.901V234.7H466.401V232.1H460.901V226.6Z" fill="#144E52"/>
<path d="M460.901 172H458.301V177.5H452.801V180.1H458.301V185.6H460.901V180.1H466.401V177.5H460.901V172Z" fill="#144E52"/>
<path d="M517.301 172H514.601V177.5H509.101V180.1H514.601V185.6H517.301V180.1H522.801V177.5H517.301V172Z" fill="#144E52"/>
<path d="M573.6 172H571V177.5H565.5V180.1H571V185.6H573.6V180.1H579.1V177.5H573.6V172Z" fill="#144E52"/>
<path d="M630.001 172H627.301V177.5H621.801V180.1H627.301V185.6H630.001V180.1H635.501V177.5H630.001V172Z" fill="#144E52"/>
<path d="M686.3 172H683.7V177.5H678.2V180.1H683.7V185.6H686.3V180.1H691.8V177.5H686.3V172Z" fill="#144E52"/>
<path d="M460.901 226.6H458.301V232.1H452.801V234.7H458.301V240.2H460.901V234.7H466.401V232.1H460.901V226.6Z" fill="#144E52"/>
<path d="M517.301 226.6H514.601V232.1H509.101V234.7H514.601V240.2H517.301V234.7H522.801V232.1H517.301V226.6Z" fill="#144E52"/>
<path d="M573.6 226.6H571V232.1H565.5V234.7H571V240.2H573.6V234.7H579.1V232.1H573.6V226.6Z" fill="#144E52"/>
<path d="M630.001 226.6H627.301V232.1H621.801V234.7H627.301V240.2H630.001V234.7H635.501V232.1H630.001V226.6Z" fill="#144E52"/>
<path d="M686.3 226.6H683.7V232.1H678.2V234.7H683.7V240.2H686.3V234.7H691.8V232.1H686.3V226.6Z" fill="#144E52"/>
</svg>
