<svg viewBox="0 0 724 264" fill="none" xmlns="http://www.w3.org/2000/svg">
<path d="M103.161 7H3.05078V107.11H103.161V7Z" fill="#231F20"/>
<path d="M47.5505 74.5203C47.3609 74.3599 47.1486 74.2285 46.9205 74.1303H46.8305C46.3997 73.9811 45.9465 73.9067 45.4905 73.9103C45.0844 73.9139 44.6795 73.9541 44.2805 74.0303L43.4605 74.2103C43.0005 74.3003 42.3505 74.4003 41.5605 74.5003V83.7303C41.5605 84.3803 43.6205 84.1703 43.6205 84.1703V75.8503L44.8105 75.6303C44.9486 75.5964 45.089 75.573 45.2305 75.5603C45.6699 75.5259 46.1107 75.6051 46.5105 75.7903C46.8837 75.9864 47.2217 76.2432 47.5105 76.5503L47.5505 74.5203Z" fill="white"/>
<path d="M64.6505 81.1602C64.6505 81.0402 64.5805 81.1602 64.5205 81.1602C64.4605 81.1602 64.4505 81.2402 64.2205 81.4502C63.9905 81.6602 64.0205 81.6302 63.7105 81.8802L63.4605 82.0402C62.7517 82.4664 61.9374 82.6847 61.1105 82.6702C59.4705 82.6702 58.8005 82.0202 58.8005 80.7402V79.7202C59.4255 80.0135 60.1102 80.1573 60.8005 80.1402C63.8005 80.1402 64.8005 78.7102 64.8005 77.0802C64.8005 75.2202 63.4605 73.9902 60.8005 73.9902C58.1405 73.9902 56.7305 75.2202 56.7305 77.2802V81.1102C56.7305 83.1102 58.3705 84.3902 61.0905 84.3902C61.865 84.4056 62.6354 84.2732 63.3605 84.0002L63.7705 83.8202C64.1122 83.6826 64.417 83.4668 64.6605 83.1902L64.6505 81.1602ZM58.8105 77.6302C58.8105 76.3502 59.2305 75.6302 60.8105 75.6302C62.3905 75.6302 62.8105 76.2502 62.8105 77.1502C62.8105 78.0502 62.2405 78.5502 60.5905 78.5502C60.0007 78.5335 59.4157 78.4393 58.8505 78.2702L58.8105 77.6302Z" fill="white"/>
<path d="M68.2504 77.0101C68.2504 76.0101 68.8204 75.6101 70.3704 75.6101C70.9831 75.5956 71.5932 75.6939 72.1704 75.9001L72.7504 76.1701L73.3304 76.5501C73.4304 76.6201 73.7204 76.8601 73.8304 76.9501C73.9404 77.0401 73.8304 76.9501 73.8304 76.8501V75.0801C73.8304 74.9401 73.2204 74.5201 72.9804 74.4001L72.8104 74.3301C71.9959 74.0242 71.1301 73.8782 70.2604 73.9001C67.5804 73.9001 66.1504 74.9801 66.1504 77.0701C66.1504 81.2701 72.4404 78.7201 72.4404 81.1701C72.4404 82.1701 71.5004 82.6801 70.2604 82.6801C69.409 82.7165 68.5643 82.5157 67.8204 82.1001C67.7852 82.0694 67.7445 82.0456 67.7004 82.0301C67.4421 81.8777 67.1948 81.7072 66.9604 81.5201C66.7104 81.3301 66.4904 81.1401 66.4904 81.1401C66.4904 81.1401 66.3304 81.0001 66.3304 81.1401V83.1401C66.6629 83.4725 67.0615 83.7314 67.5004 83.9001C68.3806 84.2358 69.3189 84.3922 70.2604 84.3601C73.1404 84.3601 74.5304 83.1701 74.5304 81.2901C74.5304 76.6301 68.2504 79.0701 68.2504 77.0101Z" fill="white"/>
<path d="M35.5801 73.92C34.701 73.8918 33.8267 74.0592 33.0201 74.41C32.6272 74.5694 32.265 74.7961 31.9501 75.08C31.9501 75.08 31.9501 75.0801 31.9501 75.1401V77.0001C31.9501 77.1001 31.9501 77.27 32.0201 77.16L32.2001 76.95C32.4731 76.6831 32.7674 76.439 33.0801 76.22L33.2901 76.1L33.4401 76.0001C34.1141 75.6699 34.8604 75.5151 35.6101 75.55C37.2701 75.55 37.6901 76.22 37.6901 77.08C37.1201 78.37 33.9401 78.02 32.4101 79.38C32.3777 79.4075 32.3476 79.4376 32.3201 79.47L32.2501 79.56C32.1914 79.6222 32.1379 79.6891 32.0901 79.76C32.0725 79.7915 32.0524 79.8216 32.0301 79.85C31.7824 80.2775 31.661 80.7664 31.6801 81.26C31.6589 81.7666 31.7801 82.269 32.0301 82.71C32.0301 82.71 32.0301 82.78 32.0301 82.81C32.0581 82.8399 32.0817 82.8736 32.1001 82.91C32.104 82.9229 32.1104 82.9348 32.119 82.9451C32.1276 82.9554 32.1382 82.9639 32.1501 82.97C32.5647 83.4127 33.0746 83.7552 33.6411 83.9718C34.2076 84.1883 34.816 84.2732 35.4201 84.22C36.2396 84.2436 37.0596 84.1934 37.8701 84.0701C38.5289 83.9331 39.1651 83.7042 39.7601 83.39V77.1801C39.7101 75.1201 38.2601 73.92 35.5801 73.92ZM37.7101 78.92V82.55C37.0368 82.7191 36.3443 82.7998 35.6501 82.7901C34.2401 82.7901 33.6501 82.2 33.6501 81.33C33.6501 79.45 36.7801 79.9101 37.6001 79.0701C37.6352 79.0416 37.6656 79.0079 37.6901 78.97L37.7101 78.92Z" fill="white"/>
<path d="M72.9024 91.0031C72.0233 90.9748 71.1489 91.1422 70.3424 91.4931C69.9494 91.6524 69.5873 91.8791 69.2724 92.1631C69.2724 92.1631 69.2724 92.1631 69.2724 92.2231V94.0831C69.2724 94.1831 69.2724 94.3531 69.3424 94.2431L69.5224 94.0331C69.7953 93.7661 70.0896 93.522 70.4024 93.3031L70.6124 93.1831L70.7624 93.0831C71.4363 92.7529 72.1827 92.5981 72.9324 92.6331C74.5924 92.6331 75.0124 93.3031 75.0124 94.1631C74.4424 95.4531 71.2624 95.1031 69.7324 96.4631C69.6999 96.4905 69.6698 96.5206 69.6424 96.5531L69.5724 96.6431C69.5137 96.7052 69.4601 96.7721 69.4124 96.8431C69.3947 96.8746 69.3747 96.9046 69.3524 96.9331C69.1046 97.3605 68.9833 97.8494 69.0024 98.3431C68.9811 98.8496 69.1024 99.352 69.3524 99.7931C69.3524 99.7931 69.3524 99.8631 69.3524 99.8931C69.3804 99.9229 69.4039 99.9566 69.4224 99.9931C69.4263 100.006 69.4327 100.018 69.4413 100.028C69.4499 100.038 69.4605 100.047 69.4724 100.053C69.887 100.496 70.3969 100.838 70.9634 101.055C71.5299 101.271 72.1382 101.356 72.7424 101.303C73.5619 101.327 74.3819 101.276 75.1924 101.153C75.8511 101.016 76.4874 100.787 77.0824 100.473V94.2631C77.0324 92.2031 75.5824 91.0031 72.9024 91.0031ZM75.0324 96.0031V99.6331C74.359 99.8021 73.6666 99.8828 72.9724 99.8731C71.5624 99.8731 70.9724 99.2831 70.9724 98.4131C70.9724 96.5331 74.1024 96.9931 74.9224 96.1531C74.9574 96.1247 74.9878 96.0909 75.0124 96.0531L75.0324 96.0031Z" fill="white"/>
<path d="M54.7802 82.2301L54.4602 82.4401C54.044 82.6682 53.5747 82.782 53.1002 82.7701C51.6202 82.7701 51.3402 81.9501 51.3302 80.6301V76.0301H54.4602C54.5026 76.0333 54.5452 76.0271 54.5849 76.012C54.6247 75.9969 54.6606 75.9732 54.6902 75.9427C54.7197 75.9122 54.7422 75.8755 54.7561 75.8353C54.7699 75.7951 54.7747 75.7524 54.7702 75.7101V74.3901H51.3002V71.8901C51.3002 71.3901 49.2402 71.5201 49.2402 71.5201V81.1301C49.2402 83.2101 50.4802 84.4201 52.8202 84.4201C53.3907 84.4262 53.9583 84.3383 54.5002 84.1601C54.7813 84.0437 55.0467 83.8925 55.2902 83.7101V81.7101C55.2902 81.7101 55.1602 81.8701 55.0802 81.9501L54.7802 82.2301Z" fill="white"/>
<path d="M51.6507 87.32V86.02C51.7107 86.02 53.7307 85.77 53.7307 86.49V100.56C53.0807 100.56 52.0107 100.9 51.5707 100.96C50.9137 101.101 50.2425 101.164 49.5707 101.15C46.8107 101.15 45.2607 99.94 45.2607 97.85V93.85C45.2607 91.85 46.9907 90.6 48.9807 90.6C49.9193 90.5515 50.8466 90.823 51.6107 91.37C51.6107 91.37 51.6107 90.62 51.6107 90.26C51.6107 90.2 51.6107 90.13 51.6107 90.06L51.6507 87.32ZM51.6507 94C51.6507 93 50.4607 92.23 49.2807 92.23C49.0169 92.2059 48.7509 92.2421 48.5031 92.3358C48.2552 92.4295 48.0318 92.5782 47.8498 92.7708C47.6678 92.9634 47.5319 93.1948 47.4524 93.4476C47.3729 93.7004 47.3518 93.9679 47.3907 94.23V97.59C47.3907 98.92 47.9207 99.59 49.7707 99.59C50.4158 99.5935 51.0551 99.4677 51.6507 99.22V94Z" fill="white"/>
<path d="M55.9004 90.7899V100.52C55.9004 101.17 57.9704 101.02 57.9704 101.02V91.4499C57.9704 90.6299 56.4504 90.8199 55.9004 90.7899ZM56.4904 89.0299C57.0004 89.0299 57.9504 89.0899 57.9504 89.0899V87.6299C57.9504 87.3999 57.6004 87.1799 57.3704 87.1399C56.8823 87.0871 56.3912 87.0671 55.9004 87.0799V88.5599C55.9004 88.8199 56.2004 88.9999 56.4904 89.0299Z" fill="white"/>
<path d="M33.4807 93.4798C33.2907 91.5198 31.5507 90.6298 29.6507 90.6298C28.4545 90.5336 27.2622 90.8591 26.2807 91.5498C25.401 90.8921 24.3173 90.5663 23.2207 90.6298C22.2905 90.6325 21.3639 90.7467 20.4607 90.9698C19.9043 91.1092 19.3342 91.1864 18.7607 91.1998V100.55C18.7607 101.24 20.8407 101.01 20.8407 101.01V92.6298C21.5215 92.4058 22.2341 92.2944 22.9507 92.2998C24.5307 92.2998 25.1007 92.9498 25.1007 94.0698V100.6C25.1007 101.27 27.1707 101.06 27.1707 101.06V93.6798C27.2207 92.8098 28.3107 92.2398 29.4107 92.2398C30.5107 92.2398 31.4107 92.7898 31.4107 94.0998V100.56C31.4107 101.26 33.4807 101.02 33.4807 101.02V93.7398C33.4857 93.6532 33.4857 93.5664 33.4807 93.4798Z" fill="white"/>
<path d="M42.0407 86.8501C42.2107 87.1801 42.2407 87.3001 42.3607 87.5301C42.8307 88.5301 42.4307 88.6001 40.7207 89.3501L38.8407 90.1401C38.8407 90.1401 38.1007 88.9401 38.4007 88.6401C38.8429 88.3662 39.312 88.1384 39.8007 87.9601C40.4424 87.7389 41.0618 87.4577 41.6507 87.1201C41.7707 87.0501 41.8907 86.9801 42.0007 86.9001C42.1107 86.8201 42.0307 86.8401 42.0407 86.8501Z" fill="white"/>
<path d="M43.4202 97.9798C43.4202 97.8698 43.3602 97.9798 43.3002 97.9798C43.2082 98.0939 43.1043 98.1978 42.9902 98.2898C42.8202 98.4398 42.7902 98.4598 42.4702 98.7098C42.4702 98.7098 42.2402 98.8598 42.2302 98.8698C41.5183 99.2973 40.7004 99.5156 39.8702 99.4998C38.2202 99.4998 37.5502 98.8498 37.5502 97.5698V96.5398C38.1761 96.8296 38.8608 96.9699 39.5502 96.9498C42.5502 96.9498 43.5502 95.5098 43.5502 93.8798C43.5502 92.0098 42.2002 90.7598 39.5502 90.7598C36.9002 90.7598 35.4502 92.0098 35.4502 94.0798V97.9298C35.4502 99.9898 37.1002 101.24 39.8402 101.24C40.6209 101.25 41.3969 101.118 42.1302 100.85C42.2722 100.799 42.4094 100.735 42.5402 100.66C42.8839 100.521 43.1892 100.301 43.4302 100.02L43.4202 97.9798ZM37.5102 94.3698C37.5102 93.0898 37.9202 92.3698 39.5102 92.3698C41.1002 92.3698 41.5102 92.9998 41.5102 93.9098C41.5102 94.8198 40.9402 95.3098 39.2802 95.3098C38.6871 95.2936 38.0987 95.1995 37.5302 95.0298L37.5102 94.3698Z" fill="white"/>
<path d="M81.0104 93.8101C81.0104 92.8101 81.5804 92.3801 83.1304 92.3801C83.7536 92.3686 84.3736 92.4702 84.9604 92.6801C85.1904 92.7801 85.5404 92.9601 85.5404 92.9601L86.1304 93.3401C86.2204 93.4101 86.5304 93.6501 86.6204 93.7401V91.8601C86.6204 91.7201 86.0104 91.2901 85.7604 91.1801L85.6504 91.1001C84.8313 90.7997 83.9626 90.6572 83.0904 90.6801C80.3804 90.6801 78.9404 91.7601 78.9404 93.8701C78.9404 98.1001 85.2804 95.5301 85.2804 98.0001C85.2804 99.0001 84.2804 99.5101 83.0904 99.5101C82.2279 99.5507 81.3715 99.3462 80.6204 98.9201L80.5004 98.8601C80.24 98.706 79.9895 98.5356 79.7504 98.3501L79.2904 97.9701C79.1504 97.8201 79.1104 97.8201 79.1104 97.9701V99.9701C79.4501 100.303 79.8553 100.562 80.3004 100.73C81.1887 101.075 82.1381 101.235 83.0904 101.2C85.9904 101.2 87.3904 99.9901 87.3904 98.1101C87.3404 93.4301 81.0104 95.8801 81.0104 93.8101Z" fill="white"/>
<path d="M66.7502 98.73L66.6102 98.83H66.5302C65.8115 99.2351 64.9944 99.4324 64.1702 99.4C62.6302 99.34 61.9502 98.7 61.9502 97.4V94.4C61.9502 92.91 62.7702 92.4 64.3402 92.33C65.0341 92.3201 65.7203 92.4779 66.3402 92.79C66.7924 93.0593 67.2005 93.3966 67.5502 93.79C67.6902 93.94 67.7302 94.03 67.7202 93.79V91.79C67.4389 91.4925 67.0982 91.2574 66.7202 91.1L66.5802 91.04C65.8028 90.755 64.9777 90.6226 64.1502 90.65C61.5102 90.65 59.9102 91.9 59.9102 93.97V97.81C59.9102 99.9 61.5802 101.13 64.2402 101.13H64.3002C65.0502 101.134 65.795 101.005 66.5002 100.75L66.9002 100.57C66.9002 100.57 67.0402 100.51 67.2002 100.41C67.4332 100.283 67.6375 100.11 67.8002 99.9V98.23C67.8002 98.1 67.8002 97.76 67.8002 97.82C67.5059 98.1823 67.1506 98.4903 66.7502 98.73Z" fill="white"/>
<path d="M32.65 27.3699C32.6474 24.6195 33.2055 21.8975 34.29 19.3699L13.86 11.4399L3 39.4399V65.8299H38.85L46.33 46.5599C42.3398 45.1772 38.8789 42.5868 36.4276 39.1481C33.9762 35.7094 32.656 31.5929 32.65 27.3699Z" fill="white"/>
<path d="M3 65.8298H16.28L34.37 19.1798L3 7.00977V65.8298Z" fill="#EC1C24"/>
<path d="M103.101 39.6299L92.1807 11.4399L71.7207 19.3799C72.8133 21.9416 73.3679 24.7005 73.3501 27.4854C73.3324 30.2702 72.7426 33.0218 71.6175 35.5693C70.4923 38.1169 68.8558 40.4061 66.8093 42.295C64.7628 44.1838 62.3501 45.6321 59.7207 46.5499L67.1807 65.8299H103.101V39.6299Z" fill="white"/>
<path d="M103.1 7H103.04L71.6699 19.18L89.7599 65.83H103.1V7Z" fill="#EC1C24"/>
<path fill-rule="evenodd" clip-rule="evenodd" d="M666.44 114.22C677.643 114.214 688.593 110.886 697.905 104.658C707.217 98.4297 714.473 89.5801 718.756 79.2282C723.039 68.8762 724.157 57.4867 721.968 46.4997C719.778 35.5126 714.381 25.4214 706.457 17.5017C698.533 9.5821 688.439 4.18969 677.451 2.00627C666.462 -0.177154 655.074 0.946455 644.724 5.23504C634.374 9.52362 625.528 16.7846 619.305 26.1C613.081 35.4154 609.76 46.3669 609.76 57.5699C609.791 72.5899 615.774 86.9852 626.398 97.6031C637.021 108.221 651.42 114.196 666.44 114.22Z" fill="white"/>
<path d="M666.43 114.8H666.37C651.161 114.763 636.585 108.703 625.834 97.9453C615.082 87.1878 609.029 72.6093 609 57.4V57.4C609.029 42.1786 615.091 27.5895 625.858 16.8301C636.625 6.07065 651.219 0.0184994 666.44 0C681.648 0.0396374 696.22 6.10112 706.97 16.8583C717.72 27.6154 723.771 42.1924 723.8 57.4C723.771 72.5955 717.729 87.1619 706.995 97.9171C696.26 108.672 681.705 114.742 666.51 114.8H666.43ZM666.37 113.29H666.51C681.303 113.232 695.472 107.323 705.924 96.8529C716.375 86.3831 722.258 72.2033 722.29 57.41C722.264 42.6029 716.374 28.4089 705.909 17.9331C695.445 7.45721 681.257 1.55228 666.45 1.51C651.627 1.52585 637.416 7.41775 626.93 17.8943C616.444 28.3708 610.539 42.5773 610.51 57.4C610.539 72.2088 616.433 86.4033 626.901 96.8775C637.37 107.352 651.561 113.253 666.37 113.29Z" fill="#231F20"/>
<path fill-rule="evenodd" clip-rule="evenodd" d="M681.11 9.22998V39.39L678.41 41.11C678.01 35.68 675.57 32.31 667.27 32.31H665.17C656.76 32.31 654.41 35.68 654.03 41.11L651.34 39.4V9.23998C639.816 12.8025 629.951 20.3802 623.538 30.5969C617.125 40.8135 614.589 52.9914 616.391 64.9187C618.192 76.846 624.212 87.7317 633.356 95.5986C642.5 103.465 654.163 107.792 666.225 107.792C678.288 107.792 689.95 103.465 699.095 95.5986C708.239 87.7317 714.259 76.846 716.06 64.9187C717.862 52.9914 715.325 40.8135 708.912 30.5969C702.499 20.3802 692.635 12.8025 681.11 9.23998V9.22998ZM684.31 42.59V55.93C684.252 56.5278 684.065 57.1057 683.761 57.6238C683.457 58.1418 683.044 58.5875 682.55 58.93L669.87 66.68L666.34 68.84L664.55 67.84L649.89 59C649.398 58.6575 648.986 58.2116 648.684 57.6934C648.381 57.1752 648.196 56.5973 648.14 56V42.59C648.14 42.37 648.14 42.32 648.14 42.29C648.296 42.3153 648.443 42.3769 648.57 42.47L664.64 52.26L666.2 53.26L668.85 51.65L683.85 42.52C683.977 42.4269 684.125 42.3653 684.28 42.34C684.28 42.34 684.31 42.37 684.31 42.59Z" fill="#231F20"/>
<path fill-rule="evenodd" clip-rule="evenodd" d="M666.22 31.3799C667.43 31.3799 668.613 31.021 669.62 30.3485C670.626 29.676 671.411 28.7202 671.874 27.6019C672.337 26.4836 672.458 25.2531 672.222 24.0659C671.986 22.8788 671.403 21.7883 670.547 20.9324C669.691 20.0765 668.601 19.4936 667.414 19.2575C666.226 19.0213 664.996 19.1425 663.878 19.6058C662.759 20.069 661.803 20.8534 661.131 21.8598C660.459 22.8662 660.1 24.0495 660.1 25.2599C660.102 26.8822 660.748 28.4373 661.895 29.5845C663.042 30.7316 664.597 31.3773 666.22 31.3799Z" fill="#231F20"/>
<path d="M693.77 74.3499V72.9999C693.83 72.9999 695.99 72.7399 695.99 73.4999V88.4999C695.29 88.5599 694.13 88.8699 693.68 88.9399C692.993 89.0806 692.292 89.1476 691.59 89.1399C688.64 89.1399 686.99 87.8499 686.99 85.6199V81.3899C686.99 79.2199 688.83 77.9099 690.99 77.9099C691.993 77.8562 692.984 78.1454 693.8 78.7299C693.8 78.7299 693.8 77.9299 693.8 77.5499C693.795 77.48 693.795 77.4098 693.8 77.3399L693.77 74.3499ZM693.77 81.4999C693.77 80.3799 692.51 79.5999 691.24 79.5999C690.962 79.5782 690.683 79.6187 690.423 79.7187C690.163 79.8187 689.929 79.9755 689.737 80.1778C689.545 80.38 689.401 80.6226 689.315 80.8877C689.229 81.1527 689.204 81.4337 689.24 81.7099V85.2899C689.24 86.7199 689.81 87.4199 691.77 87.4199C692.454 87.435 693.134 87.3126 693.77 87.0599V81.4999Z" fill="white"/>
<path d="M675.87 81.0001C675.68 78.8901 673.81 78.0001 671.81 78.0001C670.527 77.905 669.251 78.2584 668.2 79.0001C667.263 78.2834 666.098 77.9284 664.92 78.0001C663.91 78.0006 662.903 78.1215 661.92 78.3601C661.328 78.5103 660.721 78.5974 660.11 78.6201V88.6201C660.11 89.3601 662.32 89.1201 662.32 89.1201V80.0001C663.049 79.7556 663.812 79.634 664.58 79.6401C666.26 79.6401 666.87 80.3401 666.87 81.5401V88.5401C666.87 89.2601 669.09 89.0401 669.09 89.0401V81.1401C669.15 80.2201 670.3 79.6101 671.49 79.6101C672.68 79.6101 673.63 80.2001 673.63 81.6101V88.4901C673.63 89.2401 675.85 88.9901 675.85 88.9901V81.2201C675.865 81.1477 675.872 81.0739 675.87 81.0001Z" fill="white"/>
<path d="M651.67 78.6C651.464 78.4282 651.235 78.2867 650.99 78.18H650.88C650.417 78.0324 649.935 77.9549 649.45 77.95C649.013 77.9514 648.577 77.9983 648.15 78.09L647.27 78.27C646.76 78.37 646.07 78.47 645.22 78.58V88.58C645.22 89.28 647.43 89.06 647.43 89.06V80L648.72 79.76C648.865 79.7269 649.012 79.7035 649.16 79.69C649.633 79.6526 650.107 79.7352 650.54 79.93C650.948 80.1531 651.327 80.4251 651.67 80.74V78.6Z" fill="white"/>
<path d="M685.72 85.74C685.72 85.62 685.65 85.74 685.59 85.74C685.53 85.74 685.52 85.82 685.26 86.06C685.088 86.2226 684.904 86.3729 684.71 86.51C684.71 86.51 684.46 86.68 684.45 86.69C683.689 87.1426 682.816 87.3746 681.93 87.36C680.16 87.36 679.44 86.66 679.44 85.29V84.21C680.113 84.5211 680.849 84.6717 681.59 84.65C684.8 84.65 685.9 83.11 685.9 81.36C685.9 79.36 684.46 78.03 681.61 78.03C678.76 78.03 677.23 79.36 677.23 81.57V85.68C677.23 87.9 679 89.23 681.93 89.23C682.759 89.2371 683.582 89.0948 684.36 88.81L684.8 88.62C685.184 88.4722 685.526 88.2358 685.8 87.93L685.72 85.74ZM679.4 81.89C679.4 80.52 679.84 79.72 681.53 79.72C683.22 79.72 683.65 80.39 683.65 81.36C683.65 82.33 683.05 82.86 681.27 82.86C680.637 82.8355 680.009 82.7347 679.4 82.56V81.89Z" fill="white"/>
<path d="M658.59 86.9001L658.25 87.1201C657.8 87.3551 657.298 87.4721 656.79 87.4601C655.19 87.4601 654.9 86.5901 654.89 85.1701V80.1701H658.26C658.305 80.1717 658.351 80.1636 658.393 80.1463C658.435 80.129 658.473 80.1029 658.504 80.0698C658.535 80.0367 658.559 79.9972 658.574 79.9542C658.589 79.9111 658.594 79.8654 658.59 79.8201V78.4601H654.89V75.7801C654.89 75.2201 652.67 75.3701 652.67 75.3701V85.7101C652.67 87.9501 654.01 89.2501 656.52 89.2501C657.123 89.2664 657.725 89.1819 658.3 89.0001C658.605 88.8828 658.892 88.7211 659.15 88.5201V86.3801C659.085 86.4793 659.007 86.57 658.92 86.6501C658.814 86.7391 658.704 86.8226 658.59 86.9001Z" fill="white"/>
<path d="M352.4 114.8C384.101 114.8 409.8 89.1012 409.8 57.4C409.8 25.6989 384.101 0 352.4 0C320.699 0 295 25.6989 295 57.4C295 89.1012 320.699 114.8 352.4 114.8Z" fill="white"/>
<path d="M353 108.93V108.77H353.23C357.376 108.728 361.501 108.17 365.51 107.11C368.522 106.386 371.449 105.343 374.24 104C376.04 103.1 377.84 102.19 379.54 101.14C381.24 100.09 382.76 98.9199 384.33 97.7699C386.522 96.191 388.534 94.3768 390.33 92.3599C392.482 89.9446 394.445 87.367 396.2 84.6499C398.05 81.6832 399.611 78.5454 400.86 75.2799C401.83 72.7193 402.546 70.07 403 67.3699C403.717 63.8428 404.053 60.2488 404 56.6499C403.905 52.1427 403.233 47.6662 402 43.3299C401.137 40.3289 400.016 37.408 398.65 34.5999C396.95 31.2643 394.924 28.1055 392.6 25.1699C392.19 24.6399 391.65 24.1699 391.26 23.6599C389.926 21.9821 388.417 20.4502 386.76 19.0899C385.58 18.0399 384.31 17.0899 383.1 16.0899C381.676 14.9109 380.138 13.8758 378.51 12.9999C377.23 12.2899 375.95 11.5599 374.64 10.9199C373.53 10.3699 372.38 9.9199 371.23 9.4599C370.47 9.1599 369.69 8.9199 368.91 8.6599C367.91 8.3399 366.91 8.0099 365.91 7.7099C365.35 7.5399 364.76 7.4099 364.19 7.2599C363.47 7.0799 362.75 6.8599 362.02 6.7399C361.29 6.6199 360.47 6.5599 359.69 6.4799C359.2 6.4199 358.69 6.3699 358.21 6.2999C358.12 6.2999 358.03 6.2399 357.94 6.2299C357.56 6.2299 357.18 6.1199 356.8 6.0899C356.42 6.0599 356.28 6.0899 356.02 6.0899L354.57 5.9999C354.37 5.9999 354.16 5.9999 353.96 5.9999C353.56 5.9999 353.16 5.9099 352.76 5.8999C352.36 5.8899 352.16 5.9599 351.86 5.9699L347.7 5.9999C347.61 5.99038 347.52 5.99038 347.43 5.9999C346.84 6.1199 346.25 6.2999 345.66 6.3599C344.139 6.43721 342.628 6.66159 341.15 7.0299C339.48 7.5199 337.81 7.9699 336.15 8.4499C335.181 8.66793 334.236 8.98285 333.33 9.3899C332.329 9.94874 331.282 10.4205 330.2 10.7999C329.698 11.0039 329.215 11.255 328.76 11.5499L325.38 13.4899H325.33C324.835 13.6019 324.394 13.8808 324.08 14.2799C323.861 14.4815 323.611 14.6469 323.34 14.7699L322.42 15.3999C322.23 15.5399 322.05 15.6999 321.85 15.8499C321.17 16.3399 320.49 16.8499 319.85 17.3199C319.46 17.6099 319.1 17.9299 318.74 18.2499C318.38 18.5699 317.9 18.9799 317.5 19.3699C317.1 19.7599 316.5 20.3699 316.02 20.8799C315.54 21.3899 315.02 21.7599 314.61 22.2499C313.71 23.2499 312.82 24.3199 311.97 25.3999C310.949 26.6171 310.004 27.8962 309.14 29.2299C307.9 31.2299 306.75 33.3699 305.71 35.5199C304.84 37.3399 304.15 39.2499 303.46 41.1499C303.048 42.313 302.714 43.5023 302.46 44.7099C301.938 46.8241 301.524 48.9636 301.22 51.1199C300.835 54.3351 300.755 57.5796 300.98 60.8099C301.194 64.0853 301.734 67.3312 302.59 70.4999C303.367 73.7074 304.511 76.8146 306 79.7599C307 81.6599 308 83.6299 309.12 85.4299C310.35 87.2566 311.685 89.0096 313.12 90.6799C315.388 93.3985 317.954 95.8539 320.77 97.9999C323.244 99.9787 325.927 101.682 328.77 103.08C330.35 103.83 331.9 104.66 333.53 105.31C335.019 105.879 336.538 106.366 338.08 106.77C340.483 107.54 342.954 108.079 345.46 108.38L353 108.93Z" fill="white"/>
<path d="M353 108.93L345.46 108.35C342.954 108.049 340.483 107.51 338.08 106.74C336.538 106.336 335.019 105.849 333.53 105.28C331.9 104.63 330.35 103.8 328.77 103.05C325.927 101.652 323.244 99.9488 320.77 97.97C317.97 95.831 315.417 93.3859 313.16 90.68C311.725 89.0097 310.39 87.2566 309.16 85.43C307.99 83.63 307.06 81.66 306.04 79.76C304.527 76.8341 303.356 73.7438 302.55 70.55C301.694 67.3813 301.154 64.1353 300.94 60.86C300.715 57.6296 300.795 54.3852 301.18 51.17C301.484 49.0136 301.898 46.8742 302.42 44.76C302.674 43.5524 303.008 42.3631 303.42 41.2C304.11 39.3 304.8 37.39 305.67 35.57C306.67 33.42 307.86 31.32 309.1 29.28C309.964 27.9462 310.909 26.6671 311.93 25.45C312.78 24.37 313.67 23.33 314.57 22.3C315 21.81 315.57 21.39 315.98 20.93C316.39 20.47 316.98 19.93 317.46 19.42C317.94 18.91 318.28 18.66 318.7 18.3C319.12 17.94 319.42 17.66 319.81 17.37C320.48 16.87 321.16 16.37 321.81 15.9C322.01 15.75 322.19 15.59 322.38 15.45L323.3 14.82C323.571 14.697 323.821 14.5316 324.04 14.33C324.354 13.9309 324.795 13.652 325.29 13.54H325.34L328.72 11.6C329.175 11.3051 329.657 11.054 330.16 10.85C331.242 10.4706 332.289 9.99882 333.29 9.43998C334.196 9.03293 335.141 8.71801 336.11 8.49998C337.77 8.01998 339.44 7.56998 341.11 7.07998C342.588 6.71167 344.099 6.48729 345.62 6.40998C346.21 6.34998 346.8 6.16998 347.39 6.04998C347.48 6.04046 347.57 6.04046 347.66 6.04998H351.82C352.12 6.04998 352.42 5.97998 352.72 5.97998C353.02 5.97998 353.52 6.04998 353.92 6.07998C354.12 6.07998 354.33 6.07998 354.53 6.07998L356.02 6.19998C356.28 6.19998 356.55 6.19998 356.8 6.19998C357.05 6.19998 357.56 6.28998 357.94 6.33998C358.03 6.33998 358.12 6.39998 358.21 6.40998C358.7 6.47998 359.21 6.52998 359.69 6.58998C360.47 6.66998 361.25 6.71998 362.02 6.84998C362.79 6.97998 363.47 7.18998 364.19 7.36998C364.76 7.51998 365.35 7.64998 365.91 7.81998C366.91 8.11998 367.91 8.44998 368.91 8.76998C369.69 9.02998 370.47 9.26998 371.23 9.56998C372.38 10.02 373.53 10.48 374.64 11.03C375.95 11.67 377.23 12.4 378.51 13.11C380.127 13.9813 381.654 15.0096 383.07 16.18C384.28 17.18 385.55 18.13 386.73 19.18C388.387 20.5403 389.895 22.0722 391.23 23.75C391.62 24.29 392.16 24.75 392.57 25.26C394.894 28.1956 396.92 31.3544 398.62 34.69C399.991 37.4681 401.122 40.3587 402 43.33C403.233 47.6663 403.905 52.1427 404 56.65C404.053 60.2489 403.717 63.8429 403 67.37C402.535 70.061 401.808 72.7001 400.83 75.25C399.581 78.5155 398.02 81.6532 396.17 84.62C394.414 87.337 392.452 89.9147 390.3 92.33C388.504 94.3469 386.492 96.161 384.3 97.74C382.73 98.89 381.17 100.08 379.51 101.11C377.85 102.14 376.01 103.11 374.21 103.97C371.436 105.32 368.526 106.373 365.53 107.11C361.521 108.17 357.396 108.728 353.25 108.77H353.02L353 108.93ZM362.19 53.6L362.25 53.77C362.418 53.718 362.594 53.6944 362.77 53.7C363 53.7 363.33 53.82 363.42 53.99C364.03 55.09 364.6 56.21 365.18 57.33C365.76 58.45 366.18 59.33 366.73 60.33C366.73 60.43 366.95 60.47 367.07 60.54C367.135 60.3997 367.182 60.2519 367.21 60.1C367.21 60.01 367.12 59.9 367.06 59.8C366.33 58.38 365.55 56.98 364.87 55.54C364.579 54.9331 364.415 54.2727 364.39 53.6C364.39 49.6 364.39 45.69 364.39 41.73C364.39 38.26 364.39 34.8 364.39 31.33C364.39 29.73 364.39 28.13 364.39 26.53C364.39 25.76 364.27 25.68 363.52 25.69L352.52 25.78L342.13 25.85C341.43 25.85 341.25 26.04 341.26 26.71C341.34 33.0833 341.417 39.45 341.49 45.81C341.49 48.18 341.49 50.56 341.56 52.93C341.56 56.87 341.63 60.8 341.68 64.74C341.68 66.23 341.73 67.74 341.77 69.2C341.77 69.53 341.77 69.9 342.23 69.93C343.07 69.93 343.92 69.93 344.76 69.93C345 69.93 345.25 69.93 345.49 69.93C346.67 69.93 347.85 70.02 349.03 70.01C350.21 70 351.39 69.92 352.58 69.89C353.58 69.89 354.49 69.89 355.45 69.89C356.65 69.89 357.85 69.95 359.04 69.96C360.51 69.96 361.97 69.96 363.43 69.96C364.23 69.96 364.49 69.79 364.49 68.96C364.49 67.34 364.49 65.72 364.49 64.1C364.49 63.43 364.55 62.77 364.58 62C364.34 62.0509 364.106 62.1245 363.88 62.22C362.24 63.07 360.61 63.92 358.98 64.79C357.35 65.66 355.51 66.68 353.78 67.64C353.717 67.6898 353.644 67.7248 353.566 67.7424C353.488 67.7599 353.407 67.7595 353.329 67.7412C353.251 67.723 353.178 67.6873 353.116 67.6368C353.054 67.5864 353.004 67.5225 352.97 67.45C352.864 67.2959 352.767 67.1356 352.68 66.97C351.62 64.97 350.57 63.06 349.5 61.12C348.43 59.18 347.1 57.06 346 55C345.213 53.6666 344.457 52.3033 343.73 50.91C343.37 50.24 342.73 49.61 343.38 48.78C343.38 48.78 343.38 48.72 343.32 48.66C343.254 48.6698 343.186 48.6698 343.12 48.66C342.93 48.6 342.65 48.58 342.6 48.45C342.581 48.3538 342.585 48.2542 342.613 48.16C342.641 48.0659 342.691 47.98 342.76 47.91C343.109 47.6056 343.487 47.3375 343.89 47.11C344.33 46.86 344.82 46.71 345.26 46.47C346.57 45.76 347.86 45.02 349.16 44.3C349.43 44.15 349.72 44.06 349.98 43.92C350.7 43.53 351.41 43.12 352.13 42.72C352.85 42.32 353.66 41.88 354.43 41.46C354.74 41.29 355.03 41.09 355.33 40.91C355.63 40.73 355.74 40.64 355.85 40.7C355.942 40.7552 356.021 40.8307 356.08 40.9208C356.139 41.0109 356.177 41.1132 356.19 41.22C356.19 41.38 355.98 41.58 355.82 41.69C355.36 41.98 354.82 42.24 354.4 42.51L354.47 42.67C354.748 42.6998 355.03 42.6677 355.294 42.5761C355.559 42.4845 355.8 42.3356 356 42.14C356.57 41.69 356.64 41.71 357 42.34C357.63 43.52 358.35 44.65 359 45.84C359.52 46.84 360.38 47.76 360.24 49.14C360.58 49.03 360.9 48.95 361.24 48.83C361.58 48.71 361.89 48.64 362.1 48.99C362.61 49.86 363.1 50.73 363.58 51.64C363.92 52.34 363.79 52.64 363.14 53.07L362.19 53.6ZM354.19 78.6C354.322 78.7423 354.446 78.8925 354.56 79.05L356.83 83.05C357.21 83.71 357.5 83.7 357.89 83.05C358.63 81.6833 359.397 80.2966 360.19 78.89C360.27 78.7278 360.34 78.5608 360.4 78.39L360.66 78.59C360.66 78.83 360.72 79.07 360.72 79.31C360.72 80.47 360.72 81.64 360.72 82.81C360.72 83.21 360.79 83.66 361.29 83.74C361.951 83.8525 362.62 83.9127 363.29 83.92C364.46 83.92 365.62 83.85 366.78 83.92C367.565 84.034 368.365 83.9374 369.1 83.64C369.19 83.64 369.35 83.64 369.47 83.64C369.832 83.7532 370.204 83.8336 370.58 83.88C372.04 83.88 373.5 83.94 374.96 83.88C375.855 83.8428 376.744 83.7087 377.61 83.48C379.74 82.88 380.61 80.82 380.67 78.85C380.675 77.558 380.233 76.3041 379.42 75.3C379.126 74.893 378.742 74.5595 378.298 74.3253C377.854 74.0911 377.362 73.9627 376.86 73.95C374.62 73.87 372.38 73.95 370.13 73.95C370.026 73.9353 369.921 73.9447 369.821 73.9775C369.722 74.0104 369.631 74.0657 369.557 74.1393C369.482 74.2128 369.426 74.3026 369.392 74.4016C369.358 74.5006 369.347 74.6061 369.36 74.71C369.36 75.54 369.36 76.36 369.36 77.19C369.36 78.92 369.36 80.65 369.36 82.38C369.36 82.38 369.31 82.38 369.28 82.45V82.3C368.815 82.1942 368.344 82.1173 367.87 82.07C366.87 82.07 365.87 82.07 364.87 82.07C364.23 82.07 364.02 81.88 363.99 81.24C363.98 81.0534 363.98 80.8665 363.99 80.68C363.99 79.92 364.2 79.8 364.99 79.84C366.1 79.84 367.21 79.9 368.31 79.84C368.96 79.84 369.11 79.6 369.07 78.98C369.01 78.11 368.89 77.98 368.19 77.98H365.43C364 78.08 363.9 78 364 76.57C364 75.89 364.18 75.71 364.84 75.7C366.02 75.7 367.2 75.7 368.38 75.7C368.81 75.7 369.03 75.58 369.03 75.14C369.03 74.95 369.03 74.76 369.03 74.57C369.03 74.13 368.82 73.94 368.36 73.94C366.12 73.94 363.88 73.94 361.63 74C361.242 73.986 360.859 74.0905 360.533 74.2995C360.206 74.5085 359.95 74.8122 359.8 75.17C359.38 76.01 358.89 76.81 358.43 77.63C358.23 78 357.98 78.03 357.75 77.63C357.3 76.94 356.89 76.22 356.44 75.53C356.181 75.0939 355.883 74.6822 355.55 74.3C355.263 73.9796 354.884 73.7564 354.465 73.6614C354.045 73.5664 353.607 73.6044 353.21 73.77C352.818 73.9232 352.488 74.201 352.269 74.5606C352.05 74.9201 351.956 75.3415 352 75.76C352 77.12 352 78.47 352 79.82C352 80.82 352.08 81.75 352 82.7C352 83.83 352.28 84.17 353.37 83.98C353.465 83.974 353.557 83.9486 353.641 83.9054C353.725 83.8622 353.8 83.8022 353.86 83.7291C353.92 83.6559 353.964 83.5712 353.99 83.4802C354.016 83.3891 354.023 83.2938 354.01 83.2C354.01 81.92 354.01 80.64 354.01 79.36C354.08 79.17 354.12 79 354.16 78.63L354.19 78.6ZM336.4 79.93L336.26 80.01C336.155 79.9296 336.06 79.8354 335.98 79.73C335.15 78.18 334.3 76.63 333.5 75.06C333.331 74.6796 333.047 74.3615 332.689 74.15C332.33 73.9385 331.915 73.8441 331.5 73.88C331.027 73.8147 330.545 73.8945 330.119 74.1088C329.692 74.323 329.34 74.6617 329.11 75.08C327.83 77.81 326.62 80.56 325.4 83.32C325.18 83.82 325.4 84.13 325.96 84.11C326.3 84.11 326.64 84.03 326.96 83.99C327.78 83.91 328.03 83.71 328.19 82.93C328.215 82.6825 328.331 82.4531 328.516 82.2867C328.701 82.1202 328.941 82.0287 329.19 82.03C330.19 82.03 331.1 82.03 332.05 81.95C333 81.87 333.34 82.07 333.73 82.95C333.808 83.1827 333.916 83.4045 334.05 83.61C334.097 83.6867 334.16 83.7529 334.234 83.8045C334.308 83.8561 334.392 83.892 334.48 83.91C336.05 83.91 337.63 83.91 339.2 83.91C339.72 83.91 339.95 83.56 339.94 83.04C339.94 81.94 339.94 80.85 339.94 79.76C339.94 78.67 339.89 77.76 339.89 76.76C339.89 75.76 340.1 75.65 340.98 75.67C341.281 75.6664 341.582 75.6831 341.88 75.72C342.78 75.83 343.09 76.26 343.12 77.41C343.137 77.585 343.118 77.7616 343.065 77.9293C343.012 78.097 342.927 78.2525 342.813 78.3866C342.699 78.5208 342.56 78.6308 342.403 78.7104C342.247 78.79 342.075 78.8374 341.9 78.85C341.57 78.85 341.23 78.85 340.9 78.85C340.31 78.85 340.2 79.01 340.49 79.53C341.24 80.87 342.02 82.21 342.83 83.53C342.921 83.6418 343.033 83.734 343.16 83.8011C343.287 83.8681 343.427 83.9086 343.57 83.92C344.263 83.9551 344.957 83.9551 345.65 83.92C345.949 83.9099 346.245 83.8595 346.53 83.77C347.04 83.59 347.1 83.37 346.81 82.93C346.25 82.1 345.68 81.28 345.12 80.46C345.047 80.3858 344.992 80.2958 344.96 80.1968C344.928 80.0979 344.92 79.9928 344.935 79.89C344.951 79.7871 344.99 79.6893 345.05 79.6043C345.11 79.5192 345.188 79.4493 345.28 79.4C345.401 79.3106 345.528 79.2304 345.66 79.16C346.022 78.9762 346.338 78.7139 346.585 78.3921C346.833 78.0703 347.005 77.6972 347.089 77.3002C347.174 76.9033 347.168 76.4924 347.073 76.0979C346.978 75.7033 346.796 75.335 346.54 75.02C346.216 74.6769 345.821 74.4094 345.382 74.2365C344.943 74.0637 344.471 73.9897 344 74.02C341.67 73.96 339.34 74.02 337 74.02C336.47 74.02 336.32 74.29 336.33 74.76C336.33 75.76 336.33 76.69 336.39 77.65C336.41 78.47 336.4 79.2 336.4 79.93ZM349.53 70.93V71C347.35 71 345.16 71 342.98 71C342.05 71 341.9 71.16 341.98 72.09C341.98 72.71 342.45 72.96 343.33 72.92L346.81 72.81C347.38 72.81 347.59 73 347.6 73.58C347.6 75.18 347.6 76.78 347.6 78.38C347.6 79.98 347.65 81.66 347.69 83.29C347.69 83.94 347.9 84.07 348.55 83.98C348.813 83.9651 349.077 83.9651 349.34 83.98C349.86 83.98 350.34 84.06 350.91 83.98C351.59 83.98 351.79 83.7 351.79 82.98V81.11C351.79 79.74 351.79 78.37 351.79 77C351.79 75.63 351.79 74.44 351.85 73.17C351.85 72.83 352.03 72.68 352.4 72.69C353.5 72.69 354.61 72.76 355.72 72.78C355.945 72.7765 356.169 72.753 356.39 72.71C357.08 72.59 357.24 72.32 357.18 71.48C357.18 70.84 356.69 70.88 356.24 70.88L349.53 70.93ZM377.21 88.17C377.49 88.54 377.72 88.89 378 89.17C378.15 89.2827 378.32 89.3674 378.5 89.42C378.53 89.2513 378.53 89.0786 378.5 88.91C378.19 88.09 377.87 87.27 377.5 86.46C377.4 86.23 377.15 86.07 376.96 85.88C376.78 86.08 376.52 86.24 376.42 86.47C376.06 87.27 375.75 88.1 375.42 88.93C375.387 89.1085 375.387 89.2915 375.42 89.47C375.58 89.34 375.82 89.25 375.89 89.08C376.12 88.57 376.28 88.02 376.49 87.5C376.592 87.2806 376.705 87.0669 376.83 86.86C377.43 87.37 377.47 87.69 377.21 88.17ZM360.27 53.44H359.98C359.33 53.55 359.24 53.44 359.33 52.83C359.33 52.48 359.21 52.39 358.92 52.39C358.63 52.39 358.4 52.19 358.52 51.88C358.64 51.57 358.81 51.09 358.39 50.73C358.33 50.73 358.39 50.45 358.45 50.31C358.474 50.1777 358.507 50.0474 358.55 49.92L358.36 49.79C358.17 50 357.82 50.22 357.83 50.42C357.817 51.0478 357.936 51.6714 358.18 52.25C358.617 52.9889 359.123 53.6852 359.69 54.33C359.797 54.4886 359.951 54.6101 360.13 54.6782C360.309 54.7462 360.505 54.7573 360.69 54.71C360.523 54.5229 360.382 54.3144 360.27 54.09C360.238 53.8745 360.238 53.6555 360.27 53.44ZM359.33 86C358.908 85.8446 358.442 85.8626 358.034 86.05C357.625 86.2374 357.307 86.579 357.15 87C357.079 87.4371 357.079 87.8828 357.15 88.32C357.15 89.08 357.98 89.03 358.3 89.49C358.37 89.59 358.72 89.49 358.95 89.49V89.31C358.523 89.2478 358.136 89.0224 357.871 88.6812C357.606 88.34 357.484 87.9094 357.53 87.48C357.57 86.3 358.57 86.35 359.33 86ZM368.01 86.1C368.29 86.31 368.68 86.47 368.83 86.76C368.98 87.05 368.77 87.52 368.34 87.76C368.277 87.8193 368.23 87.8932 368.202 87.9751C368.174 88.057 368.166 88.1445 368.18 88.23C368.299 88.5645 368.464 88.8809 368.67 89.17C368.73 89.26 368.92 89.27 369.05 89.31C369.05 89.18 369.16 89.01 369.11 88.92C368.981 88.7215 368.919 88.4863 368.936 88.2499C368.952 88.0135 369.045 87.7889 369.2 87.61C369.371 87.407 369.46 87.1466 369.447 86.8812C369.434 86.6158 369.32 86.3653 369.13 86.18C368.72 85.73 368.32 86 368 86.14L368.01 86.1ZM326.15 87.77C325.76 87.59 325.81 87.15 325.92 86.77C326.03 86.39 325.92 86.2 325.63 86.18C325.52 86.18 325.28 86.49 325.27 86.66C325.27 87.45 325.27 88.24 325.33 89.03C325.33 89.2 325.54 89.36 325.66 89.53C325.751 89.3599 325.828 89.1826 325.89 89C326 88.6 326.05 88.24 326.15 87.77ZM334.61 86.14C334.02 85.79 333.67 85.95 333.61 86.6C333.61 87.46 333.61 88.32 333.61 89.19C333.61 89.3 333.61 89.46 333.61 89.51C333.751 89.5963 333.902 89.6636 334.06 89.71C334.06 89.56 334.24 89.4 334.22 89.27C334.055 88.751 334.005 88.2026 334.072 87.6622C334.139 87.1219 334.323 86.6026 334.61 86.14ZM350.77 86.14L350.95 86.05C350.742 85.9651 350.523 85.9112 350.3 85.89C350.16 85.89 349.92 86.1 349.93 86.21C349.93 87.03 350.05 87.84 350.14 88.66C350.185 88.897 350.245 89.1308 350.32 89.36H350.56L350.77 86.14ZM343.14 86C342.732 87.0925 342.765 88.3007 343.23 89.37C343.541 88.2633 343.509 87.0885 343.14 86ZM367.21 89.25L367.42 89.18C367.42 89.05 367.42 88.93 367.42 88.81C367.42 88.04 367.42 87.27 367.42 86.5C367.385 86.3003 367.318 86.1077 367.22 85.93C367.09 86.1 366.87 86.28 366.86 86.46C366.86 87.21 366.86 87.97 366.86 88.72C366.94 88.9273 367.059 89.1174 367.21 89.28V89.25ZM335.53 86.35C336.53 87.24 336.4 88.21 335.73 89.25C335.926 89.1946 336.109 89.0996 336.267 88.9709C336.425 88.8422 336.554 88.6824 336.648 88.5015C336.742 88.3207 336.797 88.1225 336.812 87.9193C336.826 87.716 336.798 87.5121 336.73 87.32C336.57 86.61 336.13 86.23 335.53 86.38V86.35ZM360 89C360.238 88.8859 360.444 88.7148 360.6 88.5018C360.756 88.2888 360.856 88.0406 360.893 87.7792C360.93 87.5179 360.901 87.2515 360.81 87.0039C360.719 86.7563 360.568 86.5351 360.37 86.36C360.27 86.26 360.08 86.26 359.93 86.22C359.93 86.36 359.93 86.55 359.93 86.65C360.124 86.8947 360.252 87.1846 360.303 87.4925C360.353 87.8004 360.325 88.1161 360.22 88.41C360.17 88.63 360.07 88.82 360 89ZM351.3 44.49L351.17 44.26L349.06 45.4L349.15 45.57C349.89 45.27 350.8 45.31 351.28 44.51L351.3 44.49ZM346.13 47L344.38 47.87C344.552 47.9369 344.735 47.9672 344.919 47.959C345.103 47.9508 345.283 47.9042 345.448 47.8223C345.612 47.7404 345.758 47.6249 345.876 47.4833C345.993 47.3417 346.08 47.1771 346.13 47ZM351.93 43.83L352 44C353 43.82 353.59 43.5 353.69 42.86L351.93 43.83ZM348.58 45.71C348.05 45.94 347.49 45.91 347.27 46.5C347.94 46.68 348.29 46.47 348.58 45.75V45.71ZM366.58 61.07L366.49 60.86L365.58 61.22L365.66 61.42L366.58 61.07ZM326.21 89.56C326.7 89.91 326.82 89.9 327.1 89.44L326.21 89.56Z" fill="black"/>
<path d="M362.19 53.6L363.03 53.07C363.68 52.63 363.81 52.34 363.47 51.64C363 50.73 362.5 49.86 362 49C361.79 48.65 361.47 48.72 361.14 48.84C360.81 48.96 360.52 49.04 360.14 49.15C360.28 47.77 359.42 46.87 358.9 45.85C358.3 44.66 357.58 43.53 356.9 42.35C356.55 41.72 356.48 41.7 355.9 42.15C355.699 42.3406 355.459 42.4851 355.197 42.5731C354.934 42.6612 354.655 42.6909 354.38 42.66L354.31 42.5C354.78 42.23 355.31 41.97 355.73 41.68C355.89 41.57 356.1 41.37 356.1 41.21C356.087 41.1032 356.049 41.0009 355.99 40.9108C355.931 40.8207 355.853 40.7452 355.76 40.69C355.65 40.63 355.41 40.81 355.24 40.9C355.07 40.99 354.65 41.28 354.34 41.45C353.57 41.87 352.8 42.28 352.04 42.71C351.28 43.14 350.61 43.52 349.89 43.91C349.63 44.05 349.34 44.14 349.07 44.29C347.77 45.01 346.48 45.75 345.17 46.46C344.73 46.7 344.24 46.85 343.8 47.1C343.397 47.3275 343.019 47.5956 342.67 47.9C342.601 47.97 342.551 48.0559 342.523 48.15C342.495 48.2442 342.491 48.3437 342.51 48.44C342.51 48.57 342.84 48.59 343.03 48.65C343.096 48.6598 343.164 48.6598 343.23 48.65C343.23 48.71 343.3 48.76 343.29 48.77C342.65 49.6 343.29 50.23 343.64 50.9C344.433 52.3 345.22 53.6666 346 55C347.14 57 348.31 59 349.44 61.09C350.57 63.18 351.52 65 352.58 67C352.667 67.1656 352.764 67.3259 352.87 67.48C352.904 67.5525 352.954 67.6164 353.016 67.6668C353.078 67.7172 353.151 67.753 353.229 67.7712C353.307 67.7895 353.388 67.7899 353.466 67.7724C353.544 67.7548 353.618 67.7198 353.68 67.67C355.407 66.71 357.14 65.76 358.88 64.82C360.51 63.95 362.14 63.1 363.78 62.25C364.006 62.1545 364.24 62.0808 364.48 62.03C364.48 62.8 364.39 63.46 364.39 64.13C364.39 65.75 364.39 67.37 364.39 68.99C364.39 69.81 364.13 69.99 363.33 69.99C361.87 69.99 360.41 69.99 358.94 69.99C357.75 69.99 356.55 69.93 355.35 69.92C354.35 69.92 353.44 69.92 352.48 69.92C351.29 69.92 350.11 70.04 348.93 70.04C347.75 70.04 346.57 69.99 345.39 69.96C345.15 69.96 344.9 69.96 344.66 69.96C343.82 69.96 342.97 69.96 342.13 69.96C341.7 69.96 341.67 69.56 341.67 69.23C341.67 67.75 341.59 66.23 341.58 64.77C341.58 60.83 341.5 56.9 341.46 52.96C341.46 50.59 341.46 48.21 341.39 45.84C341.31 39.4733 341.233 33.1066 341.16 26.74C341.16 26.07 341.33 25.88 342.03 25.88L352.42 25.81L363.42 25.72C364.17 25.72 364.27 25.79 364.29 26.56C364.29 28.16 364.29 29.76 364.29 31.36C364.29 34.83 364.29 38.29 364.29 41.76C364.29 45.76 364.29 49.67 364.29 53.63C364.315 54.3027 364.479 54.963 364.77 55.57C365.45 57.01 366.23 58.41 366.96 59.83C367.02 59.93 367.11 60.04 367.11 60.13C367.082 60.2819 367.035 60.4296 366.97 60.57C366.85 60.5 366.68 60.46 366.63 60.36C366.1 59.36 365.63 58.36 365.08 57.36C364.53 56.36 364 55.09 363.42 54C363.33 53.83 363 53.76 362.77 53.71C362.594 53.7043 362.418 53.728 362.25 53.78L362.19 53.6ZM359.19 33.51V33.42C359.54 33.42 359.9 33.42 360.26 33.42C360.93 33.42 361.01 33.25 360.91 32.57C360.62 30.64 358.62 29.06 356.91 28.63C356.383 28.5585 355.864 28.438 355.36 28.27C354.859 28.0614 354.302 28.0297 353.78 28.18C353.574 28.205 353.366 28.205 353.16 28.18C352.642 28.1252 352.121 28.1052 351.6 28.12C350.613 28.1485 349.632 28.2962 348.68 28.56C347.605 28.8799 346.633 29.4765 345.86 30.29C345.221 30.9493 344.814 31.7988 344.7 32.71C344.64 33.39 344.78 33.55 345.47 33.55H350.16L359.19 33.51ZM354.71 36.65C354.682 36.9459 354.716 37.2445 354.812 37.5259C354.908 37.8073 355.063 38.0649 355.267 38.2817C355.47 38.4984 355.718 38.6693 355.992 38.7828C356.267 38.8963 356.563 38.9499 356.86 38.94C357.442 38.9102 357.994 38.6694 358.412 38.2627C358.829 37.8561 359.085 37.3112 359.13 36.73C359.166 36.0844 358.947 35.4505 358.521 34.9644C358.095 34.4783 357.495 34.1787 356.85 34.13C356.541 34.1457 356.239 34.2246 355.962 34.3619C355.684 34.4992 355.438 34.6919 355.239 34.9282C355.039 35.1644 354.89 35.4391 354.801 35.7353C354.712 36.0314 354.684 36.3428 354.72 36.65H354.71ZM348.86 39.05C349.409 39.0386 349.933 38.8215 350.33 38.4419C350.726 38.0623 350.965 37.5477 351 37C351.066 36.3834 350.896 35.7648 350.526 35.2679C350.155 34.771 349.61 34.4324 349 34.32C348.692 34.2995 348.384 34.3448 348.095 34.453C347.806 34.5612 347.543 34.7298 347.325 34.9474C347.106 35.1651 346.937 35.4268 346.827 35.7153C346.718 36.0037 346.671 36.3121 346.69 36.62C346.619 36.9318 346.624 37.256 346.705 37.5655C346.785 37.875 346.938 38.1608 347.152 38.3988C347.365 38.6368 347.633 38.8201 347.932 38.9334C348.231 39.0467 348.553 39.0867 348.87 39.05H348.86Z" fill="white"/>
<path d="M354.16 78.6299C354.16 78.9699 354.08 79.1699 354.08 79.3599C354.08 80.6399 354.08 81.9199 354.08 83.1999C354.093 83.2937 354.086 83.3891 354.06 83.4801C354.034 83.5711 353.99 83.6558 353.929 83.729C353.869 83.8021 353.795 83.8621 353.711 83.9053C353.627 83.9485 353.534 83.9739 353.44 83.9799C352.35 84.1699 352.02 83.8299 352.07 82.6999C352.07 81.6999 352.07 80.7899 352.07 79.8199C352.07 78.4699 352.07 77.1199 352.07 75.7599C352.034 75.3542 352.128 74.9477 352.338 74.5989C352.549 74.2502 352.864 73.9774 353.24 73.8199C353.637 73.6543 354.075 73.6163 354.495 73.7113C354.914 73.8063 355.293 74.0295 355.58 74.3499C355.913 74.7321 356.211 75.1438 356.47 75.5799C356.92 76.2699 357.33 76.9899 357.78 77.6799C358.01 78.0399 358.26 78.0099 358.46 77.6799C358.92 76.8599 359.41 76.0599 359.83 75.2199C359.968 74.8624 360.211 74.5548 360.527 74.3372C360.843 74.1197 361.217 74.0021 361.6 73.9999C363.85 73.9999 366.09 73.9999 368.33 73.9399C368.79 73.9399 369 74.1299 369 74.5699C369 74.7599 369 74.9499 369 75.1399C369 75.5799 368.78 75.7099 368.35 75.6999C367.17 75.6999 365.99 75.6999 364.81 75.6999C364.15 75.6999 364 75.8899 363.97 76.5699C363.9 77.9799 363.97 78.0799 365.43 78.0599H368.19C368.89 78.0599 369.01 78.1799 369.07 79.0599C369.07 79.6799 368.96 79.8999 368.31 79.9199C367.21 79.9199 366.1 79.9199 364.99 79.9199C364.22 79.9199 363.99 79.9999 363.99 80.7599C363.98 80.9464 363.98 81.1334 363.99 81.3199C363.99 81.9599 364.23 82.1499 364.87 82.1499C365.87 82.1499 366.87 82.1499 367.87 82.1499C368.344 82.1973 368.815 82.2741 369.28 82.3799V82.5299C369.28 82.5299 369.36 82.4799 369.36 82.4599C369.36 80.7299 369.36 78.9999 369.36 77.2699C369.36 76.4399 369.36 75.6199 369.36 74.7899C369.347 74.686 369.357 74.5805 369.392 74.4815C369.426 74.3825 369.482 74.2927 369.557 74.2192C369.631 74.1456 369.722 74.0903 369.821 74.0574C369.921 74.0246 370.026 74.0152 370.13 74.0299C372.38 74.0299 374.62 73.9499 376.86 74.0299C377.362 74.0426 377.854 74.1711 378.298 74.4052C378.742 74.6394 379.126 74.9729 379.42 75.3799C380.233 76.384 380.675 77.6379 380.67 78.9299C380.67 80.9299 379.74 82.9299 377.61 83.5599C376.744 83.7886 375.855 83.9228 374.96 83.9599C373.5 84.0199 372.04 83.9599 370.58 83.9599C370.204 83.9135 369.832 83.8331 369.47 83.7199C369.35 83.7199 369.19 83.6499 369.1 83.7199C368.365 84.0173 367.564 84.1139 366.78 83.9999C365.62 83.9999 364.46 84.0599 363.29 83.9999C362.62 83.9926 361.951 83.9324 361.29 83.8199C360.79 83.7399 360.73 83.2899 360.72 82.8899C360.72 81.7199 360.72 80.5499 360.72 79.3899C360.72 79.1499 360.72 78.9099 360.66 78.6699L360.4 78.4699C360.34 78.6407 360.27 78.8077 360.19 78.9699C359.397 80.3232 358.62 81.6899 357.86 83.0699C357.47 83.7599 357.18 83.7699 356.8 83.0699L354.53 79.0699C354.416 78.9159 354.292 78.7689 354.16 78.6299ZM373 78.9999C373 79.5199 373 79.9999 373.07 80.5799C373.18 82.1899 373.19 82.1899 374.81 82.0899C375.332 82.1033 375.84 81.9209 376.234 81.5785C376.628 81.2361 376.88 80.7586 376.94 80.2399C377.067 79.3678 377.033 78.4797 376.84 77.6199C376.65 76.8399 376.35 75.9199 375.35 75.7399C374.864 75.6954 374.376 75.6954 373.89 75.7399C373.17 75.7399 373.05 75.8599 373.02 76.5899C372.99 77.3199 373 78.1599 373 78.9999Z" fill="white"/>
<path d="M336.4 79.9299C336.4 79.1999 336.4 78.4699 336.4 77.7399C336.4 76.7399 336.4 75.8099 336.34 74.8499C336.34 74.3799 336.48 74.1099 337.01 74.1099C339.35 74.1099 341.68 74.0099 344.01 74.1099C344.481 74.0797 344.952 74.1536 345.391 74.3264C345.83 74.4993 346.226 74.7668 346.55 75.1099C346.806 75.4249 346.988 75.7932 347.083 76.1878C347.178 76.5823 347.183 76.9932 347.099 77.3901C347.015 77.7871 346.842 78.1602 346.595 78.482C346.348 78.8038 346.032 79.0661 345.67 79.2499C345.537 79.3203 345.41 79.4005 345.29 79.4899C345.198 79.5392 345.119 79.6091 345.059 79.6942C345 79.7792 344.96 79.877 344.945 79.9799C344.929 80.0827 344.938 80.1878 344.97 80.2867C345.002 80.3857 345.057 80.4758 345.13 80.5499C345.69 81.3699 346.26 82.1899 346.82 83.0199C347.11 83.4599 347.05 83.6799 346.54 83.8599C346.255 83.9494 345.959 83.9999 345.66 84.0099C344.967 84.045 344.273 84.045 343.58 84.0099C343.436 83.9985 343.297 83.958 343.17 83.891C343.043 83.8239 342.93 83.7317 342.84 83.6199C342.03 82.3099 341.25 80.9699 340.5 79.6199C340.21 79.0999 340.32 78.9499 340.91 78.9399C341.25 78.9399 341.59 78.9399 341.91 78.9399C342.085 78.9273 342.256 78.8799 342.413 78.8003C342.57 78.7207 342.709 78.6107 342.823 78.4765C342.936 78.3424 343.022 78.1869 343.075 78.0192C343.128 77.8515 343.146 77.6749 343.13 77.4999C343.13 76.3499 342.79 75.9199 341.89 75.8099C341.591 75.773 341.291 75.7563 340.99 75.7599C340.11 75.7599 339.89 75.9499 339.9 76.8499C339.91 77.7499 339.9 78.8499 339.95 79.8499C340 80.8499 339.95 82.0299 339.95 83.1299C339.95 83.6499 339.73 83.9899 339.21 83.9999C337.64 83.9999 336.06 83.9999 334.49 83.9999C334.401 83.9819 334.318 83.946 334.244 83.8944C334.17 83.8428 334.107 83.7766 334.06 83.6999C333.925 83.4944 333.818 83.2726 333.74 83.0399C333.35 82.1199 333.05 81.9499 332.06 82.0399C331.07 82.1299 330.15 82.0399 329.2 82.1199C328.951 82.1186 328.711 82.2102 328.526 82.3766C328.341 82.543 328.225 82.7724 328.2 83.0199C328.04 83.7999 327.79 84.0199 326.97 84.0799C326.64 84.0799 326.3 84.1799 325.97 84.1999C325.42 84.1999 325.19 83.9099 325.41 83.4099C326.63 80.6499 327.84 77.8999 329.12 75.1699C329.35 74.7516 329.702 74.4129 330.128 74.1987C330.555 73.9844 331.037 73.9047 331.51 73.9699C331.925 73.934 332.34 74.0284 332.699 74.2399C333.057 74.4514 333.341 74.7695 333.51 75.1499C334.31 76.7199 335.16 78.2699 335.99 79.8199C336.07 79.9253 336.164 80.0195 336.27 80.0999L336.4 79.9299ZM330.85 77.2199C330.7 77.2899 330.63 77.2999 330.61 77.3399C330.24 78.1099 329.85 78.8799 329.52 79.6599C329.4 79.9699 329.6 80.1699 329.93 80.1699C330.509 80.2 331.09 80.2 331.67 80.1699C331.8 80.1699 332.02 79.8699 331.99 79.7899C331.64 78.9099 331.24 78.0699 330.85 77.2199Z" fill="white"/>
<path d="M349.53 70.8899H356.2C356.65 70.8899 357.09 70.8899 357.14 71.4899C357.2 72.3299 357.04 72.5999 356.35 72.7199C356.129 72.763 355.905 72.7864 355.68 72.7899C354.57 72.7899 353.46 72.7899 352.36 72.6999C351.99 72.6999 351.82 72.8399 351.81 73.1799C351.81 74.4499 351.76 75.7299 351.75 77.0099C351.74 78.2899 351.75 79.7499 351.75 81.1199V82.9899C351.75 83.6799 351.55 83.9299 350.87 83.9899C350.35 83.9899 349.87 83.9899 349.3 83.9899C349.037 83.975 348.773 83.975 348.51 83.9899C347.86 84.0799 347.67 83.9899 347.65 83.2999C347.65 81.6699 347.58 80.0299 347.56 78.3899C347.54 76.7499 347.56 75.1899 347.56 73.5899C347.56 73.0099 347.34 72.7999 346.77 72.8199L343.29 72.9299C342.41 72.9299 341.98 72.7199 341.94 72.0999C341.87 71.1699 342.02 71.0099 342.94 71.0099C345.12 71.0099 347.31 71.0099 349.49 71.0099L349.53 70.8899Z" fill="white"/>
<path d="M377.21 88.1699C377.47 87.6899 377.43 87.3699 376.91 86.8799C376.785 87.0869 376.672 87.3005 376.57 87.5199C376.36 88.0399 376.2 88.5899 375.97 89.0999C375.9 89.2699 375.66 89.3599 375.5 89.4899C375.467 89.3114 375.467 89.1284 375.5 88.9499C375.81 88.1199 376.12 87.2899 376.5 86.4899C376.6 86.2599 376.86 86.0999 377.04 85.8999C377.23 86.0899 377.48 86.2499 377.58 86.4799C377.93 87.2899 378.25 88.1099 378.58 88.9299C378.61 89.0986 378.61 89.2712 378.58 89.4399C378.4 89.3874 378.231 89.3027 378.08 89.1899C377.72 88.8899 377.49 88.5399 377.21 88.1699Z" fill="white"/>
<path d="M360.27 53.4401C360.236 53.6621 360.236 53.888 360.27 54.1101C360.382 54.3345 360.523 54.543 360.69 54.7301C360.505 54.7774 360.309 54.7662 360.13 54.6982C359.951 54.6302 359.797 54.5086 359.69 54.3501C359.123 53.7053 358.618 53.009 358.18 52.2701C357.936 51.6915 357.817 51.0679 357.83 50.4401C357.83 50.2401 358.17 50.0201 358.36 49.8101L358.55 49.9401C358.507 50.0675 358.474 50.1978 358.45 50.3301C358.45 50.4701 358.33 50.7001 358.39 50.7501C358.81 51.1101 358.69 51.4801 358.52 51.9001C358.35 52.3201 358.58 52.4001 358.92 52.4101C359.26 52.4201 359.37 52.5001 359.33 52.8501C359.24 53.5001 359.33 53.5701 359.98 53.4601L360.27 53.4401Z" fill="white"/>
<path d="M359.33 85.9999C358.57 86.3099 357.57 86.2599 357.53 87.4699C357.503 87.6895 357.519 87.9124 357.578 88.1257C357.637 88.339 357.737 88.5385 357.874 88.7125C358.011 88.8865 358.181 89.0316 358.374 89.1393C358.568 89.247 358.78 89.3152 359 89.3399V89.5199C358.77 89.5199 358.42 89.5999 358.35 89.5199C358.03 89.0599 357.19 89.1099 357.2 88.3499C357.13 87.9128 357.13 87.4671 357.2 87.0299C357.352 86.6152 357.659 86.2759 358.057 86.0836C358.454 85.8914 358.911 85.8614 359.33 85.9999Z" fill="white"/>
<path d="M368 86.14C368.31 86.01 368.71 85.73 369.12 86.2C369.31 86.3852 369.424 86.6358 369.437 86.9012C369.45 87.1666 369.361 87.427 369.19 87.63C369.035 87.8089 368.942 88.0335 368.926 88.2699C368.909 88.5063 368.971 88.7415 369.1 88.94C369.1 89.03 369.1 89.2 369.04 89.33C368.91 89.33 368.72 89.33 368.66 89.19C368.454 88.9009 368.289 88.5845 368.17 88.25C368.156 88.1645 368.164 88.077 368.192 87.9951C368.219 87.9132 368.267 87.8393 368.33 87.78C368.76 87.56 369.03 87.23 368.82 86.78C368.61 86.33 368.29 86.35 368 86.14Z" fill="white"/>
<path d="M326.15 87.7701C326.05 88.2401 325.99 88.6001 325.89 88.9501C325.828 89.1327 325.751 89.31 325.66 89.4801C325.54 89.3101 325.35 89.1501 325.33 88.9801C325.33 88.1901 325.25 87.4001 325.27 86.6101C325.27 86.4401 325.52 86.1201 325.63 86.1301C325.96 86.1301 326 86.4101 325.92 86.7201C325.84 87.0301 325.76 87.5901 326.15 87.7701Z" fill="white"/>
<path d="M334.61 86.1399C334.346 86.613 334.187 87.1375 334.144 87.6776C334.101 88.2177 334.175 88.7608 334.36 89.2699C334.36 89.3999 334.25 89.5599 334.2 89.7099C334.042 89.6634 333.891 89.5962 333.75 89.5099C333.69 89.4599 333.75 89.2999 333.75 89.1899C333.75 88.3199 333.75 87.4599 333.75 86.5999C333.67 85.9999 334 85.7899 334.61 86.1399Z" fill="white"/>
<path d="M350.77 86.1799L350.56 89.3899H350.32C350.244 89.1608 350.184 88.9269 350.14 88.6899C350.05 87.8699 349.97 87.0599 349.93 86.2399C349.93 86.1299 350.16 85.9299 350.3 85.9199C350.523 85.9411 350.742 85.995 350.95 86.0799L350.77 86.1799Z" fill="white"/>
<path d="M343.14 86C343.509 87.0886 343.54 88.2633 343.23 89.37C342.764 88.3008 342.732 87.0926 343.14 86Z" fill="white"/>
<path d="M367.21 89.28C367.104 89.1173 367.026 88.9382 366.98 88.75C366.98 88 366.92 87.24 366.98 86.49C366.98 86.31 367.21 86.13 367.34 85.96C367.437 86.1377 367.505 86.3303 367.54 86.53C367.54 87.3 367.54 88.07 367.54 88.84C367.54 88.96 367.54 89.08 367.54 89.21L367.21 89.28Z" fill="white"/>
<path d="M335.53 86.3799C336.13 86.2299 336.53 86.6099 336.76 87.3799C336.828 87.572 336.856 87.776 336.842 87.9792C336.828 88.1824 336.772 88.3806 336.678 88.5615C336.585 88.7424 336.455 88.9021 336.297 89.0308C336.139 89.1596 335.956 89.2545 335.76 89.3099C336.4 88.2399 336.52 87.2699 335.53 86.3799Z" fill="white"/>
<path d="M360 89C360.09 88.8 360.19 88.61 360.26 88.41C360.365 88.1213 360.397 87.8108 360.351 87.5069C360.306 87.203 360.185 86.9152 360 86.67C359.93 86.57 360 86.38 360 86.24C360.15 86.24 360.34 86.24 360.44 86.38C360.631 86.5604 360.774 86.785 360.857 87.0339C360.941 87.2828 360.962 87.5484 360.918 87.8073C360.875 88.0662 360.768 88.3104 360.608 88.5184C360.448 88.7264 360.239 88.8918 360 89Z" fill="white"/>
<path d="M351.28 44.51C350.8 45.31 349.89 45.27 349.15 45.57L349.06 45.4L351.15 44.28L351.28 44.51Z" fill="white"/>
<path d="M346.13 47C346.08 47.1771 345.993 47.3417 345.876 47.4833C345.758 47.6249 345.612 47.7404 345.447 47.8223C345.283 47.9043 345.103 47.9508 344.919 47.959C344.735 47.9672 344.551 47.9369 344.38 47.87L346.13 47Z" fill="white"/>
<path d="M351.93 43.8701L353.72 42.8701C353.62 43.5101 353.08 43.8701 352.03 44.0101L351.93 43.8701Z" fill="white"/>
<path d="M348.58 45.75C348.29 46.47 347.94 46.68 347.27 46.54C347.49 46 348.05 46 348.58 45.75Z" fill="white"/>
<path d="M366.61 61.1099L365.69 61.4599L365.61 61.2599L366.52 60.8999L366.61 61.1099Z" fill="white"/>
<path d="M326.21 89.5599L327.1 89.4399C326.82 89.8999 326.7 89.9099 326.21 89.5599Z" fill="white"/>
<path d="M359.2 33.5101H350.2H345.51C344.82 33.5101 344.68 33.3501 344.74 32.6701C344.854 31.7589 345.261 30.9094 345.9 30.2501C346.672 29.4366 347.645 28.84 348.72 28.5201C349.672 28.2563 350.653 28.1086 351.64 28.0801C352.161 28.0653 352.682 28.0853 353.2 28.1401C353.406 28.1651 353.614 28.1651 353.82 28.1401C354.342 27.9898 354.899 28.0215 355.4 28.2301C355.904 28.398 356.423 28.5186 356.95 28.5901C358.66 29.0201 360.66 30.5901 360.95 32.5301C361.05 33.2101 360.95 33.3401 360.3 33.3801C359.94 33.3801 359.58 33.3801 359.23 33.3801L359.2 33.5101Z" fill="black"/>
<path d="M354.72 36.6499C354.684 36.3419 354.712 36.0297 354.802 35.7329C354.892 35.4361 355.042 35.1609 355.242 34.9246C355.443 34.6882 355.69 34.4956 355.969 34.3589C356.247 34.2222 356.551 34.1443 356.86 34.1299C357.505 34.1786 358.105 34.4782 358.531 34.9643C358.958 35.4504 359.176 36.0843 359.14 36.7299C359.095 37.3111 358.84 37.856 358.422 38.2627C358.004 38.6693 357.453 38.9101 356.87 38.9399C356.573 38.9498 356.277 38.8962 356.003 38.7827C355.728 38.6692 355.48 38.4983 355.277 38.2816C355.073 38.0648 354.919 37.8072 354.823 37.5258C354.727 37.2444 354.692 36.9458 354.72 36.6499Z" fill="black"/>
<path d="M348.87 39.05C348.55 39.0921 348.225 39.0561 347.922 38.9451C347.619 38.8341 347.347 38.6514 347.13 38.4127C346.913 38.174 346.757 37.8862 346.675 37.574C346.593 37.2619 346.588 36.9345 346.66 36.62C346.64 36.3094 346.688 35.9982 346.799 35.7076C346.91 35.4169 347.083 35.1536 347.305 34.9354C347.526 34.7172 347.793 34.5494 348.085 34.4432C348.378 34.337 348.69 34.295 349 34.32C349.61 34.4324 350.155 34.771 350.525 35.2679C350.896 35.7648 351.066 36.3835 351 37C350.965 37.546 350.727 38.0592 350.333 38.4386C349.939 38.818 349.417 39.0361 348.87 39.05Z" fill="black"/>
<path d="M373 79C373 78.21 373 77.41 373 76.62C373 75.83 373.15 75.7899 373.87 75.7699C374.355 75.7254 374.844 75.7254 375.33 75.7699C376.33 75.9499 376.63 76.87 376.82 77.65C377.013 78.5098 377.047 79.3979 376.92 80.2699C376.832 80.7757 376.562 81.2315 376.16 81.5506C375.757 81.8696 375.252 82.0296 374.74 82C373.12 82.1 373.11 82.0999 373 80.4899C373 79.9599 373 79.43 372.93 78.91L373 79Z" fill="black"/>
<path d="M330.85 77.22C331.24 78.07 331.64 78.91 331.99 79.76C331.99 79.84 331.8 80.13 331.67 80.14C331.091 80.17 330.51 80.17 329.93 80.14C329.6 80.14 329.4 79.94 329.52 79.63C329.85 78.85 330.24 78.08 330.61 77.31C330.63 77.3 330.7 77.29 330.85 77.22Z" fill="black"/>
<path d="M638.384 78.0034C637.396 77.9717 636.414 78.1598 635.508 78.5539C635.067 78.7329 634.66 78.9876 634.306 79.3066C634.306 79.3066 634.306 79.3066 634.306 79.374V81.4636C634.306 81.5759 634.306 81.7669 634.385 81.6433L634.587 81.4074C634.893 81.1076 635.224 80.8333 635.575 80.5873L635.811 80.4525L635.98 80.3402C636.737 79.9692 637.576 79.7953 638.418 79.8346C640.283 79.8346 640.754 80.5873 640.754 81.5535C640.114 83.0027 636.542 82.6095 634.823 84.1374C634.786 84.1682 634.752 84.202 634.722 84.2385L634.643 84.3396C634.577 84.4094 634.517 84.4846 634.463 84.5643C634.443 84.5997 634.421 84.6335 634.396 84.6654C634.118 85.1455 633.981 85.6948 634.003 86.2494C633.979 86.8185 634.115 87.3829 634.396 87.8784C634.396 87.8784 634.396 87.957 634.396 87.9907C634.427 88.0242 634.454 88.0621 634.475 88.1031C634.479 88.1175 634.486 88.1309 634.496 88.1425C634.505 88.1541 634.517 88.1636 634.531 88.1705C634.996 88.6677 635.569 89.0526 636.206 89.2958C636.842 89.5391 637.526 89.6345 638.204 89.5748C639.125 89.6012 640.046 89.5448 640.957 89.4063C641.697 89.2524 642.412 88.9952 643.08 88.6423V81.6658C643.024 79.3516 641.395 78.0034 638.384 78.0034ZM640.777 83.6206V87.6986C640.021 87.8885 639.243 87.9792 638.463 87.9683C636.879 87.9683 636.216 87.3054 636.216 86.328C636.216 84.216 639.732 84.7328 640.653 83.7891C640.693 83.7572 640.727 83.7193 640.754 83.6768L640.777 83.6206Z" fill="white"/>
<path d="M13.1 195H10.5V200.5H5V203.1H10.5V208.6H13.1V203.1H18.6V200.5H13.1V195Z" fill="#144E52"/>
<path d="M69.5008 195H66.8008V200.5H61.3008V203.1H66.8008V208.6H69.5008V203.1H75.0008V200.5H69.5008V195Z" fill="#144E52"/>
<path d="M125.8 195H123.2V200.5H117.7V203.1H123.2V208.6H125.8V203.1H131.3V200.5H125.8V195Z" fill="#144E52"/>
<path d="M182.2 195H179.5V200.5H174V203.1H179.5V208.6H182.2V203.1H187.7V200.5H182.2V195Z" fill="#144E52"/>
<path d="M238.5 195H235.9V200.5H230.4V203.1H235.9V208.6H238.5V203.1H244V200.5H238.5V195Z" fill="#144E52"/>
<path d="M13.1 249.6H10.5V255.1H5V257.7H10.5V263.2H13.1V257.7H18.6V255.1H13.1V249.6Z" fill="#144E52"/>
<path d="M69.5008 249.6H66.8008V255.1H61.3008V257.7H66.8008V263.2H69.5008V257.7H75.0008V255.1H69.5008V249.6Z" fill="#144E52"/>
<path d="M125.8 249.6H123.2V255.1H117.7V257.7H123.2V263.2H125.8V257.7H131.3V255.1H125.8V249.6Z" fill="#144E52"/>
<path d="M182.2 249.6H179.5V255.1H174V257.7H179.5V263.2H182.2V257.7H187.7V255.1H182.2V249.6Z" fill="#144E52"/>
<path d="M238.5 249.6H235.9V255.1H230.4V257.7H235.9V263.2H238.5V257.7H244V255.1H238.5V249.6Z" fill="#144E52"/>
<path d="M294.9 195H292.2V200.5H286.7V203.1H292.2V208.6H294.9V203.1H300.4V200.5H294.9V195Z" fill="#144E52"/>
<path d="M351.201 195H348.601V200.5H343.101V203.1H348.601V208.6H351.201V203.1H356.701V200.5H351.201V195Z" fill="#144E52"/>
<path d="M407.6 195H404.9V200.5H399.4V203.1H404.9V208.6H407.6V203.1H413.1V200.5H407.6V195Z" fill="#144E52"/>
<path d="M463.901 195H461.301V200.5H455.801V203.1H461.301V208.6H463.901V203.1H469.401V200.5H463.901V195Z" fill="#144E52"/>
<path d="M294.9 249.6H292.2V255.1H286.7V257.7H292.2V263.2H294.9V257.7H300.4V255.1H294.9V249.6Z" fill="#144E52"/>
<path d="M351.201 249.6H348.601V255.1H343.101V257.7H348.601V263.2H351.201V257.7H356.701V255.1H351.201V249.6Z" fill="#144E52"/>
<path d="M407.6 249.6H404.9V255.1H399.4V257.7H404.9V263.2H407.6V257.7H413.1V255.1H407.6V249.6Z" fill="#144E52"/>
<path d="M463.901 249.6H461.301V255.1H455.801V257.7H461.301V263.2H463.901V257.7H469.401V255.1H463.901V249.6Z" fill="#144E52"/>
<path d="M463.901 195H461.301V200.5H455.801V203.1H461.301V208.6H463.901V203.1H469.401V200.5H463.901V195Z" fill="#144E52"/>
<path d="M520.301 195H517.601V200.5H512.101V203.1H517.601V208.6H520.301V203.1H525.801V200.5H520.301V195Z" fill="#144E52"/>
<path d="M576.6 195H574V200.5H568.5V203.1H574V208.6H576.6V203.1H582.1V200.5H576.6V195Z" fill="#144E52"/>
<path d="M633.001 195H630.301V200.5H624.801V203.1H630.301V208.6H633.001V203.1H638.501V200.5H633.001V195Z" fill="#144E52"/>
<path d="M689.3 195H686.7V200.5H681.2V203.1H686.7V208.6H689.3V203.1H694.8V200.5H689.3V195Z" fill="#144E52"/>
<path d="M463.901 249.6H461.301V255.1H455.801V257.7H461.301V263.2H463.901V257.7H469.401V255.1H463.901V249.6Z" fill="#144E52"/>
<path d="M520.301 249.6H517.601V255.1H512.101V257.7H517.601V263.2H520.301V257.7H525.801V255.1H520.301V249.6Z" fill="#144E52"/>
<path d="M576.6 249.6H574V255.1H568.5V257.7H574V263.2H576.6V257.7H582.1V255.1H576.6V249.6Z" fill="#144E52"/>
<path d="M633.001 249.6H630.301V255.1H624.801V257.7H630.301V263.2H633.001V257.7H638.501V255.1H633.001V249.6Z" fill="#144E52"/>
<path d="M689.3 249.6H686.7V255.1H681.2V257.7H686.7V263.2H689.3V257.7H694.8V255.1H689.3V249.6Z" fill="#144E52"/>
<rect y="161" width="709" height="6" rx="3" fill="#1A1A1A"/>
<circle cx="53" cy="164" r="8" fill="#1A1A1A"/>
<circle cx="353" cy="164" r="8" fill="#1A1A1A"/>
<circle cx="666" cy="164" r="8" fill="#1A1A1A"/>
</svg>
