<svg viewBox="0 0 200 99" fill="none" xmlns="http://www.w3.org/2000/svg">
<path d="M200 13.3738H183.083V20.4437H200V13.3738Z" fill="#76CCD8"/>
<path d="M186.626 16.9009H179.572V33.8176H186.626V16.9009Z" fill="#1EBCC5"/>
<path d="M186.626 20.4437H166.183V13.3738H179.572V0H186.626" fill="#00ACB4"/>
<path d="M76.7956 83.0675C76.146 82.2593 75.3142 81.6166 74.3682 81.1922C73.4222 80.7678 72.3891 80.5736 71.3535 80.6257C70.2742 80.6191 69.2059 80.8435 68.2204 81.2839C67.235 81.7244 66.3552 82.3706 65.6402 83.1792C64.098 84.898 63.2451 87.1259 63.2451 89.4352C63.2451 91.7444 64.098 93.9723 65.6402 95.6911C66.3532 96.5022 67.2326 97.1501 68.2185 97.5907C69.2044 98.0314 70.2737 98.2544 71.3535 98.2446C72.3931 98.2911 73.4288 98.0895 74.375 97.6566C75.3213 97.2237 76.151 96.5719 76.7956 95.755V97.7339H81.1046V81.0885H76.7956V83.0675V83.0675ZM67.5553 89.4511C67.5322 88.8292 67.6348 88.2091 67.8569 87.6277C68.079 87.0464 68.4161 86.5159 68.8479 86.0678C69.7391 85.2143 70.9255 84.7378 72.1595 84.7378C73.3934 84.7378 74.5798 85.2143 75.471 86.0678C76.3234 86.9882 76.797 88.1966 76.797 89.4511C76.797 90.7057 76.3234 91.914 75.471 92.8345C74.5798 93.688 73.3934 94.1644 72.1595 94.1644C70.9255 94.1644 69.7391 93.688 68.8479 92.8345C68.4053 92.3776 68.0619 91.834 67.8395 91.2381C67.617 90.6421 67.5202 90.0065 67.5553 89.3713V89.4511ZM87.2967 81.0885H82.9877V97.7818H87.2967V89.8022C87.2412 89.1409 87.3593 88.4765 87.6391 87.8747C87.919 87.273 88.3511 86.7547 88.8926 86.371C89.9243 85.6807 91.1749 85.3964 92.4036 85.573V80.7853C91.3236 80.7669 90.2588 81.0427 89.3235 81.5833C88.391 82.1138 87.6823 82.9642 87.3286 83.9771V81.1045L87.2967 81.0885Z" fill="white"/>
<path d="M104.883 81.0883H101.117V76.4282L96.8079 77.7209V81.0883H93.9033V85.2377H96.8079V92.1799C96.7019 93.0655 96.812 93.9637 97.1289 94.7975C97.4457 95.6313 97.9598 96.3759 98.6272 96.9676C99.8401 97.8613 101.931 98.1486 104.883 97.8135V93.8716C104.192 93.9108 103.5 93.9108 102.809 93.8716C102.349 93.8748 101.903 93.7167 101.548 93.4247C101.389 93.258 101.269 93.0591 101.194 92.8414C101.12 92.6238 101.094 92.3927 101.117 92.1639V85.2377H104.883V81.0883V81.0883ZM120.332 82.9874C119.872 82.2071 119.205 81.5691 118.405 81.1439C117.605 80.7186 116.703 80.5227 115.799 80.5776C114.898 80.5162 113.996 80.6898 113.182 81.0815C112.368 81.4731 111.67 82.0694 111.155 82.8119V81.0883H106.926V97.7816H111.235V88.3976C111.169 87.3949 111.47 86.4026 112.081 85.6047C112.352 85.2849 112.689 85.0278 113.069 84.8514C113.45 84.6751 113.864 84.5836 114.283 84.5833C114.668 84.5633 115.053 84.6271 115.412 84.7704C115.77 84.9136 116.093 85.133 116.358 85.4132C116.889 86.0812 117.151 86.9238 117.092 87.7752V97.7496H121.401V88.3976C121.333 87.3997 121.622 86.4101 122.215 85.6047C122.489 85.272 122.836 85.0068 123.229 84.8297C123.622 84.6526 124.05 84.5683 124.481 84.5833C124.866 84.5633 125.251 84.6271 125.61 84.7704C125.968 84.9136 126.291 85.133 126.556 85.4132C127.086 86.0825 127.353 86.9227 127.306 87.7752V97.7496H131.599V87.5039C131.697 85.6758 131.085 83.8806 129.891 82.4927C129.304 81.8692 128.59 81.3797 127.797 81.0575C127.004 80.7352 126.15 80.5879 125.295 80.6255C124.335 80.5625 123.375 80.7466 122.506 81.1601C121.637 81.5735 120.888 82.2026 120.332 82.9874V82.9874Z" fill="white"/>
<path d="M150.159 91.2065C150.274 90.6014 150.332 89.987 150.335 89.3712C150.398 87.0462 149.537 84.791 147.941 83.0993C147.17 82.2719 146.232 81.6178 145.189 81.1803C144.147 80.7428 143.023 80.532 141.892 80.5617C140.711 80.5146 139.534 80.7145 138.434 81.1487C137.335 81.5829 136.339 82.2418 135.509 83.0833C134.703 83.9152 134.074 84.9006 133.657 85.9808C133.24 87.061 133.045 88.214 133.083 89.3712C133.043 90.5555 133.251 91.7351 133.693 92.8344C134.136 93.9337 134.803 94.9285 135.652 95.7548C136.529 96.6044 137.57 97.2652 138.712 97.6961C139.854 98.1271 141.072 98.3192 142.291 98.2604C143.709 98.3367 145.122 98.0481 146.396 97.4223C147.671 96.7964 148.763 95.8541 149.569 94.6856L146.026 92.6747C145.578 93.2219 145.005 93.6528 144.354 93.9306C143.704 94.2085 142.996 94.3251 142.291 94.2706C141.24 94.4258 140.168 94.1852 139.284 93.5956C138.399 93.006 137.765 92.1092 137.504 91.0788L150.159 91.2065ZM138.988 85.3814C139.819 84.7731 140.831 84.4638 141.86 84.5037C142.8 84.4898 143.718 84.781 144.478 85.3335C145.317 85.9421 145.889 86.8511 146.074 87.871H137.52C137.71 86.89 138.241 86.008 139.02 85.3814H138.988ZM165.145 83.0673C164.508 82.2526 163.683 81.6047 162.741 81.1794C161.798 80.7541 160.767 80.564 159.735 80.6256C158.65 80.6175 157.577 80.8411 156.586 81.2815C155.595 81.7219 154.71 82.3688 153.989 83.179C152.447 84.8979 151.594 87.1258 151.594 89.435C151.594 91.7443 152.447 93.9722 153.989 95.691C154.707 96.5045 155.592 97.1537 156.584 97.5943C157.575 98.035 158.65 98.2567 159.735 98.2445C160.776 98.3058 161.817 98.1109 162.766 97.6769C163.714 97.2429 164.542 96.5829 165.177 95.7548V97.7338H169.486V74.4175H165.177V83.0673H165.145ZM155.905 89.451C155.884 88.8266 155.991 88.2046 156.218 87.6229C156.446 87.0412 156.79 86.512 157.229 86.0677C158.12 85.2141 159.307 84.7377 160.541 84.7377C161.775 84.7377 162.961 85.2141 163.852 86.0677C164.684 86.9981 165.145 88.2027 165.145 89.451C165.145 90.6993 164.684 91.9039 163.852 92.8343C162.961 93.6878 161.775 94.1643 160.541 94.1643C159.307 94.1643 158.12 93.6878 157.229 92.8343C156.784 92.3791 156.439 91.8359 156.217 91.2395C155.994 90.6431 155.899 90.0067 155.936 89.3712L155.905 89.451Z" fill="white"/>
<path d="M5.95276 62.5599V28.4712H14.5707V62.5599C14.5707 67.4647 13.3791 71.0395 10.9959 73.2845C8.61262 75.5294 4.94733 76.5029 0 76.205V67.9062C0.786141 68.0341 1.58981 68.0055 2.36486 67.822C3.13992 67.6386 3.8711 67.3038 4.51644 66.837C5.0469 66.2676 5.4495 65.5915 5.69723 64.8538C5.94495 64.1161 6.03208 63.334 5.95276 62.5599V62.5599ZM10.2936 24.4654C9.5875 24.4727 8.8874 24.3348 8.23677 24.0602C7.58613 23.7857 6.99884 23.3804 6.51133 22.8695C6.01029 22.3895 5.613 21.8119 5.344 21.1724C5.07499 20.5328 4.93999 19.8448 4.94733 19.151C4.94813 18.4508 5.08984 17.7579 5.36402 17.1136C5.63819 16.4693 6.03923 15.8867 6.54325 15.4006C7.02898 14.8874 7.61594 14.4806 8.26699 14.2059C8.91804 13.9312 9.61901 13.7946 10.3256 13.8047C11.0197 13.7989 11.7075 13.9378 12.345 14.2125C12.9825 14.4873 13.5557 14.892 14.0281 15.4006C14.5343 15.885 14.9368 16.4673 15.2112 17.112C15.4855 17.7567 15.626 18.4504 15.624 19.151C15.627 19.8448 15.4868 20.5316 15.2121 21.1687C14.9375 21.8058 14.5345 22.3794 14.0281 22.8536C13.5516 23.3668 12.9735 23.7752 12.3306 24.0527C11.6876 24.3302 10.9939 24.4708 10.2936 24.4654Z" fill="white"/>
<path d="M45.1799 28.471H53.8138V61.8894H45.1799V57.9475C43.8816 59.5648 42.218 60.8509 40.3258 61.6999C38.4337 62.5488 36.367 62.9365 34.2958 62.831C32.1294 62.8481 29.9846 62.4011 28.0054 61.5202C26.0262 60.6394 24.2585 59.345 22.8211 57.7241C19.644 54.3312 17.925 49.8272 18.0334 45.1802C17.9223 40.5376 19.642 36.0376 22.8211 32.6523C24.2557 31.0269 26.0225 29.7284 28.0021 28.8446C29.9816 27.9608 32.1279 27.5123 34.2958 27.5294C36.367 27.4239 38.4337 27.8116 40.3258 28.6606C42.218 29.5096 43.8816 30.7956 45.1799 32.4129V28.471ZM29.2207 51.9629C30.0783 52.8382 31.1085 53.5257 32.2459 53.9818C33.3833 54.4378 34.6031 54.6525 35.8278 54.6121C37.0596 54.6514 38.2863 54.4365 39.4313 53.9807C40.5763 53.5248 41.615 52.838 42.4828 51.9629C43.3602 51.071 44.0463 50.0094 44.499 48.8432C44.9518 47.6769 45.1618 46.4305 45.1161 45.1802C45.1618 43.93 44.9518 42.6836 44.499 41.5173C44.0463 40.351 43.3602 39.2895 42.4828 38.3976C41.612 37.5277 40.5723 36.8453 39.4278 36.3924C38.2832 35.9395 37.0581 35.7258 35.8278 35.7643C34.6046 35.7248 33.3864 35.9382 32.2494 36.3914C31.1125 36.8445 30.0814 37.5275 29.2207 38.3976C28.3485 39.2924 27.6669 40.3549 27.217 41.5207C26.7672 42.6865 26.5584 43.9314 26.6034 45.1802C26.5668 46.4335 26.7856 47.6812 27.2465 48.8473C27.7075 50.0133 28.4009 51.0734 29.2846 51.9629H29.2207Z" fill="white"/>
<path d="M58.9531 61.8896V13.1025H67.5711V61.8896H58.9531Z" fill="white"/>
<path d="M80.0832 48.7232C81.2322 52.9152 84.3709 55.0111 89.4991 55.0111C90.9251 55.1027 92.3519 54.8454 93.6561 54.2614C94.9603 53.6774 96.1025 52.7844 96.9839 51.6597L103.942 55.6814C100.612 60.4585 95.755 62.8418 89.3714 62.8311C86.9291 62.9407 84.49 62.5531 82.2021 61.6917C79.9141 60.8303 77.825 59.5131 76.0615 57.8199C74.4105 56.1647 73.1145 54.19 72.2529 52.0167C71.3913 49.8434 70.9821 47.5172 71.0503 45.1803C70.9867 42.8567 71.392 40.5442 72.242 38.3808C73.0921 36.2173 74.3693 34.2474 75.9976 32.5885C77.6579 30.9051 79.6505 29.5859 81.8487 28.7149C84.0468 27.8439 86.4022 27.4402 88.7649 27.5295C91.0323 27.4674 93.2869 27.8894 95.3783 28.7672C97.4698 29.6451 99.3501 30.9587 100.894 32.6205C102.478 34.2968 103.716 36.2689 104.537 38.424C105.359 40.5791 105.748 42.8749 105.682 45.1803C105.67 46.3693 105.552 47.555 105.331 48.7232H80.0832ZM79.9395 42.0364H96.9839C96.6602 40.0188 95.5749 38.2024 93.9517 36.9613C92.4283 35.8504 90.5863 35.2626 88.7011 35.2856C86.6511 35.2127 84.6369 35.8372 82.9877 37.0571C81.415 38.3043 80.3351 40.0685 79.9395 42.0364V42.0364Z" fill="white"/>
<path d="M139.77 61.8896H129.748L117.571 46.7125V61.8896H108.953V15.0974H117.571V43.2334L129.078 28.4712H139.371L125.934 44.9889L139.77 61.8896Z" fill="white"/>
<path d="M167.443 57.7243C164.971 60.2105 161.815 61.905 158.377 62.5921C154.939 63.2793 151.375 62.928 148.137 61.5829C144.899 60.2379 142.135 57.96 140.196 55.039C138.257 52.1181 137.231 48.6863 137.248 45.1804C137.177 42.8147 137.582 40.4587 138.438 38.2522C139.294 36.0457 140.585 34.0335 142.233 32.3349C143.881 30.6364 145.854 29.286 148.034 28.3639C150.213 27.4417 152.556 26.9666 154.923 26.9666C157.29 26.9666 159.633 27.4417 161.812 28.3639C163.992 29.286 165.965 30.6364 167.613 32.3349C169.261 34.0335 170.552 36.0457 171.408 38.2522C172.264 40.4587 172.669 42.8147 172.598 45.1804C172.645 47.513 172.211 49.8303 171.324 51.9882C170.438 54.1462 169.116 56.0987 167.443 57.7243V57.7243ZM148.42 51.8035C150.161 53.4724 152.479 54.4041 154.891 54.4041C157.303 54.4041 159.621 53.4724 161.362 51.8035C162.226 50.936 162.902 49.9006 163.349 48.7615C163.797 47.6224 164.006 46.4036 163.964 45.1804C164.004 43.9575 163.794 42.7393 163.347 41.6004C162.899 40.4616 162.224 39.4261 161.362 38.5574C159.621 36.8885 157.303 35.9568 154.891 35.9568C152.479 35.9568 150.161 36.8885 148.42 38.5574C147.568 39.432 146.902 40.4693 146.46 41.6072C146.019 42.7452 145.811 43.9605 145.85 45.1804C145.81 46.4005 146.018 47.6161 146.459 48.7542C146.901 49.8922 147.567 50.9294 148.42 51.8035V51.8035Z" fill="white"/>
</svg>
