<svg viewBox="0 0 390 203" fill="none" xmlns="http://www.w3.org/2000/svg">
<g clip-path="url(#clip0_982_177)">
<path d="M258.855 6.70959H250.372V10.2555H258.855V6.70959Z" fill="#76CCD8"/>
<path d="M252.146 8.48254H248.6V16.965H252.146V8.48254Z" fill="#1EBCC5"/>
<path d="M252.145 10.2489H241.89V6.70957H248.599V0H252.145" fill="#00ACB4"/>
<path d="M149.716 22.106C149.063 21.2992 148.229 20.6577 147.282 20.234C146.335 19.8102 145.301 19.6161 144.265 19.6674C143.181 19.6578 142.107 19.8812 141.117 20.3224C140.126 20.7636 139.242 21.4123 138.524 22.2246C136.933 23.9203 136.073 26.1745 136.132 28.4992C136.075 30.8237 136.934 33.0773 138.524 34.7738C139.242 35.5861 140.126 36.2349 141.117 36.676C142.107 37.1172 143.181 37.3406 144.265 37.3311C145.302 37.3853 146.338 37.1918 147.286 36.7666C148.233 36.3414 149.066 35.6967 149.716 34.8858V36.8631H154.033V20.1353H149.716V22.1126V22.106ZM140.449 28.4992C140.427 27.8736 140.532 27.25 140.759 26.6665C140.985 26.083 141.328 25.5516 141.767 25.1049C142.196 24.6704 142.71 24.3292 143.277 24.1024C143.844 23.8756 144.452 23.7681 145.062 23.7867C145.679 23.767 146.293 23.8737 146.866 24.1005C147.44 24.3272 147.961 24.669 148.397 25.1049C148.836 25.5516 149.179 26.083 149.406 26.6665C149.632 27.25 149.738 27.8736 149.716 28.4992C149.738 29.1248 149.632 29.7484 149.406 30.3319C149.179 30.9155 148.836 31.4468 148.397 31.8935C147.961 32.3294 147.44 32.6712 146.866 32.898C146.293 33.1247 145.679 33.2315 145.062 33.2117C144.452 33.2303 143.844 33.1229 143.277 32.8961C142.71 32.6693 142.196 32.328 141.767 31.8935C141.328 31.4468 140.985 30.9155 140.759 30.3319C140.532 29.7484 140.427 29.1248 140.449 28.4992V28.4992ZM161.592 20.1353H157.275V36.8631H161.592V28.8683C161.592 27.2601 162.111 26.1111 163.148 25.4212C164.187 24.7283 165.444 24.442 166.681 24.6171V19.7728C165.595 19.757 164.524 20.0348 163.583 20.5769C162.66 21.1194 161.959 21.9719 161.606 22.9826V20.1353H161.592Z" fill="#3B3A3A"/>
<path d="M178.558 20.1352H174.781V15.4491L170.464 16.7673V20.1484H167.551V24.2941H170.464V31.2409C170.464 33.5434 171.07 35.1384 172.283 36.026C173.496 36.9135 175.587 37.1925 178.558 36.863V32.9546C177.868 32.9932 177.177 32.9932 176.488 32.9546C176.024 32.9537 175.575 32.7931 175.216 32.4998C175.059 32.3298 174.939 32.1288 174.864 31.9098C174.789 31.6907 174.761 31.4584 174.781 31.2278V24.2809H178.558V20.1352ZM194.719 22.073C194.254 21.2947 193.585 20.6588 192.785 20.2346C191.984 19.8104 191.082 19.6142 190.177 19.6673C188.082 19.6673 186.53 20.4143 185.524 21.9082V20.1352H181.201V36.863H185.518V27.4578C185.447 26.4482 185.752 25.4481 186.374 24.65C186.66 24.3289 187.013 24.0753 187.409 23.9077C187.804 23.7401 188.232 23.6627 188.662 23.6812C189.048 23.6598 189.434 23.7237 189.793 23.8684C190.152 24.013 190.474 24.2349 190.738 24.5182C191.273 25.1763 191.544 26.0108 191.496 26.858V36.863H195.813V27.4578C195.743 26.4545 196.033 25.4591 196.63 24.65C196.914 24.325 197.268 24.0688 197.665 23.9009C198.062 23.733 198.493 23.6579 198.924 23.6812C199.31 23.6598 199.696 23.7237 200.055 23.8684C200.414 24.013 200.736 24.2349 201 24.5182C201.523 25.1816 201.784 26.0146 201.731 26.858V36.863H206.048V26.5548C206.142 24.7238 205.526 22.9271 204.328 21.5391C203.741 20.9114 203.024 20.4189 202.227 20.0957C201.431 19.7725 200.573 19.6263 199.715 19.6673C198.747 19.6086 197.78 19.7989 196.906 20.22C196.033 20.6412 195.282 21.2791 194.725 22.073H194.719ZM225.307 30.2721C225.411 29.6867 225.466 29.0936 225.472 28.4991C225.535 26.1676 224.676 23.9054 223.079 22.2048C222.305 21.3739 221.363 20.7177 220.315 20.2801C219.267 19.8425 218.138 19.6336 217.003 19.6673C215.826 19.625 214.654 19.8276 213.561 20.2621C212.467 20.6967 211.475 21.3537 210.649 22.1916C209.831 23.0213 209.19 24.0078 208.765 25.0919C208.339 26.1759 208.137 27.3349 208.171 28.4991C208.136 29.6683 208.34 30.8323 208.772 31.9193C209.204 33.0063 209.854 33.9935 210.682 34.8198C211.563 35.6687 212.607 36.3291 213.752 36.7608C214.896 37.1926 216.117 37.3866 217.339 37.331C220.555 37.331 222.981 36.138 224.635 33.7521L221.155 31.7419C220.713 32.3047 220.14 32.7513 219.487 33.043C218.833 33.3347 218.119 33.4627 217.405 33.416C214.839 33.416 213.268 32.368 212.692 30.2721H225.307ZM214.103 24.4325C214.931 23.8161 215.945 23.5021 216.976 23.5427C217.922 23.5313 218.847 23.8248 219.613 24.3798C220.431 25.0017 220.982 25.911 221.155 26.9239H212.587C212.783 25.9426 213.317 25.0612 214.096 24.4325H214.103Z" fill="#3B3A3A"/>
<path d="M240.361 22.1059C239.718 21.2964 238.891 20.6525 237.949 20.2282C237.006 19.804 235.976 19.6116 234.943 19.6673C233.854 19.6556 232.775 19.8779 231.779 20.319C230.783 20.7602 229.893 21.41 229.17 22.2246C227.578 23.9203 226.719 26.1744 226.777 28.4991C226.72 30.8236 227.58 33.0773 229.17 34.7737C229.893 35.5883 230.783 36.2381 231.779 36.6793C232.775 37.1204 233.854 37.3427 234.943 37.331C235.976 37.387 237.007 37.1941 237.95 36.7686C238.893 36.3431 239.72 35.6974 240.361 34.8858V36.863H244.678V13.4388H240.361V22.1059ZM231.094 28.4991C231.072 27.8735 231.178 27.25 231.404 26.6664C231.631 26.0829 231.974 25.5516 232.412 25.1048C232.849 24.6689 233.37 24.3271 233.943 24.1004C234.517 23.8737 235.131 23.7669 235.747 23.7866C236.358 23.768 236.966 23.8755 237.533 24.1023C238.1 24.3291 238.614 24.6704 239.043 25.1048C239.481 25.5516 239.824 26.0829 240.051 26.6664C240.278 27.25 240.383 27.8735 240.361 28.4991C240.383 29.1248 240.278 29.7483 240.051 30.3319C239.824 30.9154 239.481 31.4467 239.043 31.8935C238.614 32.3279 238.1 32.6692 237.533 32.896C236.966 33.1228 236.358 33.2303 235.747 33.2117C235.131 33.2314 234.517 33.1246 233.943 32.8979C233.37 32.6712 232.849 32.3293 232.412 31.8935C231.974 31.4467 231.631 30.9154 231.404 30.3319C231.178 29.7483 231.072 29.1248 231.094 28.4991V28.4991Z" fill="#3B3A3A"/>
</g>
<g clip-path="url(#clip1_982_177)">
<path d="M102.201 82.9634H96.5527V85.3214H102.201V82.9634Z" fill="#76CCD8"/>
<path d="M97.7291 84.1458H95.3711V89.7942H97.7291V84.1458Z" fill="#1EBCC5"/>
<path d="M97.7283 85.3282H90.8975V82.9634H95.3703V78.4906H97.7283" fill="#00ACB4"/>
<path d="M29.4942 93.7132C29.0589 93.1718 28.501 92.7417 27.8665 92.4586C27.2321 92.1755 26.5394 92.0474 25.8457 92.0849C25.1236 92.079 24.4087 92.2279 23.749 92.5216C23.0894 92.8154 22.5003 93.247 22.0215 93.7875C20.9679 94.9213 20.4004 96.4226 20.4405 97.9698C20.4076 99.5143 20.9798 101.01 22.035 102.139C22.5111 102.68 23.0974 103.113 23.7547 103.409C24.4119 103.705 25.1249 103.857 25.8457 103.855C26.5372 103.89 27.2272 103.761 27.8591 103.478C28.491 103.195 29.0467 102.766 29.4807 102.226V103.544H32.3523V92.3957H29.4942V93.747V93.7132ZM23.3188 97.9698C23.304 97.5539 23.373 97.1392 23.5215 96.7504C23.6701 96.3616 23.8952 96.0065 24.1836 95.7064C24.4716 95.4158 24.8165 95.1879 25.1967 95.0367C25.5768 94.8856 25.9841 94.8145 26.393 94.828C26.8028 94.8152 27.2109 94.8866 27.592 95.0376C27.9732 95.1887 28.3194 95.4163 28.6091 95.7064C28.9031 96.0035 29.1332 96.3575 29.2854 96.7467C29.4376 97.1359 29.5087 97.5522 29.4942 97.9698C29.5087 98.3875 29.4376 98.8037 29.2854 99.193C29.1332 99.5822 28.9031 99.9362 28.6091 100.233C28.3194 100.523 27.9732 100.751 27.592 100.902C27.2109 101.053 26.8028 101.124 26.393 101.112C25.9841 101.125 25.5768 101.054 25.1967 100.903C24.8165 100.752 24.4716 100.524 24.1836 100.233C23.8952 99.9331 23.6701 99.5781 23.5215 99.1893C23.373 98.8005 23.304 98.3858 23.3188 97.9698V97.9698ZM37.4062 92.3957H34.5279V103.544H37.4062V98.2131C37.3665 97.7736 37.4409 97.3313 37.6219 96.929C37.803 96.5266 38.0847 96.1777 38.4399 95.9158C39.1328 95.4583 39.9686 95.2686 40.7912 95.3821V92.1727C40.069 92.1639 39.3575 92.3482 38.7304 92.7065C38.1021 93.0636 37.6227 93.6341 37.3791 94.3145V92.3957H37.4062Z" fill="#3B3A3A"/>
<path d="M48.7098 92.3955H46.1896V89.301L43.3114 90.1726V92.4226H41.3857V95.186H43.3249V99.821C43.3249 101.352 43.7303 102.415 44.541 103.01C45.3518 103.605 46.7459 103.792 48.7234 103.571V100.936C48.262 100.963 47.7996 100.963 47.3383 100.936C47.0311 100.936 46.7333 100.831 46.4937 100.639C46.3881 100.525 46.3076 100.391 46.2575 100.244C46.2075 100.097 46.189 99.9415 46.2032 99.7872V95.159H48.7234V92.3955H48.7098ZM59.473 93.686C59.1635 93.1675 58.7175 92.744 58.1837 92.4616C57.65 92.1792 57.0489 92.0489 56.4461 92.0847C55.8441 92.0433 55.2416 92.1592 54.6979 92.421C54.1542 92.6828 53.6879 93.0815 53.3448 93.5779V92.3955H50.4665V103.544H53.3448V97.2805C53.2941 96.5994 53.4962 95.9235 53.9124 95.3819C54.1011 95.1634 54.336 94.9895 54.6 94.8726C54.8641 94.7558 55.1507 94.699 55.4394 94.7063C55.6967 94.6913 55.9543 94.7332 56.1936 94.829C56.433 94.9247 56.6484 95.072 56.8245 95.2603C57.1725 95.7033 57.3456 96.2588 57.3109 96.8211V103.49H60.1892V97.2805C60.1389 96.6026 60.3331 95.9291 60.7365 95.3819C60.923 95.1608 61.1575 94.985 61.422 94.8679C61.6866 94.7508 61.9744 94.6956 62.2635 94.7063C62.5155 94.6945 62.767 94.738 63.0005 94.8337C63.2339 94.9294 63.4436 95.075 63.6148 95.2603C63.9681 95.7008 64.1441 96.2575 64.108 96.8211V103.49H66.9863V96.6792C67.0592 95.4463 66.647 94.2338 65.8377 93.3009C65.447 92.8834 64.9705 92.5555 64.441 92.3397C63.9114 92.124 63.3415 92.0254 62.7702 92.0509C62.1255 92.0119 61.4816 92.1386 60.8997 92.4189C60.3178 92.6992 59.8174 93.1238 59.446 93.6522L59.473 93.686ZM79.8508 99.1521C79.9237 98.7621 79.9621 98.3664 79.9656 97.9697C80.0068 96.4178 79.4338 94.9124 78.3711 93.7806C77.8558 93.2247 77.2273 92.7856 76.528 92.4931C75.8287 92.2005 75.0748 92.0613 74.3172 92.0847C73.5331 92.0575 72.752 92.193 72.0229 92.4825C71.2938 92.7721 70.6326 93.2094 70.0808 93.7671C69.533 94.3185 69.1027 94.9751 68.8159 95.6975C68.5291 96.4198 68.3916 97.1928 68.4119 97.9697C68.3878 98.7491 68.5234 99.5252 68.8104 100.25C69.0974 100.975 69.5298 101.634 70.0808 102.186C70.6685 102.751 71.3652 103.19 72.1284 103.477C72.8917 103.764 73.7054 103.893 74.5199 103.855C75.4711 103.91 76.4207 103.719 77.2765 103.3C78.1323 102.881 78.8654 102.248 79.4048 101.463L77.0873 100.112C76.7926 100.485 76.4119 100.781 75.9778 100.975C75.5436 101.169 75.0689 101.256 74.5942 101.226C72.8848 101.226 71.8308 100.551 71.4456 99.1318L79.8508 99.1521ZM72.4186 95.2603C72.9741 94.8682 73.6448 94.6732 74.3239 94.7063C74.9518 94.697 75.5657 94.8914 76.0739 95.2603C76.6136 95.6774 76.9757 96.2833 77.0873 96.9562H71.4051C71.5295 96.3006 71.8842 95.7111 72.4051 95.2941L72.4186 95.2603Z" fill="#3B3A3A"/>
<path d="M89.8848 93.7132C89.458 93.1724 88.9074 92.7422 88.2795 92.4588C87.6516 92.1754 86.9647 92.0472 86.2768 92.0848C85.5506 92.0773 84.8311 92.2253 84.1668 92.519C83.5025 92.8127 82.9088 93.2452 82.4256 93.7875C81.369 94.9198 80.7988 96.4215 80.8378 97.9698C80.8024 99.5134 81.3723 101.01 82.4256 102.139C82.9088 102.681 83.5025 103.113 84.1668 103.407C84.8311 103.701 85.5506 103.849 86.2768 103.841C86.9647 103.879 87.6516 103.751 88.2795 103.467C88.9074 103.184 89.458 102.754 89.8848 102.213V103.53H92.7361V87.9498H89.8578V93.7267L89.8848 93.7132ZM83.7093 97.9698C83.6993 97.5497 83.7757 97.132 83.9338 96.7427C84.0918 96.3533 84.3282 96.0006 84.6282 95.7063C84.9175 95.4156 85.2636 95.1876 85.6449 95.0365C86.0261 94.8853 86.4345 94.8144 86.8444 94.828C87.2523 94.8138 87.6588 94.8846 88.038 95.0358C88.4172 95.187 88.7608 95.4153 89.047 95.7063C89.3376 96.0053 89.5646 96.3599 89.7144 96.7489C89.8642 97.1379 89.9336 97.5532 89.9186 97.9698C89.9336 98.3864 89.8642 98.8017 89.7144 99.1907C89.5646 99.5797 89.3376 99.9343 89.047 100.233C88.7608 100.524 88.4172 100.753 88.038 100.904C87.6588 101.055 87.2523 101.126 86.8444 101.112C86.4345 101.125 86.0261 101.054 85.6449 100.903C85.2636 100.752 84.9175 100.524 84.6282 100.233C84.3343 99.9362 84.1042 99.5821 83.952 99.1929C83.7998 98.8037 83.7287 98.3875 83.7431 97.9698H83.7093Z" fill="#3B3A3A"/>
<path d="M49.6628 112.219H51.4803V110.976H49.6628V110.246H51.6898V108.99H48.3115V114.26H51.6898V112.996H49.6628V112.219ZM54.7505 108.99V114.26H56.9261C57.2663 114.269 57.6047 114.206 57.919 114.076C58.2334 113.946 58.5167 113.75 58.7504 113.503C59.2238 112.992 59.4869 112.321 59.4869 111.625C59.4869 110.928 59.2238 110.257 58.7504 109.746C58.5156 109.5 58.2321 109.306 57.918 109.176C57.6039 109.045 57.2661 108.982 56.9261 108.99H54.7505ZM56.1018 112.956V110.294H56.9261C57.0922 110.288 57.2576 110.317 57.4114 110.38C57.5652 110.443 57.7038 110.538 57.818 110.658C58.0445 110.93 58.1686 111.271 58.1686 111.625C58.1686 111.978 58.0445 112.32 57.818 112.591C57.7032 112.71 57.5643 112.804 57.4106 112.866C57.2568 112.928 57.0917 112.956 56.9261 112.949L56.1018 112.956ZM62.4597 114.26H63.8111V108.99H62.4597V114.26ZM66.7029 108.99V110.294H68.0069V114.26H69.3582V110.294H70.6622V108.99H66.7029Z" fill="#3B3A3A"/>
<path d="M78.6411 111.598C78.65 111.241 78.5863 110.887 78.4539 110.556C78.3215 110.225 78.1231 109.924 77.8708 109.672C77.4867 109.283 76.9959 109.017 76.4604 108.907C75.9249 108.797 75.3689 108.848 74.8626 109.054C74.3563 109.261 73.9225 109.612 73.6161 110.065C73.3097 110.518 73.1444 111.051 73.1412 111.598C73.1334 111.961 73.2007 112.322 73.3391 112.658C73.4775 112.994 73.6839 113.298 73.9453 113.55C74.4691 114.062 75.1724 114.349 75.9047 114.349C76.637 114.349 77.3402 114.062 77.8641 113.55C78.1219 113.297 78.3242 112.992 78.458 112.656C78.5917 112.32 78.6541 111.959 78.6411 111.598V111.598ZM74.4926 111.598C74.4869 111.408 74.5199 111.219 74.5896 111.043C74.6593 110.866 74.7642 110.705 74.8979 110.571C75.03 110.438 75.1883 110.333 75.3628 110.265C75.5372 110.196 75.7241 110.165 75.9114 110.172C76.1993 110.167 76.4823 110.247 76.7241 110.404C76.9658 110.56 77.1553 110.786 77.2683 111.05C77.3813 111.315 77.4126 111.608 77.3582 111.891C77.3039 112.173 77.1663 112.434 76.9631 112.638C76.76 112.842 76.5005 112.981 76.218 113.036C75.9355 113.092 75.6428 113.062 75.3773 112.95C75.1119 112.839 74.8859 112.65 74.7283 112.409C74.5706 112.168 74.4886 111.886 74.4926 111.598ZM85.9044 114.233L84.8166 112.287C85.0932 112.141 85.3263 111.924 85.4922 111.659C85.654 111.397 85.7384 111.095 85.7355 110.787C85.7421 110.543 85.6967 110.301 85.6024 110.076C85.508 109.851 85.3668 109.649 85.1882 109.483C84.8241 109.138 84.3383 108.951 83.8369 108.963H81.6748V114.233H83.0261V112.557H83.5125L84.4314 114.26L85.9044 114.233ZM83.8031 110.179C83.8788 110.177 83.9541 110.191 84.024 110.22C84.0938 110.249 84.1567 110.292 84.2085 110.348C84.3138 110.464 84.3696 110.617 84.3639 110.773C84.3685 110.932 84.313 111.086 84.2085 111.206C84.1561 111.259 84.0927 111.301 84.0228 111.328C83.9528 111.355 83.8779 111.366 83.8031 111.361H83.0193V110.246L83.8031 110.179Z" fill="#3B3A3A"/>
<path d="M93.4924 114.26L91.7492 108.99H90.033L88.3574 114.26H89.8101L90.0398 113.503H91.8303L92.087 114.26H93.4924ZM90.9317 110.55L91.4654 112.341H90.4047L90.9317 110.55V110.55Z" fill="#3B3A3A"/>
</g>
<g clip-path="url(#clip2_982_177)">
<path d="M367.107 82.6859H360.26V85.5524H367.107V82.6859Z" fill="#76CCD8"/>
<path d="M361.684 84.1111H358.826V90.9661H361.684V84.1111Z" fill="#1EBCC5"/>
<path d="M361.684 85.5443H353.404V82.686H358.826V77.2642H361.684" fill="#00ACB4"/>
<path d="M289.924 97.1413C290.27 96.9284 290.673 96.8256 291.079 96.8465C291.531 96.8322 291.978 96.9562 292.358 97.202C292.739 97.4478 293.035 97.8038 293.208 98.2224L296.181 96.5844C295.68 95.6918 294.94 94.9571 294.044 94.4632C293.131 93.9781 292.112 93.7302 291.079 93.7425C289.763 93.6929 288.47 94.0978 287.418 94.8891C286.938 95.2566 286.553 95.7342 286.297 96.2815C286.04 96.8289 285.919 97.43 285.944 98.0341C285.913 98.831 286.168 99.6127 286.664 100.237C287.113 100.808 287.703 101.251 288.376 101.523C289.045 101.787 289.728 102.012 290.424 102.195C291.023 102.343 291.607 102.549 292.168 102.809C292.643 103.03 292.889 103.325 292.889 103.685C292.889 104.455 292.266 104.848 291.021 104.848C290.445 104.906 289.866 104.762 289.384 104.441C288.902 104.12 288.545 103.641 288.376 103.087L285.346 104.791C286.356 106.937 288.248 108.01 291.021 108.01C292.399 108.059 293.757 107.666 294.895 106.887C295.403 106.528 295.812 106.045 296.084 105.486C296.356 104.926 296.482 104.307 296.451 103.685C296.481 102.86 296.23 102.048 295.739 101.384C295.287 100.797 294.684 100.344 293.994 100.073C293.321 99.8206 292.635 99.6046 291.939 99.4264C291.34 99.2836 290.756 99.0862 290.194 98.8367C289.719 98.6074 289.482 98.3125 289.482 97.9522C289.478 97.789 289.517 97.6278 289.595 97.4842C289.672 97.3406 289.786 97.2197 289.924 97.1331V97.1413ZM311.095 102.309C311.184 101.837 311.23 101.357 311.234 100.876C311.285 98.9923 310.59 97.1648 309.302 95.79C308.676 95.118 307.914 94.5876 307.066 94.2345C306.219 93.8813 305.305 93.7136 304.388 93.7425C303.44 93.7118 302.496 93.8771 301.615 94.228C300.735 94.5789 299.936 95.1079 299.269 95.7818C298.609 96.4522 298.092 97.2491 297.749 98.1246C297.405 99 297.243 99.936 297.27 100.876C297.239 101.818 297.4 102.756 297.744 103.633C298.087 104.51 298.606 105.308 299.269 105.978C299.979 106.665 300.822 107.199 301.746 107.548C302.669 107.897 303.655 108.054 304.641 108.01C305.793 108.077 306.943 107.846 307.979 107.338C309.015 106.83 309.903 106.062 310.555 105.11L307.745 103.472C307.39 103.926 306.928 104.287 306.402 104.522C305.875 104.758 305.299 104.861 304.723 104.824C302.651 104.824 301.382 104.005 300.915 102.285L311.095 102.309ZM302.086 97.5918C302.758 97.0961 303.578 96.8421 304.412 96.8711C305.174 96.8622 305.918 97.1007 306.533 97.5508C307.188 98.0565 307.626 98.7908 307.762 99.6065H300.858C301.012 98.8132 301.441 98.0997 302.07 97.5918H302.086ZM322.823 107.051C323.877 106.443 324.746 105.56 325.338 104.496L322.315 102.768C322.049 103.319 321.62 103.777 321.087 104.078C320.51 104.395 319.861 104.556 319.203 104.545C318.721 104.556 318.242 104.467 317.796 104.282C317.35 104.097 316.948 103.821 316.615 103.472C316.273 103.127 316.005 102.716 315.828 102.264C315.65 101.812 315.567 101.329 315.583 100.843C315.565 100.353 315.648 99.8637 315.825 99.4061C316.003 98.9484 316.271 98.5317 316.615 98.1815C316.951 97.8382 317.354 97.5685 317.8 97.3894C318.245 97.2104 318.723 97.1259 319.203 97.1413C319.853 97.129 320.493 97.2962 321.054 97.6246C321.587 97.9347 322.014 98.3967 322.283 98.9513L325.288 97.1905C324.725 96.1298 323.873 95.2497 322.831 94.6516C321.742 94.0202 320.503 93.6947 319.244 93.7097C318.302 93.6896 317.365 93.8604 316.491 94.2118C315.616 94.5631 314.822 95.0879 314.155 95.7543C313.489 96.4208 312.964 97.2152 312.613 98.0897C312.261 98.9643 312.091 99.9009 312.111 100.843C312.114 102.096 312.447 103.326 313.075 104.41C313.704 105.494 314.606 106.394 315.692 107.02C316.778 107.645 318.009 107.974 319.262 107.974C320.515 107.974 321.746 107.644 322.831 107.019L322.823 107.051ZM336.689 95.7081C336.161 95.0566 335.487 94.539 334.721 94.1975C333.956 93.8559 333.12 93.7 332.283 93.7425C331.408 93.7359 330.541 93.9167 329.742 94.2726C328.942 94.6286 328.228 95.1516 327.647 95.8064C326.363 97.1771 325.668 98.998 325.714 100.876C325.671 102.749 326.365 104.563 327.647 105.929C328.226 106.586 328.94 107.111 329.74 107.469C330.54 107.826 331.407 108.008 332.283 108.001C333.121 108.044 333.957 107.888 334.723 107.544C335.489 107.201 336.163 106.681 336.689 106.028V107.625H340.219V94.1192H336.689V95.7081ZM329.203 100.876C329.184 100.371 329.268 99.8672 329.45 99.3956C329.631 98.9239 329.907 98.4941 330.26 98.1323C330.607 97.7793 331.023 97.5018 331.483 97.3171C331.942 97.1325 332.435 97.0448 332.93 97.0594C333.428 97.0453 333.924 97.1332 334.388 97.3177C334.851 97.5022 335.272 97.7794 335.624 98.1323C335.98 98.4926 336.258 98.9219 336.441 99.3938C336.624 99.8657 336.709 100.37 336.689 100.876C336.708 101.382 336.623 101.886 336.44 102.358C336.257 102.829 335.979 103.259 335.624 103.62C335.271 103.972 334.85 104.247 334.387 104.431C333.924 104.614 333.428 104.7 332.93 104.684C332.435 104.701 331.943 104.614 331.483 104.431C331.024 104.248 330.607 103.972 330.26 103.62C329.908 103.257 329.632 102.827 329.451 102.356C329.269 101.884 329.185 101.381 329.203 100.876Z" fill="#3B3A3A"/>
<path d="M352.176 95.7081C351.655 95.0556 350.985 94.5368 350.223 94.1949C349.461 93.8531 348.628 93.698 347.794 93.7425C346.915 93.7335 346.044 93.913 345.24 94.2691C344.437 94.6251 343.718 95.1493 343.134 95.8064C341.85 97.1772 341.155 98.998 341.201 100.876C341.158 102.749 341.852 104.564 343.134 105.929C343.717 106.589 344.435 107.115 345.239 107.473C346.043 107.83 346.914 108.01 347.794 108.001C348.629 108.046 349.463 107.891 350.225 107.547C350.987 107.204 351.656 106.683 352.176 106.028V107.625H355.657V88.7302H352.176V95.7245V95.7081ZM344.69 100.876C344.671 100.37 344.755 99.8658 344.938 99.3939C345.121 98.9219 345.399 98.4926 345.755 98.1324C346.478 97.4439 347.439 97.0599 348.437 97.0599C349.436 97.0599 350.396 97.4439 351.119 98.1324C351.472 98.4941 351.748 98.9239 351.93 99.3956C352.111 99.8673 352.195 100.371 352.176 100.876C352.194 101.381 352.11 101.884 351.928 102.356C351.747 102.827 351.472 103.257 351.119 103.62C350.393 104.303 349.434 104.683 348.437 104.683C347.44 104.683 346.481 104.303 345.755 103.62C345.4 103.259 345.123 102.829 344.94 102.358C344.757 101.886 344.672 101.382 344.69 100.876V100.876Z" fill="#3B3A3A"/>
<path d="M317.869 116.134C317.603 115.806 317.263 115.546 316.877 115.375C316.492 115.204 316.071 115.127 315.649 115.151C315.212 115.148 314.778 115.239 314.379 115.417C313.979 115.595 313.622 115.856 313.331 116.183C312.709 116.881 312.365 117.783 312.365 118.718C312.365 119.653 312.709 120.555 313.331 121.253C313.62 121.584 313.976 121.85 314.376 122.033C314.775 122.215 315.21 122.309 315.649 122.309C316.068 122.331 316.486 122.253 316.868 122.082C317.251 121.911 317.588 121.652 317.852 121.327V122.146H319.597V115.34H317.869V116.159V116.134ZM314.126 118.722C314.115 118.469 314.156 118.217 314.247 117.98C314.337 117.744 314.474 117.528 314.65 117.346C315.013 117.003 315.494 116.813 315.993 116.813C316.492 116.813 316.973 117.003 317.336 117.346C317.513 117.528 317.652 117.743 317.743 117.98C317.835 118.216 317.878 118.469 317.869 118.722C317.877 118.974 317.835 119.226 317.743 119.461C317.652 119.696 317.513 119.91 317.336 120.09C316.973 120.433 316.492 120.623 315.993 120.623C315.494 120.623 315.013 120.433 314.65 120.09C314.474 119.909 314.337 119.695 314.247 119.46C314.157 119.225 314.116 118.974 314.126 118.722V118.722ZM322.127 115.34H320.383V122.096H322.127V118.87C322.101 118.603 322.146 118.333 322.257 118.089C322.367 117.845 322.54 117.634 322.758 117.477C323.176 117.196 323.684 117.079 324.183 117.15V115.209C323.745 115.204 323.313 115.314 322.93 115.528C322.549 115.744 322.258 116.09 322.111 116.503V115.34H322.127Z" fill="#3B3A3A"/>
<path d="M329.253 115.34H327.721V113.448L325.977 113.972V115.34H324.806V116.978H325.977V119.852C325.936 120.21 325.982 120.572 326.11 120.908C326.239 121.245 326.446 121.545 326.714 121.785C327.493 122.196 328.394 122.315 329.253 122.121V120.516C328.98 120.531 328.707 120.531 328.434 120.516C328.253 120.515 328.077 120.455 327.934 120.344C327.869 120.275 327.82 120.194 327.789 120.105C327.757 120.016 327.746 119.922 327.754 119.828V117.018H329.286V115.38L329.253 115.34ZM335.51 116.159C335.324 115.838 335.055 115.575 334.73 115.397C334.405 115.219 334.037 115.134 333.667 115.151C333.303 115.126 332.939 115.196 332.61 115.354C332.282 115.512 332 115.752 331.792 116.052V115.34H330.047V122.096H331.792V118.296C331.762 117.89 331.884 117.487 332.136 117.166C332.251 117.036 332.394 116.933 332.554 116.865C332.714 116.797 332.887 116.765 333.061 116.773C333.214 116.767 333.366 116.794 333.507 116.852C333.649 116.909 333.776 116.997 333.88 117.109C334.094 117.378 334.201 117.716 334.183 118.059V122.096H335.92V118.296C335.893 117.891 336.012 117.491 336.255 117.166C336.37 117.034 336.512 116.931 336.673 116.862C336.833 116.794 337.007 116.764 337.181 116.773C337.333 116.767 337.486 116.794 337.627 116.852C337.768 116.909 337.895 116.997 338 117.109C338.213 117.378 338.321 117.716 338.303 118.059V122.096H340.039V117.936C340.094 117.202 339.865 116.475 339.4 115.905C339.164 115.653 338.876 115.456 338.557 115.326C338.238 115.196 337.894 115.136 337.549 115.151C337.158 115.128 336.768 115.205 336.415 115.376C336.062 115.547 335.759 115.805 335.535 116.126L335.51 116.159Z" fill="#3B3A3A"/>
<path d="M347.59 119.435C347.635 119.2 347.657 118.961 347.656 118.722C347.684 117.778 347.336 116.862 346.689 116.175C346.376 115.839 345.995 115.574 345.571 115.397C345.148 115.221 344.691 115.137 344.232 115.151C343.756 115.133 343.281 115.215 342.838 115.392C342.395 115.568 341.994 115.835 341.661 116.175C341.013 116.867 340.653 117.779 340.653 118.726C340.653 119.673 341.013 120.585 341.661 121.277C342.017 121.626 342.442 121.898 342.909 122.075C343.375 122.253 343.873 122.332 344.371 122.309C344.945 122.341 345.517 122.226 346.034 121.973C346.55 121.721 346.993 121.34 347.32 120.868L345.919 120.049C345.74 120.275 345.508 120.454 345.244 120.571C344.981 120.688 344.692 120.739 344.404 120.72C343.986 120.778 343.561 120.681 343.209 120.448C342.858 120.214 342.604 119.859 342.496 119.451L347.59 119.435ZM343.077 117.076C343.413 116.827 343.823 116.7 344.24 116.715C344.621 116.711 344.992 116.832 345.297 117.059C345.638 117.304 345.873 117.671 345.952 118.083H342.471C342.548 117.686 342.763 117.33 343.077 117.076V117.076ZM353.675 116.134C353.414 115.807 353.079 115.548 352.697 115.377C352.315 115.206 351.898 115.129 351.48 115.151C351.041 115.146 350.606 115.236 350.205 115.414C349.804 115.592 349.445 115.854 349.154 116.183C348.532 116.881 348.188 117.783 348.188 118.718C348.188 119.653 348.532 120.555 349.154 121.253C349.443 121.586 349.801 121.853 350.202 122.035C350.603 122.217 351.039 122.311 351.48 122.309C351.898 122.332 352.315 122.254 352.697 122.084C353.079 121.913 353.414 121.653 353.675 121.326V122.145H355.42V112.637H353.675V116.134V116.134ZM349.932 118.722C349.921 118.471 349.962 118.221 350.051 117.986C350.141 117.752 350.278 117.538 350.454 117.359C350.63 117.18 350.841 117.039 351.074 116.945C351.307 116.852 351.557 116.807 351.808 116.814C352.055 116.806 352.301 116.849 352.531 116.94C352.761 117.032 352.969 117.17 353.143 117.346C353.32 117.528 353.459 117.743 353.55 117.98C353.642 118.216 353.684 118.469 353.675 118.722C353.684 118.974 353.641 119.226 353.55 119.461C353.458 119.696 353.32 119.91 353.143 120.09C352.97 120.267 352.762 120.407 352.532 120.498C352.302 120.59 352.055 120.632 351.808 120.622C351.559 120.631 351.312 120.589 351.08 120.497C350.849 120.406 350.64 120.267 350.465 120.09C350.286 119.911 350.147 119.697 350.055 119.462C349.964 119.226 349.922 118.974 349.932 118.722V118.722Z" fill="#3B3A3A"/>
</g>
<g clip-path="url(#clip3_982_177)">
<path d="M221.325 100.967H215.443V103.429H221.325V100.967Z" fill="#76CCD8"/>
<path d="M216.67 102.203H214.217V108.085H216.67V102.203Z" fill="#1EBCC5"/>
<path d="M216.67 103.429H209.562V100.967H214.217V96.3114H216.67" fill="#00ACB4"/>
<path d="M232.439 91.8975C233.164 91.8739 233.886 91.9977 234.561 92.2612C235.237 92.5248 235.852 92.9226 236.37 93.4307C236.886 93.9295 237.293 94.5295 237.567 95.1931C237.84 95.8566 237.973 96.5695 237.959 97.2871C237.973 98.0046 237.84 98.7175 237.567 99.3811C237.293 100.045 236.886 100.645 236.37 101.143C235.855 101.658 235.241 102.063 234.566 102.335C233.89 102.606 233.167 102.738 232.439 102.723H229.651V108.029H226.464V91.8975H232.439ZM232.439 99.7682C232.755 99.7776 233.069 99.7194 233.361 99.5976C233.652 99.4759 233.915 99.2932 234.13 99.0619C234.351 98.831 234.524 98.5584 234.639 98.2601C234.754 97.9619 234.808 97.6438 234.799 97.3243C234.81 97.0018 234.756 96.6805 234.641 96.379C234.526 96.0775 234.352 95.8018 234.13 95.568C233.913 95.3398 233.65 95.1599 233.359 95.0398C233.067 94.9197 232.754 94.8622 232.439 94.8711H229.651V99.7682H232.439Z" fill="#00ACB4"/>
<path d="M244.594 108.382C243.171 108.434 241.764 108.062 240.552 107.314C239.476 106.624 238.661 105.593 238.238 104.387L240.97 102.798C241.225 103.565 241.729 104.226 242.403 104.674C243.077 105.122 243.881 105.331 244.687 105.269C245.377 105.323 246.065 105.15 246.648 104.777C246.843 104.64 247.002 104.458 247.111 104.246C247.219 104.033 247.274 103.798 247.271 103.559C247.276 103.29 247.208 103.023 247.074 102.789C246.94 102.555 246.744 102.362 246.509 102.231C245.647 101.776 244.733 101.429 243.786 101.199C243.155 101.021 242.534 100.807 241.927 100.558C241.399 100.325 240.897 100.035 240.431 99.6938C239.95 99.3367 239.566 98.8636 239.316 98.3186C239.038 97.7098 238.901 97.0457 238.917 96.3764C238.892 95.712 239.02 95.0507 239.29 94.4434C239.561 93.8361 239.967 93.2989 240.478 92.8732C241.523 92.0114 242.84 91.5502 244.195 91.5723C245.423 91.5286 246.636 91.8522 247.679 92.5015C248.687 93.1562 249.492 94.0801 250.003 95.1684L247.326 96.7203C247.089 96.0963 246.663 95.5612 246.109 95.1885C245.555 94.8158 244.899 94.6238 244.232 94.6388C243.676 94.6074 243.126 94.7646 242.671 95.0848C242.488 95.2307 242.342 95.4171 242.244 95.6292C242.147 95.8413 242.099 96.0733 242.107 96.3067C242.114 96.5402 242.175 96.7688 242.286 96.9745C242.397 97.1801 242.554 97.3571 242.745 97.4915C243.499 97.9552 244.321 98.3 245.18 98.5137L246.295 98.8761C246.555 98.9597 246.899 99.0898 247.336 99.2664C247.691 99.4017 248.033 99.5697 248.358 99.7682C248.643 99.958 248.917 100.166 249.175 100.391C249.454 100.62 249.692 100.893 249.882 101.199C250.057 101.517 250.194 101.853 250.291 102.203C250.413 102.619 250.473 103.051 250.467 103.485C250.494 104.164 250.36 104.84 250.078 105.458C249.795 106.077 249.372 106.62 248.841 107.044C247.625 107.972 246.123 108.445 244.594 108.382Z" fill="#00ACB4"/>
<path d="M251.916 91.8975H255.113V108.057H251.935L251.916 91.8975Z" fill="#00ACB4"/>
<path d="M141.634 98.077C141.19 97.5268 140.621 97.0905 139.975 96.8045C139.328 96.5184 138.623 96.3908 137.917 96.4322C137.188 96.4329 136.468 96.5891 135.805 96.8904C135.141 97.1916 134.55 97.631 134.07 98.1792C132.995 99.3242 132.414 100.846 132.453 102.417C132.416 103.989 132.996 105.514 134.07 106.663C134.555 107.211 135.151 107.649 135.82 107.948C136.488 108.246 137.213 108.397 137.945 108.392C138.652 108.433 139.358 108.305 140.005 108.017C140.652 107.729 141.22 107.291 141.662 106.738V108.076H144.533V96.7667H141.634V98.077ZM135.371 102.417C135.357 101.994 135.427 101.574 135.579 101.179C135.731 100.785 135.96 100.425 136.254 100.121C136.542 99.8192 136.89 99.5805 137.275 99.4205C137.661 99.2605 138.076 99.1827 138.493 99.192C138.912 99.1848 139.327 99.2635 139.714 99.4233C140.101 99.5832 140.451 99.8207 140.742 100.121C141.046 100.42 141.285 100.778 141.445 101.173C141.604 101.567 141.681 101.991 141.671 102.417C141.682 102.842 141.605 103.266 141.445 103.661C141.285 104.056 141.046 104.413 140.742 104.712C140.451 105.012 140.101 105.25 139.714 105.41C139.327 105.57 138.912 105.648 138.493 105.641C138.076 105.65 137.661 105.573 137.275 105.413C136.89 105.253 136.542 105.014 136.254 104.712C135.959 104.409 135.729 104.049 135.577 103.654C135.426 103.26 135.355 102.839 135.371 102.417V102.417ZM149.663 96.7667H146.745V108.076H149.663V102.667C149.623 102.221 149.699 101.772 149.882 101.364C150.066 100.955 150.352 100.601 150.713 100.335C151.417 99.8716 152.266 99.6801 153.101 99.7961V96.5344C152.377 96.5308 151.665 96.7201 151.038 97.0827C150.409 97.4468 149.931 98.0235 149.69 98.7088V96.7667H149.663Z" fill="#3B3A3A"/>
<path d="M161.13 96.7667H158.574V93.598L155.684 94.4808V96.7667H153.687V99.5545H155.684V104.256C155.684 105.808 156.093 106.886 156.92 107.49C157.747 108.094 159.15 108.28 161.158 108.057V105.427C160.69 105.455 160.222 105.455 159.754 105.427C159.442 105.431 159.138 105.322 158.9 105.121C158.793 105.007 158.711 104.872 158.659 104.725C158.608 104.578 158.589 104.421 158.602 104.266V99.5731H161.158V96.7853L161.13 96.7667ZM172.058 98.077C171.743 97.5506 171.289 97.1207 170.747 96.834C170.205 96.5472 169.594 96.4147 168.982 96.4508C168.37 96.4073 167.758 96.5241 167.206 96.7898C166.653 97.0554 166.18 97.4607 165.832 97.9655V96.7667H162.914V108.076H165.832V101.72C165.783 101.035 165.988 100.357 166.408 99.8147C166.602 99.5984 166.843 99.4279 167.111 99.3154C167.379 99.2029 167.669 99.1513 167.96 99.1642C168.221 99.1488 168.482 99.1916 168.725 99.2897C168.968 99.3877 169.186 99.5384 169.363 99.731C169.719 100.178 169.894 100.741 169.855 101.311V108.076H172.773V101.72C172.729 101.037 172.93 100.362 173.34 99.8147C173.532 99.5952 173.772 99.4225 174.041 99.3098C174.31 99.197 174.601 99.1472 174.892 99.1642C175.153 99.1488 175.415 99.1916 175.657 99.2897C175.9 99.3877 176.118 99.5384 176.295 99.731C176.647 100.18 176.822 100.742 176.788 101.311V108.076H179.705V101.106C179.765 99.8689 179.35 98.6553 178.544 97.7146C178.147 97.292 177.663 96.9604 177.126 96.7422C176.588 96.5241 176.01 96.4247 175.431 96.4508C174.776 96.4094 174.122 96.5373 173.531 96.8221C172.94 97.1069 172.433 97.5391 172.058 98.077V98.077ZM192.724 103.652C192.805 103.245 192.848 102.832 192.854 102.417C192.891 100.841 192.303 99.3138 191.219 98.1699C190.697 97.6063 190.06 97.1613 189.352 96.8647C188.643 96.5681 187.879 96.427 187.111 96.4508C186.317 96.4228 185.526 96.5595 184.787 96.8521C184.048 97.1448 183.378 97.5871 182.818 98.1513C182.267 98.7136 181.836 99.381 181.548 100.114C181.261 100.847 181.124 101.63 181.146 102.417C181.122 103.207 181.26 103.993 181.55 104.728C181.841 105.463 182.279 106.131 182.837 106.691C183.433 107.266 184.14 107.713 184.915 108.005C185.69 108.298 186.516 108.429 187.344 108.392C188.304 108.447 189.262 108.252 190.125 107.827C190.988 107.402 191.727 106.761 192.269 105.966L189.918 104.582C189.62 104.962 189.234 105.263 188.794 105.461C188.354 105.658 187.872 105.746 187.39 105.715C185.652 105.715 184.602 105.009 184.194 103.587L192.724 103.652ZM185.169 99.6753C185.729 99.2589 186.414 99.0458 187.111 99.0713C187.749 99.0605 188.373 99.2597 188.886 99.6381C189.436 100.059 189.805 100.674 189.918 101.357H184.156C184.279 100.692 184.639 100.095 185.169 99.6753V99.6753Z" fill="#3B3A3A"/>
<path d="M202.899 98.077C202.464 97.5307 201.905 97.0963 201.268 96.8102C200.631 96.524 199.935 96.3945 199.237 96.4322C198.501 96.4244 197.772 96.5747 197.098 96.8729C196.425 97.171 195.824 97.6102 195.335 98.1606C194.26 99.3057 193.679 100.828 193.718 102.398C193.68 103.971 194.261 105.495 195.335 106.645C195.824 107.195 196.425 107.634 197.098 107.932C197.772 108.231 198.501 108.381 199.237 108.373C199.936 108.411 200.633 108.281 201.27 107.993C201.907 107.705 202.466 107.268 202.899 106.719V108.057H205.863V92.2413H202.899V98.077ZM196.635 102.398C196.619 101.98 196.687 101.563 196.836 101.172C196.984 100.78 197.21 100.423 197.5 100.121C197.791 99.8207 198.141 99.5832 198.528 99.4233C198.914 99.2635 199.33 99.1848 199.748 99.1921C200.166 99.1827 200.581 99.2605 200.966 99.4205C201.352 99.5805 201.7 99.8192 201.988 100.121C202.292 100.42 202.531 100.778 202.691 101.173C202.85 101.567 202.928 101.991 202.917 102.417C202.929 102.842 202.852 103.266 202.692 103.661C202.532 104.056 202.292 104.414 201.988 104.712C201.7 105.014 201.352 105.253 200.966 105.413C200.581 105.573 200.166 105.65 199.748 105.641C199.33 105.648 198.914 105.57 198.528 105.41C198.141 105.25 197.791 105.012 197.5 104.712C197.196 104.413 196.956 104.056 196.796 103.661C196.636 103.266 196.56 102.842 196.57 102.417L196.635 102.398Z" fill="#3B3A3A"/>
</g>
<g clip-path="url(#clip4_982_177)">
<path d="M235.88 168.172H228.965V171.062H235.88V168.172Z" fill="#76CCD8"/>
<path d="M230.413 169.613H227.529V176.529H230.413V169.613Z" fill="#1EBCC5"/>
<path d="M230.413 171.062H222.056V168.172H227.529V162.704H230.413" fill="#00ACB4"/>
<path d="M185.513 196.663C185.248 196.332 184.908 196.07 184.521 195.896C184.134 195.723 183.712 195.643 183.288 195.665C182.847 195.662 182.41 195.754 182.008 195.934C181.605 196.114 181.245 196.378 180.953 196.708C180.322 197.411 179.974 198.322 179.974 199.266C179.974 200.21 180.322 201.121 180.953 201.823C181.244 202.155 181.604 202.42 182.007 202.6C182.41 202.78 182.847 202.871 183.288 202.867C183.713 202.886 184.137 202.804 184.524 202.627C184.91 202.45 185.25 202.183 185.513 201.849V202.658H187.275V195.854H185.513V196.663V196.663ZM181.736 199.272C181.726 199.018 181.768 198.765 181.859 198.527C181.95 198.289 182.088 198.072 182.264 197.889C182.628 197.54 183.113 197.346 183.618 197.346C184.122 197.346 184.607 197.54 184.972 197.889C185.32 198.266 185.514 198.76 185.514 199.272C185.514 199.785 185.32 200.279 184.972 200.656C184.607 201.004 184.122 201.199 183.618 201.199C183.113 201.199 182.628 201.004 182.264 200.656C182.083 200.469 181.943 200.247 181.852 200.003C181.761 199.759 181.721 199.499 181.736 199.24V199.272ZM189.806 195.854H188.045V202.678H189.806V199.416C189.783 199.146 189.832 198.874 189.946 198.628C190.06 198.382 190.237 198.17 190.458 198.013C190.88 197.731 191.391 197.615 191.894 197.687V195.73C191.452 195.722 191.017 195.835 190.635 196.056C190.253 196.273 189.964 196.621 189.819 197.035V195.86L189.806 195.854Z" fill="#3B3A3B"/>
<path d="M196.996 195.854H195.457V193.949L193.695 194.477V195.854H192.508V197.55H193.695V200.388C193.652 200.75 193.697 201.117 193.826 201.458C193.956 201.799 194.166 202.103 194.439 202.345C194.935 202.711 195.789 202.828 196.996 202.691V201.08C196.714 201.096 196.431 201.096 196.148 201.08C195.96 201.081 195.778 201.016 195.633 200.897C195.568 200.829 195.519 200.747 195.488 200.658C195.458 200.569 195.447 200.475 195.457 200.381V197.55H196.996V195.854V195.854ZM203.312 196.63C203.124 196.311 202.851 196.05 202.524 195.876C202.197 195.703 201.829 195.622 201.459 195.645C201.091 195.62 200.722 195.691 200.389 195.851C200.056 196.011 199.771 196.255 199.56 196.558V195.854H197.832V202.678H199.593V198.842C199.566 198.432 199.689 198.026 199.939 197.7C200.05 197.569 200.188 197.464 200.343 197.392C200.499 197.32 200.668 197.283 200.839 197.282C200.997 197.274 201.154 197.3 201.301 197.359C201.447 197.417 201.579 197.507 201.687 197.622C201.904 197.895 202.012 198.239 201.987 198.587V202.665H203.749V198.842C203.721 198.434 203.839 198.029 204.082 197.7C204.194 197.564 204.336 197.456 204.496 197.383C204.657 197.311 204.832 197.276 205.008 197.282C205.166 197.274 205.323 197.3 205.469 197.359C205.616 197.417 205.748 197.507 205.856 197.622C206.073 197.895 206.182 198.239 206.163 198.587V202.665H207.918V198.476C207.958 197.729 207.708 196.995 207.22 196.428C206.98 196.173 206.688 195.973 206.364 195.841C206.039 195.709 205.691 195.649 205.341 195.664C204.948 195.639 204.556 195.714 204.201 195.883C203.845 196.052 203.539 196.309 203.312 196.63V196.63Z" fill="#3B3A3B"/>
<path d="M215.505 199.99C215.552 199.743 215.576 199.492 215.577 199.24C215.603 198.289 215.251 197.367 214.598 196.676C214.283 196.337 213.9 196.07 213.474 195.891C213.047 195.712 212.588 195.626 212.126 195.638C211.643 195.619 211.162 195.701 210.712 195.878C210.263 196.056 209.855 196.325 209.516 196.669C209.187 197.009 208.929 197.412 208.759 197.854C208.589 198.295 208.509 198.767 208.524 199.24C208.508 199.724 208.593 200.206 208.774 200.656C208.955 201.105 209.228 201.512 209.575 201.849C209.933 202.197 210.359 202.467 210.826 202.643C211.292 202.819 211.79 202.898 212.289 202.874C212.868 202.905 213.446 202.787 213.967 202.531C214.488 202.275 214.934 201.89 215.264 201.412L213.816 200.59C213.632 200.814 213.398 200.99 213.132 201.104C212.866 201.217 212.577 201.265 212.289 201.243C211.859 201.306 211.421 201.208 211.059 200.967C210.698 200.726 210.438 200.359 210.332 199.938L215.505 199.99ZM210.938 197.609C211.278 197.36 211.692 197.234 212.113 197.25C212.497 197.244 212.872 197.363 213.183 197.589C213.526 197.838 213.759 198.21 213.835 198.626H210.338C210.416 198.225 210.633 197.865 210.951 197.609H210.938ZM221.632 196.663C221.371 196.33 221.034 196.065 220.649 195.891C220.263 195.717 219.842 195.639 219.42 195.664C218.977 195.661 218.538 195.753 218.133 195.933C217.728 196.113 217.366 196.377 217.071 196.708C216.441 197.411 216.092 198.322 216.092 199.266C216.092 200.21 216.441 201.121 217.071 201.823C217.365 202.156 217.726 202.421 218.132 202.601C218.537 202.782 218.976 202.872 219.42 202.867C219.846 202.892 220.271 202.813 220.659 202.635C221.047 202.458 221.385 202.188 221.645 201.849V202.658H223.406V193.127H221.645V196.663H221.632ZM217.854 199.272C217.846 199.017 217.889 198.763 217.982 198.525C218.075 198.287 218.216 198.071 218.396 197.889C218.76 197.54 219.245 197.346 219.749 197.346C220.254 197.346 220.739 197.54 221.103 197.889C221.443 198.27 221.631 198.762 221.631 199.272C221.631 199.783 221.443 200.275 221.103 200.655C220.739 201.004 220.254 201.199 219.749 201.199C219.245 201.199 218.76 201.004 218.396 200.655C218.214 200.469 218.073 200.247 217.982 200.004C217.891 199.76 217.852 199.5 217.867 199.24L217.854 199.272Z" fill="#3B3A3B"/>
<path d="M156.553 188.279V174.343H160.076V188.279C160.076 190.284 159.589 191.746 158.614 192.663C157.64 193.581 156.142 193.979 154.119 193.857V190.465C154.441 190.517 154.769 190.505 155.086 190.43C155.403 190.355 155.702 190.218 155.965 190.028C156.182 189.795 156.347 189.518 156.448 189.217C156.549 188.915 156.585 188.596 156.553 188.279V188.279ZM158.327 172.706C158.039 172.709 157.752 172.652 157.486 172.54C157.22 172.428 156.98 172.262 156.781 172.053C156.576 171.857 156.414 171.621 156.304 171.36C156.194 171.098 156.139 170.817 156.142 170.533C156.142 170.247 156.2 169.964 156.312 169.7C156.424 169.437 156.588 169.199 156.794 169C156.993 168.79 157.233 168.624 157.499 168.512C157.765 168.399 158.051 168.344 158.34 168.348C158.624 168.345 158.905 168.402 159.166 168.514C159.426 168.627 159.661 168.792 159.854 169C160.061 169.198 160.225 169.436 160.338 169.7C160.45 169.963 160.507 170.247 160.506 170.533C160.508 170.817 160.45 171.098 160.338 171.358C160.226 171.619 160.061 171.853 159.854 172.047C159.659 172.257 159.423 172.424 159.16 172.537C158.897 172.651 158.614 172.708 158.327 172.706Z" fill="#3B3A3B"/>
<path d="M172.589 174.344H176.119V188.005H172.589V186.394C172.058 187.055 171.378 187.581 170.605 187.928C169.831 188.275 168.986 188.433 168.139 188.39C167.254 188.397 166.377 188.214 165.568 187.854C164.759 187.494 164.036 186.965 163.449 186.302C162.15 184.915 161.447 183.074 161.491 181.174C161.446 179.276 162.149 177.437 163.449 176.053C164.035 175.388 164.757 174.858 165.567 174.496C166.376 174.135 167.253 173.952 168.139 173.959C168.986 173.915 169.831 174.074 170.605 174.421C171.378 174.768 172.058 175.294 172.589 175.955V174.344ZM166.065 183.947C166.415 184.305 166.836 184.586 167.301 184.772C167.766 184.959 168.265 185.047 168.766 185.03C169.269 185.046 169.771 184.958 170.239 184.772C170.707 184.586 171.132 184.305 171.486 183.947C171.845 183.583 172.126 183.149 172.311 182.672C172.496 182.195 172.582 181.685 172.563 181.174C172.582 180.663 172.496 180.154 172.311 179.677C172.126 179.2 171.845 178.766 171.486 178.402C171.13 178.046 170.705 177.767 170.237 177.582C169.77 177.397 169.269 177.309 168.766 177.325C168.266 177.309 167.768 177.396 167.303 177.581C166.838 177.767 166.417 178.046 166.065 178.402C165.708 178.767 165.43 179.202 165.246 179.678C165.062 180.155 164.976 180.664 164.995 181.174C164.98 181.687 165.069 182.197 165.258 182.673C165.446 183.15 165.73 183.583 166.091 183.947H166.065Z" fill="#3B3A3B"/>
<path d="M178.22 188.005V168.061H181.743V188.005H178.22Z" fill="#3B3A3B"/>
<path d="M186.858 182.623C187.328 184.336 188.611 185.193 190.707 185.193C191.29 185.231 191.873 185.125 192.406 184.887C192.94 184.648 193.407 184.283 193.767 183.823L196.611 185.467C195.25 187.42 193.265 188.394 190.655 188.39C189.656 188.435 188.659 188.276 187.724 187.924C186.789 187.572 185.935 187.034 185.214 186.341C184.539 185.665 184.009 184.858 183.657 183.969C183.304 183.081 183.137 182.13 183.165 181.174C183.139 180.224 183.305 179.279 183.652 178.395C184 177.51 184.522 176.705 185.188 176.027C185.866 175.339 186.681 174.799 187.58 174.443C188.478 174.087 189.441 173.922 190.407 173.959C191.334 173.933 192.256 174.106 193.111 174.465C193.966 174.823 194.734 175.36 195.365 176.04C196.013 176.725 196.519 177.531 196.855 178.412C197.191 179.293 197.35 180.232 197.323 181.174C197.318 181.66 197.27 182.145 197.179 182.623H186.858ZM186.799 179.889H193.767C193.635 179.064 193.191 178.322 192.527 177.814C191.905 177.36 191.152 177.12 190.381 177.129C189.543 177.099 188.719 177.355 188.045 177.854C187.402 178.363 186.961 179.085 186.799 179.889V179.889Z" fill="#3B3A3B"/>
<path d="M211.257 188.005H207.16L202.182 181.801V188.005H198.659V168.876H202.182V180.378L206.886 174.343H211.094L205.601 181.096L211.257 188.005Z" fill="#3B3A3B"/>
<path d="M222.572 186.302C221.561 187.319 220.271 188.011 218.866 188.292C217.46 188.573 216.003 188.429 214.679 187.88C213.356 187.33 212.226 186.399 211.433 185.204C210.64 184.01 210.221 182.607 210.228 181.174C210.199 180.207 210.364 179.244 210.714 178.342C211.064 177.44 211.592 176.617 212.266 175.923C212.939 175.229 213.746 174.676 214.637 174.299C215.528 173.923 216.486 173.728 217.453 173.728C218.421 173.728 219.379 173.923 220.27 174.299C221.161 174.676 221.967 175.229 222.641 175.923C223.315 176.617 223.843 177.44 224.193 178.342C224.543 179.244 224.708 180.207 224.679 181.174C224.698 182.128 224.521 183.075 224.158 183.957C223.796 184.839 223.256 185.638 222.572 186.302V186.302ZM214.795 183.882C215.507 184.564 216.454 184.945 217.44 184.945C218.426 184.945 219.374 184.564 220.086 183.882C220.439 183.527 220.715 183.104 220.898 182.638C221.081 182.172 221.167 181.674 221.149 181.174C221.166 180.674 221.08 180.176 220.897 179.711C220.714 179.245 220.438 178.822 220.086 178.467C219.374 177.784 218.426 177.404 217.44 177.404C216.454 177.404 215.507 177.784 214.795 178.467C214.447 178.824 214.174 179.248 213.994 179.713C213.813 180.179 213.729 180.675 213.744 181.174C213.728 181.673 213.813 182.17 213.993 182.635C214.174 183.1 214.446 183.524 214.795 183.882V183.882Z" fill="#3B3A3B"/>
</g>
<g clip-path="url(#clip5_982_177)">
<path d="M86.67 171.532H80.6777V174.032H86.67V171.532Z" fill="#76CCD8"/>
<path d="M81.9305 172.785H79.4307V178.777H81.9305V172.785Z" fill="#1EBCC5"/>
<path d="M81.9305 174.038H74.6914V171.532H79.4307V166.792H81.9305" fill="#00ACB4"/>
<path d="M9.59369 182.929C9.13417 182.358 8.54565 181.903 7.87645 181.604C7.20726 181.304 6.47647 181.167 5.74412 181.204C4.97753 181.199 4.2187 181.358 3.51903 181.671C2.81936 181.984 2.19518 182.444 1.68875 183.02C0.568377 184.215 -0.0380629 185.801 2.42819e-05 187.439C-0.0412634 189.08 0.565402 190.672 1.68875 191.869C2.19543 192.444 2.81967 192.904 3.51928 193.217C4.21889 193.531 4.97759 193.69 5.74412 193.685C6.47647 193.722 7.20726 193.586 7.87645 193.286C8.54565 192.986 9.13417 192.531 9.59369 191.96V193.352H12.6201V181.531H9.59369V182.929V182.929ZM3.02642 187.439C3.006 186.993 3.07712 186.549 3.23537 186.133C3.39361 185.716 3.63563 185.337 3.94644 185.017C4.25042 184.709 4.61494 184.467 5.01705 184.307C5.41915 184.146 5.85013 184.071 6.28281 184.085C6.71817 184.071 7.15175 184.147 7.55674 184.307C7.96174 184.468 8.32952 184.709 8.63735 185.017C8.95093 185.335 9.19556 185.714 9.35595 186.131C9.51634 186.547 9.58903 186.993 9.56948 187.439C9.58867 187.884 9.51581 188.33 9.35544 188.746C9.19507 189.163 8.95063 189.542 8.63735 189.86C8.32867 190.167 7.96074 190.408 7.55595 190.568C7.15116 190.728 6.71799 190.804 6.28281 190.792C5.85026 190.805 5.41961 190.729 5.01766 190.569C4.61572 190.408 4.25108 190.167 3.94644 189.86C3.63592 189.54 3.3941 189.161 3.23587 188.744C3.07764 188.328 3.00636 187.884 3.02642 187.439V187.439ZM17.9586 181.531H14.9322V193.346H17.9586V187.699C17.9188 187.235 17.9992 186.768 18.1922 186.344C18.3851 185.92 18.6841 185.553 19.0602 185.278C19.7932 184.788 20.681 184.585 21.554 184.709V181.319C20.79 181.302 20.0355 181.49 19.3689 181.864C18.7124 182.245 18.2142 182.848 17.9647 183.565V181.531H17.9586Z" fill="#3B3A3B"/>
<path d="M29.9677 181.531H27.2923V178.226L24.266 179.146V181.531H22.208V184.461H24.266V189.376C24.266 190.99 24.6957 192.117 25.5552 192.759C26.4147 193.401 27.8916 193.602 29.9858 193.364V190.586C29.3806 190.586 28.9145 190.586 28.5211 190.586C28.1924 190.587 27.8737 190.473 27.6192 190.265C27.5072 190.145 27.4219 190.003 27.3687 189.847C27.3155 189.692 27.2957 189.527 27.3105 189.363V184.461H29.9858V181.531H29.9677ZM41.3772 182.905C41.0498 182.353 40.5765 181.903 40.0095 181.602C39.4424 181.302 38.8035 181.165 38.1631 181.204C37.5263 181.16 36.8889 181.283 36.3138 181.56C35.7386 181.837 35.2454 182.259 34.8825 182.784V181.531H31.8561V193.346H34.8825V186.688C34.8358 185.975 35.051 185.269 35.4878 184.703C35.6913 184.477 35.9422 184.298 36.2226 184.18C36.5029 184.062 36.8059 184.007 37.11 184.019C37.3836 184.005 37.6569 184.053 37.9101 184.157C38.1633 184.262 38.3903 184.421 38.5747 184.624C38.9461 185.092 39.1315 185.68 39.0953 186.277V193.346H42.1217V186.688C42.0831 185.976 42.2975 185.273 42.7269 184.703C42.927 184.474 43.1765 184.294 43.4564 184.175C43.7363 184.057 44.0395 184.003 44.343 184.019C44.6168 184.005 44.8901 184.052 45.1434 184.157C45.3967 184.262 45.6236 184.421 45.8078 184.624C46.1792 185.092 46.3646 185.68 46.3283 186.277V193.346H49.3547V186.083C49.4226 184.789 48.989 183.518 48.1442 182.536C47.7298 182.094 47.2247 181.748 46.6636 181.52C46.1025 181.292 45.4988 181.189 44.8938 181.216C44.2101 181.174 43.527 181.308 42.9101 181.606C42.2931 181.904 41.7632 182.355 41.3711 182.917L41.3772 182.905ZM62.9796 188.692C63.0547 188.278 63.0932 187.859 63.0946 187.439C63.1391 185.793 62.5322 184.196 61.4058 182.996C60.8618 182.406 60.1981 181.939 59.4591 181.625C58.7201 181.312 57.9228 181.16 57.1205 181.18C56.2928 181.158 55.4694 181.306 54.7018 181.617C53.9343 181.927 53.239 182.392 52.6596 182.984C52.0831 183.57 51.631 184.267 51.3304 185.033C51.0298 185.798 50.8869 186.617 50.9103 187.439C50.8821 188.263 51.0227 189.085 51.3235 189.853C51.6243 190.621 52.079 191.32 52.6596 191.906C53.2819 192.505 54.0199 192.972 54.8285 193.277C55.6371 193.581 56.4993 193.718 57.3626 193.679C58.366 193.734 59.3666 193.53 60.2686 193.087C61.1706 192.644 61.9436 191.977 62.5135 191.149L60.05 189.733C59.7398 190.135 59.3363 190.455 58.8743 190.666C58.4123 190.877 57.9059 190.972 57.3989 190.943C55.5911 190.943 54.4814 190.203 54.0699 188.722L62.9796 188.692ZM55.0807 184.57C55.6699 184.142 56.3873 183.929 57.1144 183.964C57.7809 183.961 58.4307 184.173 58.9666 184.57C59.5439 185.016 59.9293 185.665 60.044 186.385H53.9912C54.1207 185.668 54.5082 185.022 55.0807 184.57V184.57Z" fill="#3B3A3B"/>
<path d="M73.6142 182.929C73.1601 182.356 72.5752 181.9 71.9085 181.6C71.2418 181.3 70.5128 181.164 69.7828 181.204C69.0135 181.198 68.2517 181.357 67.549 181.67C66.8463 181.983 66.219 182.444 65.7093 183.02C64.5859 184.217 63.9792 185.809 64.0205 187.451C63.9792 189.092 64.5859 190.684 65.7093 191.881C66.2192 192.457 66.8466 192.917 67.5493 193.23C68.2519 193.544 69.0135 193.703 69.7828 193.697C70.5128 193.737 71.2418 193.601 71.9085 193.301C72.5752 193.001 73.1601 192.545 73.6142 191.972V193.364H76.6406V176.804H73.6142V182.929ZM67.0651 187.438C67.0467 186.992 67.1205 186.547 67.2819 186.13C67.4433 185.714 67.6889 185.335 68.0033 185.017C68.6378 184.419 69.4768 184.086 70.3487 184.086C71.2206 184.086 72.0596 184.419 72.6942 185.017C73.0038 185.337 73.2451 185.717 73.4032 186.133C73.5614 186.549 73.6332 186.994 73.6142 187.438C73.6328 187.883 73.5609 188.327 73.4027 188.743C73.2446 189.16 73.0035 189.539 72.6942 189.86C72.0596 190.458 71.2206 190.791 70.3487 190.791C69.4768 190.791 68.6378 190.458 68.0033 189.86C67.6889 189.542 67.4433 189.163 67.2819 188.747C67.1205 188.33 67.0467 187.885 67.0651 187.438Z" fill="#3B3A3B"/>
<path d="M92.1718 183.468C93.2272 183.76 94.1714 184.361 94.8834 185.193C95.5853 186.022 95.958 187.079 95.9305 188.165C95.9682 188.913 95.8346 189.661 95.5398 190.35C95.2451 191.039 94.797 191.652 94.2297 192.142C93.0576 193.11 91.5733 193.62 90.0533 193.576C88.8469 193.595 87.6574 193.29 86.6093 192.692C85.5992 192.106 84.8229 191.189 84.4121 190.096L87.1601 188.498C87.5717 189.769 88.5219 190.398 90.0291 190.398C90.7389 190.446 91.4413 190.231 92.0023 189.793C92.2209 189.582 92.3947 189.329 92.5134 189.049C92.6321 188.77 92.6933 188.469 92.6933 188.165C92.6933 187.861 92.6321 187.56 92.5134 187.281C92.3947 187.001 92.2209 186.748 92.0023 186.537C91.4506 186.104 90.7593 185.888 90.0593 185.931H89.3572L88.1104 184.055L91.3546 179.818H84.9024V176.792H95.2466V179.473L92.1718 183.468Z" fill="#00ACB4"/>
<path d="M102.86 182.124C104.413 182.107 105.909 182.703 107.025 183.783C107.557 184.312 107.974 184.945 108.25 185.643C108.526 186.341 108.655 187.088 108.629 187.838C108.654 188.605 108.518 189.368 108.231 190.079C107.943 190.79 107.509 191.433 106.958 191.966C105.765 193 104.239 193.569 102.661 193.569C101.082 193.569 99.5561 193 98.3632 191.966C97.8133 191.43 97.3818 190.784 97.0962 190.071C96.8105 189.358 96.6772 188.594 96.7047 187.826C96.6814 186.647 97.0193 185.49 97.6731 184.509L102.794 176.774H106.528L102.86 182.124ZM100.706 189.793C100.966 190.037 101.273 190.228 101.607 190.353C101.942 190.479 102.298 190.538 102.655 190.525C103.379 190.55 104.084 190.286 104.616 189.793C104.881 189.545 105.089 189.242 105.225 188.905C105.362 188.569 105.425 188.207 105.409 187.844C105.423 187.485 105.359 187.127 105.223 186.795C105.086 186.463 104.879 186.164 104.616 185.919C104.072 185.451 103.378 185.194 102.661 185.194C101.943 185.194 101.249 185.451 100.706 185.919C100.444 186.167 100.239 186.468 100.104 186.803C99.969 187.137 99.908 187.496 99.9248 187.856C99.9096 188.216 99.9714 188.575 100.106 188.909C100.241 189.243 100.445 189.544 100.706 189.793Z" fill="#00ACB4"/>
<path d="M116.057 193.576C115.119 193.614 114.187 193.42 113.342 193.012C112.497 192.603 111.766 191.992 111.214 191.234C110.048 189.68 109.463 187.608 109.459 185.017C109.455 182.427 110.04 180.355 111.214 178.801C111.791 178.068 112.526 177.476 113.365 177.069C114.204 176.662 115.124 176.45 116.057 176.45C116.989 176.45 117.909 176.662 118.748 177.069C119.587 177.476 120.322 178.068 120.899 178.801C122.061 180.359 122.642 182.431 122.642 185.017C122.642 187.604 122.061 189.676 120.899 191.234C120.347 191.993 119.617 192.604 118.772 193.013C117.927 193.422 116.994 193.615 116.057 193.576V193.576ZM113.563 189.024C113.813 189.46 114.178 189.818 114.617 190.06C115.057 190.303 115.555 190.42 116.057 190.398C116.561 190.417 117.061 190.298 117.502 190.054C117.944 189.81 118.31 189.449 118.562 189.012C119.202 187.782 119.497 186.402 119.416 185.017C119.499 183.625 119.204 182.237 118.562 180.998C118.31 180.561 117.944 180.201 117.502 179.957C117.061 179.712 116.561 179.593 116.057 179.612C115.554 179.592 115.055 179.711 114.615 179.955C114.175 180.2 113.811 180.561 113.563 180.998C112.926 182.238 112.634 183.626 112.715 185.017C112.632 186.405 112.925 187.789 113.563 189.024V189.024Z" fill="#00ACB4"/>
</g>
<g clip-path="url(#clip6_982_177)">
<path d="M390 171.895H384.065V174.37H390V171.895Z" fill="#76CCD8"/>
<path d="M385.306 173.13H382.831V179.058H385.306V173.13Z" fill="#1EBCC5"/>
<path d="M385.306 174.37H378.137V171.895H382.831V167.201H385.306" fill="#00ACB4"/>
<path d="M274.181 181.193C274.944 181.187 275.699 181.344 276.396 181.652C277.093 181.961 277.717 182.414 278.225 182.983C279.334 184.175 279.929 185.756 279.883 187.384C279.923 189.013 279.321 190.591 278.207 191.78C277.701 192.35 277.078 192.806 276.38 193.114C275.682 193.423 274.926 193.578 274.164 193.569C273.44 193.607 272.717 193.472 272.056 193.174C271.395 192.876 270.815 192.425 270.364 191.857V197.935H267.358V181.515H270.382V182.899C270.834 182.332 271.414 181.882 272.075 181.585C272.736 181.289 273.458 181.154 274.181 181.193V181.193ZM271.295 189.764C271.598 190.07 271.961 190.31 272.361 190.469C272.761 190.628 273.19 190.703 273.621 190.688C274.052 190.702 274.482 190.627 274.883 190.468C275.284 190.309 275.648 190.069 275.953 189.764C276.262 189.45 276.503 189.077 276.662 188.667C276.821 188.256 276.894 187.818 276.877 187.378C276.893 186.939 276.82 186.5 276.661 186.09C276.502 185.68 276.261 185.306 275.953 184.992C275.646 184.69 275.281 184.454 274.88 184.297C274.48 184.14 274.051 184.066 273.621 184.08C273.19 184.066 272.762 184.142 272.362 184.301C271.962 184.46 271.598 184.699 271.295 185.004C270.99 185.32 270.752 185.694 270.595 186.104C270.438 186.514 270.366 186.951 270.382 187.39C270.366 187.827 270.439 188.262 270.596 188.67C270.753 189.078 270.99 189.45 271.295 189.764V189.764Z" fill="#00ACB4"/>
<path d="M291.556 191.78C290.982 192.362 290.295 192.822 289.537 193.129C288.779 193.437 287.966 193.587 287.148 193.569C286.333 193.577 285.525 193.422 284.771 193.114C284.017 192.807 283.331 192.351 282.755 191.776C282.179 191.2 281.723 190.515 281.414 189.761C281.105 189.007 280.95 188.199 280.957 187.384C280.949 186.569 281.104 185.76 281.412 185.006C281.721 184.251 282.176 183.565 282.753 182.989C283.329 182.412 284.015 181.957 284.77 181.648C285.524 181.34 286.333 181.185 287.148 181.193C287.966 181.177 288.778 181.327 289.536 181.635C290.294 181.942 290.981 182.401 291.556 182.983C292.139 183.554 292.599 184.239 292.906 184.995C293.214 185.751 293.363 186.562 293.345 187.378C293.364 188.195 293.215 189.008 292.908 189.765C292.6 190.522 292.14 191.208 291.556 191.78V191.78ZM284.882 189.704C285.49 190.293 286.304 190.623 287.151 190.623C287.998 190.623 288.812 190.293 289.421 189.704C289.723 189.4 289.959 189.037 290.116 188.638C290.273 188.239 290.347 187.813 290.333 187.384C290.344 186.961 290.269 186.54 290.113 186.147C289.957 185.753 289.724 185.395 289.426 185.094C288.816 184.509 288.003 184.182 287.157 184.182C286.311 184.182 285.498 184.509 284.888 185.094C284.588 185.399 284.354 185.763 284.199 186.162C284.045 186.56 283.972 186.986 283.987 187.414C283.976 187.836 284.049 188.256 284.203 188.65C284.356 189.043 284.587 189.402 284.882 189.704V189.704ZM285.252 179.857H288.162L290.762 176.649H287.148L285.252 179.857Z" fill="#00ACB4"/>
<path d="M297.555 184.855C297.555 185.165 297.764 185.422 298.151 185.613C298.638 185.834 299.146 186.008 299.666 186.131C300.273 186.284 300.87 186.471 301.456 186.692C302.054 186.925 302.577 187.319 302.964 187.831C303.386 188.407 303.596 189.111 303.561 189.823C303.587 190.362 303.477 190.899 303.242 191.385C303.006 191.871 302.653 192.289 302.213 192.603C301.224 193.277 300.045 193.618 298.849 193.575C296.463 193.575 294.799 192.644 293.929 190.784L296.583 189.304C296.729 189.786 297.039 190.201 297.457 190.479C297.876 190.758 298.379 190.882 298.879 190.831C299.958 190.831 300.495 190.497 300.495 189.823C300.495 189.507 300.292 189.227 299.899 189.06C299.407 188.838 298.896 188.662 298.372 188.535C297.764 188.374 297.166 188.175 296.583 187.939C295.99 187.707 295.468 187.325 295.068 186.829C294.651 186.281 294.44 185.603 294.471 184.915C294.451 184.391 294.557 183.869 294.779 183.394C295.001 182.919 295.333 182.504 295.748 182.183C296.664 181.5 297.785 181.149 298.927 181.187C299.834 181.176 300.73 181.398 301.527 181.831C302.305 182.261 302.947 182.899 303.382 183.674L300.793 185.094C300.641 184.725 300.379 184.413 300.043 184.2C299.707 183.986 299.313 183.882 298.915 183.901C298.572 183.889 298.233 183.98 297.943 184.163C297.823 184.235 297.725 184.336 297.657 184.458C297.589 184.579 297.554 184.716 297.555 184.855Z" fill="#00ACB4"/>
<path d="M313.826 181.515H316.862V193.247H313.826V191.863C313.37 192.43 312.787 192.881 312.123 193.178C311.46 193.476 310.735 193.612 310.009 193.575C309.249 193.582 308.496 193.426 307.802 193.118C307.107 192.809 306.487 192.355 305.983 191.786C304.878 190.591 304.287 189.01 304.337 187.384C304.297 185.756 304.899 184.177 306.013 182.989C306.518 182.421 307.138 181.967 307.832 181.659C308.527 181.35 309.279 181.193 310.039 181.199C310.765 181.162 311.49 181.298 312.153 181.596C312.817 181.893 313.4 182.344 313.856 182.911L313.826 181.515ZM308.249 189.764C308.551 190.07 308.913 190.31 309.312 190.469C309.712 190.629 310.14 190.703 310.569 190.688C311.001 190.702 311.43 190.627 311.831 190.468C312.232 190.309 312.597 190.069 312.901 189.764C313.21 189.45 313.452 189.077 313.611 188.667C313.77 188.256 313.843 187.818 313.826 187.378C313.842 186.939 313.768 186.5 313.609 186.09C313.45 185.68 313.209 185.307 312.901 184.992C312.596 184.688 312.231 184.449 311.831 184.291C311.43 184.132 311.001 184.056 310.569 184.068C310.14 184.055 309.712 184.13 309.313 184.289C308.914 184.448 308.552 184.687 308.249 184.992C307.942 185.307 307.703 185.681 307.545 186.091C307.387 186.501 307.314 186.939 307.331 187.378C307.313 187.817 307.385 188.256 307.543 188.666C307.701 189.076 307.942 189.45 308.249 189.764V189.764Z" fill="#3B3A3A"/>
<path d="M322.152 183.537C322.401 182.826 322.896 182.228 323.547 181.849C324.207 181.474 324.954 181.281 325.712 181.289V184.664C324.849 184.544 323.97 184.744 323.243 185.225C322.869 185.5 322.571 185.866 322.38 186.289C322.189 186.713 322.11 187.178 322.152 187.641V193.247H319.128V181.515H322.152V183.537Z" fill="#3B3A3A"/>
<path d="M334.038 184.432H331.384V189.304C331.369 189.467 331.389 189.631 331.442 189.785C331.496 189.94 331.582 190.081 331.694 190.199C331.945 190.404 332.259 190.516 332.583 190.515C333.067 190.542 333.553 190.542 334.038 190.515V193.259C331.958 193.493 330.493 193.295 329.642 192.662C328.791 192.03 328.364 190.911 328.36 189.304V184.432H326.32V181.515H328.36V179.13L331.384 178.217V181.515H334.038V184.432Z" fill="#3B3A3A"/>
<path d="M348.854 181.193C349.454 181.167 350.054 181.27 350.611 181.497C351.167 181.723 351.669 182.067 352.08 182.505C352.915 183.482 353.342 184.742 353.273 186.024V193.247H350.261V186.233C350.298 185.641 350.113 185.056 349.743 184.593C349.56 184.393 349.335 184.235 349.085 184.132C348.834 184.029 348.564 183.983 348.293 183.996C347.991 183.98 347.689 184.033 347.41 184.151C347.131 184.269 346.882 184.448 346.683 184.676C346.257 185.241 346.046 185.939 346.086 186.645V193.247H343.104V186.233C343.139 185.642 342.956 185.059 342.591 184.593C342.408 184.393 342.182 184.235 341.93 184.132C341.679 184.029 341.408 183.983 341.136 183.996C340.833 183.983 340.531 184.038 340.252 184.158C339.973 184.278 339.725 184.459 339.526 184.688C339.092 185.249 338.88 185.949 338.929 186.656V193.247H335.888V181.515H338.929V182.768C339.289 182.244 339.779 181.823 340.352 181.547C340.924 181.271 341.558 181.149 342.192 181.193C342.826 181.157 343.459 181.295 344.02 181.592C344.582 181.89 345.051 182.336 345.377 182.881C345.766 182.328 346.289 181.883 346.897 181.588C347.505 181.293 348.179 181.157 348.854 181.193Z" fill="#3B3A3A"/>
<path d="M357.948 188.625C358.346 190.096 359.449 190.831 361.258 190.831C361.759 190.86 362.26 190.766 362.717 190.558C363.174 190.351 363.574 190.035 363.882 189.639L366.322 191.058C365.757 191.88 364.99 192.543 364.095 192.983C363.2 193.423 362.206 193.624 361.21 193.569C360.353 193.609 359.497 193.473 358.694 193.17C357.891 192.868 357.158 192.405 356.54 191.809C355.962 191.229 355.507 190.537 355.206 189.775C354.904 189.013 354.762 188.197 354.787 187.378C354.763 186.563 354.904 185.751 355.201 184.992C355.498 184.233 355.946 183.541 356.517 182.959C357.095 182.368 357.789 181.904 358.556 181.596C359.323 181.288 360.146 181.143 360.972 181.169C361.768 181.148 362.56 181.296 363.294 181.605C364.028 181.913 364.689 182.375 365.23 182.959C366.348 184.15 366.95 185.734 366.906 187.366C366.903 187.782 366.863 188.198 366.787 188.607L357.948 188.625ZM357.9 186.287H363.865C363.748 185.576 363.367 184.937 362.797 184.497C362.276 184.111 361.644 183.902 360.996 183.901C360.272 183.873 359.56 184.094 358.98 184.527C358.422 184.966 358.039 185.59 357.9 186.287V186.287Z" fill="#3B3A3A"/>
<path d="M377.337 176.833H380.361V193.247H377.337V191.863C376.885 192.434 376.303 192.888 375.638 193.186C374.974 193.484 374.247 193.617 373.52 193.575C372.758 193.581 372.003 193.425 371.306 193.116C370.608 192.808 369.985 192.354 369.477 191.786C368.363 190.597 367.761 189.019 367.801 187.39C367.761 185.762 368.363 184.183 369.477 182.994C369.985 182.426 370.608 181.973 371.306 181.664C372.003 181.356 372.758 181.199 373.52 181.205C374.244 181.166 374.967 181.301 375.628 181.599C376.289 181.896 376.869 182.349 377.32 182.917L377.337 176.833ZM371.773 189.764C372.402 190.358 373.234 190.689 374.099 190.689C374.964 190.689 375.796 190.358 376.425 189.764C376.731 189.449 376.969 189.075 377.126 188.665C377.283 188.255 377.355 187.817 377.337 187.378C377.354 186.94 377.282 186.502 377.125 186.092C376.968 185.682 376.73 185.308 376.425 184.992C375.796 184.399 374.964 184.068 374.099 184.068C373.234 184.068 372.402 184.399 371.773 184.992C371.463 185.305 371.22 185.679 371.06 186.089C370.9 186.499 370.826 186.938 370.842 187.378C370.825 187.818 370.899 188.258 371.059 188.668C371.219 189.079 371.462 189.452 371.773 189.764Z" fill="#3B3A3A"/>
</g>
<defs>
<clipPath id="clip0_982_177">
<rect width="122.723" height="37.331" fill="white" transform="translate(136.132)"/>
</clipPath>
<clipPath id="clip1_982_177">
<rect width="81.761" height="35.884" fill="white" transform="translate(20.4404 78.4906)"/>
</clipPath>
<clipPath id="clip2_982_177">
<rect width="81.761" height="45.0206" fill="white" transform="translate(285.346 77.2642)"/>
</clipPath>
<clipPath id="clip3_982_177">
<rect width="122.642" height="16.8193" fill="white" transform="translate(132.453 91.5723)"/>
</clipPath>
<clipPath id="clip4_982_177">
<rect width="81.761" height="40.1628" fill="white" transform="translate(154.119 162.704)"/>
</clipPath>
<clipPath id="clip5_982_177">
<rect width="122.642" height="26.8865" fill="white" transform="translate(0 166.792)"/>
</clipPath>
<clipPath id="clip6_982_177">
<rect width="122.642" height="30.7334" fill="white" transform="translate(267.358 167.201)"/>
</clipPath>
</defs>
</svg>
