<svg viewBox="0 0 300 76" fill="none" xmlns="http://www.w3.org/2000/svg">
<path d="M300 11.4817H285.483V17.5363H300V11.4817Z" fill="#76CCD8"/>
<path d="M288.518 14.5017H282.464V29.0035H288.518V14.5017Z" fill="#1EBCC5"/>
<path d="M288.519 17.5364H270.982V11.4818H282.464V0H288.519" fill="#00ACB4"/>
<path d="M16.6902 34.2266C18.5552 34.2118 20.402 34.5945 22.1076 35.3491C23.8132 36.1038 25.3384 37.2132 26.5817 38.6034C29.2934 41.5216 30.75 45.3883 30.6376 49.3703C30.7359 53.3537 29.2633 57.2159 26.538 60.1226C25.2995 61.5188 23.7752 62.6322 22.0685 63.3874C20.3618 64.1426 18.5126 64.5218 16.6464 64.4994C14.8757 64.5933 13.1082 64.2621 11.4915 63.5338C9.87486 62.8054 8.45587 61.7008 7.35301 60.3123V75.1788H0V35.0144H7.39678V38.3992C8.50116 37.0133 9.92082 35.9116 11.5374 35.1858C13.154 34.4599 14.9207 34.1311 16.6902 34.2266V34.2266ZM9.62895 55.1915C10.3703 55.9401 11.2584 56.5275 12.2376 56.9166C13.2167 57.3058 14.2657 57.4883 15.3188 57.4528C16.3737 57.486 17.4242 57.3024 18.4054 56.9134C19.3866 56.5245 20.2775 55.9384 21.0232 55.1915C21.7788 54.4248 22.3693 53.5115 22.7582 52.5078C23.1472 51.5041 23.3263 50.4313 23.2845 49.3557C23.3237 48.2804 23.1434 47.2084 22.7546 46.2051C22.3658 45.2018 21.7767 44.2882 21.0232 43.52C20.273 42.7811 19.3806 42.2023 18.4 41.8186C17.4195 41.4349 16.3712 41.2543 15.3188 41.2878C14.2661 41.255 13.2178 41.4387 12.2391 41.8277C11.2603 42.2167 10.3719 42.8026 9.62895 43.5492C8.88278 44.3213 8.30041 45.2362 7.91682 46.2391C7.53323 47.2419 7.35634 48.312 7.39678 49.3849C7.35779 50.4533 7.53545 51.5185 7.91907 52.5165C8.30269 53.5144 8.88432 54.4243 9.62895 55.1915V55.1915Z" fill="#00ACB4"/>
<path d="M59.1886 60.1225C57.7843 61.5477 56.1036 62.6711 54.2497 63.4237C52.3957 64.1764 50.4075 64.5423 48.4071 64.4992C46.4142 64.5187 44.4375 64.1408 42.5923 63.3875C40.7472 62.6343 39.0706 61.5209 37.6607 60.1123C36.2508 58.7037 35.1357 57.0283 34.3807 55.1839C33.6257 53.3394 33.2459 51.363 33.2634 49.3701C33.2439 47.376 33.6223 45.398 34.3764 43.5519C35.1306 41.7058 36.2453 40.0286 37.6555 38.6185C39.0656 37.2083 40.7428 36.0936 42.5889 35.3395C44.435 34.5853 46.413 34.2069 48.4071 34.2264C50.4071 34.1867 52.3942 34.5543 54.2477 35.3067C56.1012 36.0591 57.7822 37.1807 59.1886 38.6032C60.6152 40.0005 61.7397 41.6758 62.4925 43.5253C63.2454 45.3748 63.6106 47.3592 63.5654 49.3555C63.6126 51.3543 63.2484 53.3415 62.4955 55.1937C61.7426 57.0458 60.617 58.7235 59.1886 60.1225V60.1225ZM42.8632 55.0454C44.3517 56.4867 46.3425 57.2925 48.4144 57.2925C50.4864 57.2925 52.4771 56.4867 53.9656 55.0454C54.7044 54.3011 55.2834 53.4139 55.6673 52.4381C56.0511 51.4622 56.2316 50.4182 56.1978 49.3701C56.2236 48.3352 56.0405 47.3057 55.6595 46.3432C55.2785 45.3806 54.7073 44.5047 53.9802 43.7678C52.4865 42.3367 50.4977 41.5377 48.429 41.5377C46.3603 41.5377 44.3715 42.3367 42.8778 43.7678C42.1457 44.5155 41.5729 45.404 41.1942 46.3795C40.8156 47.355 40.6389 48.3973 40.6748 49.4431C40.6468 50.4757 40.8261 51.5035 41.2019 52.4657C41.5778 53.4279 42.1427 54.3051 42.8632 55.0454V55.0454ZM43.7677 30.9584H50.8873L57.2482 23.1094H48.4071L43.7677 30.9584Z" fill="#00ACB4"/>
<path d="M73.8654 43.1845C73.8654 43.9431 74.376 44.5705 75.3244 45.0373C76.5156 45.5793 77.7566 46.0044 79.03 46.3066C80.5143 46.6786 81.9757 47.1365 83.4068 47.678C84.8717 48.2467 86.1496 49.2115 87.0979 50.4645C88.1283 51.8736 88.6434 53.5939 88.5569 55.3374C88.621 56.6561 88.3526 57.9698 87.7765 59.1577C87.2004 60.3457 86.3349 61.3698 85.2597 62.136C82.8407 63.7859 79.9575 64.6191 77.0313 64.514C71.1956 64.514 67.1252 62.2381 64.9951 57.6862L71.4874 54.0681C71.8461 55.2449 72.6022 56.2606 73.6267 56.9418C74.6511 57.623 75.8803 57.9274 77.1042 57.803C79.7449 57.803 81.058 56.986 81.058 55.3374C81.058 54.5641 80.5619 53.8784 79.599 53.4699C78.3969 52.9263 77.1465 52.4965 75.8642 52.1861C74.3758 51.793 72.9139 51.3057 71.4874 50.7271C70.037 50.1606 68.7596 49.2252 67.7817 48.0135C66.7616 46.6716 66.2453 45.0141 66.3227 43.3304C66.2733 42.0484 66.5309 40.7733 67.0739 39.611C67.617 38.4487 68.4299 37.433 69.4449 36.6485C71.6852 34.9773 74.4275 34.1181 77.221 34.212C79.4412 34.1841 81.6314 34.7266 83.5819 35.7877C85.4846 36.8386 87.056 38.3999 88.1192 40.2958L81.7874 43.768C81.4156 42.8673 80.7745 42.1035 79.9518 41.5811C79.1291 41.0588 78.1651 40.8035 77.1918 40.8502C76.3527 40.8209 75.5241 41.0445 74.8137 41.4921C74.5221 41.6673 74.2812 41.9156 74.1149 42.2124C73.9485 42.5092 73.8626 42.8442 73.8654 43.1845Z" fill="#00ACB4"/>
<path d="M113.665 35.0142H121.091V63.7114H113.665V60.3267C112.551 61.7132 111.123 62.8156 109.5 63.5435C107.877 64.2714 106.104 64.6039 104.328 64.5138C102.469 64.5318 100.627 64.1504 98.9285 63.3953C97.2295 62.6402 95.7125 61.5291 94.4801 60.137C91.7776 57.2151 90.3315 53.3483 90.4534 49.3701C90.3567 45.387 91.829 41.5254 94.553 38.6178C95.7879 37.2287 97.3053 36.1196 99.0037 35.3648C100.702 34.6099 102.542 34.2268 104.401 34.241C106.177 34.1509 107.95 34.4834 109.573 35.2113C111.196 35.9392 112.624 37.0416 113.738 38.4281L113.665 35.0142ZM100.024 55.1913C100.762 55.9402 101.648 56.5279 102.624 56.9172C103.601 57.3064 104.648 57.4887 105.699 57.4526C106.754 57.4858 107.805 57.3022 108.786 56.9132C109.767 56.5243 110.658 55.9382 111.404 55.1913C112.159 54.4246 112.75 53.5113 113.139 52.5076C113.528 51.5039 113.707 50.4311 113.665 49.3555C113.704 48.2802 113.524 47.2082 113.135 46.2049C112.746 45.2016 112.157 44.288 111.404 43.5198C110.656 42.7756 109.765 42.1914 108.784 41.8027C107.803 41.4139 106.754 41.2287 105.699 41.2585C104.649 41.2258 103.603 41.4098 102.626 41.7988C101.65 42.1879 100.764 42.7737 100.024 43.5198C99.2731 44.2892 98.6867 45.2033 98.3005 46.2066C97.9142 47.2099 97.7362 48.2813 97.7772 49.3555C97.7336 50.4301 97.9104 51.5022 98.2968 52.5059C98.6832 53.5095 99.271 54.4234 100.024 55.1913V55.1913Z" fill="white"/>
<path d="M134.032 39.9602C134.642 38.2217 135.853 36.7579 137.445 35.8314C139.058 34.9139 140.886 34.4407 142.741 34.46V42.7176C140.628 42.4234 138.48 42.9111 136.701 44.089C135.785 44.7605 135.058 45.6573 134.59 46.6925C134.122 47.7277 133.93 48.8662 134.032 49.9977V63.7116H126.635V35.0144H134.032V39.9602Z" fill="white"/>
<path d="M163.109 42.1486H156.617V54.0681C156.58 54.4658 156.628 54.8669 156.759 55.2443C156.89 55.6218 157.1 55.9669 157.375 56.2565C157.989 56.7576 158.757 57.0308 159.549 57.0297C160.735 57.0941 161.923 57.0941 163.109 57.0297V63.7408C158.022 64.3146 154.438 63.8283 152.357 62.2818C150.275 60.7354 149.23 57.9975 149.22 54.0681V42.1486H144.23V35.0144H149.22V29.1787L156.617 26.9465V35.0144H163.109V42.1486Z" fill="white"/>
<path d="M199.348 34.2264C200.817 34.1616 202.283 34.4149 203.645 34.9688C205.007 35.5228 206.234 36.3644 207.241 37.4361C209.282 39.8245 210.327 42.9064 210.159 46.0438V63.7114H202.791V46.5544C202.882 45.1057 202.429 43.6753 201.522 42.5424C201.075 42.0528 200.526 41.6681 199.913 41.4158C199.3 41.1636 198.639 41.0501 197.977 41.0834C197.237 41.044 196.498 41.1733 195.816 41.4614C195.133 41.7495 194.525 42.189 194.038 42.7466C192.996 44.1277 192.479 45.834 192.579 47.5611V63.7114H185.284V46.5544C185.368 45.109 184.921 43.6826 184.029 42.5424C183.58 42.0524 183.028 41.6677 182.412 41.4155C181.797 41.1633 181.134 41.05 180.469 41.0834C179.728 41.0508 178.988 41.1861 178.306 41.4791C177.624 41.7721 177.017 42.2154 176.53 42.7758C175.469 44.1471 174.95 45.8607 175.071 47.5903V63.7114H167.631V35.0143H175.071V38.078C175.951 36.797 177.15 35.7679 178.55 35.0924C179.95 34.4169 181.501 34.1184 183.052 34.2264C184.604 34.137 186.15 34.4746 187.524 35.2025C188.897 35.9304 190.045 37.0208 190.842 38.3552C191.794 37.0028 193.074 35.9144 194.562 35.1922C196.05 34.47 197.697 34.1377 199.348 34.2264Z" fill="white"/>
<path d="M221.597 52.4049C222.569 56.0036 225.268 57.803 229.694 57.803C230.92 57.8726 232.145 57.6434 233.263 57.1352C234.381 56.6269 235.359 55.8548 236.113 54.8851L242.08 58.3574C240.699 60.3684 238.823 61.9898 236.633 63.0656C234.443 64.1414 232.013 64.6352 229.577 64.4995C227.48 64.5965 225.386 64.2648 223.422 63.5248C221.458 62.7848 219.665 61.652 218.154 60.1956C216.738 58.7765 215.627 57.083 214.889 55.2189C214.151 53.3548 213.803 51.3595 213.864 49.3558C213.806 47.3618 214.15 45.3766 214.877 43.519C215.604 41.6614 216.699 39.9696 218.095 38.5451C219.509 37.1002 221.208 35.9651 223.085 35.2116C224.961 34.4582 226.973 34.1029 228.994 34.1683C230.941 34.1151 232.878 34.478 234.674 35.2327C236.47 35.9875 238.085 37.1167 239.41 38.5451C242.144 41.4582 243.618 45.3329 243.51 49.3266C243.502 50.3447 243.404 51.3602 243.218 52.3612L221.597 52.4049ZM221.48 46.6859H236.069C235.785 44.9487 234.852 43.3843 233.458 42.3091C232.183 41.3646 230.639 40.8533 229.052 40.8502C227.281 40.7819 225.541 41.3225 224.121 42.3821C222.756 43.4566 221.82 44.9827 221.48 46.6859V46.6859Z" fill="white"/>
<path d="M269.027 23.5618H276.424V63.7116H269.027V60.3268C267.922 61.7234 266.496 62.8331 264.871 63.562C263.245 64.2908 261.468 64.6174 259.69 64.514C257.825 64.5288 255.978 64.1461 254.273 63.3914C252.567 62.6368 251.042 61.5274 249.799 60.1372C247.073 57.2304 245.601 53.3682 245.699 49.3848C245.602 45.4017 247.075 41.5401 249.799 38.6325C251.042 37.2423 252.567 36.1329 254.273 35.3783C255.978 34.6236 257.825 34.2409 259.69 34.2557C261.461 34.1595 263.229 34.4895 264.846 35.2181C266.464 35.9467 267.882 37.0525 268.983 38.4429L269.027 23.5618ZM255.415 55.1914C256.954 56.6442 258.989 57.4535 261.105 57.4535C263.221 57.4535 265.257 56.6442 266.795 55.1914C267.543 54.4208 268.127 53.5061 268.511 52.5029C268.895 51.4997 269.07 50.4289 269.027 49.3557C269.068 48.2827 268.891 47.2127 268.507 46.2098C268.124 45.207 267.541 44.292 266.795 43.5199C265.257 42.0672 263.221 41.2578 261.105 41.2578C258.989 41.2578 256.954 42.0672 255.415 43.5199C254.657 44.2854 254.064 45.1981 253.673 46.2019C253.281 47.2056 253.1 48.279 253.139 49.3557C253.097 50.4326 253.277 51.5068 253.669 52.5109C254.06 53.515 254.655 54.4275 255.415 55.1914Z" fill="white"/>
</svg>
