<svg viewBox="0 0 200 111" fill="none" xmlns="http://www.w3.org/2000/svg">
<path d="M199.999 13.2625H183.251V20.2744H199.999V13.2625Z" fill="#76CCD8"/>
<path d="M186.737 16.7485H179.745V33.517H186.737V16.7485Z" fill="#1EBCC5"/>
<path d="M186.737 20.2544H166.482V13.2625H179.745V0H186.737" fill="#00ACB4"/>
<path d="M11.199 48.6228C12.0459 48.1018 13.0309 47.8503 14.0238 47.9015C15.1313 47.8665 16.2231 48.1698 17.1538 48.7711C18.0844 49.3725 18.8096 50.2432 19.2327 51.2673L26.5051 47.2605C25.2801 45.0771 23.4689 43.2798 21.2762 42.0716C19.0449 40.885 16.5509 40.2787 14.0238 40.3086C10.8052 40.1874 7.64303 41.1778 5.06862 43.1134C3.8944 44.0123 2.95374 45.1806 2.32609 46.5196C1.69844 47.8586 1.40224 49.3289 1.46249 50.8065C1.38651 52.7559 2.01202 54.668 3.22548 56.1956C4.32227 57.592 5.76596 58.6765 7.4126 59.341C9.04798 59.9876 10.7205 60.5362 12.4211 60.9838C13.8881 61.3476 15.317 61.8508 16.6884 62.4863C17.8503 63.0273 18.4514 63.7485 18.4514 64.63C18.4514 66.5132 16.9288 67.4748 13.8836 67.4748C12.4733 67.6155 11.0579 67.2632 9.87811 66.4779C8.69832 65.6926 7.82707 64.5228 7.4126 63.1675L0 67.3346C2.47087 72.5835 7.09873 75.208 13.8836 75.208C17.2544 75.3289 20.5753 74.367 23.3597 72.4633C24.6015 71.5828 25.6012 70.4034 26.2665 69.0343C26.9318 67.6651 27.2412 66.1504 27.1662 64.63C27.2385 62.6103 26.6241 60.6258 25.4232 59.0004C24.3169 57.5657 22.8421 56.4579 21.156 55.795C19.5097 55.1766 17.8311 54.6483 16.1274 54.2123C14.6638 53.8631 13.2354 53.3802 11.8602 52.7698C10.6982 52.2089 10.1172 51.4876 10.1172 50.6061C10.1085 50.2071 10.2037 49.8127 10.3933 49.4615C10.583 49.1103 10.8606 48.8144 11.199 48.6027V48.6228ZM62.9871 61.2643C63.2033 60.1079 63.3173 58.9347 63.3277 57.7583C63.4506 53.1506 61.7517 48.6802 58.5996 45.3171C57.0691 43.6733 55.2046 42.376 53.1314 41.5121C51.0581 40.6483 48.8241 40.2379 46.5792 40.3086C44.2611 40.2336 41.9525 40.6379 39.798 41.4963C37.6434 42.3546 35.6893 43.6486 34.0579 45.2971C32.4445 46.937 31.1797 48.8863 30.3396 51.0279C29.4995 53.1694 29.1015 55.4589 29.1696 57.7583C29.093 60.0618 29.4869 62.3567 30.3274 64.5027C31.1679 66.6487 32.4373 68.6008 34.0579 70.2395C35.7951 71.9185 37.8567 73.2251 40.1165 74.0794C42.3764 74.9338 44.7868 75.3178 47.2002 75.208C50.0181 75.3734 52.8309 74.8073 55.3654 73.5647C57.9 72.322 60.07 70.445 61.6648 68.1159L54.7931 64.1091C53.9227 65.2198 52.7945 66.1014 51.5063 66.6775C50.218 67.2535 48.8087 67.5066 47.4006 67.4147C42.332 67.4147 39.2267 65.4113 38.0847 61.2041L62.9871 61.2643ZM40.9496 49.7246C42.5931 48.5122 44.5982 47.8909 46.6393 47.9616C48.5032 47.9399 50.324 48.5234 51.8281 49.6245C53.4285 50.8613 54.502 52.6577 54.8332 54.653H37.9445C38.3217 52.7123 39.3717 50.967 40.9095 49.7246H40.9496ZM91.6758 72.864C94.2539 71.3754 96.3796 69.2151 97.8263 66.6133L90.4337 62.3862C89.7811 63.7352 88.7328 64.8534 87.4286 65.5916C86.0181 66.3664 84.4299 66.76 82.8208 66.7336C81.641 66.761 80.4684 66.5418 79.3783 66.0898C78.2881 65.6379 77.3044 64.9632 76.49 64.1091C75.6531 63.2658 74.9975 62.2604 74.5634 61.1544C74.1293 60.0485 73.9259 58.8655 73.9657 57.6782C73.922 56.4783 74.1233 55.2821 74.5573 54.1626C74.9913 53.0432 75.6489 52.0239 76.49 51.1671C77.3113 50.3274 78.2982 49.6677 79.388 49.2297C80.4779 48.7917 81.6468 48.585 82.8208 48.6228C84.41 48.5925 85.9768 49.0015 87.3485 49.8048C88.6508 50.5635 89.6972 51.6935 90.3536 53.0503L97.7061 48.743C96.3273 46.1483 94.244 43.9955 91.6959 42.5324C89.0319 40.9879 86.0001 40.1918 82.921 40.2285C80.616 40.1793 78.3248 40.5971 76.1855 41.4566C74.0462 42.3161 72.1029 43.5996 70.4727 45.2299C68.8424 46.8601 67.5589 48.8034 66.6994 50.9427C65.8399 53.082 65.4221 55.3732 65.4713 57.6782C65.4795 60.7433 66.293 63.7525 67.8305 66.4042C69.3679 69.0559 71.5753 71.2569 74.2313 72.7869C76.8874 74.3168 79.8988 75.1218 82.964 75.1213C86.0292 75.1207 89.0404 74.3147 91.6959 72.7838L91.6758 72.864ZM125.593 45.1168C124.302 43.5232 122.653 42.2571 120.78 41.4216C118.907 40.586 116.863 40.2047 114.815 40.3086C112.674 40.2925 110.555 40.7347 108.599 41.6055C106.643 42.4763 104.896 43.7555 103.476 45.3572C100.334 48.7103 98.6355 53.1643 98.7479 57.7583C98.6418 62.3392 100.34 66.7785 103.476 70.1193C104.893 71.7267 106.639 73.0111 108.595 73.8855C110.551 74.76 112.672 75.2041 114.815 75.1879C116.866 75.2927 118.912 74.9098 120.785 74.0705C122.659 73.2311 124.307 71.9594 125.593 70.3597V74.2664H134.228V41.2302H125.593V45.1168ZM107.282 57.7583C107.235 56.5228 107.44 55.2907 107.885 54.1369C108.329 52.9832 109.003 51.9318 109.867 51.0469C110.716 50.1833 111.734 49.5044 112.858 49.0528C113.982 48.6012 115.187 48.3866 116.398 48.4224C117.617 48.3879 118.831 48.6028 119.964 49.0541C121.098 49.5054 122.127 50.1835 122.989 51.0469C123.859 51.9281 124.539 52.9783 124.987 54.1327C125.435 55.287 125.641 56.521 125.593 57.7583C125.639 58.9953 125.431 60.2286 124.984 61.3826C124.536 62.5367 123.857 63.5871 122.989 64.4697C122.126 65.3304 121.096 66.0055 119.963 66.4533C118.829 66.9012 117.616 67.1125 116.398 67.0741C115.188 67.1138 113.984 66.9029 112.86 66.4547C111.736 66.0065 110.717 65.3307 109.867 64.4697C109.005 63.5834 108.332 62.5318 107.888 61.3784C107.444 60.2249 107.238 58.9935 107.282 57.7583Z" fill="white"/>
<path d="M163.478 45.1166C162.203 43.5203 160.565 42.2514 158.701 41.4151C156.837 40.5789 154.8 40.1995 152.76 40.3085C150.609 40.2864 148.479 40.7256 146.512 41.5964C144.546 42.4673 142.789 43.7497 141.36 45.357C138.218 48.7102 136.52 53.1642 136.632 57.7581C136.526 62.3391 138.224 66.7783 141.36 70.1191C142.786 71.7322 144.541 73.0197 146.508 73.8943C148.475 74.7688 150.607 75.21 152.76 75.1877C154.802 75.2977 156.841 74.9167 158.706 74.0767C160.57 73.2366 162.207 71.962 163.478 70.3595V74.2662H171.992V28.0476H163.478V45.1567V45.1166ZM145.167 57.7581C145.119 56.5208 145.325 55.2868 145.773 54.1325C146.221 52.9781 146.901 51.9279 147.771 51.0467C149.54 49.3625 151.89 48.4232 154.332 48.4232C156.775 48.4232 159.124 49.3625 160.893 51.0467C161.757 51.9317 162.431 52.983 162.875 54.1368C163.32 55.2905 163.525 56.5226 163.478 57.7581C163.522 58.9933 163.316 60.2248 162.872 61.3782C162.428 62.5317 161.755 63.5832 160.893 64.4695C159.117 66.1402 156.771 67.0704 154.332 67.0704C151.894 67.0704 149.547 66.1402 147.771 64.4695C146.903 63.587 146.224 62.5365 145.777 61.3825C145.329 60.2284 145.121 58.9952 145.167 57.7581V57.7581Z" fill="white"/>
<path d="M79.5549 95.0818C78.9054 94.2793 78.0743 93.6428 77.1303 93.2248C76.1863 92.8068 75.1564 92.6193 74.1257 92.6777C73.0554 92.6703 71.9958 92.8917 71.018 93.327C70.0402 93.7624 69.1667 94.4016 68.456 95.202C66.9339 96.9087 66.0928 99.1156 66.0928 101.403C66.0928 103.689 66.9339 105.896 68.456 107.603C69.1612 108.414 70.0322 109.065 71.0103 109.511C71.9884 109.957 73.0508 110.187 74.1257 110.187C75.1498 110.239 76.1718 110.049 77.1083 109.631C78.0448 109.213 78.8693 108.58 79.5148 107.783V109.787H83.7821V93.1385H79.5549V95.1419V95.0818ZM70.3993 101.413C70.3738 100.794 70.4743 100.177 70.6947 99.5979C70.9151 99.0194 71.2509 98.4916 71.6815 98.0468C72.5701 97.2086 73.7455 96.7416 74.9671 96.7416C76.1887 96.7416 77.3641 97.2086 78.2527 98.0468C78.686 98.4906 79.0248 99.0177 79.2486 99.5962C79.4725 100.175 79.5767 100.793 79.5549 101.413C79.5763 102.029 79.4718 102.644 79.2479 103.219C79.0241 103.794 78.6854 104.318 78.2527 104.758C77.3641 105.596 76.1887 106.063 74.9671 106.063C73.7455 106.063 72.5701 105.596 71.6815 104.758C71.2514 104.317 70.9159 103.793 70.6954 103.218C70.4749 102.642 70.3742 102.028 70.3993 101.413V101.413ZM89.9726 93.1385H85.7054V109.667H89.9726V101.773C89.909 101.12 90.018 100.462 90.2887 99.864C90.5594 99.2663 90.9824 98.7502 91.5152 98.3673C92.5382 97.6785 93.7801 97.393 95.0012 97.566V92.8179C93.9287 92.8057 92.8718 93.0751 91.936 93.5992C91.0038 94.1279 90.2928 94.9741 89.9326 95.9833V93.1385H89.9726Z" fill="white"/>
<path d="M107.402 93.1384H103.656V88.5105L99.3883 89.7927V93.1384H96.5234V97.1452H99.3883V104.177C99.2892 105.052 99.4012 105.938 99.7149 106.76C100.029 107.583 100.535 108.318 101.191 108.905C103.098 109.909 105.3 110.2 107.402 109.727V105.8C106.735 105.837 106.066 105.837 105.399 105.8C104.956 105.799 104.526 105.651 104.176 105.379C104.018 105.212 103.896 105.013 103.82 104.796C103.744 104.578 103.715 104.347 103.736 104.117V97.2454H107.482V93.2385L107.402 93.1384ZM122.708 95.1418C122.254 94.3578 121.594 93.7134 120.799 93.2789C120.004 92.8444 119.105 92.6364 118.2 92.6776C117.31 92.6159 116.419 92.7866 115.615 93.1729C114.811 93.5593 114.121 94.148 113.612 94.8813V93.1384H109.345V109.666H113.612V100.371C113.539 99.3765 113.839 98.3908 114.454 97.606C114.736 97.2876 115.086 97.0362 115.477 96.8698C115.869 96.7035 116.293 96.6265 116.718 96.6443C117.091 96.6295 117.463 96.6952 117.809 96.837C118.155 96.9787 118.466 97.1931 118.721 97.4657C119.243 98.1241 119.507 98.9506 119.462 99.7897V109.666H123.71V100.371C123.646 99.3807 123.937 98.4004 124.531 97.606C124.811 97.2842 125.16 97.0304 125.552 96.8638C125.944 96.6971 126.369 96.6221 126.795 96.6443C127.168 96.6295 127.54 96.6952 127.886 96.837C128.232 96.9787 128.543 97.1931 128.798 97.4657C129.32 98.1241 129.584 98.9506 129.54 99.7897V109.666H133.787V99.4892C133.921 97.694 133.362 95.9158 132.224 94.5207C131.646 93.9062 130.943 93.4235 130.161 93.1054C129.38 92.7873 128.539 92.6414 127.696 92.6776C126.74 92.6209 125.784 92.8102 124.922 93.2275C124.059 93.6449 123.317 94.2763 122.768 95.0616L122.708 95.1418Z" fill="white"/>
<path d="M152.258 103.155C152.368 102.581 152.421 101.997 152.419 101.412C152.487 99.1044 151.637 96.8635 150.055 95.1818C149.289 94.3599 148.357 93.7112 147.321 93.2793C146.284 92.8474 145.167 92.6422 144.044 92.6776C142.879 92.6341 141.718 92.8343 140.635 93.2656C139.552 93.6968 138.57 94.3495 137.754 95.1818C136.171 96.8742 135.29 99.105 135.29 101.422C135.29 103.74 136.171 105.971 137.754 107.663C138.627 108.516 139.666 109.181 140.807 109.615C141.948 110.049 143.166 110.244 144.385 110.187C145.788 110.266 147.189 109.983 148.451 109.365C149.714 108.748 150.797 107.817 151.597 106.661L148.171 104.658C147.733 105.211 147.166 105.649 146.521 105.935C145.875 106.222 145.17 106.347 144.465 106.301C143.442 106.443 142.402 106.205 141.542 105.633C140.682 105.061 140.062 104.194 139.797 103.195L152.258 103.155ZM141.22 97.3856C142.041 96.7779 143.044 96.4671 144.065 96.5041C144.995 96.4939 145.903 96.7895 146.649 97.3455C147.485 97.9438 148.058 98.8403 148.252 99.8497H139.737C139.925 98.8791 140.45 98.0062 141.22 97.3856V97.3856ZM167.144 95.0816C166.505 94.2827 165.684 93.6478 164.75 93.2297C163.816 92.8116 162.796 92.6223 161.775 92.6776C160.701 92.666 159.637 92.8854 158.655 93.3209C157.674 93.7564 156.797 94.3979 156.085 95.2018C154.563 96.9086 153.722 99.1155 153.722 101.402C153.722 103.689 154.563 105.896 156.085 107.603C156.791 108.418 157.666 109.071 158.647 109.517C159.629 109.963 160.696 110.191 161.775 110.187C162.796 110.243 163.816 110.053 164.75 109.635C165.684 109.217 166.505 108.582 167.144 107.783V109.787H171.411V86.5271H167.144V95.0816V95.0816ZM157.988 101.412C157.96 100.799 158.059 100.186 158.279 99.6125C158.499 99.0389 158.834 98.5168 159.265 98.0787C159.695 97.6407 160.212 97.2961 160.781 97.0665C161.351 96.8369 161.962 96.7273 162.576 96.7445C163.181 96.7246 163.783 96.8301 164.345 97.0542C164.907 97.2783 165.416 97.6162 165.842 98.0467C166.275 98.4905 166.614 99.0176 166.837 99.5961C167.061 100.175 167.165 100.792 167.144 101.412C167.165 102.029 167.061 102.644 166.837 103.219C166.613 103.794 166.274 104.318 165.842 104.758C165.419 105.193 164.91 105.533 164.348 105.758C163.785 105.982 163.181 106.085 162.576 106.06C161.968 106.083 161.362 105.979 160.796 105.755C160.231 105.53 159.718 105.191 159.29 104.758C158.854 104.321 158.513 103.798 158.288 103.222C158.064 102.646 157.962 102.03 157.988 101.412V101.412Z" fill="white"/>
</svg>
