<svg viewBox="0 0 1183 32" fill="none" xmlns="http://www.w3.org/2000/svg">
<path d="M1158.37 13.8701H24.6396V18.1301H1158.37V13.8701Z" fill="#767676"/>
<path d="M16 32C24.8366 32 32 24.8366 32 16C32 7.16344 24.8366 0 16 0C7.16344 0 0 7.16344 0 16C0 24.8366 7.16344 32 16 32Z" fill="#1EBCC5"/>
<path d="M16 30C23.732 30 30 23.732 30 16C30 8.26801 23.732 2 16 2C8.26801 2 2 8.26801 2 16C2 23.732 8.26801 30 16 30Z" fill="#3B3A3A"/>
<path d="M399.67 32C408.506 32 415.67 24.8366 415.67 16C415.67 7.16344 408.506 0 399.67 0C390.833 0 383.67 7.16344 383.67 16C383.67 24.8366 390.833 32 399.67 32Z" fill="#1EBCC5"/>
<path d="M399.67 30C407.402 30 413.67 23.732 413.67 16C413.67 8.26801 407.402 2 399.67 2C391.938 2 385.67 8.26801 385.67 16C385.67 23.732 391.938 30 399.67 30Z" fill="#3B3A3A"/>
<path d="M783.33 32C792.167 32 799.33 24.8366 799.33 16C799.33 7.16344 792.167 0 783.33 0C774.494 0 767.33 7.16344 767.33 16C767.33 24.8366 774.494 32 783.33 32Z" fill="#1EBCC5"/>
<path d="M783.33 30C791.062 30 797.33 23.732 797.33 16C797.33 8.26801 791.062 2 783.33 2C775.598 2 769.33 8.26801 769.33 16C769.33 23.732 775.598 30 783.33 30Z" fill="#3B3A3A"/>
<path d="M1167 32C1175.84 32 1183 24.8366 1183 16C1183 7.16344 1175.84 0 1167 0C1158.16 0 1151 7.16344 1151 16C1151 24.8366 1158.16 32 1167 32Z" fill="#1EBCC5"/>
<path d="M1167 30C1174.73 30 1181 23.732 1181 16C1181 8.26801 1174.73 2 1167 2C1159.27 2 1153 8.26801 1153 16C1153 23.732 1159.27 30 1167 30Z" fill="#3B3A3A"/>
</svg>
